<?xml version="1.0" encoding="UTF-8" standalone="no"?>
<!DOCTYPE svg PUBLIC "-//W3C//DTD SVG 1.1//EN" "http://www.w3.org/Graphics/SVG/1.1/DTD/svg11.dtd">
<svg width="40px" height="40px" version="1.1" xmlns="http://www.w3.org/2000/svg" xmlns:xlink="http://www.w3.org/1999/xlink" xml:space="preserve" xmlns:serif="http://www.serif.com/" style="fill-rule:evenodd;clip-rule:evenodd;stroke-linejoin:round;stroke-miterlimit:2;">
    <g id="_2" serif:id="2">
        <path d="M23.526,0.525C21.326,0.525 19.176,0.942 17.076,1.775C17.009,1.808 16.959,1.842 16.926,1.875C15.092,2.508 13.442,3.258 11.976,4.125C10.442,4.992 9.259,5.742 8.426,6.375C7.692,6.908 7.159,7.342 6.826,7.675C6.092,8.308 5.692,9.125 5.626,10.125L5.676,10.025C5.542,10.925 5.709,11.775 6.176,12.575L6.176,12.625L9.676,18.425C9.709,18.492 9.759,18.575 9.826,18.675L9.876,18.725L11.076,20.475C10.542,20.842 10.026,21.192 9.526,21.525C9.426,21.558 9.359,21.592 9.326,21.625C8.392,22.192 7.609,22.658 6.976,23.025C6.842,23.092 6.726,23.158 6.626,23.225L6.576,23.225C5.709,23.692 5.076,24.125 4.676,24.525C4.342,24.792 4.126,25.058 4.026,25.325C3.726,25.792 3.559,26.342 3.526,26.975L3.576,26.925L2.626,35.075L2.626,34.925C2.459,35.725 2.559,36.492 2.926,37.225L2.926,37.175C3.226,37.875 3.709,38.442 4.376,38.875C4.409,38.875 4.442,38.892 4.476,38.925C5.042,39.292 5.726,39.475 6.526,39.475L29.076,39.475C29.976,39.475 30.792,39.225 31.526,38.725C31.559,38.658 31.609,38.608 31.676,38.575C32.276,38.008 32.692,37.342 32.926,36.575C32.959,36.542 32.976,36.508 32.976,36.475L35.026,28.325C35.226,27.558 35.192,26.792 34.926,26.025C34.926,25.958 34.909,25.908 34.876,25.875C34.542,25.075 34.026,24.458 33.326,24.025L33.426,24.075C32.992,23.742 32.542,23.525 32.076,23.425C33.009,22.392 33.876,21.275 34.676,20.075C35.909,18.142 36.742,16.075 37.176,13.875L37.176,13.825C37.976,9.358 37.042,6.008 34.376,3.775C34.342,3.742 34.309,3.725 34.276,3.725C32.242,1.592 28.659,0.525 23.526,0.525M17.776,3.625C19.642,2.892 21.559,2.525 23.526,2.525C28.059,2.525 31.209,3.442 32.976,5.275L33.026,5.275C35.126,7.108 35.842,9.842 35.176,13.475C34.809,15.442 34.076,17.275 32.976,18.975C31.942,20.575 30.759,22.008 29.426,23.275C28.526,24.108 27.676,24.842 26.876,25.475L31.076,25.325C31.476,25.292 31.859,25.408 32.226,25.675C32.592,25.908 32.859,26.225 33.026,26.625C33.159,27.025 33.176,27.425 33.076,27.825L31.026,35.975C30.892,36.408 30.659,36.775 30.326,37.075C29.959,37.342 29.542,37.475 29.076,37.475L6.526,37.475C6.126,37.475 5.776,37.375 5.476,37.175C5.142,36.975 4.892,36.692 4.726,36.325C4.559,35.992 4.509,35.642 4.576,35.275L5.526,27.125C5.559,26.658 5.742,26.258 6.076,25.925C6.076,25.825 6.576,25.508 7.576,24.975L7.626,24.925C8.326,24.525 9.226,23.992 10.326,23.325L10.326,23.375C11.426,22.642 12.609,21.842 13.876,20.975C15.109,20.142 16.292,19.258 17.426,18.325C18.459,17.458 19.342,16.592 20.076,15.725L20.126,15.675C20.559,15.175 20.859,14.725 21.026,14.325C20.492,14.358 19.942,14.492 19.376,14.725C18.542,15.058 17.759,15.475 17.026,15.975C16.226,16.475 15.576,16.908 15.076,17.275L15.126,17.225L14.326,17.875C14.026,18.108 13.692,18.258 13.326,18.325C12.926,18.358 12.559,18.292 12.226,18.125C11.859,17.958 11.576,17.708 11.376,17.375L7.876,11.575C7.642,11.175 7.559,10.742 7.626,10.275C7.659,9.808 7.842,9.425 8.176,9.125C8.209,9.058 8.692,8.675 9.626,7.975C10.426,7.375 11.542,6.658 12.976,5.825C14.409,4.992 16.026,4.258 17.826,3.625L17.776,3.625Z" style="fill:rgb(204,204,204);fill-rule:nonzero;"/>
        <path d="M23.526,2.525C21.559,2.525 19.642,2.892 17.776,3.625L17.826,3.625C16.026,4.258 14.409,4.992 12.976,5.825C11.542,6.658 10.426,7.375 9.626,7.975C8.692,8.675 8.209,9.058 8.176,9.125C7.842,9.425 7.659,9.808 7.626,10.275C7.559,10.742 7.642,11.175 7.876,11.575L11.376,17.375C11.576,17.708 11.859,17.958 12.226,18.125C12.559,18.292 12.926,18.358 13.326,18.325C13.692,18.258 14.026,18.108 14.326,17.875L15.126,17.225L15.076,17.275C15.576,16.908 16.226,16.475 17.026,15.975C17.759,15.475 18.542,15.058 19.376,14.725C19.942,14.492 20.492,14.358 21.026,14.325C20.859,14.725 20.559,15.175 20.126,15.675L20.076,15.725C19.342,16.592 18.459,17.458 17.426,18.325C16.292,19.258 15.109,20.142 13.876,20.975C12.609,21.842 11.426,22.642 10.326,23.375L10.326,23.325C9.226,23.992 8.326,24.525 7.626,24.925L7.576,24.975C6.576,25.508 6.076,25.825 6.076,25.925C5.742,26.258 5.559,26.658 5.526,27.125L4.576,35.275C4.509,35.642 4.559,35.992 4.726,36.325C4.892,36.692 5.142,36.975 5.476,37.175C5.776,37.375 6.126,37.475 6.526,37.475L29.076,37.475C29.542,37.475 29.959,37.342 30.326,37.075C30.659,36.775 30.892,36.408 31.026,35.975L33.076,27.825C33.176,27.425 33.159,27.025 33.026,26.625C32.859,26.225 32.592,25.908 32.226,25.675C31.859,25.408 31.476,25.292 31.076,25.325L26.876,25.475C27.676,24.842 28.526,24.108 29.426,23.275C30.759,22.008 31.942,20.575 32.976,18.975C34.076,17.275 34.809,15.442 35.176,13.475C35.842,9.842 35.126,7.108 33.026,5.275L32.976,5.275C31.209,3.442 28.059,2.525 23.526,2.525M18.476,5.475C20.109,4.842 21.792,4.525 23.526,4.525C27.392,4.525 30.092,5.258 31.626,6.725C33.192,8.158 33.709,10.292 33.176,13.125C32.876,14.825 32.242,16.408 31.276,17.875C30.342,19.342 29.259,20.658 28.026,21.825C26.792,22.992 25.592,23.975 24.426,24.775C23.259,25.608 22.292,26.242 21.526,26.675C20.759,27.108 20.359,27.325 20.326,27.325L20.276,27.725L31.126,27.325L29.076,35.475L6.526,35.475L7.476,27.325C7.509,27.292 7.876,27.075 8.576,26.675C9.309,26.275 10.242,25.725 11.376,25.025C12.509,24.292 13.709,23.492 14.976,22.625C16.276,21.758 17.509,20.842 18.676,19.875C19.842,18.908 20.826,17.942 21.626,16.975C22.459,16.042 22.942,15.175 23.076,14.375C23.176,13.742 23.076,13.225 22.776,12.825C22.476,12.458 21.992,12.275 21.326,12.275C20.459,12.275 19.542,12.475 18.576,12.875C17.642,13.275 16.759,13.742 15.926,14.275C15.092,14.808 14.409,15.275 13.876,15.675L13.076,16.325L9.576,10.525C9.609,10.492 10.026,10.175 10.826,9.575C11.592,9.008 12.642,8.325 13.976,7.525C15.309,6.758 16.809,6.075 18.476,5.475Z" style="fill:white;fill-rule:nonzero;"/>
        <path d="M23.526,4.525C21.792,4.525 20.109,4.842 18.476,5.475C16.809,6.075 15.309,6.758 13.976,7.525C12.642,8.325 11.592,9.008 10.826,9.575C10.026,10.175 9.609,10.492 9.576,10.525L13.076,16.325L13.876,15.675C14.409,15.275 15.092,14.808 15.926,14.275C16.759,13.742 17.642,13.275 18.576,12.875C19.542,12.475 20.459,12.275 21.326,12.275C21.992,12.275 22.476,12.458 22.776,12.825C23.076,13.225 23.176,13.742 23.076,14.375C22.942,15.175 22.459,16.042 21.626,16.975C20.826,17.942 19.842,18.908 18.676,19.875C17.509,20.842 16.276,21.758 14.976,22.625C13.709,23.492 12.509,24.292 11.376,25.025C10.242,25.725 9.309,26.275 8.576,26.675C7.876,27.075 7.509,27.292 7.476,27.325L6.526,35.475L29.076,35.475L31.126,27.325L20.276,27.725L20.326,27.325C20.359,27.325 20.759,27.108 21.526,26.675C22.292,26.242 23.259,25.608 24.426,24.775C25.592,23.975 26.792,22.992 28.026,21.825C29.259,20.658 30.342,19.342 31.276,17.875C32.242,16.408 32.876,14.825 33.176,13.125C33.709,10.292 33.192,8.158 31.626,6.725C30.092,5.258 27.392,4.525 23.526,4.525Z" style="fill:rgb(255,204,0);fill-rule:nonzero;"/>
    </g>
</svg>
