<?xml version="1.0" encoding="UTF-8" standalone="no"?>
<!DOCTYPE svg PUBLIC "-//W3C//DTD SVG 1.1//EN" "http://www.w3.org/Graphics/SVG/1.1/DTD/svg11.dtd">
<svg width="40px" height="40px" version="1.1" xmlns="http://www.w3.org/2000/svg" xmlns:xlink="http://www.w3.org/1999/xlink" xml:space="preserve" xmlns:serif="http://www.serif.com/" style="fill-rule:evenodd;clip-rule:evenodd;stroke-linejoin:round;stroke-miterlimit:2;">
    <g id="_6" serif:id="6">
        <path d="M34.121,0.657L34.071,0.607C33.371,0.207 32.655,0.04 31.921,0.107L31.871,0.107C23.538,0.607 17.155,2.69 12.721,6.357L12.671,6.357C7.905,10.024 4.988,15.24 3.921,22.007C3.255,25.54 3.471,28.607 4.571,31.207C5.671,33.974 7.455,36.124 9.921,37.657C12.255,39.157 15.071,39.907 18.371,39.907L18.471,39.907C21.305,39.874 23.971,39.257 26.471,38.057L26.471,38.107C29.071,36.874 31.188,35.274 32.821,33.307C34.621,31.107 35.755,28.69 36.221,26.057L36.221,26.007C36.655,23.04 36.488,20.507 35.721,18.407L35.721,18.357C35.255,17.09 34.655,15.99 33.921,15.057C34.255,14.857 34.588,14.624 34.921,14.357C34.955,14.29 35.005,14.24 35.071,14.207C35.771,13.44 36.121,12.507 36.121,11.407L36.121,4.107C36.121,3.374 35.938,2.707 35.571,2.107C35.538,2.074 35.521,2.04 35.521,2.007C35.121,1.407 34.655,0.957 34.121,0.657M33.071,2.357C33.371,2.524 33.621,2.774 33.821,3.107C34.021,3.407 34.121,3.74 34.121,4.107L34.121,11.407C34.121,11.974 33.938,12.457 33.571,12.857C33.171,13.224 32.688,13.407 32.121,13.407C32.088,13.407 31.805,13.424 31.271,13.457L31.171,13.457C30.605,13.457 29.888,13.524 29.021,13.657L28.921,13.657C29.421,13.89 29.905,14.157 30.371,14.457C31.938,15.524 33.088,17.057 33.821,19.057C34.488,20.89 34.621,23.107 34.221,25.707C33.821,28.007 32.838,30.107 31.271,32.007C29.805,33.774 27.921,35.19 25.621,36.257C23.388,37.324 20.988,37.874 18.421,37.907L18.371,37.907C15.505,37.907 13.038,37.257 10.971,35.957C8.871,34.657 7.355,32.824 6.421,30.457C5.488,28.157 5.305,25.44 5.871,22.307C6.871,16.107 9.555,11.307 13.921,7.907C18.121,4.507 24.155,2.574 32.021,2.107C32.388,2.074 32.738,2.157 33.071,2.357Z" style="fill:rgb(204,204,204);fill-rule:nonzero;"/>
        <path d="M33.821,3.107C33.621,2.774 33.371,2.524 33.071,2.357C32.738,2.157 32.388,2.074 32.021,2.107C24.155,2.574 18.121,4.507 13.921,7.907C9.555,11.307 6.871,16.107 5.871,22.307C5.305,25.44 5.488,28.157 6.421,30.457C7.355,32.824 8.871,34.657 10.971,35.957C13.038,37.257 15.505,37.907 18.371,37.907L18.421,37.907C20.988,37.874 23.388,37.324 25.621,36.257C27.921,35.19 29.805,33.774 31.271,32.007C32.838,30.107 33.821,28.007 34.221,25.707C34.621,23.107 34.488,20.89 33.821,19.057C33.088,17.057 31.938,15.524 30.371,14.457C29.905,14.157 29.421,13.89 28.921,13.657L29.021,13.657C29.888,13.524 30.605,13.457 31.171,13.457L31.271,13.457C31.805,13.424 32.088,13.407 32.121,13.407C32.688,13.407 33.171,13.224 33.571,12.857C33.938,12.457 34.121,11.974 34.121,11.407L34.121,4.107C34.121,3.74 34.021,3.407 33.821,3.107M31.171,11.457C30.538,11.457 29.721,11.524 28.721,11.657C27.721,11.79 26.671,11.99 25.571,12.257C24.438,12.524 23.371,12.907 22.371,13.407C21.371,13.874 20.538,14.49 19.871,15.257L19.771,15.707C21.538,14.974 23.238,14.64 24.871,14.707C26.538,14.807 27.988,15.274 29.221,16.107C30.455,16.94 31.355,18.14 31.921,19.707C32.488,21.274 32.588,23.157 32.221,25.357C31.888,27.324 31.055,29.107 29.721,30.707C28.421,32.274 26.771,33.524 24.771,34.457C22.805,35.39 20.671,35.874 18.371,35.907C15.905,35.907 13.788,35.357 12.021,34.257C10.288,33.19 9.038,31.674 8.271,29.707C7.505,27.707 7.355,25.34 7.821,22.607C8.755,16.974 11.205,12.59 15.171,9.457C19.105,6.324 24.755,4.54 32.121,4.107L32.121,11.407C32.088,11.407 31.771,11.424 31.171,11.457M19.221,28.607C20.121,28.607 20.888,28.307 21.521,27.707C22.188,27.14 22.605,26.357 22.771,25.357C22.938,24.39 22.788,23.624 22.321,23.057C21.888,22.49 21.221,22.19 20.321,22.157C19.455,22.19 18.688,22.49 18.021,23.057C17.388,23.624 16.971,24.39 16.771,25.357C16.605,26.357 16.755,27.14 17.221,27.707C17.688,28.307 18.355,28.607 19.221,28.607Z" style="fill:white;fill-rule:nonzero;"/>
        <path d="M28.721,11.657C29.721,11.524 30.538,11.457 31.171,11.457C31.771,11.424 32.088,11.407 32.121,11.407L32.121,4.107C24.755,4.54 19.105,6.324 15.171,9.457C11.205,12.59 8.755,16.974 7.821,22.607C7.355,25.34 7.505,27.707 8.271,29.707C9.038,31.674 10.288,33.19 12.021,34.257C13.788,35.357 15.905,35.907 18.371,35.907C20.671,35.874 22.805,35.39 24.771,34.457C26.771,33.524 28.421,32.274 29.721,30.707C31.055,29.107 31.888,27.324 32.221,25.357C32.588,23.157 32.488,21.274 31.921,19.707C31.355,18.14 30.455,16.94 29.221,16.107C27.988,15.274 26.538,14.807 24.871,14.707C23.238,14.64 21.538,14.974 19.771,15.707L19.871,15.257C20.538,14.49 21.371,13.874 22.371,13.407C23.371,12.907 24.438,12.524 25.571,12.257C26.671,11.99 27.721,11.79 28.721,11.657M21.521,27.707C20.888,28.307 20.121,28.607 19.221,28.607C18.355,28.607 17.688,28.307 17.221,27.707C16.755,27.14 16.605,26.357 16.771,25.357C16.971,24.39 17.388,23.624 18.021,23.057C18.688,22.49 19.455,22.19 20.321,22.157C21.221,22.19 21.888,22.49 22.321,23.057C22.788,23.624 22.938,24.39 22.771,25.357C22.605,26.357 22.188,27.14 21.521,27.707Z" style="fill:rgb(255,204,0);fill-rule:nonzero;"/>
    </g>
</svg>
