<?xml version="1.0" encoding="UTF-8" standalone="no"?>
<!DOCTYPE svg PUBLIC "-//W3C//DTD SVG 1.1//EN" "http://www.w3.org/Graphics/SVG/1.1/DTD/svg11.dtd">
<svg width="40px" height="40px" version="1.1" xmlns="http://www.w3.org/2000/svg" xmlns:xlink="http://www.w3.org/1999/xlink" xml:space="preserve" xmlns:serif="http://www.serif.com/" style="fill-rule:evenodd;clip-rule:evenodd;stroke-linejoin:round;stroke-miterlimit:2;">
    <g id="_9" serif:id="9">
        <path d="M35.464,8.892C35.43,8.759 35.38,8.642 35.314,8.542C34.147,5.842 32.38,3.776 30.014,2.342L30.064,2.342C27.664,0.842 24.847,0.092 21.614,0.092C18.68,0.126 15.964,0.742 13.464,1.942C10.964,3.142 8.88,4.759 7.214,6.792L7.164,6.842C5.364,8.942 4.247,11.292 3.814,13.892C3.78,13.959 3.764,14.026 3.764,14.092C3.297,17.026 3.48,19.559 4.314,21.692C4.747,22.926 5.347,24.026 6.114,24.992C5.714,25.159 5.364,25.409 5.064,25.742C5.03,25.776 4.997,25.809 4.964,25.842C4.197,26.576 3.814,27.492 3.814,28.592L3.814,35.892C3.814,36.626 4.014,37.326 4.414,37.992L4.464,38.042C4.797,38.609 5.28,39.076 5.914,39.442L5.964,39.442C6.564,39.809 7.28,39.959 8.114,39.892L8.164,39.892C16.464,39.392 22.847,37.342 27.314,33.742C32.08,30.009 35.03,24.809 36.164,18.142C36.764,14.509 36.53,11.426 35.464,8.892M33.564,9.592L33.614,9.642C34.514,11.876 34.697,14.592 34.164,17.792C33.13,23.926 30.43,28.709 26.064,32.142C21.83,35.509 15.797,37.426 7.964,37.892C7.564,37.926 7.214,37.859 6.914,37.692C6.58,37.492 6.314,37.242 6.114,36.942C5.914,36.609 5.814,36.259 5.814,35.892L5.814,28.592C5.814,28.026 6.014,27.559 6.414,27.192C6.78,26.792 7.247,26.592 7.814,26.592C7.847,26.592 8.147,26.576 8.714,26.542L8.814,26.542C9.38,26.542 10.114,26.492 11.014,26.392C11.014,26.359 11.03,26.342 11.064,26.342C10.564,26.109 10.097,25.842 9.664,25.542C8.03,24.442 6.864,22.926 6.164,20.992C5.464,19.126 5.33,16.892 5.764,14.292L5.764,14.242C6.16,11.965 7.143,9.915 8.714,8.092C10.214,6.259 12.08,4.809 14.314,3.742C16.547,2.676 18.98,2.126 21.614,2.092C24.447,2.092 26.897,2.742 28.964,4.042C31.064,5.309 32.597,7.159 33.564,9.592Z" style="fill:rgb(204,204,204);fill-rule:nonzero;"/>
        <path d="M33.614,9.642L33.564,9.592C32.597,7.159 31.064,5.309 28.964,4.042C26.897,2.742 24.447,2.092 21.614,2.092C18.98,2.126 16.547,2.676 14.314,3.742C12.08,4.809 10.214,6.259 8.714,8.092C7.143,9.915 6.16,11.965 5.764,14.242L5.764,14.292C5.33,16.892 5.464,19.126 6.164,20.992C6.864,22.926 8.03,24.442 9.664,25.542C10.097,25.842 10.564,26.109 11.064,26.342C11.03,26.342 11.014,26.359 11.014,26.392C10.114,26.492 9.38,26.542 8.814,26.542L8.714,26.542C8.147,26.576 7.847,26.592 7.814,26.592C7.247,26.592 6.78,26.792 6.414,27.192C6.014,27.559 5.814,28.026 5.814,28.592L5.814,35.892C5.814,36.259 5.914,36.609 6.114,36.942C6.314,37.242 6.58,37.492 6.914,37.692C7.214,37.859 7.564,37.926 7.964,37.892C15.797,37.426 21.83,35.509 26.064,32.142C30.43,28.709 33.13,23.926 34.164,17.792C34.697,14.592 34.514,11.876 33.614,9.642M31.714,10.342C32.48,12.309 32.63,14.676 32.164,17.442C31.23,23.042 28.78,27.409 24.814,30.542C20.847,33.676 15.18,35.459 7.814,35.892L7.814,28.592C7.847,28.592 8.18,28.576 8.814,28.542C9.447,28.542 10.264,28.476 11.264,28.342C12.23,28.242 13.28,28.042 14.414,27.742C15.547,27.476 16.614,27.109 17.614,26.642C18.614,26.142 19.464,25.509 20.164,24.742L20.214,24.292C18.447,25.059 16.747,25.392 15.114,25.292C13.447,25.226 11.997,24.759 10.764,23.892C9.497,23.026 8.58,21.826 8.014,20.292C7.447,18.726 7.347,16.826 7.714,14.592C8.08,12.659 8.93,10.909 10.264,9.342C11.564,7.742 13.197,6.476 15.164,5.542C17.13,4.609 19.28,4.126 21.614,4.092C24.047,4.092 26.147,4.642 27.914,5.742C29.647,6.809 30.914,8.342 31.714,10.342M20.764,11.392C19.864,11.426 19.097,11.726 18.464,12.292C17.797,12.859 17.364,13.626 17.164,14.592C16.997,15.592 17.147,16.376 17.614,16.942C18.08,17.542 18.747,17.842 19.614,17.842C20.514,17.842 21.28,17.542 21.914,16.942C22.58,16.376 22.997,15.592 23.164,14.592C23.33,13.626 23.197,12.859 22.764,12.292C22.297,11.726 21.63,11.426 20.764,11.392M19.464,14.192L19.464,14.392L19.414,14.292C19.414,14.259 19.43,14.226 19.464,14.192Z" style="fill:white;fill-rule:nonzero;"/>
        <path d="M32.164,17.442C32.63,14.676 32.48,12.309 31.714,10.342C30.914,8.342 29.647,6.809 27.914,5.742C26.147,4.642 24.047,4.092 21.614,4.092C19.28,4.126 17.13,4.609 15.164,5.542C13.197,6.476 11.564,7.742 10.264,9.342C8.93,10.909 8.08,12.659 7.714,14.592C7.347,16.826 7.447,18.726 8.014,20.292C8.58,21.826 9.497,23.026 10.764,23.892C11.997,24.759 13.447,25.226 15.114,25.292C16.747,25.392 18.447,25.059 20.214,24.292L20.164,24.742C19.464,25.509 18.614,26.142 17.614,26.642C16.614,27.109 15.547,27.476 14.414,27.742C13.28,28.042 12.23,28.242 11.264,28.342C10.264,28.476 9.447,28.542 8.814,28.542C8.18,28.576 7.847,28.592 7.814,28.592L7.814,35.892C15.18,35.459 20.847,33.676 24.814,30.542C28.78,27.409 31.23,23.042 32.164,17.442M18.464,12.292C19.097,11.726 19.864,11.426 20.764,11.392C21.63,11.426 22.297,11.726 22.764,12.292C23.197,12.859 23.33,13.626 23.164,14.592C22.997,15.592 22.58,16.376 21.914,16.942C21.28,17.542 20.514,17.842 19.614,17.842C18.747,17.842 18.08,17.542 17.614,16.942C17.147,16.376 16.997,15.592 17.164,14.592C17.364,13.626 17.797,12.859 18.464,12.292Z" style="fill:rgb(255,204,0);fill-rule:nonzero;"/>
    </g>
</svg>
