<?xml version="1.0" encoding="UTF-8" standalone="no"?>
<!DOCTYPE svg PUBLIC "-//W3C//DTD SVG 1.1//EN" "http://www.w3.org/Graphics/SVG/1.1/DTD/svg11.dtd">
<svg width="40px" height="40px" version="1.1" xmlns="http://www.w3.org/2000/svg" xmlns:xlink="http://www.w3.org/1999/xlink" xml:space="preserve" xmlns:serif="http://www.serif.com/" style="fill-rule:evenodd;clip-rule:evenodd;stroke-linejoin:round;stroke-miterlimit:2;">
    <g id="_5" serif:id="5">
        <path d="M12.024,1.575C11.258,2.175 10.824,2.958 10.724,3.925L10.724,3.825L7.724,20.975C7.558,21.608 7.591,22.242 7.824,22.875L3.224,29.325L3.274,29.275C2.574,30.142 2.324,31.158 2.524,32.325L2.524,32.225C2.624,33.325 3.158,34.225 4.124,34.925L4.974,35.525C5.074,35.558 5.174,35.608 5.274,35.675C5.874,36.042 6.741,36.542 7.874,37.175C7.974,37.208 8.091,37.258 8.224,37.325C9.358,37.825 10.691,38.308 12.224,38.775L12.274,38.775C13.908,39.208 15.724,39.442 17.724,39.475L17.774,39.475C20.841,39.475 23.608,38.958 26.074,37.925C26.174,37.892 26.274,37.842 26.374,37.775C28.774,36.742 30.824,35.258 32.524,33.325C32.524,33.292 32.541,33.275 32.574,33.275C34.274,31.208 35.408,28.775 35.974,25.975C35.974,25.908 35.991,25.858 36.024,25.825L36.024,25.725C36.391,23.225 36.324,21.142 35.824,19.475L35.774,19.425C35.374,18.125 34.808,16.992 34.074,16.025C34.441,15.858 34.808,15.642 35.174,15.375C35.174,15.342 35.191,15.325 35.224,15.325C35.991,14.592 36.441,13.758 36.574,12.825L36.574,12.775L37.524,5.025L37.524,4.975C37.591,4.242 37.474,3.542 37.174,2.875C36.808,2.108 36.324,1.542 35.724,1.175L35.674,1.125C35.008,0.725 34.291,0.525 33.524,0.525L14.624,0.525C13.724,0.525 12.908,0.825 12.174,1.425C12.108,1.458 12.058,1.508 12.024,1.575M13.374,3.025C13.741,2.692 14.158,2.525 14.624,2.525L33.524,2.525C33.924,2.525 34.291,2.625 34.624,2.825C34.924,3.025 35.158,3.308 35.324,3.675C35.491,4.042 35.558,4.408 35.524,4.775L34.574,12.525C34.508,13.025 34.274,13.458 33.874,13.825C33.474,14.158 33.024,14.308 32.524,14.275L28.424,14.125C29.524,14.592 30.541,15.275 31.474,16.175L31.524,16.175C32.591,17.175 33.374,18.458 33.874,20.025C34.308,21.492 34.358,23.325 34.024,25.525L34.024,25.575C33.524,28.042 32.524,30.175 31.024,31.975C29.458,33.775 27.524,35.142 25.224,36.075L25.274,36.075C23.041,37.008 20.541,37.475 17.774,37.475L17.724,37.475C15.924,37.442 14.274,37.225 12.774,36.825C11.241,36.392 9.924,35.908 8.824,35.375L8.774,35.375C7.641,34.775 6.791,34.292 6.224,33.925C6.191,33.892 6.158,33.875 6.124,33.875L5.274,33.275C4.808,32.942 4.541,32.508 4.474,31.975C4.374,31.408 4.491,30.908 4.824,30.475L9.624,23.775C9.791,23.508 10.008,23.308 10.274,23.175C10.074,22.975 9.924,22.758 9.824,22.525C9.624,22.125 9.574,21.725 9.674,21.325L12.674,4.175C12.741,3.708 12.974,3.325 13.374,3.025Z" style="fill:rgb(204,204,204);fill-rule:nonzero;"/>
        <path d="M14.624,2.525C14.158,2.525 13.741,2.692 13.374,3.025C12.974,3.325 12.741,3.708 12.674,4.175L9.674,21.325C9.574,21.725 9.624,22.125 9.824,22.525C9.924,22.758 10.074,22.975 10.274,23.175C10.008,23.308 9.791,23.508 9.624,23.775L4.824,30.475C4.491,30.908 4.374,31.408 4.474,31.975C4.541,32.508 4.808,32.942 5.274,33.275L6.124,33.875C6.158,33.875 6.191,33.892 6.224,33.925C6.791,34.292 7.641,34.775 8.774,35.375L8.824,35.375C9.924,35.908 11.241,36.392 12.774,36.825C14.274,37.225 15.924,37.442 17.724,37.475L17.774,37.475C20.541,37.475 23.041,37.008 25.274,36.075L25.224,36.075C27.524,35.142 29.458,33.775 31.024,31.975C32.524,30.175 33.524,28.042 34.024,25.575L34.024,25.525C34.358,23.325 34.308,21.492 33.874,20.025C33.374,18.458 32.591,17.175 31.524,16.175L31.474,16.175C30.541,15.275 29.524,14.592 28.424,14.125L32.524,14.275C33.024,14.308 33.474,14.158 33.874,13.825C34.274,13.458 34.508,13.025 34.574,12.525L35.524,4.775C35.558,4.408 35.491,4.042 35.324,3.675C35.158,3.308 34.924,3.025 34.624,2.825C34.291,2.625 33.924,2.525 33.524,2.525L14.624,2.525M21.924,11.825L21.424,14.825L22.324,14.825C22.924,14.858 23.691,14.942 24.624,15.075C25.524,15.242 26.474,15.508 27.474,15.875C28.441,16.275 29.324,16.858 30.124,17.625C30.958,18.392 31.558,19.375 31.924,20.575C32.291,21.808 32.324,23.342 32.024,25.175C31.624,27.308 30.774,29.142 29.474,30.675C28.141,32.242 26.474,33.425 24.474,34.225C22.474,35.058 20.241,35.475 17.774,35.475C16.141,35.442 14.641,35.242 13.274,34.875C11.908,34.508 10.708,34.075 9.674,33.575C8.641,33.042 7.841,32.592 7.274,32.225L6.424,31.625L11.224,24.925C11.224,24.992 11.591,25.242 12.324,25.675C13.024,26.142 13.974,26.592 15.174,27.025C16.374,27.458 17.691,27.692 19.124,27.725C20.191,27.692 21.008,27.425 21.574,26.925C22.141,26.425 22.474,25.842 22.574,25.175C22.741,24.442 22.524,23.758 21.924,23.125C21.358,22.492 20.258,22.025 18.624,21.725C16.991,21.425 14.658,21.408 11.624,21.675L14.624,4.525L33.524,4.525L32.574,12.275L21.924,11.825Z" style="fill:white;fill-rule:nonzero;"/>
        <path d="M21.424,14.825L21.924,11.825L32.574,12.275L33.524,4.525L14.624,4.525L11.624,21.675C14.658,21.408 16.991,21.425 18.624,21.725C20.258,22.025 21.358,22.492 21.924,23.125C22.524,23.758 22.741,24.442 22.574,25.175C22.474,25.842 22.141,26.425 21.574,26.925C21.008,27.425 20.191,27.692 19.124,27.725C17.691,27.692 16.374,27.458 15.174,27.025C13.974,26.592 13.024,26.142 12.324,25.675C11.591,25.242 11.224,24.992 11.224,24.925L6.424,31.625L7.274,32.225C7.841,32.592 8.641,33.042 9.674,33.575C10.708,34.075 11.908,34.508 13.274,34.875C14.641,35.242 16.141,35.442 17.774,35.475C20.241,35.475 22.474,35.058 24.474,34.225C26.474,33.425 28.141,32.242 29.474,30.675C30.774,29.142 31.624,27.308 32.024,25.175C32.324,23.342 32.291,21.808 31.924,20.575C31.558,19.375 30.958,18.392 30.124,17.625C29.324,16.858 28.441,16.275 27.474,15.875C26.474,15.508 25.524,15.242 24.624,15.075C23.691,14.942 22.924,14.858 22.324,14.825L21.424,14.825Z" style="fill:rgb(255,204,0);fill-rule:nonzero;"/>
    </g>
</svg>
