<?xml version="1.0" encoding="UTF-8" standalone="no"?>
<!DOCTYPE svg PUBLIC "-//W3C//DTD SVG 1.1//EN" "http://www.w3.org/Graphics/SVG/1.1/DTD/svg11.dtd">
<svg width="40px" height="40px" version="1.1" xmlns="http://www.w3.org/2000/svg" xmlns:xlink="http://www.w3.org/1999/xlink" xml:space="preserve" xmlns:serif="http://www.serif.com/" style="fill-rule:evenodd;clip-rule:evenodd;stroke-linejoin:round;stroke-miterlimit:2;">
    <g id="_7" serif:id="7">
        <path d="M36.241,2.64C35.874,1.873 35.358,1.29 34.691,0.89C34.024,0.49 33.308,0.29 32.541,0.29L10.441,0.74C9.408,0.74 8.524,1.123 7.791,1.89C7.058,2.523 6.658,3.357 6.591,4.39L6.641,4.24L5.641,12.39C5.474,13.19 5.574,13.957 5.941,14.69L5.941,14.74C6.274,15.407 6.791,15.957 7.491,16.39C8.124,16.757 8.824,16.94 9.591,16.94L13.541,16.89L4.191,29.94C3.658,30.54 3.391,31.29 3.391,32.19C3.391,32.957 3.591,33.673 3.991,34.34C4.358,34.973 4.924,35.49 5.691,35.89C5.724,35.89 5.758,35.907 5.791,35.94L13.391,39.39C13.424,39.39 13.458,39.407 13.491,39.44C14.291,39.74 15.124,39.79 15.991,39.59C16.024,39.59 16.074,39.573 16.141,39.54C16.974,39.307 17.674,38.807 18.241,38.04L18.291,37.99L34.841,14.79C34.841,14.757 34.858,14.723 34.891,14.69C35.191,14.223 35.391,13.707 35.491,13.14C35.491,13.073 35.508,13.023 35.541,12.99L36.591,4.79L36.591,4.74C36.658,4.007 36.541,3.307 36.241,2.64M34.391,3.44C34.558,3.807 34.624,4.173 34.591,4.54L33.541,12.74C33.474,13.073 33.358,13.373 33.191,13.64L16.641,36.84C16.341,37.24 15.974,37.507 15.541,37.64C15.074,37.74 14.624,37.707 14.191,37.54L6.591,34.09C6.191,33.89 5.891,33.623 5.691,33.29C5.491,32.957 5.391,32.59 5.391,32.19C5.391,31.757 5.524,31.39 5.791,31.09L17.491,14.79L9.591,14.94C9.191,14.94 8.824,14.84 8.491,14.64C8.158,14.44 7.908,14.173 7.741,13.84C7.574,13.473 7.524,13.09 7.591,12.69L8.591,4.49C8.624,3.99 8.824,3.59 9.191,3.29C9.558,2.923 9.991,2.74 10.491,2.74L32.541,2.29C32.941,2.29 33.308,2.39 33.641,2.59C33.974,2.79 34.224,3.073 34.391,3.44Z" style="fill:rgb(204,204,204);fill-rule:nonzero;"/>
        <path d="M34.591,4.54C34.624,4.173 34.558,3.807 34.391,3.44C34.224,3.073 33.974,2.79 33.641,2.59C33.308,2.39 32.941,2.29 32.541,2.29L10.491,2.74C9.991,2.74 9.558,2.923 9.191,3.29C8.824,3.59 8.624,3.99 8.591,4.49L7.591,12.69C7.524,13.09 7.574,13.473 7.741,13.84C7.908,14.173 8.158,14.44 8.491,14.64C8.824,14.84 9.191,14.94 9.591,14.94L17.491,14.79L5.791,31.09C5.524,31.39 5.391,31.757 5.391,32.19C5.391,32.59 5.491,32.957 5.691,33.29C5.891,33.623 6.191,33.89 6.591,34.09L14.191,37.54C14.624,37.707 15.074,37.74 15.541,37.64C15.974,37.507 16.341,37.24 16.641,36.84L33.191,13.64C33.358,13.373 33.474,13.073 33.541,12.74L34.591,4.54M32.591,4.29L31.541,12.49L14.991,35.69L7.391,32.24L21.141,13.14L21.191,12.69L9.541,12.94L10.541,4.74L32.591,4.29Z" style="fill:white;fill-rule:nonzero;"/>
        <path d="M31.541,12.49L32.591,4.29L10.541,4.74L9.541,12.94L21.191,12.69L21.141,13.14L7.391,32.24L14.991,35.69L31.541,12.49Z" style="fill:rgb(255,204,0);fill-rule:nonzero;"/>
    </g>
</svg>
