<?xml version="1.0" encoding="UTF-8" standalone="no"?>
<!DOCTYPE svg PUBLIC "-//W3C//DTD SVG 1.1//EN" "http://www.w3.org/Graphics/SVG/1.1/DTD/svg11.dtd">
<svg width="40px" height="40px" version="1.1" xmlns="http://www.w3.org/2000/svg" xmlns:xlink="http://www.w3.org/1999/xlink" xml:space="preserve" xmlns:serif="http://www.serif.com/" style="fill-rule:evenodd;clip-rule:evenodd;stroke-linejoin:round;stroke-miterlimit:2;">
    <g id="_0" serif:id="0">
        <path d="M37.958,13.8L37.958,13.75C37.592,11.317 36.858,9.133 35.758,7.2L35.758,7.25C34.592,5.15 32.975,3.483 30.908,2.25C30.842,2.183 30.775,2.133 30.708,2.1C28.542,0.767 25.908,0.1 22.808,0.1C20.042,0.1 17.475,0.667 15.108,1.8C12.808,2.9 10.792,4.383 9.058,6.25C9.025,6.25 9.008,6.267 9.008,6.3C7.242,8.1 5.775,10.183 4.608,12.55C3.508,14.783 2.725,17.167 2.258,19.7C2.225,19.767 2.208,19.833 2.208,19.9C1.842,22.167 1.808,24.4 2.108,26.6L2.058,26.6C2.325,29.033 3.058,31.217 4.258,33.15C4.292,33.217 4.342,33.283 4.408,33.35C5.608,35.35 7.275,36.933 9.408,38.1C9.542,38.167 9.675,38.233 9.808,38.3C11.775,39.333 14.242,39.867 17.208,39.9L17.308,39.9C20.142,39.867 22.742,39.267 25.108,38.1C27.375,37 29.408,35.517 31.208,33.65L31.258,33.6C32.925,31.767 34.325,29.75 35.458,27.55C36.558,25.35 37.308,23.117 37.708,20.85L37.758,20.75L37.758,20.7C38.125,18.333 38.192,16.033 37.958,13.8M10.458,7.65C12.025,5.95 13.858,4.6 15.958,3.6C18.058,2.6 20.342,2.1 22.808,2.1C25.508,2.1 27.792,2.667 29.658,3.8L29.608,3.8C31.508,4.867 32.975,6.333 34.008,8.2C35.008,9.933 35.658,11.867 35.958,14C36.192,16.067 36.125,18.2 35.758,20.4L35.758,20.35C35.392,22.483 34.692,24.583 33.658,26.65C32.625,28.683 31.325,30.55 29.758,32.25C28.125,33.95 26.275,35.3 24.208,36.3C22.108,37.333 19.792,37.867 17.258,37.9L17.208,37.9C14.442,37.867 12.158,37.333 10.358,36.3L10.358,36.35C8.458,35.317 6.992,33.883 5.958,32.05L5.958,32.1C4.925,30.4 4.292,28.483 4.058,26.35C3.792,24.317 3.842,22.233 4.208,20.1L4.208,20.05C4.642,17.717 5.375,15.5 6.408,13.4C7.475,11.233 8.808,9.333 10.408,7.7L10.458,7.65M21.908,14.1C21.808,13.933 21.675,13.85 21.508,13.85C21.142,13.883 20.808,14.083 20.508,14.45L20.458,14.5C19.825,15.2 19.292,16.083 18.858,17.15C18.392,18.317 18.058,19.517 17.858,20.75C17.625,21.85 17.542,22.917 17.608,23.95C17.642,24.717 17.808,25.367 18.108,25.9C18.208,26.033 18.375,26.117 18.608,26.15C18.908,26.083 19.208,25.883 19.508,25.55L19.558,25.5C20.158,24.8 20.692,23.95 21.158,22.95L21.108,23C21.575,21.867 21.925,20.75 22.158,19.65C22.358,18.55 22.425,17.45 22.358,16.35L22.358,16.3C22.325,15.433 22.175,14.7 21.908,14.1Z" style="fill:rgb(204,204,204);fill-rule:nonzero;"/>
        <path d="M15.958,3.6C13.858,4.6 12.025,5.95 10.458,7.65L10.408,7.7C8.808,9.333 7.475,11.233 6.408,13.4C5.375,15.5 4.642,17.717 4.208,20.05L4.208,20.1C3.842,22.233 3.792,24.317 4.058,26.35C4.292,28.483 4.925,30.4 5.958,32.1L5.958,32.05C6.992,33.883 8.458,35.317 10.358,36.35L10.358,36.3C12.158,37.333 14.442,37.867 17.208,37.9L17.258,37.9C19.792,37.867 22.108,37.333 24.208,36.3C26.275,35.3 28.125,33.95 29.758,32.25C31.325,30.55 32.625,28.683 33.658,26.65C34.692,24.583 35.392,22.483 35.758,20.35L35.758,20.4C36.125,18.2 36.192,16.067 35.958,14C35.658,11.867 35.008,9.933 34.008,8.2C32.975,6.333 31.508,4.867 29.608,3.8L29.658,3.8C27.792,2.667 25.508,2.1 22.808,2.1C20.342,2.1 18.058,2.6 15.958,3.6M11.858,9.05C13.292,7.517 14.942,6.3 16.808,5.4C18.642,4.533 20.642,4.1 22.808,4.1C25.108,4.1 27.042,4.567 28.608,5.5C30.175,6.4 31.392,7.617 32.258,9.15C33.125,10.683 33.692,12.383 33.958,14.25C34.192,16.117 34.125,18.033 33.758,20C33.425,21.967 32.792,23.883 31.858,25.75C30.925,27.617 29.742,29.317 28.308,30.85C26.842,32.383 25.175,33.6 23.308,34.5C21.475,35.4 19.442,35.867 17.208,35.9C14.842,35.867 12.875,35.417 11.308,34.55C9.742,33.717 8.525,32.55 7.658,31.05C6.792,29.583 6.242,27.933 6.008,26.1C5.775,24.267 5.825,22.367 6.158,20.4C6.558,18.267 7.242,16.217 8.208,14.25C9.175,12.283 10.392,10.55 11.858,9.05M17.008,16.4C16.475,17.7 16.092,19.033 15.858,20.4C15.625,21.667 15.542,22.883 15.608,24.05C15.675,25.217 15.942,26.183 16.408,26.95C16.875,27.717 17.608,28.117 18.608,28.15C19.475,28.117 20.275,27.683 21.008,26.85C21.775,26.017 22.425,24.983 22.958,23.75C23.492,22.483 23.875,21.233 24.108,20C24.342,18.767 24.425,17.517 24.358,16.25C24.325,15.017 24.092,13.983 23.658,13.15C23.192,12.283 22.475,11.85 21.508,11.85C20.542,11.85 19.692,12.283 18.958,13.15C18.192,14.017 17.542,15.1 17.008,16.4M21.508,13.85C21.675,13.85 21.808,13.933 21.908,14.1C22.175,14.7 22.325,15.433 22.358,16.3L22.358,16.35C22.425,17.45 22.358,18.55 22.158,19.65C21.925,20.75 21.575,21.867 21.108,23L21.158,22.95C20.692,23.95 20.158,24.8 19.558,25.5L19.508,25.55C19.208,25.883 18.908,26.083 18.608,26.15C18.375,26.117 18.208,26.033 18.108,25.9C17.808,25.367 17.642,24.717 17.608,23.95C17.542,22.917 17.625,21.85 17.858,20.75C18.058,19.517 18.392,18.317 18.858,17.15C19.292,16.083 19.825,15.2 20.458,14.5L20.508,14.45C20.808,14.083 21.142,13.883 21.508,13.85Z" style="fill:white;fill-rule:nonzero;"/>
        <path d="M16.808,5.4C14.942,6.3 13.292,7.517 11.858,9.05C10.392,10.55 9.175,12.283 8.208,14.25C7.242,16.217 6.558,18.267 6.158,20.4C5.825,22.367 5.775,24.267 6.008,26.1C6.242,27.933 6.792,29.583 7.658,31.05C8.525,32.55 9.742,33.717 11.308,34.55C12.875,35.417 14.842,35.867 17.208,35.9C19.442,35.867 21.475,35.4 23.308,34.5C25.175,33.6 26.842,32.383 28.308,30.85C29.742,29.317 30.925,27.617 31.858,25.75C32.792,23.883 33.425,21.967 33.758,20C34.125,18.033 34.192,16.117 33.958,14.25C33.692,12.383 33.125,10.683 32.258,9.15C31.392,7.617 30.175,6.4 28.608,5.5C27.042,4.567 25.108,4.1 22.808,4.1C20.642,4.1 18.642,4.533 16.808,5.4M15.858,20.4C16.092,19.033 16.475,17.7 17.008,16.4C17.542,15.1 18.192,14.017 18.958,13.15C19.692,12.283 20.542,11.85 21.508,11.85C22.475,11.85 23.192,12.283 23.658,13.15C24.092,13.983 24.325,15.017 24.358,16.25C24.425,17.517 24.342,18.767 24.108,20C23.875,21.233 23.492,22.483 22.958,23.75C22.425,24.983 21.775,26.017 21.008,26.85C20.275,27.683 19.475,28.117 18.608,28.15C17.608,28.117 16.875,27.717 16.408,26.95C15.942,26.183 15.675,25.217 15.608,24.05C15.542,22.883 15.625,21.667 15.858,20.4Z" style="fill:rgb(255,204,0);fill-rule:nonzero;"/>
    </g>
</svg>
