<?xml version="1.0" encoding="UTF-8" standalone="no"?>
<!DOCTYPE svg PUBLIC "-//W3C//DTD SVG 1.1//EN" "http://www.w3.org/Graphics/SVG/1.1/DTD/svg11.dtd">
<svg width="40px" height="40px" version="1.1" xmlns="http://www.w3.org/2000/svg" xmlns:xlink="http://www.w3.org/1999/xlink" xml:space="preserve" xmlns:serif="http://www.serif.com/" style="fill-rule:evenodd;clip-rule:evenodd;stroke-linejoin:round;stroke-miterlimit:2;">
    <g id="_3" serif:id="3">
        <path d="M36.125,6.25C36.092,6.217 36.075,6.183 36.075,6.15C35.142,4.25 33.542,2.75 31.275,1.65L31.225,1.6C29.325,0.6 26.792,0.1 23.625,0.1L23.525,0.1C22.525,0.133 21.559,0.233 20.625,0.4C19.925,0.5 19.225,0.667 18.525,0.9C18.459,0.9 18.375,0.917 18.275,0.95C16.775,1.417 15.425,1.967 14.225,2.6C14.125,2.633 14.025,2.683 13.925,2.75C12.892,3.25 12.042,3.733 11.375,4.2C11.242,4.267 11.125,4.333 11.025,4.4L11.075,4.4C10.975,4.433 10.892,4.467 10.825,4.5C8.092,6.233 7.359,8.133 8.625,10.2L8.675,10.2L12.325,18.55L3.825,28.6L3.825,28.65C3.159,29.383 2.825,30.267 2.825,31.3C2.792,32.333 3.192,33.267 4.025,34.1C4.259,34.333 4.525,34.5 4.825,34.6C4.692,34.6 4.709,34.667 4.875,34.8L4.825,34.8C5.459,35.433 6.425,36.15 7.725,36.95C8.592,37.517 9.359,37.95 10.025,38.25C10.292,38.35 10.542,38.433 10.775,38.5C11.509,38.733 12.242,38.983 12.975,39.25C13.875,39.55 14.892,39.733 16.025,39.8C17.059,39.867 17.592,39.9 17.625,39.9L17.675,39.9C20.975,39.867 23.859,39.333 26.325,38.3C28.992,37.2 31.159,35.733 32.825,33.9C34.625,31.867 35.742,29.617 36.175,27.15L36.175,27.1C36.542,24.7 36.309,22.683 35.475,21.05C35.042,20.117 34.542,19.3 33.975,18.6C34.342,18.167 34.725,17.683 35.125,17.15C35.892,16.017 36.459,14.667 36.825,13.1C36.925,12.9 36.992,12.717 37.025,12.55C37.392,10.217 37.092,8.117 36.125,6.25M34.325,7.2L34.325,7.15C35.092,8.65 35.325,10.333 35.025,12.2C34.992,12.2 34.975,12.217 34.975,12.25C34.675,13.717 34.175,14.967 33.475,16C32.742,17.033 31.975,17.867 31.175,18.5L31.075,18.6C31.175,18.7 31.292,18.8 31.425,18.9L31.475,18.95C32.342,19.65 33.075,20.633 33.675,21.9L33.725,21.95C34.325,23.25 34.475,24.867 34.175,26.8C33.809,28.9 32.859,30.817 31.325,32.55C29.859,34.183 27.942,35.483 25.575,36.45C23.309,37.383 20.659,37.867 17.625,37.9L17.525,37.9C15.725,37.867 14.092,37.6 12.625,37.1L12.525,37.1C11.792,36.8 11.125,36.517 10.525,36.25C9.859,35.917 9.275,35.583 8.775,35.25C7.642,34.55 6.792,33.917 6.225,33.35L6.325,33.4C5.759,32.9 5.459,32.65 5.425,32.65C5.025,32.25 4.825,31.8 4.825,31.3C4.825,30.767 4.992,30.3 5.325,29.9L10.425,24.1C10.792,23.667 11.259,23.433 11.825,23.4C12.359,23.367 12.842,23.55 13.275,23.95L13.475,24.1L15.225,16C14.825,16.033 14.459,15.967 14.125,15.8C13.725,15.6 13.442,15.3 13.275,14.9L10.425,9.3C10.259,9 10.175,8.7 10.175,8.4C9.775,7.867 10.409,7.1 12.075,6.1C12.109,6.067 12.142,6.05 12.175,6.05C12.842,5.583 13.725,5.067 14.825,4.5L14.875,4.5C16.042,3.867 17.375,3.317 18.875,2.85L18.925,2.85C20.425,2.383 21.975,2.133 23.575,2.1L23.625,2.1C26.425,2.1 28.675,2.533 30.375,3.4L30.325,3.4C32.259,4.333 33.592,5.6 34.325,7.2Z" style="fill:rgb(204,204,204);fill-rule:nonzero;"/>
        <path d="M34.325,7.15L34.325,7.2C33.592,5.6 32.259,4.333 30.325,3.4L30.375,3.4C28.675,2.533 26.425,2.1 23.625,2.1L23.575,2.1C21.975,2.133 20.425,2.383 18.925,2.85L18.875,2.85C17.375,3.317 16.042,3.867 14.875,4.5L14.825,4.5C13.725,5.067 12.842,5.583 12.175,6.05C12.142,6.05 12.109,6.067 12.075,6.1C10.409,7.1 9.775,7.867 10.175,8.4C10.175,8.7 10.259,9 10.425,9.3L13.275,14.9C13.442,15.3 13.725,15.6 14.125,15.8C14.459,15.967 14.825,16.033 15.225,16L13.475,24.1L13.275,23.95C12.842,23.55 12.359,23.367 11.825,23.4C11.259,23.433 10.792,23.667 10.425,24.1L5.325,29.9C4.992,30.3 4.825,30.767 4.825,31.3C4.825,31.8 5.025,32.25 5.425,32.65C5.459,32.65 5.759,32.9 6.325,33.4L6.225,33.35C6.792,33.917 7.642,34.55 8.775,35.25C9.275,35.583 9.859,35.917 10.525,36.25C11.125,36.517 11.792,36.8 12.525,37.1L12.625,37.1C14.092,37.6 15.725,37.867 17.525,37.9L17.625,37.9C20.659,37.867 23.309,37.383 25.575,36.45C27.942,35.483 29.859,34.183 31.325,32.55C32.859,30.817 33.809,28.9 34.175,26.8C34.475,24.867 34.325,23.25 33.725,21.95L33.675,21.9C33.075,20.633 32.342,19.65 31.475,18.95L31.425,18.9C31.292,18.8 31.175,18.7 31.075,18.6L31.175,18.5C31.975,17.867 32.742,17.033 33.475,16C34.175,14.967 34.675,13.717 34.975,12.25C34.975,12.217 34.992,12.2 35.025,12.2C35.325,10.333 35.092,8.65 34.325,7.15M12.175,8.4C12.175,8.367 12.509,8.15 13.175,7.75C13.842,7.317 14.709,6.817 15.775,6.25C16.875,5.683 18.109,5.183 19.475,4.75C20.809,4.35 22.192,4.133 23.625,4.1C26.059,4.1 28.009,4.467 29.475,5.2C30.942,5.9 31.959,6.85 32.525,8.05C33.092,9.183 33.259,10.45 33.025,11.85C32.792,13.017 32.392,14.017 31.825,14.85C31.225,15.717 30.592,16.417 29.925,16.95C29.259,17.45 28.675,17.833 28.175,18.1C27.709,18.333 27.459,18.45 27.425,18.45L27.375,18.9C27.409,18.9 27.709,19.017 28.275,19.25C28.842,19.483 29.475,19.883 30.175,20.45C30.842,21.017 31.409,21.783 31.875,22.75C32.309,23.75 32.409,24.983 32.175,26.45C31.875,28.183 31.092,29.767 29.825,31.2C28.559,32.633 26.892,33.767 24.825,34.6C22.759,35.433 20.342,35.867 17.575,35.9C15.975,35.867 14.525,35.633 13.225,35.2C12.392,34.9 11.659,34.583 11.025,34.25C10.592,34.017 10.192,33.783 9.825,33.55C8.859,32.95 8.125,32.4 7.625,31.9C7.125,31.467 6.859,31.233 6.825,31.2L11.925,25.4L12.425,25.85C12.559,25.983 12.725,26.133 12.925,26.3C13.159,26.467 13.442,26.667 13.775,26.9C14.342,27.267 14.992,27.617 15.725,27.95C16.459,28.217 17.242,28.367 18.075,28.4C19.375,28.367 20.392,28.083 21.125,27.55C21.859,27.017 22.292,26.367 22.425,25.6C22.592,24.733 22.392,24.05 21.825,23.55C21.259,23.05 20.342,22.8 19.075,22.8L15.825,22.8L17.225,16.15C17.259,16.15 17.559,16.117 18.125,16.05C18.692,15.95 19.359,15.8 20.125,15.6C20.859,15.4 21.542,15.1 22.175,14.7C22.809,14.3 23.192,13.783 23.325,13.15C23.425,12.683 23.309,12.283 22.975,11.95C22.642,11.617 21.992,11.433 21.025,11.4C20.092,11.433 19.159,11.667 18.225,12.1C17.325,12.5 16.575,12.9 15.975,13.3C15.375,13.733 15.059,13.967 15.025,14L12.175,8.4Z" style="fill:white;fill-rule:nonzero;"/>
        <path d="M13.175,7.75C12.509,8.15 12.175,8.367 12.175,8.4L15.025,14C15.059,13.967 15.375,13.733 15.975,13.3C16.575,12.9 17.325,12.5 18.225,12.1C19.159,11.667 20.092,11.433 21.025,11.4C21.992,11.433 22.642,11.617 22.975,11.95C23.309,12.283 23.425,12.683 23.325,13.15C23.192,13.783 22.809,14.3 22.175,14.7C21.542,15.1 20.859,15.4 20.125,15.6C19.359,15.8 18.692,15.95 18.125,16.05C17.559,16.117 17.259,16.15 17.225,16.15L15.825,22.8L19.075,22.8C20.342,22.8 21.259,23.05 21.825,23.55C22.392,24.05 22.592,24.733 22.425,25.6C22.292,26.367 21.859,27.017 21.125,27.55C20.392,28.083 19.375,28.367 18.075,28.4C17.242,28.367 16.459,28.217 15.725,27.95C14.992,27.617 14.342,27.267 13.775,26.9C13.442,26.667 13.159,26.467 12.925,26.3C12.725,26.133 12.559,25.983 12.425,25.85L11.925,25.4L6.825,31.2C6.859,31.233 7.125,31.467 7.625,31.9C8.125,32.4 8.859,32.95 9.825,33.55C10.192,33.783 10.592,34.017 11.025,34.25C11.659,34.583 12.392,34.9 13.225,35.2C14.525,35.633 15.975,35.867 17.575,35.9C20.342,35.867 22.759,35.433 24.825,34.6C26.892,33.767 28.559,32.633 29.825,31.2C31.092,29.767 31.875,28.183 32.175,26.45C32.409,24.983 32.309,23.75 31.875,22.75C31.409,21.783 30.842,21.017 30.175,20.45C29.475,19.883 28.842,19.483 28.275,19.25C27.709,19.017 27.409,18.9 27.375,18.9L27.425,18.45C27.459,18.45 27.709,18.333 28.175,18.1C28.675,17.833 29.259,17.45 29.925,16.95C30.592,16.417 31.225,15.717 31.825,14.85C32.392,14.017 32.792,13.017 33.025,11.85C33.259,10.45 33.092,9.183 32.525,8.05C31.959,6.85 30.942,5.9 29.475,5.2C28.009,4.467 26.059,4.1 23.625,4.1C22.192,4.133 20.809,4.35 19.475,4.75C18.109,5.183 16.875,5.683 15.775,6.25C14.709,6.817 13.842,7.317 13.175,7.75Z" style="fill:rgb(255,204,0);fill-rule:nonzero;"/>
    </g>
</svg>
