<?xml version="1.0" encoding="UTF-8" standalone="no"?>
<!DOCTYPE svg PUBLIC "-//W3C//DTD SVG 1.1//EN" "http://www.w3.org/Graphics/SVG/1.1/DTD/svg11.dtd">
<svg width="40px" height="40px" version="1.1" xmlns="http://www.w3.org/2000/svg" xmlns:xlink="http://www.w3.org/1999/xlink" xml:space="preserve" xmlns:serif="http://www.serif.com/" style="fill-rule:evenodd;clip-rule:evenodd;stroke-linejoin:round;stroke-miterlimit:2;">
    <g id="_8" serif:id="8">
        <path d="M15.899,1.225C13.399,2.092 11.382,3.292 9.849,4.825L9.799,4.875C7.899,6.675 6.782,8.708 6.449,10.975C6.415,11.042 6.399,11.108 6.399,11.175C6.099,13.142 6.182,14.742 6.649,15.975C6.649,16.008 6.665,16.058 6.699,16.125C6.799,16.425 6.982,16.708 7.249,16.975C7.449,17.342 7.265,17.725 6.699,18.125C6.132,18.525 5.482,19.208 4.749,20.175C4.715,20.208 4.682,20.242 4.649,20.275C3.682,21.675 2.982,23.392 2.549,25.425C2.515,25.525 2.499,25.642 2.499,25.775C2.065,28.708 2.549,31.308 3.949,33.575C4.015,33.675 4.082,33.775 4.149,33.875C5.449,35.842 7.315,37.408 9.749,38.575L9.799,38.575C12.065,39.575 14.665,40.092 17.599,40.125L17.699,40.125C20.465,40.092 23.099,39.608 25.599,38.675L25.649,38.675C28.315,37.608 30.565,36.142 32.399,34.275C34.399,32.175 35.682,29.742 36.249,26.975L36.249,26.875C36.549,24.608 36.415,22.708 35.849,21.175C35.549,20.442 35.215,19.775 34.849,19.175C34.649,18.808 34.649,18.458 34.849,18.125C35.082,17.825 35.332,17.525 35.599,17.225C35.665,17.092 35.749,16.958 35.849,16.825C36.615,15.592 37.182,14.108 37.549,12.375L37.549,12.275C37.915,9.708 37.332,7.392 35.799,5.325L35.749,5.275C34.549,3.608 32.865,2.308 30.699,1.375C30.599,1.308 30.499,1.258 30.399,1.225C28.199,0.325 25.832,-0.125 23.299,-0.125C20.599,-0.125 18.132,0.325 15.899,1.225M11.199,6.275L11.249,6.225C12.615,4.892 14.382,3.842 16.549,3.075L16.499,3.075C18.565,2.275 20.832,1.875 23.299,1.875C25.565,1.875 27.665,2.275 29.599,3.075L29.549,3.075C31.549,3.875 33.082,5.008 34.149,6.475C35.382,8.108 35.849,9.942 35.549,11.975C35.249,13.542 34.732,14.858 33.999,15.925L33.999,15.975C33.232,16.975 32.465,17.758 31.699,18.325C31.665,18.358 31.632,18.392 31.599,18.425C31.699,18.525 31.815,18.625 31.949,18.725C32.782,19.492 33.449,20.542 33.949,21.875C34.415,23.142 34.515,24.708 34.249,26.575C33.782,28.975 32.682,31.075 30.949,32.875C29.315,34.542 27.299,35.842 24.899,36.775C22.599,37.642 20.182,38.092 17.649,38.125L17.599,38.125C14.965,38.092 12.632,37.625 10.599,36.725C8.432,35.725 6.799,34.342 5.699,32.575L5.649,32.525C4.482,30.625 4.099,28.425 4.499,25.925L4.499,25.825C4.865,24.092 5.465,22.625 6.299,21.425C6.332,21.425 6.349,21.408 6.349,21.375C7.215,20.242 8.132,19.308 9.099,18.575L9.149,18.525C9.415,18.325 9.682,18.158 9.949,18.025C9.349,17.358 8.882,16.475 8.549,15.375L8.549,15.425C8.182,14.392 8.132,13.025 8.399,11.325L8.399,11.275C8.699,9.408 9.632,7.742 11.199,6.275Z" style="fill:rgb(204,204,204);fill-rule:nonzero;"/>
        <path d="M11.249,6.225L11.199,6.275C9.632,7.742 8.699,9.408 8.399,11.275L8.399,11.325C8.132,13.025 8.182,14.392 8.549,15.425L8.549,15.375C8.882,16.475 9.349,17.358 9.949,18.025C9.682,18.158 9.415,18.325 9.149,18.525L9.099,18.575C8.132,19.308 7.215,20.242 6.349,21.375C6.349,21.408 6.332,21.425 6.299,21.425C5.465,22.625 4.865,24.092 4.499,25.825L4.499,25.925C4.099,28.425 4.482,30.625 5.649,32.525L5.699,32.575C6.799,34.342 8.432,35.725 10.599,36.725C12.632,37.625 14.965,38.092 17.599,38.125L17.649,38.125C20.182,38.092 22.599,37.642 24.899,36.775C27.299,35.842 29.315,34.542 30.949,32.875C32.682,31.075 33.782,28.975 34.249,26.575C34.515,24.708 34.415,23.142 33.949,21.875C33.449,20.542 32.782,19.492 31.949,18.725C31.815,18.625 31.699,18.525 31.599,18.425C31.632,18.392 31.665,18.358 31.699,18.325C32.465,17.758 33.232,16.975 33.999,15.975L33.999,15.925C34.732,14.858 35.249,13.542 35.549,11.975C35.849,9.942 35.382,8.108 34.149,6.475C33.082,5.008 31.549,3.875 29.549,3.075L29.599,3.075C27.665,2.275 25.565,1.875 23.299,1.875C20.832,1.875 18.565,2.275 16.499,3.075L16.549,3.075C14.382,3.842 12.615,4.892 11.249,6.225M12.599,7.675C13.799,6.508 15.332,5.592 17.199,4.925C19.065,4.225 21.099,3.875 23.299,3.875C25.299,3.875 27.132,4.225 28.799,4.925C30.432,5.592 31.682,6.508 32.549,7.675C33.449,8.842 33.782,10.158 33.549,11.625C33.315,12.892 32.915,13.942 32.349,14.775C31.749,15.608 31.132,16.258 30.499,16.725C29.832,17.225 29.265,17.575 28.799,17.775C28.365,17.942 28.132,18.025 28.099,18.025L28.049,18.475C28.082,18.475 28.349,18.608 28.849,18.875C29.349,19.142 29.915,19.575 30.549,20.175C31.182,20.775 31.682,21.575 32.049,22.575C32.415,23.575 32.482,24.792 32.249,26.225C31.882,28.225 30.965,29.975 29.499,31.475C28.065,32.942 26.299,34.075 24.199,34.875C22.099,35.675 19.899,36.092 17.599,36.125C15.265,36.092 13.199,35.675 11.399,34.875C9.632,34.075 8.282,32.942 7.349,31.475C6.449,29.975 6.149,28.225 6.449,26.225C6.749,24.792 7.249,23.575 7.949,22.575C8.682,21.608 9.465,20.808 10.299,20.175C11.165,19.575 11.899,19.142 12.499,18.875C13.099,18.608 13.415,18.475 13.449,18.475L13.449,18.025L12.849,17.775C12.482,17.575 12.049,17.242 11.549,16.775C11.082,16.308 10.715,15.642 10.449,14.775C10.182,13.975 10.149,12.925 10.349,11.625C10.615,10.158 11.365,8.842 12.599,7.675M21.199,28.275C21.765,27.975 22.165,27.575 22.399,27.075C22.632,26.575 22.799,26.075 22.899,25.575C23.065,24.808 22.932,24.158 22.499,23.625C22.065,23.092 21.215,22.808 19.949,22.775C18.682,22.808 17.749,23.092 17.149,23.625C16.515,24.158 16.132,24.808 15.999,25.575C15.899,26.075 15.882,26.575 15.949,27.075C16.049,27.575 16.315,27.975 16.749,28.275C17.182,28.608 17.899,28.775 18.899,28.775C19.899,28.775 20.665,28.608 21.199,28.275M21.849,10.725C20.815,10.758 20.049,10.992 19.549,11.425C19.049,11.892 18.765,12.442 18.699,13.075C18.565,13.775 18.715,14.342 19.149,14.775C19.582,15.208 20.215,15.442 21.049,15.475C22.115,15.442 22.882,15.208 23.349,14.775C23.849,14.342 24.149,13.775 24.249,13.075C24.382,12.442 24.282,11.892 23.949,11.425C23.615,10.992 22.915,10.758 21.849,10.725Z" style="fill:white;fill-rule:nonzero;"/>
        <path d="M17.199,4.925C15.332,5.592 13.799,6.508 12.599,7.675C11.365,8.842 10.615,10.158 10.349,11.625C10.149,12.925 10.182,13.975 10.449,14.775C10.715,15.642 11.082,16.308 11.549,16.775C12.049,17.242 12.482,17.575 12.849,17.775L13.449,18.025L13.449,18.475C13.415,18.475 13.099,18.608 12.499,18.875C11.899,19.142 11.165,19.575 10.299,20.175C9.465,20.808 8.682,21.608 7.949,22.575C7.249,23.575 6.749,24.792 6.449,26.225C6.149,28.225 6.449,29.975 7.349,31.475C8.282,32.942 9.632,34.075 11.399,34.875C13.199,35.675 15.265,36.092 17.599,36.125C19.899,36.092 22.099,35.675 24.199,34.875C26.299,34.075 28.065,32.942 29.499,31.475C30.965,29.975 31.882,28.225 32.249,26.225C32.482,24.792 32.415,23.575 32.049,22.575C31.682,21.575 31.182,20.775 30.549,20.175C29.915,19.575 29.349,19.142 28.849,18.875C28.349,18.608 28.082,18.475 28.049,18.475L28.099,18.025C28.132,18.025 28.365,17.942 28.799,17.775C29.265,17.575 29.832,17.225 30.499,16.725C31.132,16.258 31.749,15.608 32.349,14.775C32.915,13.942 33.315,12.892 33.549,11.625C33.782,10.158 33.449,8.842 32.549,7.675C31.682,6.508 30.432,5.592 28.799,4.925C27.132,4.225 25.299,3.875 23.299,3.875C21.099,3.875 19.065,4.225 17.199,4.925M19.549,11.425C20.049,10.992 20.815,10.758 21.849,10.725C22.915,10.758 23.615,10.992 23.949,11.425C24.282,11.892 24.382,12.442 24.249,13.075C24.149,13.775 23.849,14.342 23.349,14.775C22.882,15.208 22.115,15.442 21.049,15.475C20.215,15.442 19.582,15.208 19.149,14.775C18.715,14.342 18.565,13.775 18.699,13.075C18.765,12.442 19.049,11.892 19.549,11.425M22.399,27.075C22.165,27.575 21.765,27.975 21.199,28.275C20.665,28.608 19.899,28.775 18.899,28.775C17.899,28.775 17.182,28.608 16.749,28.275C16.315,27.975 16.049,27.575 15.949,27.075C15.882,26.575 15.899,26.075 15.999,25.575C16.132,24.808 16.515,24.158 17.149,23.625C17.749,23.092 18.682,22.808 19.949,22.775C21.215,22.808 22.065,23.092 22.499,23.625C22.932,24.158 23.065,24.808 22.899,25.575C22.799,26.075 22.632,26.575 22.399,27.075Z" style="fill:rgb(255,204,0);fill-rule:nonzero;"/>
    </g>
</svg>
