<?xml version="1.0" encoding="UTF-8" standalone="no"?>
<!DOCTYPE svg PUBLIC "-//W3C//DTD SVG 1.1//EN" "http://www.w3.org/Graphics/SVG/1.1/DTD/svg11.dtd">
<svg width="40px" height="40px" version="1.1" xmlns="http://www.w3.org/2000/svg" xmlns:xlink="http://www.w3.org/1999/xlink" xml:space="preserve" xmlns:serif="http://www.serif.com/" style="fill-rule:evenodd;clip-rule:evenodd;stroke-linejoin:round;stroke-miterlimit:2;">
    <g id="_4" serif:id="4">
        <path d="M35.891,3.4L35.891,3.35C35.558,2.617 35.074,2.05 34.441,1.65C33.774,1.183 33.024,0.95 32.191,0.95L23.591,0.95C22.458,0.95 21.524,1.35 20.791,2.15C20.758,2.15 20.741,2.167 20.741,2.2L4.491,18.9C4.058,19.3 3.758,19.767 3.591,20.3C3.391,20.8 3.291,21.3 3.291,21.8L3.291,21.9L3.641,28.85C3.708,29.783 4.091,30.633 4.791,31.4C4.791,31.433 4.808,31.467 4.841,31.5C5.574,32.233 6.474,32.6 7.541,32.6L15.041,32.9L14.841,34.55L14.841,34.45C14.674,35.217 14.774,35.983 15.141,36.75L15.141,36.8C15.441,37.433 15.908,37.967 16.541,38.4C16.574,38.4 16.591,38.417 16.591,38.45C17.191,38.85 17.908,39.05 18.741,39.05L27.341,39.05C28.341,39.05 29.208,38.75 29.941,38.15C29.941,38.117 29.958,38.1 29.991,38.1C30.691,37.467 31.124,36.717 31.291,35.85C31.291,35.783 31.308,35.75 31.341,35.75L31.691,33.5C32.558,33.5 33.391,33.233 34.191,32.7C34.224,32.667 34.258,32.633 34.291,32.6C35.124,31.867 35.608,30.983 35.741,29.95L36.691,22.2L36.691,22.15C36.758,21.417 36.641,20.717 36.341,20.05C35.974,19.283 35.491,18.717 34.891,18.35L34.841,18.3C34.674,18.2 34.508,18.117 34.341,18.05L36.191,5.55L36.191,5.45C36.258,4.683 36.158,4 35.891,3.4M34.041,4.15C34.174,4.483 34.224,4.85 34.191,5.25L32.041,19.7L32.691,19.7C33.091,19.7 33.458,19.8 33.791,20C34.091,20.2 34.324,20.483 34.491,20.85C34.658,21.217 34.724,21.583 34.691,21.95L33.741,29.7C33.674,30.233 33.424,30.683 32.991,31.05C32.524,31.383 32.024,31.517 31.491,31.45L30.041,31.25L29.341,35.4C29.241,35.867 29.008,36.267 28.641,36.6C28.274,36.9 27.841,37.05 27.341,37.05L18.741,37.05C18.341,37.05 17.991,36.95 17.691,36.75C17.358,36.517 17.108,36.233 16.941,35.9C16.774,35.533 16.724,35.167 16.791,34.8L17.291,30.95L7.591,30.6C7.058,30.6 6.608,30.417 6.241,30.05C5.874,29.65 5.674,29.2 5.641,28.7L5.291,21.8C5.291,21.533 5.341,21.267 5.441,21C5.541,20.733 5.691,20.5 5.891,20.3L22.191,3.55C22.558,3.15 23.024,2.95 23.591,2.95L32.191,2.95C32.591,2.95 32.958,3.067 33.291,3.3C33.624,3.5 33.874,3.783 34.041,4.15Z" style="fill:rgb(204,204,204);fill-rule:nonzero;"/>
        <path d="M34.191,5.25C34.224,4.85 34.174,4.483 34.041,4.15C33.874,3.783 33.624,3.5 33.291,3.3C32.958,3.067 32.591,2.95 32.191,2.95L23.591,2.95C23.024,2.95 22.558,3.15 22.191,3.55L5.891,20.3C5.691,20.5 5.541,20.733 5.441,21C5.341,21.267 5.291,21.533 5.291,21.8L5.641,28.7C5.674,29.2 5.874,29.65 6.241,30.05C6.608,30.417 7.058,30.6 7.591,30.6L17.291,30.95L16.791,34.8C16.724,35.167 16.774,35.533 16.941,35.9C17.108,36.233 17.358,36.517 17.691,36.75C17.991,36.95 18.341,37.05 18.741,37.05L27.341,37.05C27.841,37.05 28.274,36.9 28.641,36.6C29.008,36.267 29.241,35.867 29.341,35.4L30.041,31.25L31.491,31.45C32.024,31.517 32.524,31.383 32.991,31.05C33.424,30.683 33.674,30.233 33.741,29.7L34.691,21.95C34.724,21.583 34.658,21.217 34.491,20.85C34.324,20.483 34.091,20.2 33.791,20C33.458,19.8 33.091,19.7 32.691,19.7L32.041,19.7L34.191,5.25M29.691,21.7L32.691,21.7L31.741,29.45L28.391,29L27.341,35.05L18.741,35.05L19.541,29L7.641,28.6L7.291,21.7L23.591,4.95L32.191,4.95L29.691,21.7M21.741,16.5L21.341,16.5L16.841,21.3L16.791,21.7L21.091,21.7L21.741,16.5Z" style="fill:white;fill-rule:nonzero;"/>
        <path d="M32.691,21.7L29.691,21.7L32.191,4.95L23.591,4.95L7.291,21.7L7.641,28.6L19.541,29L18.741,35.05L27.341,35.05L28.391,29L31.741,29.45L32.691,21.7M21.341,16.5L21.741,16.5L21.091,21.7L16.791,21.7L16.841,21.3L21.341,16.5Z" style="fill:rgb(255,204,0);fill-rule:nonzero;"/>
    </g>
</svg>
