<?xml version="1.0" encoding="UTF-8" standalone="no"?>
<!DOCTYPE svg PUBLIC "-//W3C//DTD SVG 1.1//EN" "http://www.w3.org/Graphics/SVG/1.1/DTD/svg11.dtd">
<svg width="40px" height="40px" version="1.1" xmlns="http://www.w3.org/2000/svg" xmlns:xlink="http://www.w3.org/1999/xlink" xml:space="preserve" xmlns:serif="http://www.serif.com/" style="fill-rule:evenodd;clip-rule:evenodd;stroke-linejoin:round;stroke-miterlimit:2;">
    <g id="_1" serif:id="1">
        <path d="M9.592,7.481C8.725,7.915 8.125,8.598 7.792,9.531C7.458,10.398 7.425,11.265 7.692,12.131L7.692,12.081L9.292,17.681C9.558,18.748 10.192,19.565 11.192,20.131L11.142,20.081C12.008,20.581 12.942,20.731 13.942,20.531L13.192,24.181L10.842,24.181C9.842,24.181 8.992,24.498 8.292,25.131C7.492,25.731 7.042,26.548 6.942,27.581L5.692,34.881C5.525,35.615 5.625,36.365 5.992,37.131C6.258,37.798 6.708,38.365 7.342,38.831C7.375,38.865 7.425,38.898 7.492,38.931C8.125,39.298 8.825,39.481 9.592,39.481L29.342,39.481C30.308,39.481 31.192,39.165 31.992,38.531C31.992,38.498 32.008,38.481 32.042,38.481C32.775,37.815 33.208,36.998 33.342,36.031L33.342,35.981L34.192,28.681L34.192,28.631C34.258,27.865 34.142,27.148 33.842,26.481C33.808,26.415 33.775,26.365 33.742,26.331C33.342,25.598 32.825,25.065 32.192,24.731C31.758,24.465 31.292,24.298 30.792,24.231L34.342,6.181L34.342,6.131C34.442,5.431 34.375,4.731 34.142,4.031C34.108,3.965 34.092,3.915 34.092,3.881C33.792,3.215 33.408,2.698 32.942,2.331C32.875,2.298 32.825,2.265 32.792,2.231C32.192,1.731 31.525,1.448 30.792,1.381L23.242,0.531L23.142,0.531C22.308,0.465 21.508,0.665 20.742,1.131L9.492,7.581L9.592,7.481M9.642,10.231C9.808,9.798 10.092,9.481 10.492,9.281L21.742,2.831C22.142,2.598 22.558,2.498 22.992,2.531L30.592,3.381C30.958,3.415 31.292,3.565 31.592,3.831C31.858,4.031 32.075,4.315 32.242,4.681C32.375,5.048 32.408,5.415 32.342,5.781L28.342,26.281L30.092,26.181C30.492,26.148 30.858,26.248 31.192,26.481C31.525,26.648 31.792,26.915 31.992,27.281C32.158,27.648 32.225,28.031 32.192,28.431L31.342,35.731C31.275,36.231 31.058,36.648 30.692,36.981C30.292,37.315 29.842,37.481 29.342,37.481L9.592,37.481C9.192,37.481 8.825,37.381 8.492,37.181C8.158,36.948 7.925,36.648 7.792,36.281C7.625,35.915 7.575,35.548 7.642,35.181L8.892,27.881C8.958,27.381 9.175,26.981 9.542,26.681C9.908,26.348 10.342,26.181 10.842,26.181L14.792,26.181L16.592,17.681L13.642,18.531C13.108,18.665 12.608,18.598 12.142,18.331C11.642,18.065 11.325,17.665 11.192,17.131L9.592,11.531C9.458,11.098 9.475,10.665 9.642,10.231Z" style="fill:rgb(204,204,204);fill-rule:nonzero;"/>
        <path d="M10.492,9.281C10.092,9.481 9.808,9.798 9.642,10.231C9.475,10.665 9.458,11.098 9.592,11.531L11.192,17.131C11.325,17.665 11.642,18.065 12.142,18.331C12.608,18.598 13.108,18.665 13.642,18.531L16.592,17.681L14.792,26.181L10.842,26.181C10.342,26.181 9.908,26.348 9.542,26.681C9.175,26.981 8.958,27.381 8.892,27.881L7.642,35.181C7.575,35.548 7.625,35.915 7.792,36.281C7.925,36.648 8.158,36.948 8.492,37.181C8.825,37.381 9.192,37.481 9.592,37.481L29.342,37.481C29.842,37.481 30.292,37.315 30.692,36.981C31.058,36.648 31.275,36.231 31.342,35.731L32.192,28.431C32.225,28.031 32.158,27.648 31.992,27.281C31.792,26.915 31.525,26.648 31.192,26.481C30.858,26.248 30.492,26.148 30.092,26.181L28.342,26.281L32.342,5.781C32.408,5.415 32.375,5.048 32.242,4.681C32.075,4.315 31.858,4.031 31.592,3.831C31.292,3.565 30.958,3.415 30.592,3.381L22.992,2.531C22.558,2.498 22.142,2.598 21.742,2.831L10.492,9.281M19.242,14.831L13.092,16.581L11.492,10.981L22.742,4.531L30.342,5.381L25.892,28.381L30.192,28.181L29.342,35.481L9.592,35.481L10.842,28.181L16.392,28.181L19.242,14.831Z" style="fill:white;fill-rule:nonzero;"/>
        <path d="M13.092,16.581L19.242,14.831L16.392,28.181L10.842,28.181L9.592,35.481L29.342,35.481L30.192,28.181L25.892,28.381L30.342,5.381L22.742,4.531L11.492,10.981L13.092,16.581Z" style="fill:rgb(255,204,0);fill-rule:nonzero;"/>
    </g>
</svg>
