<?xml version="1.0" encoding="UTF-8" standalone="no"?>
<!-- Created with Inkscape (http://www.inkscape.org/) -->

<svg
   xmlns:dc="http://purl.org/dc/elements/1.1/"
   xmlns:cc="http://creativecommons.org/ns#"
   xmlns:rdf="http://www.w3.org/1999/02/22-rdf-syntax-ns#"
   xmlns:svg="http://www.w3.org/2000/svg"
   xmlns="http://www.w3.org/2000/svg"
   xmlns:sodipodi="http://sodipodi.sourceforge.net/DTD/sodipodi-0.dtd"
   xmlns:inkscape="http://www.inkscape.org/namespaces/inkscape"
   id="svg4165"
   version="1.1"
   inkscape:version="0.91 r13725"
   width="1016.25"
   height="793.125"
   viewBox="0 0 1016.25 793.125"
   sodipodi:docname="Dice.svg">
  <metadata
     id="metadata4171">
    <rdf:RDF>
      <cc:Work
         rdf:about="">
        <dc:format>image/svg+xml</dc:format>
        <dc:type
           rdf:resource="http://purl.org/dc/dcmitype/StillImage" />
        <dc:title></dc:title>
      </cc:Work>
    </rdf:RDF>
  </metadata>
  <defs
     id="defs4169" />
  <sodipodi:namedview
     pagecolor="#ffffff"
     bordercolor="#666666"
     borderopacity="1"
     objecttolerance="10"
     gridtolerance="10"
     guidetolerance="10"
     inkscape:pageopacity="0"
     inkscape:pageshadow="2"
     inkscape:window-width="1600"
     inkscape:window-height="837"
     id="namedview4167"
     showgrid="false"
     inkscape:zoom="0.84475965"
     inkscape:cx="508.125"
     inkscape:cy="396.5625"
     inkscape:window-x="-8"
     inkscape:window-y="-8"
     inkscape:window-maximized="1"
     inkscape:current-layer="svg4165" />
  <path
     style="fill:#000000"
     d="m 713.90625,792.54613 c -10.71857,-1.01138 -30.71738,-7.62111 -41.71875,-13.78829 -2.32031,-1.30072 -6.94044,-3.27397 -10.26697,-4.38498 -3.32652,-1.11101 -7.17481,-2.6026 -8.55174,-3.31464 -1.37694,-0.71204 -7.28056,-3.23882 -13.11914,-5.61505 -11.38855,-4.635 -25.83134,-11.77558 -30.4059,-15.03282 -1.54687,-1.10142 -4.55674,-2.6761 -6.68857,-3.49929 -2.13184,-0.82319 -14.64323,-6.79307 -27.80309,-13.26638 -13.15985,-6.47333 -24.12295,-11.76968 -24.36243,-11.76968 -1.43324,0 -33.39553,-15.98456 -39.88226,-19.94539 -11.01371,-6.72502 -25.44941,-23.12761 -29.21731,-33.19821 -1.09784,-2.93426 -3.4488,-7.93272 -5.22434,-11.10768 -3.19345,-5.71042 -3.22835,-5.89803 -3.2377,-17.40131 -0.006,-6.39576 -0.41039,-21.9646 -0.90043,-34.59741 -2.18199,-56.24928 -2.87916,-184.05405 -1.04218,-191.05066 4.42861,-16.8675 -0.0896,-23.72971 -10.49283,-15.93642 -2.26193,1.69445 -7.78126,5.1902 -12.26518,7.76833 -4.48392,2.57812 -11.41084,6.64175 -15.39313,9.03028 -3.98231,2.38853 -13.1468,7.62316 -20.36555,11.63252 -7.21875,4.00935 -17.34375,9.84045 -22.5,12.95798 -5.15625,3.11755 -14.85937,8.45808 -21.5625,11.86786 -6.70312,3.40979 -15.16676,7.92666 -18.80808,10.03751 -3.64131,2.11083 -8.33061,4.29835 -10.42067,4.86114 -2.09005,0.5628 -5.30706,2.22085 -7.14891,3.68457 -4.57018,3.63192 -18.89323,7.91171 -32.52859,9.71968 -11.60409,1.53864 -26.5918,1.13372 -43.125,-1.1651 -7.99219,-1.11126 -17.69531,-2.3344 -21.5625,-2.71809 -6.61605,-0.65643 -16.73755,-2.80833 -37.5,-7.97278 -4.89844,-1.21843 -12.91406,-3.12648 -17.8125,-4.2401 -10.35447,-2.35399 -16.99732,-3.98444 -24.84375,-6.09772 -3.09375,-0.83324 -9,-2.30137 -13.125,-3.26248 -4.125,-0.96112 -11.71875,-2.79031 -16.875,-4.06487 -5.15625,-1.27456 -15.28125,-3.68233 -22.5,-5.3506 -7.21875,-1.66828 -15.205477,-3.61942 -17.748282,-4.33588 -2.542806,-0.71647 -5.5882,-1.30267 -6.767545,-1.30267 -1.179344,0 -6.692617,-1.20964 -12.251717,-2.68808 -5.559101,-1.47845 -12.14207,-3.17254 -14.628821,-3.76466 C 30.795354,428.36201 8.5591037,408.69812 8.415248,395.34652 8.4030094,394.21062 7.3377712,390.75 6.0480521,387.65625 c -2.1685858,-5.20195 -2.3774308,-7.03515 -2.776907,-24.375 -0.2375798,-10.3125 -1.0939095,-32.25 -1.9029549,-48.75 -1.80901623,-36.89381 -1.62232855,-189.81545 0.2386295,-195.46875 0.5940682,-1.80469 1.5962783,-5.7014 2.2271335,-8.65937 0.6308553,-2.95796 1.9088488,-6.06756 2.8399858,-6.91023 0.931137,-0.84267 2.196506,-3.06314 2.8119316,-4.934387 0.6154244,-1.871241 3.3998714,-6.094081 6.1876584,-9.384082 2.787788,-3.290001 5.677866,-6.911518 6.422396,-8.047816 4.396184,-6.709424 15.081209,-12.990555 32.079914,-18.857994 9.132976,-3.152429 18.081973,-6.415493 19.886661,-7.251254 9.02289,-4.178557 38.36832,-15.376735 60.46875,-23.074793 7.21875,-2.514447 16.92187,-6.092803 21.5625,-7.951903 4.64062,-1.859099 13.5,-5.352938 19.6875,-7.764086 6.1875,-2.411148 11.68061,-4.699572 12.20692,-5.085384 1.08331,-0.794139 17.49819,-5.0915775 26.69933,-6.9899227 17.29482,-3.56820312 85.48942,-4.23712499 90.90249,-0.8916638 0.51487,0.3182058 5.26853,1.1803983 10.5637,1.9159834 5.29516,0.7355851 11.94787,1.7326023 14.78381,2.2155939 2.83594,0.4829914 12.11719,1.9569467 20.625,3.2754562 8.50781,1.318509 20.32031,3.239499 26.25,4.268865 5.92969,1.029367 17.53125,2.73821 25.78125,3.79743 17.53117,2.250832 23.97089,3.397526 32.44482,5.777321 3.40716,0.956855 8.10173,1.739736 10.43239,1.739736 2.33065,0 5.74269,0.628884 7.58229,1.39752 1.83961,0.768636 7.27003,2.06431 12.06762,2.879276 29.28889,4.975306 47.58397,22.49388 55.49089,53.135657 l 3.32391,12.881203 0.9771,51.157504 c 1.69069,88.51879 1.2648,164.15345 -0.95725,170.0014 -1.00679,2.64966 -1.83746,5.97319 -1.84594,7.38562 -0.008,1.41244 -1.04735,4.25557 -2.3086,6.31807 -6.03381,9.86705 -4.37461,13.55264 4.57061,10.15274 14.4043,-5.47478 23.21218,-7.5983 44.15966,-10.64657 3.09375,-0.4502 9.84375,-1.71918 15,-2.81994 5.15625,-1.10078 12.41448,-2.57338 16.1294,-3.27248 3.71491,-0.69908 7.51178,-1.66336 8.4375,-2.14282 0.9257,-0.47947 4.84716,-1.16456 8.71435,-1.52244 3.86719,-0.35787 11.02,-1.67815 15.89515,-2.93396 4.87514,-1.2558 9.62517,-2.28328 10.55562,-2.28328 0.93044,0 5.37918,-0.83924 9.88609,-1.86498 8.66961,-1.97313 30.98175,-6.51541 46.63189,-9.49325 5.15625,-0.98112 13.59375,-1.93314 18.75,-2.1156 5.15625,-0.18247 11.0625,-0.83903 13.125,-1.45902 4.49719,-1.35185 30.85522,-0.91518 42.1875,0.69892 6.42585,0.91526 25.84738,6.44963 38.4375,10.95319 17.61033,6.29929 39.2098,14.1224 47.34375,17.14741 5.41406,2.01347 11.49999,3.96897 13.5243,4.34552 2.0243,0.37656 7.29773,2.5006 11.71875,4.72009 4.42101,2.21949 11.62414,5.41676 16.00695,7.10506 4.38281,1.6883 19.13403,7.49221 32.78047,12.89759 13.6465,5.40537 26.19672,10.21037 27.88956,10.67778 9.12619,2.51986 30.50278,17.19246 34.9035,23.95728 1.26084,1.93806 3.01917,4.36751 3.90737,5.39876 2.0915,2.42801 5.1207,11.73329 5.9305,18.21738 0.3498,2.80081 1.4393,8.4562 2.4213,12.56754 0.982,4.11134 1.558,7.84318 1.2799,8.29298 -0.2779,0.4498 -0.064,6.18503 0.4758,12.74496 0.5396,6.55992 1.2414,20.36464 1.5595,30.67714 0.3182,10.3125 0.9915,29.50781 1.4964,42.65625 1.7694,46.08222 1.0358,133.4383 -1.1723,139.58874 -1.0377,2.89026 -2.2688,7.50296 -2.7359,10.25044 -2.0091,11.81815 -11.85241,28.47753 -21.30635,36.06025 -3.07275,2.46456 -6.16228,5.5564 -6.86578,6.87077 -0.70341,1.31437 -2.55947,3.04407 -4.12453,3.84379 -1.56516,0.79972 -4.37513,2.8245 -6.2445,4.49953 -6.70969,6.01225 -10.39744,7.61326 -31.28869,13.58385 -5.67188,1.62098 -16.10043,5.02407 -23.17457,7.56244 -7.07413,2.53836 -13.61319,4.61331 -14.53125,4.61102 -1.60054,-0.004 -7.7273,1.76835 -26.04418,7.53406 -4.64063,1.46074 -14.76563,4.43992 -22.5,6.62038 -7.73438,2.18045 -15.33115,4.49213 -16.88174,5.13706 -1.55058,0.64493 -5.3922,1.63917 -8.53694,2.20942 -3.14474,0.57026 -8.41515,2.10671 -11.71201,3.41433 -7.78332,3.08709 -26.13446,7.96598 -43.49431,11.56353 -2.0625,0.42742 -6.07031,1.71899 -8.90625,2.87015 -5.05007,2.04991 -37.92427,3.50651 -51.09375,2.26387 z m 51.07786,-10.25495 c 1.94077,-1.93868 0.15307,-4.55328 -3.35992,-4.91405 -5.10009,-0.52376 -12.76878,-3.11258 -16.46404,-5.55798 -5.84427,-3.86755 -7.8744,-1.26128 -3.96733,5.09321 4.33804,7.05544 18.83239,10.33238 23.79129,5.37882 z m -68.1127,-8.92355 c 8.09445,-2.24768 16.72939,-10.52315 22.47819,-21.54242 l 4.18329,-8.01854 0.27154,-21.98146 c 0.47915,-38.78838 0.30027,-54.27691 -0.90891,-78.70021 -1.4079,-28.43718 -1.51401,-137.01367 -0.13641,-139.58774 0.49929,-0.93294 1.55034,-4.77787 2.33567,-8.54429 0.98351,-4.717 2.67395,-8.86162 5.43216,-13.31856 2.20237,-3.55879 4.84806,-8.06656 5.87931,-10.01727 8.89015,-16.8166 32.0153,-30.6638 61.875,-37.05036 4.125,-0.88228 9.82031,-2.20319 12.65625,-2.93536 6.99267,-1.80534 27.82211,-6.66227 31.875,-7.4325 4.52298,-0.85955 17.79082,-3.97321 26.25,-6.16027 3.86719,-0.99983 11.25,-2.6523 16.40625,-3.67216 11.59243,-2.29286 27.00307,-5.64781 43.59375,-9.49052 29.10291,-6.74077 34.98037,-7.60077 44.53125,-6.5159 3.60937,0.40998 8.15287,1.51197 10.09659,2.44886 3.219,1.55157 3.666,1.57155 5.01338,0.22413 2.47003,-2.47004 0.17972,-4.89174 -9.71147,-10.26871 l -9.1485,-4.9732 -11.25,0.21148 c -7.62647,0.14337 -13.21275,0.77546 -17.34375,1.96248 -5.56132,1.59801 -17.05529,4.60886 -25.3125,6.63061 -4.6267,1.13284 -31.22677,8.04699 -44.0625,11.45316 -5.92969,1.57354 -14.57812,3.63725 -19.21875,4.58603 -4.64062,0.94878 -14.34375,3.26675 -21.5625,5.15105 -7.21875,1.88429 -15.44531,3.97324 -18.28125,4.64211 -25.78366,6.08116 -36.56845,8.21723 -45,8.91281 -5.41406,0.44665 -11.74219,1.32523 -14.0625,1.95241 -5.3641,1.44991 -42.61003,2.19444 -50.16127,1.00271 -3.09099,-0.48782 -6.25279,-0.56366 -7.02623,-0.16855 -0.77344,0.39511 -4.57031,-0.0538 -8.4375,-0.99767 -3.86719,-0.94383 -8.77108,-1.73377 -10.89755,-1.75541 -2.25286,-0.023 -5.57827,-0.97879 -7.96875,-2.29051 -2.25634,-1.23813 -5.57901,-2.54687 -7.3837,-2.90832 -1.80469,-0.36145 -8.34375,-2.87706 -14.53125,-5.59026 -6.1875,-2.71319 -12.30469,-5.25169 -13.59375,-5.6411 -2.47447,-0.74751 -9.53108,-3.84969 -17.34375,-7.62455 -2.57812,-1.24567 -5.95312,-2.64662 -7.5,-3.11322 -1.54687,-0.4666 -7.45312,-2.82386 -13.125,-5.23835 -9.73428,-4.14385 -12.67307,-5.3783 -26.95312,-11.32178 -3.22266,-1.3413 -7.88688,-3.21199 -10.36495,-4.15709 -2.47805,-0.9451 -5.9513,-2.57137 -7.71832,-3.61394 -1.76702,-1.04258 -5.38936,-2.54196 -8.04963,-3.33198 -14.21874,-4.22251 -22.52293,-11.82042 -19.22201,-17.58715 2.7234,-4.7578 1.26251,-6.38801 -3.83275,-4.27697 -1.95069,0.80821 -5.51824,2.16673 -7.92786,3.01896 -11.25504,3.9806 -19.16199,11.46546 -22.84832,21.62865 -3.84293,10.59489 -0.82996,12.7149 7.43415,5.23088 l 5.06828,-4.58987 8.30101,0.50036 c 7.2445,0.43668 9.24298,0.97119 15.70195,4.19961 4.07051,2.03458 11.45332,5.29928 16.40625,7.25488 11.46709,4.52765 37.43426,15.29665 44.16157,18.31451 4.78919,2.14843 18.45803,7.79963 43.59375,18.02326 9.79829,3.98533 20.66273,8.73658 35.92852,15.71228 9.65302,4.41095 24.8081,17.93885 30.92559,27.60514 6.54209,10.33721 6.82739,13.04242 7.71944,73.19469 0.43968,29.64844 1.23788,72.89062 1.77379,96.09375 0.53589,23.20312 1.07451,56.32031 1.19693,73.59375 l 0.22257,31.40625 -4.31188,9.375 c -3.88968,8.45705 -4.72374,9.60449 -8.51829,11.71875 -11.09253,6.18058 -9.51381,11.67682 2.40349,8.36763 z m 103.65535,-45.83452 c 11.18909,-1.61745 21.20471,-17.32298 19.45143,-30.50186 -3.10286,-23.32322 -14.94257,-30.05315 -32.39591,-18.41447 -13.3991,8.93514 -13.44134,39.66967 -0.0657,47.82355 3.66858,2.23639 4.57332,2.31239 13.01018,1.09278 z M 659.17627,714.31696 c 10.51136,-5.3625 12.49844,-29.26269 3.47725,-41.82386 -8.85178,-12.3253 -15.68485,-13.69819 -23.68486,-4.75873 -17.212,19.23323 -0.71701,57.25753 20.20761,46.58259 z m 296.0047,-33.92634 c 10.70475,-9.62194 12.05034,-18.50631 5.53415,-36.53895 -3.41109,-9.43984 -20.50453,-14.23912 -26.27779,-7.37796 -8.60996,10.23236 -9.38855,38.25645 -1.25051,45.01042 6.41459,5.32364 15.34905,4.87944 21.99415,-1.09351 z M 530.625,656.86556 c 17.49316,-5.10425 13.56233,-42.33049 -4.96762,-47.04493 -11.48429,-2.92186 -15.45853,-0.65081 -17.30213,9.88718 -4.42483,25.29215 5.60146,42.02132 22.26975,37.15775 z m 71.61926,-63.51543 c 13.88681,-15.44546 3.55446,-48.66263 -15.13671,-48.66263 -12.11826,0 -21.57843,31.0326 -12.42909,40.77163 1.1124,1.1841 2.72967,3.56069 3.59392,5.28132 2.52648,5.02994 6.93009,7.38455 13.81063,7.38455 l 5.86823,0 4.29302,-4.77487 z m 198.86804,-38.3616 c 19.15422,-11.83796 15.61596,-53.56678 -4.66848,-55.05803 -14.58434,-1.07221 -25.75081,22.65115 -19.2746,40.94921 4.1543,11.73766 6.08208,14.07381 12.47389,15.11628 6.6808,1.08959 8.30726,0.94673 11.46919,-1.00746 z M 662.19439,538.27664 c 3.98006,-4.04082 4.55625,-5.16267 5.27946,-10.27919 0.44651,-3.15883 1.01085,-6.07473 1.25412,-6.47977 1.32736,-2.2101 -1.91264,-20.79604 -4.10408,-23.54274 -1.25407,-1.57181 -3.03812,-3.93888 -3.96453,-5.26014 -5.36419,-7.65046 -21.94524,-2.46247 -25.00898,7.82498 -7.6347,25.63591 11.57032,52.93914 26.54401,37.73686 z m 292.79186,-22.88602 c 15.46631,-16.42999 7.19325,-48.50782 -12.51206,-48.51407 -11.25522,-0.004 -22.44056,23.54238 -18.2381,38.39248 3.39776,12.00659 5.86657,13.52978 24.1435,14.89596 1.281,0.0958 3.59907,-1.57942 6.60666,-4.77437 z M 535.91582,486.99217 c 6.29639,-4.80249 8.77371,-26.38768 4.08418,-35.58592 -1.03125,-2.02274 -1.875,-4.39988 -1.875,-5.28255 0,-9.37966 -18.37912,-9.6588 -23.21218,-0.35254 -12.64734,24.35299 2.95954,54.98343 21.003,41.22101 z M 282.75044,464.51545 c 8.05672,-3.8743 17.39356,-12.49436 19.65489,-18.14598 0.97575,-2.43866 2.59996,-4.47045 4.25979,-5.32879 1.59345,-0.824 2.91282,-2.42716 3.24943,-3.94836 0.3117,-1.40858 1.36943,-5.6132 2.35052,-9.34357 1.39926,-5.32039 1.5968,-7.74556 0.9163,-11.25 -0.47712,-2.45713 -1.13706,-14.17063 -1.46654,-26.03 -1.03117,-37.11659 -1.25788,-42.72218 -2.35077,-58.125 -1.26449,-17.82139 -2.23109,-54.00335 -1.91596,-71.71875 0.12382,-6.96094 0.36745,-24.89063 0.54141,-39.84375 0.44495,-38.24813 2.45365,-50.52841 10.2743,-62.8125 1.64137,-2.57813 4.32415,-6.83925 5.96175,-9.46916 3.37531,-5.42061 9.90234,-11.28194 16.0634,-14.42508 4.63849,-2.36638 19.00049,-7.51201 20.96682,-7.51201 0.69262,0 4.66625,-1.6875 8.8303,-3.75 4.16405,-2.0625 7.89248,-3.75 8.28539,-3.75 0.39291,0 6.22866,-2.68454 12.96833,-5.96565 6.73968,-3.28111 13.30864,-6.27598 14.5977,-6.65527 1.28906,-0.3793 5.92969,-2.49341 10.3125,-4.69802 4.38281,-2.204629 11.97656,-5.586426 16.875,-7.515116 4.89844,-1.928694 10.17187,-4.260898 11.71875,-5.182679 1.54687,-0.921781 5.55469,-2.815415 8.90625,-4.208077 3.35156,-1.392661 11.12807,-4.855692 17.28112,-7.695623 13.73972,-6.34155 19.53299,-7.224627 26.82279,-4.088639 9.58943,4.125267 12.49426,0.169456 5.37083,-7.314058 -2.26854,-2.383215 -5.28064,-6.151133 -6.69357,-8.373152 -3.45174,-5.428361 -7.64454,-5.410756 -10.20305,0.04284 -1.80424,3.845864 -5.78622,6.221654 -20.94546,12.496843 -4.53855,1.878737 -11.01649,4.794743 -14.39541,6.480012 -3.37893,1.685268 -10.15131,5.065803 -15.04975,7.512296 -4.89844,2.446493 -11.01563,5.20868 -13.59375,6.13819 -2.57813,0.929511 -8.27344,3.242885 -12.65625,5.140833 -4.38281,1.897941 -11.81134,5.056377 -16.50784,7.018747 -4.69649,1.96235 -10.28965,4.461 -12.42923,5.55254 -2.13959,1.09153 -6.86662,3.05827 -10.50452,4.37054 -3.63789,1.31225 -9.6344,3.83324 -13.32556,5.60219 -3.69116,1.76894 -7.69545,3.21625 -8.89841,3.21625 -1.20296,0 -5.01175,1.20192 -8.46395,2.67094 -3.45221,1.46901 -11.1283,3.81837 -17.05799,5.22078 -5.92969,1.40243 -12.46875,2.95995 -14.53125,3.46116 -4.62002,1.12271 -56.21557,0.413 -59.53125,-0.81888 -1.28906,-0.47893 -5.71875,-1.40631 -9.84375,-2.06085 -4.125,-0.65454 -12.7226,-2.20005 -19.10576,-3.43445 -6.38318,-1.23441 -18.19568,-3.12011 -26.25,-4.19044 -8.05434,-1.07034 -17.44679,-2.54281 -20.87213,-3.27217 -3.42534,-0.72934 -7.39676,-1.32609 -8.82538,-1.32609 -1.42862,0 -6.21981,-0.64933 -10.64711,-1.44295 -7.22088,-1.29439 -49.36735,-8.29308 -66.17462,-10.98871 -19.800514,-3.17571 -49.698469,0.12082 -64.107785,7.06849 -5.510698,2.65707 -10.145939,13.00677 -7.161746,15.99096 2.225475,2.22548 2.496058,2.11866 9.260259,-3.6557 12.170012,-10.3891 37.746449,-12.90972 59.196772,-5.83398 3.09375,1.02051 10.898438,2.6559 17.34375,3.63418 6.44531,0.97828 14.88281,2.40437 18.75,3.16908 3.86719,0.76472 11.67187,2.26026 17.34375,3.32342 15.23274,2.85528 24.84245,4.72343 29.0625,5.64982 4.94685,1.08593 21.37019,4.20889 31.64062,6.01656 36.76192,6.47042 37.60841,6.67944 48.24229,11.91211 9.38383,4.61756 20.83738,13.23949 25.48497,19.18441 7.53261,9.63528 10.34248,13.91898 12.59955,19.2083 1.40414,3.29052 3.46782,7.67026 4.58594,9.73276 2.39448,4.41691 3.75825,12.09665 3.99681,22.50728 0.0946,4.12902 0.69082,8.47665 1.32489,9.66144 1.39406,2.6048 2.5064,52.37831 2.76949,123.92503 0.0976,26.55469 0.43306,51.29109 0.74536,54.9698 1.5139,17.8329 -10.42015,39.99844 -26.38706,49.00961 -13.04926,7.36455 -2.97649,11.17118 11.34133,4.28604 z m 62.31119,-8.92343 c 0.99735,-0.53377 1.81337,-1.77097 1.81337,-2.74933 0,-1.80746 -0.74099,-2.18839 -6.54112,-3.36272 -2.17703,-0.44078 -4.58341,-2.09893 -7.24437,-4.99187 -6.48951,-7.05526 -10.09832,-2.22913 -4.52847,6.05602 3.64642,5.42405 11.37813,7.78936 16.50059,5.0479 z M 233.4375,406.25112 c 15.61488,-2.62166 22.40273,-39.61014 8.71048,-47.4653 -19.57294,-11.22886 -42.54741,15.16045 -30.39423,34.9119 1.48019,2.40561 2.98806,5.30899 3.35082,6.45196 0.81577,2.57024 10.51614,7.82418 13.17668,7.13679 1.03125,-0.26645 3.35156,-0.73236 5.15625,-1.03535 z m 146.65884,-18.38109 c 2.21669,-2.31347 4.37516,-5.77807 5.11058,-8.20313 0.70022,-2.30898 1.88872,-6.20399 2.64112,-8.65556 1.08181,-3.52492 1.15581,-5.44678 0.35372,-9.18677 -0.55784,-2.60115 -1.01839,-5.86875 -1.02342,-7.26134 -0.0548,-15.15952 -27.14392,-22.29533 -29.58735,-7.7939 -0.31387,1.86281 -1.27134,5.28536 -2.12771,7.60567 -8.7696,23.76111 9.78518,48.99113 24.63306,33.49503 z m 377.54726,-13.3999 c 18.89437,-2.63531 21.19504,-9.12108 4.82837,-13.61161 -23.1307,-6.34634 -60.07997,-0.19236 -53.43204,8.89923 3.34524,4.57487 30.62577,7.21987 48.60367,4.71238 z M 82.825999,370.84456 c 6.274508,-4.55546 10.893417,-17.22951 10.911906,-29.94169 0.01287,-8.85049 0.328932,-7.97164 -7.046878,-19.5947 -4.203222,-6.62357 -14.024707,-9.2408 -19.274641,-5.1363 -1.483917,1.16016 -3.984097,3.10186 -5.555956,4.3149 -14.435664,11.14032 -8.133822,43.97265 9.815886,51.14034 5.914666,2.36185 6.915465,2.29161 11.149683,-0.78255 z M 232.2563,316.89181 c 12.32565,-3.86413 14.03919,-6.449 14.92666,-22.51681 0.70951,-12.84605 -1.99857,-22.16337 -7.48699,-25.75953 -6.55816,-4.29707 -20.59844,-5.6846 -23.62961,-2.3352 -0.94834,1.04789 -3.08054,2.74349 -4.73821,3.768 -7.23332,4.47044 -9.04193,22.10411 -3.40727,33.22051 6.31119,12.45112 14.12353,16.82448 24.33542,13.62303 z M 427.5,283.60115 c 1.28906,-0.75417 4.06824,-2.21397 6.17597,-3.244 16.24139,-7.93708 13.05289,-52.22148 -3.83886,-53.31697 -21.23023,-1.37684 -31.849,34.21964 -15.80886,52.99482 4.65638,5.45035 8.50831,6.47001 13.47175,3.56615 z M 80.033926,282.76778 c 16.586633,-6.93033 11.002568,-51.14736 -6.673772,-52.84583 -10.920498,-1.04932 -18.391176,5.85892 -19.972308,18.46869 -0.911523,7.26954 -0.671754,10.21654 1.831621,22.51248 0.983543,4.8309 7.325627,11.1614 11.343033,11.32229 1.289062,0.0517 3.1875,0.45644 4.21875,0.89959 2.801431,1.20382 5.79301,1.08832 9.252676,-0.35722 z M 234.63949,233.1 c 20.87973,-8.82457 12.86762,-53.1 -9.60901,-53.1 -5.76266,0 -18.58202,7.01337 -20.17495,11.03755 -10.27976,25.96959 7.71877,51.38804 29.78396,42.06245 z M 78.88143,201.79687 c 12.44416,-13.15974 14.535208,-41.01533 3.386348,-45.11075 -16.529213,-6.07184 -20.729009,-6.58356 -24.552525,-2.99155 -3.41048,3.20398 -6.152753,9.39212 -6.152753,13.88414 0,2.12395 -0.448752,5.04203 -0.997226,6.48463 -1.017453,2.67611 -0.790412,3.83546 3.549343,18.12416 3.684459,12.13114 17.36342,17.43849 24.766813,9.60937 z m 401.98163,-14.25703 c 2.2494,-1.20385 8.99697,-11.6769 10.90107,-16.91979 5.70577,-15.71071 -6.54457,-43.29914 -16.03807,-36.11861 -1.00089,0.75703 -2.92307,1.38984 -4.2715,1.40625 -14.34095,0.1744 -18.1574,41.30305 -4.6753,50.38415 3.40789,2.29543 10.88811,2.95828 14.0838,1.248 z M 38.845219,96.585703 C 42.55907,95.173697 36.328692,84.375 31.800177,84.375 c -9.284105,0 -9.632949,11.712816 -0.370123,12.427303 2.565033,0.19785 4.741701,0.435778 4.83704,0.528713 0.09534,0.09291 1.255496,-0.242447 2.578125,-0.745313 z M 293.89675,95.313234 c 7.71383,-1.603692 10.01609,-7.46128 4.67486,-11.894112 -4.46097,-3.702273 -31.4173,-5.888739 -42.74402,-3.467028 -3.80674,0.813901 -9.21,1.940688 -12.00727,2.503971 -11.31571,2.278642 -10.77606,8.37553 0.86718,9.797333 2.83594,0.346308 6.53653,1.071402 8.22353,1.611314 7.96791,2.550085 31.65963,3.387394 40.98572,1.448522 z M 266.71875,44.0625 c 2.99738,-1.03125 6.33295,-1.888417 7.41239,-1.904815 6.22509,-0.09457 8.04714,-10.502152 2.03626,-11.631146 -30.21133,-5.674437 -54.9174,-3.300147 -54.9174,5.277645 0,2.143635 3.23142,5.432809 5.39062,5.486966 0.90235,0.02263 3.32813,0.687903 5.39063,1.478379 8.83051,3.384393 26.67534,4.049557 34.6875,1.292971 z"
     id="path4175"
     inkscape:connector-curvature="0" />
</svg>
