<?xml version="1.0" encoding="UTF-8"?>
<svg viewBox="0 0 140 190" xmlns="http://www.w3.org/2000/svg">
 <defs>
  <linearGradient id="a" x2=".79259" y1=".32486" y2=".67943">
   <stop stop-color="#ebf0d0" offset="0"/>
   <stop stop-color="#ffffeb" offset="1"/>
  </linearGradient>
 </defs>
 <g stroke-width=".2">
  <path d="m21 5h103c8.864 0 16 7.136 16 16v153c0 8.864-7.136 16-16 16h-103c-8.864 0-16-7.136-16-16v-153c0-8.864 7.136-16 16-16z" fill-opacity=".498"/>
  <path d="m17 1h103c8.864 0 16 7.136 16 16v153c0 8.864-7.136 16-16 16h-103c-8.864 0-16-7.136-16-16v-153c0-8.864 7.136-16 16-16z" fill="#fff"/>
  <path d="m19 3h103c8.864 0 16 7.136 16 16v153c0 8.864-7.136 16-16 16h-103c-8.864 0-16-7.136-16-16v-153c0-8.864 7.136-16 16-16z" fill="#c7891f"/>
  <path d="m18 2h103c8.864 0 16 7.136 16 16v153c0 8.864-7.136 16-16 16h-103c-8.864 0-16-7.136-16-16v-153c0-8.864 7.136-16 16-16z" fill="url(#a)"/>
  <path d="m66.25 68.75c-0.125 0 0.625 4 0.625 4l-0.625-4z" fill="url(#a)" stroke-dasharray="null" stroke-linecap="null" stroke-linejoin="null"/>
 </g>
 <path d="m103.53 21c-0.49728 0.00194-0.9726 0.09931-1.4375 0.28125-0.9298 0.36388-1.7384 1.1114-2.0312 2.1875-0.17557 0.64526-0.12276 1.3809 0.1875 2 0.31026 0.61908 0.93159 1.1193 1.75 1.125 0.47552 0.00329 0.84996-0.1962 1.1562-0.53125 0.15315-0.16752 0.31341-0.41588 0.3125-0.71875-9.08e-4 -0.30287-0.20998-0.58273-0.46875-0.75l-0.5312 0.8125c0.070091 0.045309 1.68e-4 -0.004959 0-0.0625-1.83e-4 -0.057541 0.017227-0.02179-0.03125 0.03125-0.096947 0.10606-0.45498 0.21863-0.4375 0.21875-0.42286-0.00293-0.65496-0.21705-0.84375-0.59375s-0.22731-0.90524-0.125-1.2812c0.20426-0.7507 0.71786-1.2306 1.4062-1.5 0.68839-0.26941 1.5522-0.2977 2.25-0.03125 2.116 0.8079 2.8247 3.4293 1.9375 5.4375-0.77925 1.7638-2.5807 2.8296-4.5 2.9062l-62.781 0.375v1l62.562-0.375v0.0625c0.078087 3.51e-4 0.14087-0.05998 0.21875-0.0625h0.34375v-0.09375c2.1634-0.19422 4.1906-1.3619 5.0938-3.4062 1.1009-2.4919 0.1434-5.7481-2.5625-6.7812-0.4725-0.1804-0.97148-0.25194-1.4688-0.25zm11.406 3.0312c-0.67184 0.02277-1.3458 0.16228-1.9688 0.4375-2.0443 0.90316-3.212 2.9303-3.4062 5.0938h-0.09375v0.34375c-0.002518 0.077881-0.062851 0.14066-0.0625 0.21875h0.0625l0.25 69.094h1l-0.25-69.312c0.076668-1.9193 1.1424-3.7208 2.9062-4.5 2.0082-0.88719 4.6296-0.17849 5.4375 1.9375 0.26645 0.69785 0.23816 1.5616-0.03125 2.25-0.2694 0.68839-0.7493 1.202-1.5 1.4062-0.376 0.10231-0.90455 0.063789-1.2812-0.125-0.3767-0.18879-0.59082-0.42089-0.59375-0.84375 1.22e-4 0.017481 0.11269-0.34055 0.21875-0.4375 0.05304-0.048481 0.088791-0.031071 0.03125-0.03125-0.057541-1.7e-4 -0.10781-0.070089-0.0625 0l0.8125-0.5312c-0.16727-0.25877-0.44713-0.46784-0.75-0.46875s-0.55122 0.15935-0.71875 0.3125c-0.33505 0.30629-0.53454 0.68073-0.53125 1.1562 0.005661 0.81841 0.50592 1.4397 1.125 1.75 0.61908 0.31026 1.3547 0.36307 2 0.1875 1.0761-0.2928 1.8236-1.1014 2.1875-2.0312 0.18194-0.4649 0.27931-0.94022 0.28125-1.4375 0.001938-0.49727-0.069603-0.99625-0.25-1.4688-0.77485-2.0294-2.797-3.0683-4.8125-3zm-85.656 65.969l0.25 69.312c-0.07667 1.9193-1.1424 3.7207-2.9062 4.5-2.0082 0.88719-4.6296 0.17848-5.4375-1.9375-0.26645-0.69784-0.23816-1.5616 0.03125-2.25 0.2694-0.68838 0.7493-1.202 1.5-1.4062 0.376-0.10231 0.90455-0.063797 1.2812 0.125 0.3767 0.1888 0.59082 0.42088 0.59375 0.84375-1.2e-4 -0.017487-0.11269 0.34055-0.21875 0.4375-0.05304 0.048477-0.088791 0.031067-0.03125 0.03125 0.057541 1.68e-4 0.10781 0.070084 0.0625 0l-0.8125 0.5312c0.16727 0.25877 0.44713 0.46783 0.75 0.46875 0.30287 9.16e-4 0.55122-0.15936 0.71875-0.3125 0.33505-0.30629 0.53454-0.68074 0.53125-1.1562-0.005659-0.8184-0.50592-1.4397-1.125-1.75-0.61908-0.31026-1.3547-0.36308-2-0.1875-1.0761 0.2928-1.8236 1.1014-2.1875 2.0312-0.18194 0.4649-0.27931 0.94022-0.28125 1.4375-0.00194 0.49727 0.069599 0.99625 0.25 1.4688 1.0331 2.7059 4.2894 3.6634 6.7812 2.5625 2.0443-0.90315 3.212-2.9303 3.4062-5.0938h0.09375v-0.34375c0.00252-0.077881 0.062851-0.14067 0.0625-0.21875h-0.0625l-0.25-69.094h-1zm71.375 67.312l-62.562 0.375v-0.0625c-0.078091-3.51e-4 -0.14087 0.059982-0.21875 0.0625h-0.34375v0.09375c-2.1634 0.19421-4.1906 1.3619-5.0938 3.4062-1.1009 2.4919-0.1434 5.7481 2.5625 6.7812 0.4725 0.1804 0.97148 0.25194 1.4688 0.25 0.49728-0.001938 0.9726-0.099304 1.4375-0.28125 0.9298-0.36388 1.7384-1.1114 2.0312-2.1875 0.17556-0.64526 0.12276-1.3809-0.1875-2-0.31026-0.61908-0.93159-1.1193-1.75-1.125-0.47552-0.003296-0.84996 0.1962-1.1562 0.53125-0.15315 0.16753-0.31341 0.41588-0.3125 0.71875 9.12e-4 0.30287 0.20998 0.58273 0.46875 0.75l0.5312-0.8125c-0.070091-0.045303-1.72e-4 0.004959 0 0.0625 1.79e-4 0.057541-0.017231 0.02179 0.03125-0.03125 0.096951-0.10606 0.45498-0.21863 0.4375-0.21875 0.42286 0.00293 0.65496 0.21706 0.84375 0.59375s0.22731 0.90524 0.125 1.2812c-0.20426 0.7507-0.71786 1.2306-1.4062 1.5-0.68839 0.26941-1.5522 0.2977-2.25 0.03125-2.116-0.80791-2.8247-3.4293-1.9375-5.4375 0.77925-1.7639 2.5807-2.8296 4.5-2.9062l62.781-0.375v-1z" fill="#9f0000" fill-rule="evenodd"/>
 <g transform="matrix(1 0 0 .40081 -239.33 -10.812)">
  <path d="m260.42 148.39c-4.9243 19.522-20.034 52.765-10.462 63.029 5.8105 4.7247 8.5756-4.947 9.7468-11.35h0.23456l-3.8588 32.3 8.9375-0.0951s-3.8501-31.049-3.8588-32.237h0.093811c0.94595 5.2323 4.5354 16.064 8.4839 11.939 11.546-11.564-5.4556-44.469-9.3166-63.586z" fill-rule="evenodd" stroke-linejoin="round" stroke-width=".759"/>
 </g>
 <path d="m25.079 36.774h-10.001l-1.5783 5.4655h-6.4294l9.1872-30h7.6255l9.1872 30h-6.4294l-1.5616-5.4655m-8.4064-5.566h6.7949l-3.3891-11.936-3.4058 11.936"/>
 <g transform="matrix(-1 0 0 -.40081 378.02 199.48)">
  <path d="m260.42 148.39c-4.9243 19.522-20.034 52.765-10.462 63.029 5.8105 4.7247 8.5756-4.947 9.7468-11.35h0.23456l-3.8588 32.3 8.9375-0.0951s-3.8501-31.049-3.8588-32.237h0.093811c0.94595 5.2323 4.5354 16.064 8.4839 11.939 11.546-11.564-5.4556-44.469-9.3166-63.586z" fill-rule="evenodd" stroke-linejoin="round" stroke-width=".759"/>
 </g>
 <path d="m113.61 152.1h10.001l1.5783-5.4655h6.4294l-9.1872 30h-7.6256l-9.1872-30h6.4294l1.5617 5.4655m8.4064 5.566h-6.7949l3.3891 11.936 3.4057-11.936"/>
 <g transform="matrix(2.1125 0 0 .85783 -542.92 -84.557)">
  <path d="m289.73 166.52c-4.9243 19.522-20.034 52.765-10.462 63.029 5.8104 4.7247 8.5756-4.947 9.7467-11.35h0.23456l-3.8588 32.3 8.9375-0.0951s-3.8501-31.049-3.8588-32.237h0.093811c0.94595 5.2323 4.5354 16.064 8.4839 11.939 11.546-11.564-5.4556-44.469-9.3166-63.586z" fill-rule="evenodd" stroke-linejoin="round" stroke-width=".759"/>
 </g>
</svg>
