<?xml version="1.0" encoding="UTF-8"?>
<svg viewBox="0 0 140 190" xmlns="http://www.w3.org/2000/svg">
 <defs>
  <linearGradient id="a" x1="2" x2="109" y1="62.1" y2="127.7" gradientUnits="userSpaceOnUse">
   <stop stop-color="#ebf0d0" offset="0"/>
   <stop stop-color="#ffffeb" offset="1"/>
  </linearGradient>
 </defs>
 <path d="m21 5h103c8.864 0 16 7.136 16 16v153c0 8.864-7.136 16-16 16h-103c-8.864 0-16-7.136-16-16v-153c0-8.864 7.136-16 16-16z" fill-opacity=".49804"/>
 <path d="m17 1h103c8.864 0 16 7.136 16 16v153c0 8.864-7.136 16-16 16h-103c-8.864 0-16-7.136-16-16v-153c0-8.864 7.136-16 16-16z" fill="#fff"/>
 <path d="m19 3h103c8.864 0 16 7.136 16 16v153c0 8.864-7.136 16-16 16h-103c-8.864 0-16-7.136-16-16v-153c0-8.864 7.136-16 16-16z" fill="#c7891f"/>
 <path d="m18 2h103c8.864 0 16 7.136 16 16v153c0 8.864-7.136 16-16 16h-103c-8.864 0-16-7.136-16-16v-153c0-8.864 7.136-16 16-16z" fill="url(#a)"/>
 <path d="m103.53125,21c-.49728.00194-.9726.09931-1.4375.28125-.9298.36388-1.73845,1.1114-2.03125,2.1875-.17557.64526-.12276,1.38092.1875,2s.93159,1.11934 1.75,1.125c.47552.00329.84996-.1962 1.15625-.53125 .15315-.16753.31341-.41588.3125-.71875s-.20998-.58273-.46875-.75l-.53125.8125c.07009.04531.00017-.00496 0-.0625s.01723-.02179-.03125.03125c-.09695.10606-.45498.21863-.4375.21875-.42286-.00293-.65496-.21705-.84375-.59375s-.22731-.90525-.125-1.28125c.20426-.7507.71786-1.23059 1.40625-1.5s1.55215-.2977 2.25-.03125c2.11599.8079 2.82469,3.42928 1.9375,5.4375-.77925,1.76385-2.58067,2.82959-4.5,2.90625l-62.78125.375v1l62.5625-.375v.0625c.07809.00035.14087-.05998.21875-.0625h.34375v-.09375c2.16345-.19422 4.19059-1.36191 5.09375-3.40625 1.10087-2.49188.1434-5.74812-2.5625-6.78125-.4725-.1804-.97148-.25194-1.46875-.25zm11.40625,3.03125c-.67184.02277-1.34578.16228-1.96875.4375-2.04434.90316-3.21203,2.9303-3.40625,5.09375h-.09375v.34375c-.00252.07788-.06285.14066-.0625.21875h.0625l.25,69.09375h1l-.25-69.3125c.07667-1.91933 1.1424-3.72075 2.90625-4.5 2.00822-.88719 4.6296-.17849 5.4375,1.9375 .26645.69785.23816,1.56161-.03125,2.25s-.7493,1.20199-1.5,1.40625c-.376.10231-.90455.06379-1.28125-.125s-.59082-.42089-.59375-.84375c.00012.01748.11269-.34055.21875-.4375 .05304-.04848.08879-.03107.03125-.03125s-.10781-.07009-.0625,0l.8125-.53125c-.16727-.25877-.44713-.46784-.75-.46875s-.55122.15935-.71875.3125c-.33505.30629-.53454.68073-.53125,1.15625 .00566.81841.50592,1.43974 1.125,1.75s1.35474.36307 2,.1875c1.0761-.2928 1.82362-1.10145 2.1875-2.03125 .18194-.4649.27931-.94022.28125-1.4375s-.0696-.99625-.25-1.46875c-.77485-2.02942-2.79699-3.0683-4.8125-3zm-85.65625,65.96875 .25,69.3125c-.07667,1.91933-1.1424,3.72074-2.90625,4.5-2.00822.88719-4.6296.17848-5.4375-1.9375-.26645-.69785-.23816-1.56162.03125-2.25s.7493-1.202 1.5-1.40625c.376-.10231.90455-.0638 1.28125.125s.59082.42088.59375.84375c-.00012-.01748-.11269.34054-.21875.4375-.05304.04848-.08879.03106-.03125.03125s.10781.07008.0625,0l-.8125.53125c.16727.25877.44713.46783.75.46875s.55122-.15936.71875-.3125c.33505-.30629.53454-.68074.53125-1.15625-.00566-.81841-.50592-1.43975-1.125-1.75s-1.35474-.36308-2-.1875c-1.0761.2928-1.82362,1.10144-2.1875,2.03125-.18194.4649-.27931.94021-.28125,1.4375s.0696.99624.25,1.46875c1.03313,2.7059 4.28937,3.66336 6.78125,2.5625 2.04434-.90316 3.21203-2.93031 3.40625-5.09375h.09375v-.34375c.00252-.07788.06285-.14067.0625-.21875h-.0625l-.25-69.09375h-1zm71.375,67.3125-62.5625.375v-.0625c-.07809-.00035-.14087.05998-.21875.0625h-.34375v.09375c-2.16345.19422-4.19059,1.36191-5.09375,3.40625-1.10087,2.49189-.1434,5.74812 2.5625,6.78125 .4725.1804.97148.25194 1.46875.25s.9726-.09931 1.4375-.28125c.9298-.36388 1.73845-1.1114 2.03125-2.1875 .17556-.64526.12276-1.38092-.1875-2s-.93159-1.11934-1.75-1.125c-.47552-.00329-.84996.1962-1.15625.53125-.15315.16753-.31341.41588-.3125.71875s.20998.58273.46875.75l.53125-.8125c-.07009-.04531-.00017.00496 0,.0625s-.01723.02179.03125-.03125c.09695-.10606.45498-.21863.4375-.21875 .42286.00293.65496.21705.84375.59375s.22731.90525.125,1.28125c-.20426.7507-.71786,1.2306-1.40625,1.5s-1.55215.2977-2.25.03125c-2.11599-.8079-2.82469-3.42928-1.9375-5.4375 .77925-1.76385 2.58067-2.82958 4.5-2.90625l62.78125-.375v-1z" fill="#9f0000" fill-rule="evenodd"/>
 <g transform="matrix(.59314 0 0 .23894 -84.412 9.256)">
  <path d="m260.18 149.6c-4.8362 19.241-19.676 52.006-10.275 62.122 5.7065 4.6568 8.4221-4.8759 9.5723-11.187h0.23038l-3.7898 31.836 8.7775-0.09375s-3.7812-30.602-3.7898-31.773h0.09215c0.92901 5.157 4.4542 15.833 8.3321 11.767 11.339-11.397-5.358-43.83-9.1499-62.671z" fill-rule="evenodd"/>
 </g>
 <g transform="matrix(-.59314 0 0 -.23894 223.41 178.52)">
  <path d="m260.18 149.6c-4.8362 19.241-19.676 52.006-10.275 62.122 5.7065 4.6568 8.4221-4.8759 9.5723-11.187h0.23038l-3.7898 31.836 8.7775-0.09375s-3.7812-30.602-3.7898-31.773h0.09215c0.92901 5.157 4.4542 15.833 8.3321 11.767 11.339-11.397-5.358-43.83-9.1499-62.671z" fill-rule="evenodd"/>
 </g>
 <g transform="matrix(.59314 0 0 .23894 -84.053 50.479)">
  <path d="m260.18 149.6c-4.8362 19.241-19.676 52.006-10.275 62.122 5.7065 4.6568 8.4221-4.8759 9.5723-11.187h0.23038l-3.7898 31.836 8.7775-0.09375s-3.7812-30.602-3.7898-31.773h0.09215c0.92901 5.157 4.4542 15.833 8.3321 11.767 11.339-11.397-5.358-43.83-9.1499-62.671z" fill-rule="evenodd"/>
 </g>
 <g transform="matrix(1 0 0 .40081 -239.78 -10.811)">
  <path d="m260.42 148.39c-4.9243 19.522-20.034 52.765-10.462 63.029 5.8105 4.7247 8.5756-4.947 9.7467-11.35h0.23457l-3.8588 32.3 8.9374-0.09512s-3.85-31.049-3.8588-32.237h0.09383c0.94594 5.2323 4.5354 16.064 8.4839 11.939 11.546-11.564-5.4556-44.469-9.3166-63.586z" fill-rule="evenodd"/>
 </g>
 <path d="m24.608 26.063c1.6724 0.52245 2.9405 1.4334 3.8044 2.7327 0.87494 1.286 1.3124 2.927 1.3124 4.9229-2e-5 2.9738-0.94144 5.2377-2.8242 6.7916-1.8828 1.5405-4.6296 2.3108-8.2402 2.3108-1.2737 0-2.5529-0.12726-3.8377-0.38178-1.2737-0.24112-2.5363-0.60951-3.7878-1.1052v-5.9678c1.1962 0.72337 2.3812 1.2726 3.5552 1.6477 1.1851 0.36169 2.348 0.54253 3.4888 0.54253 1.6945 0 2.9904-0.35498 3.8875-1.065 0.90818-0.70996 1.3623-1.728 1.3623-3.0542-1e-5 -1.3664-0.46519-2.3978-1.3955-3.0944-0.91928-0.70996-2.2816-1.065-4.0869-1.065h-2.5584v-4.9832h2.6914c1.6059 2e-5 2.8021-0.30138 3.5885-0.90421 0.78635-0.61618 1.1795-1.5472 1.1795-2.793-2e-5 -1.152-0.38212-2.0428-1.1463-2.6724s-1.8441-0.94437-3.2396-0.9444c-1.03 3e-5 -2.0711 0.14068-3.1233 0.42197s-2.0988 0.6966-3.1399 1.2458v-5.6664c1.2626-0.42863 2.5141-0.75013 3.7546-0.96449s2.4588-0.32147 3.6549-0.3215c3.223 3e-5 5.6319 0.64302 7.2268 1.929 1.6059 1.2726 2.4089 3.1949 2.4089 5.7668-2e-5 1.7549-0.38212 3.1949-1.1463 4.3201-0.76423 1.1119-1.8939 1.8955-3.3891 2.351"/>
 <g transform="matrix(-1 0 0 -.40081 378.46 199.48)">
  <path d="m260.42 148.39c-4.9243 19.522-20.034 52.765-10.462 63.029 5.8105 4.7247 8.5756-4.947 9.7467-11.35h0.23457l-3.8588 32.3 8.9374-0.09512s-3.85-31.049-3.8588-32.237h0.09383c0.94594 5.2323 4.5354 16.064 8.4839 11.939 11.546-11.564-5.4556-44.469-9.3166-63.586z" fill-rule="evenodd"/>
 </g>
 <path d="m114.07 162.93c-1.6724-0.52245-2.9405-1.4334-3.8044-2.7327-0.87495-1.286-1.3124-2.927-1.3124-4.9229 2e-5 -2.9738 0.94143-5.2377 2.8242-6.7916 1.8828-1.5405 4.6296-2.3108 8.2402-2.3108 1.2737 0 2.5529 0.12726 3.8377 0.38178 1.2737 0.24112 2.5363 0.6095 3.7878 1.1052v5.9678c-1.1962-0.72338-2.3812-1.2726-3.5552-1.6477-1.1851-0.36168-2.348-0.54252-3.4888-0.54252-1.6945 0-2.9904 0.35498-3.8875 1.065-0.90818 0.70996-1.3623 1.728-1.3623 3.0542 1e-5 1.3664 0.46518 2.3978 1.3955 3.0944 0.91927 0.70996 2.2816 1.0649 4.0869 1.065h2.5584v4.9832h-2.6913c-1.6059-1e-5 -2.8021 0.30139-3.5885 0.90422-0.78634 0.61617-1.1795 1.5472-1.1796 2.793 2e-5 1.152 0.38213 2.0428 1.1463 2.6724s1.8441 0.94437 3.2396 0.9444c1.03-3e-5 2.0711-0.14068 3.1233-0.42197s2.0988-0.6966 3.1399-1.2458v5.6664c-1.2626 0.42864-2.5141 0.75013-3.7546 0.9645s-2.4587 0.32146-3.6549 0.3215c-3.223-4e-5 -5.6319-0.64303-7.2268-1.929-1.6059-1.2726-2.4089-3.1949-2.4089-5.7668 2e-5 -1.7549 0.38212-3.1949 1.1463-4.3201 0.76423-1.1118 1.8939-1.8955 3.3891-2.3509"/>
</svg>
