<?xml version="1.0" encoding="UTF-8"?>
<svg viewBox="0 0 140 190" xmlns="http://www.w3.org/2000/svg" xmlns:xlink="http://www.w3.org/1999/xlink">
 <defs>
  <linearGradient id="a">
   <stop stop-color="#c10000" offset="0"/>
   <stop stop-color="#ff433e" offset="1"/>
  </linearGradient>
  <linearGradient id="b">
   <stop stop-color="#f0eb00" offset="0"/>
   <stop stop-color="#ff0" offset="1"/>
  </linearGradient>
  <linearGradient id="l" x1="356.44" x2="484.8" y1="437.5" y2="256.18" gradientTransform="matrix(.18682 0 0 .14486 77.301 1.4751)" gradientUnits="userSpaceOnUse">
   <stop stop-color="#ffd8c1" offset="0"/>
   <stop stop-color="#ffeded" offset="1"/>
  </linearGradient>
  <linearGradient id="h" x1="141.32" x2="155.39" y1="75.52" y2="70.09" gradientUnits="userSpaceOnUse">
   <stop stop-color="#008200" offset="0"/>
   <stop stop-color="#00d000" offset="1"/>
  </linearGradient>
  <linearGradient id="d" x1="652.3" x2="410.91" y1="77.395" y2="344.42" gradientTransform="matrix(.18685 0 0 .14486 77.296 1.4867)" gradientUnits="userSpaceOnUse">
   <stop stop-color="#fff" offset="0"/>
   <stop stop-color="#fff" stop-opacity="0" offset="1"/>
  </linearGradient>
  <linearGradient id="c" x1="2" x2="109" y1="62.1" y2="127.7" gradientUnits="userSpaceOnUse">
   <stop stop-color="#ebf0d0" offset="0"/>
   <stop stop-color="#ffffeb" offset="1"/>
  </linearGradient>
  <linearGradient id="k" x1="145.52" x2="167.3" y1="91.756" y2="73.649" gradientUnits="userSpaceOnUse" xlink:href="#a"/>
  <linearGradient id="j" x1="142.72" x2="145.3" y1="64.976" y2="61.473" gradientUnits="userSpaceOnUse" xlink:href="#a"/>
  <linearGradient id="i" x1="148.04" x2="152.19" y1="89.88" y2="86.693" gradientUnits="userSpaceOnUse" xlink:href="#b"/>
  <linearGradient id="g" x1="146.68" x2="155" y1="30.953" y2="28.516" gradientUnits="userSpaceOnUse" xlink:href="#b"/>
  <linearGradient id="f" x1="140.15" x2="163.79" y1="28.658" y2="23.422" gradientUnits="userSpaceOnUse" xlink:href="#a"/>
  <linearGradient id="e" x1="104.75" x2="109.5" y1="57.469" y2="55.781" gradientUnits="userSpaceOnUse" xlink:href="#b"/>
 </defs>
 <path d="m21 5h103c8.864 0 16 7.136 16 16v153c0 8.864-7.136 16-16 16h-103c-8.864 0-16-7.136-16-16v-153c0-8.864 7.136-16 16-16z" fill-opacity=".49804"/>
 <path d="m17 1h103c8.864 0 16 7.136 16 16v153c0 8.864-7.136 16-16 16h-103c-8.864 0-16-7.136-16-16v-153c0-8.864 7.136-16 16-16z" fill="#fff"/>
 <path d="m19 3h103c8.864 0 16 7.136 16 16v153c0 8.864-7.136 16-16 16h-103c-8.864 0-16-7.136-16-16v-153c0-8.864 7.136-16 16-16z" fill="#c7891f"/>
 <path d="m18 2h103c8.864 0 16 7.136 16 16v153c0 8.864-7.136 16-16 16h-103c-8.864 0-16-7.136-16-16v-153c0-8.864 7.136-16 16-16z" fill="url(#c)"/>
 <path d="m103.53125,21c-.49728.00194-.9726.09931-1.4375.28125-.9298.36388-1.73845,1.1114-2.03125,2.1875-.17557.64526-.12276,1.38092.1875,2s.93159,1.11934 1.75,1.125c.47552.00329.84996-.1962 1.15625-.53125 .15315-.16753.31341-.41588.3125-.71875s-.20998-.58273-.46875-.75l-.53125.8125c.07009.04531.00017-.00496 0-.0625s.01723-.02179-.03125.03125c-.09695.10606-.45498.21863-.4375.21875-.42286-.00293-.65496-.21705-.84375-.59375s-.22731-.90525-.125-1.28125c.20426-.7507.71786-1.23059 1.40625-1.5s1.55215-.2977 2.25-.03125c2.11599.8079 2.82469,3.42928 1.9375,5.4375-.77925,1.76385-2.58067,2.82959-4.5,2.90625l-62.78125.375v1l62.5625-.375v.0625c.07809.00035.14087-.05998.21875-.0625h.34375v-.09375c2.16345-.19422 4.19059-1.36191 5.09375-3.40625 1.10087-2.49188.1434-5.74812-2.5625-6.78125-.4725-.1804-.97148-.25194-1.46875-.25zm11.40625,3.03125c-.67184.02277-1.34578.16228-1.96875.4375-2.04434.90316-3.21203,2.9303-3.40625,5.09375h-.09375v.34375c-.00252.07788-.06285.14066-.0625.21875h.0625l.25,69.09375h1l-.25-69.3125c.07667-1.91933 1.1424-3.72075 2.90625-4.5 2.00822-.88719 4.6296-.17849 5.4375,1.9375 .26645.69785.23816,1.56161-.03125,2.25s-.7493,1.20199-1.5,1.40625c-.376.10231-.90455.06379-1.28125-.125s-.59082-.42089-.59375-.84375c.00012.01748.11269-.34055.21875-.4375 .05304-.04848.08879-.03107.03125-.03125s-.10781-.07009-.0625,0l.8125-.53125c-.16727-.25877-.44713-.46784-.75-.46875s-.55122.15935-.71875.3125c-.33505.30629-.53454.68073-.53125,1.15625 .00566.81841.50592,1.43974 1.125,1.75s1.35474.36307 2,.1875c1.0761-.2928 1.82362-1.10145 2.1875-2.03125 .18194-.4649.27931-.94022.28125-1.4375s-.0696-.99625-.25-1.46875c-.77485-2.02942-2.79699-3.0683-4.8125-3zm-85.65625,65.96875 .25,69.3125c-.07667,1.91933-1.1424,3.72074-2.90625,4.5-2.00822.88719-4.6296.17848-5.4375-1.9375-.26645-.69785-.23816-1.56162.03125-2.25s.7493-1.202 1.5-1.40625c.376-.10231.90455-.0638 1.28125.125s.59082.42088.59375.84375c-.00012-.01748-.11269.34054-.21875.4375-.05304.04848-.08879.03106-.03125.03125s.10781.07008.0625,0l-.8125.53125c.16727.25877.44713.46783.75.46875s.55122-.15936.71875-.3125c.33505-.30629.53454-.68074.53125-1.15625-.00566-.81841-.50592-1.43975-1.125-1.75s-1.35474-.36308-2-.1875c-1.0761.2928-1.82362,1.10144-2.1875,2.03125-.18194.4649-.27931.94021-.28125,1.4375s.0696.99624.25,1.46875c1.03313,2.7059 4.28937,3.66336 6.78125,2.5625 2.04434-.90316 3.21203-2.93031 3.40625-5.09375h.09375v-.34375c.00252-.07788.06285-.14067.0625-.21875h-.0625l-.25-69.09375h-1zm71.375,67.3125-62.5625.375v-.0625c-.07809-.00035-.14087.05998-.21875.0625h-.34375v.09375c-2.16345.19422-4.19059,1.36191-5.09375,3.40625-1.10087,2.49189-.1434,5.74812 2.5625,6.78125 .4725.1804.97148.25194 1.46875.25s.9726-.09931 1.4375-.28125c.9298-.36388 1.73845-1.1114 2.03125-2.1875 .17556-.64526.12276-1.38092-.1875-2s-.93159-1.11934-1.75-1.125c-.47552-.00329-.84996.1962-1.15625.53125-.15315.16753-.31341.41588-.3125.71875s.20998.58273.46875.75l.53125-.8125c-.07009-.04531-.00017.00496 0,.0625s-.01723.02179.03125-.03125c.09695-.10606.45498-.21863.4375-.21875 .42286.00293.65496.21705.84375.59375s.22731.90525.125,1.28125c-.20426.7507-.71786,1.2306-1.40625,1.5s-1.55215.2977-2.25.03125c-2.11599-.8079-2.82469-3.42928-1.9375-5.4375 .77925-1.76385 2.58067-2.82958 4.5-2.90625l62.78125-.375v-1z" fill="#9f0000" fill-rule="evenodd"/>
 <path d="m20.645 48.665c-4.9243 7.8247-20.035 21.149-10.462 25.263 5.8105 1.8937 8.5757-1.9828 9.7468-4.5494h0.23458l-3.8589 12.946 8.9375-0.03813s-3.8501-12.445-3.8589-12.921h0.09383c0.94595 2.0972 4.5354 6.4387 8.484 4.7853 11.546-4.6349-5.4557-17.824-9.3167-25.486z" fill-rule="evenodd"/>
 <path d="m18.683 12.234h6.396v21.359c-1e-5 2.9471-0.84174 5.1495-2.5252 6.6073-1.6724 1.4577-4.2086 2.1866-7.6088 2.1866h-1.2958v-4.6108h0.99678c1.329 0 2.3314-0.35387 3.007-1.0616 0.68667-0.70773 1.03-1.7482 1.03-3.1214v-21.359"/>
 <path d="m118.04 140c4.9243-7.8247 20.035-21.149 10.462-25.263-5.8105-1.8938-8.5757 1.9828-9.7468 4.5494h-0.23458l3.8588-12.946-8.9375 0.03813s3.8501 12.445 3.8588 12.921h-0.09383c-0.94594-2.0972-4.5354-6.4387-8.484-4.7853-11.546 4.6349 5.4557 17.824 9.3168 25.486z" fill-rule="evenodd"/>
 <path d="m120 177h-6.396v-21.359c1e-5 -2.9471 0.84174-5.1496 2.5252-6.6073 1.6724-1.4577 4.2086-2.1866 7.6088-2.1866h1.2958v4.6108h-0.99678c-1.329 0-2.3314 0.35386-3.007 1.0616-0.68666 0.70774-1.03 1.7482-1.03 3.1214v21.359"/>
 <g transform="translate(-82.637 36.75)">
  <path d="m150.53 17.563c-5.972 3.7739-13.469-3.1652-17.453 4.8793-3.4954 4.7823 7.5297 6.1738 0.56963 10.424-4.7562 5.1244-4.4768 7.3804-0.36918 8.0077-1.1823 5.6637-0.32039 15.171 2.2741 20.355-3.2115 3.9032-0.80442 2.5624 3.5528 3.3761-1.3538 2.1545-0.57647 10.05-5.2073 12.489-2.3312 7.0215-0.58347 14.642-1.125 21.906 11.275 4.7482 24.625 5.2876 35.403 2.7547 4.7384-0.99042 10.145-1.3685 9.1908-8.1297 0.28361-8.4263 1.2826-19.518-7.91-23.83-5.3732-0.75269-7.1643-4.3877-3.0403-9.5494 3.0629-8.3581 6.4398-4.8611 11.143-6.9749 4.9011-1.3112-7.0014-4.5396-5.4296-9.9773-1.5227-4.2539-3.3837-9.2577-6.4299-12.711 7.6789-0.68963 8.502-8.6974 2.2601-10.332-6.1866-4.1223-9.8371 2.9138-14.545-2.3746-0.77934-0.0133-2.1022-0.50384-2.885-0.31289z"/>
  <path d="m167.87 48.823c0 11.413-7.5639 20.676-16.884 20.676s-16.884-9.263-16.884-20.676 7.5639-20.676 16.884-20.676 16.884 9.263 16.884 20.676z" fill="url(#l)"/>
  <path d="m147.48 69.977c-7.0491 0-12.725 5.6758-12.725 12.725v14.929c9.3799 4.6491 29.526 4.8938 40.619 0v-14.929c0-7.049-5.6758-12.725-12.725-12.725h-15.169z" fill="url(#k)"/>
  <path d="m132.28 39.191c2.5272-4.5286 5.0544-13.181 19.127-13.091 21.84 0.63989 16.63 23.382 24.451 25.836-4.8529 1.5773-7.2987 2.9285-14.541 0.43017 0.79167-5.699-0.49946-9.8788-3.9251-12.815-4.2689 2.2389-20.739 1.1746-25.112-0.35994z" fill-rule="evenodd"/>
  <path transform="matrix(.14486 0 0 .0979 99.316 24.951)" d="m353 245.86c0 11.868-9.408 21.5-21 21.5s-21-9.632-21-21.5 9.408-21.5 21-21.5 21 9.632 21 21.5z" fill="#fff"/>
  <path transform="matrix(.08278 0 0 .08197 118.62 28.919)" d="m353 245.86c0 11.868-9.408 21.5-21 21.5s-21-9.632-21-21.5 9.408-21.5 21-21.5 21 9.632 21 21.5z" fill="#1e2ecf"/>
  <path transform="matrix(.05173 0 0 .06603 128.28 32.984)" d="m353 245.86c0 11.868-9.408 21.5-21 21.5s-21-9.632-21-21.5 9.408-21.5 21-21.5 21 9.632 21 21.5z"/>
  <path transform="matrix(.14486 0 0 .0979 89.227 24.61)" d="m353 245.86c0 11.868-9.408 21.5-21 21.5s-21-9.632-21-21.5 9.408-21.5 21-21.5 21 9.632 21 21.5z" fill="#fff"/>
  <path transform="matrix(.08278 0 0 .08197 108.53 28.578)" d="m353 245.86c0 11.868-9.408 21.5-21 21.5s-21-9.632-21-21.5 9.408-21.5 21-21.5 21 9.632 21 21.5z" fill="#1828ce"/>
  <path transform="matrix(.05173 0 0 .06603 118.19 32.643)" d="m353 245.86c0 11.868-9.408 21.5-21 21.5s-21-9.632-21-21.5 9.408-21.5 21-21.5 21 9.632 21 21.5z"/>
  <path d="m139.44 62.205c1.8485 3.6222 6.9003 1.9432 11.728 0-5.3239 0.55967-8.9926 0.96923-11.728 0z" fill="url(#j)" fill-rule="evenodd"/>
  <path d="m161.58 85.856 1.2636 0.12326 1.3714 14.513-3.4652 0.46578 0.83024-15.102z" fill="#700000"/>
  <path d="m141.64 50.147c-0.7919 1.2868-1.9449 3.4024-1.7806 4.3749s1.6524 0.76247 2.4423 1.3231l0.33085-0.47789c-0.69469-0.49301-1.7829-0.00802-1.918-0.80756s0.68108-2.9149 1.4217-4.1184l-0.49627-0.29408z" fill-rule="evenodd"/>
  <path d="m142.93 57.8c-3.8036 0.37779-6.1334 3.301-8.0614 5.4205 0 0 6.2375-3.4563 8.2017-3.3861-0.1403-0.49104 0.07015-1.1224-0.1403-2.0343z" fill-rule="evenodd"/>
  <path d="m143.8 57.655c3.382 0.34612 9.8452 2.9698 10.146 5.4594 0 0-7.8856-4.2178-9.7388-3.5633-0.01303-0.51053-0.33502-0.96301-0.40705-1.8961z" fill-rule="evenodd"/>
  <path d="m141.27 71.649c3.6333 11.223 8.7041 20.946 14.462 29.544l3.6856-0.11199c-5.7377-9.208-11.725-19.603-15.151-30.811 0 0-2.0361 0.62409-2.9973 1.3792z" fill="url(#i)" fill-rule="evenodd"/>
  <path d="m138.69 68.131-0.25 10.25 9.3125-5.6875v1.4375l3.6875 0.3125-0.0625-1.9375 12.125 5.4375-1.25-12.062-10.688 5.4375-0.25-1.8125-3.75-0.25v1.9375l-8.875-3.0625z" fill="url(#h)" fill-rule="evenodd"/>
  <path d="m138.49 28.032-0.53718 2.5997c7.6667 2.2292 17.908 1.8772 26.762 0.91891-0.01858-0.35897-0.34967-2.5186-0.34967-2.5186-8.5208 0.875-19.417 0.8125-25.875-1z" fill="url(#g)" fill-rule="evenodd"/>
  <path d="m150.74 29.595c28.521 3.8333 23.479-13.396 1.5625-7.625-21.146-7.4583-26.229 9.8333-1.5625 7.625z" fill="url(#f)" fill-rule="evenodd"/>
  <path transform="translate(44.306 -35.218)" d="m110.81 56.406a3.7188 1.6562 0 1 1 -7.4375 0 3.7188 1.6562 0 1 1 7.4375 0z" fill="url(#e)"/>
  <path d="m151.4 19.544c-1.8105 0-3.1378 0.61169-3.4692 1.375-12.881-2.7213-17.582 4.4843-9.5326 7.5625l-0.40631 2.0625c-2.9983 2.789-4.3925 6.2786-5.7196 8.6562 0.75133 0.26361 2.2208 0.49726 3.563 0.71875-1.0674 2.7114-1.719 5.6966-1.719 8.9062 0 4.4709 1.1842 8.5853 3.1567 11.969-0.84974 0.816-1.7115 1.6735-2.4066 2.4375 0 0 1.4578-0.77841 3.0004-1.5312 3.0276 4.6208 7.5974 7.6518 12.783 7.7812l-3.0942-0.21875v0.71875h-0.06251c-0.91622 0-1.8275 0.09897-2.6879 0.28125l-6.1259-2.125-0.12502 5.5312c-2.3294 2.3038-3.7818 5.4816-3.7818 9.0312v14.938c4.9576 2.4569 12.894 3.6115 20.94 3.5 0.01272 0.01902 0.01852 0.04349 0.03125 0.0625l3.688-0.09375-0.15627-0.25c0.4947-0.03182 0.97767-0.0828 1.469-0.125v0.25l3.4692-0.46875v-0.03125c4.1351-0.57877 8.022-1.4605 11.158-2.8438v-14.938c-1e-5 -7.0384-5.654-12.702-12.689-12.719l-0.43756-4.0938-8.0324 4.0938h-2.8442l-0.06251-0.46875h-0.21878c7.9263-0.05332 14.518-6.8162 16.284-15.875 3.1022 0.16238 5.3444-0.6616 8.5012-1.6875-5.4836-1.7206-4.734-13.318-11.22-20.375h0.06251c-0.01536-0.29686-0.20247-1.5738-0.28129-2.0938 10.992-2.3853 5.5386-10.841-9.6889-7.9062 0.08651-0.14007 0.37506-0.22274 0.37506-0.375 0-0.91425-1.6662-1.6562-3.7193-1.6562z" fill="url(#d)"/>
 </g>
</svg>
