<?xml version="1.0" encoding="UTF-8"?>
<svg viewBox="0 0 140 190" xmlns="http://www.w3.org/2000/svg">
 <defs>
  <linearGradient id="a" x1="2" x2="109" y1="62.1" y2="127.7" gradientUnits="userSpaceOnUse">
   <stop stop-color="#ebf0d0" offset="0"/>
   <stop stop-color="#ffffeb" offset="1"/>
  </linearGradient>
 </defs>
 <path d="m21 5h103c8.864 0 16 7.136 16 16v153c0 8.864-7.136 16-16 16h-103c-8.864 0-16-7.136-16-16v-153c0-8.864 7.136-16 16-16z" fill-opacity=".49804"/>
 <path d="m17 1h103c8.864 0 16 7.136 16 16v153c0 8.864-7.136 16-16 16h-103c-8.864 0-16-7.136-16-16v-153c0-8.864 7.136-16 16-16z" fill="#fff"/>
 <path d="m19 3h103c8.864 0 16 7.136 16 16v153c0 8.864-7.136 16-16 16h-103c-8.864 0-16-7.136-16-16v-153c0-8.864 7.136-16 16-16z" fill="#c7891f"/>
 <path d="m18 2h103c8.864 0 16 7.136 16 16v153c0 8.864-7.136 16-16 16h-103c-8.864 0-16-7.136-16-16v-153c0-8.864 7.136-16 16-16z" fill="url(#a)"/>
 <path d="m103.53125,21c-.49728.00194-.9726.09931-1.4375.28125-.9298.36388-1.73845,1.1114-2.03125,2.1875-.17557.64526-.12276,1.38092.1875,2s.93159,1.11934 1.75,1.125c.47552.00329.84996-.1962 1.15625-.53125 .15315-.16753.31341-.41588.3125-.71875s-.20998-.58273-.46875-.75l-.53125.8125c.07009.04531.00017-.00496 0-.0625s.01723-.02179-.03125.03125c-.09695.10606-.45498.21863-.4375.21875-.42286-.00293-.65496-.21705-.84375-.59375s-.22731-.90525-.125-1.28125c.20426-.7507.71786-1.23059 1.40625-1.5s1.55215-.2977 2.25-.03125c2.11599.8079 2.82469,3.42928 1.9375,5.4375-.77925,1.76385-2.58067,2.82959-4.5,2.90625l-62.78125.375v1l62.5625-.375v.0625c.07809.00035.14087-.05998.21875-.0625h.34375v-.09375c2.16345-.19422 4.19059-1.36191 5.09375-3.40625 1.10087-2.49188.1434-5.74812-2.5625-6.78125-.4725-.1804-.97148-.25194-1.46875-.25zm11.40625,3.03125c-.67184.02277-1.34578.16228-1.96875.4375-2.04434.90316-3.21203,2.9303-3.40625,5.09375h-.09375v.34375c-.00252.07788-.06285.14066-.0625.21875h.0625l.25,69.09375h1l-.25-69.3125c.07667-1.91933 1.1424-3.72075 2.90625-4.5 2.00822-.88719 4.6296-.17849 5.4375,1.9375 .26645.69785.23816,1.56161-.03125,2.25s-.7493,1.20199-1.5,1.40625c-.376.10231-.90455.06379-1.28125-.125s-.59082-.42089-.59375-.84375c.00012.01748.11269-.34055.21875-.4375 .05304-.04848.08879-.03107.03125-.03125s-.10781-.07009-.0625,0l.8125-.53125c-.16727-.25877-.44713-.46784-.75-.46875s-.55122.15935-.71875.3125c-.33505.30629-.53454.68073-.53125,1.15625 .00566.81841.50592,1.43974 1.125,1.75s1.35474.36307 2,.1875c1.0761-.2928 1.82362-1.10145 2.1875-2.03125 .18194-.4649.27931-.94022.28125-1.4375s-.0696-.99625-.25-1.46875c-.77485-2.02942-2.79699-3.0683-4.8125-3zm-85.65625,65.96875 .25,69.3125c-.07667,1.91933-1.1424,3.72074-2.90625,4.5-2.00822.88719-4.6296.17848-5.4375-1.9375-.26645-.69785-.23816-1.56162.03125-2.25s.7493-1.202 1.5-1.40625c.376-.10231.90455-.0638 1.28125.125s.59082.42088.59375.84375c-.00012-.01748-.11269.34054-.21875.4375-.05304.04848-.08879.03106-.03125.03125s.10781.07008.0625,0l-.8125.53125c.16727.25877.44713.46783.75.46875s.55122-.15936.71875-.3125c.33505-.30629.53454-.68074.53125-1.15625-.00566-.81841-.50592-1.43975-1.125-1.75s-1.35474-.36308-2-.1875c-1.0761.2928-1.82362,1.10144-2.1875,2.03125-.18194.4649-.27931.94021-.28125,1.4375s.0696.99624.25,1.46875c1.03313,2.7059 4.28937,3.66336 6.78125,2.5625 2.04434-.90316 3.21203-2.93031 3.40625-5.09375h.09375v-.34375c.00252-.07788.06285-.14067.0625-.21875h-.0625l-.25-69.09375h-1zm71.375,67.3125-62.5625.375v-.0625c-.07809-.00035-.14087.05998-.21875.0625h-.34375v.09375c-2.16345.19422-4.19059,1.36191-5.09375,3.40625-1.10087,2.49189-.1434,5.74812 2.5625,6.78125 .4725.1804.97148.25194 1.46875.25s.9726-.09931 1.4375-.28125c.9298-.36388 1.73845-1.1114 2.03125-2.1875 .17556-.64526.12276-1.38092-.1875-2s-.93159-1.11934-1.75-1.125c-.47552-.00329-.84996.1962-1.15625.53125-.15315.16753-.31341.41588-.3125.71875s.20998.58273.46875.75l.53125-.8125c-.07009-.04531-.00017.00496 0,.0625s-.01723.02179.03125-.03125c.09695-.10606.45498-.21863.4375-.21875 .42286.00293.65496.21705.84375.59375s.22731.90525.125,1.28125c-.20426.7507-.71786,1.2306-1.40625,1.5s-1.55215.2977-2.25.03125c-2.11599-.8079-2.82469-3.42928-1.9375-5.4375 .77925-1.76385 2.58067-2.82958 4.5-2.90625l62.78125-.375v-1z" fill="#9f0000" fill-rule="evenodd"/>
 <g transform="matrix(1 0 0 .40081 -239.54 -11.052)">
  <path d="m260.18 149.6c-4.8362 19.241-19.676 52.006-10.275 62.122 5.7065 4.6568 8.4221-4.8759 9.5723-11.187h0.23038l-3.7898 31.836 8.7775-0.09375s-3.7812-30.602-3.7898-31.773h0.09215c0.92901 5.157 4.4542 15.833 8.3321 11.767 11.339-11.397-5.358-43.83-9.1499-62.671z" fill-rule="evenodd" stroke="#000" stroke-linejoin="round" stroke-width=".7589"/>
 </g>
 <path d="m11.677 42.368v-23.59l-5.237-0.06877 0.25258-3.6227 4.9544-3.0885h5.4922v30.37m13.434-15.222c-2e-5 -3.7508-0.26521-6.3897-0.79542-7.9169-0.52019-1.5405-1.4005-2.3107-2.641-2.3108s-2.1258 0.77028-2.656 2.3108c-0.53017 1.5271-0.79529 4.1661-0.79528 7.9169-1e-5 3.791 0.26511 6.4634 0.79528 8.0173s1.4156 2.3309 2.656 2.3309c1.2305 0 2.1109-0.77695 2.641-2.3309s0.7954-4.2263 0.79542-8.0173m5.7772 0.06028c-3e-5 4.9698-0.8003 8.8077-2.4009 11.514-1.6006 2.6925-3.8716 4.0388-6.8127 4.0388-2.9511 0-5.227-1.3463-6.8276-4.0388-1.6006-2.7059-2.4009-6.5438-2.4009-11.514 0-4.9832 0.80025-8.8211 2.4009-11.514 1.6006-2.7059 3.8765-4.0589 6.8276-4.0589 2.9412 2e-5 5.2121 1.353 6.8127 4.0589 1.6006 2.6926 2.4009 6.5304 2.4009 11.514"/>
 <g transform="matrix(-1 0 0 -.40081 378.42 199.72)">
  <path d="m260.18 149.6c-4.8362 19.241-19.676 52.006-10.275 62.122 5.7065 4.6568 8.4221-4.8759 9.5723-11.187h0.23038l-3.7898 31.836 8.7775-0.09375s-3.7812-30.602-3.7898-31.773h0.09215c0.92901 5.157 4.4542 15.833 8.3321 11.767 11.339-11.397-5.358-43.83-9.1499-62.671z" fill-rule="evenodd" stroke="#000" stroke-linejoin="round" stroke-width=".7589"/>
 </g>
 <path d="m127.2 146.47v23.59l5.237 0.06877-0.25258 3.6227-4.9544 3.0885h-5.4922v-30.37m-13.434 15.222c2e-5 3.7508 0.26521 6.3897 0.79542 7.9169 0.52019 1.5405 1.4005 2.3107 2.641 2.3108s2.1258-0.77028 2.656-2.3108c0.53017-1.5271 0.79529-4.1661 0.79528-7.9169 1e-5 -3.791-0.26511-6.4634-0.79528-8.0173s-1.4156-2.3309-2.656-2.3309c-1.2305 0-2.1109 0.77695-2.641 2.3309s-0.7954 4.2263-0.79542 8.0173m-5.7772-0.06028c3e-5 -4.9698 0.8003-8.8077 2.4009-11.514 1.6006-2.6925 3.8716-4.0388 6.8127-4.0388 2.9511 0 5.227 1.3463 6.8276 4.0388 1.6006 2.7059 2.4009 6.5438 2.4009 11.514 0 4.9832-0.80025 8.8211-2.4009 11.514-1.6006 2.7059-3.8765 4.0589-6.8276 4.0589-2.9412-2e-5 -5.2121-1.353-6.8127-4.0589-1.6006-2.6926-2.4009-6.5304-2.4009-11.514"/>
 <g transform="matrix(.59314 0 0 .23894 -105.41 .48105)">
  <path d="m260.18 149.6c-4.8362 19.241-19.676 52.006-10.275 62.122 5.7065 4.6568 8.4221-4.8759 9.5723-11.187h0.23038l-3.7898 31.836 8.7775-0.09375s-3.7812-30.602-3.7898-31.773h0.09215c0.92901 5.157 4.4542 15.833 8.3321 11.767 11.339-11.397-5.358-43.83-9.1499-62.671z" fill-rule="evenodd"/>
 </g>
 <g transform="matrix(.59314 0 0 .23894 -85.425 14.585)">
  <path d="m260.18 149.6c-4.8362 19.241-19.676 52.006-10.275 62.122 5.7065 4.6568 8.4221-4.8759 9.5723-11.187h0.23038l-3.7898 31.836 8.7775-0.09375s-3.7812-30.602-3.7898-31.773h0.09215c0.92901 5.157 4.4542 15.833 8.3321 11.767 11.339-11.397-5.358-43.83-9.1499-62.671z" fill-rule="evenodd"/>
 </g>
 <g transform="matrix(.59314 0 0 .23894 -64.27 .39884)">
  <path d="m260.18 149.6c-4.8362 19.241-19.676 52.006-10.275 62.122 5.7065 4.6568 8.4221-4.8759 9.5723-11.187h0.23038l-3.7898 31.836 8.7775-0.09375s-3.7812-30.602-3.7898-31.773h0.09215c0.92901 5.157 4.4542 15.833 8.3321 11.767 11.339-11.397-5.358-43.83-9.1499-62.671z" fill-rule="evenodd"/>
 </g>
 <g transform="matrix(.59314 0 0 .23894 -105.93 35.658)">
  <path d="m260.18 149.6c-4.8362 19.241-19.676 52.006-10.275 62.122 5.7065 4.6568 8.4221-4.8759 9.5723-11.187h0.23038l-3.7898 31.836 8.7775-0.09375s-3.7812-30.602-3.7898-31.773h0.09215c0.92901 5.157 4.4542 15.833 8.3321 11.767 11.339-11.397-5.358-43.83-9.1499-62.671z" fill-rule="evenodd"/>
 </g>
 <g transform="matrix(.59314 0 0 .23894 -65.973 34.483)">
  <path d="m260.18 149.6c-4.8362 19.241-19.676 52.006-10.275 62.122 5.7065 4.6568 8.4221-4.8759 9.5723-11.187h0.23038l-3.7898 31.836 8.7775-0.09375s-3.7812-30.602-3.7898-31.773h0.09215c0.92901 5.157 4.4542 15.833 8.3321 11.767 11.339-11.397-5.358-43.83-9.1499-62.671z" fill-rule="evenodd"/>
 </g>
 <g transform="matrix(-.59314 0 0 -.23894 202.53 155.13)">
  <path d="m260.18 149.6c-4.8362 19.241-19.676 52.006-10.275 62.122 5.7065 4.6568 8.4221-4.8759 9.5723-11.187h0.23038l-3.7898 31.836 8.7775-0.09375s-3.7812-30.602-3.7898-31.773h0.09215c0.92901 5.157 4.4542 15.833 8.3321 11.767 11.339-11.397-5.358-43.83-9.1499-62.671z" fill-rule="evenodd"/>
 </g>
 <g transform="matrix(-.59314 0 0 -.23894 244.2 155.21)">
  <path d="m260.18 149.6c-4.8362 19.241-19.676 52.006-10.275 62.122 5.7065 4.6568 8.4221-4.8759 9.5723-11.187h0.23038l-3.7898 31.836 8.7775-0.09375s-3.7812-30.602-3.7898-31.773h0.09215c0.92901 5.157 4.4542 15.833 8.3321 11.767 11.339-11.397-5.358-43.83-9.1499-62.671z" fill-rule="evenodd"/>
 </g>
 <g transform="matrix(-.59314 0 0 -.23894 223.04 172.76)">
  <path d="m260.18 149.6c-4.8362 19.241-19.676 52.006-10.275 62.122 5.7065 4.6568 8.4221-4.8759 9.5723-11.187h0.23038l-3.7898 31.836 8.7775-0.09375s-3.7812-30.602-3.7898-31.773h0.09215c0.92901 5.157 4.4542 15.833 8.3321 11.767 11.339-11.397-5.358-43.83-9.1499-62.671z" fill-rule="evenodd"/>
 </g>
 <g transform="matrix(-.59314 0 0 -.23894 244.84 185.77)">
  <path d="m260.18 149.6c-4.8362 19.241-19.676 52.006-10.275 62.122 5.7065 4.6568 8.4221-4.8759 9.5723-11.187h0.23038l-3.7898 31.836 8.7775-0.09375s-3.7812-30.602-3.7898-31.773h0.09215c0.92901 5.157 4.4542 15.833 8.3321 11.767 11.339-11.397-5.358-43.83-9.1499-62.671z" fill-rule="evenodd"/>
 </g>
 <g transform="matrix(-.59314 0 0 -.23894 203.71 185.77)">
  <path d="m260.18 149.6c-4.8362 19.241-19.676 52.006-10.275 62.122 5.7065 4.6568 8.4221-4.8759 9.5723-11.187h0.23038l-3.7898 31.836 8.7775-0.09375s-3.7812-30.602-3.7898-31.773h0.09215c0.92901 5.157 4.4542 15.833 8.3321 11.767 11.339-11.397-5.358-43.83-9.1499-62.671z" fill-rule="evenodd"/>
 </g>
</svg>
