<?xml version="1.0" encoding="UTF-8" standalone="no"?>
<!DOCTYPE svg PUBLIC "-//W3C//DTD SVG 1.1//EN" "http://www.w3.org/Graphics/SVG/1.1/DTD/svg11.dtd">
<svg width="57px" height="56px" version="1.1" xmlns="http://www.w3.org/2000/svg" xmlns:xlink="http://www.w3.org/1999/xlink" xml:space="preserve" xmlns:serif="http://www.serif.com/" style="fill-rule:evenodd;clip-rule:evenodd;stroke-linejoin:round;stroke-miterlimit:2;">
    <g id="Layer0_119_FILL">
        <path d="M12.853,44.196C12.986,44.196 13.12,44.179 13.253,44.146L16.203,42.596C15.408,41.711 14.691,40.795 14.053,39.846L12.353,43.196C12.286,43.329 12.27,43.479 12.303,43.646C12.27,43.779 12.303,43.912 12.403,44.046C12.503,44.112 12.653,44.162 12.853,44.196M32.503,49.796C31.859,49.796 31.226,49.762 30.603,49.696L31.553,52.646C31.586,52.779 31.67,52.896 31.803,52.996C31.903,53.096 32.036,53.146 32.203,53.146C32.336,53.146 32.47,53.096 32.603,52.996C32.703,52.896 32.786,52.779 32.853,52.646L33.753,49.746C33.343,49.779 32.926,49.796 32.503,49.796M48.903,42.396C48.616,42.716 48.316,43.033 48.003,43.346C47.535,43.818 47.051,44.268 46.553,44.696L49.453,46.146C49.586,46.212 49.736,46.229 49.903,46.196C50.036,46.229 50.17,46.196 50.303,46.096C50.37,45.996 50.42,45.846 50.453,45.646C50.453,45.512 50.436,45.379 50.403,45.246L48.903,42.396Z" style="fill:rgb(226,217,174);fill-rule:nonzero;"/>
        <path d="M26.153,17.746C25.615,19 25.232,20.25 25.003,21.496C24.507,24.46 24.891,27.427 26.153,30.396C26.253,30.629 26.42,30.812 26.653,30.946C26.886,31.046 27.136,31.046 27.403,30.946C30.503,29.912 33.303,28.079 35.803,25.446C35.85,25.389 35.883,25.323 35.903,25.246C36.003,25.104 36.053,24.937 36.053,24.746L36.053,18.996C36.053,18.762 36.003,18.562 35.903,18.396C35.77,18.229 35.603,18.112 35.403,18.046C32.57,17.046 29.753,16.746 26.953,17.146C26.753,17.146 26.586,17.212 26.453,17.346C26.32,17.446 26.22,17.579 26.153,17.746M14.603,15.046L13.253,13.746C11.62,12.179 10.003,12.179 8.403,13.746L3.253,18.796C1.62,20.362 1.62,21.929 3.253,23.496L8.403,28.546C9.139,29.267 9.873,29.65 10.603,29.696C10.57,29.094 10.553,28.478 10.553,27.846C10.553,26.546 10.653,25.312 10.853,24.146C10.853,24.012 10.87,23.896 10.903,23.796C11.464,20.602 12.697,17.685 14.603,15.046M17.053,7.096C17.053,7.229 17.07,7.362 17.103,7.496L18.753,10.646C19.768,9.85 20.818,9.15 21.903,8.546L18.053,6.596C17.92,6.529 17.77,6.512 17.603,6.546C17.47,6.512 17.336,6.546 17.203,6.646C17.136,6.746 17.086,6.896 17.053,7.096M31.803,1.996C31.636,2.029 31.503,2.112 31.403,2.246C31.303,2.312 31.22,2.412 31.153,2.546L30.003,5.996C30.825,5.929 31.659,5.896 32.503,5.896L33.503,5.896L32.453,2.546C32.386,2.412 32.303,2.296 32.203,2.196C32.036,2.096 31.903,2.029 31.803,1.996M45.353,16.896C44.886,16.896 44.47,17.079 44.103,17.446C43.77,17.812 43.603,18.212 43.603,18.646C43.603,19.112 43.77,19.529 44.103,19.896C44.47,20.262 44.886,20.446 45.353,20.446C45.853,20.446 46.253,20.262 46.553,19.896C46.953,19.529 47.153,19.112 47.153,18.646C47.153,18.212 46.953,17.812 46.553,17.446C46.253,17.079 45.853,16.896 45.353,16.896M47.753,7.496C47.786,7.362 47.803,7.229 47.803,7.096C47.77,6.896 47.72,6.746 47.653,6.646C47.52,6.546 47.386,6.512 47.253,6.546C47.086,6.512 46.936,6.529 46.803,6.596L43.003,8.496C44.095,9.096 45.128,9.796 46.103,10.596L47.753,7.496Z" style="fill:rgb(161,110,57);fill-rule:nonzero;"/>
        <path d="M54.453,27.846C54.453,26.912 54.403,26.012 54.303,25.146C48.204,27.603 42.071,27.637 35.903,25.246C35.883,25.323 35.85,25.389 35.803,25.446C33.303,28.079 30.503,29.912 27.403,30.946C27.136,31.046 26.886,31.046 26.653,30.946C26.42,30.812 26.253,30.629 26.153,30.396C24.891,27.427 24.507,24.46 25.003,21.496C23.205,21.269 21.388,21.236 19.553,21.396C16.691,21.689 13.808,22.489 10.903,23.796C10.87,23.896 10.853,24.012 10.853,24.146C10.653,25.312 10.553,26.546 10.553,27.846C10.553,28.478 10.57,29.094 10.603,29.696C10.674,30.439 10.757,31.155 10.853,31.846C11.373,34.748 12.44,37.415 14.053,39.846C14.691,40.795 15.408,41.711 16.203,42.596C16.453,42.846 16.703,43.096 16.953,43.346C20.797,47.189 25.347,49.306 30.603,49.696C31.226,49.762 31.859,49.796 32.503,49.796C32.926,49.796 33.343,49.779 33.753,49.746C38.631,49.512 42.898,47.829 46.553,44.696C47.051,44.268 47.535,43.818 48.003,43.346C48.316,43.033 48.616,42.716 48.903,42.396C52.078,38.871 53.895,34.788 54.353,30.146C54.42,29.379 54.453,28.612 54.453,27.846Z" style="fill:rgb(238,228,183);fill-rule:nonzero;"/>
        <path d="M56.253,24.896C56.243,24.674 56.21,24.441 56.153,24.196L54.303,25.146C54.403,26.012 54.453,26.912 54.453,27.846C54.453,28.612 54.42,29.379 54.353,30.146C53.895,34.788 52.078,38.871 48.903,42.396L50.403,45.246C50.436,45.379 50.453,45.512 50.453,45.646C50.42,45.846 50.37,45.996 50.303,46.096C50.17,46.196 50.036,46.229 49.903,46.196C49.736,46.229 49.586,46.212 49.453,46.146L46.553,44.696C42.898,47.829 38.631,49.512 33.753,49.746L32.853,52.646C32.786,52.779 32.703,52.896 32.603,52.996C32.47,53.096 32.336,53.146 32.203,53.146C32.036,53.146 31.903,53.096 31.803,52.996C31.67,52.896 31.586,52.779 31.553,52.646L30.603,49.696C25.347,49.306 20.797,47.189 16.953,43.346C16.703,43.096 16.453,42.846 16.203,42.596L13.253,44.146C13.12,44.179 12.986,44.196 12.853,44.196C12.653,44.162 12.503,44.112 12.403,44.046C12.303,43.912 12.27,43.779 12.303,43.646C12.27,43.479 12.286,43.329 12.353,43.196L14.053,39.846C12.44,37.415 11.373,34.748 10.853,31.846L8.753,31.296C9.185,34.426 10.185,37.309 11.753,39.946L10.553,42.296C10.369,42.65 10.269,43.033 10.253,43.446C10.169,44.052 10.353,44.652 10.803,45.246C10.945,45.431 11.112,45.581 11.303,45.696C11.568,45.923 11.968,46.073 12.503,46.146C12.631,46.18 12.748,46.196 12.853,46.196C13.145,46.199 13.428,46.166 13.703,46.096C13.876,46.053 14.026,45.987 14.153,45.896L15.803,45.046C19.622,48.744 24.055,50.911 29.103,51.546L29.603,53.096C29.703,53.604 29.953,54.037 30.353,54.396C30.819,54.899 31.435,55.149 32.203,55.146C32.742,55.175 33.275,54.992 33.803,54.596C33.88,54.542 33.947,54.475 34.003,54.396C34.27,54.163 34.487,53.879 34.653,53.546C34.694,53.445 34.728,53.345 34.753,53.246L35.253,51.646C39.558,51.201 43.408,49.667 46.803,47.046L48.553,47.946C48.907,48.13 49.29,48.213 49.703,48.196C50.309,48.313 50.909,48.146 51.503,47.696C51.688,47.553 51.838,47.387 51.953,47.196C52.18,46.931 52.33,46.514 52.403,45.946C52.437,45.851 52.454,45.751 52.453,45.646C52.457,45.354 52.423,45.054 52.353,44.746C52.312,44.608 52.246,44.458 52.153,44.296L51.303,42.646C54.211,39.054 55.894,34.954 56.353,30.346L56.353,30.296C56.422,29.487 56.456,28.671 56.453,27.846C56.449,26.834 56.382,25.851 56.253,24.896Z" style="fill:rgb(173,165,133);fill-rule:nonzero;"/>
        <path d="M46.103,10.596C45.128,9.796 44.095,9.096 43.003,8.496C41.573,7.697 40.056,7.08 38.453,6.646C36.869,6.229 35.219,5.979 33.503,5.896L32.503,5.896C31.659,5.896 30.825,5.929 30.003,5.996C27.084,6.312 24.384,7.162 21.903,8.546C20.818,9.15 19.768,9.85 18.753,10.646C18.141,11.163 17.541,11.713 16.953,12.296C16.076,13.182 15.292,14.099 14.603,15.046C12.697,17.685 11.464,20.602 10.903,23.796C13.808,22.489 16.691,21.689 19.553,21.396C21.388,21.236 23.205,21.269 25.003,21.496C25.232,20.25 25.615,19 26.153,17.746C26.22,17.579 26.32,17.446 26.453,17.346C26.586,17.212 26.753,17.146 26.953,17.146C29.753,16.746 32.57,17.046 35.403,18.046C35.603,18.112 35.77,18.229 35.903,18.396C36.003,18.562 36.053,18.762 36.053,18.996L36.053,24.746C36.053,24.937 36.003,25.104 35.903,25.246C42.071,27.637 48.204,27.603 54.303,25.146C53.736,20.212 51.636,15.929 48.003,12.296C47.395,11.688 46.762,11.121 46.103,10.596M44.103,17.446C44.47,17.079 44.886,16.896 45.353,16.896C45.853,16.896 46.253,17.079 46.553,17.446C46.953,17.812 47.153,18.212 47.153,18.646C47.153,19.112 46.953,19.529 46.553,19.896C46.253,20.262 45.853,20.446 45.353,20.446C44.886,20.446 44.47,20.262 44.103,19.896C43.77,19.529 43.603,19.112 43.603,18.646C43.603,18.212 43.77,17.812 44.103,17.446Z" style="fill:rgb(196,134,71);fill-rule:nonzero;"/>
        <path d="M49.503,8.396C49.595,8.268 49.662,8.118 49.703,7.946C49.773,7.671 49.807,7.387 49.803,7.096C49.804,6.991 49.787,6.874 49.753,6.746C49.68,6.21 49.53,5.81 49.303,5.546C49.188,5.354 49.038,5.188 48.853,5.046C48.259,4.595 47.659,4.412 47.053,4.496C46.641,4.511 46.257,4.611 45.903,4.796L43.053,6.246C41.751,5.611 40.385,5.094 38.953,4.696C37.674,4.373 36.357,4.139 35.003,3.996L34.353,1.946C34.326,1.844 34.293,1.744 34.253,1.646C34.087,1.312 33.87,1.012 33.603,0.746C33.496,0.646 33.362,0.546 33.203,0.446C32.889,0.267 32.623,0.151 32.403,0.096C32.083,-0.012 31.749,-0.029 31.403,0.046C30.892,0.148 30.459,0.365 30.103,0.696C29.808,0.929 29.558,1.246 29.353,1.646C29.314,1.734 29.281,1.818 29.253,1.896L28.503,4.196C26.159,4.563 23.942,5.263 21.853,6.296L18.953,4.796C18.599,4.611 18.215,4.511 17.803,4.496C17.197,4.412 16.597,4.595 16.003,5.046C15.818,5.188 15.651,5.354 15.503,5.546C15.309,5.81 15.159,6.21 15.053,6.746C15.052,6.874 15.052,6.991 15.053,7.096C15.049,7.387 15.083,7.671 15.153,7.946C15.194,8.116 15.244,8.266 15.303,8.396L16.253,10.196C16.019,10.412 15.786,10.629 15.553,10.846L15.503,10.896C15.13,11.288 14.763,11.688 14.403,12.096C11.914,9.837 9.447,9.903 7.003,12.296L1.853,17.346C0.568,18.603 -0.049,19.869 0.003,21.146C-0.049,22.422 0.568,23.672 1.853,24.896L7.003,29.946C7.588,30.538 8.171,30.971 8.753,31.246L8.753,31.296L10.853,31.846C10.757,31.155 10.674,30.439 10.603,29.696C9.873,29.65 9.139,29.267 8.403,28.546L3.253,23.496C1.62,21.929 1.62,20.362 3.253,18.796L8.403,13.746C10.003,12.179 11.62,12.179 13.253,13.746L14.603,15.046C15.292,14.099 16.076,13.182 16.953,12.296C17.541,11.713 18.141,11.163 18.753,10.646L17.103,7.496C17.07,7.362 17.053,7.229 17.053,7.096C17.086,6.896 17.136,6.746 17.203,6.646C17.336,6.546 17.47,6.512 17.603,6.546C17.77,6.512 17.92,6.529 18.053,6.596L21.903,8.546C24.384,7.162 27.084,6.312 30.003,5.996L31.153,2.546C31.22,2.412 31.303,2.312 31.403,2.246C31.503,2.112 31.636,2.029 31.803,1.996C31.903,2.029 32.036,2.096 32.203,2.196C32.303,2.296 32.386,2.412 32.453,2.546L33.503,5.896C35.219,5.979 36.869,6.229 38.453,6.646C40.056,7.08 41.573,7.697 43.003,8.496L46.803,6.596C46.936,6.529 47.086,6.512 47.253,6.546C47.386,6.512 47.52,6.546 47.653,6.646C47.72,6.746 47.77,6.896 47.803,7.096C47.803,7.229 47.786,7.362 47.753,7.496L46.103,10.596C46.762,11.121 47.395,11.688 48.003,12.296C51.636,15.929 53.736,20.212 54.303,25.146L56.153,24.196C55.455,19.109 53.205,14.659 49.403,10.846C49.16,10.604 48.893,10.354 48.603,10.096L49.503,8.396Z" style="fill:rgb(119,81,41);fill-rule:nonzero;"/>
    </g>
</svg>
