<?xml version="1.0" encoding="UTF-8" standalone="no"?>
<!DOCTYPE svg PUBLIC "-//W3C//DTD SVG 1.1//EN" "http://www.w3.org/Graphics/SVG/1.1/DTD/svg11.dtd">
<svg width="58px" height="33px" version="1.1" xmlns="http://www.w3.org/2000/svg" xmlns:xlink="http://www.w3.org/1999/xlink" xml:space="preserve" xmlns:serif="http://www.serif.com/" style="fill-rule:evenodd;clip-rule:evenodd;stroke-linejoin:round;stroke-miterlimit:2;">
    <g id="Layer0_48_FILL">
        <path d="M9.844,0.85C10.444,0.285 11.21,0.002 12.144,0L12.194,0C20.876,0.073 28.592,2.556 35.344,7.45C35.377,7.507 35.427,7.557 35.494,7.6C36.085,8.134 36.435,8.701 36.544,9.3C36.645,9.616 36.695,9.933 36.694,10.25C36.676,10.311 36.676,10.361 36.694,10.4L36.744,10.3L39.094,7.8L39.094,7.85C40.315,6.505 41.565,5.871 42.844,5.95C44.426,5.926 45.96,6.476 47.444,7.6L47.394,7.55L54.794,12.7L54.744,12.65C56.706,13.927 57.606,15.26 57.444,16.65C57.601,18.06 56.701,19.41 54.744,20.7L54.794,20.7L47.394,25.8C45.924,26.82 44.408,27.32 42.844,27.3C41.816,27.356 40.799,26.973 39.794,26.15C39.83,26.636 39.713,27.119 39.444,27.6C39.14,28.447 38.59,29.03 37.794,29.35C32.473,32.249 26.156,33.333 18.844,32.6C18.088,32.571 17.421,32.254 16.844,31.65L16.944,31.75C16.399,31.312 16.049,30.712 15.894,29.95C13.932,29.644 12.098,29.044 10.394,28.15C10.379,28.157 10.362,28.157 10.344,28.15C9.951,27.942 9.585,27.725 9.244,27.5C9.188,27.493 9.138,27.476 9.094,27.45C8.056,26.715 6.923,25.815 5.694,24.75C0.672,20.59 -1.028,16.84 0.594,13.5L0.594,13.45C1.819,10.518 3.985,8.201 7.094,6.5C7.632,6.189 8.199,5.906 8.794,5.65L8.794,3.3C8.79,2.292 9.107,1.492 9.744,0.9C9.761,0.892 9.794,0.876 9.844,0.85M10.794,3.3L10.794,7.1C9.822,7.383 8.905,7.767 8.044,8.25C5.377,9.717 3.511,11.717 2.444,14.25C1.377,16.85 2.877,19.85 6.944,23.25C8.144,24.25 9.244,25.1 10.244,25.8C10.577,26 10.927,26.2 11.294,26.4C13.221,27.387 15.321,27.97 17.594,28.15L17.794,29.45C17.861,29.783 18.011,30.05 18.244,30.25C18.477,30.483 18.744,30.6 19.044,30.6C25.977,31.3 31.961,30.283 36.994,27.55C37.294,27.417 37.494,27.183 37.594,26.85C37.761,26.583 37.794,26.333 37.694,26.1L36.994,22.5C37.379,22.185 37.729,21.852 38.044,21.5L40.544,24.15C41.311,24.917 42.077,25.3 42.844,25.3C44.011,25.3 45.144,24.917 46.244,24.15L53.644,19.05C56.044,17.45 56.044,15.883 53.644,14.35L46.244,9.2C45.144,8.367 44.011,7.95 42.844,7.95C42.077,7.95 41.311,8.367 40.544,9.2L37.194,12.8C36.374,12.293 35.391,11.843 34.244,11.45L34.544,10.75C34.677,10.417 34.694,10.117 34.594,9.85C34.561,9.583 34.411,9.333 34.144,9.1C27.744,4.433 20.411,2.067 12.144,2C11.744,2 11.411,2.117 11.144,2.35C10.911,2.583 10.794,2.9 10.794,3.3Z" style="fill:rgb(163,96,0);fill-rule:nonzero;"/>
        <path d="M36.994,22.5L37.694,26.1C37.794,26.333 37.761,26.583 37.594,26.85C37.494,27.183 37.294,27.417 36.994,27.55C31.961,30.283 25.977,31.3 19.044,30.6C18.744,30.6 18.477,30.483 18.244,30.25C18.011,30.05 17.861,29.783 17.794,29.45L17.594,28.15C18.626,28.256 19.693,28.273 20.794,28.2C25.361,27.8 29.361,26.767 32.794,25.1C34.491,24.283 35.891,23.416 36.994,22.5M21.144,7.3C20.844,7.2 20.544,7.133 20.244,7.1C16.66,6.314 13.51,6.314 10.794,7.1L10.794,3.3C10.794,2.9 10.911,2.583 11.144,2.35C11.411,2.117 11.744,2 12.144,2C20.411,2.067 27.744,4.433 34.144,9.1C34.411,9.333 34.561,9.583 34.594,9.85C34.694,10.117 34.677,10.417 34.544,10.75L34.244,11.45C34.138,11.414 34.038,11.38 33.944,11.35C29.844,10.017 25.911,8.767 22.144,7.6C21.777,7.5 21.444,7.4 21.144,7.3Z" style="fill:rgb(252,178,69);fill-rule:nonzero;"/>
        <path d="M40.544,9.2C41.311,8.367 42.077,7.95 42.844,7.95C44.011,7.95 45.144,8.367 46.244,9.2L53.644,14.35C56.044,15.883 56.044,17.45 53.644,19.05L46.244,24.15C45.144,24.917 44.011,25.3 42.844,25.3C42.077,25.3 41.311,24.917 40.544,24.15L38.044,21.5C39.195,20.277 39.812,18.977 39.894,17.6C40.009,15.648 39.109,14.048 37.194,12.8L40.544,9.2M8.044,8.25C8.905,7.767 9.822,7.383 10.794,7.1C13.51,6.314 16.66,6.314 20.244,7.1C20.26,10.57 19.61,13.836 18.294,16.9C16.801,20.324 14.468,23.49 11.294,26.4C10.927,26.2 10.577,26 10.244,25.8C9.244,25.1 8.144,24.25 6.944,23.25C2.877,19.85 1.377,16.85 2.444,14.25C3.511,11.717 5.377,9.717 8.044,8.25M7.744,17.65C8.044,18.017 8.444,18.2 8.944,18.2C9.411,18.2 9.827,18.017 10.194,17.65C10.527,17.283 10.694,16.867 10.694,16.4C10.694,15.967 10.527,15.567 10.194,15.2C9.827,14.833 9.411,14.65 8.944,14.65C8.444,14.65 8.044,14.833 7.744,15.2C7.344,15.567 7.144,15.967 7.144,16.4C7.144,16.867 7.344,17.283 7.744,17.65M32.244,21.6C32.144,21.767 32.011,21.883 31.844,21.95C29.077,23.417 26.077,24.383 22.844,24.85C22.611,24.85 22.394,24.8 22.194,24.7C22.061,24.6 21.961,24.45 21.894,24.25L20.944,21.4C20.911,21.233 20.894,21.083 20.894,20.95C20.994,20.75 21.111,20.6 21.244,20.5C21.411,20.367 21.561,20.317 21.694,20.35C24.827,20.183 27.927,19.633 30.994,18.7L31.444,18.7C31.611,18.767 31.744,18.867 31.844,19C31.944,19.1 32.027,19.233 32.094,19.4L32.294,21.1C32.327,21.3 32.311,21.467 32.244,21.6Z" style="fill:rgb(236,141,0);fill-rule:nonzero;"/>
        <path d="M8.944,18.2C8.444,18.2 8.044,18.017 7.744,17.65C7.344,17.283 7.144,16.867 7.144,16.4C7.144,15.967 7.344,15.567 7.744,15.2C8.044,14.833 8.444,14.65 8.944,14.65C9.411,14.65 9.827,14.833 10.194,15.2C10.527,15.567 10.694,15.967 10.694,16.4C10.694,16.867 10.527,17.283 10.194,17.65C9.827,18.017 9.411,18.2 8.944,18.2Z" style="fill:rgb(205,123,0);fill-rule:nonzero;"/>
        <path d="M20.244,7.1C20.544,7.133 20.844,7.2 21.144,7.3C21.444,7.4 21.777,7.5 22.144,7.6C25.911,8.767 29.844,10.017 33.944,11.35C34.038,11.38 34.138,11.414 34.244,11.45C35.391,11.843 36.374,12.293 37.194,12.8C39.109,14.048 40.009,15.648 39.894,17.6C39.812,18.977 39.195,20.277 38.044,21.5C37.729,21.852 37.379,22.185 36.994,22.5C35.891,23.416 34.491,24.283 32.794,25.1C29.361,26.767 25.361,27.8 20.794,28.2C19.693,28.273 18.626,28.256 17.594,28.15C15.321,27.97 13.221,27.387 11.294,26.4C14.468,23.49 16.801,20.324 18.294,16.9C19.61,13.836 20.26,10.57 20.244,7.1M31.844,21.95C32.011,21.883 32.144,21.767 32.244,21.6C32.311,21.467 32.327,21.3 32.294,21.1L32.094,19.4C32.027,19.233 31.944,19.1 31.844,19C31.744,18.867 31.611,18.767 31.444,18.7L30.994,18.7C27.927,19.633 24.827,20.183 21.694,20.35C21.561,20.317 21.411,20.367 21.244,20.5C21.111,20.6 20.994,20.75 20.894,20.95C20.894,21.083 20.911,21.233 20.944,21.4L21.894,24.25C21.961,24.45 22.061,24.6 22.194,24.7C22.394,24.8 22.611,24.85 22.844,24.85C26.077,24.383 29.077,23.417 31.844,21.95Z" style="fill:rgb(255,153,0);fill-rule:nonzero;"/>
    </g>
</svg>
