<?xml version="1.0" encoding="UTF-8" standalone="no"?>
<!DOCTYPE svg PUBLIC "-//W3C//DTD SVG 1.1//EN" "http://www.w3.org/Graphics/SVG/1.1/DTD/svg11.dtd">
<svg width="50px" height="26px" version="1.1" xmlns="http://www.w3.org/2000/svg" xmlns:xlink="http://www.w3.org/1999/xlink" xml:space="preserve" xmlns:serif="http://www.serif.com/" style="fill-rule:evenodd;clip-rule:evenodd;stroke-linejoin:round;stroke-miterlimit:2;">
    <g id="Layer0_58_FILL">
        <path d="M23.634,1.766C23.986,1.683 24.336,1.7 24.684,1.816C25.617,2.116 26.55,2.416 27.484,2.716C27.97,2.868 28.353,3.151 28.634,3.566C28.761,3.824 28.844,4.074 28.884,4.316C29.131,4.067 29.431,3.883 29.784,3.766C30.158,3.672 30.541,3.672 30.934,3.766C32.134,4.158 33.35,4.558 34.584,4.966C35.03,5.127 35.38,5.41 35.634,5.816C35.799,6.102 35.899,6.385 35.934,6.666L39.084,3.316C40.312,2.005 41.562,1.388 42.834,1.466C44.406,1.442 45.94,1.975 47.434,3.066L47.434,3.116L48.834,4.116C49.326,4.372 49.659,4.755 49.834,5.266C50.011,5.805 49.978,6.321 49.734,6.816C49.7,6.883 49.667,6.949 49.634,7.016C49.574,7.121 49.508,7.221 49.434,7.316C46.782,10.888 46.482,14.572 48.534,18.366C48.785,18.826 48.851,19.309 48.734,19.816C48.588,20.322 48.305,20.705 47.884,20.966L47.334,21.316L47.384,21.316C45.914,22.336 44.398,22.836 42.834,22.816C41.576,22.885 40.343,22.301 39.134,21.066C39.11,21.064 39.093,21.047 39.084,21.016L36.584,18.366C36.216,17.997 36.033,17.547 36.034,17.016C36.033,16.826 36.067,16.642 36.134,16.466L34.434,16.516L33.684,21.416C33.613,21.756 33.48,22.056 33.284,22.316C33.06,22.6 32.794,22.8 32.484,22.916C31.171,23.503 29.788,24.003 28.334,24.416C27.894,24.561 27.461,24.544 27.034,24.366C26.599,24.188 26.266,23.888 26.034,23.466C25.809,23.085 25.742,22.668 25.834,22.216L26.634,16.916L26.584,16.916L25.284,23.766C25.186,24.19 24.986,24.54 24.684,24.816C24.38,25.128 24.03,25.312 23.634,25.366C22.761,25.527 21.861,25.643 20.934,25.716L20.884,25.716C20.184,25.75 19.484,25.767 18.784,25.766C18.365,25.77 17.982,25.653 17.634,25.416C17.292,25.168 17.059,24.835 16.934,24.416C16.773,24.038 16.757,23.638 16.884,23.216L18.484,17.266L17.884,17.316C16.468,19.438 14.718,21.455 12.634,23.366C12.32,23.669 11.954,23.836 11.534,23.866C11.11,23.937 10.71,23.87 10.334,23.666C9.941,23.458 9.574,23.241 9.234,23.016C9.178,23.009 9.128,22.992 9.084,22.966C8.046,22.231 6.912,21.331 5.684,20.266C5.24,19.932 4.84,19.599 4.484,19.266C0.416,15.511 -0.884,12.094 0.584,9.016L0.584,8.966C1.446,6.91 2.779,5.16 4.584,3.716L4.534,3.716C5.306,3.08 6.156,2.514 7.084,2.016C8.06,1.489 9.094,1.055 10.184,0.716L10.234,0.666C13.202,-0.222 16.686,-0.222 20.684,0.666C21.123,0.767 21.489,1.001 21.784,1.366C22.081,1.733 22.231,2.149 22.234,2.616C22.233,2.739 22.233,2.856 22.234,2.966C22.33,2.719 22.48,2.485 22.684,2.266C22.955,2.02 23.271,1.853 23.634,1.766M18.484,11.916C19.65,8.983 20.234,5.883 20.234,2.616C16.634,1.816 13.484,1.816 10.784,2.616C9.817,2.916 8.9,3.299 8.034,3.766C7.234,4.199 6.5,4.699 5.834,5.266C4.3,6.499 3.167,7.999 2.434,9.766C1.467,12.133 2.6,14.816 5.834,17.816C6.167,18.116 6.534,18.433 6.934,18.766C8.134,19.766 9.234,20.616 10.234,21.316C10.567,21.516 10.917,21.716 11.284,21.916C13.517,19.849 15.334,17.666 16.734,15.366L21.084,15.166L18.784,23.766C19.45,23.766 20.117,23.749 20.784,23.716C21.65,23.649 22.484,23.549 23.284,23.416L24.884,14.966L28.984,14.816L27.784,22.516C29.15,22.116 30.45,21.649 31.684,21.116L32.684,14.616L39.684,14.316C39.417,15.249 38.867,16.149 38.034,17.016L40.534,19.666C41.3,20.433 42.067,20.816 42.834,20.816C44,20.816 45.134,20.433 46.234,19.666L46.784,19.316C44.317,14.783 44.667,10.383 47.834,6.116C47.867,6.049 47.9,5.983 47.934,5.916L47.834,5.866L46.234,4.716C45.134,3.883 44,3.466 42.834,3.466C42.067,3.466 41.3,3.883 40.534,4.716L37.134,8.316C38.667,9.283 39.55,10.483 39.784,11.916L33.134,11.916L33.934,6.866C32.734,6.466 31.534,6.083 30.334,5.716L29.384,11.916L25.484,11.916L26.884,4.616C25.95,4.316 25.017,4.016 24.084,3.716L21.934,11.916L18.484,11.916M7.134,11.916C7.134,11.483 7.334,11.083 7.734,10.716C8.034,10.349 8.434,10.166 8.934,10.166C9.4,10.166 9.817,10.349 10.184,10.716C10.517,11.083 10.684,11.483 10.684,11.916C10.684,12.383 10.517,12.799 10.184,13.166C9.817,13.533 9.4,13.716 8.934,13.716C8.434,13.716 8.034,13.533 7.734,13.166C7.334,12.799 7.134,12.383 7.134,11.916Z" style="fill:rgb(163,156,125);fill-rule:nonzero;"/>
        <path d="M33.134,11.916L39.784,11.916C39.884,12.316 39.917,12.716 39.884,13.116C39.85,13.516 39.784,13.916 39.684,14.316L32.684,14.616L33.134,11.916M25.484,11.916L29.384,11.916L28.984,14.816L24.884,14.966L25.484,11.916M18.484,11.916L21.934,11.916L21.084,15.166L16.734,15.366C17.334,14.399 17.85,13.416 18.284,12.416C18.35,12.249 18.417,12.083 18.484,11.916Z" style="fill:rgb(194,185,149);fill-rule:nonzero;"/>
        <path d="M33.934,6.866L33.134,11.916L32.684,14.616L31.684,21.116C30.45,21.649 29.15,22.116 27.784,22.516L28.984,14.816L29.384,11.916L30.334,5.716C31.534,6.083 32.734,6.466 33.934,6.866M46.234,4.716L47.834,5.866L47.934,5.916C47.9,5.983 47.867,6.049 47.834,6.116C44.667,10.383 44.317,14.783 46.784,19.316L46.234,19.666C45.134,20.433 44,20.816 42.834,20.816C42.067,20.816 41.3,20.433 40.534,19.666L38.034,17.016C38.867,16.149 39.417,15.249 39.684,14.316C39.784,13.916 39.85,13.516 39.884,13.116C39.917,12.716 39.884,12.316 39.784,11.916C39.55,10.483 38.667,9.283 37.134,8.316L40.534,4.716C41.3,3.883 42.067,3.466 42.834,3.466C44,3.466 45.134,3.883 46.234,4.716M21.934,11.916L24.084,3.716C25.017,4.016 25.95,4.316 26.884,4.616L25.484,11.916L24.884,14.966L23.284,23.416C22.484,23.549 21.65,23.649 20.784,23.716C20.117,23.749 19.45,23.766 18.784,23.766L21.084,15.166L21.934,11.916M20.234,2.616C20.234,5.883 19.65,8.983 18.484,11.916C18.417,12.083 18.35,12.249 18.284,12.416C17.85,13.416 17.334,14.399 16.734,15.366C15.334,17.666 13.517,19.849 11.284,21.916C10.917,21.716 10.567,21.516 10.234,21.316C9.234,20.616 8.134,19.766 6.934,18.766C6.534,18.433 6.167,18.116 5.834,17.816C2.6,14.816 1.467,12.133 2.434,9.766C3.167,7.999 4.3,6.499 5.834,5.266C6.5,4.699 7.234,4.199 8.034,3.766C8.9,3.299 9.817,2.916 10.784,2.616C13.484,1.816 16.634,1.816 20.234,2.616M7.734,10.716C7.334,11.083 7.134,11.483 7.134,11.916C7.134,12.383 7.334,12.799 7.734,13.166C8.034,13.533 8.434,13.716 8.934,13.716C9.4,13.716 9.817,13.533 10.184,13.166C10.517,12.799 10.684,12.383 10.684,11.916C10.684,11.483 10.517,11.083 10.184,10.716C9.817,10.349 9.4,10.166 8.934,10.166C8.434,10.166 8.034,10.349 7.734,10.716Z" style="fill:rgb(238,228,183);fill-rule:nonzero;"/>
    </g>
</svg>
