<?xml version="1.0" encoding="UTF-8" standalone="no"?>
<!DOCTYPE svg PUBLIC "-//W3C//DTD SVG 1.1//EN" "http://www.w3.org/Graphics/SVG/1.1/DTD/svg11.dtd">
<svg width="60px" height="48px" version="1.1" xmlns="http://www.w3.org/2000/svg" xmlns:xlink="http://www.w3.org/1999/xlink" xml:space="preserve" xmlns:serif="http://www.serif.com/" style="fill-rule:evenodd;clip-rule:evenodd;stroke-linejoin:round;stroke-miterlimit:2;">
    <g>
        <path d="M10.2,0.9C10.842,0.298 11.642,-0.002 12.6,0L12.65,0C22.566,0.072 31.366,2.905 39.05,8.5C39.05,8.535 39.066,8.552 39.1,8.55C39.816,9.132 40.233,9.816 40.35,10.6C40.506,11.243 40.456,11.926 40.2,12.65C40.16,12.725 40.127,12.792 40.1,12.85L39.15,14.85C39.759,15.231 40.325,15.615 40.85,16L43.45,13.8L43.45,13.75C45.098,12.308 46.798,11.608 48.55,11.65C49.936,11.525 51.32,12.325 52.7,14.05C52.691,14.069 52.691,14.086 52.7,14.1L58,21.1L58,21.05C60.298,23.962 60.298,26.912 58,29.9L52.7,36.85C52.675,36.882 52.658,36.898 52.65,36.9C51.28,38.537 49.913,39.303 48.55,39.2C46.807,39.23 45.124,38.547 43.5,37.15L43.45,37.15L41.25,35.3C40.338,35.953 39.321,36.586 38.2,37.2L38.65,39.5C38.981,40.259 38.898,41.059 38.4,41.9C38.109,42.657 37.592,43.224 36.85,43.6L36.9,43.55C30.879,46.82 23.729,48.053 15.45,47.25C14.699,47.177 14.032,46.877 13.45,46.35C12.815,45.835 12.432,45.118 12.3,44.2L12.15,43.4C11.668,43.434 11.185,43.451 10.7,43.45L9.45,43.45C9.395,43.452 9.345,43.452 9.3,43.45C6.656,43.366 4.406,41.466 2.55,37.75C0.853,34.472 0.003,30.489 0,25.8C-0.004,21.079 0.83,17.062 2.5,13.75L2.55,13.7C4.309,10.282 6.409,8.432 8.85,8.15C8.933,8.16 9.017,8.16 9.1,8.15L9.1,3.45C9.096,2.423 9.43,1.589 10.1,0.95C10.117,0.943 10.15,0.926 10.2,0.9M11.5,2.4C11.233,2.667 11.1,3.017 11.1,3.45L11.1,10.15L10.7,10.15C10.4,10.117 10.083,10.1 9.75,10.1L9.45,10.1L9.45,10.15C7.483,10.317 5.767,11.817 4.3,14.65C2.767,17.717 2,21.433 2,25.8C2,30.133 2.767,33.817 4.3,36.85C5.767,39.75 7.483,41.283 9.45,41.45L10.7,41.45C11.367,41.45 12.033,41.433 12.7,41.4C13.084,41.384 13.467,41.367 13.85,41.35L14.25,43.9C14.317,44.3 14.483,44.617 14.75,44.85C15.017,45.083 15.317,45.217 15.65,45.25C23.483,46.017 30.25,44.867 35.95,41.8C36.283,41.633 36.5,41.367 36.6,41C36.8,40.7 36.85,40.417 36.75,40.15L35.95,36.1C38.12,35.039 39.886,33.905 41.25,32.7L44.75,35.65C45.983,36.683 47.25,37.2 48.55,37.2C49.383,37.2 50.233,36.683 51.1,35.65L56.4,28.7C58.067,26.533 58.067,24.4 56.4,22.3L51.1,15.3C50.233,14.2 49.383,13.65 48.55,13.65C47.25,13.65 45.983,14.2 44.75,15.3L40.95,18.55C39.747,17.563 38.281,16.613 36.55,15.7L38.3,12C38.433,11.633 38.45,11.3 38.35,11C38.317,10.667 38.15,10.383 37.85,10.15C30.517,4.783 22.1,2.067 12.6,2C12.167,2 11.8,2.133 11.5,2.4Z" style="fill:rgb(135,42,33);fill-rule:nonzero;"/>
        <path d="M48.55,13.65C49.383,13.65 50.233,14.2 51.1,15.3L56.4,22.3C58.067,24.4 58.067,26.533 56.4,28.7L51.1,35.65C50.233,36.683 49.383,37.2 48.55,37.2C47.25,37.2 45.983,36.683 44.75,35.65L41.25,32.7C43.617,30.617 44.8,28.317 44.8,25.8C44.8,23.149 43.517,20.732 40.95,18.55L44.75,15.3C45.983,14.2 47.25,13.65 48.55,13.65M13.85,41.35C14.283,41.334 14.716,41.317 15.15,41.3C22.383,40.733 28.767,39.25 34.3,36.85C34.87,36.603 35.42,36.353 35.95,36.1L36.75,40.15C36.85,40.417 36.8,40.7 36.6,41C36.5,41.367 36.283,41.633 35.95,41.8C30.25,44.867 23.483,46.017 15.65,45.25C15.317,45.217 15.017,45.083 14.75,44.85C14.483,44.617 14.317,44.3 14.25,43.9L13.85,41.35M6.45,24C6.017,23.633 5.8,23.183 5.8,22.65C5.8,22.15 6.017,21.7 6.45,21.3C6.783,20.9 7.233,20.7 7.8,20.7C8.3,20.7 8.75,20.9 9.15,21.3C9.517,21.7 9.7,22.15 9.7,22.65C9.7,23.183 9.517,23.633 9.15,24C8.75,24.433 8.3,24.65 7.8,24.65C7.233,24.65 6.783,24.433 6.45,24M20.55,26.5C20.783,26.3 21.033,26.217 21.3,26.25C26.567,25.983 31.8,25.067 37,23.5C37.3,23.467 37.567,23.467 37.8,23.5C38.067,23.6 38.3,23.75 38.5,23.95C38.667,24.15 38.8,24.383 38.9,24.65L39.25,27.55C39.283,27.883 39.25,28.167 39.15,28.4C38.983,28.667 38.767,28.867 38.5,29C33.767,31.433 28.667,33.05 23.2,33.85C22.8,33.883 22.45,33.8 22.15,33.6C21.883,33.467 21.717,33.217 21.65,32.85L20,28.05C19.933,27.783 19.917,27.517 19.95,27.25C20.117,26.95 20.317,26.7 20.55,26.5M36.55,15.7C35.849,15.35 35.099,15 34.3,14.65C28.767,12.283 22.383,10.85 15.15,10.35C14.317,10.283 13.5,10.233 12.7,10.2C12.167,10.173 11.633,10.157 11.1,10.15L11.1,3.45C11.1,3.017 11.233,2.667 11.5,2.4C11.8,2.133 12.167,2 12.6,2C22.1,2.067 30.517,4.783 37.85,10.15C38.15,10.383 38.317,10.667 38.35,11C38.45,11.3 38.433,11.633 38.3,12L36.55,15.7Z" style="fill:rgb(191,61,49);fill-rule:nonzero;"/>
        <path d="M12.7,10.2C13.5,10.233 14.317,10.283 15.15,10.35C15.705,13.023 16.121,15.673 16.4,18.3C16.994,24.048 16.927,29.698 16.2,35.25C15.938,37.284 15.588,39.3 15.15,41.3C14.716,41.317 14.283,41.334 13.85,41.35C13.467,41.367 13.084,41.384 12.7,41.4C12.033,41.433 11.367,41.45 10.7,41.45L9.45,41.45C7.483,41.283 5.767,39.75 4.3,36.85C2.767,33.817 2,30.133 2,25.8C2,21.433 2.767,17.717 4.3,14.65C5.767,11.817 7.483,10.317 9.45,10.15L9.45,10.1L9.75,10.1C10.083,10.1 10.4,10.117 10.7,10.15L11.1,10.15C11.633,10.157 12.167,10.173 12.7,10.2M5.8,22.65C5.8,23.183 6.017,23.633 6.45,24C6.783,24.433 7.233,24.65 7.8,24.65C8.3,24.65 8.75,24.433 9.15,24C9.517,23.633 9.7,23.183 9.7,22.65C9.7,22.15 9.517,21.7 9.15,21.3C8.75,20.9 8.3,20.7 7.8,20.7C7.233,20.7 6.783,20.9 6.45,21.3C6.017,21.7 5.8,22.15 5.8,22.65Z" style="fill:rgb(245,80,63);fill-rule:nonzero;"/>
        <path d="M34.3,14.65C35.099,15 35.849,15.35 36.55,15.7C38.281,16.613 39.747,17.563 40.95,18.55C43.517,20.732 44.8,23.149 44.8,25.8C44.8,28.317 43.617,30.617 41.25,32.7C39.886,33.905 38.12,35.039 35.95,36.1C35.42,36.353 34.87,36.603 34.3,36.85C28.767,39.25 22.383,40.733 15.15,41.3C15.588,39.3 15.938,37.284 16.2,35.25C16.927,29.698 16.994,24.048 16.4,18.3C16.121,15.673 15.705,13.023 15.15,10.35C22.383,10.85 28.767,12.283 34.3,14.65M21.3,26.25C21.033,26.217 20.783,26.3 20.55,26.5C20.317,26.7 20.117,26.95 19.95,27.25C19.917,27.517 19.933,27.783 20,28.05L21.65,32.85C21.717,33.217 21.883,33.467 22.15,33.6C22.45,33.8 22.8,33.883 23.2,33.85C28.667,33.05 33.767,31.433 38.5,29C38.767,28.867 38.983,28.667 39.15,28.4C39.25,28.167 39.283,27.883 39.25,27.55L38.9,24.65C38.8,24.383 38.667,24.15 38.5,23.95C38.3,23.75 38.067,23.6 37.8,23.5C37.567,23.467 37.3,23.467 37,23.5C31.8,25.067 26.567,25.983 21.3,26.25Z" style="fill:rgb(231,76,60);fill-rule:nonzero;"/>
    </g>
</svg>
