<?xml version="1.0" encoding="UTF-8" standalone="no"?>
<!DOCTYPE svg PUBLIC "-//W3C//DTD SVG 1.1//EN" "http://www.w3.org/Graphics/SVG/1.1/DTD/svg11.dtd">
<svg width="59px" height="42px" version="1.1" xmlns="http://www.w3.org/2000/svg" xmlns:xlink="http://www.w3.org/1999/xlink" xml:space="preserve" xmlns:serif="http://www.serif.com/" style="fill-rule:evenodd;clip-rule:evenodd;stroke-linejoin:round;stroke-miterlimit:2;">
    <g id="Layer0_42_FILL">
        <path d="M48.454,3.3C48.454,2.3 48.154,1.517 47.554,0.95C47.488,0.917 47.454,0.883 47.454,0.85C46.821,0.283 46.038,0 45.104,0C36.104,0.033 28.138,2.617 21.204,7.75L21.154,7.75C20.488,8.25 20.071,8.9 19.904,9.7C19.738,10.333 19.771,10.983 20.004,11.65C20.038,11.717 20.071,11.783 20.104,11.85L20.854,13.45C20.221,13.817 19.638,14.217 19.104,14.65L17.204,12.8L17.204,12.75C14.271,9.917 11.354,9.933 8.454,12.8L2.104,19L2.104,18.95C0.638,20.383 -0.062,21.833 0.004,23.3C-0.062,24.767 0.638,26.217 2.104,27.65L8.454,33.85C11.354,36.683 14.271,36.683 17.204,33.85L19.104,31.95C20.171,32.75 21.454,33.517 22.954,34.25C23.788,34.683 24.671,35.083 25.604,35.45C25.538,36.017 25.671,36.583 26.004,37.15C26.271,37.817 26.721,38.317 27.354,38.65L27.404,38.65C32.504,41.383 38.554,42.433 45.554,41.8L45.604,41.8C46.304,41.733 46.921,41.467 47.454,41C47.488,40.933 47.538,40.9 47.604,40.9C48.038,40.433 48.338,39.85 48.504,39.15C48.504,39.083 48.521,39.033 48.554,39L48.854,37.05C50.554,36.317 52.104,35.267 53.504,33.9C56.504,30.967 58.004,27.433 58.004,23.3C58.004,19.133 56.504,15.6 53.504,12.7C51.971,11.2 50.288,10.1 48.454,9.4L48.454,3.3M45.104,2C45.504,2 45.838,2.117 46.104,2.35C46.338,2.583 46.454,2.9 46.454,3.3L46.454,10.8C48.554,11.4 50.438,12.5 52.104,14.1C54.704,16.633 56.004,19.7 56.004,23.3C56.004,26.867 54.704,29.917 52.104,32.45C50.604,33.95 48.921,35 47.054,35.6L46.554,38.7C46.488,39 46.354,39.25 46.154,39.45C45.921,39.65 45.654,39.767 45.354,39.8C38.788,40.4 33.104,39.417 28.304,36.85C28.038,36.717 27.854,36.5 27.754,36.2C27.588,35.967 27.538,35.717 27.604,35.45L27.904,34.15C26.471,33.65 25.104,33.083 23.804,32.45C21.804,31.483 20.204,30.433 19.004,29.3L15.804,32.4C13.804,34.333 11.821,34.333 9.854,32.4L3.504,26.2C1.504,24.267 1.504,22.333 3.504,20.4L9.854,14.2C11.821,12.267 13.804,12.267 15.804,14.2L18.954,17.3C20.121,16.233 21.621,15.233 23.454,14.3L21.904,11C21.804,10.7 21.788,10.4 21.854,10.1C21.921,9.8 22.088,9.55 22.354,9.35C28.954,4.483 36.538,2.033 45.104,2Z" style="fill:rgb(27,126,68);fill-rule:nonzero;"/>
        <path d="M18.954,17.3L15.804,14.2C13.804,12.267 11.821,12.267 9.854,14.2L3.504,20.4C1.504,22.333 1.504,24.267 3.504,26.2L9.854,32.4C11.821,34.333 13.804,34.333 15.804,32.4L19.004,29.3C17.071,27.467 16.104,25.467 16.104,23.3C16.104,21.1 17.054,19.1 18.954,17.3M42.904,36.25L42.504,36.25C41.038,36.25 39.638,36.217 38.304,36.15C34.504,35.85 31.038,35.183 27.904,34.15L27.604,35.45C27.538,35.717 27.588,35.967 27.754,36.2C27.854,36.5 28.038,36.717 28.304,36.85C33.104,39.417 38.788,40.4 45.354,39.8C45.654,39.767 45.921,39.65 46.154,39.45C46.354,39.25 46.488,39 46.554,38.7L47.054,35.6C45.754,36.033 44.371,36.25 42.904,36.25M39.304,25.2C37.438,25.1 35.588,24.917 33.754,24.65C30.821,24.217 27.904,23.567 25.004,22.7C24.738,22.633 24.488,22.633 24.254,22.7C23.988,22.767 23.771,22.9 23.604,23.1C23.438,23.267 23.338,23.483 23.304,23.75L22.954,26.45C22.921,26.717 22.954,26.95 23.054,27.15C23.154,27.417 23.338,27.6 23.604,27.7C27.304,29.633 31.271,31 35.504,31.8C36.171,31.9 36.854,32 37.554,32.1C37.888,32.133 38.188,32.067 38.454,31.9C38.721,31.767 38.904,31.55 39.004,31.25L40.454,26.85C40.521,26.583 40.538,26.333 40.504,26.1C40.371,25.833 40.204,25.617 40.004,25.45C39.771,25.283 39.538,25.2 39.304,25.2M46.104,2.35C45.838,2.117 45.504,2 45.104,2C36.538,2.033 28.954,4.483 22.354,9.35C22.088,9.55 21.921,9.8 21.854,10.1C21.788,10.4 21.804,10.7 21.904,11L23.454,14.3C23.554,14.233 23.671,14.167 23.804,14.1C27.704,12.2 32.204,11.017 37.304,10.55C38.971,10.383 40.704,10.3 42.504,10.3L42.904,10.3C44.138,10.333 45.321,10.5 46.454,10.8L46.454,3.3C46.454,2.9 46.338,2.583 46.104,2.35Z" style="fill:rgb(44,198,109);fill-rule:nonzero;"/>
        <path d="M33.754,24.65C33.688,24.017 33.654,23.367 33.654,22.7C33.654,21.2 33.788,19.767 34.054,18.4C34.554,15.467 35.638,12.85 37.304,10.55C32.204,11.017 27.704,12.2 23.804,14.1C23.671,14.167 23.554,14.233 23.454,14.3C21.621,15.233 20.121,16.233 18.954,17.3C17.054,19.1 16.104,21.1 16.104,23.3C16.104,25.467 17.071,27.467 19.004,29.3C20.204,30.433 21.804,31.483 23.804,32.45C25.104,33.083 26.471,33.65 27.904,34.15C31.038,35.183 34.504,35.85 38.304,36.15C38.104,35.883 37.904,35.633 37.704,35.4C36.838,34.267 36.104,33.067 35.504,31.8C31.271,31 27.304,29.633 23.604,27.7C23.338,27.6 23.154,27.417 23.054,27.15C22.954,26.95 22.921,26.717 22.954,26.45L23.304,23.75C23.338,23.483 23.438,23.267 23.604,23.1C23.771,22.9 23.988,22.767 24.254,22.7C24.488,22.633 24.738,22.633 25.004,22.7C27.904,23.567 30.821,24.217 33.754,24.65Z" style="fill:rgb(39,174,96);fill-rule:nonzero;"/>
        <path d="M42.904,10.3L42.504,10.3C40.704,10.3 38.971,10.383 37.304,10.55C35.638,12.85 34.554,15.467 34.054,18.4C33.788,19.767 33.654,21.2 33.654,22.7C33.654,23.367 33.688,24.017 33.754,24.65C35.588,24.917 37.438,25.1 39.304,25.2C39.538,25.2 39.771,25.283 40.004,25.45C40.204,25.617 40.371,25.833 40.504,26.1C40.538,26.333 40.521,26.583 40.454,26.85L39.004,31.25C38.904,31.55 38.721,31.767 38.454,31.9C38.188,32.067 37.888,32.133 37.554,32.1C36.854,32 36.171,31.9 35.504,31.8C36.104,33.067 36.838,34.267 37.704,35.4C37.904,35.633 38.104,35.883 38.304,36.15C39.638,36.217 41.038,36.25 42.504,36.25L42.904,36.25C44.371,36.25 45.754,36.033 47.054,35.6C48.921,35 50.604,33.95 52.104,32.45C54.704,29.917 56.004,26.867 56.004,23.3C56.004,19.7 54.704,16.633 52.104,14.1C50.438,12.5 48.554,11.4 46.454,10.8C45.321,10.5 44.138,10.333 42.904,10.3M45.754,19.45C46.288,18.917 46.921,18.65 47.654,18.65C48.388,18.65 49.021,18.917 49.554,19.45C50.088,19.983 50.354,20.6 50.354,21.3C50.354,22.033 50.088,22.65 49.554,23.15C49.021,23.683 48.388,23.95 47.654,23.95C46.921,23.95 46.288,23.683 45.754,23.15C45.221,22.65 44.954,22.033 44.954,21.3C44.954,20.6 45.221,19.983 45.754,19.45Z" style="fill:rgb(37,166,91);fill-rule:nonzero;"/>
        <path d="M47.654,18.65C46.921,18.65 46.288,18.917 45.754,19.45C45.221,19.983 44.954,20.6 44.954,21.3C44.954,22.033 45.221,22.65 45.754,23.15C46.288,23.683 46.921,23.95 47.654,23.95C48.388,23.95 49.021,23.683 49.554,23.15C50.088,22.65 50.354,22.033 50.354,21.3C50.354,20.6 50.088,19.983 49.554,19.45C49.021,18.917 48.388,18.65 47.654,18.65Z" style="fill:rgb(29,133,72);fill-rule:nonzero;"/>
    </g>
</svg>
