<?xml version="1.0" encoding="UTF-8" standalone="no"?>
<!DOCTYPE svg PUBLIC "-//W3C//DTD SVG 1.1//EN" "http://www.w3.org/Graphics/SVG/1.1/DTD/svg11.dtd">
<svg width="55px" height="32px" version="1.1" xmlns="http://www.w3.org/2000/svg" xmlns:xlink="http://www.w3.org/1999/xlink" xml:space="preserve" xmlns:serif="http://www.serif.com/" style="fill-rule:evenodd;clip-rule:evenodd;stroke-linejoin:round;stroke-miterlimit:2;">
    <g id="Layer0_55_FILL">
        <path d="M39.666,11.2C39.851,11.523 39.951,11.857 39.966,12.2L40.016,13.05C40.129,12.911 40.279,12.778 40.466,12.65L45.116,9.65L45.066,9.65C46.621,8.632 48.221,8.132 49.866,8.15C51.172,8.089 52.472,8.672 53.766,9.9C54.117,10.25 54.317,10.667 54.366,11.15C54.411,11.663 54.294,12.113 54.016,12.5C50.909,16.764 50.909,20.997 54.016,25.2C54.3,25.629 54.417,26.096 54.366,26.6C54.313,27.103 54.096,27.52 53.716,27.85C52.445,29.037 51.162,29.603 49.866,29.55C48.23,29.559 46.647,29.059 45.116,28.05L40.816,25.3C40.672,25.237 40.555,25.154 40.466,25.05L40.466,25.6C40.483,25.99 40.4,26.34 40.216,26.65C40.03,26.997 39.78,27.264 39.466,27.45C39.079,27.654 38.679,27.837 38.266,28L38.316,28C38.052,28.108 37.768,28.208 37.466,28.3L37.566,28.3C37.281,28.417 36.965,28.534 36.616,28.65C36.19,28.782 35.774,28.782 35.366,28.65C34.96,28.524 34.627,28.29 34.366,27.95C34.11,27.61 33.976,27.227 33.966,26.8L33.816,22.2L32.166,22.15L32.366,28.2C32.388,28.722 32.238,29.172 31.916,29.55C31.588,29.958 31.171,30.191 30.666,30.25C29.792,30.4 28.875,30.533 27.916,30.65C27.527,30.72 27.16,30.67 26.816,30.5C26.467,30.364 26.184,30.131 25.966,29.8C25.75,29.496 25.633,29.146 25.616,28.75L25.316,20.7C25.275,21.138 25.241,21.571 25.216,22C24.935,24.55 24.335,27.117 23.416,29.7C23.259,30.11 23.009,30.427 22.666,30.65C22.321,30.913 21.938,31.046 21.516,31.05L21.316,31.05C16.387,31.001 11.37,29.367 6.266,26.15C3.554,24.443 1.788,22.909 0.966,21.55C-0.444,19.398 -0.311,17.548 1.366,16L1.416,16C3.219,14.277 5.786,12.444 9.116,10.5L9.166,10.5C10.307,9.865 11.391,9.332 12.416,8.9L12.566,3.05C12.573,2.139 12.873,1.406 13.466,0.85C13.491,0.834 13.524,0.801 13.566,0.75C14.154,0.248 14.87,-0.002 15.716,0C23.379,0.044 30.163,2.228 36.066,6.55L36.116,6.6C36.721,7.046 37.104,7.613 37.266,8.3C37.409,8.796 37.409,9.313 37.266,9.85C37.601,9.983 37.934,10.117 38.266,10.25C38.489,10.333 38.689,10.416 38.866,10.5C39.188,10.67 39.455,10.903 39.666,11.2M38.166,17.7L37.966,12.3C37.833,12.233 37.683,12.167 37.516,12.1C36.85,11.833 36.166,11.583 35.466,11.35L35.666,17.6L29.966,17.35L29.716,9.9C28.783,9.733 27.816,9.6 26.816,9.5L27.116,17.2L23.266,17.05C23.233,16.483 23.166,15.933 23.066,15.4C22.866,13.667 22.466,11.95 21.866,10.25C21.766,9.883 21.65,9.533 21.516,9.2C21.45,9.2 20.316,9.267 18.116,9.4C17.05,9.433 15.866,9.7 14.566,10.2C13.233,10.667 11.75,11.35 10.116,12.25C6.95,14.083 4.5,15.817 2.766,17.45C1.066,19.117 2.583,21.45 7.316,24.45C12.083,27.45 16.75,28.983 21.316,29.05L21.516,29.05C22.616,25.983 23.216,22.95 23.316,19.95L27.266,20.05L27.616,28.7C28.583,28.567 29.5,28.433 30.366,28.3L30.066,20.1L35.766,20.25L35.966,26.75C36.266,26.65 36.533,26.55 36.766,26.45C37.033,26.35 37.283,26.25 37.516,26.15C37.85,26.017 38.166,25.867 38.466,25.7L38.266,20.35L44.166,20.5C43.833,21.633 43.066,22.683 41.866,23.65L46.166,26.4C47.366,27.167 48.6,27.55 49.866,27.55C50.7,27.55 51.533,27.167 52.366,26.4C48.7,21.4 48.7,16.383 52.366,11.35C51.533,10.55 50.7,10.15 49.866,10.15C48.6,10.15 47.366,10.55 46.166,11.35L41.516,14.35C42.983,15.417 43.883,16.617 44.216,17.95L38.166,17.7M35.316,8.85C35.283,8.583 35.15,8.367 34.916,8.2C29.35,4.1 22.95,2.033 15.716,2C15.383,2 15.1,2.1 14.866,2.3C14.666,2.5 14.566,2.767 14.566,3.1L14.566,7.7C20.866,6.967 27.683,7.783 35.016,10.15L35.266,9.6C35.366,9.333 35.383,9.083 35.316,8.85M11.516,16.35C11.916,16.35 12.266,16.5 12.566,16.8C12.866,17.1 13.016,17.45 13.016,17.85C13.016,18.25 12.866,18.6 12.566,18.9C12.266,19.2 11.916,19.35 11.516,19.35C11.083,19.35 10.716,19.2 10.416,18.9C10.116,18.6 9.966,18.25 9.966,17.85C9.966,17.45 10.116,17.1 10.416,16.8C10.716,16.5 11.083,16.35 11.516,16.35Z" style="fill:rgb(163,156,125);fill-rule:nonzero;"/>
        <path d="M34.916,8.2C35.15,8.367 35.283,8.583 35.316,8.85C35.383,9.083 35.366,9.333 35.266,9.6L35.016,10.15C27.683,7.783 20.866,6.967 14.566,7.7L14.566,3.1C14.566,2.767 14.666,2.5 14.866,2.3C15.1,2.1 15.383,2 15.716,2C22.95,2.033 29.35,4.1 34.916,8.2M23.066,15.4C23.166,15.933 23.233,16.483 23.266,17.05C23.333,17.983 23.35,18.95 23.316,19.95C23.216,22.95 22.616,25.983 21.516,29.05L21.316,29.05C16.75,28.983 12.083,27.45 7.316,24.45C2.583,21.45 1.066,19.117 2.766,17.45C4.5,15.817 6.95,14.083 10.116,12.25C11.75,11.35 13.233,10.667 14.566,10.2C15.866,9.7 17.05,9.433 18.116,9.4C20.316,9.267 21.45,9.2 21.516,9.2C21.65,9.533 21.766,9.883 21.866,10.25C22.466,11.95 22.866,13.667 23.066,15.4M12.566,16.8C12.266,16.5 11.916,16.35 11.516,16.35C11.083,16.35 10.716,16.5 10.416,16.8C10.116,17.1 9.966,17.45 9.966,17.85C9.966,18.25 10.116,18.6 10.416,18.9C10.716,19.2 11.083,19.35 11.516,19.35C11.916,19.35 12.266,19.2 12.566,18.9C12.866,18.6 13.016,18.25 13.016,17.85C13.016,17.45 12.866,17.1 12.566,16.8M29.716,9.9L29.966,17.35L30.066,20.1L30.366,28.3C29.5,28.433 28.583,28.567 27.616,28.7L27.266,20.05L27.116,17.2L26.816,9.5C27.816,9.6 28.783,9.733 29.716,9.9M41.516,14.35L46.166,11.35C47.366,10.55 48.6,10.15 49.866,10.15C50.7,10.15 51.533,10.55 52.366,11.35C48.7,16.383 48.7,21.4 52.366,26.4C51.533,27.167 50.7,27.55 49.866,27.55C48.6,27.55 47.366,27.167 46.166,26.4L41.866,23.65C43.066,22.683 43.833,21.633 44.166,20.5C44.3,20.067 44.366,19.617 44.366,19.15C44.366,18.717 44.316,18.317 44.216,17.95C43.883,16.617 42.983,15.417 41.516,14.35M37.966,12.3L38.166,17.7L38.266,20.35L38.466,25.7C38.166,25.867 37.85,26.017 37.516,26.15C37.283,26.25 37.033,26.35 36.766,26.45C36.533,26.55 36.266,26.65 35.966,26.75L35.766,20.25L35.666,17.6L35.466,11.35C36.166,11.583 36.85,11.833 37.516,12.1C37.683,12.167 37.833,12.233 37.966,12.3Z" style="fill:rgb(238,228,183);fill-rule:nonzero;"/>
        <path d="M23.266,17.05L27.116,17.2L27.266,20.05L23.316,19.95C23.35,18.95 23.333,17.983 23.266,17.05M29.966,17.35L35.666,17.6L35.766,20.25L30.066,20.1L29.966,17.35M38.166,17.7L44.216,17.95C44.316,18.317 44.366,18.717 44.366,19.15C44.366,19.617 44.3,20.067 44.166,20.5L38.266,20.35L38.166,17.7Z" style="fill:rgb(194,185,149);fill-rule:nonzero;"/>
    </g>
</svg>
