<?xml version="1.0" encoding="UTF-8" standalone="no"?>
<!DOCTYPE svg PUBLIC "-//W3C//DTD SVG 1.1//EN" "http://www.w3.org/Graphics/SVG/1.1/DTD/svg11.dtd">
<svg width="43px" height="27px" version="1.1" xmlns="http://www.w3.org/2000/svg" xmlns:xlink="http://www.w3.org/1999/xlink" xml:space="preserve" xmlns:serif="http://www.serif.com/" style="fill-rule:evenodd;clip-rule:evenodd;stroke-linejoin:round;stroke-miterlimit:2;">
    <g id="Layer0_43_FILL">
        <path d="M8.25,3.584C8.283,3.484 8.317,3.384 8.35,3.284C8.717,2.584 9.25,2.118 9.95,1.884C14.883,-0.182 19.617,-0.549 24.15,0.784C24.283,0.784 24.4,0.818 24.5,0.884C24.9,1.084 25.25,1.384 25.55,1.784C25.683,1.951 25.783,2.151 25.85,2.384C25.983,2.784 26.05,3.168 26.05,3.534C26.05,3.634 26.033,3.734 26,3.834L25.6,6.484C25.933,6.584 26.25,6.701 26.55,6.834L28.5,5.134C30.9,3.101 33.3,3.101 35.7,5.134L40.65,9.384C41.983,10.518 42.6,11.684 42.5,12.884C42.6,14.084 41.983,15.251 40.65,16.384L40.6,16.384L35.7,20.634C33.3,22.634 30.9,22.634 28.5,20.634L28.5,20.584L26.75,19.134C26.25,19.301 25.717,19.468 25.15,19.634C25.15,19.701 25.167,19.751 25.2,19.784C25.367,20.218 25.45,20.618 25.45,20.984C25.45,21.118 25.433,21.251 25.4,21.384C25.333,21.751 25.233,22.068 25.1,22.334C25.033,22.434 24.967,22.534 24.9,22.634L22.9,25.434C22.533,25.934 22.067,26.251 21.5,26.384C20.667,26.718 19.95,26.651 19.35,26.184C17.183,25.218 15.2,23.684 13.4,21.584C12.067,21.684 10.667,21.751 9.2,21.784L8.75,21.784C6.317,21.784 4.25,20.918 2.55,19.184L2.55,19.234C0.85,17.501 0,15.418 0,12.984C0,10.551 0.85,8.484 2.55,6.784C4.117,5.251 5.967,4.418 8.1,4.284C8.133,4.018 8.183,3.784 8.25,3.584M8.75,6.234C6.883,6.234 5.3,6.884 4,8.184C2.667,9.518 2,11.118 2,12.984C2,14.851 2.667,16.451 4,17.784C5.3,19.118 6.883,19.784 8.75,19.784L9.15,19.784C10.943,19.745 12.66,19.645 14.3,19.484C16.108,21.816 18.141,23.466 20.4,24.434C20.533,24.534 20.7,24.534 20.9,24.434C21.067,24.434 21.2,24.368 21.3,24.234L23.3,21.434C23.367,21.301 23.417,21.151 23.45,20.984C23.45,20.851 23.417,20.701 23.35,20.534C23.283,20.368 23.183,20.268 23.05,20.234C22.22,19.743 21.437,19.209 20.7,18.634C20.936,18.583 21.17,18.533 21.4,18.484C22.4,18.284 23.383,18.051 24.35,17.784C25.414,17.471 26.364,17.138 27.2,16.784L29.8,19.084C31.333,20.384 32.867,20.384 34.4,19.084L39.35,14.834C40.917,13.534 40.917,12.218 39.35,10.884L34.4,6.634C32.867,5.334 31.333,5.334 29.8,6.634L27,9.084C26.214,8.773 25.33,8.473 24.35,8.184C24.039,8.097 23.723,8.014 23.4,7.934L24.05,3.534C24.05,3.368 24.017,3.184 23.95,2.984C23.85,2.851 23.733,2.751 23.6,2.684C19.433,1.484 15.1,1.851 10.6,3.784C10.4,3.851 10.25,3.984 10.15,4.184C10.083,4.384 10.067,4.584 10.1,4.784L10.5,6.284C10.054,6.29 9.604,6.29 9.15,6.284C9.017,6.251 8.883,6.234 8.75,6.234Z" style="fill:rgb(141,93,147);fill-rule:nonzero;"/>
        <path d="M23.45,20.984C23.417,21.151 23.367,21.301 23.3,21.434L21.3,24.234C21.2,24.368 21.067,24.434 20.9,24.434C20.7,24.534 20.533,24.534 20.4,24.434C18.141,23.466 16.108,21.816 14.3,19.484C16.579,19.306 18.712,19.023 20.7,18.634C21.437,19.209 22.22,19.743 23.05,20.234C23.183,20.268 23.283,20.368 23.35,20.534C23.417,20.701 23.45,20.851 23.45,20.984M23.95,2.984C24.017,3.184 24.05,3.368 24.05,3.534L23.4,7.934C19.678,6.983 15.378,6.433 10.5,6.284L10.1,4.784C10.067,4.584 10.083,4.384 10.15,4.184C10.25,3.984 10.4,3.851 10.6,3.784C15.1,1.851 19.433,1.484 23.6,2.684C23.733,2.751 23.85,2.851 23.95,2.984M29.8,6.634C31.333,5.334 32.867,5.334 34.4,6.634L39.35,10.884C40.917,12.218 40.917,13.534 39.35,14.834L34.4,19.084C32.867,20.384 31.333,20.384 29.8,19.084L27.2,16.784C29.833,15.679 31.15,14.413 31.15,12.984C31.15,11.521 29.767,10.221 27,9.084L29.8,6.634Z" style="fill:rgb(201,133,208);fill-rule:nonzero;"/>
        <path d="M24.35,8.184C25.33,8.473 26.214,8.773 27,9.084C29.767,10.221 31.15,11.521 31.15,12.984C31.15,14.413 29.833,15.679 27.2,16.784C26.364,17.138 25.414,17.471 24.35,17.784C23.383,18.051 22.4,18.284 21.4,18.484C21.17,18.533 20.936,18.583 20.7,18.634C18.712,19.023 16.579,19.306 14.3,19.484C12.66,19.645 10.943,19.745 9.15,19.784L15.9,13.034L9.15,6.284C9.604,6.29 10.054,6.29 10.5,6.284C15.378,6.433 19.678,6.983 23.4,7.934C23.723,8.014 24.039,8.097 24.35,8.184Z" style="fill:rgb(229,153,238);fill-rule:nonzero;"/>
        <path d="M4,8.184C5.3,6.884 6.883,6.234 8.75,6.234C8.883,6.234 9.017,6.251 9.15,6.284L15.9,13.034L9.15,19.784L8.75,19.784C6.883,19.784 5.3,19.118 4,17.784C2.667,16.451 2,14.851 2,12.984C2,11.118 2.667,9.518 4,8.184M4.75,13.684C5.117,14.118 5.583,14.334 6.15,14.334C6.683,14.334 7.15,14.118 7.55,13.684C7.95,13.318 8.15,12.851 8.15,12.284C8.15,11.751 7.95,11.284 7.55,10.884C7.15,10.484 6.683,10.284 6.15,10.284C5.583,10.284 5.117,10.484 4.75,10.884C4.317,11.284 4.1,11.751 4.1,12.284C4.1,12.851 4.317,13.318 4.75,13.684Z" style="fill:rgb(216,144,224);fill-rule:nonzero;"/>
        <path d="M6.15,14.334C5.583,14.334 5.117,14.118 4.75,13.684C4.317,13.318 4.1,12.851 4.1,12.284C4.1,11.751 4.317,11.284 4.75,10.884C5.117,10.484 5.583,10.284 6.15,10.284C6.683,10.284 7.15,10.484 7.55,10.884C7.95,11.284 8.15,11.751 8.15,12.284C8.15,12.851 7.95,13.318 7.55,13.684C7.15,14.118 6.683,14.334 6.15,14.334Z" style="fill:rgb(175,117,182);fill-rule:nonzero;"/>
    </g>
</svg>
