<?xml version="1.0" encoding="UTF-8" standalone="no"?>
<!DOCTYPE svg PUBLIC "-//W3C//DTD SVG 1.1//EN" "http://www.w3.org/Graphics/SVG/1.1/DTD/svg11.dtd">
<svg width="60px" height="48px" version="1.1" xmlns="http://www.w3.org/2000/svg" xmlns:xlink="http://www.w3.org/1999/xlink" xml:space="preserve" xmlns:serif="http://www.serif.com/" style="fill-rule:evenodd;clip-rule:evenodd;stroke-linejoin:round;stroke-miterlimit:2;">
    <g>
        <path d="M49.523,0.9C48.882,0.298 48.082,-0.002 47.123,0L47.073,0C37.157,0.072 28.357,2.905 20.673,8.5C20.674,8.535 20.657,8.552 20.623,8.55C19.907,9.132 19.49,9.816 19.373,10.6C19.217,11.243 19.267,11.926 19.523,12.65C19.563,12.725 19.597,12.792 19.623,12.85L20.573,14.85C19.965,15.231 19.398,15.615 18.873,16L16.273,13.8L16.273,13.75C14.625,12.308 12.925,11.608 11.173,11.65C9.787,11.525 8.404,12.325 7.023,14.05C7.032,14.069 7.032,14.086 7.023,14.1L1.723,21.1L1.723,21.05C-0.574,23.962 -0.574,26.912 1.723,29.9L7.023,36.85C7.049,36.882 7.065,36.898 7.073,36.9C8.443,38.537 9.81,39.303 11.173,39.2C12.916,39.23 14.599,38.547 16.223,37.15L16.273,37.15L18.473,35.3C19.385,35.953 20.402,36.586 21.523,37.2L21.073,39.5C20.742,40.259 20.826,41.059 21.323,41.9C21.614,42.657 22.131,43.224 22.873,43.6L22.823,43.55C28.844,46.82 35.994,48.053 44.273,47.25C45.024,47.177 45.691,46.877 46.273,46.35C46.908,45.835 47.292,45.118 47.423,44.2L47.573,43.4C48.055,43.434 48.539,43.451 49.023,43.45L50.273,43.45C50.329,43.452 50.379,43.452 50.423,43.45C53.067,43.366 55.317,41.466 57.173,37.75C58.87,34.472 59.72,30.489 59.723,25.8C59.727,21.079 58.894,17.062 57.223,13.75L57.173,13.7C55.415,10.282 53.315,8.432 50.873,8.15C50.79,8.16 50.706,8.16 50.623,8.15L50.623,3.45C50.627,2.423 50.293,1.589 49.623,0.95C49.607,0.943 49.573,0.926 49.523,0.9M48.223,2.4C48.49,2.667 48.623,3.017 48.623,3.45L48.623,10.15L49.023,10.15C49.323,10.117 49.64,10.1 49.973,10.1L50.273,10.1L50.273,10.15C52.24,10.317 53.957,11.817 55.423,14.65C56.957,17.717 57.723,21.433 57.723,25.8C57.723,30.133 56.957,33.817 55.423,36.85C53.957,39.75 52.24,41.283 50.273,41.45L49.023,41.45C48.357,41.45 47.69,41.433 47.023,41.4C46.64,41.384 46.256,41.367 45.873,41.35L45.473,43.9C45.407,44.3 45.24,44.617 44.973,44.85C44.707,45.083 44.407,45.217 44.073,45.25C36.24,46.017 29.473,44.867 23.773,41.8C23.44,41.633 23.223,41.367 23.123,41C22.923,40.7 22.873,40.417 22.973,40.15L23.773,36.1C21.604,35.039 19.837,33.905 18.473,32.7L14.973,35.65C13.74,36.683 12.473,37.2 11.173,37.2C10.34,37.2 9.49,36.683 8.623,35.65L3.323,28.7C1.657,26.533 1.657,24.4 3.323,22.3L8.623,15.3C9.49,14.2 10.34,13.65 11.173,13.65C12.473,13.65 13.74,14.2 14.973,15.3L18.773,18.55C19.976,17.563 21.443,16.613 23.173,15.7L21.423,12C21.29,11.633 21.273,11.3 21.373,11C21.407,10.667 21.573,10.383 21.873,10.15C29.207,4.783 37.623,2.067 47.123,2C47.557,2 47.923,2.133 48.223,2.4Z" style="fill:rgb(135,42,33);fill-rule:nonzero;"/>
        <path d="M11.173,13.65C10.34,13.65 9.49,14.2 8.623,15.3L3.323,22.3C1.657,24.4 1.657,26.533 3.323,28.7L8.623,35.65C9.49,36.683 10.34,37.2 11.173,37.2C12.473,37.2 13.74,36.683 14.973,35.65L18.473,32.7C16.107,30.617 14.923,28.317 14.923,25.8C14.923,23.149 16.207,20.732 18.773,18.55L14.973,15.3C13.74,14.2 12.473,13.65 11.173,13.65M45.873,41.35C45.44,41.334 45.007,41.317 44.573,41.3C37.34,40.733 30.957,39.25 25.423,36.85C24.854,36.603 24.304,36.353 23.773,36.1L22.973,40.15C22.873,40.417 22.923,40.7 23.123,41C23.223,41.367 23.44,41.633 23.773,41.8C29.473,44.867 36.24,46.017 44.073,45.25C44.407,45.217 44.707,45.083 44.973,44.85C45.24,44.617 45.407,44.3 45.473,43.9L45.873,41.35M53.273,24C53.707,23.633 53.923,23.183 53.923,22.65C53.923,22.15 53.707,21.7 53.273,21.3C52.94,20.9 52.49,20.7 51.923,20.7C51.423,20.7 50.973,20.9 50.573,21.3C50.207,21.7 50.023,22.15 50.023,22.65C50.023,23.183 50.207,23.633 50.573,24C50.973,24.433 51.423,24.65 51.923,24.65C52.49,24.65 52.94,24.433 53.273,24M39.173,26.5C38.94,26.3 38.69,26.217 38.423,26.25C33.157,25.983 27.923,25.067 22.723,23.5C22.423,23.467 22.157,23.467 21.923,23.5C21.657,23.6 21.423,23.75 21.223,23.95C21.057,24.15 20.923,24.383 20.823,24.65L20.473,27.55C20.44,27.883 20.473,28.167 20.573,28.4C20.74,28.667 20.957,28.867 21.223,29C25.957,31.433 31.057,33.05 36.523,33.85C36.923,33.883 37.273,33.8 37.573,33.6C37.84,33.467 38.007,33.217 38.073,32.85L39.723,28.05C39.79,27.783 39.807,27.517 39.773,27.25C39.607,26.95 39.407,26.7 39.173,26.5M23.173,15.7C23.874,15.35 24.624,15 25.423,14.65C30.957,12.283 37.34,10.85 44.573,10.35C45.407,10.283 46.223,10.233 47.023,10.2C47.557,10.173 48.09,10.157 48.623,10.15L48.623,3.45C48.623,3.017 48.49,2.667 48.223,2.4C47.923,2.133 47.557,2 47.123,2C37.623,2.067 29.207,4.783 21.873,10.15C21.573,10.383 21.407,10.667 21.373,11C21.273,11.3 21.29,11.633 21.423,12L23.173,15.7Z" style="fill:rgb(191,61,49);fill-rule:nonzero;"/>
        <path d="M47.023,10.2C46.223,10.233 45.407,10.283 44.573,10.35C44.018,13.023 43.602,15.673 43.323,18.3C42.729,24.048 42.796,29.698 43.523,35.25C43.785,37.284 44.135,39.3 44.573,41.3C45.007,41.317 45.44,41.334 45.873,41.35C46.256,41.367 46.64,41.384 47.023,41.4C47.69,41.433 48.357,41.45 49.023,41.45L50.273,41.45C52.24,41.283 53.957,39.75 55.423,36.85C56.957,33.817 57.723,30.133 57.723,25.8C57.723,21.433 56.957,17.717 55.423,14.65C53.957,11.817 52.24,10.317 50.273,10.15L50.273,10.1L49.973,10.1C49.64,10.1 49.323,10.117 49.023,10.15L48.623,10.15C48.09,10.157 47.557,10.173 47.023,10.2M53.923,22.65C53.923,23.183 53.707,23.633 53.273,24C52.94,24.433 52.49,24.65 51.923,24.65C51.423,24.65 50.973,24.433 50.573,24C50.207,23.633 50.023,23.183 50.023,22.65C50.023,22.15 50.207,21.7 50.573,21.3C50.973,20.9 51.423,20.7 51.923,20.7C52.49,20.7 52.94,20.9 53.273,21.3C53.707,21.7 53.923,22.15 53.923,22.65Z" style="fill:rgb(245,80,63);fill-rule:nonzero;"/>
        <path d="M25.423,14.65C24.624,15 23.874,15.35 23.173,15.7C21.443,16.613 19.976,17.563 18.773,18.55C16.207,20.732 14.923,23.149 14.923,25.8C14.923,28.317 16.107,30.617 18.473,32.7C19.837,33.905 21.604,35.039 23.773,36.1C24.304,36.353 24.854,36.603 25.423,36.85C30.957,39.25 37.34,40.733 44.573,41.3C44.135,39.3 43.785,37.284 43.523,35.25C42.796,29.698 42.729,24.048 43.323,18.3C43.602,15.673 44.018,13.023 44.573,10.35C37.34,10.85 30.957,12.283 25.423,14.65M38.423,26.25C38.69,26.217 38.94,26.3 39.173,26.5C39.407,26.7 39.607,26.95 39.773,27.25C39.807,27.517 39.79,27.783 39.723,28.05L38.073,32.85C38.007,33.217 37.84,33.467 37.573,33.6C37.273,33.8 36.923,33.883 36.523,33.85C31.057,33.05 25.957,31.433 21.223,29C20.957,28.867 20.74,28.667 20.573,28.4C20.473,28.167 20.44,27.883 20.473,27.55L20.823,24.65C20.923,24.383 21.057,24.15 21.223,23.95C21.423,23.75 21.657,23.6 21.923,23.5C22.157,23.467 22.423,23.467 22.723,23.5C27.923,25.067 33.157,25.983 38.423,26.25Z" style="fill:rgb(231,76,60);fill-rule:nonzero;"/>
    </g>
</svg>
