<?xml version="1.0" encoding="UTF-8" standalone="no"?>
<!DOCTYPE svg PUBLIC "-//W3C//DTD SVG 1.1//EN" "http://www.w3.org/Graphics/SVG/1.1/DTD/svg11.dtd">
<svg width="50px" height="26px" version="1.1" xmlns="http://www.w3.org/2000/svg" xmlns:xlink="http://www.w3.org/1999/xlink" xml:space="preserve" xmlns:serif="http://www.serif.com/" style="fill-rule:evenodd;clip-rule:evenodd;stroke-linejoin:round;stroke-miterlimit:2;">
    <g id="Layer0_58_FILL">
        <path d="M26.312,1.766C25.96,1.683 25.61,1.7 25.262,1.816C24.329,2.116 23.395,2.416 22.462,2.716C21.976,2.868 21.592,3.151 21.312,3.566C21.185,3.824 21.102,4.074 21.062,4.316C20.815,4.067 20.515,3.883 20.162,3.766C19.788,3.672 19.405,3.672 19.012,3.766C17.812,4.158 16.595,4.558 15.362,4.966C14.916,5.127 14.566,5.41 14.312,5.816C14.147,6.102 14.047,6.385 14.012,6.666L10.862,3.316C9.633,2.005 8.383,1.388 7.112,1.466C5.539,1.442 4.006,1.975 2.512,3.066L2.512,3.116L1.112,4.116C0.62,4.372 0.286,4.755 0.112,5.266C-0.065,5.805 -0.032,6.321 0.212,6.816C0.245,6.883 0.279,6.949 0.312,7.016C0.371,7.121 0.438,7.221 0.512,7.316C3.164,10.888 3.464,14.572 1.412,18.366C1.161,18.826 1.094,19.309 1.212,19.816C1.357,20.322 1.641,20.705 2.062,20.966L2.612,21.316L2.562,21.316C4.031,22.336 5.548,22.836 7.112,22.816C8.369,22.885 9.603,22.301 10.812,21.066C10.836,21.064 10.853,21.047 10.862,21.016L13.362,18.366C13.73,17.997 13.913,17.547 13.912,17.016C13.912,16.826 13.879,16.642 13.812,16.466L15.512,16.516L16.262,21.416C16.333,21.756 16.466,22.056 16.662,22.316C16.885,22.6 17.152,22.8 17.462,22.916C18.775,23.503 20.158,24.003 21.612,24.416C22.051,24.561 22.485,24.544 22.912,24.366C23.347,24.188 23.68,23.888 23.912,23.466C24.137,23.085 24.204,22.668 24.112,22.216L23.312,16.916L23.362,16.916L24.662,23.766C24.759,24.19 24.959,24.54 25.262,24.816C25.565,25.128 25.915,25.312 26.312,25.366C27.185,25.527 28.085,25.643 29.012,25.716L29.062,25.716C29.762,25.75 30.462,25.767 31.162,25.766C31.581,25.77 31.964,25.653 32.312,25.416C32.654,25.168 32.887,24.835 33.012,24.416C33.172,24.038 33.189,23.638 33.062,23.216L31.462,17.266L32.062,17.316C33.478,19.438 35.228,21.455 37.312,23.366C37.625,23.669 37.992,23.836 38.412,23.866C38.836,23.937 39.236,23.87 39.612,23.666C40.005,23.458 40.371,23.241 40.712,23.016C40.768,23.009 40.818,22.992 40.862,22.966C41.9,22.231 43.033,21.331 44.262,20.266C44.705,19.932 45.105,19.599 45.462,19.266C49.53,15.511 50.83,12.094 49.362,9.016L49.362,8.966C48.5,6.91 47.166,5.16 45.362,3.716L45.412,3.716C44.639,3.08 43.789,2.514 42.862,2.016C41.885,1.489 40.852,1.055 39.762,0.716L39.712,0.666C36.743,-0.222 33.26,-0.222 29.262,0.666C28.823,0.767 28.456,1.001 28.162,1.366C27.865,1.733 27.715,2.149 27.712,2.616C27.712,2.739 27.712,2.856 27.712,2.966C27.615,2.719 27.465,2.485 27.262,2.266C26.991,2.02 26.674,1.853 26.312,1.766M31.462,11.916C30.295,8.983 29.712,5.883 29.712,2.616C33.312,1.816 36.462,1.816 39.162,2.616C40.129,2.916 41.045,3.299 41.912,3.766C42.712,4.199 43.445,4.699 44.112,5.266C45.645,6.499 46.779,7.999 47.512,9.766C48.479,12.133 47.345,14.816 44.112,17.816C43.779,18.116 43.412,18.433 43.012,18.766C41.812,19.766 40.712,20.616 39.712,21.316C39.379,21.516 39.029,21.716 38.662,21.916C36.429,19.849 34.612,17.666 33.212,15.366L28.862,15.166L31.162,23.766C30.495,23.766 29.829,23.749 29.162,23.716C28.295,23.649 27.462,23.549 26.662,23.416L25.062,14.966L20.962,14.816L22.162,22.516C20.795,22.116 19.495,21.649 18.262,21.116L17.262,14.616L10.262,14.316C10.529,15.249 11.079,16.149 11.912,17.016L9.412,19.666C8.645,20.433 7.879,20.816 7.112,20.816C5.945,20.816 4.812,20.433 3.712,19.666L3.162,19.316C5.629,14.783 5.279,10.383 2.112,6.116C2.079,6.049 2.045,5.983 2.012,5.916L2.112,5.866L3.712,4.716C4.812,3.883 5.945,3.466 7.112,3.466C7.879,3.466 8.645,3.883 9.412,4.716L12.812,8.316C11.279,9.283 10.395,10.483 10.162,11.916L16.812,11.916L16.012,6.866C17.212,6.466 18.412,6.083 19.612,5.716L20.562,11.916L24.462,11.916L23.062,4.616C23.995,4.316 24.929,4.016 25.862,3.716L28.012,11.916L31.462,11.916M42.812,11.916C42.812,11.483 42.612,11.083 42.212,10.716C41.912,10.349 41.512,10.166 41.012,10.166C40.545,10.166 40.129,10.349 39.762,10.716C39.429,11.083 39.262,11.483 39.262,11.916C39.262,12.383 39.429,12.799 39.762,13.166C40.129,13.533 40.545,13.716 41.012,13.716C41.512,13.716 41.912,13.533 42.212,13.166C42.612,12.799 42.812,12.383 42.812,11.916Z" style="fill:rgb(163,156,125);fill-rule:nonzero;"/>
        <path d="M16.812,11.916L10.162,11.916C10.062,12.316 10.029,12.716 10.062,13.116C10.095,13.516 10.162,13.916 10.262,14.316L17.262,14.616L16.812,11.916M24.462,11.916L20.562,11.916L20.962,14.816L25.062,14.966L24.462,11.916M31.462,11.916L28.012,11.916L28.862,15.166L33.212,15.366C32.612,14.399 32.095,13.416 31.662,12.416C31.595,12.249 31.529,12.083 31.462,11.916Z" style="fill:rgb(194,185,149);fill-rule:nonzero;"/>
        <path d="M16.012,6.866L16.812,11.916L17.262,14.616L18.262,21.116C19.495,21.649 20.795,22.116 22.162,22.516L20.962,14.816L20.562,11.916L19.612,5.716C18.412,6.083 17.212,6.466 16.012,6.866M3.712,4.716L2.112,5.866L2.012,5.916C2.045,5.983 2.079,6.049 2.112,6.116C5.279,10.383 5.629,14.783 3.162,19.316L3.712,19.666C4.812,20.433 5.945,20.816 7.112,20.816C7.879,20.816 8.645,20.433 9.412,19.666L11.912,17.016C11.079,16.149 10.529,15.249 10.262,14.316C10.162,13.916 10.095,13.516 10.062,13.116C10.029,12.716 10.062,12.316 10.162,11.916C10.395,10.483 11.279,9.283 12.812,8.316L9.412,4.716C8.645,3.883 7.879,3.466 7.112,3.466C5.945,3.466 4.812,3.883 3.712,4.716M28.012,11.916L25.862,3.716C24.929,4.016 23.995,4.316 23.062,4.616L24.462,11.916L25.062,14.966L26.662,23.416C27.462,23.549 28.295,23.649 29.162,23.716C29.829,23.749 30.495,23.766 31.162,23.766L28.862,15.166L28.012,11.916M29.712,2.616C29.712,5.883 30.295,8.983 31.462,11.916C31.529,12.083 31.595,12.249 31.662,12.416C32.095,13.416 32.612,14.399 33.212,15.366C34.612,17.666 36.429,19.849 38.662,21.916C39.029,21.716 39.379,21.516 39.712,21.316C40.712,20.616 41.812,19.766 43.012,18.766C43.412,18.433 43.779,18.116 44.112,17.816C47.345,14.816 48.479,12.133 47.512,9.766C46.779,7.999 45.645,6.499 44.112,5.266C43.445,4.699 42.712,4.199 41.912,3.766C41.045,3.299 40.129,2.916 39.162,2.616C36.462,1.816 33.312,1.816 29.712,2.616M42.212,10.716C42.612,11.083 42.812,11.483 42.812,11.916C42.812,12.383 42.612,12.799 42.212,13.166C41.912,13.533 41.512,13.716 41.012,13.716C40.545,13.716 40.129,13.533 39.762,13.166C39.429,12.799 39.262,12.383 39.262,11.916C39.262,11.483 39.429,11.083 39.762,10.716C40.129,10.349 40.545,10.166 41.012,10.166C41.512,10.166 41.912,10.349 42.212,10.716Z" style="fill:rgb(238,228,183);fill-rule:nonzero;"/>
    </g>
</svg>
