<?xml version="1.0" encoding="UTF-8" standalone="no"?>
<!DOCTYPE svg PUBLIC "-//W3C//DTD SVG 1.1//EN" "http://www.w3.org/Graphics/SVG/1.1/DTD/svg11.dtd">
<svg width="55px" height="44px" version="1.1" xmlns="http://www.w3.org/2000/svg" xmlns:xlink="http://www.w3.org/1999/xlink" xml:space="preserve" xmlns:serif="http://www.serif.com/" style="fill-rule:evenodd;clip-rule:evenodd;stroke-linejoin:round;stroke-miterlimit:2;">
    <g id="Layer0_57_FILL">
        <path d="M39.1,8.55C39.816,9.132 40.233,9.816 40.35,10.6C40.506,11.243 40.456,11.926 40.2,12.65C40.161,12.732 40.128,12.798 40.1,12.85L39.3,14.5L38.75,16.15L38.95,21.25L40.9,21.35C40.526,20.94 40.11,20.54 39.65,20.15C39.331,19.898 39.115,19.581 39,19.2C38.876,18.816 38.876,18.433 39,18.05C39.095,17.666 39.295,17.333 39.6,17.05L43.45,13.8L43.45,13.75C45.098,12.308 46.798,11.608 48.55,11.65C49.936,11.525 51.32,12.325 52.7,14.05C52.69,14.067 52.69,14.084 52.7,14.1L53.75,15.5C54,15.834 54.133,16.201 54.15,16.6C54.162,17.03 54.062,17.414 53.85,17.75C50.678,22.733 50.778,27.7 54.15,32.65C54.393,33.023 54.509,33.423 54.5,33.85C54.49,34.276 54.357,34.659 54.1,35L52.7,36.85C52.674,36.875 52.657,36.891 52.65,36.9C51.28,38.537 49.913,39.303 48.55,39.2C46.807,39.23 45.124,38.547 43.5,37.15L43.45,37.15L39.95,34.2C39.68,33.979 39.497,33.696 39.4,33.35L39.45,35.2C39.465,35.588 39.381,35.938 39.2,36.25C39.021,36.587 38.771,36.837 38.45,37C37.952,37.308 37.419,37.608 36.85,37.9C36.268,38.185 35.668,38.451 35.05,38.7L35.2,38.65C34.847,38.822 34.48,38.972 34.1,39.1C33.675,39.232 33.258,39.232 32.85,39.1C32.442,38.974 32.109,38.741 31.85,38.4C31.592,38.06 31.458,37.676 31.45,37.25L31.3,29.1L28.45,28.95L28.7,39.4C28.713,39.862 28.579,40.279 28.3,40.65C28.017,41.019 27.65,41.252 27.2,41.35C25.86,41.718 24.477,42.034 23.05,42.3C22.638,42.391 22.254,42.358 21.9,42.2C21.51,42.039 21.21,41.789 21,41.45C20.763,41.117 20.647,40.75 20.65,40.35L20.65,28.55L18.8,28.45C18.704,30.837 18.504,33.204 18.2,35.55C17.911,37.617 17.544,39.667 17.1,41.7C17.004,42.145 16.787,42.512 16.45,42.8C16.118,43.096 15.735,43.262 15.3,43.3C14.875,43.331 14.458,43.348 14.05,43.35C13.642,43.383 13.225,43.4 12.8,43.4C12.767,43.4 12.733,43.4 12.7,43.4C12.033,43.434 11.367,43.451 10.7,43.45L9.45,43.45C9.395,43.452 9.345,43.452 9.3,43.45C6.656,43.366 4.406,41.466 2.55,37.75C0.853,34.472 0.003,30.489 0,25.8C-0.004,21.079 0.83,17.062 2.5,13.75L2.55,13.7C4.309,10.282 6.409,8.432 8.85,8.15C8.933,8.16 9.017,8.16 9.1,8.15L9.1,3.45C9.096,2.423 9.43,1.589 10.1,0.95C10.117,0.943 10.15,0.926 10.2,0.9C10.842,0.298 11.642,-0.002 12.6,0L12.65,0C17.512,0.038 22.112,0.755 26.45,2.15L26.4,2.1C28.938,2.889 31.388,3.922 33.75,5.2C33.75,5.224 33.767,5.241 33.8,5.25C35.092,5.941 36.359,6.691 37.6,7.5C38.102,7.848 38.602,8.198 39.1,8.55M38.35,11C38.317,10.667 38.15,10.383 37.85,10.15C37.417,9.817 36.967,9.5 36.5,9.2C35.3,8.4 34.067,7.667 32.8,7C30.567,5.767 28.233,4.783 25.8,4.05C21.667,2.717 17.267,2.033 12.6,2C12.167,2 11.8,2.133 11.5,2.4C11.233,2.667 11.1,3.017 11.1,3.45L11.1,8C16.2,7.633 21.15,8.05 25.95,9.25C28.317,9.817 30.633,10.583 32.9,11.55C34.167,12.083 35.417,12.683 36.65,13.35C36.917,13.483 37.183,13.617 37.45,13.75L38.3,12C38.433,11.633 38.45,11.3 38.35,11M52.15,16.7L51.1,15.3C50.233,14.2 49.383,13.65 48.55,13.65C47.25,13.65 45.983,14.2 44.75,15.3L40.9,18.6C42.733,20.1 43.917,21.75 44.45,23.55L37,23.15L36.75,15.85C36.683,15.817 36.617,15.783 36.55,15.75C35.85,15.383 35.1,15.017 34.3,14.65C33.867,14.45 33.417,14.267 32.95,14.1L33.15,22.95L26.3,22.6L26,11.95C24.933,11.683 23.817,11.45 22.65,11.25L22.65,22.45L16.7,22.15C16.633,20.883 16.533,19.617 16.4,18.35C16.133,15.917 15.767,13.5 15.3,11.1C15.267,10.833 15.217,10.583 15.15,10.35C14.317,10.283 13.5,10.233 12.7,10.2C12.167,10.167 11.633,10.15 11.1,10.15L10.7,10.15C10.4,10.117 10.083,10.1 9.75,10.1L9.45,10.1L9.45,10.15C7.483,10.317 5.767,11.817 4.3,14.65C2.767,17.717 2,21.433 2,25.8C2,30.133 2.767,33.817 4.3,36.85C5.767,39.75 7.483,41.283 9.45,41.45L10.7,41.45C11.367,41.45 12.033,41.433 12.7,41.4C13.1,41.4 13.483,41.383 13.85,41.35C14.283,41.35 14.717,41.333 15.15,41.3C15.583,39.3 15.933,37.3 16.2,35.3C16.6,32.333 16.8,29.35 16.8,26.35L22.65,26.65L22.65,40.35C24.05,40.083 25.4,39.783 26.7,39.45L26.4,26.85L33.25,27.2L33.45,37.2C33.75,37.1 34.033,36.983 34.3,36.85C34.867,36.617 35.417,36.367 35.95,36.1C36.483,35.833 36.983,35.567 37.45,35.3L37.15,27.4L44.55,27.75C44.083,29.517 42.983,31.167 41.25,32.7L44.75,35.65C45.983,36.683 47.25,37.2 48.55,37.2C49.383,37.2 50.233,36.683 51.1,35.65L52.5,33.8C48.633,28.1 48.517,22.4 52.15,16.7M41.45,29.6L39.25,29.5L39.35,32.15C39.44,31.776 39.64,31.46 39.95,31.2C40.52,30.684 41.02,30.151 41.45,29.6M31.1,18.9L28.2,18.65L28.25,20.7L31.1,20.85L31.1,18.9M18.4,18.1L18.4,18.15C18.472,18.847 18.539,19.547 18.6,20.25L20.65,20.35L20.65,18L18.4,17.8C18.389,17.92 18.389,18.02 18.4,18.1M9.7,22.65C9.7,23.183 9.517,23.633 9.15,24C8.75,24.433 8.3,24.65 7.8,24.65C7.233,24.65 6.783,24.433 6.45,24C6.017,23.633 5.8,23.183 5.8,22.65C5.8,22.15 6.017,21.7 6.45,21.3C6.783,20.9 7.233,20.7 7.8,20.7C8.3,20.7 8.75,20.9 9.15,21.3C9.517,21.7 9.7,22.15 9.7,22.65Z" style="fill:rgb(163,156,125);fill-rule:nonzero;"/>
        <path d="M15.15,10.35C15.217,10.583 15.267,10.833 15.3,11.1C15.767,13.5 16.133,15.917 16.4,18.35C16.533,19.617 16.633,20.883 16.7,22.15C16.767,23.55 16.8,24.95 16.8,26.35C16.8,29.35 16.6,32.333 16.2,35.3C15.933,37.3 15.583,39.3 15.15,41.3C14.717,41.333 14.283,41.35 13.85,41.35C13.483,41.383 13.1,41.4 12.7,41.4C12.033,41.433 11.367,41.45 10.7,41.45L9.45,41.45C7.483,41.283 5.767,39.75 4.3,36.85C2.767,33.817 2,30.133 2,25.8C2,21.433 2.767,17.717 4.3,14.65C5.767,11.817 7.483,10.317 9.45,10.15L9.45,10.1L9.75,10.1C10.083,10.1 10.4,10.117 10.7,10.15L11.1,10.15C11.633,10.15 12.167,10.167 12.7,10.2C13.5,10.233 14.317,10.283 15.15,10.35M9.15,24C9.517,23.633 9.7,23.183 9.7,22.65C9.7,22.15 9.517,21.7 9.15,21.3C8.75,20.9 8.3,20.7 7.8,20.7C7.233,20.7 6.783,20.9 6.45,21.3C6.017,21.7 5.8,22.15 5.8,22.65C5.8,23.183 6.017,23.633 6.45,24C6.783,24.433 7.233,24.65 7.8,24.65C8.3,24.65 8.75,24.433 9.15,24M26,11.95L26.3,22.6L26.4,26.85L26.7,39.45C25.4,39.783 24.05,40.083 22.65,40.35L22.65,11.25C23.817,11.45 24.933,11.683 26,11.95M37.15,27.4L37.45,35.3C36.983,35.567 36.483,35.833 35.95,36.1C35.417,36.367 34.867,36.617 34.3,36.85C34.033,36.983 33.75,37.1 33.45,37.2L33.25,27.2L33.15,22.95L32.95,14.1C33.417,14.267 33.867,14.45 34.3,14.65C35.1,15.017 35.85,15.383 36.55,15.75C36.617,15.783 36.683,15.817 36.75,15.85L37,23.15L37.15,27.4M51.1,15.3L52.15,16.7C48.517,22.4 48.633,28.1 52.5,33.8L51.1,35.65C50.233,36.683 49.383,37.2 48.55,37.2C47.25,37.2 45.983,36.683 44.75,35.65L41.25,32.7C42.983,31.167 44.083,29.517 44.55,27.75C44.717,27.117 44.8,26.467 44.8,25.8C44.8,25.033 44.683,24.283 44.45,23.55C43.917,21.75 42.733,20.1 40.9,18.6L44.75,15.3C45.983,14.2 47.25,13.65 48.55,13.65C49.383,13.65 50.233,14.2 51.1,15.3M37.85,10.15C38.15,10.383 38.317,10.667 38.35,11C38.45,11.3 38.433,11.633 38.3,12L37.45,13.75C37.183,13.617 36.917,13.483 36.65,13.35C35.417,12.683 34.167,12.083 32.9,11.55C30.633,10.583 28.317,9.817 25.95,9.25C21.15,8.05 16.2,7.633 11.1,8L11.1,3.45C11.1,3.017 11.233,2.667 11.5,2.4C11.8,2.133 12.167,2 12.6,2C17.267,2.033 21.667,2.717 25.8,4.05C28.233,4.783 30.567,5.767 32.8,7C34.067,7.667 35.3,8.4 36.5,9.2C36.967,9.5 37.417,9.817 37.85,10.15Z" style="fill:rgb(238,228,183);fill-rule:nonzero;"/>
        <path d="M26.3,22.6L33.15,22.95L33.25,27.2L26.4,26.85L26.3,22.6M16.7,22.15L22.65,22.45L22.65,26.65L16.8,26.35C16.8,24.95 16.767,23.55 16.7,22.15M37,23.15L44.45,23.55C44.683,24.283 44.8,25.033 44.8,25.8C44.8,26.467 44.717,27.117 44.55,27.75L37.15,27.4L37,23.15Z" style="fill:rgb(194,185,149);fill-rule:nonzero;"/>
    </g>
</svg>
