<?xml version="1.0" encoding="UTF-8" standalone="no"?>
<!DOCTYPE svg PUBLIC "-//W3C//DTD SVG 1.1//EN" "http://www.w3.org/Graphics/SVG/1.1/DTD/svg11.dtd">
<svg width="59px" height="42px" version="1.1" xmlns="http://www.w3.org/2000/svg" xmlns:xlink="http://www.w3.org/1999/xlink" xml:space="preserve" xmlns:serif="http://www.serif.com/" style="fill-rule:evenodd;clip-rule:evenodd;stroke-linejoin:round;stroke-miterlimit:2;">
    <g id="Layer0_42_FILL">
        <path d="M9.55,3.3C9.55,2.3 9.85,1.517 10.45,0.95C10.517,0.917 10.55,0.883 10.55,0.85C11.183,0.283 11.967,0 12.9,0C21.9,0.033 29.867,2.617 36.8,7.75L36.85,7.75C37.517,8.25 37.933,8.9 38.1,9.7C38.267,10.333 38.233,10.983 38,11.65C37.967,11.717 37.933,11.783 37.9,11.85L37.15,13.45C37.783,13.817 38.367,14.217 38.9,14.65L40.8,12.8L40.8,12.75C43.733,9.917 46.65,9.933 49.55,12.8L55.9,19L55.9,18.95C57.367,20.383 58.067,21.833 58,23.3C58.067,24.767 57.367,26.217 55.9,27.65L49.55,33.85C46.65,36.683 43.733,36.683 40.8,33.85L38.9,31.95C37.833,32.75 36.55,33.517 35.05,34.25C34.217,34.683 33.333,35.083 32.4,35.45C32.467,36.017 32.333,36.583 32,37.15C31.733,37.817 31.283,38.317 30.65,38.65L30.6,38.65C25.5,41.383 19.45,42.433 12.45,41.8L12.4,41.8C11.7,41.733 11.083,41.467 10.55,41C10.517,40.933 10.467,40.9 10.4,40.9C9.967,40.433 9.667,39.85 9.5,39.15C9.5,39.083 9.483,39.033 9.45,39L9.15,37.05C7.45,36.317 5.9,35.267 4.5,33.9C1.5,30.967 0,27.433 0,23.3C0,19.133 1.5,15.6 4.5,12.7C6.033,11.2 7.717,10.1 9.55,9.4L9.55,3.3M12.9,2C12.5,2 12.167,2.117 11.9,2.35C11.667,2.583 11.55,2.9 11.55,3.3L11.55,10.8C9.45,11.4 7.567,12.5 5.9,14.1C3.3,16.633 2,19.7 2,23.3C2,26.867 3.3,29.917 5.9,32.45C7.4,33.95 9.083,35 10.95,35.6L11.45,38.7C11.517,39 11.65,39.25 11.85,39.45C12.083,39.65 12.35,39.767 12.65,39.8C19.217,40.4 24.9,39.417 29.7,36.85C29.967,36.717 30.15,36.5 30.25,36.2C30.417,35.967 30.467,35.717 30.4,35.45L30.1,34.15C31.533,33.65 32.9,33.083 34.2,32.45C36.2,31.483 37.8,30.433 39,29.3L42.2,32.4C44.2,34.333 46.183,34.333 48.15,32.4L54.5,26.2C56.5,24.267 56.5,22.333 54.5,20.4L48.15,14.2C46.183,12.267 44.2,12.267 42.2,14.2L39.05,17.3C37.883,16.233 36.383,15.233 34.55,14.3L36.1,11C36.2,10.7 36.217,10.4 36.15,10.1C36.083,9.8 35.917,9.55 35.65,9.35C29.05,4.483 21.467,2.033 12.9,2Z" style="fill:rgb(27,126,68);fill-rule:nonzero;"/>
        <path d="M39.05,17.3L42.2,14.2C44.2,12.267 46.183,12.267 48.15,14.2L54.5,20.4C56.5,22.333 56.5,24.267 54.5,26.2L48.15,32.4C46.183,34.333 44.2,34.333 42.2,32.4L39,29.3C40.933,27.467 41.9,25.467 41.9,23.3C41.9,21.1 40.95,19.1 39.05,17.3M15.1,36.25L15.5,36.25C16.967,36.25 18.367,36.217 19.7,36.15C23.5,35.85 26.967,35.183 30.1,34.15L30.4,35.45C30.467,35.717 30.417,35.967 30.25,36.2C30.15,36.5 29.967,36.717 29.7,36.85C24.9,39.417 19.217,40.4 12.65,39.8C12.35,39.767 12.083,39.65 11.85,39.45C11.65,39.25 11.517,39 11.45,38.7L10.95,35.6C12.25,36.033 13.633,36.25 15.1,36.25M18.7,25.2C20.567,25.1 22.417,24.917 24.25,24.65C27.183,24.217 30.1,23.567 33,22.7C33.267,22.633 33.517,22.633 33.75,22.7C34.017,22.767 34.233,22.9 34.4,23.1C34.567,23.267 34.667,23.483 34.7,23.75L35.05,26.45C35.083,26.717 35.05,26.95 34.95,27.15C34.85,27.417 34.667,27.6 34.4,27.7C30.7,29.633 26.733,31 22.5,31.8C21.833,31.9 21.15,32 20.45,32.1C20.117,32.133 19.817,32.067 19.55,31.9C19.283,31.767 19.1,31.55 19,31.25L17.55,26.85C17.483,26.583 17.467,26.333 17.5,26.1C17.633,25.833 17.8,25.617 18,25.45C18.233,25.283 18.467,25.2 18.7,25.2M11.9,2.35C12.167,2.117 12.5,2 12.9,2C21.467,2.033 29.05,4.483 35.65,9.35C35.917,9.55 36.083,9.8 36.15,10.1C36.217,10.4 36.2,10.7 36.1,11L34.55,14.3C34.45,14.233 34.333,14.167 34.2,14.1C30.3,12.2 25.8,11.017 20.7,10.55C19.033,10.383 17.3,10.3 15.5,10.3L15.1,10.3C13.867,10.333 12.683,10.5 11.55,10.8L11.55,3.3C11.55,2.9 11.667,2.583 11.9,2.35Z" style="fill:rgb(44,198,109);fill-rule:nonzero;"/>
        <path d="M24.25,24.65C24.317,24.017 24.35,23.367 24.35,22.7C24.35,21.2 24.217,19.767 23.95,18.4C23.45,15.467 22.367,12.85 20.7,10.55C25.8,11.017 30.3,12.2 34.2,14.1C34.333,14.167 34.45,14.233 34.55,14.3C36.383,15.233 37.883,16.233 39.05,17.3C40.95,19.1 41.9,21.1 41.9,23.3C41.9,25.467 40.933,27.467 39,29.3C37.8,30.433 36.2,31.483 34.2,32.45C32.9,33.083 31.533,33.65 30.1,34.15C26.967,35.183 23.5,35.85 19.7,36.15C19.9,35.883 20.1,35.633 20.3,35.4C21.167,34.267 21.9,33.067 22.5,31.8C26.733,31 30.7,29.633 34.4,27.7C34.667,27.6 34.85,27.417 34.95,27.15C35.05,26.95 35.083,26.717 35.05,26.45L34.7,23.75C34.667,23.483 34.567,23.267 34.4,23.1C34.233,22.9 34.017,22.767 33.75,22.7C33.517,22.633 33.267,22.633 33,22.7C30.1,23.567 27.183,24.217 24.25,24.65Z" style="fill:rgb(39,174,96);fill-rule:nonzero;"/>
        <path d="M15.1,10.3L15.5,10.3C17.3,10.3 19.033,10.383 20.7,10.55C22.367,12.85 23.45,15.467 23.95,18.4C24.217,19.767 24.35,21.2 24.35,22.7C24.35,23.367 24.317,24.017 24.25,24.65C22.417,24.917 20.567,25.1 18.7,25.2C18.467,25.2 18.233,25.283 18,25.45C17.8,25.617 17.633,25.833 17.5,26.1C17.467,26.333 17.483,26.583 17.55,26.85L19,31.25C19.1,31.55 19.283,31.767 19.55,31.9C19.817,32.067 20.117,32.133 20.45,32.1C21.15,32 21.833,31.9 22.5,31.8C21.9,33.067 21.167,34.267 20.3,35.4C20.1,35.633 19.9,35.883 19.7,36.15C18.367,36.217 16.967,36.25 15.5,36.25L15.1,36.25C13.633,36.25 12.25,36.033 10.95,35.6C9.083,35 7.4,33.95 5.9,32.45C3.3,29.917 2,26.867 2,23.3C2,19.7 3.3,16.633 5.9,14.1C7.567,12.5 9.45,11.4 11.55,10.8C12.683,10.5 13.867,10.333 15.1,10.3M12.25,19.45C11.717,18.917 11.083,18.65 10.35,18.65C9.617,18.65 8.983,18.917 8.45,19.45C7.917,19.983 7.65,20.6 7.65,21.3C7.65,22.033 7.917,22.65 8.45,23.15C8.983,23.683 9.617,23.95 10.35,23.95C11.083,23.95 11.717,23.683 12.25,23.15C12.783,22.65 13.05,22.033 13.05,21.3C13.05,20.6 12.783,19.983 12.25,19.45Z" style="fill:rgb(37,166,91);fill-rule:nonzero;"/>
        <path d="M10.35,18.65C11.083,18.65 11.717,18.917 12.25,19.45C12.783,19.983 13.05,20.6 13.05,21.3C13.05,22.033 12.783,22.65 12.25,23.15C11.717,23.683 11.083,23.95 10.35,23.95C9.617,23.95 8.983,23.683 8.45,23.15C7.917,22.65 7.65,22.033 7.65,21.3C7.65,20.6 7.917,19.983 8.45,19.45C8.983,18.917 9.617,18.65 10.35,18.65Z" style="fill:rgb(29,133,72);fill-rule:nonzero;"/>
    </g>
</svg>
