<?xml version="1.0" encoding="UTF-8" standalone="no"?>
<!DOCTYPE svg PUBLIC "-//W3C//DTD SVG 1.1//EN" "http://www.w3.org/Graphics/SVG/1.1/DTD/svg11.dtd">
<svg width="55px" height="44px" version="1.1" xmlns="http://www.w3.org/2000/svg" xmlns:xlink="http://www.w3.org/1999/xlink" xml:space="preserve" xmlns:serif="http://www.serif.com/" style="fill-rule:evenodd;clip-rule:evenodd;stroke-linejoin:round;stroke-miterlimit:2;">
    <g id="Layer0_57_FILL">
        <path d="M15.401,8.55C14.684,9.132 14.268,9.816 14.151,10.6C13.994,11.243 14.044,11.926 14.301,12.65C14.339,12.732 14.373,12.798 14.401,12.85L15.201,14.5L15.751,16.15L15.551,21.25L13.601,21.35C13.974,20.94 14.391,20.54 14.851,20.15C15.169,19.898 15.386,19.581 15.501,19.2C15.624,18.816 15.624,18.433 15.501,18.05C15.405,17.666 15.205,17.333 14.901,17.05L11.051,13.8L11.051,13.75C9.403,12.308 7.703,11.608 5.951,11.65C4.564,11.525 3.181,12.325 1.801,14.05C1.811,14.067 1.811,14.084 1.801,14.1L0.751,15.5C0.501,15.834 0.367,16.201 0.351,16.6C0.339,17.03 0.439,17.414 0.651,17.75C3.822,22.733 3.722,27.7 0.351,32.65C0.108,33.023 -0.009,33.423 0.001,33.85C0.01,34.276 0.144,34.659 0.401,35L1.801,36.85C1.827,36.875 1.844,36.891 1.851,36.9C3.221,38.537 4.587,39.303 5.951,39.2C7.693,39.23 9.376,38.547 11.001,37.15L11.051,37.15L14.551,34.2C14.821,33.979 15.004,33.696 15.101,33.35L15.051,35.2C15.036,35.588 15.119,35.938 15.301,36.25C15.48,36.587 15.73,36.837 16.051,37C16.548,37.308 17.082,37.608 17.651,37.9C18.233,38.185 18.833,38.451 19.451,38.7L19.301,38.65C19.654,38.822 20.02,38.972 20.401,39.1C20.826,39.232 21.242,39.232 21.651,39.1C22.059,38.974 22.392,38.741 22.651,38.4C22.909,38.06 23.042,37.676 23.051,37.25L23.201,29.1L26.051,28.95L25.801,39.4C25.788,39.862 25.921,40.279 26.201,40.65C26.483,41.019 26.85,41.252 27.301,41.35C28.641,41.718 30.024,42.034 31.451,42.3C31.863,42.391 32.246,42.358 32.601,42.2C32.991,42.039 33.291,41.789 33.501,41.45C33.737,41.117 33.854,40.75 33.851,40.35L33.851,28.55L35.701,28.45C35.797,30.837 35.997,33.204 36.301,35.55C36.59,37.617 36.957,39.667 37.401,41.7C37.497,42.145 37.714,42.512 38.051,42.8C38.383,43.096 38.766,43.262 39.201,43.3C39.626,43.331 40.042,43.348 40.451,43.35C40.859,43.383 41.276,43.4 41.701,43.4C41.734,43.4 41.767,43.4 41.801,43.4C42.467,43.434 43.134,43.451 43.801,43.45L45.051,43.45C45.106,43.452 45.156,43.452 45.201,43.45C47.845,43.366 50.095,41.466 51.951,37.75C53.647,34.472 54.497,30.489 54.501,25.8C54.504,21.079 53.671,17.062 52.001,13.75L51.951,13.7C50.192,10.282 48.092,8.432 45.651,8.15C45.567,8.16 45.484,8.16 45.401,8.15L45.401,3.45C45.404,2.423 45.071,1.589 44.401,0.95C44.384,0.943 44.351,0.926 44.301,0.9C43.659,0.298 42.859,-0.002 41.901,0L41.851,0C36.988,0.038 32.388,0.755 28.051,2.15L28.101,2.1C25.563,2.889 23.113,3.922 20.751,5.2C20.75,5.224 20.733,5.241 20.701,5.25C19.408,5.941 18.142,6.691 16.901,7.5C16.399,7.848 15.899,8.198 15.401,8.55M16.151,11C16.184,10.667 16.351,10.383 16.651,10.15C17.084,9.817 17.534,9.5 18.001,9.2C19.201,8.4 20.434,7.667 21.701,7C23.934,5.767 26.267,4.783 28.701,4.05C32.834,2.717 37.234,2.033 41.901,2C42.334,2 42.701,2.133 43.001,2.4C43.267,2.667 43.401,3.017 43.401,3.45L43.401,8C38.301,7.633 33.351,8.05 28.551,9.25C26.184,9.817 23.867,10.583 21.601,11.55C20.334,12.083 19.084,12.683 17.851,13.35C17.584,13.483 17.317,13.617 17.051,13.75L16.201,12C16.067,11.633 16.051,11.3 16.151,11M2.351,16.7L3.401,15.3C4.267,14.2 5.117,13.65 5.951,13.65C7.251,13.65 8.517,14.2 9.751,15.3L13.601,18.6C11.767,20.1 10.584,21.75 10.051,23.55L17.501,23.15L17.751,15.85C17.817,15.817 17.884,15.783 17.951,15.75C18.651,15.383 19.401,15.017 20.201,14.65C20.634,14.45 21.084,14.267 21.551,14.1L21.351,22.95L28.201,22.6L28.501,11.95C29.567,11.683 30.684,11.45 31.851,11.25L31.851,22.45L37.801,22.15C37.867,20.883 37.967,19.617 38.101,18.35C38.367,15.917 38.734,13.5 39.201,11.1C39.234,10.833 39.284,10.583 39.351,10.35C40.184,10.283 41.001,10.233 41.801,10.2C42.334,10.167 42.867,10.15 43.401,10.15L43.801,10.15C44.101,10.117 44.417,10.1 44.751,10.1L45.051,10.1L45.051,10.15C47.017,10.317 48.734,11.817 50.201,14.65C51.734,17.717 52.501,21.433 52.501,25.8C52.501,30.133 51.734,33.817 50.201,36.85C48.734,39.75 47.017,41.283 45.051,41.45L43.801,41.45C43.134,41.45 42.467,41.433 41.801,41.4C41.401,41.4 41.017,41.383 40.651,41.35C40.217,41.35 39.784,41.333 39.351,41.3C38.917,39.3 38.567,37.3 38.301,35.3C37.901,32.333 37.701,29.35 37.701,26.35L31.851,26.65L31.851,40.35C30.451,40.083 29.101,39.783 27.801,39.45L28.101,26.85L21.251,27.2L21.051,37.2C20.751,37.1 20.467,36.983 20.201,36.85C19.634,36.617 19.084,36.367 18.551,36.1C18.017,35.833 17.517,35.567 17.051,35.3L17.351,27.4L9.951,27.75C10.417,29.517 11.517,31.167 13.251,32.7L9.751,35.65C8.517,36.683 7.251,37.2 5.951,37.2C5.117,37.2 4.267,36.683 3.401,35.65L2.001,33.8C5.867,28.1 5.984,22.4 2.351,16.7M13.051,29.6L15.251,29.5L15.151,32.15C15.06,31.776 14.86,31.46 14.551,31.2C13.981,30.684 13.481,30.151 13.051,29.6M23.401,18.9L26.301,18.65L26.251,20.7L23.401,20.85L23.401,18.9M36.101,18.1L36.101,18.15C36.029,18.847 35.962,19.547 35.901,20.25L33.851,20.35L33.851,18L36.101,17.8C36.112,17.92 36.112,18.02 36.101,18.1M44.801,22.65C44.801,23.183 44.984,23.633 45.351,24C45.751,24.433 46.201,24.65 46.701,24.65C47.267,24.65 47.717,24.433 48.051,24C48.484,23.633 48.701,23.183 48.701,22.65C48.701,22.15 48.484,21.7 48.051,21.3C47.717,20.9 47.267,20.7 46.701,20.7C46.201,20.7 45.751,20.9 45.351,21.3C44.984,21.7 44.801,22.15 44.801,22.65Z" style="fill:rgb(163,156,125);fill-rule:nonzero;"/>
        <path d="M39.351,10.35C39.284,10.583 39.234,10.833 39.201,11.1C38.734,13.5 38.367,15.917 38.101,18.35C37.967,19.617 37.867,20.883 37.801,22.15C37.734,23.55 37.701,24.95 37.701,26.35C37.701,29.35 37.901,32.333 38.301,35.3C38.567,37.3 38.917,39.3 39.351,41.3C39.784,41.333 40.217,41.35 40.651,41.35C41.017,41.383 41.401,41.4 41.801,41.4C42.467,41.433 43.134,41.45 43.801,41.45L45.051,41.45C47.017,41.283 48.734,39.75 50.201,36.85C51.734,33.817 52.501,30.133 52.501,25.8C52.501,21.433 51.734,17.717 50.201,14.65C48.734,11.817 47.017,10.317 45.051,10.15L45.051,10.1L44.751,10.1C44.417,10.1 44.101,10.117 43.801,10.15L43.401,10.15C42.867,10.15 42.334,10.167 41.801,10.2C41.001,10.233 40.184,10.283 39.351,10.35M45.351,24C44.984,23.633 44.801,23.183 44.801,22.65C44.801,22.15 44.984,21.7 45.351,21.3C45.751,20.9 46.201,20.7 46.701,20.7C47.267,20.7 47.717,20.9 48.051,21.3C48.484,21.7 48.701,22.15 48.701,22.65C48.701,23.183 48.484,23.633 48.051,24C47.717,24.433 47.267,24.65 46.701,24.65C46.201,24.65 45.751,24.433 45.351,24M28.501,11.95L28.201,22.6L28.101,26.85L27.801,39.45C29.101,39.783 30.451,40.083 31.851,40.35L31.851,11.25C30.684,11.45 29.567,11.683 28.501,11.95M17.351,27.4L17.051,35.3C17.517,35.567 18.017,35.833 18.551,36.1C19.084,36.367 19.634,36.617 20.201,36.85C20.467,36.983 20.751,37.1 21.051,37.2L21.251,27.2L21.351,22.95L21.551,14.1C21.084,14.267 20.634,14.45 20.201,14.65C19.401,15.017 18.651,15.383 17.951,15.75C17.884,15.783 17.817,15.817 17.751,15.85L17.501,23.15L17.351,27.4M3.401,15.3L2.351,16.7C5.984,22.4 5.867,28.1 2.001,33.8L3.401,35.65C4.267,36.683 5.117,37.2 5.951,37.2C7.251,37.2 8.517,36.683 9.751,35.65L13.251,32.7C11.517,31.167 10.417,29.517 9.951,27.75C9.784,27.117 9.701,26.467 9.701,25.8C9.701,25.033 9.817,24.283 10.051,23.55C10.584,21.75 11.767,20.1 13.601,18.6L9.751,15.3C8.517,14.2 7.251,13.65 5.951,13.65C5.117,13.65 4.267,14.2 3.401,15.3M16.651,10.15C16.351,10.383 16.184,10.667 16.151,11C16.051,11.3 16.067,11.633 16.201,12L17.051,13.75C17.317,13.617 17.584,13.483 17.851,13.35C19.084,12.683 20.334,12.083 21.601,11.55C23.867,10.583 26.184,9.817 28.551,9.25C33.351,8.05 38.301,7.633 43.401,8L43.401,3.45C43.401,3.017 43.267,2.667 43.001,2.4C42.701,2.133 42.334,2 41.901,2C37.234,2.033 32.834,2.717 28.701,4.05C26.267,4.783 23.934,5.767 21.701,7C20.434,7.667 19.201,8.4 18.001,9.2C17.534,9.5 17.084,9.817 16.651,10.15Z" style="fill:rgb(238,228,183);fill-rule:nonzero;"/>
        <path d="M28.201,22.6L21.351,22.95L21.251,27.2L28.101,26.85L28.201,22.6M37.801,22.15L31.851,22.45L31.851,26.65L37.701,26.35C37.701,24.95 37.734,23.55 37.801,22.15M17.501,23.15L10.051,23.55C9.817,24.283 9.701,25.033 9.701,25.8C9.701,26.467 9.784,27.117 9.951,27.75L17.351,27.4L17.501,23.15Z" style="fill:rgb(194,185,149);fill-rule:nonzero;"/>
    </g>
</svg>
