<?xml version="1.0" encoding="UTF-8" standalone="no"?>
<!DOCTYPE svg PUBLIC "-//W3C//DTD SVG 1.1//EN" "http://www.w3.org/Graphics/SVG/1.1/DTD/svg11.dtd">
<svg width="55px" height="32px" version="1.1" xmlns="http://www.w3.org/2000/svg" xmlns:xlink="http://www.w3.org/1999/xlink" xml:space="preserve" xmlns:serif="http://www.serif.com/" style="fill-rule:evenodd;clip-rule:evenodd;stroke-linejoin:round;stroke-miterlimit:2;">
    <g id="Layer0_55_FILL">
        <path d="M14.711,11.2C14.527,11.523 14.427,11.857 14.411,12.2L14.361,13.05C14.249,12.911 14.099,12.778 13.911,12.65L9.261,9.65L9.311,9.65C7.757,8.632 6.157,8.132 4.511,8.15C3.206,8.089 1.906,8.672 0.611,9.9C0.261,10.25 0.061,10.667 0.011,11.15C-0.033,11.663 0.084,12.113 0.361,12.5C3.468,16.764 3.468,20.997 0.361,25.2C0.078,25.629 -0.039,26.096 0.011,26.6C0.065,27.103 0.282,27.52 0.661,27.85C1.933,29.037 3.216,29.603 4.511,29.55C6.148,29.559 7.731,29.059 9.261,28.05L13.561,25.3C13.706,25.237 13.823,25.154 13.911,25.05L13.911,25.6C13.895,25.99 13.978,26.34 14.161,26.65C14.348,26.997 14.598,27.264 14.911,27.45C15.299,27.654 15.699,27.837 16.111,28L16.061,28C16.326,28.108 16.609,28.208 16.911,28.3L16.811,28.3C17.096,28.417 17.413,28.534 17.761,28.65C18.187,28.782 18.604,28.782 19.011,28.65C19.418,28.524 19.751,28.29 20.011,27.95C20.268,27.61 20.401,27.227 20.411,26.8L20.561,22.2L22.211,22.15L22.011,28.2C21.989,28.722 22.139,29.172 22.461,29.55C22.79,29.958 23.206,30.191 23.711,30.25C24.586,30.4 25.502,30.533 26.461,30.65C26.851,30.72 27.217,30.67 27.561,30.5C27.911,30.364 28.194,30.131 28.411,29.8C28.628,29.496 28.745,29.146 28.761,28.75L29.061,20.7C29.103,21.138 29.136,21.571 29.161,22C29.442,24.55 30.042,27.117 30.961,29.7C31.119,30.11 31.369,30.427 31.711,30.65C32.056,30.913 32.44,31.046 32.861,31.05L33.061,31.05C37.991,31.001 43.007,29.367 48.111,26.15C50.823,24.443 52.59,22.909 53.411,21.55C54.822,19.398 54.688,17.548 53.011,16L52.961,16C51.158,14.277 48.592,12.444 45.261,10.5L45.211,10.5C44.07,9.865 42.987,9.332 41.961,8.9L41.811,3.05C41.804,2.139 41.504,1.406 40.911,0.85C40.887,0.834 40.854,0.801 40.811,0.75C40.224,0.248 39.507,-0.002 38.661,0C30.998,0.044 24.215,2.228 18.311,6.55L18.261,6.6C17.657,7.046 17.273,7.613 17.111,8.3C16.969,8.796 16.969,9.313 17.111,9.85C16.777,9.983 16.443,10.117 16.111,10.25C15.889,10.333 15.689,10.416 15.511,10.5C15.19,10.67 14.923,10.903 14.711,11.2M16.211,17.7L16.411,12.3C16.545,12.233 16.695,12.167 16.861,12.1C17.528,11.833 18.211,11.583 18.911,11.35L18.711,17.6L24.411,17.35L24.661,9.9C25.595,9.733 26.561,9.6 27.561,9.5L27.261,17.2L31.111,17.05C31.145,16.483 31.211,15.933 31.311,15.4C31.511,13.667 31.911,11.95 32.511,10.25C32.611,9.883 32.728,9.533 32.861,9.2C32.928,9.2 34.061,9.267 36.261,9.4C37.328,9.433 38.511,9.7 39.811,10.2C41.145,10.667 42.628,11.35 44.261,12.25C47.428,14.083 49.878,15.817 51.611,17.45C53.311,19.117 51.795,21.45 47.061,24.45C42.295,27.45 37.628,28.983 33.061,29.05L32.861,29.05C31.761,25.983 31.161,22.95 31.061,19.95L27.111,20.05L26.761,28.7C25.795,28.567 24.878,28.433 24.011,28.3L24.311,20.1L18.611,20.25L18.411,26.75C18.111,26.65 17.845,26.55 17.611,26.45C17.345,26.35 17.095,26.25 16.861,26.15C16.528,26.017 16.211,25.867 15.911,25.7L16.111,20.35L10.211,20.5C10.545,21.633 11.311,22.683 12.511,23.65L8.211,26.4C7.011,27.167 5.778,27.55 4.511,27.55C3.678,27.55 2.845,27.167 2.011,26.4C5.678,21.4 5.678,16.383 2.011,11.35C2.845,10.55 3.678,10.15 4.511,10.15C5.778,10.15 7.011,10.55 8.211,11.35L12.861,14.35C11.395,15.417 10.495,16.617 10.161,17.95L16.211,17.7M19.061,8.85C19.095,8.583 19.228,8.367 19.461,8.2C25.028,4.1 31.428,2.033 38.661,2C38.995,2 39.278,2.1 39.511,2.3C39.711,2.5 39.811,2.767 39.811,3.1L39.811,7.7C33.511,6.967 26.695,7.783 19.361,10.15L19.111,9.6C19.011,9.333 18.995,9.083 19.061,8.85M42.861,16.35C42.461,16.35 42.111,16.5 41.811,16.8C41.511,17.1 41.361,17.45 41.361,17.85C41.361,18.25 41.511,18.6 41.811,18.9C42.111,19.2 42.461,19.35 42.861,19.35C43.295,19.35 43.661,19.2 43.961,18.9C44.261,18.6 44.411,18.25 44.411,17.85C44.411,17.45 44.261,17.1 43.961,16.8C43.661,16.5 43.295,16.35 42.861,16.35Z" style="fill:rgb(163,156,125);fill-rule:nonzero;"/>
        <path d="M19.461,8.2C19.228,8.367 19.095,8.583 19.061,8.85C18.995,9.083 19.011,9.333 19.111,9.6L19.361,10.15C26.695,7.783 33.511,6.967 39.811,7.7L39.811,3.1C39.811,2.767 39.711,2.5 39.511,2.3C39.278,2.1 38.995,2 38.661,2C31.428,2.033 25.028,4.1 19.461,8.2M31.311,15.4C31.211,15.933 31.145,16.483 31.111,17.05C31.045,17.983 31.028,18.95 31.061,19.95C31.161,22.95 31.761,25.983 32.861,29.05L33.061,29.05C37.628,28.983 42.295,27.45 47.061,24.45C51.795,21.45 53.311,19.117 51.611,17.45C49.878,15.817 47.428,14.083 44.261,12.25C42.628,11.35 41.145,10.667 39.811,10.2C38.511,9.7 37.328,9.433 36.261,9.4C34.061,9.267 32.928,9.2 32.861,9.2C32.728,9.533 32.611,9.883 32.511,10.25C31.911,11.95 31.511,13.667 31.311,15.4M41.811,16.8C42.111,16.5 42.461,16.35 42.861,16.35C43.295,16.35 43.661,16.5 43.961,16.8C44.261,17.1 44.411,17.45 44.411,17.85C44.411,18.25 44.261,18.6 43.961,18.9C43.661,19.2 43.295,19.35 42.861,19.35C42.461,19.35 42.111,19.2 41.811,18.9C41.511,18.6 41.361,18.25 41.361,17.85C41.361,17.45 41.511,17.1 41.811,16.8M24.661,9.9L24.411,17.35L24.311,20.1L24.011,28.3C24.878,28.433 25.795,28.567 26.761,28.7L27.111,20.05L27.261,17.2L27.561,9.5C26.561,9.6 25.595,9.733 24.661,9.9M12.861,14.35L8.211,11.35C7.011,10.55 5.778,10.15 4.511,10.15C3.678,10.15 2.845,10.55 2.011,11.35C5.678,16.383 5.678,21.4 2.011,26.4C2.845,27.167 3.678,27.55 4.511,27.55C5.778,27.55 7.011,27.167 8.211,26.4L12.511,23.65C11.311,22.683 10.545,21.633 10.211,20.5C10.078,20.067 10.011,19.617 10.011,19.15C10.011,18.717 10.061,18.317 10.161,17.95C10.495,16.617 11.395,15.417 12.861,14.35M16.411,12.3L16.211,17.7L16.111,20.35L15.911,25.7C16.211,25.867 16.528,26.017 16.861,26.15C17.095,26.25 17.345,26.35 17.611,26.45C17.845,26.55 18.111,26.65 18.411,26.75L18.611,20.25L18.711,17.6L18.911,11.35C18.211,11.583 17.528,11.833 16.861,12.1C16.695,12.167 16.545,12.233 16.411,12.3Z" style="fill:rgb(238,228,183);fill-rule:nonzero;"/>
        <path d="M31.111,17.05L27.261,17.2L27.111,20.05L31.061,19.95C31.028,18.95 31.045,17.983 31.111,17.05M24.411,17.35L18.711,17.6L18.611,20.25L24.311,20.1L24.411,17.35M16.211,17.7L10.161,17.95C10.061,18.317 10.011,18.717 10.011,19.15C10.011,19.617 10.078,20.067 10.211,20.5L16.111,20.35L16.211,17.7Z" style="fill:rgb(194,185,149);fill-rule:nonzero;"/>
    </g>
</svg>
