<?xml version="1.0" encoding="UTF-8" standalone="no"?>
<!DOCTYPE svg PUBLIC "-//W3C//DTD SVG 1.1//EN" "http://www.w3.org/Graphics/SVG/1.1/DTD/svg11.dtd">
<svg width="39px" height="27px" version="1.1" xmlns="http://www.w3.org/2000/svg" xmlns:xlink="http://www.w3.org/1999/xlink" xml:space="preserve" xmlns:serif="http://www.serif.com/" style="fill-rule:evenodd;clip-rule:evenodd;stroke-linejoin:round;stroke-miterlimit:2;">
    <g id="Layer0_53_FILL">
        <path d="M30.809,4.257C30.787,4.039 30.737,3.805 30.659,3.557C30.632,3.483 30.599,3.4 30.559,3.307C30.198,2.599 29.648,2.133 28.909,1.907C24.022,-0.165 19.305,-0.549 14.759,0.757C14.639,0.806 14.522,0.856 14.409,0.907C14.006,1.104 13.656,1.404 13.359,1.807C13.229,1.985 13.129,2.168 13.059,2.357C12.917,2.8 12.85,3.2 12.859,3.557C12.86,3.654 12.86,3.754 12.859,3.857L13.259,6.557L12.409,6.857L10.409,5.107C8.009,3.093 5.609,3.093 3.209,5.107L0.709,7.257C0.402,7.539 0.185,7.872 0.059,8.257C-0.033,8.649 -0.017,9.032 0.109,9.407C0.231,9.807 0.447,10.124 0.759,10.357C1.968,11.33 2.635,12.213 2.759,13.007C2.638,13.763 2.005,14.53 0.859,15.307C0.527,15.548 0.277,15.865 0.109,16.257C-0.017,16.65 -0.034,17.05 0.059,17.457C0.178,17.864 0.395,18.197 0.709,18.457L3.209,20.607C5.609,22.655 8.009,22.655 10.409,20.607L12.159,19.107L13.759,19.657C13.746,19.707 13.729,19.757 13.709,19.807C13.53,20.249 13.447,20.649 13.459,21.007C13.462,21.139 13.479,21.272 13.509,21.407C13.572,21.759 13.672,22.076 13.809,22.357C13.862,22.452 13.912,22.535 13.959,22.607L15.959,25.407L16.009,25.457C16.385,25.958 16.851,26.275 17.409,26.407C18.248,26.73 18.964,26.646 19.559,26.157C21.737,25.204 23.721,23.687 25.509,21.607L29.659,21.807C29.695,21.808 29.728,21.808 29.759,21.807L30.159,21.807C32.586,21.808 34.636,20.941 36.309,19.207C38.048,17.494 38.914,15.427 38.909,13.007C38.914,10.586 38.048,8.503 36.309,6.757C34.788,5.243 32.955,4.41 30.809,4.257M34.909,8.207C36.242,9.54 36.909,11.14 36.909,13.007C36.909,14.874 36.242,16.474 34.909,17.807C33.609,19.14 32.026,19.807 30.159,19.807L29.759,19.807L24.109,14.157L21.659,14.157L21.959,19.257C22.792,19.357 23.676,19.457 24.609,19.557C22.809,21.857 20.776,23.49 18.509,24.457C18.376,24.557 18.209,24.557 18.009,24.457C17.842,24.457 17.709,24.39 17.609,24.257L15.609,21.457C15.542,21.324 15.492,21.174 15.459,21.007C15.459,20.874 15.492,20.724 15.559,20.557C15.626,20.39 15.726,20.29 15.859,20.257C16.692,19.757 17.476,19.224 18.209,18.657C18.609,18.724 19.026,18.807 19.459,18.907L19.259,14.157L16.709,14.157L16.709,18.357C16.076,18.19 15.459,18.04 14.859,17.907L14.659,14.157L8.059,14.157C8.592,15.124 9.826,16.024 11.759,16.857L9.109,19.107C7.576,20.407 6.042,20.407 4.509,19.107L2.009,16.957C5.676,14.424 5.676,11.707 2.009,8.807L4.509,6.657C6.042,5.357 7.576,5.357 9.109,6.657L11.959,9.107C9.692,10.04 8.342,11.074 7.909,12.207L14.509,12.007L14.309,8.307C14.376,8.274 14.459,8.24 14.559,8.207C14.859,8.107 15.176,8.024 15.509,7.957L14.859,3.557C14.859,3.39 14.892,3.207 14.959,3.007C15.059,2.874 15.176,2.774 15.309,2.707C19.476,1.507 23.809,1.874 28.309,3.807C28.509,3.874 28.659,4.007 28.759,4.207C28.826,4.407 28.842,4.607 28.809,4.807L28.409,6.357C25.876,6.424 23.492,6.607 21.259,6.907L21.509,11.757L24.459,11.657L29.759,6.307C29.892,6.274 30.026,6.257 30.159,6.257C32.026,6.257 33.609,6.907 34.909,8.207M16.709,7.707L16.709,11.907L19.159,11.807L18.959,7.257C18.192,7.357 17.442,7.507 16.709,7.707M34.159,13.707C34.592,13.34 34.809,12.874 34.809,12.307C34.809,11.774 34.592,11.307 34.159,10.907C33.792,10.507 33.326,10.307 32.759,10.307C32.226,10.307 31.759,10.507 31.359,10.907C30.959,11.307 30.759,11.774 30.759,12.307C30.759,12.874 30.959,13.34 31.359,13.707C31.759,14.14 32.226,14.357 32.759,14.357C33.326,14.357 33.792,14.14 34.159,13.707Z" style="fill:rgb(163,156,125);fill-rule:nonzero;"/>
        <path d="M23.009,13.057L24.459,11.657L21.509,11.757L21.659,14.157L24.109,14.157L23.009,13.057M19.159,11.807L16.709,11.907L16.709,14.157L19.259,14.157L19.159,11.807M7.909,12.207C7.809,12.474 7.759,12.74 7.759,13.007C7.759,13.407 7.859,13.79 8.059,14.157L14.659,14.157L14.509,12.007L7.909,12.207Z" style="fill:rgb(194,185,149);fill-rule:nonzero;"/>
        <path d="M14.959,3.007C14.892,3.207 14.859,3.39 14.859,3.557L15.509,7.957C15.176,8.024 14.859,8.107 14.559,8.207C14.459,8.24 14.376,8.274 14.309,8.307L14.509,12.007L14.659,14.157L14.859,17.907C15.459,18.04 16.076,18.19 16.709,18.357L16.709,7.707C17.442,7.507 18.192,7.357 18.959,7.257L19.159,11.807L19.259,14.157L19.459,18.907C19.026,18.807 18.609,18.724 18.209,18.657C17.476,19.224 16.692,19.757 15.859,20.257C15.726,20.29 15.626,20.39 15.559,20.557C15.492,20.724 15.459,20.874 15.459,21.007C15.492,21.174 15.542,21.324 15.609,21.457L17.609,24.257C17.709,24.39 17.842,24.457 18.009,24.457C18.209,24.557 18.376,24.557 18.509,24.457C20.776,23.49 22.809,21.857 24.609,19.557C23.676,19.457 22.792,19.357 21.959,19.257L21.659,14.157L21.509,11.757L21.259,6.907C23.492,6.607 25.876,6.424 28.409,6.357L28.809,4.807C28.842,4.607 28.826,4.407 28.759,4.207C28.659,4.007 28.509,3.874 28.309,3.807C23.809,1.874 19.476,1.507 15.309,2.707C15.176,2.774 15.059,2.874 14.959,3.007M4.509,6.657L2.009,8.807C5.676,11.707 5.676,14.424 2.009,16.957L4.509,19.107C6.042,20.407 7.576,20.407 9.109,19.107L11.759,16.857C9.826,16.024 8.592,15.124 8.059,14.157C7.859,13.79 7.759,13.407 7.759,13.007C7.759,12.74 7.809,12.474 7.909,12.207C8.342,11.074 9.692,10.04 11.959,9.107L9.109,6.657C7.576,5.357 6.042,5.357 4.509,6.657M36.909,13.007C36.909,11.14 36.242,9.54 34.909,8.207C33.609,6.907 32.026,6.257 30.159,6.257C30.026,6.257 29.892,6.274 29.759,6.307L24.459,11.657L23.009,13.057L29.759,19.807L30.159,19.807C32.026,19.807 33.609,19.14 34.909,17.807C36.242,16.474 36.909,14.874 36.909,13.007M34.809,12.307C34.809,12.874 34.592,13.34 34.159,13.707C33.792,14.14 33.326,14.357 32.759,14.357C32.226,14.357 31.759,14.14 31.359,13.707C30.959,13.34 30.759,12.874 30.759,12.307C30.759,11.774 30.959,11.307 31.359,10.907C31.759,10.507 32.226,10.307 32.759,10.307C33.326,10.307 33.792,10.507 34.159,10.907C34.592,11.307 34.809,11.774 34.809,12.307Z" style="fill:rgb(238,228,183);fill-rule:nonzero;"/>
    </g>
</svg>
