<?xml version="1.0" encoding="UTF-8" standalone="no"?>
<!DOCTYPE svg PUBLIC "-//W3C//DTD SVG 1.1//EN" "http://www.w3.org/Graphics/SVG/1.1/DTD/svg11.dtd">
<svg width="61px" height="37px" version="1.1" xmlns="http://www.w3.org/2000/svg" xmlns:xlink="http://www.w3.org/1999/xlink" xml:space="preserve" xmlns:serif="http://www.serif.com/" style="fill-rule:evenodd;clip-rule:evenodd;stroke-linejoin:round;stroke-miterlimit:2;">
    <g>
        <path d="M54.553,26.15C57.265,24.443 59.032,22.909 59.853,21.55C61.264,19.398 61.13,17.548 59.453,16L59.403,16C57.6,14.277 55.034,12.444 51.703,10.5L51.653,10.5C50.457,9.823 49.324,9.256 48.253,8.8L48.253,3.1C48.257,2.166 47.957,1.416 47.353,0.85C47.329,0.834 47.296,0.801 47.253,0.75C46.666,0.248 45.949,-0.002 45.103,0C37.44,0.044 30.657,2.228 24.753,6.55L24.703,6.6C24.099,7.046 23.715,7.613 23.553,8.3C23.413,8.788 23.397,9.305 23.503,9.85C23.185,9.977 22.852,10.11 22.503,10.25C21.269,10.778 20.186,11.328 19.253,11.9L15.703,9.65L15.753,9.65C14.199,8.632 12.599,8.132 10.953,8.15C9.648,8.089 8.348,8.672 7.053,9.9L1.853,15.05C0.57,16.309 -0.047,17.576 0.003,18.85C-0.051,20.144 0.566,21.411 1.853,22.65L7.053,27.8C7.072,27.833 7.088,27.849 7.103,27.85C8.375,29.037 9.658,29.603 10.953,29.55C12.59,29.559 14.173,29.059 15.703,28.05L18.853,26.05C19.604,26.566 20.454,27.049 21.403,27.5C21.418,27.737 21.452,27.987 21.503,28.25C21.571,28.911 21.837,29.478 22.303,29.95C22.337,29.973 22.353,29.989 22.353,30C25.666,33.106 29.999,35.106 35.353,36L35.403,36C36.075,36.109 36.691,36.026 37.253,35.75C37.88,35.46 38.347,34.96 38.653,34.25L38.603,34.25L40.003,31.05C44.776,30.89 49.626,29.257 54.553,26.15M58.053,17.45C59.753,19.117 58.237,21.45 53.503,24.45C48.737,27.45 44.07,28.983 39.503,29.05L38.953,29.05C38.866,29.049 38.783,29.049 38.703,29.05C38.691,29.159 38.658,29.259 38.603,29.35L36.803,33.45C36.703,33.683 36.553,33.85 36.353,33.95C36.153,34.05 35.937,34.083 35.703,34.05C30.77,33.217 26.787,31.383 23.753,28.55C23.587,28.383 23.503,28.183 23.503,27.95C23.437,27.717 23.453,27.533 23.553,27.4L24.003,26.45C23.774,26.352 23.541,26.252 23.303,26.15C21.489,25.382 20.039,24.549 18.953,23.65L14.653,26.4C13.453,27.167 12.22,27.55 10.953,27.55C10.12,27.55 9.287,27.167 8.453,26.4L3.253,21.25C1.62,19.65 1.62,18.067 3.253,16.5L8.453,11.35C9.287,10.55 10.12,10.15 10.953,10.15C12.22,10.15 13.453,10.55 14.653,11.35L19.303,14.3C20.346,13.521 21.679,12.788 23.303,12.1C24.239,11.707 25.205,11.357 26.203,11.05L25.553,9.6C25.453,9.333 25.437,9.083 25.503,8.85C25.537,8.583 25.67,8.367 25.903,8.2C31.47,4.1 37.87,2.033 45.103,2C45.437,2 45.72,2.1 45.953,2.3C46.153,2.5 46.253,2.767 46.253,3.1L46.253,10.15C47.6,10.639 49.083,11.339 50.703,12.25C53.87,14.083 56.32,15.817 58.053,17.45Z" style="fill:rgb(33,102,147);fill-rule:nonzero;"/>
        <path d="M38.603,29.35C38.658,29.259 38.691,29.159 38.703,29.05C33.07,28.962 28.17,28.095 24.003,26.45L23.553,27.4C23.453,27.533 23.437,27.717 23.503,27.95C23.503,28.183 23.587,28.383 23.753,28.55C26.787,31.383 30.77,33.217 35.703,34.05C35.937,34.083 36.153,34.05 36.353,33.95C36.553,33.85 36.703,33.683 36.803,33.45L38.603,29.35M40.203,20.95C39.338,21.137 38.471,21.287 37.603,21.4C34.725,21.869 31.791,22.052 28.803,21.95C28.603,21.983 28.42,22.033 28.253,22.1C28.087,22.233 27.953,22.383 27.853,22.55C27.753,22.717 27.703,22.9 27.703,23.1L28.003,25.2C28.037,25.433 28.12,25.617 28.253,25.75C28.387,25.917 28.57,26.017 28.803,26.05C31.971,26.735 35.221,26.952 38.553,26.7C39.12,26.667 39.687,26.617 40.253,26.55C40.553,26.517 40.787,26.4 40.953,26.2C41.12,26.067 41.203,25.867 41.203,25.6L41.403,21.95C41.403,21.75 41.37,21.567 41.303,21.4C41.137,21.233 40.953,21.1 40.753,21C40.553,20.9 40.37,20.883 40.203,20.95M25.553,9.6L26.203,11.05C29.936,9.895 34.186,9.279 38.953,9.2L39.303,9.2C39.37,9.2 40.503,9.267 42.703,9.4C43.757,9.449 44.94,9.699 46.253,10.15L46.253,3.1C46.253,2.767 46.153,2.5 45.953,2.3C45.72,2.1 45.437,2 45.103,2C37.87,2.033 31.47,4.1 25.903,8.2C25.67,8.367 25.537,8.583 25.503,8.85C25.437,9.083 25.453,9.333 25.553,9.6M19.303,14.3L14.653,11.35C13.453,10.55 12.22,10.15 10.953,10.15C10.12,10.15 9.287,10.55 8.453,11.35L3.253,16.5C1.62,18.067 1.62,19.65 3.253,21.25L8.453,26.4C9.287,27.167 10.12,27.55 10.953,27.55C12.22,27.55 13.453,27.167 14.653,26.4L18.953,23.65C17.287,22.298 16.453,20.798 16.453,19.15C16.453,17.367 17.403,15.751 19.303,14.3Z" style="fill:rgb(47,138,198);fill-rule:nonzero;"/>
        <path d="M26.203,11.05C25.205,11.357 24.239,11.707 23.303,12.1C21.679,12.788 20.346,13.521 19.303,14.3C17.403,15.751 16.453,17.367 16.453,19.15C16.453,20.798 17.287,22.298 18.953,23.65C20.039,24.549 21.489,25.382 23.303,26.15C23.541,26.252 23.774,26.352 24.003,26.45C28.17,28.095 33.07,28.962 38.703,29.05C38.783,29.049 38.866,29.049 38.953,29.05L39.303,29.05C39.024,28.269 38.774,27.485 38.553,26.7C35.221,26.952 31.971,26.735 28.803,26.05C28.57,26.017 28.387,25.917 28.253,25.75C28.12,25.617 28.037,25.433 28.003,25.2L27.703,23.1C27.703,22.9 27.753,22.717 27.853,22.55C27.953,22.383 28.087,22.233 28.253,22.1C28.42,22.033 28.603,21.983 28.803,21.95C31.791,22.052 34.725,21.869 37.603,21.4C37.415,19.395 37.448,17.395 37.703,15.4C37.995,13.316 38.528,11.249 39.303,9.2L38.953,9.2C34.186,9.279 29.936,9.895 26.203,11.05Z" style="fill:rgb(52,152,219);fill-rule:nonzero;"/>
        <path d="M53.503,24.45C58.237,21.45 59.753,19.117 58.053,17.45C56.32,15.817 53.87,14.083 50.703,12.25C49.083,11.339 47.6,10.639 46.253,10.15C44.94,9.699 43.757,9.449 42.703,9.4C40.503,9.267 39.37,9.2 39.303,9.2C38.528,11.249 37.995,13.316 37.703,15.4C37.448,17.395 37.415,19.395 37.603,21.4C38.471,21.287 39.338,21.137 40.203,20.95C40.37,20.883 40.553,20.9 40.753,21C40.953,21.1 41.137,21.233 41.303,21.4C41.37,21.567 41.403,21.75 41.403,21.95L41.203,25.6C41.203,25.867 41.12,26.067 40.953,26.2C40.787,26.4 40.553,26.517 40.253,26.55C39.687,26.617 39.12,26.667 38.553,26.7C38.774,27.485 39.024,28.269 39.303,29.05L39.503,29.05C44.07,28.983 48.737,27.45 53.503,24.45M48.253,18.9C47.953,18.6 47.803,18.25 47.803,17.85C47.803,17.45 47.953,17.1 48.253,16.8C48.553,16.5 48.903,16.35 49.303,16.35C49.737,16.35 50.103,16.5 50.403,16.8C50.703,17.1 50.853,17.45 50.853,17.85C50.853,18.25 50.703,18.6 50.403,18.9C50.103,19.2 49.737,19.35 49.303,19.35C48.903,19.35 48.553,19.2 48.253,18.9Z" style="fill:rgb(55,165,238);fill-rule:nonzero;"/>
        <path d="M47.803,17.85C47.803,18.25 47.953,18.6 48.253,18.9C48.553,19.2 48.903,19.35 49.303,19.35C49.737,19.35 50.103,19.2 50.403,18.9C50.703,18.6 50.853,18.25 50.853,17.85C50.853,17.45 50.703,17.1 50.403,16.8C50.103,16.5 49.737,16.35 49.303,16.35C48.903,16.35 48.553,16.5 48.253,16.8C47.953,17.1 47.803,17.45 47.803,17.85Z" style="fill:rgb(44,132,191);fill-rule:nonzero;"/>
    </g>
</svg>
