<?xml version="1.0" encoding="UTF-8" standalone="no"?>
<!DOCTYPE svg PUBLIC "-//W3C//DTD SVG 1.1//EN" "http://www.w3.org/Graphics/SVG/1.1/DTD/svg11.dtd">
<svg width="43px" height="27px" version="1.1" xmlns="http://www.w3.org/2000/svg" xmlns:xlink="http://www.w3.org/1999/xlink" xml:space="preserve" xmlns:serif="http://www.serif.com/" style="fill-rule:evenodd;clip-rule:evenodd;stroke-linejoin:round;stroke-miterlimit:2;">
    <g id="Layer0_43_FILL">
        <path d="M34.26,3.584C34.227,3.484 34.194,3.384 34.16,3.284C33.794,2.584 33.26,2.118 32.56,1.884C27.627,-0.182 22.894,-0.549 18.36,0.784C18.227,0.784 18.11,0.818 18.01,0.884C17.61,1.084 17.26,1.384 16.96,1.784C16.827,1.951 16.727,2.151 16.66,2.384C16.527,2.784 16.46,3.168 16.46,3.534C16.46,3.634 16.477,3.734 16.51,3.834L16.91,6.484C16.577,6.584 16.26,6.701 15.96,6.834L14.01,5.134C11.61,3.101 9.21,3.101 6.81,5.134L1.86,9.384C0.527,10.518 -0.09,11.684 0.01,12.884C-0.09,14.084 0.527,15.251 1.86,16.384L1.91,16.384L6.81,20.634C9.21,22.634 11.61,22.634 14.01,20.634L14.01,20.584L15.76,19.134C16.26,19.301 16.794,19.468 17.36,19.634C17.36,19.701 17.344,19.751 17.31,19.784C17.144,20.218 17.06,20.618 17.06,20.984C17.06,21.118 17.077,21.251 17.11,21.384C17.177,21.751 17.277,22.068 17.41,22.334C17.477,22.434 17.544,22.534 17.61,22.634L19.61,25.434C19.977,25.934 20.444,26.251 21.01,26.384C21.844,26.718 22.56,26.651 23.16,26.184C25.327,25.218 27.31,23.684 29.11,21.584C30.444,21.684 31.844,21.751 33.31,21.784L33.76,21.784C36.194,21.784 38.26,20.918 39.96,19.184L39.96,19.234C41.66,17.501 42.51,15.418 42.51,12.984C42.51,10.551 41.66,8.484 39.96,6.784C38.394,5.251 36.544,4.418 34.41,4.284C34.377,4.018 34.327,3.784 34.26,3.584M33.76,6.234C35.627,6.234 37.21,6.884 38.51,8.184C39.844,9.518 40.51,11.118 40.51,12.984C40.51,14.851 39.844,16.451 38.51,17.784C37.21,19.118 35.627,19.784 33.76,19.784L33.36,19.784C31.567,19.745 29.85,19.645 28.21,19.484C26.403,21.816 24.369,23.466 22.11,24.434C21.977,24.534 21.81,24.534 21.61,24.434C21.444,24.434 21.31,24.368 21.21,24.234L19.21,21.434C19.144,21.301 19.094,21.151 19.06,20.984C19.06,20.851 19.094,20.701 19.16,20.534C19.227,20.368 19.327,20.268 19.46,20.234C20.29,19.743 21.073,19.209 21.81,18.634C21.574,18.583 21.341,18.533 21.11,18.484C20.11,18.284 19.127,18.051 18.16,17.784C17.096,17.471 16.146,17.138 15.31,16.784L12.71,19.084C11.177,20.384 9.644,20.384 8.11,19.084L3.16,14.834C1.594,13.534 1.594,12.218 3.16,10.884L8.11,6.634C9.644,5.334 11.177,5.334 12.71,6.634L15.51,9.084C16.297,8.773 17.18,8.473 18.16,8.184C18.471,8.097 18.788,8.014 19.11,7.934L18.46,3.534C18.46,3.368 18.494,3.184 18.56,2.984C18.66,2.851 18.777,2.751 18.91,2.684C23.077,1.484 27.41,1.851 31.91,3.784C32.11,3.851 32.26,3.984 32.36,4.184C32.427,4.384 32.444,4.584 32.41,4.784L32.01,6.284C32.457,6.29 32.907,6.29 33.36,6.284C33.494,6.251 33.627,6.234 33.76,6.234Z" style="fill:rgb(141,93,147);fill-rule:nonzero;"/>
        <path d="M19.06,20.984C19.094,21.151 19.144,21.301 19.21,21.434L21.21,24.234C21.31,24.368 21.444,24.434 21.61,24.434C21.81,24.534 21.977,24.534 22.11,24.434C24.369,23.466 26.403,21.816 28.21,19.484C25.932,19.306 23.798,19.023 21.81,18.634C21.073,19.209 20.29,19.743 19.46,20.234C19.327,20.268 19.227,20.368 19.16,20.534C19.094,20.701 19.06,20.851 19.06,20.984M18.56,2.984C18.494,3.184 18.46,3.368 18.46,3.534L19.11,7.934C22.833,6.983 27.133,6.433 32.01,6.284L32.41,4.784C32.444,4.584 32.427,4.384 32.36,4.184C32.26,3.984 32.11,3.851 31.91,3.784C27.41,1.851 23.077,1.484 18.91,2.684C18.777,2.751 18.66,2.851 18.56,2.984M12.71,6.634C11.177,5.334 9.644,5.334 8.11,6.634L3.16,10.884C1.594,12.218 1.594,13.534 3.16,14.834L8.11,19.084C9.644,20.384 11.177,20.384 12.71,19.084L15.31,16.784C12.677,15.679 11.36,14.413 11.36,12.984C11.36,11.521 12.744,10.221 15.51,9.084L12.71,6.634Z" style="fill:rgb(201,133,208);fill-rule:nonzero;"/>
        <path d="M18.16,8.184C17.18,8.473 16.297,8.773 15.51,9.084C12.744,10.221 11.36,11.521 11.36,12.984C11.36,14.413 12.677,15.679 15.31,16.784C16.146,17.138 17.096,17.471 18.16,17.784C19.127,18.051 20.11,18.284 21.11,18.484C21.341,18.533 21.574,18.583 21.81,18.634C23.798,19.023 25.932,19.306 28.21,19.484C29.85,19.645 31.567,19.745 33.36,19.784L26.61,13.034L33.36,6.284C32.907,6.29 32.457,6.29 32.01,6.284C27.133,6.433 22.833,6.983 19.11,7.934C18.788,8.014 18.471,8.097 18.16,8.184Z" style="fill:rgb(229,153,238);fill-rule:nonzero;"/>
        <path d="M38.51,8.184C37.21,6.884 35.627,6.234 33.76,6.234C33.627,6.234 33.494,6.251 33.36,6.284L26.61,13.034L33.36,19.784L33.76,19.784C35.627,19.784 37.21,19.118 38.51,17.784C39.844,16.451 40.51,14.851 40.51,12.984C40.51,11.118 39.844,9.518 38.51,8.184M37.76,13.684C37.394,14.118 36.927,14.334 36.36,14.334C35.827,14.334 35.36,14.118 34.96,13.684C34.56,13.318 34.36,12.851 34.36,12.284C34.36,11.751 34.56,11.284 34.96,10.884C35.36,10.484 35.827,10.284 36.36,10.284C36.927,10.284 37.394,10.484 37.76,10.884C38.194,11.284 38.41,11.751 38.41,12.284C38.41,12.851 38.194,13.318 37.76,13.684Z" style="fill:rgb(216,144,224);fill-rule:nonzero;"/>
        <path d="M36.36,14.334C36.927,14.334 37.394,14.118 37.76,13.684C38.194,13.318 38.41,12.851 38.41,12.284C38.41,11.751 38.194,11.284 37.76,10.884C37.394,10.484 36.927,10.284 36.36,10.284C35.827,10.284 35.36,10.484 34.96,10.884C34.56,11.284 34.36,11.751 34.36,12.284C34.36,12.851 34.56,13.318 34.96,13.684C35.36,14.118 35.827,14.334 36.36,14.334Z" style="fill:rgb(175,117,182);fill-rule:nonzero;"/>
    </g>
</svg>
