<?xml version="1.0" encoding="UTF-8" standalone="no"?>
<!DOCTYPE svg PUBLIC "-//W3C//DTD SVG 1.1//EN" "http://www.w3.org/Graphics/SVG/1.1/DTD/svg11.dtd">
<svg width="54px" height="39px" version="1.1" xmlns="http://www.w3.org/2000/svg" xmlns:xlink="http://www.w3.org/1999/xlink" xml:space="preserve" xmlns:serif="http://www.serif.com/" style="fill-rule:evenodd;clip-rule:evenodd;stroke-linejoin:round;stroke-miterlimit:2;">
    <g>
        <path d="M10.5,0.9C10.517,0.892 10.55,0.876 10.6,0.85C11.2,0.285 11.966,0.002 12.9,0C20.687,0.043 27.704,1.976 33.95,5.8C34.934,6.397 35.901,7.047 36.85,7.75C37.526,8.261 37.943,8.894 38.1,9.65C38.25,10.317 38.217,10.967 38,11.6C37.973,11.707 37.94,11.807 37.9,11.9L37.45,12.8L37.25,13.5C37.45,13.64 37.65,13.773 37.85,13.9C37.858,13.918 37.875,13.935 37.9,13.95L38.9,14.65L40.8,12.75C43.741,9.914 46.658,9.914 49.55,12.75L53.85,16.95L48.3,23.35L53.8,29.7L49.55,33.8C46.658,36.67 43.741,36.686 40.8,33.85L40.8,33.8L38.85,31.9L37.1,33.15C37.017,33.211 36.95,33.261 36.9,33.3C36.327,33.617 35.727,33.933 35.1,34.25L35.05,34.25C34.534,34.492 34.001,34.725 33.45,34.95C33.414,34.984 33.38,35.001 33.35,35L29.7,36.35C29.657,36.384 29.624,36.401 29.6,36.4C28.385,36.769 27.152,37.069 25.9,37.3C25.847,37.318 25.814,37.318 25.8,37.3L20,38.1C19.923,38.127 19.857,38.144 19.8,38.15C18.435,38.217 17.002,38.251 15.5,38.25L15.1,38.25C13.413,38.249 11.829,37.999 10.35,37.5C8.178,36.815 6.228,35.599 4.5,33.85C1.495,30.94 -0.005,27.423 0,23.3C-0.003,19.142 1.497,15.592 4.5,12.65C5.186,11.969 5.919,11.369 6.7,10.85L6.7,10.9C7.597,10.274 8.547,9.757 9.55,9.35L9.55,3.3C9.546,2.292 9.863,1.492 10.5,0.9M11.55,3.3L11.55,7.85C19.283,7.35 26.4,8.35 32.9,10.85C33.833,11.217 34.733,11.6 35.6,12L36.1,11C36.2,10.7 36.217,10.4 36.15,10.1C36.083,9.8 35.917,9.55 35.65,9.35C34.75,8.683 33.833,8.067 32.9,7.5C26.967,3.867 20.3,2.033 12.9,2C12.5,2 12.167,2.117 11.9,2.35C11.667,2.583 11.55,2.9 11.55,3.3M21.85,12.4C21.517,11.767 21.133,11.15 20.7,10.55C19.033,10.383 17.3,10.3 15.5,10.3L15.1,10.3C13.867,10.333 12.683,10.5 11.55,10.8C10.217,11.167 8.967,11.75 7.8,12.55C7.133,12.983 6.5,13.5 5.9,14.1C3.3,16.633 2,19.7 2,23.3C2,26.867 3.3,29.917 5.9,32.45C7.4,33.95 9.083,35 10.95,35.6C12.25,36.033 13.633,36.25 15.1,36.25L15.5,36.25C16.967,36.25 18.367,36.217 19.7,36.15C19.9,35.883 20.1,35.633 20.3,35.4C21.5,33.833 22.433,32.133 23.1,30.3C23.7,28.667 24.083,26.933 24.25,25.1C24.283,24.7 24.3,24.3 24.3,23.9L26.4,24.05L25.5,35.35C26.7,35.117 27.867,34.833 29,34.5L29.45,24.3L33.15,24.65L32.65,33.15C33.183,32.917 33.7,32.683 34.2,32.45C34.8,32.15 35.367,31.85 35.9,31.55L36.2,24.9L41.6,25.35C41.2,26.75 40.333,28.067 39,29.3L42.2,32.4C43.306,33.469 44.406,33.936 45.5,33.8C46.388,33.731 47.271,33.264 48.15,32.4L50.9,29.7L45.5,23.3L50.9,16.95L50.95,16.9L48.15,14.2C47.27,13.335 46.387,12.852 45.5,12.75C44.405,12.648 43.305,13.132 42.2,14.2L39.05,17.3C40.617,18.8 41.533,20.433 41.8,22.2L36.35,21.7L36.7,15.55C36.067,15.117 35.35,14.7 34.55,14.3C34.45,14.233 34.333,14.167 34.2,14.1C34.067,14.033 33.933,13.967 33.8,13.9L33.35,21.45L29.6,21.1L30,12.4C29.167,12.133 28.3,11.883 27.4,11.65L26.65,20.85L24.25,20.65C24.217,19.883 24.117,19.133 23.95,18.4C23.583,16.233 22.883,14.233 21.85,12.4M7.8,20.45C7.933,20.083 8.15,19.75 8.45,19.45C8.983,18.917 9.617,18.65 10.35,18.65C11.083,18.65 11.717,18.917 12.25,19.45C12.783,19.983 13.05,20.6 13.05,21.3C13.05,22.033 12.783,22.65 12.25,23.15C11.717,23.683 11.083,23.95 10.35,23.95C9.617,23.95 8.983,23.683 8.45,23.15C8.15,22.85 7.933,22.533 7.8,22.2C7.7,21.933 7.65,21.633 7.65,21.3C7.65,21 7.7,20.717 7.8,20.45Z" style="fill:rgb(163,156,125);fill-rule:nonzero;"/>
        <path d="M36.2,24.9L36.35,21.7L41.8,22.2C41.867,22.567 41.9,22.933 41.9,23.3C41.9,24 41.8,24.683 41.6,25.35L36.2,24.9M33.15,24.65L29.45,24.3L29.6,21.1L33.35,21.45L33.15,24.65M26.4,24.05L24.3,23.9C24.333,23.5 24.35,23.1 24.35,22.7C24.35,22 24.317,21.317 24.25,20.65L26.65,20.85L26.4,24.05Z" style="fill:rgb(194,185,149);fill-rule:nonzero;"/>
        <path d="M34.55,14.3C35.35,14.7 36.067,15.117 36.7,15.55L36.35,21.7L36.2,24.9L35.9,31.55C35.367,31.85 34.8,32.15 34.2,32.45C33.7,32.683 33.183,32.917 32.65,33.15L33.15,24.65L33.35,21.45L33.8,13.9C33.933,13.967 34.067,14.033 34.2,14.1C34.333,14.167 34.45,14.233 34.55,14.3M48.15,14.2L50.95,16.9L50.9,16.95L45.5,23.3L50.9,29.7L48.15,32.4C47.271,33.264 46.388,33.731 45.5,33.8C44.406,33.936 43.306,33.469 42.2,32.4L39,29.3C40.333,28.067 41.2,26.75 41.6,25.35C41.8,24.683 41.9,24 41.9,23.3C41.9,22.933 41.867,22.567 41.8,22.2C41.533,20.433 40.617,18.8 39.05,17.3L42.2,14.2C43.305,13.132 44.405,12.648 45.5,12.75C46.387,12.852 47.27,13.335 48.15,14.2M26.4,24.05L26.65,20.85L27.4,11.65C28.3,11.883 29.167,12.133 30,12.4L29.6,21.1L29.45,24.3L29,34.5C27.867,34.833 26.7,35.117 25.5,35.35L26.4,24.05M20.7,10.55C21.133,11.15 21.517,11.767 21.85,12.4C22.883,14.233 23.583,16.233 23.95,18.4C24.117,19.133 24.217,19.883 24.25,20.65C24.317,21.317 24.35,22 24.35,22.7C24.35,23.1 24.333,23.5 24.3,23.9C24.3,24.3 24.283,24.7 24.25,25.1C24.083,26.933 23.7,28.667 23.1,30.3C22.433,32.133 21.5,33.833 20.3,35.4C20.1,35.633 19.9,35.883 19.7,36.15C18.367,36.217 16.967,36.25 15.5,36.25L15.1,36.25C13.633,36.25 12.25,36.033 10.95,35.6C9.083,35 7.4,33.95 5.9,32.45C3.3,29.917 2,26.867 2,23.3C2,19.7 3.3,16.633 5.9,14.1C6.5,13.5 7.133,12.983 7.8,12.55C8.967,11.75 10.217,11.167 11.55,10.8C12.683,10.5 13.867,10.333 15.1,10.3L15.5,10.3C17.3,10.3 19.033,10.383 20.7,10.55M8.45,19.45C8.15,19.75 7.933,20.083 7.8,20.45C7.7,20.717 7.65,21 7.65,21.3C7.65,21.633 7.7,21.933 7.8,22.2C7.933,22.533 8.15,22.85 8.45,23.15C8.983,23.683 9.617,23.95 10.35,23.95C11.083,23.95 11.717,23.683 12.25,23.15C12.783,22.65 13.05,22.033 13.05,21.3C13.05,20.6 12.783,19.983 12.25,19.45C11.717,18.917 11.083,18.65 10.35,18.65C9.617,18.65 8.983,18.917 8.45,19.45M11.55,7.85L11.55,3.3C11.55,2.9 11.667,2.583 11.9,2.35C12.167,2.117 12.5,2 12.9,2C20.3,2.033 26.967,3.867 32.9,7.5C33.833,8.067 34.75,8.683 35.65,9.35C35.917,9.55 36.083,9.8 36.15,10.1C36.217,10.4 36.2,10.7 36.1,11L35.6,12C34.733,11.6 33.833,11.217 32.9,10.85C26.4,8.35 19.283,7.35 11.55,7.85Z" style="fill:rgb(238,228,183);fill-rule:nonzero;"/>
    </g>
</svg>
