<?xml version="1.0" encoding="UTF-8" standalone="no"?>
<!DOCTYPE svg PUBLIC "-//W3C//DTD SVG 1.1//EN" "http://www.w3.org/Graphics/SVG/1.1/DTD/svg11.dtd">
<svg width="54px" height="39px" version="1.1" xmlns="http://www.w3.org/2000/svg" xmlns:xlink="http://www.w3.org/1999/xlink" xml:space="preserve" xmlns:serif="http://www.serif.com/" style="fill-rule:evenodd;clip-rule:evenodd;stroke-linejoin:round;stroke-miterlimit:2;">
    <g>
        <path d="M43.35,0.9C43.333,0.892 43.3,0.876 43.25,0.85C42.65,0.285 41.884,0.002 40.95,0C33.163,0.043 26.146,1.976 19.9,5.8C18.916,6.397 17.949,7.047 17,7.75C16.324,8.261 15.907,8.894 15.75,9.65C15.6,10.317 15.633,10.967 15.85,11.6C15.877,11.707 15.91,11.807 15.95,11.9L16.4,12.8L16.6,13.5C16.4,13.64 16.2,13.773 16,13.9C15.992,13.918 15.975,13.935 15.95,13.95L14.95,14.65L13.05,12.75C10.109,9.914 7.192,9.914 4.3,12.75L0,16.95L5.55,23.35L0.05,29.7L4.3,33.8C7.192,36.67 10.109,36.686 13.05,33.85L13.05,33.8L15,31.9L16.75,33.15C16.833,33.211 16.9,33.261 16.95,33.3C17.523,33.617 18.123,33.933 18.75,34.25L18.8,34.25C19.316,34.492 19.849,34.725 20.4,34.95C20.436,34.984 20.47,35.001 20.5,35L24.15,36.35C24.193,36.384 24.226,36.401 24.25,36.4C25.465,36.769 26.698,37.069 27.95,37.3C28.003,37.318 28.036,37.318 28.05,37.3L33.85,38.1C33.927,38.127 33.993,38.144 34.05,38.15C35.415,38.217 36.848,38.251 38.35,38.25L38.75,38.25C40.438,38.249 42.021,37.999 43.5,37.5C45.672,36.815 47.622,35.599 49.35,33.85C52.355,30.94 53.855,27.423 53.85,23.3C53.853,19.142 52.353,15.592 49.35,12.65C48.664,11.969 47.931,11.369 47.15,10.85L47.15,10.9C46.253,10.274 45.303,9.757 44.3,9.35L44.3,3.3C44.304,2.292 43.987,1.492 43.35,0.9M42.3,3.3L42.3,7.85C34.567,7.35 27.45,8.35 20.95,10.85C20.017,11.217 19.117,11.6 18.25,12L17.75,11C17.65,10.7 17.633,10.4 17.7,10.1C17.767,9.8 17.933,9.55 18.2,9.35C19.1,8.683 20.017,8.067 20.95,7.5C26.883,3.867 33.55,2.033 40.95,2C41.35,2 41.683,2.117 41.95,2.35C42.183,2.583 42.3,2.9 42.3,3.3M32,12.4C32.333,11.767 32.717,11.15 33.15,10.55C34.817,10.383 36.55,10.3 38.35,10.3L38.75,10.3C39.983,10.333 41.167,10.5 42.3,10.8C43.633,11.167 44.883,11.75 46.05,12.55C46.717,12.983 47.35,13.5 47.95,14.1C50.55,16.633 51.85,19.7 51.85,23.3C51.85,26.867 50.55,29.917 47.95,32.45C46.45,33.95 44.767,35 42.9,35.6C41.6,36.033 40.217,36.25 38.75,36.25L38.35,36.25C36.883,36.25 35.483,36.217 34.15,36.15C33.95,35.883 33.75,35.633 33.55,35.4C32.35,33.833 31.417,32.133 30.75,30.3C30.15,28.667 29.767,26.933 29.6,25.1C29.567,24.7 29.55,24.3 29.55,23.9L27.45,24.05L28.35,35.35C27.15,35.117 25.983,34.833 24.85,34.5L24.4,24.3L20.7,24.65L21.2,33.15C20.667,32.917 20.15,32.683 19.65,32.45C19.05,32.15 18.483,31.85 17.95,31.55L17.65,24.9L12.25,25.35C12.65,26.75 13.517,28.067 14.85,29.3L11.65,32.4C10.544,33.469 9.444,33.936 8.35,33.8C7.462,33.731 6.579,33.264 5.7,32.4L2.95,29.7L8.35,23.3L2.95,16.95L2.9,16.9L5.7,14.2C6.58,13.335 7.463,12.852 8.35,12.75C9.445,12.648 10.545,13.132 11.65,14.2L14.8,17.3C13.233,18.8 12.317,20.433 12.05,22.2L17.5,21.7L17.15,15.55C17.783,15.117 18.5,14.7 19.3,14.3C19.4,14.233 19.517,14.167 19.65,14.1C19.783,14.033 19.917,13.967 20.05,13.9L20.5,21.45L24.25,21.1L23.85,12.4C24.683,12.133 25.55,11.883 26.45,11.65L27.2,20.85L29.6,20.65C29.633,19.883 29.733,19.133 29.9,18.4C30.267,16.233 30.967,14.233 32,12.4M46.05,20.45C45.917,20.083 45.7,19.75 45.4,19.45C44.867,18.917 44.233,18.65 43.5,18.65C42.767,18.65 42.133,18.917 41.6,19.45C41.067,19.983 40.8,20.6 40.8,21.3C40.8,22.033 41.067,22.65 41.6,23.15C42.133,23.683 42.767,23.95 43.5,23.95C44.233,23.95 44.867,23.683 45.4,23.15C45.7,22.85 45.917,22.533 46.05,22.2C46.15,21.933 46.2,21.633 46.2,21.3C46.2,21 46.15,20.717 46.05,20.45Z" style="fill:rgb(163,156,125);fill-rule:nonzero;"/>
        <path d="M17.65,24.9L17.5,21.7L12.05,22.2C11.983,22.567 11.95,22.933 11.95,23.3C11.95,24 12.05,24.683 12.25,25.35L17.65,24.9M20.7,24.65L24.4,24.3L24.25,21.1L20.5,21.45L20.7,24.65M27.45,24.05L29.55,23.9C29.517,23.5 29.5,23.1 29.5,22.7C29.5,22 29.533,21.317 29.6,20.65L27.2,20.85L27.45,24.05Z" style="fill:rgb(194,185,149);fill-rule:nonzero;"/>
        <path d="M19.3,14.3C18.5,14.7 17.783,15.117 17.15,15.55L17.5,21.7L17.65,24.9L17.95,31.55C18.483,31.85 19.05,32.15 19.65,32.45C20.15,32.683 20.667,32.917 21.2,33.15L20.7,24.65L20.5,21.45L20.05,13.9C19.917,13.967 19.783,14.033 19.65,14.1C19.517,14.167 19.4,14.233 19.3,14.3M5.7,14.2L2.9,16.9L2.95,16.95L8.35,23.3L2.95,29.7L5.7,32.4C6.579,33.264 7.462,33.731 8.35,33.8C9.444,33.936 10.544,33.469 11.65,32.4L14.85,29.3C13.517,28.067 12.65,26.75 12.25,25.35C12.05,24.683 11.95,24 11.95,23.3C11.95,22.933 11.983,22.567 12.05,22.2C12.317,20.433 13.233,18.8 14.8,17.3L11.65,14.2C10.545,13.132 9.445,12.648 8.35,12.75C7.463,12.852 6.58,13.335 5.7,14.2M27.45,24.05L27.2,20.85L26.45,11.65C25.55,11.883 24.683,12.133 23.85,12.4L24.25,21.1L24.4,24.3L24.85,34.5C25.983,34.833 27.15,35.117 28.35,35.35L27.45,24.05M33.15,10.55C32.717,11.15 32.333,11.767 32,12.4C30.967,14.233 30.267,16.233 29.9,18.4C29.733,19.133 29.633,19.883 29.6,20.65C29.533,21.317 29.5,22 29.5,22.7C29.5,23.1 29.517,23.5 29.55,23.9C29.55,24.3 29.567,24.7 29.6,25.1C29.767,26.933 30.15,28.667 30.75,30.3C31.417,32.133 32.35,33.833 33.55,35.4C33.75,35.633 33.95,35.883 34.15,36.15C35.483,36.217 36.883,36.25 38.35,36.25L38.75,36.25C40.217,36.25 41.6,36.033 42.9,35.6C44.767,35 46.45,33.95 47.95,32.45C50.55,29.917 51.85,26.867 51.85,23.3C51.85,19.7 50.55,16.633 47.95,14.1C47.35,13.5 46.717,12.983 46.05,12.55C44.883,11.75 43.633,11.167 42.3,10.8C41.167,10.5 39.983,10.333 38.75,10.3L38.35,10.3C36.55,10.3 34.817,10.383 33.15,10.55M45.4,19.45C45.7,19.75 45.917,20.083 46.05,20.45C46.15,20.717 46.2,21 46.2,21.3C46.2,21.633 46.15,21.933 46.05,22.2C45.917,22.533 45.7,22.85 45.4,23.15C44.867,23.683 44.233,23.95 43.5,23.95C42.767,23.95 42.133,23.683 41.6,23.15C41.067,22.65 40.8,22.033 40.8,21.3C40.8,20.6 41.067,19.983 41.6,19.45C42.133,18.917 42.767,18.65 43.5,18.65C44.233,18.65 44.867,18.917 45.4,19.45M42.3,7.85L42.3,3.3C42.3,2.9 42.183,2.583 41.95,2.35C41.683,2.117 41.35,2 40.95,2C33.55,2.033 26.883,3.867 20.95,7.5C20.017,8.067 19.1,8.683 18.2,9.35C17.933,9.55 17.767,9.8 17.7,10.1C17.633,10.4 17.65,10.7 17.75,11L18.25,12C19.117,11.6 20.017,11.217 20.95,10.85C27.45,8.35 34.567,7.35 42.3,7.85Z" style="fill:rgb(238,228,183);fill-rule:nonzero;"/>
    </g>
</svg>
