<?xml version="1.0" encoding="UTF-8" standalone="no"?>
<!DOCTYPE svg PUBLIC "-//W3C//DTD SVG 1.1//EN" "http://www.w3.org/Graphics/SVG/1.1/DTD/svg11.dtd">
<svg width="39px" height="27px" version="1.1" xmlns="http://www.w3.org/2000/svg" xmlns:xlink="http://www.w3.org/1999/xlink" xml:space="preserve" xmlns:serif="http://www.serif.com/" style="fill-rule:evenodd;clip-rule:evenodd;stroke-linejoin:round;stroke-miterlimit:2;">
    <g id="Layer0_53_FILL">
        <path d="M8.1,4.257C8.122,4.039 8.172,3.805 8.25,3.557C8.277,3.483 8.31,3.4 8.35,3.307C8.711,2.599 9.261,2.133 10,1.907C14.887,-0.165 19.604,-0.549 24.15,0.757C24.27,0.806 24.386,0.856 24.5,0.907C24.903,1.104 25.253,1.404 25.55,1.807C25.68,1.985 25.78,2.168 25.85,2.357C25.992,2.8 26.059,3.2 26.05,3.557C26.049,3.654 26.049,3.754 26.05,3.857L25.65,6.557L26.5,6.857L28.5,5.107C30.9,3.093 33.3,3.093 35.7,5.107L38.2,7.257C38.507,7.539 38.724,7.872 38.85,8.257C38.942,8.649 38.926,9.032 38.8,9.407C38.678,9.807 38.461,10.124 38.15,10.357C36.941,11.33 36.274,12.213 36.15,13.007C36.271,13.763 36.904,14.53 38.05,15.307C38.382,15.548 38.632,15.865 38.8,16.257C38.926,16.65 38.943,17.05 38.85,17.457C38.731,17.864 38.514,18.197 38.2,18.457L35.7,20.607C33.3,22.655 30.9,22.655 28.5,20.607L26.75,19.107L25.15,19.657C25.163,19.707 25.18,19.757 25.2,19.807C25.378,20.249 25.462,20.649 25.45,21.007C25.446,21.139 25.43,21.272 25.4,21.407C25.337,21.759 25.237,22.076 25.1,22.357C25.047,22.452 24.997,22.535 24.95,22.607L22.95,25.407L22.9,25.457C22.524,25.958 22.057,26.275 21.5,26.407C20.661,26.73 19.944,26.646 19.35,26.157C17.172,25.204 15.188,23.687 13.4,21.607L9.25,21.807C9.214,21.808 9.181,21.808 9.15,21.807L8.75,21.807C6.323,21.808 4.273,20.941 2.6,19.207C0.861,17.494 -0.006,15.427 0,13.007C-0.006,10.586 0.861,8.503 2.6,6.757C4.12,5.243 5.954,4.41 8.1,4.257M4,8.207C2.667,9.54 2,11.14 2,13.007C2,14.874 2.667,16.474 4,17.807C5.3,19.14 6.883,19.807 8.75,19.807L9.15,19.807L14.8,14.157L17.25,14.157L16.95,19.257C16.117,19.357 15.233,19.457 14.3,19.557C16.1,21.857 18.133,23.49 20.4,24.457C20.533,24.557 20.7,24.557 20.9,24.457C21.067,24.457 21.2,24.39 21.3,24.257L23.3,21.457C23.367,21.324 23.417,21.174 23.45,21.007C23.45,20.874 23.417,20.724 23.35,20.557C23.283,20.39 23.183,20.29 23.05,20.257C22.217,19.757 21.433,19.224 20.7,18.657C20.3,18.724 19.883,18.807 19.45,18.907L19.65,14.157L22.2,14.157L22.2,18.357C22.833,18.19 23.45,18.04 24.05,17.907L24.25,14.157L30.85,14.157C30.317,15.124 29.083,16.024 27.15,16.857L29.8,19.107C31.333,20.407 32.867,20.407 34.4,19.107L36.9,16.957C33.233,14.424 33.233,11.707 36.9,8.807L34.4,6.657C32.867,5.357 31.333,5.357 29.8,6.657L26.95,9.107C29.217,10.04 30.567,11.074 31,12.207L24.4,12.007L24.6,8.307C24.533,8.274 24.45,8.24 24.35,8.207C24.05,8.107 23.733,8.024 23.4,7.957L24.05,3.557C24.05,3.39 24.017,3.207 23.95,3.007C23.85,2.874 23.733,2.774 23.6,2.707C19.433,1.507 15.1,1.874 10.6,3.807C10.4,3.874 10.25,4.007 10.15,4.207C10.083,4.407 10.067,4.607 10.1,4.807L10.5,6.357C13.033,6.424 15.417,6.607 17.65,6.907L17.4,11.757L14.45,11.657L9.15,6.307C9.017,6.274 8.883,6.257 8.75,6.257C6.883,6.257 5.3,6.907 4,8.207M22.2,7.707L22.2,11.907L19.75,11.807L19.95,7.257C20.717,7.357 21.467,7.507 22.2,7.707M4.75,13.707C4.317,13.34 4.1,12.874 4.1,12.307C4.1,11.774 4.317,11.307 4.75,10.907C5.117,10.507 5.583,10.307 6.15,10.307C6.683,10.307 7.15,10.507 7.55,10.907C7.95,11.307 8.15,11.774 8.15,12.307C8.15,12.874 7.95,13.34 7.55,13.707C7.15,14.14 6.683,14.357 6.15,14.357C5.583,14.357 5.117,14.14 4.75,13.707Z" style="fill:rgb(163,156,125);fill-rule:nonzero;"/>
        <path d="M15.9,13.057L14.45,11.657L17.4,11.757L17.25,14.157L14.8,14.157L15.9,13.057M19.75,11.807L22.2,11.907L22.2,14.157L19.65,14.157L19.75,11.807M31,12.207C31.1,12.474 31.15,12.74 31.15,13.007C31.15,13.407 31.05,13.79 30.85,14.157L24.25,14.157L24.4,12.007L31,12.207Z" style="fill:rgb(194,185,149);fill-rule:nonzero;"/>
        <path d="M23.95,3.007C24.017,3.207 24.05,3.39 24.05,3.557L23.4,7.957C23.733,8.024 24.05,8.107 24.35,8.207C24.45,8.24 24.533,8.274 24.6,8.307L24.4,12.007L24.25,14.157L24.05,17.907C23.45,18.04 22.833,18.19 22.2,18.357L22.2,7.707C21.467,7.507 20.717,7.357 19.95,7.257L19.75,11.807L19.65,14.157L19.45,18.907C19.883,18.807 20.3,18.724 20.7,18.657C21.433,19.224 22.217,19.757 23.05,20.257C23.183,20.29 23.283,20.39 23.35,20.557C23.417,20.724 23.45,20.874 23.45,21.007C23.417,21.174 23.367,21.324 23.3,21.457L21.3,24.257C21.2,24.39 21.067,24.457 20.9,24.457C20.7,24.557 20.533,24.557 20.4,24.457C18.133,23.49 16.1,21.857 14.3,19.557C15.233,19.457 16.117,19.357 16.95,19.257L17.25,14.157L17.4,11.757L17.65,6.907C15.417,6.607 13.033,6.424 10.5,6.357L10.1,4.807C10.067,4.607 10.083,4.407 10.15,4.207C10.25,4.007 10.4,3.874 10.6,3.807C15.1,1.874 19.433,1.507 23.6,2.707C23.733,2.774 23.85,2.874 23.95,3.007M34.4,6.657L36.9,8.807C33.233,11.707 33.233,14.424 36.9,16.957L34.4,19.107C32.867,20.407 31.333,20.407 29.8,19.107L27.15,16.857C29.083,16.024 30.317,15.124 30.85,14.157C31.05,13.79 31.15,13.407 31.15,13.007C31.15,12.74 31.1,12.474 31,12.207C30.567,11.074 29.217,10.04 26.95,9.107L29.8,6.657C31.333,5.357 32.867,5.357 34.4,6.657M2,13.007C2,11.14 2.667,9.54 4,8.207C5.3,6.907 6.883,6.257 8.75,6.257C8.883,6.257 9.017,6.274 9.15,6.307L14.45,11.657L15.9,13.057L9.15,19.807L8.75,19.807C6.883,19.807 5.3,19.14 4,17.807C2.667,16.474 2,14.874 2,13.007M4.1,12.307C4.1,12.874 4.317,13.34 4.75,13.707C5.117,14.14 5.583,14.357 6.15,14.357C6.683,14.357 7.15,14.14 7.55,13.707C7.95,13.34 8.15,12.874 8.15,12.307C8.15,11.774 7.95,11.307 7.55,10.907C7.15,10.507 6.683,10.307 6.15,10.307C5.583,10.307 5.117,10.507 4.75,10.907C4.317,11.307 4.1,11.774 4.1,12.307Z" style="fill:rgb(238,228,183);fill-rule:nonzero;"/>
    </g>
</svg>
