<?xml version="1.0" encoding="UTF-8" standalone="no"?>
<!DOCTYPE svg PUBLIC "-//W3C//DTD SVG 1.1//EN" "http://www.w3.org/Graphics/SVG/1.1/DTD/svg11.dtd">
<svg width="58px" height="33px" version="1.1" xmlns="http://www.w3.org/2000/svg" xmlns:xlink="http://www.w3.org/1999/xlink" xml:space="preserve" xmlns:serif="http://www.serif.com/" style="fill-rule:evenodd;clip-rule:evenodd;stroke-linejoin:round;stroke-miterlimit:2;">
    <g id="Layer0_48_FILL">
        <path d="M47.619,0.85C47.019,0.285 46.252,0.002 45.319,0L45.269,0C36.587,0.073 28.87,2.556 22.119,7.45C22.086,7.507 22.036,7.557 21.969,7.6C21.377,8.134 21.027,8.701 20.919,9.3C20.818,9.616 20.768,9.933 20.769,10.25C20.786,10.311 20.786,10.361 20.769,10.4L20.719,10.3L18.369,7.8L18.369,7.85C17.148,6.505 15.898,5.871 14.619,5.95C13.036,5.926 11.503,6.476 10.019,7.6L10.069,7.55L2.669,12.7L2.719,12.65C0.756,13.927 -0.144,15.26 0.019,16.65C-0.139,18.06 0.761,19.41 2.719,20.7L2.669,20.7L10.069,25.8C11.538,26.82 13.055,27.32 14.619,27.3C15.647,27.356 16.664,26.973 17.669,26.15C17.633,26.636 17.749,27.119 18.019,27.6C18.323,28.447 18.873,29.03 19.669,29.35C24.99,32.249 31.306,33.333 38.619,32.6C39.375,32.571 40.041,32.254 40.619,31.65L40.519,31.75C41.064,31.312 41.414,30.712 41.569,29.95C43.531,29.644 45.364,29.044 47.069,28.15C47.084,28.157 47.1,28.157 47.119,28.15C47.511,27.942 47.878,27.725 48.219,27.5C48.275,27.493 48.325,27.476 48.369,27.45C49.406,26.715 50.54,25.815 51.769,24.75C56.79,20.59 58.49,16.84 56.869,13.5L56.869,13.45C55.644,10.518 53.477,8.201 50.369,6.5C49.83,6.189 49.264,5.906 48.669,5.65L48.669,3.3C48.672,2.292 48.355,1.492 47.719,0.9C47.702,0.892 47.668,0.876 47.619,0.85M46.669,3.3L46.669,7.1C47.641,7.383 48.558,7.767 49.419,8.25C52.085,9.717 53.952,11.717 55.019,14.25C56.085,16.85 54.585,19.85 50.519,23.25C49.319,24.25 48.219,25.1 47.219,25.8C46.885,26 46.535,26.2 46.169,26.4C44.241,27.387 42.141,27.97 39.869,28.15L39.669,29.45C39.602,29.783 39.452,30.05 39.219,30.25C38.985,30.483 38.719,30.6 38.419,30.6C31.485,31.3 25.502,30.283 20.469,27.55C20.169,27.417 19.969,27.183 19.869,26.85C19.702,26.583 19.669,26.333 19.769,26.1L20.469,22.5C20.084,22.185 19.734,21.852 19.419,21.5L16.919,24.15C16.152,24.917 15.385,25.3 14.619,25.3C13.452,25.3 12.319,24.917 11.219,24.15L3.819,19.05C1.419,17.45 1.419,15.883 3.819,14.35L11.219,9.2C12.319,8.367 13.452,7.95 14.619,7.95C15.385,7.95 16.152,8.367 16.919,9.2L20.269,12.8C21.088,12.293 22.071,11.843 23.219,11.45L22.919,10.75C22.785,10.417 22.769,10.117 22.869,9.85C22.902,9.583 23.052,9.333 23.319,9.1C29.719,4.433 37.052,2.067 45.319,2C45.719,2 46.052,2.117 46.319,2.35C46.552,2.583 46.669,2.9 46.669,3.3Z" style="fill:rgb(163,96,0);fill-rule:nonzero;"/>
        <path d="M20.469,22.5L19.769,26.1C19.669,26.333 19.702,26.583 19.869,26.85C19.969,27.183 20.169,27.417 20.469,27.55C25.502,30.283 31.485,31.3 38.419,30.6C38.719,30.6 38.985,30.483 39.219,30.25C39.452,30.05 39.602,29.783 39.669,29.45L39.869,28.15C38.837,28.256 37.77,28.273 36.669,28.2C32.102,27.8 28.102,26.767 24.669,25.1C22.972,24.283 21.572,23.416 20.469,22.5M36.319,7.3C36.619,7.2 36.919,7.133 37.219,7.1C40.802,6.314 43.952,6.314 46.669,7.1L46.669,3.3C46.669,2.9 46.552,2.583 46.319,2.35C46.052,2.117 45.719,2 45.319,2C37.052,2.067 29.719,4.433 23.319,9.1C23.052,9.333 22.902,9.583 22.869,9.85C22.769,10.117 22.785,10.417 22.919,10.75L23.219,11.45C23.325,11.414 23.425,11.38 23.519,11.35C27.619,10.017 31.552,8.767 35.319,7.6C35.685,7.5 36.019,7.4 36.319,7.3Z" style="fill:rgb(252,178,69);fill-rule:nonzero;"/>
        <path d="M16.919,9.2C16.152,8.367 15.385,7.95 14.619,7.95C13.452,7.95 12.319,8.367 11.219,9.2L3.819,14.35C1.419,15.883 1.419,17.45 3.819,19.05L11.219,24.15C12.319,24.917 13.452,25.3 14.619,25.3C15.385,25.3 16.152,24.917 16.919,24.15L19.419,21.5C18.267,20.277 17.651,18.977 17.569,17.6C17.454,15.648 18.354,14.048 20.269,12.8L16.919,9.2M49.419,8.25C48.558,7.767 47.641,7.383 46.669,7.1C43.952,6.314 40.802,6.314 37.219,7.1C37.203,10.57 37.853,13.836 39.169,16.9C40.661,20.324 42.995,23.49 46.169,26.4C46.535,26.2 46.885,26 47.219,25.8C48.219,25.1 49.319,24.25 50.519,23.25C54.585,19.85 56.085,16.85 55.019,14.25C53.952,11.717 52.085,9.717 49.419,8.25M49.719,17.65C49.419,18.017 49.019,18.2 48.519,18.2C48.052,18.2 47.635,18.017 47.269,17.65C46.935,17.283 46.769,16.867 46.769,16.4C46.769,15.967 46.935,15.567 47.269,15.2C47.635,14.833 48.052,14.65 48.519,14.65C49.019,14.65 49.419,14.833 49.719,15.2C50.119,15.567 50.319,15.967 50.319,16.4C50.319,16.867 50.119,17.283 49.719,17.65M25.219,21.6C25.319,21.767 25.452,21.883 25.619,21.95C28.385,23.417 31.385,24.383 34.619,24.85C34.852,24.85 35.069,24.8 35.269,24.7C35.402,24.6 35.502,24.45 35.569,24.25L36.519,21.4C36.552,21.233 36.569,21.083 36.569,20.95C36.469,20.75 36.352,20.6 36.219,20.5C36.052,20.367 35.902,20.317 35.769,20.35C32.635,20.183 29.535,19.633 26.469,18.7L26.019,18.7C25.852,18.767 25.719,18.867 25.619,19C25.519,19.1 25.435,19.233 25.369,19.4L25.169,21.1C25.135,21.3 25.152,21.467 25.219,21.6Z" style="fill:rgb(236,141,0);fill-rule:nonzero;"/>
        <path d="M48.519,18.2C49.019,18.2 49.419,18.017 49.719,17.65C50.119,17.283 50.319,16.867 50.319,16.4C50.319,15.967 50.119,15.567 49.719,15.2C49.419,14.833 49.019,14.65 48.519,14.65C48.052,14.65 47.635,14.833 47.269,15.2C46.935,15.567 46.769,15.967 46.769,16.4C46.769,16.867 46.935,17.283 47.269,17.65C47.635,18.017 48.052,18.2 48.519,18.2Z" style="fill:rgb(205,123,0);fill-rule:nonzero;"/>
        <path d="M37.219,7.1C36.919,7.133 36.619,7.2 36.319,7.3C36.019,7.4 35.685,7.5 35.319,7.6C31.552,8.767 27.619,10.017 23.519,11.35C23.425,11.38 23.325,11.414 23.219,11.45C22.071,11.843 21.088,12.293 20.269,12.8C18.354,14.048 17.454,15.648 17.569,17.6C17.651,18.977 18.267,20.277 19.419,21.5C19.734,21.852 20.084,22.185 20.469,22.5C21.572,23.416 22.972,24.283 24.669,25.1C28.102,26.767 32.102,27.8 36.669,28.2C37.77,28.273 38.837,28.256 39.869,28.15C42.141,27.97 44.241,27.387 46.169,26.4C42.995,23.49 40.661,20.324 39.169,16.9C37.853,13.836 37.203,10.57 37.219,7.1M25.619,21.95C25.452,21.883 25.319,21.767 25.219,21.6C25.152,21.467 25.135,21.3 25.169,21.1L25.369,19.4C25.435,19.233 25.519,19.1 25.619,19C25.719,18.867 25.852,18.767 26.019,18.7L26.469,18.7C29.535,19.633 32.635,20.183 35.769,20.35C35.902,20.317 36.052,20.367 36.219,20.5C36.352,20.6 36.469,20.75 36.569,20.95C36.569,21.083 36.552,21.233 36.519,21.4L35.569,24.25C35.502,24.45 35.402,24.6 35.269,24.7C35.069,24.8 34.852,24.85 34.619,24.85C31.385,24.383 28.385,23.417 25.619,21.95Z" style="fill:rgb(255,153,0);fill-rule:nonzero;"/>
    </g>
</svg>
