<?xml version="1.0" encoding="UTF-8" standalone="no"?>
<!DOCTYPE svg PUBLIC "-//W3C//DTD SVG 1.1//EN" "http://www.w3.org/Graphics/SVG/1.1/DTD/svg11.dtd">
<svg width="61px" height="37px" version="1.1" xmlns="http://www.w3.org/2000/svg" xmlns:xlink="http://www.w3.org/1999/xlink" xml:space="preserve" xmlns:serif="http://www.serif.com/" style="fill-rule:evenodd;clip-rule:evenodd;stroke-linejoin:round;stroke-miterlimit:2;">
    <g>
        <path d="M6.266,26.15C3.554,24.443 1.788,22.909 0.966,21.55C-0.444,19.398 -0.311,17.548 1.366,16L1.416,16C3.219,14.277 5.786,12.444 9.116,10.5L9.166,10.5C10.363,9.823 11.496,9.256 12.566,8.8L12.566,3.1C12.563,2.166 12.863,1.416 13.466,0.85C13.491,0.834 13.524,0.801 13.566,0.75C14.154,0.248 14.87,-0.002 15.716,0C23.379,0.044 30.163,2.228 36.066,6.55L36.116,6.6C36.721,7.046 37.104,7.613 37.266,8.3C37.406,8.788 37.423,9.305 37.316,9.85C37.634,9.977 37.968,10.11 38.316,10.25C39.551,10.778 40.634,11.328 41.566,11.9L45.116,9.65L45.066,9.65C46.621,8.632 48.221,8.132 49.866,8.15C51.172,8.089 52.472,8.672 53.766,9.9L58.966,15.05C60.25,16.309 60.866,17.576 60.816,18.85C60.87,20.144 60.254,21.411 58.966,22.65L53.766,27.8C53.748,27.833 53.731,27.849 53.716,27.85C52.445,29.037 51.162,29.603 49.866,29.55C48.23,29.559 46.647,29.059 45.116,28.05L41.966,26.05C41.216,26.566 40.366,27.049 39.416,27.5C39.401,27.737 39.368,27.987 39.316,28.25C39.249,28.911 38.982,29.478 38.516,29.95C38.483,29.973 38.466,29.989 38.466,30C35.154,33.106 30.821,35.106 25.466,36L25.416,36C24.745,36.109 24.128,36.026 23.566,35.75C22.94,35.46 22.473,34.96 22.166,34.25L22.216,34.25L20.816,31.05C16.044,30.89 11.194,29.257 6.266,26.15M2.766,17.45C1.066,19.117 2.583,21.45 7.316,24.45C12.083,27.45 16.75,28.983 21.316,29.05L21.866,29.05C21.954,29.049 22.037,29.049 22.116,29.05C22.128,29.159 22.162,29.259 22.216,29.35L24.016,33.45C24.116,33.683 24.266,33.85 24.466,33.95C24.666,34.05 24.883,34.083 25.116,34.05C30.05,33.217 34.033,31.383 37.066,28.55C37.233,28.383 37.316,28.183 37.316,27.95C37.383,27.717 37.366,27.533 37.266,27.4L36.816,26.45C37.045,26.352 37.279,26.252 37.516,26.15C39.331,25.382 40.781,24.549 41.866,23.65L46.166,26.4C47.366,27.167 48.6,27.55 49.866,27.55C50.7,27.55 51.533,27.167 52.366,26.4L57.566,21.25C59.2,19.65 59.2,18.067 57.566,16.5L52.366,11.35C51.533,10.55 50.7,10.15 49.866,10.15C48.6,10.15 47.366,10.55 46.166,11.35L41.516,14.3C40.474,13.521 39.141,12.788 37.516,12.1C36.581,11.707 35.614,11.357 34.616,11.05L35.266,9.6C35.366,9.333 35.383,9.083 35.316,8.85C35.283,8.583 35.15,8.367 34.916,8.2C29.35,4.1 22.95,2.033 15.716,2C15.383,2 15.1,2.1 14.866,2.3C14.666,2.5 14.566,2.767 14.566,3.1L14.566,10.15C13.22,10.639 11.737,11.339 10.116,12.25C6.95,14.083 4.5,15.817 2.766,17.45Z" style="fill:rgb(33,102,147);fill-rule:nonzero;"/>
        <path d="M22.216,29.35C22.162,29.259 22.128,29.159 22.116,29.05C27.75,28.962 32.65,28.095 36.816,26.45L37.266,27.4C37.366,27.533 37.383,27.717 37.316,27.95C37.316,28.183 37.233,28.383 37.066,28.55C34.033,31.383 30.05,33.217 25.116,34.05C24.883,34.083 24.666,34.05 24.466,33.95C24.266,33.85 24.116,33.683 24.016,33.45L22.216,29.35M20.616,20.95C21.482,21.137 22.348,21.287 23.216,21.4C26.095,21.869 29.028,22.052 32.016,21.95C32.216,21.983 32.4,22.033 32.566,22.1C32.733,22.233 32.866,22.383 32.966,22.55C33.066,22.717 33.116,22.9 33.116,23.1L32.816,25.2C32.783,25.433 32.7,25.617 32.566,25.75C32.433,25.917 32.25,26.017 32.016,26.05C28.849,26.735 25.599,26.952 22.266,26.7C21.699,26.667 21.133,26.617 20.566,26.55C20.266,26.517 20.033,26.4 19.866,26.2C19.7,26.067 19.616,25.867 19.616,25.6L19.416,21.95C19.416,21.75 19.45,21.567 19.516,21.4C19.683,21.233 19.866,21.1 20.066,21C20.266,20.9 20.45,20.883 20.616,20.95M35.266,9.6L34.616,11.05C30.884,9.895 26.634,9.279 21.866,9.2L21.516,9.2C21.45,9.2 20.316,9.267 18.116,9.4C17.063,9.449 15.88,9.699 14.566,10.15L14.566,3.1C14.566,2.767 14.666,2.5 14.866,2.3C15.1,2.1 15.383,2 15.716,2C22.95,2.033 29.35,4.1 34.916,8.2C35.15,8.367 35.283,8.583 35.316,8.85C35.383,9.083 35.366,9.333 35.266,9.6M41.516,14.3L46.166,11.35C47.366,10.55 48.6,10.15 49.866,10.15C50.7,10.15 51.533,10.55 52.366,11.35L57.566,16.5C59.2,18.067 59.2,19.65 57.566,21.25L52.366,26.4C51.533,27.167 50.7,27.55 49.866,27.55C48.6,27.55 47.366,27.167 46.166,26.4L41.866,23.65C43.533,22.298 44.366,20.798 44.366,19.15C44.366,17.367 43.416,15.751 41.516,14.3Z" style="fill:rgb(47,138,198);fill-rule:nonzero;"/>
        <path d="M34.616,11.05C35.614,11.357 36.581,11.707 37.516,12.1C39.141,12.788 40.474,13.521 41.516,14.3C43.416,15.751 44.366,17.367 44.366,19.15C44.366,20.798 43.533,22.298 41.866,23.65C40.781,24.549 39.331,25.382 37.516,26.15C37.279,26.252 37.045,26.352 36.816,26.45C32.65,28.095 27.75,28.962 22.116,29.05C22.037,29.049 21.954,29.049 21.866,29.05L21.516,29.05C21.796,28.269 22.046,27.485 22.266,26.7C25.599,26.952 28.849,26.735 32.016,26.05C32.25,26.017 32.433,25.917 32.566,25.75C32.7,25.617 32.783,25.433 32.816,25.2L33.116,23.1C33.116,22.9 33.066,22.717 32.966,22.55C32.866,22.383 32.733,22.233 32.566,22.1C32.4,22.033 32.216,21.983 32.016,21.95C29.028,22.052 26.095,21.869 23.216,21.4C23.405,19.395 23.372,17.395 23.116,15.4C22.825,13.316 22.291,11.249 21.516,9.2L21.866,9.2C26.634,9.279 30.884,9.895 34.616,11.05Z" style="fill:rgb(52,152,219);fill-rule:nonzero;"/>
        <path d="M7.316,24.45C2.583,21.45 1.066,19.117 2.766,17.45C4.5,15.817 6.95,14.083 10.116,12.25C11.737,11.339 13.22,10.639 14.566,10.15C15.88,9.699 17.063,9.449 18.116,9.4C20.316,9.267 21.45,9.2 21.516,9.2C22.291,11.249 22.825,13.316 23.116,15.4C23.372,17.395 23.405,19.395 23.216,21.4C22.348,21.287 21.482,21.137 20.616,20.95C20.45,20.883 20.266,20.9 20.066,21C19.866,21.1 19.683,21.233 19.516,21.4C19.45,21.567 19.416,21.75 19.416,21.95L19.616,25.6C19.616,25.867 19.7,26.067 19.866,26.2C20.033,26.4 20.266,26.517 20.566,26.55C21.133,26.617 21.699,26.667 22.266,26.7C22.046,27.485 21.796,28.269 21.516,29.05L21.316,29.05C16.75,28.983 12.083,27.45 7.316,24.45M12.566,18.9C12.866,18.6 13.016,18.25 13.016,17.85C13.016,17.45 12.866,17.1 12.566,16.8C12.266,16.5 11.916,16.35 11.516,16.35C11.083,16.35 10.716,16.5 10.416,16.8C10.116,17.1 9.966,17.45 9.966,17.85C9.966,18.25 10.116,18.6 10.416,18.9C10.716,19.2 11.083,19.35 11.516,19.35C11.916,19.35 12.266,19.2 12.566,18.9Z" style="fill:rgb(55,165,238);fill-rule:nonzero;"/>
        <path d="M13.016,17.85C13.016,18.25 12.866,18.6 12.566,18.9C12.266,19.2 11.916,19.35 11.516,19.35C11.083,19.35 10.716,19.2 10.416,18.9C10.116,18.6 9.966,18.25 9.966,17.85C9.966,17.45 10.116,17.1 10.416,16.8C10.716,16.5 11.083,16.35 11.516,16.35C11.916,16.35 12.266,16.5 12.566,16.8C12.866,17.1 13.016,17.45 13.016,17.85Z" style="fill:rgb(44,132,191);fill-rule:nonzero;"/>
    </g>
</svg>
