<?xml version="1.0" encoding="UTF-8"?>
<!DOCTYPE svg PUBLIC "-//W3C//DTD SVG 1.1//EN" "http://www.w3.org/Graphics/SVG/1.1/DTD/svg11.dtd">
<svg version="1.1" xmlns="http://www.w3.org/2000/svg" xmlns:xlink="http://www.w3.org/1999/xlink" x="0" y="0" width="1052" height="937" viewBox="0, 0, 1052, 937">
  <defs>
    <clipPath id="Clip_1">
      <path d="M0.06,0.511 L1051.01,0.511 L1051.01,936.94 L0.06,936.94 z"/>
    </clipPath>
  </defs>
  <g id="Layer_1">
    <g clip-path="url(#Clip_1)">
      <path d="M952.063,644.96 C940.332,652.176 927.603,656.559 913.99,658.514 C902.594,660.151 891.201,661.14 879.928,657.907 C872.713,655.838 866.856,652.001 865.019,644.113 C864.291,640.989 862.676,642.656 861.384,643.202 C851.136,647.535 840.641,651.139 829.9,654.034 C826.825,654.166 825.091,651.913 823.406,649.99 C821.243,647.523 823.334,646.05 825.315,644.99 C830.751,642.081 836.147,639.107 841.424,635.92 C874.682,615.839 900.578,588.699 919.621,554.864 C929.729,536.903 937.347,517.964 943.093,498.223 C945.076,491.408 945.692,490.863 951.693,490.729 C975.791,490.193 992.547,475.327 996.465,451.17 C998.355,439.513 998.051,427.952 995.596,416.425 C991.688,398.074 979.025,387.617 960.225,387.505 C956.678,387.484 954.903,386.357 954.712,382.778 C954.534,379.435 953.671,375.83 958.861,375.561 C960.183,375.492 961.472,375.022 962.689,374.46 C965.726,373.06 967.384,370.679 967.12,367.333 C966.856,363.985 964.813,361.916 961.631,360.953 C960.338,360.561 959,360.352 957.68,360.623 C948.828,362.44 940.043,360.84 931.351,359.69 C890.327,354.263 851.906,340.077 814.116,323.996 C785.443,311.795 757.183,298.676 730.41,282.642 C712.779,272.083 696.735,259.39 681.788,245.25 C647.228,212.557 620.503,174.267 599.839,131.577 C598.171,128.132 596.64,124.595 594.486,121.414 C592.567,118.582 589.954,116.918 586.393,117.831 C583.017,118.697 581.424,121.236 581.433,124.513 C581.447,129.105 578.624,130.702 574.874,132.065 C539.141,145.055 507.337,164.5 480.307,191.264 C451.201,220.084 430.392,254.332 416.077,292.613 C405.399,321.165 398.755,350.669 395.319,380.917 C394.849,385.063 393.112,387.113 388.756,387.421 C367.134,388.95 358.24,401.806 354.796,418.833 C352.183,431.755 352.637,444.709 355.881,457.474 C360.885,477.163 377.256,490.085 397.663,490.73 C403.565,490.916 404.575,491.625 406.155,497.145 C412.045,517.734 420.148,537.395 430.65,556.069 C433.388,560.938 432.682,562.235 427.06,562.278 C411.399,562.396 395.737,562.267 380.077,562.358 C376.249,562.38 374.085,560.747 372.233,557.459 C356.992,530.408 346.658,501.453 338.643,471.594 C337.048,465.651 335.251,459.739 334.434,453.608 C334.875,450.959 334.922,448.359 333.415,445.96 C333.216,445.208 333.19,444.449 333.293,443.681 C332.586,430.251 331.742,416.846 331.606,403.377 C331.272,370.258 334.926,337.61 341.956,305.312 C349.282,271.651 360.19,239.182 375.94,208.499 C390.084,180.942 407.697,155.843 429.739,133.869 C448.392,115.272 467.19,96.94 489.428,82.527 C502.195,74.251 515.673,67.455 529.905,62.117 C533.665,60.238 537.722,60.836 541.691,60.718 C547.918,60.532 549.722,59.234 550.657,53.074 C551.37,48.375 554.792,46.48 558.271,44.524 C571.427,37.128 585.503,32.118 600.09,28.389 C623.386,22.435 647.043,19.338 671.028,17.523 C722.905,13.598 771.481,25.917 818.587,45.95 C852.265,60.272 882.545,80.146 910.085,104.156 C914.782,108.251 920.058,111.924 923.429,117.42 C924.384,129.955 923.281,142.216 919.181,154.216 C913.396,171.148 902.501,183.48 886.627,191.535 C881.642,194.065 882.327,193.626 885.023,198.043 C890.263,206.63 897.224,206.899 905.969,204.961 C926.073,200.505 944.347,192.103 961.612,181.145 C964.783,179.132 967.476,176.144 971.55,175.755 C977.388,181.404 980.734,188.742 984.671,195.616 C1008.91,237.942 1023.3,283.522 1029.3,331.851 C1032.28,355.785 1034.51,379.739 1035.57,403.873 C1037.33,443.808 1033.23,482.9 1022.32,521.315 C1011.14,560.69 992.788,596.504 968.415,629.279 C963.88,635.378 958.281,640.533 952.063,644.96" fill="#DBA76F"/>
      <path d="M510.464,655.61 C513.107,649.391 515.151,648.409 521.673,650.207 C528.398,652.062 535.294,653.18 542.041,654.936 C544.339,655.734 546.638,656.532 549.462,657.512 C538.74,669.681 528.646,681.716 518.406,694.863 C515.385,683.265 512.607,672.597 509.829,661.93 C509.187,659.738 509.606,657.629 510.464,655.61 z M553.098,813.409 C560.472,806.758 567.659,799.9 574.537,793.476 C574.537,801.819 574.615,811.188 574.519,820.556 C574.355,836.679 573.96,852.8 573.947,868.923 C573.943,872.766 573.324,875.746 569.488,877.37 C566.827,875.722 565.392,873.288 564.561,869.997 C560.336,853.273 555.875,836.608 551.366,819.958 C550.635,817.259 550.91,815.383 553.098,813.409 z M803.734,793.101 C807.56,798.73 811.386,804.359 815.566,810.509 C812.043,810.509 809.312,810.495 806.581,810.514 C805.16,810.524 804.43,809.789 804.292,808.444 C803.778,803.435 803.288,798.424 802.789,793.413 C803.104,793.309 803.419,793.205 803.734,793.101 z M1050.94,400.221 C1050.58,361.635 1046.19,323.431 1037.28,285.955 C1016.59,199.013 970.23,128.4 899.091,74.413 C846.449,34.465 786.948,10.113 721.361,2.535 C674.402,-2.891 627.967,2.854 582.716,16.657 C564.331,22.265 546.678,29.617 533.042,44.02 C531.83,45.3 530.389,45.148 528.911,45.268 C501.166,47.513 475.727,56.596 452.212,71.283 C421.52,90.453 397.041,116.088 375.674,144.964 C329.055,207.964 304.862,278.351 305.541,357.011 C305.756,381.894 308.652,406.474 313.106,430.904 C320.312,470.431 330.571,509.039 347.927,545.484 C350.323,550.514 352.775,555.517 355.436,561.019 C352.993,561.019 351.194,561.019 349.394,561.019 C243.086,561.019 136.777,561.027 30.469,560.996 C25.259,560.994 20.137,561.332 15.303,563.406 C2.351,568.964 -2.805,582.2 1.476,598.401 C26.013,691.259 50.53,784.123 75.036,876.989 C80.01,895.837 96.175,908.428 115.574,908.457 C121.073,908.465 126.588,908.716 132.065,908.37 C135.901,908.127 136.686,909.401 136.701,913.093 C136.754,926.837 147.16,936.971 160.744,936.971 C322.373,936.973 484.002,936.961 645.631,937 C655.949,937.002 663.172,932.111 667.402,923.148 C669.056,919.645 670.82,918.888 674.379,918.892 C758.526,918.998 842.673,918.976 926.82,918.964 C928.982,918.963 931.204,919.091 933.292,918.654 C937.248,917.825 939.702,915.325 940.221,911.171 C940.711,907.248 939.047,904.363 935.776,902.409 C933.68,901.158 931.252,901.499 928.931,901.499 C893.439,901.493 857.948,901.495 822.456,901.495 C814.549,901.495 814.792,901.459 813.653,893.81 C813.123,890.246 814.203,889.662 817.373,889.758 C827.861,890.077 838.352,889.8 848.812,888.954 C865.612,887.596 882.206,885.245 897.711,878.039 C919.167,868.069 927.182,850.104 920.235,827.544 C918.271,821.169 915.653,815.057 912.677,809.107 C897.09,777.941 877.784,749.029 858.379,720.199 C855.537,715.977 855.638,713.905 859.817,710.878 C867.022,705.659 867.214,702.077 862.267,694.475 C852.801,679.929 841.586,666.796 829.9,654.034 C829.107,653.45 828.256,652.932 827.531,652.273 C822.583,647.779 822.63,647.843 828.581,644.713 C854.964,630.841 878.072,612.888 897.165,589.864 C919.632,562.771 934.834,531.952 944.383,498.239 C945.565,494.065 946.988,492.17 951.992,492.123 C973.597,491.918 989.378,479.913 995.794,459.319 C999.939,446.015 1000.16,432.374 997.429,418.828 C992.898,396.374 981.598,387.004 958.882,386.296 C956.961,386.237 956.097,385.898 956.077,383.934 C956.043,380.461 954.292,376.584 960.765,376.494 C965.993,376.421 969.388,371.429 968.749,366.917 C968.059,362.049 964.176,359.008 958.722,359.19 C956.068,359.279 953.417,359.761 950.769,359.725 C923.852,359.361 898.097,352.757 872.686,344.68 C837.408,333.467 803.606,318.612 770.304,302.545 C740.176,288.009 711.606,271.143 686.856,248.333 C650.628,214.945 622.664,175.52 601.135,131.371 C599.384,127.779 597.855,124.062 595.859,120.613 C593.736,116.945 590.292,115.252 586.089,116.357 C582.398,117.327 579.425,119.96 579.98,123.833 C580.69,128.786 577.748,129.575 574.374,130.82 C521.909,150.189 479.2,182.263 447.576,228.628 C416.284,274.503 400.525,325.914 393.965,380.524 C393.502,384.376 392.819,386.249 388.176,386.313 C372.61,386.529 361.052,395.306 355.835,410.041 C350.979,423.757 350.838,437.851 353.24,451.937 C357.462,476.686 374.277,491.336 399.244,492.195 C402.965,492.323 404.052,493.911 404.87,496.955 C408.895,511.935 414.242,526.441 421.057,540.38 C424.379,547.176 427.921,553.864 431.577,561.019 C417.845,561.019 404.691,561.019 391.537,561.019 C375.207,561.019 375.28,560.982 367.889,546.519 C352.724,516.839 342.985,485.279 335.271,453.007 C335.971,450.483 335.273,448.192 334.095,445.981 C334.053,445.385 334.011,444.788 333.969,444.192 C333.574,438.561 332.767,432.979 331.741,427.439 C327.495,404.502 324.805,381.407 324.385,358.065 C324.16,345.573 325.211,333.155 326.321,320.732 C328.767,293.384 334.16,266.599 344.245,241.094 C364.409,190.102 393.374,144.824 434.573,108.077 C452.855,91.771 473.282,78.846 496.757,70.97 C507.702,67.298 519.13,66.055 530.178,63.041 C534.577,61.609 539.109,62.706 543.566,62.347 C548.688,61.934 551.967,59.175 551.898,54.297 C551.85,50.92 553.277,49.232 555.888,47.597 C567.134,40.55 579.343,35.795 592.002,32.084 C613.608,25.75 635.678,22.023 658.084,19.908 C677.691,18.058 697.321,17.141 716.877,19.406 C746.731,22.863 775.696,30.254 803.714,41.194 C848.617,58.728 888.369,84.287 922.937,117.896 C923.271,120.07 925.033,121.221 926.376,122.661 C938.749,135.931 950.813,149.444 961.447,164.203 C964.404,168.306 966.313,173.353 970.965,176.136 C995.846,213.155 1012.98,253.546 1021.84,297.184 C1031.39,344.219 1035.96,391.789 1034.08,439.876 C1033.43,456.526 1031.6,473.028 1028.54,489.376 C1019.22,539.216 999.303,584.506 969.609,625.551 C965.982,630.564 962.091,635.365 957.121,639.071 C954.92,640.713 953.324,642.632 952.063,644.961 C951.572,649.256 952.48,652.958 956.63,655.131 C960.973,657.405 964.659,655.826 968.039,652.948 C969.813,651.439 971.562,649.897 973.262,648.306 C982.497,639.659 988.788,628.778 995.531,618.311 C1031.44,562.584 1050.6,501.728 1050.95,435.213 C1051.01,423.549 1051.05,411.884 1050.94,400.221" fill="#6E4100"/>
    </g>
    <path d="M200.861,113.849 C212.315,113.399 225.48,117.553 237.761,124.818 C243.768,128.372 249.698,132.062 255.575,135.829 C260.327,138.874 261.665,144.082 258.993,148.269 C256.294,152.495 251,153.615 246.256,150.69 C239.185,146.33 232.263,141.747 224.9,137.848 C208.835,129.34 192.266,129.826 175.504,134.919 C167.223,137.435 163.683,141.56 164.077,146.867 C164.53,152.966 169.899,157.768 178.004,159.004 C188.981,160.679 199.551,158.714 209.788,154.803 C213.084,153.544 216.209,152.959 219.328,154.848 C224.902,158.222 225.111,167.098 219.147,169.681 C201.244,177.434 182.681,180.857 164.009,172.754 C153.15,168.041 147.024,159.054 146.627,146.892 C146.227,134.659 152.612,126.492 163.03,121.121 C173.952,115.49 185.822,114.15 200.861,113.849" fill="#6E4100"/>
    <path d="M254.202,22.108 C268.463,22.702 279.314,30.307 287.906,41.665 C293.275,48.762 296.975,56.686 298.587,65.526 C299.698,71.621 297.405,76.152 292.434,77.31 C286.812,78.62 282.725,75.543 281.333,68.911 C278.923,57.439 272.935,48.367 262.857,42.325 C255.018,37.625 247.327,39.27 243.813,45.881 C242.427,48.488 242.158,50.674 244.663,52.966 C246.591,54.731 248.382,56.891 249.518,59.224 C251.458,63.211 250.757,67.119 247.137,69.93 C243.767,72.547 240.047,72.686 236.553,70.053 C226.138,62.207 222.766,52.694 226.422,41.776 C230.319,30.141 241.513,22.06 254.202,22.108" fill="#6E4100"/>
    <path d="M333.969,444.192 C330.625,432.707 329.1,420.859 327.297,409.094 C319.123,355.773 322.195,303.152 339.108,251.795 C355.01,203.51 381.471,161.301 415.938,124.124 C435.81,102.689 458.613,85.041 485.798,73.649 C499.987,67.704 514.688,63.668 530.177,63.041 C521.988,67.378 513.151,70.281 504.999,74.761 C477.69,89.769 455.017,110.434 433.093,132.215 C382.967,182.015 356.4,243.645 342.058,311.53 C334.418,347.693 331.938,384.294 333.233,421.177 C333.461,427.646 334.282,434.093 334.796,440.553 C334.898,441.828 335.381,443.239 333.969,444.192" fill="#FEFEFE"/>
    <path d="M952.921,340.147 C946.484,338.951 939.216,336.612 932.009,334.071 C890.347,319.379 853.712,296.053 819.832,268.178 C784.553,239.151 753.531,206.114 727.705,168.327 C725.452,165.03 723.207,161.719 721.135,158.308 C718.07,153.264 719.118,147.967 723.547,145.271 C727.846,142.654 732.795,143.961 735.945,148.924 C746.761,165.962 758.762,182.129 772.148,197.204 C815.496,246.021 864.754,287.08 925.476,312.89 C935.434,317.123 945.746,320.341 956.214,323.083 C961.258,324.405 963.749,328.311 962.972,333.174 C962.278,337.512 958.829,340.217 952.921,340.147" fill="#6E4100"/>
    <path d="M922.937,117.896 C940.994,135.62 957.295,154.792 970.965,176.135 C948.446,192.512 923.985,204.278 896.037,207.854 C893.505,208.178 891.618,207.77 889.944,205.642 C887.274,202.245 884.393,199.004 881.458,195.829 C879.74,193.97 879.771,193.04 882.27,191.961 C910.741,179.665 921.324,156.209 922.668,127 C922.808,123.965 920.877,120.867 922.937,117.896" fill="#FEFEFE"/>
    <path d="M335.271,453.007 C334.879,450.666 334.487,448.325 334.095,445.982 C336.912,447.917 336.58,450.381 335.271,453.007" fill="#E4D4C3"/>
    <path d="M921.178,512.035 C914.682,531.773 904.917,549.843 892.832,566.651 C861.517,610.202 818.57,636.56 767.202,649.28 C699.09,666.147 631.128,665.197 563.922,643.996 C540.29,636.541 518.564,625.107 498.738,610.133 C496.334,608.318 494.84,606.286 494.201,603.362 C493.386,599.633 492.343,595.949 491.275,592.282 C486.1,574.493 474.087,564.403 456.033,561.277 C454.19,560.957 452.6,560.923 451.426,559.045 C443.844,546.923 436.76,534.558 431.937,521.026 C434.318,520.089 436.09,521.689 437.976,522.574 C447.264,526.935 457.055,529.717 467.211,530.542 C481.397,531.694 494.086,527.863 504.873,518.013 C516.47,507.424 525.347,495.443 528.135,479.532 C529.673,470.756 527.466,462.628 524.617,454.639 C519.913,441.445 513.029,429.645 501.667,420.868 C480.839,404.778 452.281,407.882 433.388,425.047 C426.693,431.131 420.933,437.969 416.525,445.914 C415.77,447.274 415.29,449.144 413.111,449.037 C409.064,420.508 408.824,392.067 413.955,363.577 C420.453,327.503 430.827,292.799 448.545,260.538 C479.041,205.012 524.594,167.275 583.996,145.831 C587.38,144.609 588.55,145.541 590.014,148.383 C606.311,180.029 625.973,209.405 649.788,235.915 C677.209,266.438 709.022,291.204 745.716,309.787 C788.466,331.436 832.074,350.937 878.075,364.677 C896.257,370.108 914.688,374.503 933.659,376.155 C936.499,376.402 937.927,377.054 938.245,380.444 C940.593,405.444 939.545,430.301 935.796,455.085 C933.122,457.601 932.829,454.606 932.327,453.347 C930.473,448.696 928.323,444.177 925.869,439.846 C916.834,423.906 903.7,413.12 885.233,410.713 C857.158,407.052 833.303,421.551 822.421,445.203 C811.962,467.937 817.245,498.721 835.504,515.265 C844.828,523.713 856.188,527.016 867.976,529.512 C887.146,533.572 903.437,528.089 917.205,514.402 C918.291,513.322 919.039,511.442 921.178,512.035" fill="#FEF8EA"/>
    <path d="M326.254,890.978 C256.434,890.978 186.614,890.979 116.794,890.977 C104.066,890.977 95.101,884.078 91.803,871.6 C67.291,778.85 42.797,686.096 18.31,593.34 C15.555,582.906 18.851,578.601 29.77,578.599 C169.744,578.576 309.717,578.574 449.69,578.601 C462.449,578.604 471.526,585.701 474.771,598.003 C499.158,690.438 523.533,782.878 547.881,875.324 C548.47,877.558 549.004,879.883 549.031,882.173 C549.089,887.083 546.107,890.289 541.207,890.882 C539.563,891.081 537.88,890.975 536.214,890.975 C466.227,890.979 396.241,890.978 326.254,890.978" fill="#D6D6D6"/>
    <path d="M626.172,874.021 C620.884,874.021 616.259,872.871 612.678,874.314 C608.248,876.099 604.691,877.084 600.734,874.038 C600.519,873.873 600.083,874.005 599.751,873.981 C590.62,873.336 591.051,873.347 591.29,863.928 C591.836,842.462 591.895,820.983 592.194,799.509 C592.372,786.696 592.568,773.883 592.883,761.073 C592.995,756.511 591.156,753.273 587.66,750.388 C570.455,736.187 553.433,721.764 536.222,707.57 C533.689,705.481 533.195,704.295 535.463,701.509 C545.031,689.759 554.658,678.071 564.813,666.817 C566.806,664.609 568.454,663.876 571.619,664.782 C591.972,670.603 612.713,674.502 633.839,676.137 C637.648,676.431 639.842,677.53 641.201,681.7 C645.221,694.037 651.98,704.607 663.995,710.754 C680.191,719.039 700.067,714.659 712.918,700.165 C718.622,693.731 722.693,686.312 725.624,678.303 C726.491,675.935 727.576,674.883 730.063,674.553 C754.701,671.29 778.762,665.625 801.978,656.667 C804.202,655.809 805.374,656.643 806.829,657.783 C821.401,669.205 832.838,683.461 843.664,698.298 C845.642,701.009 843.427,701.722 842.035,702.865 C819.653,721.256 797.243,739.613 774.858,758.001 C769.639,762.288 768.608,767.086 771.87,771.358 C774.239,774.46 777.023,775.245 782.837,774.35 C784.121,785.422 785.346,796.493 786.736,807.544 C787.019,809.794 786.046,810.02 784.287,810.004 C778.795,809.955 773.298,809.88 767.809,810.041 C765.734,810.102 764.916,808.817 763.865,807.546 C757.171,799.447 749.745,792.1 741.885,785.108 C720.145,765.768 696.181,764.272 671.064,776.758 C639.945,792.227 621.746,817.035 619.61,852.424 C619.154,859.988 620.229,867.32 626.172,874.021" fill="#FEFEFE"/>
    <path d="M720.228,881.782 C719.564,879.077 720.838,876.983 721.493,874.798 C722.4,871.779 723.617,868.849 724.431,865.808 C725.863,860.465 723.752,855.962 719.272,854.334 C714.655,852.656 710.317,854.617 707.922,859.691 C705.471,864.885 701.706,868.684 696.504,871.045 C693.33,872.486 690.032,873.025 687.048,870.756 C683.727,868.23 682.368,864.803 683.261,860.606 C684.308,855.679 686.456,851.173 688.558,846.651 C689.468,844.693 690.489,842.786 691.421,840.836 C694.752,833.864 694.524,830.074 690.604,826.83 C686.643,823.553 682.428,824.234 676.291,829.052 C669.43,834.438 664.085,841.299 658.128,847.566 C653.888,852.027 649.85,856.791 644.13,859.459 C638.534,862.068 636.96,861.112 637.057,854.985 C637.206,845.573 638.853,836.264 643.048,827.899 C654.422,805.216 672.506,790.945 697.858,786.825 C707.281,785.293 715.981,787.709 723.772,793.39 C734.761,801.402 744.348,810.851 752.488,821.694 C755.584,825.816 759.061,827.762 764.282,827.576 C786.093,826.799 807.874,827.945 829.645,829.111 C834.021,829.346 838.13,829.167 840.574,824.913 C843.135,820.457 841.058,816.703 838.506,812.947 C826.905,795.879 815.44,778.719 803.817,761.665 C802.364,759.533 801.991,758.341 804.328,756.472 C815.771,747.318 827.063,737.975 838.371,728.652 C840.163,727.174 841.377,725.909 843.288,728.843 C862.702,758.661 882.971,787.956 898.407,820.171 C900.921,825.418 903.204,830.756 904.486,836.475 C906.717,846.431 903.903,853.672 895.306,859.218 C884.983,865.877 873.251,868.317 861.344,869.956 C835.294,873.542 809.179,872.399 783.074,870.652 C776.374,870.203 773.859,871.608 771.669,877.623 C768.884,885.271 761.957,887.409 755.337,882.587 C752.32,880.389 750.295,877.395 748.61,874.058 C745.675,868.246 740.378,866.948 734.832,870.467 C729.658,873.75 725.796,878.773 720.228,881.782" fill="#FEF8EA"/>
    <path d="M921.178,512.035 C909.246,525.262 894.939,533.603 876.569,531.918 C843.375,528.874 821.316,514.748 816.374,479.324 C811.352,443.334 834.425,414.197 868.613,409.378 C894.003,405.799 914.007,416.272 927.13,439.461 C929.746,444.084 932.269,448.807 933.801,453.94 C934.17,455.177 934.564,455.68 935.796,455.085 C932.829,474.558 928.638,493.716 921.178,512.035" fill="#FFD5BA"/>
    <path d="M413.111,449.037 C418.219,440.478 423.791,432.38 431.038,425.324 C456.068,400.954 494.823,404.199 514.846,432.722 C523.091,444.466 528.898,457.374 529.849,471.772 C530.733,485.141 525.287,496.928 517.115,507.088 C509.525,516.524 501.013,525.153 488.951,529.241 C475.581,533.774 462.518,532.149 449.389,528.304 C443.282,526.515 437.582,523.865 431.937,521.026 C424.222,504.159 419.631,486.34 416.056,468.237 C414.803,461.891 414.077,455.44 413.111,449.037" fill="#FFD5BA"/>
    <path d="M534.828,919.52 C533.263,920.35 531.569,919.957 529.941,919.958 C408.33,919.978 286.719,919.976 165.107,919.977 C161.945,919.977 158.712,920.263 156.216,917.688 C154.185,915.591 153.473,913.118 154.456,910.355 C155.384,907.744 157.76,908.567 159.625,908.567 C282.902,908.536 406.179,908.554 529.456,908.466 C533.049,908.464 534.663,909.131 534.151,913.084 C533.883,915.157 534.569,917.354 534.828,919.52" fill="#D6D5D5"/>
    <path d="M950.289,474.679 C954.576,452.589 957.088,430.625 956.862,408.424 C956.822,404.48 958.134,403.729 961.625,403.813 C969.924,404.014 975.329,407.13 978.084,415.048 C983.182,429.701 983.127,444.524 977.105,458.9 C972.718,469.373 962.287,475.198 950.289,474.679" fill="#FEF8EA"/>
    <path d="M369.176,436.422 C369.604,429.334 369.756,421.486 373.036,414.157 C376.059,407.405 381.19,403.998 388.669,403.804 C391.742,403.724 392.567,404.609 392.595,407.692 C392.773,427.866 394.443,447.915 398.038,467.793 C399.512,475.944 399.348,476.03 391.075,473.613 C377.595,469.675 372.057,459.48 370.115,446.589 C369.644,443.467 369.523,440.293 369.176,436.422" fill="#FEF8EA"/>
    <path d="M545.345,796.753 C540.531,778.601 536.244,761.236 531.19,744.097 C529.636,738.827 531.375,735.676 534.481,732.209 C535.811,730.725 536.649,730.721 538.116,731.959 C549.809,741.826 561.534,751.656 573.322,761.409 C575.374,763.106 575.391,764.498 573.669,766.34 C564.385,776.269 555.137,786.231 545.345,796.753" fill="#FEF8EA"/>
    <path d="M602.081,905.54 C615.884,905.54 629.687,905.521 643.491,905.55 C649.145,905.562 652.338,908.205 652.288,912.69 C652.238,917.088 648.891,919.945 643.369,919.954 C615.762,919.999 588.155,920.004 560.549,919.947 C555.039,919.936 551.739,917.008 551.744,912.568 C551.75,908.113 554.942,905.559 560.671,905.548 C574.474,905.523 588.277,905.54 602.081,905.54" fill="#D6D6D6"/>
    <path d="M665.264,865.672 C669.1,881.671 678.902,890.189 692.458,889.81 C700.474,889.586 702.361,890.296 708.123,895.698 C714.133,901.334 722.298,901.559 730.601,896.209 C733.102,894.597 735.333,891.577 737.897,891.324 C740.624,891.055 742.111,895.104 744.684,896.625 C747.04,898.017 749.341,899.503 752.554,901.5 C732.793,901.5 714.058,901.5 695.324,901.5 C687.162,901.5 678.998,901.413 670.838,901.552 C668.399,901.594 666.956,900.843 665.605,898.747 C661.589,892.52 655.658,888.901 648.354,888.149 C645.444,887.85 644.716,886.985 644.955,884.331 C645.086,882.879 644.92,881.292 644.44,879.923 C643.899,878.385 644.364,877.732 645.73,877.405 C653.244,875.606 659.212,871.157 665.264,865.672" fill="#FDFDFD"/>
    <path d="M706.75,676.985 C701.13,690.789 691.099,697.958 679.133,697.102 C670.97,696.518 660.415,687.383 659.16,679.808 C658.675,676.879 660.985,678.075 662.068,678.059 C672.352,677.912 682.638,677.969 692.921,677.806 C697.386,677.736 701.844,677.289 706.75,676.985" fill="#FEF8EA"/>
    <path d="M542.041,654.936 C534.169,655.121 526.595,653.397 519.274,650.796 C516.006,649.635 514.365,650.284 513.214,653.345 C512.132,656.225 509.475,658.484 509.829,661.932 C507.495,653.204 505.161,644.478 502.443,634.317 C515.958,642.55 528.854,649.035 542.041,654.936" fill="#DBA76F"/>
    <path d="M773.222,901.522 C778.068,898.156 782.3,894.553 785.68,889.693 C787.67,886.831 791.242,889.058 794.05,889.089 C796.821,889.12 795.815,891.807 795.966,893.387 C796.745,901.517 796.692,901.522 788.584,901.522 C783.463,901.522 778.343,901.522 773.222,901.522" fill="#FBFAF9"/>
    <path d="M524.171,410.203 C524.495,404.174 525.527,397.289 528.876,391.008 C530.12,388.676 530.079,386.975 528.547,384.709 C525.015,379.483 523.817,373.425 523.534,367.212 C523.32,362.525 525.59,359.709 529.445,359.539 C533.333,359.367 535.587,361.829 536.058,366.566 C536.288,368.876 536.611,371.194 537.133,373.452 C537.979,377.11 539.328,379.793 544.195,378.659 C547.732,377.835 550.978,379.753 553.759,382.042 C566.665,392.662 570.444,413.364 561.92,427.751 C557.719,434.842 552.024,440.175 543.025,439.002 C534.196,437.851 528.953,432.049 526.147,423.953 C524.729,419.859 524.153,415.555 524.171,410.203" fill="#6E4100"/>
    <path d="M810.829,412.225 C810.448,418.172 809.555,424.887 805.44,430.701 C797.73,441.592 784.256,442.078 775.837,431.777 C766.042,419.791 765.64,403.748 775.123,389.181 C776.942,386.387 777.11,384.453 775.34,381.678 C773.209,378.337 771.828,374.564 770.881,370.668 C769.939,366.795 770.679,363.626 774.741,362.167 C778.458,360.831 781.425,362.791 782.946,367.244 C783.535,368.967 784.151,370.681 784.782,372.389 C786.153,376.106 787.8,378.796 792.735,378.946 C797.835,379.101 801.199,383.139 803.975,387.206 C808.118,393.276 810.796,402.881 810.829,412.225" fill="#6E4100"/>
    <path d="M668.726,565.8 C679.268,565.935 689.304,568.214 697.723,575.361 C702.252,579.205 703.023,583.327 700.061,587.027 C696.993,590.858 692.785,590.779 687.935,586.799 C678.136,578.757 661.224,578.874 651.639,587.05 C648.39,589.822 644.166,589.846 641.28,587.107 C638.238,584.222 638.074,579.832 641.1,576.38 C648.377,568.079 658.051,565.879 668.726,565.8" fill="#6E4100"/>
    <path d="M581.237,262.919 C578.701,262.694 576.587,261.307 574.527,259.954 C567.424,255.291 561.246,249.453 554.763,244.013 C551.998,241.693 551.645,238.477 553.856,235.547 C556.243,232.383 559.552,231.991 562.63,234.334 C570.277,240.153 577.079,247.04 585.434,251.996 C587.64,253.304 588.44,255.901 587.369,258.626 C586.28,261.395 584.294,262.855 581.237,262.919" fill="#6E4100"/>
    <path d="M664.512,447.696 C664.387,451.383 662.62,454.168 659.3,455.534 C655.857,456.95 652.191,456.715 649.679,453.705 C647.147,450.67 644.965,447.28 643.051,443.813 C641.135,440.341 642.206,436.926 644.807,434.211 C647.499,431.399 650.993,431.094 654.511,432.367 C658.099,433.665 664.588,443.84 664.512,447.696" fill="#6E4100"/>
  </g>
</svg>
