<?xml version="1.0" encoding="UTF-8"?>
<!DOCTYPE svg PUBLIC "-//W3C//DTD SVG 1.1//EN" "http://www.w3.org/Graphics/SVG/1.1/DTD/svg11.dtd">
<svg version="1.1" xmlns="http://www.w3.org/2000/svg" xmlns:xlink="http://www.w3.org/1999/xlink" x="0" y="0" width="1052" height="937" viewBox="0, 0, 1052, 937">
  <defs>
    <clipPath id="Clip_1">
      <path d="M0.06,0.856 L1051.29,0.856 L1051.29,936.94 L0.06,936.94 z"/>
    </clipPath>
  </defs>
  <g id="Layer_1">
    <g clip-path="url(#Clip_1)">
      <path d="M952.157,645.93 C950.69,644.261 949.821,646.018 948.839,646.583 C928.62,658.195 906.818,661.841 883.941,658.786 C875.208,657.619 867.536,653.791 865.084,644.117 C864.285,640.961 862.656,642.673 861.436,643.195 C851.177,647.581 840.641,651.141 829.87,654.024 C826.536,654.139 824.772,651.591 823.193,649.444 C821.212,646.75 824.017,645.638 825.819,644.693 C832.758,641.056 839.559,637.214 846.169,632.987 C890.141,604.87 919.344,565.247 937.197,516.69 C939.616,510.112 941.709,503.442 943.632,496.719 C944.815,492.587 947.244,490.593 951.577,490.712 C974.228,491.332 993.137,475.022 996.505,450.843 C998.389,437.313 998.553,423.937 993.971,410.864 C988.683,395.778 976.929,387.43 960.944,387.442 C957.882,387.444 955.265,387.509 954.74,383.534 C954.115,378.805 955.124,376.801 959.198,375.55 C965.796,373.525 968.122,370.974 967.26,366.708 C966.317,362.045 962.263,360.229 955.767,360.864 C943.034,362.11 930.512,359.936 918.084,357.635 C890.956,352.613 864.898,343.938 839.156,334.149 C807.169,321.985 776.389,307.207 746.065,291.469 C721.211,278.57 699.035,261.913 678.912,242.41 C643.881,208.459 617.242,168.692 596.466,124.784 C595.825,123.43 595.312,122.001 594.372,120.815 C592.462,118.403 590.013,117.161 586.921,117.919 C583.92,118.654 581.545,120.489 581.551,123.699 C581.56,128.907 578.49,130.715 574.192,132.319 C541.849,144.385 512.692,161.65 487.134,185.067 C460.17,209.772 439.866,239.082 424.753,272.196 C408.831,307.081 399.55,343.754 395.284,381.766 C394.876,385.404 393.107,387.068 389.539,387.331 C385.551,387.625 381.538,388.074 377.759,389.42 C368.848,392.595 361.819,398.292 358.555,407.208 C350.774,428.464 350.468,449.702 361.561,470.023 C368.888,483.446 381.289,489.427 396.075,490.627 C404.082,491.278 404.519,491.016 406.821,498.92 C412.625,518.851 420.582,537.846 430.744,555.941 C433.422,560.711 432.57,562.221 427.075,562.265 C411.579,562.39 396.082,562.309 380.585,562.314 C377.143,562.315 374.421,561.246 372.688,558.098 C355.449,526.783 343.402,493.545 335.809,458.654 C335.703,458.167 335.726,457.656 335.701,457.157 C335.712,455.391 335.709,453.627 335.116,451.926 C334.645,449.932 334.794,447.837 334.089,445.881 C331.703,426.176 330.832,406.36 331.806,386.58 C334.996,321.753 349.023,259.628 379.652,201.886 C392.688,177.311 408.839,154.958 428.483,135.187 C440.928,122.662 453.387,110.172 467.115,98.995 C486.386,83.305 507.144,70.262 530.687,61.944 C534.133,60.197 537.856,60.818 541.489,60.708 C547.826,60.515 549.594,59.274 550.604,53.209 C551.163,49.85 553.139,47.943 555.737,46.279 C568.647,38.007 582.9,32.954 597.59,29.056 C621.464,22.721 645.786,19.494 670.421,17.531 C722.299,13.399 770.885,25.775 818.011,45.653 C851.704,59.864 882.082,79.619 909.619,103.635 C914.195,107.626 919.49,111.056 922.733,116.476 C927.912,143.708 915.603,178.242 886.274,191.74 C882.168,193.63 882.091,194.288 885.09,197.793 C893.257,207.336 893.257,207.338 905.818,204.835 C926.041,200.804 944.259,192.085 961.553,181.142 C964.733,179.129 967.438,176.159 971.5,175.724 C973.977,176.822 975.039,179.194 976.338,181.28 C1003.85,225.458 1021.35,273.243 1028.44,324.875 C1031.27,345.496 1033.94,366.144 1035.07,386.903 C1036.05,404.979 1036.87,423.061 1035.59,441.265 C1034.16,461.587 1032,481.711 1027.53,501.568 C1018.77,540.467 1003.8,576.773 981.847,610.132 C974.425,621.408 967.304,632.922 956.51,641.458 C954.851,642.77 954.726,645.536 952.157,645.93" fill="#DBA76F"/>
      <path d="M513.39,650.961 C514.824,648.868 517.04,648.837 519.251,649.526 C526.724,651.853 534.508,652.857 542.045,654.906 C544.368,655.701 546.69,656.496 549.488,657.453 C544.063,663.823 538.866,669.818 533.79,675.913 C528.818,681.883 523.97,687.955 518.487,694.696 C515.411,682.922 512.543,671.947 509.676,660.971 C509.04,656.943 511.334,653.961 513.39,650.961 z M552.164,814.52 C559.922,807.487 567.574,800.336 574.088,794.312 C574.088,813.232 574.094,834.104 574.083,854.975 C574.081,860.295 573.674,865.644 574.116,870.924 C574.405,874.381 572.303,876.364 570.165,876.836 C567.901,877.337 565.986,874.856 565.328,872.378 C560.562,854.425 555.852,836.458 551.12,818.496 C550.717,816.967 550.799,815.757 552.164,814.52 z M803.413,792.514 C807.405,798.344 811.398,804.175 815.84,810.661 C804.913,810.902 804.929,810.9 803.711,801.161 C803.374,798.466 802.913,795.787 803.413,792.514 z M1045.24,327.592 C1038.86,284.806 1027.82,243.656 1008.22,205.033 C969.689,129.109 911.985,72.525 835.252,35.723 C793.495,15.696 749.518,2.881 702.995,1.134 C660.962,-0.445 619.595,4.649 579.458,17.733 C562.294,23.328 545.847,30.459 533.17,44.06 C531.978,45.339 530.482,45.137 529.009,45.256 C500.379,47.568 474.266,57.169 450.206,72.614 C418.014,93.278 392.758,120.894 370.832,151.864 C331.715,207.116 309.259,268.186 306.102,336.077 C304.468,371.217 308.132,405.868 314.973,440.286 C323.177,481.558 334.924,521.614 354.758,558.977 C355.031,559.492 355.016,560.16 355.187,561.009 C353.069,561.009 351.245,561.009 349.421,561.009 C242.777,561.009 136.132,560.997 29.488,561.02 C7.536,561.024 -4.199,576.36 1.379,597.503 C25.971,690.7 50.542,783.903 75.12,877.103 C80.042,895.77 96.467,908.428 115.798,908.444 C121.297,908.449 126.801,908.592 132.293,908.389 C135.498,908.271 136.754,908.695 136.724,912.614 C136.616,926.813 147.181,936.96 161.378,936.96 C322.844,936.961 484.31,936.943 645.776,937 C656.16,937.003 663.32,931.989 667.544,923.115 C669.254,919.522 671.034,918.891 674.514,918.895 C758.829,918.982 843.145,918.965 927.461,918.952 C929.777,918.951 932.112,919.179 934.387,918.393 C938.812,916.866 940.762,913.655 940.323,909.163 C939.878,904.607 937.181,901.966 932.554,901.52 C931.233,901.393 929.89,901.486 928.557,901.486 C891.898,901.485 855.239,901.442 818.58,901.559 C815.258,901.57 813.533,900.982 814.061,897.298 C814.224,896.17 814.119,894.927 813.819,893.823 C812.873,890.349 814.36,889.661 817.574,889.741 C831.401,890.085 845.214,889.626 858.956,887.964 C874.545,886.079 889.885,883.178 903.578,874.878 C919.993,864.927 926.089,849.462 921.244,830.82 C919.352,823.541 916.459,816.672 913.152,809.955 C897.605,778.373 878.01,749.241 858.438,720.117 C855.471,715.701 856.039,713.712 860.069,710.783 C867.121,705.659 867.461,701.991 862.658,694.765 C852.968,680.188 841.884,666.732 829.87,654.024 C828.854,653.186 827.896,652.263 826.811,651.528 C823.103,649.014 822.772,647.524 827.41,645.218 C847.369,635.294 865.365,622.463 881.392,606.96 C912.843,576.537 932.752,539.359 944.694,497.654 C945.89,493.476 947.567,492.259 951.807,492.19 C974.166,491.827 990.633,479.119 996.408,457.697 C1000.24,443.468 1000.29,429.002 996.68,414.726 C991.985,396.164 978.793,385.846 960.782,386.205 C958.05,386.259 955.787,386.539 956.029,382.704 C956.204,379.925 954.769,376.942 959.884,376.68 C966.051,376.363 969.49,371.942 968.835,366.902 C968.151,361.635 963.59,358.432 957.351,359.288 C953.018,359.883 948.695,359.922 944.395,359.643 C918.656,357.971 893.873,351.631 869.509,343.607 C829.276,330.358 790.8,312.977 753.116,293.718 C728.639,281.209 706.122,265.947 685.939,247.317 C655.815,219.511 631.404,187.242 611.636,151.39 C606.33,141.767 601.369,131.978 596.812,121.978 C594.883,117.747 591.568,115.352 586.839,116.294 C582.978,117.063 579.609,119.512 580.064,123.722 C580.579,128.49 578.056,129.484 574.524,130.789 C526.508,148.53 486.288,177 455.328,218.033 C418.808,266.435 401.08,321.945 393.944,381.398 C393.586,384.386 393.276,386.156 389.448,386.256 C371.643,386.721 360.072,395.651 355.022,412.67 C351.314,425.169 351.263,437.925 353.066,450.749 C356.514,475.265 374.025,491.356 398.643,492.166 C402.589,492.295 404.071,493.666 405.042,497.242 C410.294,516.587 417.844,535.034 427.339,552.684 C428.731,555.272 430.162,557.839 431.898,561.003 C413.524,561.003 395.906,560.966 378.287,561.04 C375.439,561.052 374.759,558.975 373.719,557.137 C365.835,543.206 359.187,528.689 353.56,513.721 C346.656,495.353 340.708,476.685 336.925,457.387 C336.37,455.494 336.341,453.473 335.528,451.644 C335.585,449.581 334.992,447.626 334.527,445.651 C333.758,438.053 332.481,430.529 331.113,423.021 C326.927,400.055 324.497,376.896 324.466,353.563 C324.448,339.605 325.642,325.668 327.301,311.784 C331.145,279.609 339.408,248.621 353.433,219.418 C373.271,178.109 398.458,140.51 432.846,109.673 C447.675,96.376 463.908,85.217 482.074,76.794 C497.673,69.562 514.274,66.368 530.922,63.129 C534.927,61.474 539.112,62.667 543.205,62.38 C548.855,61.984 552.038,59.24 552.002,53.732 C551.984,50.952 553.097,49.567 555.194,48.175 C564.565,41.955 574.802,37.597 585.427,34.154 C608.921,26.539 633.081,22.324 657.638,19.951 C682.409,17.557 707.108,17.171 731.707,21.385 C785.623,30.621 835.239,50.468 879.987,82.1 C894.929,92.663 909.252,104.006 921.992,117.221 C923.114,119.29 924.691,120.979 926.319,122.662 C939.869,136.676 952.551,151.413 963.801,167.369 C965.958,170.427 967.523,174.086 971.02,176.072 C994.92,211.522 1011.34,250.231 1020.86,291.832 C1027.67,321.559 1030.81,351.811 1033.17,382.187 C1035.64,414.001 1035.45,445.718 1030.72,477.274 C1022.57,531.596 1002.03,580.923 969.846,625.422 C966.214,630.445 962.226,635.171 957.326,638.942 C954.832,640.861 953.063,642.993 952.157,645.93 C951.595,650.262 953.346,653.501 957.179,655.346 C960.865,657.12 964.247,655.994 967.378,653.557 C973.207,649.02 978.323,643.787 982.566,637.768 C998.403,615.302 1012.8,592.011 1023.53,566.585 C1038.78,530.435 1049.18,492.874 1050.59,453.701 C1052.1,411.632 1051.5,369.528 1045.24,327.592" fill="#6E4100"/>
    </g>
    <path d="M179.042,433.157 C178.999,439.786 175.144,445.08 169.464,446.765 C163.063,448.664 156.984,446.383 153.112,440.279 C146.079,429.196 139.202,418.014 132.259,406.873 C125.404,395.874 118.502,384.903 111.709,373.865 C106.837,365.95 108.365,357.726 115.363,353.34 C122.288,349.001 130.392,351.364 135.303,359.221 C148.866,380.922 162.404,402.639 175.954,424.348 C177.729,427.191 179.435,430.053 179.042,433.157" fill="#FFE500"/>
    <path d="M241.915,326.649 C241.628,316.69 246.4,310.629 254.259,310.013 C262.534,309.365 268.38,314.322 269.364,323.613 C271.742,346.088 273.834,368.594 276.031,391.088 C276.435,395.223 277.003,399.357 277.116,403.501 C277.323,411.047 272.015,416.994 264.664,417.815 C257.559,418.608 250.737,413.63 249.836,406.097 C247.98,390.591 246.593,375.027 245.056,359.483 C243.944,348.236 242.901,336.982 241.915,326.649" fill="#FFE500"/>
    <path d="M31.567,446.622 C34.571,446.533 37.536,447.777 40.297,449.858 C54.644,460.67 69.487,470.78 84.368,480.833 C92.032,486.01 94.166,494.178 89.625,500.99 C85.064,507.832 76.714,509.082 69.001,503.972 C54.168,494.143 39.565,483.98 25.251,473.407 C23.784,472.323 22.319,471.189 21.06,469.879 C17.004,465.66 16.039,459.856 18.387,454.638 C20.697,449.503 25.283,446.61 31.567,446.622" fill="#FFE500"/>
    <path d="M334.206,445.996 C317.203,371.171 317.957,297.379 349.088,225.987 C368.561,181.333 395.517,141.513 431.911,108.668 C456.257,86.697 483.782,70.466 516.568,64.547 C521.3,63.693 526.047,62.678 530.922,63.129 C510.269,70.983 491.347,81.823 473.865,95.37 C412.093,143.237 370.306,204.398 349.965,280.069 C341.219,312.608 335.655,345.575 333.765,379.25 C332.511,401.581 333.605,423.785 335.084,446.02 C334.783,446.323 334.49,446.315 334.206,445.996" fill="#FEFEFE"/>
    <path d="M963.055,329.642 C963.069,336.65 959.829,339.972 954.727,340.155 C951.491,340.271 948.513,339.151 945.487,338.278 C910.713,328.243 879.212,311.487 849.782,290.792 C799.972,255.768 757.693,213.25 723.907,162.458 C722.802,160.796 721.646,159.146 720.744,157.374 C718.479,152.926 719.694,147.764 723.433,145.386 C727.571,142.754 732.667,143.782 735.618,148.326 C741.788,157.827 748.074,167.25 755.071,176.154 C797.911,230.671 848.711,275.699 911.282,306.574 C925.49,313.584 940.341,318.985 955.702,322.903 C960.322,324.081 962.984,326.657 963.055,329.642" fill="#6E4100"/>
    <path d="M921.992,117.221 C937.347,131.136 950.398,147.073 962.649,163.697 C965.601,167.703 968.238,171.94 971.02,176.072 C948.442,192.661 923.792,204.331 895.702,207.895 C893.323,208.196 891.62,207.634 890.096,205.694 C887.533,202.429 884.852,199.234 881.979,196.241 C879.594,193.756 880.218,192.755 883.177,191.531 C892.701,187.59 900.906,181.745 907.314,173.581 C919.655,157.857 923.593,139.771 922.181,120.205 C922.109,119.211 922.055,118.216 921.992,117.221" fill="#FEFEFE"/>
    <path d="M334.206,445.996 C334.499,445.978 334.792,445.986 335.084,446.02 C336.519,447.826 336.015,449.875 335.822,451.885 C335.635,451.903 335.448,451.922 335.261,451.94 C335.181,449.911 333.479,448.169 334.206,445.996" fill="#F2E9E1"/>
    <path d="M335.261,451.94 C335.444,451.878 335.631,451.86 335.822,451.886 C337.782,453.398 336.818,455.499 336.925,457.386 C335.677,455.783 335.535,453.842 335.261,451.94" fill="#D1B391"/>
    <path d="M920.721,514.037 C899.174,571.498 860.514,612.767 803.998,636.972 C772.964,650.263 740.297,656.618 706.77,659.294 C668.373,662.36 630.327,660.261 592.694,651.993 C559.38,644.674 528.406,631.925 500.766,611.583 C497.106,608.89 494.555,605.978 493.803,601.294 C493.124,597.059 491.954,592.821 490.392,588.822 C484.251,573.103 472.728,563.826 456.024,561.28 C453.833,560.946 452.348,560.374 451.185,558.512 C444.484,547.787 438.282,536.805 433.567,525.037 C435.364,523.54 437.047,524.752 438.707,525.318 C444.22,527.201 449.727,528.976 455.519,529.957 C470.85,532.553 483.853,528.296 494.504,517.09 C500.716,510.554 506.202,503.41 509.902,495.108 C515.255,483.096 516.186,470.795 512.233,458.115 C508.176,445.101 502.832,432.926 492.846,423.173 C476.22,406.937 451.216,405.964 433.462,420.952 C426.514,426.817 420.907,433.726 416.134,441.417 C415.45,442.52 414.367,447.067 412.243,442.077 C404.592,362.196 423.94,289.507 472.116,225.314 C500.851,187.026 539.615,161.761 584.537,145.661 C589.288,143.958 589.571,147.347 590.771,149.667 C607.292,181.61 627.349,211.118 651.559,237.727 C677.898,266.677 708.24,290.421 743.168,308.343 C787.453,331.065 832.728,351.321 880.602,365.333 C898.177,370.476 915.968,374.674 934.282,376.175 C936.835,376.384 937.955,377.145 938.271,379.919 C940.298,397.691 939.969,415.463 938.481,433.228 C937.843,440.848 936.692,448.424 935.774,456.02 C932.379,455.817 932.316,452.749 931.452,450.639 C928.008,442.223 923.461,434.478 917.304,427.825 C898.98,408.026 872.086,404.507 849.212,419.196 C832.422,429.979 822.728,445.712 817.914,465.017 C811.667,490.065 827.95,515 847.71,523.328 C861.196,529.013 875.148,532.603 890.041,529.768 C899.879,527.895 907.992,522.979 915.26,516.327 C916.729,514.983 918.067,512.786 920.721,514.037" fill="#FEF8EA"/>
    <path d="M326.513,890.967 C256.864,890.967 187.216,890.967 117.567,890.967 C103.929,890.967 95.352,884.468 91.862,871.269 C67.384,778.689 42.931,686.104 18.513,593.508 C17.927,591.286 17.454,588.902 17.617,586.643 C17.927,582.352 20.355,579.559 24.776,578.961 C26.913,578.672 29.091,578.587 31.251,578.587 C170.381,578.57 309.511,578.569 448.641,578.575 C462.788,578.576 471.462,585.286 475.037,598.828 C499.31,690.773 523.597,782.714 547.869,874.66 C548.336,876.426 548.826,878.209 549.034,880.015 C549.832,886.925 546.461,890.776 539.456,890.947 C535.293,891.048 531.125,890.967 526.96,890.967 C460.144,890.967 393.328,890.967 326.513,890.967" fill="#D6D6D6"/>
    <path d="M782.941,774.293 C784.229,785.368 785.48,796.433 786.832,807.485 C787.081,809.516 786.43,810.056 784.46,810.015 C778.968,809.902 773.469,809.866 767.979,810.028 C765.671,810.096 764.826,808.52 763.682,807.155 C756.174,798.202 747.917,790.04 738.886,782.59 C721.18,767.986 701.609,765.579 680.33,772.872 C646.26,784.55 621.637,815.924 619.897,849.936 C619.468,858.317 619.636,866.561 626.252,873.97 C621.825,873.97 618.078,873.31 614.683,874.122 C609.414,875.382 604.72,875.619 599.168,874.326 C591.759,872.6 591.43,873.683 591.52,866.107 C591.929,831.307 592.318,796.507 592.9,761.71 C592.983,756.738 591.314,753.253 587.517,750.127 C570.421,736.052 553.512,721.75 536.437,707.648 C533.976,705.616 533.258,704.352 535.592,701.492 C545.278,689.621 554.948,677.747 565.306,666.444 C567.056,664.535 568.422,663.859 571.224,664.657 C591.75,670.501 612.647,674.501 633.95,676.109 C637.823,676.401 639.87,677.558 641.268,681.642 C646.122,695.825 653.961,707.979 669.12,712.77 C686.029,718.114 700.61,713.316 712.629,700.541 C718.523,694.278 722.623,686.84 725.52,678.798 C726.475,676.148 727.661,674.798 730.61,674.422 C755.109,671.297 778.974,665.524 802.061,656.699 C803.708,656.069 804.8,656.13 806.122,657.145 C821.227,668.743 832.967,683.394 844.021,698.689 C845.673,700.976 843.741,701.546 842.595,702.488 C825.876,716.237 809.136,729.961 792.401,743.69 C786.608,748.442 780.826,753.208 775.018,757.942 C770.404,761.702 769.115,765.311 770.939,769.564 C772.785,773.87 776.442,775.368 782.941,774.293" fill="#FEFEFE"/>
    <path d="M719.882,882.067 C720.574,875.869 723.331,871.173 724.602,866.045 C726.434,858.651 721.529,852.719 714.658,853.981 C711.245,854.607 709.25,856.801 707.856,859.926 C705.452,865.313 701.433,869.218 695.9,871.35 C692.67,872.596 689.361,872.845 686.528,870.28 C683.727,867.743 682.617,864.573 683.357,860.817 C684.595,854.54 687.672,848.992 690.311,843.27 C691.355,841.006 692.453,838.763 693.371,836.448 C694.839,832.745 693.79,829.483 690.928,826.982 C687.865,824.306 684.25,823.966 680.738,826.062 C675.406,829.244 671.044,833.595 666.823,838.106 C661.369,843.935 656.472,850.298 650.276,855.42 C648.086,857.23 645.835,858.932 643.129,859.906 C638.273,861.654 637.075,861.05 637.22,855.747 C637.676,839.123 642.267,823.941 653.87,811.481 C667.106,797.266 682.493,787.175 702.665,786.515 C709.884,786.278 716.438,788.36 722.403,792.424 C734.226,800.476 744.138,810.542 752.753,821.848 C755.78,825.821 759.079,827.725 764.092,827.554 C786.064,826.805 808.003,827.928 829.935,829.109 C834.276,829.343 838.395,829.179 840.761,824.777 C843.074,820.474 841.261,816.816 838.807,813.208 C827.299,796.285 815.903,779.286 804.329,762.409 C802.395,759.589 802.296,758.124 805.289,755.763 C817.437,746.18 829.282,736.212 841.459,726.205 C855.212,746.556 868.559,766.816 880.974,787.676 C888.968,801.107 896.74,814.663 902.427,829.288 C903.635,832.395 904.537,835.576 905.041,838.884 C906.366,847.583 903.108,854.169 895.879,858.91 C885.445,865.752 873.579,868.28 861.501,869.94 C835.453,873.52 809.34,872.392 783.236,870.648 C776.307,870.185 774.088,871.48 771.688,878.035 C769.176,884.898 762.648,887.08 756.371,883.161 C752.857,880.967 750.675,877.716 748.773,874.118 C745.584,868.088 740.4,866.958 734.605,870.711 C729.591,873.958 725.834,878.839 719.882,882.067" fill="#FEF8EA"/>
    <path d="M920.721,514.037 C917.201,514.748 915.26,517.803 912.913,519.922 C902.183,529.603 889.462,533.008 875.591,531.846 C862.613,530.758 849.949,527.622 839.064,519.974 C823.851,509.286 814.97,494.459 815.276,475.833 C815.551,459.152 822.064,444.107 833.14,431.426 C842.898,420.255 854.614,412.191 869.698,409.867 C890.642,406.639 907.538,413.745 920.823,429.876 C926.457,436.716 930.627,444.477 933.703,452.795 C934.17,454.057 934.401,455.379 935.775,456.019 C932.766,475.88 928.127,495.318 920.721,514.037" fill="#FFD5BA"/>
    <path d="M412.243,442.077 C414.756,444.869 414.626,441.475 415.125,440.657 C421.61,430.028 429.377,420.727 440.592,414.729 C461.568,403.512 484.216,408.603 499.16,428.092 C509.207,441.193 515.424,456.326 515.919,473.152 C516.351,487.827 510.045,500.082 501.224,511.38 C493.412,521.385 484.262,529.096 471.333,531.375 C459.577,533.447 448.64,530.333 437.804,526.369 C436.416,525.862 434.981,525.479 433.568,525.038 C421.835,498.572 415.367,470.755 412.243,442.077" fill="#FFD5BA"/>
    <path d="M345.032,908.527 C406.333,908.527 467.634,908.52 528.935,908.564 C530.662,908.565 533.389,907.601 533.932,909.495 C534.826,912.615 534.635,916.054 534.782,919.364 C534.789,919.537 533.689,919.883 533.087,919.931 C531.929,920.025 530.757,919.965 529.591,919.965 C408.155,919.966 286.719,919.966 165.283,919.965 C162.792,919.965 160.233,920.244 157.968,918.896 C155.137,917.211 153.689,914.716 154.22,911.373 C154.805,907.686 157.767,908.546 160.129,908.545 C221.763,908.523 283.397,908.527 345.032,908.527" fill="#D6D5D5"/>
    <path d="M981.892,435.168 C981.267,441.878 981.077,448.18 979.117,454.279 C975.218,466.419 966.289,473.659 953.703,474.901 C950.919,475.176 950.339,474.491 950.874,471.769 C955.046,450.516 957.113,429.045 957.059,407.387 C957.052,404.84 957.762,403.948 960.367,403.808 C969.101,403.339 975.029,406.877 978.305,415.087 C979.284,417.537 980.098,420.118 980.512,422.715 C981.191,426.971 981.482,431.29 981.892,435.168" fill="#FEF8EA"/>
    <path d="M369.482,436.56 C369.67,428.338 370.086,421.222 372.993,414.522 C376.157,407.23 381.624,403.753 389.337,403.818 C391.734,403.838 392.936,404.239 392.899,407.067 C392.619,428.725 394.734,450.175 398.935,471.418 C399.484,474.193 399.061,475.224 395.795,474.663 C380.685,472.067 371.775,462.119 370.066,445.443 C369.728,442.143 369.626,438.819 369.482,436.56" fill="#FEF8EA"/>
    <path d="M545.445,796.728 C540.268,777.176 535.298,758.63 530.483,740.043 C529.405,735.88 533.313,733.857 535.477,731.562 C537.568,729.343 539.042,732.804 540.469,733.972 C551.276,742.82 561.951,751.829 572.668,760.788 C574.347,762.191 576.405,763.496 574.09,765.983 C564.721,776.044 555.348,786.1 545.445,796.728" fill="#FEF8EA"/>
    <path d="M602.522,905.529 C616.159,905.529 629.797,905.509 643.434,905.538 C649.253,905.55 652.348,908.015 652.392,912.529 C652.436,917.025 649.218,919.922 643.637,919.934 C616.029,919.996 588.422,919.991 560.815,919.941 C555.172,919.931 551.929,917.172 551.867,912.723 C551.802,908.005 554.915,905.546 561.111,905.536 C574.915,905.513 588.718,905.529 602.522,905.529" fill="#D6D6D6"/>
    <path d="M665.524,865.565 C667.156,875.286 671.617,882.48 679.941,886.952 C686.318,890.378 693.007,890.534 699.802,888.613 C701.712,888.073 702.8,887.585 704.136,889.958 C710.268,900.857 720.045,903.091 730.645,896.289 C733.288,894.594 735.77,891.335 738.371,891.288 C740.577,891.248 742.747,894.94 745.123,896.729 C747.189,898.285 749.52,899.49 752.774,901.489 C745.085,901.489 738.528,901.489 731.971,901.489 C711.974,901.489 691.977,901.441 671.981,901.542 C669.089,901.556 667.195,900.951 665.416,898.33 C661.297,892.263 655.345,888.65 647.944,888.08 C645.554,887.896 645.239,887.176 644.852,884.956 C643.936,879.7 645.073,876.933 650.855,875.527 C656.46,874.164 660.79,869.782 665.524,865.565" fill="#FDFDFD"/>
    <path d="M658.957,677.959 C675.114,678.292 690.846,678.31 706.659,676.949 C702.659,689.043 692.454,697.138 681.472,697.156 C671.216,697.172 663.188,690.489 658.957,677.959" fill="#FEF8EA"/>
    <path d="M542.045,654.906 C534.16,655.145 526.612,653.305 519.264,650.778 C516.322,649.766 514.602,649.927 513.496,652.967 C512.482,655.753 510.244,657.967 509.677,660.973 C509.489,660.709 509.203,660.472 509.131,660.182 C507.091,652.011 505.073,643.835 502.79,634.603 C507.924,637.497 512.315,639.871 516.607,642.412 C524.764,647.242 533.638,650.595 542.045,654.906" fill="#DBA76F"/>
    <path d="M772.855,900.741 C778.307,898.172 782.422,894.235 786.036,889.456 C787.914,886.972 791.649,888.904 794.485,889.11 C796.881,889.284 795.866,891.751 796.031,893.179 C796.996,901.505 796.94,901.513 788.349,901.511 C783.385,901.51 778.422,901.505 773.458,901.485 C773.367,901.484 773.277,901.271 772.855,900.741" fill="#FAFAF9"/>
    <path d="M511.152,425.503 C511.821,413.281 516.147,403.482 525.356,396.266 C527.739,394.399 527.979,393.385 526.086,390.933 C521.67,385.215 520.076,378.431 519.852,371.285 C519.724,367.216 521.313,364.27 525.577,363.969 C529.745,363.674 531.894,366.02 532.271,370.276 C532.726,375.416 533.362,380.536 537.052,384.689 C539.272,387.189 541.487,388.397 545.172,388.105 C561.93,386.779 574.458,395.621 579.411,411.738 C581.114,417.282 579.176,422.163 574.617,423.812 C569.609,425.623 565.062,423.196 562.92,417.569 C559.454,408.464 554.24,404.434 547.008,405.273 C538.184,406.295 530.322,413.741 529.068,422.305 C528.9,423.454 528.902,424.628 528.835,425.791 C528.474,432.025 525.102,435.454 519.596,435.18 C514.338,434.919 511.045,430.876 511.152,425.503" fill="#6E4100"/>
    <path d="M821.796,424.629 C821.823,431.348 818.777,435.108 813.247,435.184 C807.675,435.261 804.324,431.695 804.166,425.023 C803.993,417.72 800.673,412.303 794.718,408.44 C784.732,401.962 774.824,405.255 770.733,416.414 C769.479,419.835 767.999,422.915 764.199,423.958 C757.288,425.855 751.356,420.001 753.298,412.983 C755.38,405.456 759.129,398.786 765.576,394.115 C767.897,392.433 767.946,391.331 766.443,389.077 C762.938,383.817 761.753,377.769 761.474,371.553 C761.264,366.876 763.525,364.081 767.413,363.901 C771.367,363.718 773.61,366.082 773.958,370.934 C774.198,374.276 774.558,377.634 776.106,380.611 C778.299,384.828 780.94,387.9 786.679,388.03 C805.626,388.46 821.721,405.559 821.796,424.629" fill="#6E4100"/>
    <path d="M670.754,575.569 C654.676,575.031 642.342,568.302 633.519,555.262 C630.443,550.716 630.91,546.414 634.537,543.783 C638.439,540.954 642.554,542.012 645.968,546.722 C655.684,560.126 670.102,564.089 683.497,557.099 C688.388,554.547 691.95,550.777 694.533,545.943 C697.361,540.652 701.218,538.967 705.318,541.057 C709.687,543.284 710.733,547.726 707.811,553.077 C699.751,567.838 686.956,574.838 670.754,575.569" fill="#6E4100"/>
    <path d="M553.459,221.152 C562.814,221.45 570.424,224.959 574.901,233.725 C577.148,238.124 576.27,242.022 572.607,243.552 C568.512,245.264 565.63,243.693 563.799,239.699 C561.286,234.216 556.42,233.332 551.207,234.008 C545.729,234.717 540.128,235.918 537.924,241.933 C536.393,246.11 533.882,247.948 529.632,246.908 C526.113,246.048 524.725,242.39 525.889,237.936 C527.038,233.544 529.778,230.309 533.339,227.687 C539.284,223.311 546.03,221.376 553.459,221.152" fill="#6E4100"/>
    <path d="M653.08,428.383 C653.831,424.219 655.453,421.359 658.962,420.224 C662.52,419.075 666.056,419.504 668.519,422.543 C670.807,425.366 672.895,428.429 674.583,431.643 C676.747,435.765 675.172,440.657 671.399,442.998 C667.663,445.316 662.529,444.541 659.84,440.743 C657.013,436.751 653.444,433.034 653.08,428.383" fill="#6E4100"/>
  </g>
</svg>
