<?xml version="1.0" encoding="UTF-8"?>
<!DOCTYPE svg PUBLIC "-//W3C//DTD SVG 1.1//EN" "http://www.w3.org/Graphics/SVG/1.1/DTD/svg11.dtd">
<svg version="1.1" xmlns="http://www.w3.org/2000/svg" xmlns:xlink="http://www.w3.org/1999/xlink" x="0" y="0" width="1052" height="937" viewBox="0, 0, 1052, 937">
  <defs>
    <clipPath id="Clip_1">
      <path d="M0.06,0.728 L1051.1,0.728 L1051.1,936.94 L0.06,936.94 z"/>
    </clipPath>
  </defs>
  <g id="Layer_1">
    <g clip-path="url(#Clip_1)">
      <path d="M952.037,645.982 C949.89,644.542 948.752,646.71 947.37,647.462 C927.274,658.405 905.805,661.979 883.332,658.732 C873.946,657.376 866.422,652.632 864.383,641.971 C852.971,646.858 841.589,650.934 829.883,654.061 C826.202,654.335 824.675,651.452 823.163,649.036 C821.559,646.474 824.136,645.518 825.793,644.665 C833.057,640.925 840.14,636.878 847.006,632.455 C873.589,615.333 895.445,593.481 912.464,566.824 C926.097,545.472 936.152,522.511 943.211,498.202 C945.169,491.459 946.111,490.968 953.006,490.715 C970.912,490.058 984.641,482.08 991.819,465.595 C1000.06,446.664 1000.22,426.971 992.528,407.715 C986.95,393.754 975.51,387.751 960.933,387.524 C957.092,387.464 954.881,386.612 954.552,382.523 C954.242,378.687 955.179,376.267 959.576,375.503 C965.237,374.518 967.891,371.045 967.112,366.813 C966.295,362.38 962.358,360.319 956.67,360.884 C943.428,362.199 930.406,360.04 917.505,357.576 C880.814,350.566 845.992,337.708 811.806,322.989 C784.71,311.323 757.994,298.819 732.557,283.844 C705.506,267.92 682.144,247.489 661.225,224.098 C636.496,196.447 616.681,165.595 600.069,132.559 C598.42,129.279 597.283,125.774 595.52,122.554 C593.676,119.187 590.954,117.109 586.979,117.921 C583.265,118.679 581.271,121.3 581.163,125.065 C581.053,128.882 578.844,130.562 575.556,131.748 C545.149,142.712 517.599,158.684 493.027,179.654 C469.736,199.53 450.957,223.185 435.962,249.82 C412.804,290.957 400.518,335.497 395.157,382.134 C394.761,385.575 393.428,387.181 389.918,387.374 C384.76,387.658 379.637,388.312 374.847,390.508 C362.155,396.328 356.967,407.325 354.527,420.129 C352.315,431.738 352.777,443.344 355.267,454.858 C359.924,476.396 376.011,489.947 397.993,490.683 C402.549,490.835 404.94,492.725 406.229,497.025 C412.316,517.337 419.704,537.117 430.43,555.533 C433.474,560.759 432.477,562.272 426.366,562.311 C411.872,562.403 397.372,562.104 382.886,562.457 C377.068,562.599 373.584,560.455 371.022,555.402 C363.557,540.683 356.302,525.876 350.768,510.305 C344.963,493.972 339.854,477.42 335.862,460.539 C335.555,459.241 335.246,457.943 335.216,456.6 C335.552,454.63 335.314,452.7 334.761,450.793 C334.468,448.811 334.604,446.77 333.901,444.845 C331.387,425.147 330.723,405.326 331.63,385.549 C334.204,329.465 345.481,275.227 368.623,223.863 C381.683,194.875 398.177,167.987 419.887,144.439 C439.696,122.952 460.516,102.663 484.559,85.9 C498.839,75.945 514.19,68.022 530.51,61.969 C534.128,60.164 538.023,60.857 541.822,60.741 C547.633,60.563 549.533,59.314 550.322,53.808 C550.862,50.042 552.966,47.879 555.909,46.061 C569.524,37.653 584.407,32.389 599.801,28.449 C623.1,22.487 646.815,19.545 670.781,17.536 C716.021,13.745 758.899,23.417 800.852,38.756 C840.378,53.207 875.892,74.695 907.77,102.1 C913.002,106.598 919.138,110.365 922.624,116.714 C923.265,118.721 922.92,120.886 923.623,122.884 C924.907,151.857 913.116,178.296 887.456,191.169 C881.941,193.936 881.914,194.362 885.885,198.822 C893.346,207.203 893.326,207.091 904.578,205.098 C927.025,201.123 946.745,190.93 965.598,178.686 C967.385,177.525 968.962,175.893 971.299,175.774 C974.838,177.784 976.376,181.451 978.342,184.653 C1004.78,227.707 1021.31,274.292 1028.27,324.346 C1031.08,344.47 1033.72,364.62 1034.9,384.884 C1036.03,404.467 1036.52,424.056 1035.4,443.748 C1033.51,476.962 1027.14,509.113 1016.24,540.453 C1004.48,574.293 987.117,605.08 965.189,633.323 C961.455,638.133 956.56,641.903 952.037,645.982" fill="#DBA76F"/>
      <path d="M512.096,652.544 C513.644,649.628 515.946,648.531 519.143,649.565 C526.579,651.972 534.404,652.721 541.892,654.906 C544.226,655.697 546.56,656.487 549.484,657.477 C538.85,669.664 528.771,681.698 518.446,694.838 C515.344,682.926 512.481,671.936 509.619,660.947 C509.181,657.773 510.697,655.18 512.096,652.544 z M552.562,814.047 C560.041,807.163 567.463,800.215 574.643,793.534 C574.643,802.422 574.741,812.353 574.621,822.281 C574.425,838.43 573.948,854.577 573.925,870.725 C573.921,873.963 572.504,876.384 570.187,876.826 C567.416,877.354 565.844,874.544 565.14,871.883 C560.467,854.211 555.856,836.522 551.118,818.867 C550.555,816.771 551.057,815.432 552.562,814.047 z M803.639,792.864 C807.509,798.56 811.378,804.256 815.638,810.526 C812.109,810.526 809.261,810.508 806.414,810.532 C804.449,810.549 804.484,809.023 804.332,807.771 C803.737,802.867 803.22,797.954 802.673,793.043 C802.995,792.984 803.317,792.924 803.639,792.864 z M1044.94,325.625 C1038.4,282.874 1027.13,241.759 1007.29,203.279 C967.197,125.505 907.217,68.383 827.539,32.189 C792.026,16.056 754.81,5.691 715.919,1.903 C693.965,-0.235 672.003,0.766 650.109,3.127 C623.578,5.989 597.447,10.821 572.362,20.21 C557.951,25.605 544.158,32.199 533.438,43.742 C532.104,45.179 530.6,45.155 528.945,45.291 C505.06,47.252 482.713,54.241 461.742,65.793 C428.584,84.058 402.376,110.039 379.621,139.815 C330.173,204.522 304.447,277.222 305.623,359.07 C306.014,386.315 309.721,413.12 314.859,439.789 C322.594,479.943 334.089,518.866 352.759,555.444 C353.626,557.142 355.223,558.625 354.94,561.035 C353.078,561.035 351.253,561.035 349.429,561.035 C242.954,561.035 136.48,561.029 30.005,561.04 C7.309,561.042 -4.297,576.117 1.463,597.921 C12.327,639.049 23.132,680.192 33.97,721.326 C47.647,773.23 61.314,825.137 75.025,877.032 C80.04,896.016 96.385,908.464 116.115,908.471 C121.281,908.473 126.468,908.765 131.605,908.379 C135.738,908.068 136.857,909.249 136.823,913.484 C136.718,926.828 147.277,936.985 160.676,936.985 C322.471,936.988 484.266,936.981 646.062,937 C656.163,937.001 663.431,932.112 667.346,923.286 C669.141,919.237 671.266,918.95 674.732,918.952 C758.712,919 842.692,918.99 926.672,918.982 C928.669,918.982 930.682,919.013 932.66,918.788 C935.864,918.423 938.235,916.704 939.613,913.768 C942.595,907.414 938.123,901.529 930.223,901.523 C893.898,901.497 857.574,901.512 821.249,901.512 C814.286,901.512 814.567,901.476 813.689,894.518 C813.157,890.299 814.676,889.67 818.394,889.754 C834.39,890.114 850.353,889.478 866.189,886.992 C879.899,884.84 893.315,881.678 905.112,873.906 C919.506,864.423 925.149,850.753 921.868,833.857 C920.237,825.461 916.874,817.695 913.133,810.074 C897.694,778.626 878.05,749.728 858.854,720.558 C855.179,714.973 855.151,714.991 860.386,710.64 C866.757,705.345 867.214,701.891 862.596,694.856 C852.986,680.218 841.803,666.845 829.883,654.061 C827.263,652.331 824.974,650.274 823.099,647.517 C824.977,646.564 826.611,645.753 828.23,644.911 C852.853,632.103 874.612,615.608 893.023,594.76 C917.959,566.525 934.342,533.736 944.626,497.738 C945.755,493.787 947.281,492.256 951.673,492.193 C974.207,491.872 990.811,478.908 996.483,457.298 C999.959,444.056 1000,430.561 997.203,417.211 C993.447,399.312 982.113,385.635 959.273,386.272 C957.082,386.333 956.232,385.724 956.055,383.676 C955.742,380.047 954.709,376.637 960.802,376.588 C966.078,376.545 969.263,371.822 968.722,366.973 C968.189,362.206 964.02,358.731 958.788,359.239 C941.822,360.887 925.287,358.046 908.867,354.455 C872.787,346.563 838.463,333.456 804.828,318.498 C776.536,305.915 748.264,293.141 722.404,275.926 C674.785,244.226 639.518,201.348 611.792,151.836 C606.261,141.959 601.173,131.854 596.499,121.538 C594.635,117.424 591.155,115.455 586.745,116.31 C582.88,117.058 579.522,119.611 579.938,123.743 C580.419,128.525 577.912,129.542 574.381,130.83 C537.882,144.143 505.533,164.181 478.069,191.695 C454.787,215.018 436.736,242.049 423.183,272.097 C407.382,307.128 398.083,343.898 393.845,381.993 C393.439,385.642 392.086,386.164 388.909,386.251 C373.158,386.679 361.998,394.108 356.312,408.925 C351.496,421.476 351.305,434.5 352.646,447.769 C355.317,474.198 372.757,491.262 399.047,492.229 C402.54,492.357 403.968,493.499 404.855,496.774 C408.248,509.312 412.685,521.494 417.84,533.425 C421.848,542.703 426.76,551.529 431.805,561.035 C415.439,561.035 399.81,560.704 384.207,561.195 C377.867,561.395 374.597,559.38 371.584,553.73 C355.089,522.803 344.224,489.904 336.074,455.985 C336.932,454.118 335.527,452.579 335.331,450.866 C335.468,449.04 334.922,447.309 334.583,445.551 C333.704,439.151 332.689,432.771 331.609,426.4 C328.745,409.505 325.888,392.591 325.25,375.437 C324.806,363.507 324.053,351.605 324.978,339.593 C325.781,329.155 326.285,318.688 327.709,308.315 C332.965,270.005 344.312,233.739 363.335,199.871 C383.541,163.896 407.327,130.876 439.187,104.22 C452.648,92.958 467.282,83.577 483.292,76.201 C498.452,69.217 514.676,66.593 530.739,63.155 C534.919,61.479 539.28,62.732 543.545,62.382 C548.804,61.951 552.013,59.109 551.909,53.853 C551.853,51.05 552.915,49.666 555.009,48.268 C563.659,42.493 573.097,38.386 582.877,35.053 C607.551,26.642 633.047,22.459 658.927,19.865 C687.095,17.041 715.03,17.735 742.778,23.418 C793.637,33.834 840.482,53.575 882.633,84.065 C896.515,94.107 909.967,104.688 921.799,117.17 C922.571,118.033 922.771,119.252 923.613,120.068 C938.335,134.713 951.692,150.509 963.823,167.368 C965.991,170.382 967.186,174.288 970.922,176.047 C992.515,207.859 1007.76,242.552 1017.78,279.592 C1025.57,308.412 1029.13,337.923 1031.92,367.561 C1035.05,400.75 1035.95,433.905 1031.91,467.105 C1025.96,516.039 1010.63,561.713 984.253,603.415 C975.677,616.972 968.019,631.456 954.612,641.313 C952.985,642.51 953.151,644.571 952.037,645.982 C951.682,650.229 953.222,653.555 957.13,655.379 C960.842,657.111 964.203,656.034 967.315,653.565 C972.563,649.4 977.362,644.781 981.285,639.358 C999.271,614.494 1014.95,588.328 1026.32,559.702 C1039.67,526.078 1049.2,491.318 1050.4,455.203 C1051.84,411.974 1051.54,368.696 1044.94,325.625" fill="#6E4100"/>
    </g>
    <path d="M179,433.015 C179.027,439.621 175.252,444.942 169.58,446.733 C163.632,448.61 157.328,446.644 153.752,441.27 C149.151,434.356 144.887,427.217 140.486,420.169 C130.717,404.522 120.851,388.933 111.225,373.198 C105.606,364.013 110.063,353.599 120.208,351.514 C125.628,350.4 131.273,352.878 134.618,358.215 C148.649,380.607 162.597,403.051 176.579,425.473 C178.104,427.918 179.181,430.492 179,433.015" fill="#FFE500"/>
    <path d="M276.962,401.419 C277.306,411.094 272.347,417.286 264.211,417.879 C256.491,418.442 250.423,413.145 249.487,404.257 C247.12,381.776 245.028,359.266 242.842,336.767 C242.424,332.466 241.835,328.162 241.757,323.852 C241.623,316.405 246.943,310.621 254.062,310.055 C261.781,309.442 268.059,313.89 268.976,321.553 C270.851,337.229 272.266,352.961 273.826,368.674 C274.926,379.757 275.952,390.847 276.962,401.419" fill="#FFE500"/>
    <path d="M31.569,446.651 C34.529,446.551 37.393,447.738 39.993,449.697 C54.742,460.809 70.026,471.159 85.291,481.539 C92.281,486.292 93.894,494.359 89.431,501.157 C85.272,507.493 76.943,509.197 70.04,504.68 C54.036,494.208 38.302,483.332 23.069,471.759 C17.386,467.441 15.72,461.49 18.019,455.409 C20.117,449.861 25.076,446.568 31.569,446.651" fill="#FFE500"/>
    <path d="M334.072,445.994 C327.902,417 323.337,387.79 323.031,358.075 C322.241,281.277 346.276,212.815 392.554,151.86 C413.043,124.874 436.419,101.004 465.863,83.652 C483.973,72.98 503.373,65.993 524.274,63.369 C526.404,63.101 528.583,63.217 530.739,63.155 C511.379,70.612 493.361,80.48 476.845,93.07 C414.876,140.305 371.922,200.591 350.821,276.016 C341.418,309.627 335.49,343.736 333.582,378.623 C332.369,400.806 333.332,422.866 334.924,444.952 C335.46,445.969 334.898,446.089 334.072,445.994" fill="#FEFEFE"/>
    <path d="M952.788,340.164 C943.718,338.251 933.8,334.91 924.034,331.133 C884.621,315.889 849.798,293.051 817.484,266.186 C783.371,237.824 753.403,205.607 728.235,169.01 C725.878,165.583 723.61,162.09 721.413,158.558 C718.283,153.523 719.155,148.034 723.398,145.352 C727.757,142.598 732.901,144.013 736.168,149.165 C755.641,179.869 779.13,207.249 805.596,232.038 C842.547,266.648 882.93,296.235 930.491,314.913 C939.011,318.259 947.765,320.898 956.628,323.211 C961.343,324.442 963.639,328.38 962.908,333.151 C962.23,337.574 958.882,340.229 952.788,340.164" fill="#6E4100"/>
    <path d="M923.852,119.026 C941.802,136.167 957.463,155.197 970.922,176.047 C949.98,191.66 927.018,202.596 901.106,207.249 C894.514,208.432 890.047,207.269 886.502,201.534 C884.712,198.639 882.071,196.27 879.54,193.345 C887.483,189.875 894.668,186.094 900.732,180.531 C917.582,165.076 922.622,145.112 922.591,123.216 C922.552,121.681 921.024,119.698 923.852,119.026" fill="#FEFEFE"/>
    <path d="M334.072,445.994 C334.356,445.647 334.64,445.299 334.924,444.952 C336.305,446.808 335.709,448.951 335.801,450.994 C335.544,451.511 335.273,451.519 334.988,451.017 C334.683,449.342 334.377,447.668 334.072,445.994" fill="#F4EBE1"/>
    <path d="M923.852,119.026 C922.23,120.061 923.076,121.838 922.592,123.215 C921.214,121.347 922,119.194 921.798,117.17 C922.776,117.465 923.507,118.032 923.852,119.026" fill="#E8DBCE"/>
    <path d="M334.988,451.017 C335.26,451.033 335.531,451.025 335.801,450.994 C336.579,452.62 337.638,454.23 336.074,455.985 C335.712,454.329 335.35,452.673 334.988,451.017" fill="#D8BB9B"/>
    <path d="M413.035,449.026 C403.213,368.339 421.872,294.643 469.323,228.894 C498.281,188.769 538.018,162.315 584.47,145.68 C589.248,143.969 589.5,147.383 590.694,149.686 C607.481,182.043 627.839,211.922 652.478,238.82 C679.271,268.069 710.237,291.794 745.689,309.754 C789.182,331.787 833.547,351.629 880.451,365.348 C897.868,370.443 915.489,374.715 933.632,376.075 C938.422,376.435 938.307,379.379 938.566,382.379 C940.075,399.828 939.975,417.286 938.286,434.716 C937.565,442.16 936.472,449.569 935.549,456.994 C931.922,455.998 932.016,452.446 930.946,449.882 C926.379,438.931 920.017,429.298 910.777,421.78 C889.74,404.663 856.517,406.62 836.138,426.066 C812.827,448.311 810.427,485.446 830.838,510.456 C840.461,522.246 853.918,526.885 868.249,529.611 C886.529,533.087 902.544,528.819 915.932,515.569 C917.271,514.243 918.476,512.314 920.928,513.029 C912.512,537.329 899.856,559.242 883.372,578.913 C850.148,618.557 806.714,640.675 757.068,651.953 C729.533,658.209 701.543,660.994 673.39,660.718 C627.843,660.273 583.253,654.084 541.202,635.166 C525.984,628.319 511.694,619.915 498.386,609.833 C496.304,608.256 494.962,606.49 494.433,603.814 C493.63,599.749 492.469,595.741 491.243,591.776 C485.915,574.551 474.199,564.427 456.533,561.43 C453.519,560.919 451.899,559.801 450.391,557.355 C443.239,545.75 436.646,533.877 431.913,521.048 C433.926,519.69 435.349,521.358 436.905,522.084 C447.413,526.988 458.364,530.298 470.002,530.69 C482.777,531.12 494.33,527.659 504.032,518.98 C515.264,508.932 524.514,497.642 527.666,482.346 C528.69,477.379 529.024,472.371 528.161,467.469 C525.57,452.748 519.644,439.431 509.581,428.29 C488.628,405.096 455.06,404.29 432.112,426.069 C426.131,431.745 421.219,438.151 417.128,445.26 C416.181,446.907 415.645,449.131 413.035,449.026" fill="#FEF8EA"/>
    <path d="M326.327,890.993 C256.512,890.993 186.696,890.994 116.88,890.993 C104.149,890.993 95.076,883.985 91.823,871.65 C67.409,779.054 42.991,686.459 18.602,593.856 C18.055,591.778 17.543,589.619 17.517,587.492 C17.459,582.701 20.147,579.651 24.867,578.962 C26.998,578.651 29.182,578.612 31.343,578.612 C170.308,578.597 309.273,578.596 448.238,578.601 C463.086,578.601 471.271,584.929 475.114,599.489 C499.469,691.755 523.806,784.026 548.137,876.299 C550.902,886.784 547.623,890.992 536.775,890.992 C466.626,890.994 396.476,890.993 326.327,890.993" fill="#D6D6D6"/>
    <path d="M626.021,873.996 C621.65,873.996 617.831,873.238 614.484,874.171 C609.271,875.623 604.671,875.437 599.282,874.331 C591.175,872.667 591.286,873.621 591.506,864.928 C591.884,849.943 591.8,834.947 591.984,819.956 C592.216,800.974 592.379,781.989 592.885,763.014 C593.035,757.365 591.4,753.312 586.919,749.661 C570.264,736.095 553.944,722.119 537.344,708.486 C534.128,705.845 533.123,704.281 536.266,700.502 C545.739,689.107 555.158,677.673 565.034,666.619 C566.875,664.559 568.471,663.894 571.457,664.746 C591.978,670.604 612.884,674.544 634.182,676.179 C637.843,676.459 639.806,677.549 641.117,681.481 C645.507,694.644 652.783,705.808 666.03,711.754 C682.492,719.143 702.653,713.409 714.731,698.113 C719.409,692.189 723.048,685.662 725.58,678.576 C726.459,676.119 727.569,674.856 730.309,674.501 C754.958,671.314 778.989,665.558 802.208,656.621 C803.928,655.959 805,656.313 806.252,657.291 C821.114,668.898 832.876,683.316 843.812,698.508 C845.88,701.382 843.139,701.964 841.879,703.004 C823.127,718.479 804.313,733.879 785.513,749.296 C781.779,752.358 778.08,755.464 774.303,758.473 C770.642,761.391 769.073,765.034 770.866,769.473 C772.582,773.724 776.18,775.538 780.551,774.629 C782.987,774.122 783,775.275 783.175,776.769 C784.375,787.019 785.521,797.276 786.755,807.523 C787,809.557 786.249,810.079 784.308,810.04 C778.816,809.931 773.316,809.893 767.826,810.054 C765.501,810.122 764.688,808.494 763.561,807.135 C755.881,797.876 747.355,789.513 737.976,781.951 C720.398,767.779 700.988,765.663 680.198,772.933 C644.922,785.267 621.253,816.377 619.688,852.04 C619.345,859.833 620.388,867.213 626.021,873.996" fill="#FEFEFE"/>
    <path d="M719.776,882.641 C720.388,876.176 723.164,871.489 724.451,866.376 C725.952,860.41 723.728,855.592 718.893,854.176 C714.327,852.839 710.224,854.79 707.966,859.656 C705.475,865.026 701.659,868.953 696.186,871.209 C692.964,872.537 689.694,872.988 686.789,870.529 C683.782,867.983 682.544,864.828 683.355,860.754 C684.644,854.285 687.811,848.629 690.559,842.778 C691.478,840.822 692.527,838.909 693.234,836.877 C694.632,832.859 693.845,829.22 690.384,826.605 C687.125,824.143 683.515,824.167 680.117,826.373 C674.351,830.117 669.633,835.045 665.009,840.077 C659.945,845.587 655.229,851.441 649.345,856.153 C646.189,858.68 642.15,862.125 638.805,860.368 C635.539,858.653 636.988,853.495 637.465,849.728 C641.375,818.85 663.217,794.233 692.764,787.593 C703.997,785.069 714.514,786.546 724.047,793.566 C735.267,801.829 744.955,811.609 753.333,822.677 C755.892,826.058 758.853,827.675 763.06,827.55 C785.525,826.883 807.955,827.937 830.377,829.162 C834.595,829.393 838.433,828.939 840.678,824.766 C842.884,820.668 841.382,817.181 838.983,813.653 C827.387,796.598 815.981,779.414 804.298,762.419 C802.255,759.447 802.394,758.063 805.276,755.773 C817.375,746.16 829.224,736.232 841.607,726.055 C851.975,742.096 862.309,757.773 872.317,773.655 C882.952,790.532 893.304,807.598 901.033,826.069 C909.707,846.798 905.02,857.511 883.775,864.841 C867.56,870.435 850.633,871.842 833.617,872.128 C816.473,872.416 799.336,872.125 782.241,870.544 C776.75,870.037 773.635,872.081 771.825,877.025 C768.573,885.908 761.021,887.788 753.922,881.447 C751.66,879.427 750.133,876.871 748.725,874.195 C745.545,868.15 740.221,866.745 734.649,870.763 C729.816,874.247 725.313,878.188 719.776,882.641" fill="#FEF8EA"/>
    <path d="M920.928,513.029 C917.741,514.658 915.75,517.656 913.117,519.925 C899.716,531.47 884.134,534.091 867.379,530.854 C854.737,528.412 842.374,524.646 833.197,514.851 C819.031,499.734 813.647,481.707 816.566,461.202 C819.492,440.651 830.225,425.304 848.498,415.842 C879.244,399.92 912.579,410.872 928.517,441.655 C931.1,446.644 933.217,451.874 935.549,456.993 C932.593,476.173 928.232,494.985 920.928,513.029" fill="#FFD5BA"/>
    <path d="M413.035,449.026 C415.64,445.008 418.101,440.888 420.876,436.993 C431.007,422.775 444.08,412.888 461.677,409.901 C482.3,406.399 498.993,413.693 512.188,429.22 C520.816,439.374 526.213,451.335 528.886,464.448 C532.195,480.675 526.978,494.609 517.1,507.148 C513.511,511.704 509.692,516.095 505.191,519.871 C485.926,536.033 464.852,534.089 443.203,526.16 C439.334,524.744 435.671,522.767 431.913,521.048 C423.488,502.1 418.568,482.14 414.885,461.832 C414.116,457.591 413.644,453.296 413.035,449.026" fill="#FFD5BA"/>
    <path d="M344.75,908.554 C405.875,908.554 467,908.547 528.125,908.587 C530.049,908.588 533.062,907.595 533.69,909.399 C534.743,912.425 534.539,915.908 534.713,919.207 C534.754,919.984 533.765,919.936 533.149,919.958 C531.818,920.006 530.485,919.991 529.152,919.991 C408.069,919.992 286.985,919.993 165.901,919.981 C163.584,919.98 161.209,920.323 158.978,919.429 C155.467,918.022 153.679,915.349 154.135,911.603 C154.614,907.665 157.846,908.569 160.377,908.569 C221.835,908.55 283.292,908.554 344.75,908.554" fill="#D6D5D5"/>
    <path d="M981.644,436.66 C981.322,443.313 980.755,450.554 977.908,457.452 C973.351,468.491 964.644,473.562 953.278,474.901 C948.313,475.487 950.896,471.839 951.177,470.365 C954.133,454.832 955.819,439.159 956.667,423.39 C956.944,418.248 957.041,413.079 956.856,407.935 C956.748,404.952 957.555,403.879 960.664,403.821 C969.48,403.657 975.285,407.201 978.446,415.432 C980.981,422.034 981.549,428.988 981.644,436.66" fill="#FEF8EA"/>
    <path d="M369.37,435.776 C369.686,428.473 369.974,421.159 373.001,414.319 C376.206,407.077 381.876,403.593 389.495,403.841 C391.763,403.914 392.719,404.444 392.709,406.935 C392.626,428.752 394.702,450.379 398.901,471.786 C399.468,474.678 398.659,475.149 395.98,474.75 C380.784,472.483 371.607,462.01 369.903,444.716 C369.611,441.747 369.543,438.756 369.37,435.776" fill="#FEF8EA"/>
    <path d="M545.38,796.793 C540.317,777.637 535.558,759.652 530.815,741.663 C530.012,738.617 532.81,732.678 535.534,731.147 C536.823,730.422 537.352,731.358 538.034,731.925 C549.925,741.832 561.781,751.781 573.693,761.662 C575.377,763.058 575.449,764.424 574.096,765.886 C564.755,775.982 555.377,786.043 545.38,796.793" fill="#FEF8EA"/>
    <path d="M602.329,905.555 C615.973,905.555 629.617,905.541 643.261,905.562 C648.855,905.57 652.361,908.201 652.525,912.415 C652.695,916.76 648.9,919.965 643.256,919.973 C615.802,920.012 588.347,920.016 560.893,919.97 C555.027,919.96 551.669,917.036 551.791,912.393 C551.911,907.874 554.908,905.577 560.898,905.564 C574.708,905.535 588.519,905.555 602.329,905.555" fill="#D6D6D5"/>
    <path d="M752.481,901.514 C724.433,901.514 697.475,901.5 670.517,901.543 C668.525,901.547 667.205,901.077 666.023,899.256 C661.698,892.588 655.495,888.674 647.524,888.08 C645.096,887.899 644.892,886.846 644.933,884.958 C644.968,883.304 644.981,881.574 644.538,880.009 C644.148,878.632 644.099,877.828 645.626,877.475 C653.31,875.694 659.336,871.023 665.374,865.724 C667.938,878.4 674.563,886.86 687.311,889.49 C691.654,890.387 695.93,889.787 700.094,888.456 C701.894,887.881 702.827,887.864 703.994,889.9 C710.492,901.239 720.912,903.546 731.63,895.432 C736.402,891.82 739.588,890.241 743.874,895.749 C745.679,898.068 748.964,899.236 752.481,901.514" fill="#FDFDFD"/>
    <path d="M658.728,678.004 C674.909,678.289 690.652,678.361 706.435,676.973 C703.55,687.657 692.973,696.696 683.02,697.171 C671.767,697.709 664.13,691.842 658.728,678.004" fill="#FEF8EA"/>
    <path d="M541.892,654.906 C534.055,655.06 526.491,653.423 519.204,650.799 C515.896,649.608 514.38,650.391 513.183,653.389 C512.152,655.972 510.819,658.435 509.62,660.949 C507.362,652.522 505.104,644.098 502.43,634.118 C515.77,642.655 528.856,648.73 541.892,654.906" fill="#DBA76F"/>
    <path d="M773.147,901.536 C777.967,898.309 782.182,894.852 785.402,890.068 C787.666,886.703 791.204,889.235 794.127,889.082 C796.805,888.942 795.715,891.519 795.897,892.885 C797.049,901.529 796.996,901.536 788.497,901.536 C783.38,901.536 778.263,901.536 773.147,901.536" fill="#FBFAF9"/>
    <path d="M566.897,411.611 C566.514,419.87 563.547,427.344 557.722,433.449 C549.429,442.14 536.574,441.075 529.83,430.849 C521.642,418.436 523.128,405.227 528.398,392.234 C529.699,389.026 530.076,386.85 528.067,383.754 C524.657,378.5 523.572,372.389 523.648,366.117 C523.696,362.15 525.631,359.724 529.627,359.625 C533.557,359.528 535.753,361.651 536.005,365.711 C536.128,367.697 536.405,369.69 536.811,371.638 C537.709,375.945 538.418,379.831 544.865,378.738 C550.2,377.833 554.253,381.68 557.434,385.648 C563.432,393.129 566.518,401.777 566.897,411.611" fill="#6E4100"/>
    <path d="M810.816,410.547 C810.758,417.563 809.768,423.766 806.407,429.327 C798.892,441.761 784.232,442.579 775.341,431.131 C766.151,419.299 765.909,403.388 775.113,389.274 C776.909,386.519 777.297,384.599 775.526,381.844 C773.278,378.347 771.725,374.453 770.839,370.376 C770.006,366.543 770.896,363.197 775.126,362.152 C779.162,361.155 781.802,363.032 782.909,367.117 C783.428,369.029 784.233,370.866 784.929,372.728 C786.263,376.298 787.952,378.696 792.613,378.907 C798.127,379.158 801.684,383.477 804.48,387.913 C808.935,394.981 810.566,402.9 810.816,410.547" fill="#6E4100"/>
    <path d="M671.377,574.868 C660.725,574.486 650.567,572.522 642.215,565.253 C637.536,561.18 636.855,556.733 640.109,553.164 C643.135,549.845 647.531,550.077 651.968,553.791 C661.778,562.001 678.546,561.881 688.178,553.531 C691.276,550.845 695.805,550.826 698.609,553.487 C701.58,556.307 701.794,560.752 698.802,564.252 C692.277,571.885 683.383,574.152 673.871,574.86 C673.044,574.921 672.209,574.868 671.377,574.868" fill="#6E4100"/>
    <path d="M554.025,219.046 C564.262,218.935 572.343,223.803 575.694,231.96 C577.41,236.136 576.348,239.737 572.79,241.186 C568.779,242.819 566.014,241.134 564.332,237.46 C561.939,232.236 557.457,230.761 552.39,231.358 C546.604,232.039 540.622,233.197 538.241,239.683 C536.803,243.598 534.397,245.475 530.348,244.5 C526.555,243.586 525.053,240.125 526.178,235.721 C528.317,227.342 538.584,219.999 549.542,219.064 C551.026,218.937 552.53,219.046 554.025,219.046" fill="#6E4100"/>
    <path d="M664.691,446.535 C664.496,451.211 662.734,453.993 659.504,455.483 C656.488,456.875 653.163,456.804 650.592,454.495 C647.107,451.365 644.567,447.38 642.828,443.071 C641.389,439.505 642.553,436.17 645.506,433.665 C648.337,431.264 651.925,430.797 654.81,432.628 C660.166,436.026 662.776,441.631 664.691,446.535" fill="#6E4100"/>
  </g>
</svg>
