<?xml version="1.0" encoding="UTF-8"?>
<!DOCTYPE svg PUBLIC "-//W3C//DTD SVG 1.1//EN" "http://www.w3.org/Graphics/SVG/1.1/DTD/svg11.dtd">
<svg version="1.1" xmlns="http://www.w3.org/2000/svg" xmlns:xlink="http://www.w3.org/1999/xlink" x="0" y="0" width="1054" height="916" viewBox="0, 0, 1054, 916">
  <defs>
    <clipPath id="Clip_1">
      <path d="M0.06,0.423 L1053.34,0.423 L1053.34,916 L0.06,916 z"/>
    </clipPath>
  </defs>
  <g id="Layer_1">
    <g clip-path="url(#Clip_1)">
      <path d="M792.958,624.962 C798.456,647.42 800.87,670.152 799.208,693.273 C798.43,704.102 796.927,714.852 793.712,725.183 C791.418,732.556 791.186,739.657 792.253,747.199 C799.268,796.784 806.07,846.399 812.936,896.005 C813.05,896.829 813.115,897.66 813.184,898.49 C813.737,905.135 811.698,908.716 806.803,909.709 C802.081,910.666 798.487,907.928 796.528,901.88 C793.598,897.475 794.133,892.302 793.437,887.433 C787.812,848.074 782.539,808.666 777.124,769.467 C759.688,799.994 735.307,824.331 706.624,844.551 C676.592,865.72 643.694,881.162 608.864,892.626 C607.125,893.198 605.42,893.91 603.648,894.341 C599.904,895.252 598.296,897.227 599.43,901.204 C599.957,903.052 600.669,905.086 599.349,906.99 C597.783,912.939 595.079,915.531 590.537,915.438 C586.039,915.347 583.268,912.51 581.95,906.648 C580.431,899.892 580.449,899.97 573.533,901.593 C566.736,903.187 559.866,904.477 553.089,906.145 C549.53,907.022 546.547,906.354 543.047,905.258 C539.464,904.136 535.309,906.296 531.66,907.732 C525.945,909.982 520.327,912.45 514.493,914.432 C508.46,916.48 502.322,915.994 496.195,915.832 C494.663,915.792 492.562,915.076 491.747,913.938 C488.135,908.892 483.866,911.056 479.521,912.251 C471.287,914.517 462.932,916.06 454.391,914.376 C442.337,911.999 435.587,903.405 436.523,891.201 C436.752,888.222 435.92,887.522 433.409,887.051 C412.979,883.216 392.564,879.303 372.147,875.396 C370.835,875.145 369.669,874.763 368.497,875.987 C355.84,889.207 339.161,893.725 322.051,897.043 C294.017,902.478 265.707,902.103 237.451,899.72 C192.705,895.945 148.879,887.274 106.264,872.966 C79.224,863.887 53.149,852.716 29.97,835.696 C23.918,831.251 18.339,826.269 13.417,820.565 C6.218,812.222 2.124,802.937 2.101,791.562 C2.078,780.792 1.658,769.972 0.256,759.226 C-1.337,747.01 4.631,738.433 14.419,732.13 C26.729,724.202 40.716,721.153 54.907,719.025 C85.747,714.401 116.66,715.601 147.558,718.396 C150.201,718.635 151.64,718.678 151.281,715.435 C150.373,707.212 154.631,700.228 157.795,693.324 C160.4,687.639 167.15,685.874 173.125,685.363 C178.395,684.912 180.717,689.513 182.534,693.716 C184.243,697.669 185.633,701.762 187.13,705.806 C188.109,708.451 189.02,711.12 189.975,713.774 C192.68,721.294 197.064,725.945 205.863,727.066 C217.695,728.574 229.342,731.65 240.997,734.358 C243.606,734.965 245.179,734.625 247.156,732.869 C257.197,723.95 268.043,716.338 281.518,713.48 C286.126,712.503 290.812,712.328 295.386,713.513 C308.628,716.946 315.601,730.247 311.039,743.164 C309.755,746.797 307.72,750.045 305.626,753.372 C306.532,755.256 308.591,755.213 310.136,755.835 C331.475,764.42 352.384,773.842 370.537,788.283 C379.455,795.377 388.668,803.138 390.095,815.017 C391.081,823.223 395.055,824.325 401.529,825.324 C413.841,827.225 426.04,829.862 438.275,832.252 C440.148,832.618 441.618,833.304 442.181,830.379 C445.848,811.307 461.378,800.775 481.898,799.997 C494.72,799.511 507.054,802.05 519.035,806.419 C521.432,807.293 523.379,808.292 525.685,805.952 C527.492,804.117 530.318,804.359 532.796,804.116 C546.394,802.778 559.789,800.306 573.102,797.252 C575.636,796.671 576.295,795.733 576.236,793.328 C575.634,768.862 575.07,744.396 574.603,719.927 C574.441,711.441 574.577,702.95 574.577,693.688 C565.699,697.949 557.528,701.888 548.99,704.961 C518.285,716.015 486.438,720.439 453.989,721.138 C388.361,722.55 324.44,711.714 261.521,693.924 C252.133,691.269 250.803,688.703 252.958,678.965 C253.569,676.204 253.856,673.345 254.733,670.676 C255.825,667.355 254.823,666.601 251.592,667.05 C239.208,668.771 226.982,667.759 215.067,664.059 C195.428,657.96 180.655,646.2 173.166,626.549 C171.825,623.03 170.118,624.155 167.931,625.037 C126.347,641.816 84.755,658.578 43.165,675.344 C40.855,676.275 38.568,677.267 36.231,678.126 C31.071,680.022 26.232,678.196 24.539,673.781 C22.768,669.162 24.84,664.669 30.028,662.566 C55.268,652.334 80.539,642.178 105.8,631.996 C124.903,624.297 143.89,616.29 163.178,609.086 C169.191,606.84 169.402,603.37 168.356,597.974 C161.347,601.087 154.423,604.116 147.536,607.226 C108.03,625.064 68.533,642.922 29.03,660.767 C27.971,661.246 26.902,661.714 25.806,662.097 C21.181,663.716 16.876,661.995 14.952,657.793 C13.064,653.671 14.595,649.011 19.046,646.874 C26.98,643.065 35.062,639.561 43.087,635.94 C84.417,617.291 125.725,598.591 167.122,580.09 C170.697,578.492 172.353,576.351 173.409,572.712 C175.552,565.331 178.832,558.441 184.035,552.581 C193.432,541.996 207.276,539.155 221.797,546.842 C229.092,550.704 234.48,549.956 241.376,546.68 C262.221,536.775 283.39,527.554 304.425,518.047 C308.173,516.354 311.834,515.934 315.135,518.877 C317.762,521.219 318.213,524.289 317.362,527.576 C316.521,530.827 313.94,532.24 311.118,533.509 C290.974,542.57 270.854,551.687 250.728,560.789 C249.238,561.463 247.756,562.156 245.637,563.132 C248.369,565.834 250.939,568.09 253.152,570.654 C254.99,572.783 256.514,571.176 258.006,570.58 C275.587,563.56 293.137,556.46 310.693,549.377 C311.617,549.005 312.509,548.539 313.454,548.235 C318.419,546.639 322.805,548.543 324.559,553.018 C326.308,557.479 324.398,561.902 319.492,563.948 C310.445,567.723 301.318,571.305 292.224,574.97 C283.662,578.42 275.102,581.874 266.314,585.417 C267.185,586.677 267.843,587.625 268.497,588.576 C270.172,591.009 271.391,593.036 274.504,589.451 C276.812,586.792 280.624,587.281 283.833,588.879 C312.989,603.402 343.972,611.844 376.07,616.508 C389.22,618.42 402.434,619.794 415.663,620.158 C416.232,618.853 415.264,618.474 414.719,618.026 C371.581,582.562 342.132,537.489 322.287,485.793 C306.293,444.124 297.948,400.883 296.728,356.261 C295.18,299.638 304.693,245.266 330.294,194.329 C351.421,152.293 378.143,114.389 414.675,84.137 C438.764,64.19 465.644,49.448 496.917,44.864 C507.755,43.276 516.478,39.875 525.115,32.96 C539.605,21.359 557.519,16.427 575.26,11.745 C605.204,3.842 635.783,0.226 666.633,0.431 C713.618,0.743 758.296,12.429 800.313,32.859 C908.51,85.469 974.906,171.188 998.713,289.086 C1007.29,331.581 1010.68,374.843 1008.89,418.264 C1006.27,481.804 988.379,540.574 952.44,593.471 C946.643,602.002 941.443,610.968 933.724,618.013 C931.638,619.917 929.532,621.844 927.211,623.434 C923.033,626.296 917.963,625.392 915.305,621.563 C912.825,617.991 913.544,612.896 917.27,609.993 C922.714,605.754 927.363,600.843 931.055,595.022 C929.965,593.089 931.475,591.942 932.393,590.625 C944.613,573.101 955.624,554.906 964.111,535.224 C976.865,505.643 985.038,474.896 988.908,442.913 C991.681,419.994 991.568,396.968 990.448,374.081 C988.828,341.002 985.287,308.003 977.486,275.692 C969.942,244.446 958.54,214.655 942.302,186.807 C938.274,179.898 934.121,173.072 929.739,166.39 C924.591,158.634 919.075,151.144 913.133,143.963 C884.855,109.211 851.535,80.513 812.109,58.959 C774.377,38.331 734.179,25.376 691.635,19.798 C676.449,17.807 661.143,18.153 645.793,19.138 C624.606,20.496 603.737,23.525 583.128,28.416 C567.855,32.04 552.967,36.83 539.341,44.904 C536.373,46.663 534.3,48.753 533.668,52.541 C532.782,57.85 529.629,60.109 524.218,60.366 C519.583,60.587 514.872,59.907 510.369,61.608 C495.83,61.975 482.135,65.95 468.966,71.755 C441.527,83.85 418.832,102.248 398.941,124.486 C377.132,148.866 359.643,176.054 345.131,205.254 C330.3,235.095 321.871,266.814 317.579,299.729 C315.059,319.059 313.736,338.499 314.718,357.955 C315.967,382.714 318.681,407.341 324.565,431.508 C325.038,434.006 325.438,436.521 326.154,438.969 C333.382,465.221 342.495,490.747 355.121,514.948 C374.904,552.867 401.033,585.474 435.402,611.218 C436.469,612.017 437.977,612.599 438.453,613.744 C441.51,621.091 447.849,620.106 453.689,619.632 C468.44,618.434 483.26,618.152 498.42,616.153 C492.517,612.462 486.572,609.464 480.959,605.909 C450.321,586.506 426.553,560.731 408.816,529.174 C399.285,512.218 392.337,494.242 386.705,475.717 C385.561,471.955 383.816,470.446 379.77,470.176 C358.556,468.759 342.435,455.471 337.973,434.757 C334.312,417.764 333.893,400.649 342.098,384.478 C347.813,373.216 357.261,367.417 369.715,366.875 C374.076,366.685 375.432,364.84 375.894,360.92 C380.762,319.672 391.712,280.205 411.17,243.356 C435.835,196.648 471.081,160.478 518.442,136.5 C528.261,131.529 538.144,126.713 548.568,123.128 C551.184,122.229 552.682,120.912 553.058,117.918 C553.706,112.753 556.736,109.801 561.199,109.203 C564.939,108.702 569.007,111.014 571.195,115.323 C578.659,130.029 585.771,144.911 594.5,158.951 C622.351,203.755 656.803,242.227 702.758,269.007 C734.894,287.734 768.803,302.984 803.548,316.323 C827.392,325.477 851.624,333.289 876.748,338.095 C888.382,340.321 900.116,341.58 911.995,340.791 C913.324,340.703 914.662,340.716 915.992,340.823 C921.388,341.256 925.432,344.861 925.941,349.667 C926.428,354.26 923.443,358.123 918.117,359.823 C916.178,360.442 913.447,360.225 913.998,363.58 C914.46,366.395 916.511,366.7 918.844,366.757 C935.554,367.169 946.747,375.582 951.454,391.309 C956.371,407.735 956.659,424.624 950.665,440.901 C943.865,459.364 929.832,468.907 910.384,470.141 C905.717,470.437 903.741,471.988 902.461,476.39 C892.565,510.437 876.724,541.374 853.153,568.053 C837.343,585.947 818.738,600.484 797.831,611.961 C793.589,614.29 790.948,616.426 793.031,621.504 C793.488,622.619 792.788,623.802 792.958,624.962" fill="#6E4100"/>
    </g>
    <path d="M792.958,624.962 C790.004,615.067 790.033,615.118 798.647,610.197 C845.323,583.532 876.733,544.15 895.326,494.089 C897.934,487.069 900.41,480.007 902.188,472.732 C902.856,469.998 904.195,469.179 907.032,469.063 C934.709,467.939 951.919,450.762 953.249,422.932 C953.79,411.612 953.932,400.306 949.58,389.458 C943.931,375.377 933.238,367.864 917.991,368.012 C914.592,368.045 912.974,367.506 912.564,363.751 C912.206,360.471 912.356,358.863 916.263,358.823 C920.993,358.775 924.227,356.063 924.791,351.301 C925.266,347.291 923.247,344.24 919.407,342.666 C918.51,342.298 917.468,342.026 916.515,342.084 C884.07,344.068 853.59,335.116 823.467,324.87 C781.771,310.688 741.651,292.725 703.43,270.889 C659.392,245.73 625.826,209.557 598.375,167.373 C588.004,151.436 579.022,134.73 570.987,117.506 C569.789,114.94 568.653,112.409 565.74,111.14 C560.297,108.767 554.064,112.047 554.277,117.955 C554.432,122.234 552.353,123.075 549.169,124.256 C512.06,138.016 479.359,158.597 452.186,187.577 C422.44,219.3 402.747,256.696 390.212,298.078 C383.834,319.135 379.357,340.597 376.968,362.478 C376.576,366.076 375.924,368.152 371.149,368.108 C356.699,367.974 345.571,376.003 340.768,390.389 C335.124,407.293 335.05,424.567 341.404,441.308 C348.139,459.054 362.005,467.683 380.566,468.92 C384.584,469.187 386.452,470.07 387.681,474.341 C399.609,515.772 419.716,552.428 451.726,581.94 C465.766,594.884 481.376,605.597 498.284,614.446 C499.419,615.04 500.509,615.722 502.179,616.685 C492.35,618.61 483.065,618.917 473.854,619.656 C464.075,620.441 454.237,620.477 444.428,620.908 C442.035,621.013 440.32,620.779 439.837,617.795 C439.52,615.841 437.784,614.484 436.13,613.259 C381.581,572.86 348.862,517.795 329.23,453.966 C327.719,449.055 326.539,444.041 325.205,439.075 C324.342,436.5 324.929,433.689 323.916,431.139 C319.294,409.823 319.145,388.16 320.081,366.586 C321.894,324.809 329.224,283.934 342.918,244.333 C356.301,205.633 374.664,169.572 400.786,137.807 C423.121,110.646 449.236,87.937 480.746,71.886 C488.598,67.886 496.647,64.224 505.126,61.673 C506.815,61.165 508.501,60.126 510.386,61.04 C511.128,59.478 512.307,59.115 514.033,59.2 C517.521,59.373 521.029,59.293 524.524,59.178 C529.428,59.016 533.195,55.829 532.737,51.101 C532.407,47.69 534.177,46.672 536.243,45.355 C551.195,35.825 567.827,30.637 584.904,26.636 C615.85,19.385 647.246,15.709 678.969,17.509 C714.495,19.523 748.451,28.896 781.21,42.596 C827.584,61.992 867.412,90.676 901.223,127.78 C905.889,132.901 910.466,138.133 914.351,143.908 C911.646,144.868 910.484,142.59 909.07,141.199 C900.049,132.325 891.156,123.32 882.094,114.31 C882.51,128.167 880.745,141.434 874.66,153.968 C868.531,166.592 859.216,175.909 846.731,182.175 C842.185,184.456 842.482,184.311 845.274,188.573 C849.618,195.206 854.938,197.092 862.929,195.49 C883.565,191.353 902.062,182.666 919.553,171.349 C923.009,169.112 926.022,166.059 930.232,165.091 C951.293,195.673 966.229,229.077 976.11,264.798 C983.184,290.37 986.407,316.582 989.323,342.877 C992.156,368.424 993.147,394.041 992.002,419.657 C989.398,477.881 972.978,531.863 940.745,580.731 C937.576,585.535 934.288,590.261 931.055,595.022 C927.685,595.219 926.094,598.085 923.905,599.951 C907.973,613.537 890.639,624.277 869.472,627.513 C860.709,628.852 851.96,629.718 843.327,626.87 C837.265,624.87 832.931,620.995 831.229,614.675 C830.735,612.842 830.461,611.403 828.035,612.465 C817.046,617.275 805.635,620.857 794.085,624.033 C793.657,624.151 793.331,624.644 792.958,624.962" fill="#DBA76F"/>
    <g>
      <path d="M599.349,906.99 C596.466,895.446 596.48,895.489 607.437,891.8 C648.257,878.055 686.608,859.574 720.426,832.506 C742.733,814.651 761.679,793.825 775.933,768.919 C776.398,768.107 776.556,766.993 778.218,766.523 C784.332,811.711 790.432,856.797 796.529,901.881 C730.802,903.583 665.076,905.286 599.349,906.99" fill="#FEEC56"/>
      <path d="M1053.14,709.529 C1053.14,725.073 1047.6,733.301 1034.1,738.875 C1027.27,741.695 1020.11,743.127 1012.81,743.932 C1009.56,744.29 1006.67,743.554 1005.92,739.801 C1005.22,736.246 1007.04,734.19 1010.34,733.062 C1011.89,732.532 1013.49,731.811 1014.74,730.776 C1019.91,726.475 1025.72,721.84 1024.68,714.476 C1023.5,706.021 1015.98,702.418 1009.17,698.781 C1006.07,697.122 1006.42,700.076 1005.93,701.479 C1000.63,716.537 995.309,731.586 990.214,746.713 C987.144,755.826 983.517,764.747 981.264,774.152 C979.459,781.689 973.693,785.697 966.729,787.946 C957.192,791.026 947.635,790.637 938.408,786.748 C922.661,780.112 920.432,762.774 933.813,751.963 C944.124,743.631 960.609,742.24 971.826,749.23 C975.225,751.347 975.963,750.357 977.035,747.231 C986.58,719.393 996.244,691.596 1005.87,663.784 C1008.46,656.291 1011.5,655.034 1018,659.22 C1029.77,666.806 1039.68,676.345 1047.07,688.306 C1051.25,695.073 1054.14,702.289 1053.14,709.529" fill="#FF7164"/>
    </g>
    <path d="M36.372,515.085 C36.382,502.818 38.701,494.257 43.695,486.504 C44.915,484.61 45.615,483.575 43.094,481.882 C20.818,466.927 12.63,445.13 13.022,419.22 C13.156,410.342 14.506,401.679 17.07,393.2 C18.808,387.455 22.833,384.838 27.762,386.113 C32.5,387.338 34.771,391.916 33.131,397.823 C29.608,410.508 28.272,423.251 31.215,436.244 C35.08,453.31 44.612,465.645 61.044,472.339 C70.401,476.151 71.444,482.747 63.701,489.15 C54.025,497.151 51.81,507.733 53.753,519.351 C56.063,533.163 62.275,545.296 72.325,555.056 C76.527,559.137 76.118,565.407 73.582,568.017 C70.173,571.526 64.577,571.189 60.364,566.89 C45.429,551.654 37.247,533.436 36.372,515.085" fill="#FF7164"/>
    <path d="M178.083,429.257 C177.468,449.299 168.099,462.455 150.335,469.472 C146.789,470.873 146.57,472.066 147.984,475.38 C154.147,489.818 150.669,502.734 139.16,509.541 C134.382,512.367 129.342,511.657 126.691,507.785 C123.835,503.615 124.96,498.779 129.986,495.477 C134.169,492.728 135.072,489.262 133.591,484.726 C132.07,480.072 129.613,475.966 126.736,472.052 C121.915,465.494 124.191,459.408 132.115,457.445 C135.339,456.646 138.624,455.982 141.737,454.855 C155.82,449.761 160.885,442.592 161.251,427.596 C161.38,422.27 164.482,418.589 169.066,418.322 C173.825,418.045 177.577,421.679 178.07,427.094 C178.16,428.085 178.083,429.092 178.083,429.257" fill="#FF7164"/>
    <path d="M868.368,513.321 C850.584,548.855 824.223,576.268 789.775,595.899 C760.471,612.599 728.602,621.496 695.391,625.919 C659.221,630.736 623.032,630.569 586.957,624.973 C541.051,617.853 498.911,602.053 463.976,570.246 C441.852,550.103 425.433,525.933 413.89,498.391 C413.576,497.644 413.447,496.819 413.231,496.031 C414.645,495.38 415.827,496.083 416.986,496.724 C427.115,502.32 438.199,504.911 449.531,505.501 C461.31,506.115 472.165,502.758 481.323,494.682 C487.871,488.908 493.582,482.532 498.175,475.106 C505.764,462.838 506.997,449.811 502.691,436.248 C498.494,423.03 491.919,411.265 481.17,402.072 C461.542,385.287 432.47,388.238 414.592,405.031 C408.254,410.985 402.393,417.326 398.495,425.244 C397.871,426.512 397.298,428.102 395.362,427.995 C389.174,389.176 393.095,351.067 403.325,313.381 C413.727,275.064 429.946,239.674 455.651,209.048 C482.939,176.534 517.056,153.926 556.69,139.218 C560.892,137.658 562.547,138.451 564.577,142.376 C585,181.871 610.825,217.348 643.577,247.625 C666.247,268.581 691.881,285.073 719.465,298.729 C758.98,318.292 799.223,336.036 841.708,348.249 C857.867,352.894 874.196,356.737 890.996,358.238 C893.343,358.447 895.409,358.609 895.72,361.887 C897.755,383.342 897.454,404.724 894.173,426.042 C891.188,425.953 890.708,423.199 889.562,421.396 C883.843,412.4 877.007,404.419 867.578,399.313 C850.579,390.108 833.093,389.472 815.934,398.705 C792.36,411.39 779.382,431.658 777.708,458.109 C776.209,481.793 788.378,498.577 809.079,508.824 C823.034,515.732 838.056,518.635 853.772,515.639 C857.406,514.946 860.796,513.594 864.286,512.492 C865.582,512.082 867.637,510.108 868.368,513.321" fill="#FEF8EA"/>
    <path d="M285.568,608.359 C314.603,621.255 344.562,629.069 375.518,633.358 C407.808,637.832 440.204,638.425 472.687,636.448 C491.971,635.274 511.147,633.099 530.215,629.995 C532.56,629.613 534.75,629.802 537.056,630.545 C547.819,634.014 558.727,636.987 569.866,638.983 C572.472,639.45 573.453,640.427 573.43,643.183 C573.356,652.003 573.405,660.833 573.763,669.645 C573.911,673.272 572.764,675.29 569.552,677.09 C548.25,689.033 525.296,696.013 501.365,699.984 C462.47,706.439 423.476,705.511 384.438,701.242 C347.313,697.182 310.814,689.984 274.756,680.323 C270.543,679.194 270.252,677.706 271.094,673.941 C275.702,653.337 280.02,632.668 284.457,612.026 C284.7,610.896 285.125,609.806 285.568,608.359" fill="#FEFEFE"/>
    <path d="M540.458,820.274 C575.242,815.524 608.707,806.681 640.504,792.055 C678.246,774.694 710.632,750.756 733.689,715.491 C739.252,706.983 743.971,698.023 747.993,688.696 C750.703,682.411 750.016,679.751 744.551,675.497 C743.689,674.827 743.268,674.383 743.274,673.179 C743.331,660.892 742.48,648.597 743.958,636.323 C744.255,633.858 744.889,632.675 747.457,631.867 C755.375,629.377 763.23,626.639 770.946,623.584 C774.022,622.366 774.967,622.711 775.832,625.977 C792.601,689.317 780.507,745.897 736.16,794.775 C709.067,824.635 675.531,845.348 639.032,861.599 C613.469,872.981 586.908,881.416 559.63,887.595 C557.676,888.037 555.106,889.708 554.277,885.715 C549.755,863.932 545.098,842.177 540.458,820.274" fill="#FEFEFE"/>
    <path d="M868.368,513.321 C867.776,512.4 867.039,512.627 866.231,513.003 C852.839,519.239 838.925,519.309 824.926,515.94 C805.463,511.257 789.79,501.383 780.905,482.558 C773.839,467.591 774.873,452.53 780.512,437.601 C787.733,418.481 800.346,404.19 819.159,395.458 C837.607,386.896 863.367,391.199 878.09,405.267 C884.55,411.44 889.278,418.76 894.173,426.042 C891.415,452.682 884.417,478.19 873.621,502.67 C872.025,506.289 870.126,509.774 868.368,513.321" fill="#FFE0CB"/>
    <path d="M726.18,652.095 C726.122,664.763 726.669,675.555 728.92,686.186 C729.414,688.52 728.699,690.351 727.682,692.333 C712.749,721.441 690.31,743.452 662.99,760.844 C642.512,773.881 620.347,783.22 597.341,790.722 C593.982,791.817 592.78,791.19 592.721,787.372 C592.272,758.252 591.602,729.135 591.053,700.016 C590.72,682.378 590.564,664.735 590.125,647.099 C590.037,643.591 590.932,642.221 594.511,642.988 C596.619,643.44 598.786,643.667 600.938,643.863 C611.688,644.84 611.654,644.826 612.195,655.812 C612.679,665.631 614.112,675.351 615.64,685.044 C616.635,691.35 619.38,693.604 625.907,693.551 C646.216,693.388 666.527,693.184 686.831,692.728 C696.339,692.515 698.3,690.306 698.783,680.651 C699.358,669.184 699.943,657.715 700.241,646.24 C700.322,643.104 701.214,642.036 704.382,641.621 C710.634,640.803 716.816,639.422 723.003,638.153 C725.896,637.56 727.335,637.793 726.778,641.469 C726.158,645.561 726.29,649.767 726.18,652.095" fill="#FEEC56"/>
    <path d="M395.362,427.995 C401.104,416.946 408.662,407.436 418.722,399.956 C437.18,386.231 464.171,385.4 481.707,401.024 C498.338,415.841 507.402,434.232 506.099,456.849 C505.559,466.234 500.994,474.321 495.352,481.624 C488.011,491.128 479.924,499.77 468.103,503.984 C452.934,509.392 438.397,506.291 423.909,501.329 C420.113,500.028 416.69,497.998 413.231,496.031 C405.911,480.285 401.735,463.575 398.284,446.667 C397.025,440.502 396.32,434.223 395.362,427.995" fill="#FFD5BA"/>
    <path d="M361.234,852.256 C359.284,864.336 351.253,870.212 341.151,874.257 C324.215,881.039 306.427,883.418 288.426,883.944 C219.831,885.946 153.685,873.577 89.808,848.876 C71.141,841.657 53.311,832.626 37.453,820.161 C32.464,816.24 27.976,811.807 24.03,806.806 C19.768,801.404 18.318,795.389 19.54,788.05 C27.511,793.96 35.47,799.306 43.908,803.888 C73.043,819.706 104.165,830.306 136.028,838.942 C171.565,848.574 207.68,855.211 244.318,858.655 C276.846,861.713 309.417,862.685 341.841,856.997 C348.371,855.851 354.737,854.061 361.234,852.256" fill="#FF7164"/>
    <path d="M510.386,61.04 C473.3,73.539 442.051,94.975 415.334,123.286 C379.421,161.34 356.018,206.531 340.546,256.046 C326.089,302.312 319.844,349.786 321.589,398.249 C321.984,409.207 322.835,420.156 324.345,431.035 C324.622,431.994 324.219,432.229 323.351,431.969 C307.447,361.493 308.499,291.745 335.54,224.065 C355.429,174.287 384.923,130.625 426.674,96.148 C449.242,77.512 474.637,64.589 503.989,60.521 C506.055,60.234 508.443,58.733 510.386,61.04" fill="#FEFEFE"/>
    <path d="M486.133,817.007 C499.022,817 511.001,820.705 522.514,826.218 C524.108,826.981 524.952,828.067 525.34,829.94 C529.015,847.68 532.782,865.402 536.665,883.098 C537.101,885.085 536.864,886.1 535.037,887.055 C525.755,891.906 516.451,896.663 506.184,899.189 C503.987,899.73 502.841,900.273 502.563,896.92 C501.954,889.576 495.687,887.057 489.06,890.624 C480.015,895.493 470.314,898.242 459.937,898.12 C457.584,898.092 455.145,897.994 453.793,895.62 C452.267,892.94 453.882,890.832 455.387,888.829 C462.02,880.008 470.411,872.819 477.831,864.728 C479.965,862.402 482.127,860.052 483.906,857.459 C487.713,851.91 485.776,846.184 479.47,843.896 C473.825,841.848 467.992,840.424 462.046,839.737 C458.108,839.282 457.689,837.32 458.383,834.042 C460.451,824.275 467.771,818.157 479.146,817.04 C481.453,816.813 483.803,817.007 486.133,817.007" fill="#FEF8EA"/>
    <path d="M169.61,766.621 C164.097,763.989 159.547,763.194 155.548,767.45 C154.597,768.462 153.356,768.129 152.247,767.967 C144.362,766.818 136.305,767.175 128.511,765.099 C126.732,764.626 125.8,764.039 124.897,762.366 C122.384,757.714 118.645,756.471 113.509,758.499 C108.728,760.387 104.083,762.622 99.376,764.699 C97.627,765.471 95.99,766.085 94.722,763.809 C90.751,756.681 83.906,754.174 76.46,753.243 C67.632,752.139 58.853,752.751 50.369,755.793 C40.519,759.326 34.915,766.376 33.749,777.279 C26.797,772.409 20.815,767.111 17.487,759.452 C15.898,755.797 16.737,752.31 19.685,749.404 C23.952,745.196 29.258,742.861 34.784,740.98 C53.441,734.632 72.832,733.256 92.321,732.867 C112.3,732.468 132.231,733.408 152.088,735.778 C153.806,735.983 155.218,736.029 155.93,738.055 C159.139,747.189 163.648,755.682 168.906,763.795 C169.224,764.285 169.218,764.985 169.61,766.621" fill="#FEFEFE"/>
    <path d="M930.232,165.091 C909.382,181.097 886.457,192.316 860.397,197.348 C852.168,198.936 848.727,194.718 844.639,189.735 C839.988,184.064 839.973,184.171 846.3,180.952 C867.281,170.277 877.523,152.472 880.151,129.673 C880.836,123.733 881.309,117.78 879.737,110.258 C892,122.18 903.175,133.043 914.35,143.907 C920.379,150.418 925.442,157.652 930.232,165.091" fill="#FEFEFE"/>
    <path d="M254.486,787.791 C268.968,787.862 279.428,779.475 289.496,770.675 C292.523,768.028 294.817,767.825 298.282,769.201 C318.083,777.068 337.647,785.381 355.169,797.76 C361.302,802.094 367.168,806.756 371.395,813.125 C376.268,820.468 375.397,825.546 368.009,830.403 C359.954,835.698 350.75,838.032 341.444,839.955 C340.323,840.187 339.071,840.413 338.361,839.069 C336.134,834.854 332.236,831.623 333.72,825.622 C335.178,819.727 334.971,813.405 335.35,807.262 C335.718,801.303 332.553,797.906 326.403,797.853 C317.242,797.775 308.08,797.956 298.918,797.965 C291.871,797.972 285.1,796.62 278.396,794.352 C271.671,792.078 264.885,789.745 257.505,790.431 C255.828,790.587 254.03,789.443 252.288,788.897 C252.235,786.967 253.48,787.616 254.486,787.791" fill="#FEFEFE"/>
    <path d="M240.402,651.07 C222.663,650.442 206.49,646.043 194.883,631.352 C185.342,619.275 186.044,617.185 200.28,611.989 C202.351,611.234 203.352,611.118 204.336,613.488 C206.357,618.356 209.896,622.152 214.139,625.223 C218.757,628.566 224.125,627.978 226.979,623.97 C229.729,620.109 228.761,615.182 224.276,611.815 C221.328,609.603 219.194,606.924 218.613,603.334 C218.111,600.226 219.177,598.308 222.816,599.813 C223.735,600.194 224.677,600.534 225.557,600.992 C233.497,605.12 235.746,604.417 240.37,596.926 C242.252,593.878 245.976,593.583 249.014,592.609 C251.021,591.965 251.736,594.654 252.767,595.976 C256.856,601.222 260.69,606.666 264.74,611.943 C266.307,613.986 266.571,616.047 266.03,618.477 C264.005,627.562 262.027,636.659 260.151,645.775 C259.685,648.04 258.653,649.138 256.304,649.49 C251.034,650.28 245.784,651.139 240.402,651.07" fill="#FEF8EA"/>
    <path d="M656.498,676.833 C649.344,676.833 642.188,676.746 635.037,676.88 C632.48,676.928 631.174,676.458 630.934,673.493 C630.276,665.379 629.255,657.294 628.385,649.197 C628.167,647.161 628.319,645.782 631.145,645.862 C647.785,646.329 664.418,646.098 680.998,644.428 C683.025,644.224 683.628,644.756 683.516,646.788 C683.029,655.586 682.555,664.388 682.323,673.196 C682.253,675.81 681.031,676.154 678.956,676.142 C671.47,676.1 663.984,676.126 656.498,676.126 C656.498,676.362 656.498,676.597 656.498,676.833" fill="#FEFEFE"/>
    <path d="M461.742,856.769 C456.704,862.139 452.274,866.823 447.897,871.554 C446.732,872.814 445.44,872.256 444.184,872.02 C422.79,867.993 401.405,863.92 380.004,859.935 C377.594,859.486 377.493,858.438 378.32,856.499 C380.344,851.756 382.388,847.013 384.142,842.168 C385.051,839.655 386.519,839.499 388.736,839.933 C405.691,843.254 422.886,845.669 439.516,850.178 C446.583,852.094 453.565,855.222 461.742,856.769" fill="#9C9C9C"/>
    <path d="M937.061,415.283 C936.735,423.166 936.068,431.087 932.215,438.361 C927.587,447.097 919.969,451.081 910.478,452.153 C908.258,452.404 907.196,452.177 907.757,449.32 C911.742,429.036 913.644,408.531 913.629,387.862 C913.628,385.377 914.72,384.784 916.824,384.585 C924.048,383.901 930.154,387.377 933.318,394.213 C936.393,400.857 936.822,407.989 937.061,415.283" fill="#FEF8EA"/>
    <path d="M382.087,451.62 C373.033,452.76 362.935,447.618 358.67,438.66 C351.744,424.113 351.939,409.003 357.432,394.063 C359.786,387.658 365.224,384.88 371.982,384.56 C374.725,384.43 375.742,385.334 375.757,388.229 C375.867,409.549 377.835,430.701 382.087,451.62" fill="#FEF8EA"/>
    <path d="M255.933,770.922 C248.201,771.014 243.819,764.833 247.91,758.187 C256.577,744.104 269.042,734.444 285.165,729.939 C286.568,729.547 288.155,729.623 289.637,729.736 C294.61,730.115 296.743,733.45 294.811,738.063 C293.855,740.344 292.601,742.574 291.112,744.547 C283.91,754.09 275.127,761.909 264.861,768.048 C262.11,769.693 259.189,770.835 255.933,770.922" fill="#FFA637"/>
    <path d="M123.831,781.37 C126.706,781.808 129.362,782.608 131.524,784.67 C142.417,795.057 149.745,807.398 152.689,822.294 C153.371,825.747 152.412,825.949 149.514,825.102 C143.935,823.471 138.273,822.126 132.661,820.605 C131.222,820.215 129.88,819.646 128.912,818.323 C123.777,811.305 119.229,803.942 116.594,795.614 C115.531,792.256 115.777,788.708 117.443,785.399 C118.792,782.722 121.085,781.666 123.831,781.37" fill="#FFA637"/>
    <path d="M240.127,785.069 C222.948,780.746 205.819,776.211 187.469,773.165 C195.527,768.398 202.646,764.19 209.762,759.977 C215.131,756.798 215.715,752.504 211.464,744.922 C218.135,746.363 224.433,747.719 230.729,749.086 C233.51,749.689 232.261,751.306 231.74,752.866 C227.28,766.22 230.17,775.665 241.22,784.029 C241.399,784.946 241.227,785.496 240.127,785.069" fill="#FEFEFE"/>
    <path d="M185.764,599.659 C185.321,590.315 185.311,590.295 192.953,586.821 C202.906,582.296 213.047,578.145 222.762,573.16 C227.522,570.717 230.701,571.35 233.817,575.195 C234.756,576.353 235.76,577.459 236.959,578.85 C232.361,580.756 228.181,583.564 222.398,582.712 C215.375,581.677 209.23,584.142 205.243,590.397 C203.844,592.591 201.77,593.302 199.622,594.147 C195.047,595.947 190.484,597.779 185.764,599.659" fill="#FEF7E9"/>
    <path d="M244.381,817.981 C228.57,819.287 216.049,826.479 203.634,833.843 C200.695,835.586 199,835.561 197.985,831.992 C197.538,830.421 196.789,828.888 195.924,827.495 C194.794,825.673 195.581,824.838 197.182,824.107 C208.86,818.775 220.822,814.485 233.88,814.508 C237.323,814.514 240.819,814.79 244.381,817.981" fill="#FDFDFD"/>
    <path d="M170.287,707.85 C173.742,723.647 182.966,735.26 191.931,747 C193.429,748.96 193.119,749.941 191.232,751.341 C184.123,756.615 184.051,756.745 179.689,749.104 C173.73,738.667 168.531,727.917 168.151,715.55 C168.08,713.236 167.983,710.862 170.287,707.85" fill="#79CE70"/>
    <path d="M193.798,806.161 C193.691,807.868 189.022,809.535 187.411,808.418 C179.314,802.806 170.305,798.921 161.543,794.573 C159.563,793.591 159.447,792.629 160.42,790.723 C164.542,782.649 164.668,782.565 172.288,787.457 C179.58,792.138 186.29,797.512 192.024,804.045 C192.674,804.785 193.29,805.553 193.798,806.161" fill="#79CD70"/>
    <path d="M289.438,813.79 C298.171,815.197 305.92,814.762 313.663,814.236 C316.517,814.042 317.692,814.663 317.474,818.042 C316.913,826.756 317.15,826.318 308.474,825.939 C299.978,825.567 294.611,821.065 289.438,813.79" fill="#78CD70"/>
    <path d="M68.805,769.3 C70.607,769.506 72.418,769.688 74.22,769.927 C75.999,770.163 78.333,770.049 79.023,771.829 C79.845,773.948 77.799,775.473 76.401,776.769 C71.16,781.628 57.993,781.965 52.534,777.579 C49.66,775.271 52.256,774.029 53.58,773.05 C58.081,769.718 63.6,770.129 68.805,769.3" fill="#FED900"/>
    <path d="M284.965,844.075 C277.26,843.709 267.372,832.778 267.718,825.434 C267.818,823.305 269.04,823.042 270.722,823.173 C275.895,823.577 288.803,836.492 289.028,841.715 C289.175,845.131 286.236,843.488 284.965,844.075" fill="#FED800"/>
    <path d="M229.148,840.146 C235.785,835.729 243.253,835.17 250.477,833.664 C252.111,833.323 252.553,834.179 253.008,835.264 C254.015,837.667 254.973,840.09 256.101,842.876 C246.861,841.94 238.005,841.043 229.148,840.146" fill="#FCFBFA"/>
    <path d="M77.898,795.581 C85.8,792.485 90.911,784.638 99.899,783.539 C99.703,785.926 99.268,788.606 99.332,791.274 C99.385,793.433 98.478,794.025 96.579,794.406 C90.428,795.639 84.274,796.554 77.898,795.581" fill="#FDFCFB"/>
    <path d="M179.204,831.397 C169.268,830.485 169.268,830.485 169.374,817.782 C177.533,818.827 176.939,825.966 179.204,831.397" fill="#FAF9F8"/>
    <path d="M206.08,793.908 C211.421,795.428 216.481,795.511 220.85,798.434 C210.932,801.291 210.932,801.291 206.08,793.908" fill="#F5F4F1"/>
    <path d="M193.812,567.847 C199.262,559.894 202.617,558.472 210.388,560.427 C207.431,561.79 205.065,562.905 202.679,563.974 C200.187,565.09 197.676,566.162 193.812,567.847" fill="#F9F1E3"/>
    <path d="M323.351,431.969 C323.682,431.657 324.014,431.346 324.345,431.035 C326.133,433.555 324.929,436.394 325.206,439.075 C323.727,436.931 323.785,434.386 323.351,431.969" fill="#D9C5AF"/>
    <path d="M312.161,843.666 C309.291,843.954 307.744,844.534 305.717,842.817 C307.932,841.8 309.424,842.155 312.161,843.666" fill="#D3C9BB"/>
    <path d="M244.133,785.173 C245.485,785.792 247.164,785.604 248.264,786.847 C248.596,787.085 248.707,787.324 248.598,787.565 C248.488,787.805 248.379,787.925 248.268,787.925 C246.475,787.524 244.616,787.315 243.092,786.136 C243.154,785.507 243.752,785.457 244.133,785.173" fill="#BEAD97"/>
    <path d="M248.268,787.925 C248.266,787.566 248.265,787.206 248.264,786.847 C250.352,787.065 252.514,786.801 254.486,787.791 C253.753,788.16 253.02,788.529 252.288,788.897 C250.948,788.573 249.608,788.249 248.268,787.925" fill="#DDD5CB"/>
    <path d="M244.133,785.173 C243.786,785.494 243.439,785.815 243.092,786.136 C242.01,786.042 240.899,786.027 240.127,785.069 C240.491,784.723 240.856,784.376 241.22,784.029 C242.191,784.411 243.162,784.792 244.133,785.173" fill="#E2DBD3"/>
    <path d="M919.274,315.677 C919.228,321.994 914.307,325.356 907.673,323.617 C898.497,321.211 889.474,318.289 880.647,314.807 C845.617,300.987 814.269,280.973 785.233,257.277 C749.021,227.724 717.312,193.964 691.504,154.848 C690.77,153.736 690.043,152.619 689.356,151.479 C686.008,145.929 686.572,141 690.845,138.301 C695.229,135.531 699.95,137.03 703.438,142.384 C709.347,151.455 715.411,160.421 722.143,168.904 C763.146,220.577 811.523,263.387 871.241,292.453 C884.123,298.723 897.522,303.738 911.482,307.145 C916.075,308.267 919.53,310.478 919.274,315.677" fill="#6E4100"/>
    <path d="M507.666,390.877 C507.733,384.137 508.807,377.594 512.016,371.597 C513.173,369.433 513.105,367.857 511.746,365.753 C508.226,360.301 506.878,354.185 507.012,347.69 C507.087,344.101 508.758,341.937 512.247,341.611 C515.98,341.261 518.321,343.271 518.843,346.938 C519.287,350.06 519.205,353.264 520.345,356.266 C521.267,358.697 522.266,360.675 525.711,359.825 C529.105,358.988 532.255,360.405 535.016,362.444 C548.526,372.421 552.052,395.13 542.18,408.728 C538.163,414.261 533.114,418.275 525.843,417.409 C518.247,416.504 513.197,411.925 510.189,405.026 C508.226,400.522 507.645,395.749 507.666,390.877" fill="#6E4100"/>
    <path d="M742.018,390.757 C741.985,383.825 743.429,377.196 746.603,371.056 C747.595,369.137 747.486,367.924 746.342,366.193 C742.965,361.085 741.528,355.305 741.246,349.241 C741.023,344.431 743.135,341.58 747.027,341.593 C751.366,341.609 753.118,344.196 753.302,348.317 C753.397,350.46 753.719,352.634 754.268,354.706 C755.143,358.003 756.056,360.873 760.938,359.742 C764.582,358.898 767.988,361.102 770.841,363.573 C782.404,373.589 785.774,393.199 778.03,406.419 C774.147,413.048 768.876,418.197 760.513,417.405 C751.793,416.58 746.687,410.947 743.814,403.007 C742.379,399.039 742.023,394.925 742.018,390.757" fill="#6E4100"/>
    <path d="M645.708,529.531 C633.18,529.165 620.274,522.656 610.35,510.243 C607.153,506.245 607.212,502.484 610.502,500.246 C614.4,497.596 617.186,499.42 619.812,502.671 C629.896,515.153 645.133,520.342 658.817,516.235 C667.017,513.773 672.66,508.631 675.77,500.661 C677.719,495.667 680.523,493.887 684.211,495.213 C687.617,496.437 688.746,500.283 687.075,504.967 C681.659,520.147 667.041,529.612 645.708,529.531" fill="#6E4100"/>
    <path d="M528.654,210.502 C538.354,210.929 545.462,214.341 549.53,222.786 C551.278,226.414 551.164,229.915 547.39,231.82 C543.76,233.652 540.56,232.336 538.851,228.401 C536.699,223.444 532.435,222.255 527.732,222.694 C522.224,223.207 516.759,224.376 514.188,230.276 C512.266,234.686 509.342,236.507 505.861,234.95 C501.85,233.157 501.473,229.763 502.753,226.127 C506.013,216.864 513.801,213.359 522.456,211.186 C524.688,210.625 527.071,210.664 528.654,210.502" fill="#6E4100"/>
    <path d="M655.358,410.137 C655.226,414.947 653.458,417.62 650.032,418.899 C646.669,420.155 643.311,419.75 640.961,416.853 C638.678,414.038 636.546,411.012 634.895,407.797 C633.148,404.398 633.865,400.925 636.673,398.248 C639.315,395.729 642.751,394.941 645.836,396.816 C651.151,400.048 653.709,405.41 655.358,410.137" fill="#6E4100"/>
  </g>
</svg>
