<?xml version="1.0" encoding="UTF-8"?>
<!DOCTYPE svg PUBLIC "-//W3C//DTD SVG 1.1//EN" "http://www.w3.org/Graphics/SVG/1.1/DTD/svg11.dtd">
<svg version="1.1" xmlns="http://www.w3.org/2000/svg" xmlns:xlink="http://www.w3.org/1999/xlink" x="0" y="0" width="758" height="968" viewBox="0, 0, 758, 968">
  <defs>
    <clipPath id="Clip_1">
      <path d="M0.06,0.584 L757.654,0.584 L757.654,968 L0.06,968 z"/>
    </clipPath>
  </defs>
  <g id="Layer_1">
    <g clip-path="url(#Clip_1)">
      <path d="M680.84,592.994 C678.079,592.772 676.838,595.041 675.17,596.532 C659.925,610.166 643.814,622.286 623.126,626.419 C614.486,628.145 605.82,629.586 596.964,628.005 C588.814,626.55 582.028,623.407 579.637,614.541 C579.201,612.923 578.818,611.25 576.329,612.38 C559.925,619.821 542.54,624.042 525.042,627.881 C521.858,625.873 521.616,624.673 524.154,622.68 C525.868,621.334 527.956,620.638 529.94,619.766 C555.859,608.381 579.156,592.932 598.775,572.589 C621.51,549.016 637.938,521.319 648.641,490.308 C650.597,484.64 652.615,478.986 654.119,473.172 C655.02,469.688 657.025,467.834 660.805,467.671 C690.923,466.371 703.212,447.462 705.498,422.802 C706.469,412.329 705.822,401.832 702.355,391.691 C697.294,376.89 687.399,369.602 671.707,369.273 C665.633,369.146 664.327,367.783 664.74,362.378 C664.949,359.642 666.132,358.04 668.914,357.684 C670.07,357.536 671.196,357.219 672.277,356.756 C675.437,355.404 676.873,353.013 676.486,349.61 C676.1,346.22 674.169,344.183 670.819,343.526 C669.339,343.235 667.827,343.206 666.334,343.296 C643.501,344.678 621.584,339.623 599.921,333.417 C566.37,323.803 534.167,310.632 502.609,295.786 C481.79,285.993 461.123,275.95 441.939,263.154 C414.533,244.875 391.207,222.228 370.937,196.359 C352.882,173.317 337.695,148.496 325.101,122.077 C323.956,119.675 322.902,117.204 321.294,115.057 C319.606,112.802 317.512,111.219 314.477,111.932 C311.418,112.65 308.995,114.648 309.096,117.71 C309.282,123.344 305.398,124.569 301.44,126.037 C274.164,136.153 249.317,150.45 226.982,169.124 C204.363,188.035 186.175,210.592 171.494,236.069 C149.947,273.459 138.426,314.101 132.34,356.52 C131.801,360.282 132.467,364.62 130.188,367.643 C127.753,370.873 123.288,368.988 119.762,369.601 C109.417,371.399 101.488,376.896 97.55,386.33 C88.689,407.559 88.591,428.893 100.573,449.127 C107.982,461.639 120.245,466.69 134.244,467.508 C138.833,467.777 141.063,469.297 142.293,473.746 C148.597,496.527 158.209,517.894 170.525,538.056 C176.449,547.752 183.456,556.644 190.762,565.313 C194.234,569.433 194.009,570.432 188.964,572.15 C184.704,573.601 180.307,574.608 175.944,575.68 C171.633,576.739 169.55,575.382 169.904,571.021 C170.754,560.535 169.08,559.484 157.066,555.61 C148.423,552.822 139.515,551.585 130.445,552.304 C125.203,552.719 121.789,550.812 118.952,546.298 C106.666,526.748 96.556,506.165 88.712,484.464 C80.88,462.796 75.071,440.568 70.524,417.998 C70.326,417.015 70.183,416.028 70.289,415.019 C70.698,413.222 70.783,411.396 70.754,409.562 C70.194,375.101 74.84,341.2 82.117,307.631 C88.256,279.313 95.593,251.281 104.953,223.845 C115.764,192.154 131.88,163.411 154.254,138.357 C175.281,114.811 198.075,93.234 224.866,76.242 C235.426,69.545 246.389,63.605 258.397,59.831 C260.23,59.615 261.805,58.616 263.543,58.103 C266.332,57.421 269.179,57.73 272,57.625 C276.246,57.466 279.108,55.504 279.504,51.168 C279.873,47.132 282.354,45.009 285.444,43.135 C298.688,35.109 313.134,30.125 328.05,26.386 C349.089,21.112 370.468,18.29 392.094,16.476 C441.181,12.359 487.372,23.408 532.115,42.175 C563.801,55.464 592.818,73.325 618.828,95.843 C624.437,100.698 630.917,104.793 634.788,111.472 C636.982,132.39 632.788,151.592 619,167.987 C613.805,174.165 607.106,178.588 599.893,182.206 C595.799,184.26 595.714,184.876 598.709,188.35 C606.321,197.18 606.321,197.18 617.711,195.004 C639.048,190.926 657.898,181.241 675.745,169.283 C677.24,168.281 678.514,166.825 680.5,166.698 C682.232,167.267 683.073,168.742 683.966,170.141 C708.294,208.248 724.619,249.482 732.59,294.027 C736.731,317.167 739.333,340.493 741.212,363.894 C742.639,381.662 743.119,399.524 742.248,417.313 C739.254,478.534 722.144,535.262 687.188,586.106 C685.412,588.689 683.832,591.507 680.84,592.994" fill="#DBA76F"/>
      <path d="M515.068,853.34 C514.596,853.427 514.124,853.515 513.652,853.602 C513.265,850.932 513.136,848.193 512.444,845.605 C510.298,837.573 504.603,832.271 498.006,827.844 C494.846,825.724 491.553,823.684 488.068,822.204 C485.232,820.999 484.439,819.578 485.024,816.593 C488.953,796.554 492.274,776.407 495.328,756.216 C495.421,755.602 495.833,755.036 496.353,753.876 C512.661,785.632 521.302,818.146 515.068,853.34 z M284.113,632.008 C262.524,653.701 240.579,675.048 220.035,697.756 C218.246,699.733 217.216,699.628 215.384,697.946 C203.872,687.379 192.307,676.868 180.659,666.451 C178.44,664.466 177.736,662.368 178.045,659.472 C178.635,653.938 178.018,648.51 175.384,643.486 C174.587,641.966 174.574,640.882 176.079,639.719 C179.059,637.413 179.99,633.533 182.188,630.86 C185.158,627.247 187.47,622.728 192.012,620.523 C194.734,620.072 196.772,621.544 198.887,622.897 C204.07,626.213 209.308,629.411 215.056,631.724 C219.833,633.646 224.766,633.877 229.771,633.515 C234.265,633.189 237.486,630.699 239.885,627.041 C241.069,625.234 241.991,623.272 243.14,621.436 C244.883,618.652 247.11,617.758 250.334,618.788 C257.146,620.963 264.285,621.825 271.163,623.762 C276.161,625.513 281.159,627.263 286.082,628.988 C286.008,630.606 284.902,631.215 284.113,632.008 z M724.216,853.755 C718.717,853.732 713.219,853.75 707.719,853.75 C671.559,853.75 635.399,853.697 599.24,853.833 C595.59,853.847 594.217,853.237 594.839,849.251 C595.554,844.668 595.652,839.974 595.815,835.321 C597.204,795.872 590.123,757.859 576.401,720.966 C563.909,687.378 546.354,656.596 525.042,627.881 C521.559,625.012 523.539,623.914 526.515,622.665 C552.257,611.857 575.516,597.141 595.521,577.61 C624.826,548.999 643.703,514.212 654.869,475.093 C656.211,470.392 658.154,468.947 662.945,468.846 C682.452,468.434 697.71,456.993 703.722,438.514 C708.094,425.074 708.118,411.342 705.42,397.578 C702.007,380.168 690.09,366.631 669.525,367.917 C665.676,368.157 666.247,365.677 666.074,363.405 C665.891,361.007 665.452,358.809 669.221,358.8 C673.581,358.789 677.022,356.846 677.971,352.17 C679.204,346.104 675.186,341.711 668.397,342.04 C652.312,342.82 636.503,341.05 620.875,337.375 C563.38,323.853 509.876,300.209 458.537,271.7 C410.625,245.094 375.295,205.377 346.745,159.224 C338.153,145.335 330.692,130.84 323.733,116.075 C321.485,111.306 317.875,109.396 313.83,110.547 C309.151,111.877 306.878,115.078 307.501,119.857 C307.763,121.868 307.172,122.549 305.49,123.074 C303.588,123.668 301.739,124.433 299.875,125.148 C255.321,142.252 217.883,169.012 188.974,207.219 C153.924,253.543 137.171,306.806 130.164,363.677 C129.79,366.709 129.286,367.896 125.901,367.948 C109.384,368.202 98.775,376.08 93.607,391.88 C89.869,403.307 89.822,415.051 91.031,426.919 C93.524,451.408 110.705,468.053 135.079,468.866 C138.944,468.994 140.075,470.595 140.98,473.822 C149.012,502.451 161.392,529.019 179.144,552.956 C183.341,558.616 187.945,563.974 192.601,569.769 C186.396,571.498 180.637,573.089 174.887,574.712 C172.366,575.424 171.053,574.778 171.319,571.902 C171.457,570.415 171.214,568.892 171.364,567.408 C171.937,561.715 169.375,558.593 164.02,556.598 C152.464,552.293 140.65,549.917 128.349,550.768 C124.587,551.028 122.729,549.584 120.812,546.647 C94.535,506.386 80.515,461.543 71.297,414.886 C71.625,410.048 70.871,405.302 70.074,400.559 C66.679,380.358 64.216,360.089 64.329,339.534 C64.399,326.874 64.934,314.28 66.321,301.696 C68.977,277.594 74.201,254.106 82.389,231.269 C90.187,209.521 101.057,189.33 113.227,169.784 C128.632,145.044 146.897,122.637 168.59,103.166 C193.838,80.504 222.922,65.53 256.795,60.614 C258.739,59.89 260.78,59.712 262.82,59.532 C266.305,59.394 269.793,59.318 273.273,59.104 C277.837,58.824 281.094,56.057 280.996,51.633 C280.92,48.201 282.492,46.586 285.028,44.992 C295.834,38.199 307.602,33.662 319.764,30.073 C341.203,23.747 363.18,20.244 385.39,18.284 C403.305,16.702 421.317,16.002 439.2,18.277 C479.303,23.379 517.462,34.993 553.41,53.632 C583.133,69.044 610.273,88.037 633.996,111.765 C634.929,113.948 636.437,115.684 638.109,117.344 C652.205,131.345 664.638,146.726 675.949,163.037 C677.057,164.635 677.841,166.642 680.118,167.06 C696.784,191.76 709.558,218.367 719.03,246.584 C733.791,290.553 738.174,336.209 740.611,382.115 C741.928,406.921 740.818,431.706 736.892,456.289 C730.934,493.592 719.098,528.891 700.686,561.944 C694.694,572.701 687.691,582.795 680.839,592.994 C676.92,599.242 672.268,604.823 666.381,609.351 C661.68,612.967 660.852,617.837 664.051,621.914 C666.989,625.658 672.042,626.042 676.514,622.784 C682.081,618.728 686.872,613.837 690.81,608.231 C703.534,590.12 715.549,571.582 725.031,551.494 C748.921,500.877 758.854,447.499 757.539,391.717 C756.741,357.856 753.833,324.187 747.598,290.96 C730.23,198.409 683.942,123.333 607.868,67.764 C547.739,23.843 480.411,-0.556 405.091,0.625 C373.859,1.115 343.099,5.562 313.118,14.638 C297.291,19.43 281.678,25.007 269.097,36.122 C263.974,40.648 258.974,42.977 252.204,43.713 C221.25,47.075 194.049,59.901 169.773,78.844 C122.766,115.524 90.35,163.294 68.289,217.975 C46.264,272.569 41.6,329.58 49.872,387.691 C58.186,446.088 72.939,502.384 104.921,552.911 C105.973,554.572 106.362,555.435 104.086,556.566 C86.403,565.354 76.121,580.137 70.799,598.685 C69.904,601.806 68.398,603.188 65.318,603.982 C48.414,608.339 31.539,612.816 14.71,617.458 C4.621,620.241 -2.089,631.522 0.594,640.613 C3.379,650.052 15.121,655.79 25.329,652.69 C28.506,651.725 31.672,650.722 34.843,649.736 C36.259,649.555 37.769,649.845 39.05,648.893 C39.402,649.084 39.67,648.01 39.939,648.76 C39.861,648.705 39.747,648.682 39.58,648.782 C38.341,649.324 37.075,649.892 36.003,650.803 C31.989,652.394 27.903,653.828 23.977,655.612 C16.875,658.839 12.536,666.893 13.08,675.371 C13.47,681.444 18.466,687.234 25.56,689.449 C30.643,691.036 35.666,690.796 40.622,688.501 C50.42,683.965 60.296,679.599 70.143,675.169 C77.381,671.912 77.5,671.836 81.973,678.51 C83.461,680.729 86.733,682.281 85.882,685.562 C84.767,689.865 86.6,692.859 89.212,695.921 C111.066,721.547 134.009,746.11 159.732,767.929 C173.589,779.684 188.025,790.637 205.171,797.352 C217.527,802.191 229.298,801.809 240.953,794.638 C256.926,784.81 271.314,773.038 285.089,760.441 C292.408,753.747 299.549,746.86 307.264,739.596 C310.617,762.033 313.871,783.8 317.172,805.883 C313.48,805.193 310.283,803.647 307.044,804.856 C304.094,805.957 301.388,805.538 298.387,805.025 C285.128,802.758 278.298,806.86 274.072,819.307 C273.645,820.567 272.776,821.164 271.944,821.926 C268.678,824.916 266.822,828.824 267.177,833.031 C267.757,839.887 267.037,846.696 267.275,853.751 C265.457,853.751 263.633,853.75 261.809,853.75 C203.153,853.75 144.497,853.75 85.841,853.753 C84.175,853.753 82.478,853.591 80.85,853.847 C76.766,854.49 74.257,856.823 73.916,861.097 C73.419,867.335 76.852,870.385 84.498,870.387 C146.32,870.401 208.142,870.394 269.964,870.394 C271.694,870.394 273.423,870.394 275.152,870.394 C269.553,871.674 267.749,875.047 267.824,880.32 C267.992,891.982 267.989,903.65 267.839,915.313 C267.733,923.505 270.869,930.19 276.57,935.809 C284.317,943.443 293.819,948.177 303.847,951.953 C326.015,960.301 349.126,964.018 372.638,965.345 C410.788,967.499 448.472,965.253 484.863,952.208 C486.722,951.541 488.07,951.048 488.798,953.757 C490.46,959.94 495.247,962.299 501.123,962.905 C506.491,963.458 511.734,962.623 516.909,961.177 C518.596,960.706 520.259,959.975 521.775,962.032 C526.237,968.087 532.54,968.882 539.262,967.281 C550.854,964.521 560.924,958.899 569.216,950.275 C578.976,940.124 583.636,928.124 582.197,913.949 C581.98,911.807 582.008,909.752 582.718,907.574 C586.272,896.661 589.387,885.615 591.243,874.266 C591.719,871.357 592.887,870.278 596.065,870.307 C615.727,870.482 635.391,870.394 655.054,870.394 C678.049,870.394 701.045,870.416 724.041,870.381 C730.859,870.37 734.15,867.605 734.179,862.106 C734.209,856.478 731.015,853.784 724.216,853.755" fill="#6E4100"/>
    </g>
    <path d="M40.375,649.111 C39.069,650.065 37.612,650.631 36.003,650.803 C35.616,650.447 35.229,650.092 34.843,649.736 C36.031,648.595 37.643,648.535 39.097,648.072 C39.536,648.402 40.188,648.471 40.375,649.111" fill="#DBD1C6"/>
    <path d="M71.297,414.886 C67.381,393.432 63.935,371.923 63.149,350.07 C59.937,260.726 90.924,184.28 150.701,118.861 C171.141,96.491 194.871,78.477 223.577,67.728 C234.374,63.686 245.476,60.934 256.983,59.923 C258.039,59.447 259.011,59.127 258.862,60.92 C234.953,69.415 214.303,83.309 195.342,99.811 C171.661,120.421 149.498,142.433 132.53,169.19 C116.044,195.186 105.29,223.518 97.238,253.048 C88.967,283.378 81.166,313.791 76.652,344.97 C73.521,366.595 71.747,388.281 72.061,410.133 C72.084,411.746 72.691,413.487 71.297,414.886" fill="#FEFEFE"/>
    <path d="M663.112,323.946 C656.897,322.635 649.937,320.417 643.042,318.003 C609.405,306.227 579.156,288.272 550.942,266.801 C509.426,235.206 473.635,198.124 444.789,154.514 C443.78,152.988 442.747,151.466 441.884,149.857 C439.419,145.263 440.523,140.584 444.562,138.142 C448.64,135.677 453.266,136.754 456.189,141.27 C464.156,153.577 472.569,165.56 481.936,176.837 C524.055,227.544 573.138,269.438 633.884,296.49 C643.618,300.825 653.718,304.166 664.012,306.915 C665.136,307.215 666.276,307.488 667.357,307.908 C671.447,309.494 673.648,313.345 672.847,317.4 C672.043,321.467 668.542,324.099 663.112,323.946" fill="#6E4100"/>
    <path d="M633.996,111.765 C651.668,128.279 666.764,146.941 680.117,167.059 C679.352,167.906 678.718,168.947 677.8,169.569 C656.928,183.717 634.721,194.613 609.296,197.736 C606.537,198.075 604.562,197.566 602.838,195.283 C600.738,192.502 598.471,189.812 596.013,187.345 C593.281,184.602 593.908,183.38 597.298,181.89 C614.667,174.256 625.656,161.032 631.032,142.904 C634.062,132.687 634.167,122.254 633.996,111.765" fill="#FEFEFE"/>
    <path d="M258.862,60.92 C258.571,59.956 257.587,60.299 256.983,59.923 C258.871,58.923 260.812,58.696 262.822,59.531 C261.585,60.235 260.406,61.098 258.862,60.92" fill="#BAA58D"/>
    <path d="M151.183,442.915 C145.397,411.926 143.814,380.852 149.027,349.597 C154.948,314.096 164.996,279.941 182.359,248.243 C211.089,195.792 254.048,159.928 309.965,139.191 C314.322,137.575 316.078,138.481 318.177,142.546 C340.404,185.568 369.038,223.641 405.868,255.362 C428.501,274.857 454.092,289.557 480.803,302.542 C521.524,322.337 563.04,340.063 607.033,351.384 C619.285,354.536 631.66,357.146 644.3,358.089 C647.828,358.352 648.98,359.611 649.268,363.175 C650.717,381.153 650.583,399.094 648.838,417.034 C647.905,418.223 649.388,420.56 647.568,420.956 C645.724,421.357 644.835,419.351 643.99,417.965 C631.748,397.891 597.774,390.046 579.87,396.757 C562.155,403.398 544.146,426.463 544.533,445.068 C544.828,459.229 550.557,471.873 559.349,483.066 C569.425,495.894 582.531,502.313 598.831,501.593 C609.07,501.141 618.321,497.589 626.427,491.189 C628.328,489.688 629.99,487.559 632.878,487.984 C614.961,537.247 583.446,574.792 536.813,599.237 C505.885,615.45 472.626,623.471 438.117,627.059 C403.487,630.659 368.997,629.782 334.663,623.944 C306.287,619.12 279.168,610.544 253.925,596.485 C252.918,595.925 251.967,595.266 250.375,594.267 C259.122,590.35 267.382,586.634 275.657,582.953 C280.209,580.928 284.867,579.087 288.673,575.738 C293.5,571.489 294.224,567.109 290.787,561.652 C290.008,560.416 289.878,559.339 289.813,557.987 C289.516,551.798 285.954,548.34 279.676,547.97 C275.803,547.742 272.078,548.588 268.372,549.586 C250.881,554.3 233.376,558.963 215.902,563.739 C213.124,564.498 211.101,564.388 208.881,562.053 C187.93,540.017 172.557,514.629 162.582,485.937 C165.799,484.779 167.319,487.48 169.412,488.917 C187.168,501.099 206.627,506.865 226.799,497.454 C244.675,489.115 256.113,473.991 258.524,453.74 C259.845,442.641 255.621,432.359 250.39,422.798 C243.03,409.344 232.87,399.083 217.138,395.548 C200.848,391.889 186.873,396.557 174.501,406.95 C164.301,415.518 157.276,426.251 153.804,439.225 C153.42,440.661 153.507,442.729 151.183,442.915" fill="#FEF8EA"/>
    <path d="M314.128,649.823 C313.826,637.245 313.817,637.295 322.496,638.846 C330.189,640.221 337.881,641.64 345.622,642.674 C348.222,643.022 349.707,644.032 351.167,646.099 C359.521,657.927 368.014,669.657 376.497,681.393 C381.731,688.634 387.618,688.647 392.853,681.427 C395.686,677.519 398.447,673.557 401.145,669.555 C402.492,667.556 403.438,667.68 404.703,669.648 C407.763,674.409 410.896,679.123 414.099,683.789 C418.318,689.937 425.251,689.919 429.108,683.567 C436.964,670.627 444.661,657.591 452.291,644.516 C453.211,642.939 453.987,642.098 455.904,641.819 C468.251,640.025 480.497,637.669 492.492,634.195 C495.651,633.28 496.193,634.243 495.773,637.22 C487.597,695.188 479.673,753.193 469.196,810.811 C468.532,814.463 467.243,814.482 464.343,813.723 C432.098,805.285 399.361,804.038 366.265,806.537 C357.777,807.178 349.463,808.287 341.177,809.985 C336.882,810.866 334.724,809.299 334.032,804.835 C327.838,764.887 321.838,724.911 317.329,684.732 C315.882,671.837 314.947,658.885 314.128,649.823" fill="#68B2FE"/>
    <path d="M120.895,705.882 C143.523,708.921 159.303,699.121 171.334,680.937 C175.199,684.456 178.903,687.893 182.679,691.25 C192.258,699.765 201.833,708.285 211.48,716.722 C217.699,722.161 221.685,721.694 227.048,715.466 C248.48,690.584 272.186,667.885 295.272,644.591 C295.575,644.285 296.067,644.167 296.808,643.789 C297.871,655.733 298.798,667.415 299.983,679.071 C301.092,689.993 302.319,700.91 303.814,711.785 C304.4,716.048 303.69,719.095 300.42,722.333 C282.073,740.5 263.658,758.559 242.497,773.529 C240.191,775.161 237.649,776.48 235.45,778.238 C226.136,785.682 216.574,784.698 206.539,779.75 C191.914,772.538 179.254,762.589 167.03,752.02 C151.396,738.504 136.927,723.785 122.921,708.606 C122.278,707.91 121.78,707.082 120.895,705.882" fill="#FEFEFE"/>
    <path d="M571.688,885.43 C563.107,874.1 553.044,865.938 540.809,860.439 C537.856,859.112 533.397,859.414 532.215,856.369 C531.207,853.772 532.671,850.227 532.998,847.097 C537.311,805.784 525.129,768.608 504.166,733.773 C501.161,728.778 500.078,724.284 500.98,718.484 C505.014,692.554 508.578,666.552 512.476,639.435 C539.074,675.168 558.517,713.466 569.897,755.725 C581.398,798.434 582.614,841.376 571.688,885.43" fill="#FEFEFE"/>
    <path d="M151.183,442.915 C154.156,433.945 156.92,424.887 162.899,417.284 C174.432,402.614 188.602,392.618 208.076,393.064 C223.037,393.407 235.13,399.878 244.515,411.648 C252.478,421.634 257.613,432.867 259.583,445.378 C261.713,458.903 256.778,470.561 248.492,480.934 C242.668,488.226 236.295,494.964 227.572,498.966 C215.261,504.613 202.682,503.879 190.089,500.397 C181.388,497.991 173.044,494.719 166.476,488.066 C165.481,487.059 163.896,486.633 162.583,485.938 C157.397,471.963 153.485,457.652 151.183,442.915" fill="#FFD5BA"/>
    <path d="M632.878,487.984 C625.231,493.884 617.488,499.461 607.731,501.633 C590.01,505.578 574.701,501.115 562.117,488.353 C552.579,478.68 547.057,466.614 544.067,453.383 C541.709,442.947 543.759,433.127 549.021,424.16 C556.723,411.033 566.218,399.355 581.648,395.03 C600.723,389.683 618.056,394.793 634.022,405.552 C639.583,409.299 643.671,414.53 647.133,420.715 C647.828,419.213 648.333,418.123 648.838,417.033 C646.527,441.361 641.737,465.13 632.878,487.984" fill="#FFD5BA"/>
    <path d="M130.998,567.069 C137.981,567.127 143.583,567.966 149.027,569.529 C151.059,570.113 154.641,569.631 154.638,572.451 C154.635,576.128 154.142,580.382 149.806,582.093 C146.885,583.246 143.817,584.056 140.771,584.855 C137.878,585.614 134.934,586.186 132.004,586.793 C127.466,587.735 124.957,590.508 124.971,595.124 C124.985,599.791 127.679,602.383 132.154,603.352 C137.511,604.512 142.895,605.592 148.185,607.01 C156.64,609.276 162.449,614.485 165.316,622.925 C166.313,625.858 165.535,627.295 162.608,627.995 C159.822,628.662 157.023,628.786 154.182,628.8 C149.756,628.821 146.933,631.084 146.043,635.392 C145.104,639.939 147.318,643.446 151.843,645.076 C160.462,648.181 162.626,651.909 161.063,660.962 C158.75,674.354 146.928,686.748 134.032,689.296 C126.015,690.881 118.874,688.478 112.246,684.253 C97.859,675.081 89.382,661.844 85.839,645.289 C81.966,627.199 82.831,609.504 91.048,592.692 C99.376,575.654 113.392,567.342 130.998,567.069" fill="#FEF8EA"/>
    <path d="M281.039,898.494 C307.17,915.106 335.496,920.17 364.495,922.959 C385.744,925.002 406.998,924.925 428.207,922.763 C450.096,920.532 471.624,916.529 491.95,907.602 C492.372,907.417 492.846,907.349 493.43,907.189 C491.132,910.603 488.391,912.679 481.386,916.07 C477.797,917.808 474.14,919.417 470.455,920.943 C461.472,924.661 458.643,932.57 464.008,940.923 C466.277,944.455 464.978,944.77 461.983,945.444 C434.071,951.721 405.878,953.98 377.293,952.297 C354.284,950.943 331.674,947.804 309.878,939.998 C302.639,937.406 295.769,934.068 289.56,929.501 C283.897,925.335 280.252,920.188 280.964,912.605 C281.376,908.209 281.039,903.742 281.039,898.494" fill="#FF7164"/>
    <path d="M433.134,837.027 C435.41,837.113 437.238,835.913 439.205,835.021 C443.901,832.891 448.163,833.892 451.627,837.736 C454.98,841.456 459.248,842.271 463.923,841.346 C469.846,840.173 474.826,840.665 477.452,847.246 C478.202,849.125 480.258,849.899 482.424,850.07 C484.904,850.265 487.415,850.496 489.821,851.087 C493.326,851.948 495.581,854.191 496.293,857.889 C496.938,861.235 494.112,862.143 492.265,863.426 C479.14,872.541 464.043,876.597 448.685,879.704 C428.212,883.847 407.46,885.081 386.605,884.728 C380.082,884.618 380.139,884.563 381.558,878.074 C384.753,863.461 388.029,848.862 390.946,834.192 C391.684,830.481 393.592,829.051 396.906,828.952 C401.372,828.819 405.847,828.512 410.064,830.784 C412.723,832.216 415.851,832.87 418.791,832.322 C423.062,831.526 426.234,832.779 428.81,836.072 C428.367,838.908 425.63,837.788 424.131,838.806 C413.402,842.515 408.538,850.141 410.671,859.938 C412.328,867.549 418.586,872.911 426.51,873.509 C433.909,874.068 440.909,869.511 443.643,862.355 C446.434,855.053 444.16,846.899 438.067,842.225 C436.369,840.922 434.196,840.255 432.927,838.377 C432.663,837.875 432.733,837.425 433.134,837.027" fill="#FEFEFE"/>
    <path d="M509.025,944.872 C510.429,943.068 511.662,941.902 512.382,940.477 C514.324,936.634 513.859,932.991 510.534,930.109 C507.196,927.215 503.332,927.113 500.046,929.844 C495.575,933.56 490.512,934.072 484.762,933.22 C486.966,932.103 489.184,931.013 491.372,929.865 C508.788,920.724 519.94,907.433 520.29,886.771 C520.37,882.071 519.09,878.524 514.421,877.037 C512.607,876.459 512.02,875.759 512.306,873.898 C512.644,871.698 513.929,871.341 515.822,871.443 C539.057,872.699 563.218,891.522 565.662,915.953 C566.389,923.222 564.198,929.734 559.791,935.52 C554.404,942.592 545.417,948.363 536.372,950.564 C535.512,940.228 531.078,937.699 521.419,941.804 C517.658,943.402 513.93,945.448 509.025,944.872" fill="#FEF8EA"/>
    <path d="M288.555,872.73 C309.87,886.755 333.03,891.799 356.722,894.674 C389.659,898.672 422.52,897.887 455.066,890.911 C471.064,887.482 486.56,882.623 500.564,872.829 C501.466,877.239 500.928,881.466 500.954,885.639 C500.969,888.036 498.619,888.739 497.027,889.751 C485.364,897.17 472.424,901.43 459.042,904.252 C411.708,914.231 364.563,913.941 317.773,900.879 C309.113,898.462 300.892,894.908 293.123,890.273 C289.761,888.268 287.958,885.992 288.487,881.899 C288.845,879.135 288.555,876.287 288.555,872.73" fill="#FEFEFE"/>
    <path d="M690.419,414.906 C690.176,420.874 689.861,427.018 687.961,432.948 C684.454,443.891 675.785,450.919 664.715,452.034 C661.699,452.338 660.556,451.941 661.25,448.453 C665.158,428.821 667.211,408.979 666.902,388.951 C666.846,385.329 668.151,384.391 671.405,384.468 C678.788,384.643 684.085,387.766 687.058,394.691 C689.815,401.114 690.108,407.915 690.419,414.906" fill="#FEF8EA"/>
    <path d="M107.048,414.552 C107.273,407.396 107.809,400.309 110.964,393.678 C113.939,387.427 118.999,384.736 125.715,384.466 C128.329,384.361 129.086,385.308 129.113,387.902 C129.322,408.21 130.937,428.4 135.009,448.326 C135.826,452.323 133.984,452.324 131.084,451.834 C118.81,449.761 110.495,441.011 108.176,427.457 C107.448,423.201 106.834,418.91 107.048,414.552" fill="#FEF8EA"/>
    <path d="M271.163,623.762 C263.936,623.992 257.015,622.357 250.29,619.981 C247.3,618.925 245.498,619.051 244.148,622.282 C238.65,635.434 229.954,638.271 214.126,632.745 C208.642,630.83 203.724,627.655 198.872,624.444 C196.68,622.993 194.702,621.115 192.01,620.524 C204.256,615.012 216.5,609.501 228.744,603.99 C230.25,603.312 231.647,602.481 233.393,603.657 C245.282,611.67 258.288,617.595 271.163,623.762" fill="#DBA76F"/>
    <path d="M375.977,841.216 C375.66,842.896 375.313,844.683 374.987,846.473 C374.4,849.691 372.954,850.958 369.504,849.623 C366.015,848.272 362.328,848.588 358.78,849.795 C356.302,850.638 354.378,850.579 353.295,847.623 C352.543,845.572 351.006,843.677 349.118,842.814 C343.213,840.116 343.877,835.519 345.082,830.638 C347.942,819.062 359.113,815.547 368.03,823.395 C373.367,828.092 375.24,834.316 375.977,841.216" fill="#DCA56B"/>
    <path d="M296.411,860.206 C292.34,859.199 289.707,856.763 288.582,852.709 C287.814,849.942 286.394,847.869 283.155,847.791 C282.342,847.772 281.028,847.606 281.337,846.673 C282.708,842.537 279.419,839.423 279.193,835.688 C279.059,833.475 279.066,831.435 282.016,830.722 C285.516,829.876 286.598,827.178 286.241,823.816 C285.961,821.178 286.097,818.559 288.973,817.557 C291.775,816.58 295.001,815.862 297.502,817.984 C299.694,819.844 300.497,822.256 299.362,825.54 C297.143,831.959 297.176,838.729 299.385,845.124 C300.685,848.885 301.028,851.905 298.439,855.165 C297.373,856.506 297.081,858.461 296.411,860.206" fill="#82D700"/>
    <path d="M323.468,818.261 C326.575,818.639 329.608,819.364 332.186,821.422 C333.595,822.547 334.366,823.695 333.727,825.683 C332.554,829.331 331.907,833.103 332.152,836.969 C332.264,838.742 331.522,839.661 329.749,840.112 C324.602,841.422 319.49,842.872 314.374,844.299 C313.366,844.58 312.429,844.874 311.879,843.62 C309.481,838.152 309.488,832.674 311.769,827.169 C313.765,822.348 317.234,819.346 322.418,818.421 C322.744,818.363 323.073,818.321 323.468,818.261" fill="#DCA56A"/>
    <path d="M66.519,617.345 C68.233,622.819 66.492,625.424 61.182,626.991 C48.918,630.609 36.846,634.876 24.697,638.878 C24.223,639.034 23.74,639.164 23.271,639.332 C19.505,640.681 15.126,641.023 13.915,636.79 C12.735,632.666 16.491,630.697 20.424,629.672 C35.82,625.657 51.169,621.466 66.519,617.345" fill="#FF7163"/>
    <path d="M32.089,677.094 C29.625,676.854 26.857,676.455 26.471,673.822 C26.039,670.878 27.666,668.363 30.678,667.198 C38.732,664.084 46.797,660.999 54.862,657.911 C58.894,656.367 62.942,654.863 66.967,653.299 C68.577,652.674 70.375,651.865 70.724,654.441 C70.989,656.403 73.863,658.823 70.341,660.429 C58.25,665.946 46.114,671.367 33.981,676.792 C33.399,677.052 32.679,677.007 32.089,677.094" fill="#FF7163"/>
    <path d="M397.463,645.669 C392.828,652.224 388.93,657.739 384.654,663.787 C380.189,657.596 375.969,651.742 371.589,645.669 C380.349,645.669 388.377,645.669 397.463,645.669" fill="#FDFDFD"/>
    <path d="M432.808,644.681 C428.736,651.552 425.239,657.454 421.324,664.061 C417.271,658.088 413.45,652.456 409.108,646.058 C416.972,645.601 424.325,645.174 432.808,644.681" fill="#FDFDFD"/>
    <path d="M343.364,876.886 C340.697,877.047 339.369,876.271 338.85,874.398 C338.321,872.489 339.156,870.876 340.851,870.375 C348.466,868.124 356.135,866.046 363.814,864.019 C365.648,863.535 367.097,864.518 367.775,866.246 C368.5,868.099 367.666,869.857 366.009,870.367 C358.263,872.751 350.436,874.875 343.364,876.886" fill="#FDE100"/>
    <path d="M339.931,854.984 C330.479,855.875 326.843,866.036 317.515,866.448 C315.018,866.558 312.662,867.295 311.817,864.345 C310.975,861.405 313.056,860.29 315.581,859.611 C322.162,857.842 328.704,855.931 335.279,854.139 C336.498,853.807 337.819,853.393 339.931,854.984" fill="#FCE000"/>
    <path d="M457.83,824.522 C461.875,825.687 464.876,826.551 467.877,827.416 C467.754,827.848 467.632,828.281 467.509,828.713 C464.211,828.619 460.25,831.054 457.83,824.522" fill="#F1EEEB"/>
    <path d="M429.201,819.785 C432.787,819.738 436.282,820.283 439.852,821.233 C435.592,825.122 431.908,821.957 428.11,820.694 C427.989,819.809 428.191,819.312 429.201,819.785" fill="#F5F3F0"/>
    <path d="M419.267,818.665 C421.177,818.809 423.086,818.953 424.996,819.097 C425.351,819.264 425.471,819.437 425.36,819.616 C425.247,819.798 425.133,819.889 425.016,819.889 C421.732,819.882 418.437,820.559 415.166,819.728 C415.986,817.263 417.843,818.799 419.267,818.665" fill="#E9E4DE"/>
    <path d="M484.903,834.245 C487.297,835.668 488.594,836.439 490.34,837.477 C487.405,838.764 486.008,838.11 484.903,834.245" fill="#E9E4DD"/>
    <path d="M423.841,837.715 C425.162,836.152 427.49,837.636 428.81,836.072 C430.251,836.39 431.693,836.709 433.134,837.027 C433.063,837.309 433.037,837.595 433.058,837.885 C429.946,839.986 426.87,840.151 423.841,837.715" fill="#AD967A"/>
    <path d="M419.267,818.665 C417.939,819.172 416.255,818.3 415.166,819.728 C414.368,819.371 413.569,819.013 411.492,818.083 C415.099,817.884 417.222,817.528 419.267,818.665" fill="#C3B3A0"/>
    <path d="M190.136,606.257 C189.166,607.411 188.114,608.372 186.219,608.11 C187.139,606.267 188.741,606.431 190.136,606.257" fill="#B85833"/>
    <path d="M174.048,588.924 C175.25,587.52 176.89,587.813 179.011,587.59 C177.411,589.448 175.49,589.126 173.999,589.77 C173.689,589.563 173.593,589.369 173.711,589.187 C173.824,589.012 173.936,588.924 174.048,588.924" fill="#D9634A"/>
    <path d="M178.684,611.892 C179.97,609.17 181.656,609.362 183.491,608.583 C182.506,611.066 180.807,610.848 178.684,611.892" fill="#D06043"/>
    <path d="M170.052,590.876 C168.932,591.368 167.913,592.427 166.455,591.522 C167.155,589.735 168.69,590.035 170.053,589.948 C170.392,590.154 170.504,590.36 170.391,590.567 C170.279,590.773 170.166,590.876 170.052,590.876" fill="#F86E5E"/>
    <path d="M44.279,646.332 C45.38,646.022 46.481,645.713 48.312,645.199 C46.893,647.197 45.633,647.212 44.279,646.332" fill="#F2F0EC"/>
    <path d="M425.016,819.889 C424.992,819.626 424.986,819.361 424.996,819.097 C426.464,818.926 427.918,818.832 429.201,819.785 C428.838,820.088 428.474,820.391 428.11,820.694 C427.079,820.426 426.048,820.157 425.016,819.889" fill="#DCD4CA"/>
    <path d="M40.375,649.111 C39.949,648.765 39.523,648.418 39.097,648.072 C40.119,648.06 41.322,646.344 42.059,647.87 C42.781,649.365 41.066,648.823 40.375,649.111" fill="#E0D8CF"/>
    <path d="M170.052,590.876 C170.053,590.566 170.053,590.257 170.053,589.948 C171.261,589.123 172.602,588.817 174.048,588.924 C174.029,589.206 174.013,589.488 173.999,589.77 C172.683,590.138 171.368,590.507 170.052,590.876" fill="#F86E5E"/>
    <path d="M184.002,585.921 C183.356,587.046 182.554,587.511 181.585,587.065 C181.529,587.04 181.63,586.349 181.748,586.318 C182.485,586.13 183.248,586.042 184.002,585.921" fill="#B65730"/>
    <path d="M301.602,373.151 C301.294,379.838 299.218,385.897 295.209,391.203 C285.963,403.442 270.31,401.775 264.047,387.707 C259.081,376.554 260.204,365.286 265.091,354.387 C266.36,351.556 266.606,349.559 264.755,346.853 C261.488,342.077 260.56,336.417 260.244,330.733 C260.022,326.751 261.623,323.75 266.009,323.54 C270.046,323.347 272.027,325.661 272.246,329.675 C272.354,331.659 272.609,333.667 273.089,335.592 C274.018,339.317 274.651,342.814 280.42,341.699 C284.829,340.846 288.679,343.836 291.618,347.21 C298.085,354.632 301.243,363.374 301.602,373.151" fill="#6E4100"/>
    <path d="M536.002,374.211 C535.87,379.181 534.875,385.053 531.609,390.298 C524.605,401.546 511.264,402.493 502.737,392.398 C493.472,381.429 492.998,365.73 501.881,352.003 C503.674,349.232 503.894,347.327 502.142,344.536 C500.031,341.173 498.607,337.397 497.811,333.443 C497.09,329.859 498.058,326.951 501.781,326.026 C505.466,325.11 508.297,326.421 509.375,330.488 C509.884,332.407 510.697,334.247 511.385,336.117 C512.628,339.498 514.221,341.928 518.622,341.954 C522.826,341.98 525.82,345.058 528.334,348.284 C533.167,354.487 536.039,363.838 536.002,374.211" fill="#6E4100"/>
    <path d="M456.181,513.543 C456.247,516.915 454.8,519.086 451.798,520.243 C448.306,521.587 445.108,520.554 443.573,517.558 C441.14,512.809 438.293,513.743 434.394,515.301 C414.349,523.311 393.828,526.958 372.48,520.981 C362.894,518.297 354.236,513.827 346.93,506.986 C342.653,502.98 342.132,499.01 345.202,495.669 C348.186,492.421 352.305,492.835 356.55,496.612 C369.065,507.743 384.035,510.897 400.212,509.605 C410.729,508.766 420.733,505.683 430.543,501.889 C433.253,500.842 434.798,499.705 433.449,496.47 C432.836,495.002 432.949,493.201 432.868,491.545 C432.651,487.103 434.995,484.521 439.22,484.125 C443.301,483.744 446.085,486.127 446.59,490.053 C447.511,497.221 450.402,503.408 454.684,509.071 C455.725,510.448 456.32,511.96 456.181,513.543" fill="#6E4100"/>
    <path d="M304.073,225.855 C304.003,229.017 302.863,231.134 300.179,232.024 C297.178,233.018 294.263,232.478 292.928,229.455 C290.545,224.058 286.378,221.971 280.928,222.626 C275.089,223.328 269.368,224.595 267.146,231.361 C266.04,234.731 263.377,235.824 260.018,235.065 C256.681,234.312 255.506,231.86 255.673,228.73 C255.847,225.467 257.301,222.658 259.356,220.165 C266.891,211.025 283.712,207.644 294.103,213.248 C299.335,216.07 302.729,220.386 304.073,225.855" fill="#6E4100"/>
    <path d="M395.351,376.552 C397.984,376.723 400.382,377.129 401.851,379.14 C404.088,382.204 406.368,385.308 408.054,388.683 C409.951,392.48 408.241,396.884 404.67,398.973 C401.117,401.052 396.474,400.358 393.931,397.062 C391.912,394.446 389.967,391.699 388.475,388.763 C385.614,383.133 389.503,376.686 395.351,376.552" fill="#6E4100"/>
    <path d="M412.859,730.484 C412.894,736.398 407.68,741.688 401.743,741.762 C395.78,741.836 390.583,736.707 390.491,730.659 C390.401,724.658 395.488,719.504 401.574,719.429 C407.548,719.355 412.823,724.523 412.859,730.484" fill="#6E4100"/>
    <path d="M401.431,798.471 C395.156,798.255 390.33,793.268 390.496,787.173 C390.664,781.022 395.663,776.285 401.901,776.366 C407.954,776.445 413.01,781.654 412.855,787.653 C412.699,793.718 407.46,798.679 401.431,798.471" fill="#6E4100"/>
    <path d="M423.841,837.715 C426.914,837.771 429.986,837.828 433.058,837.885 C440.413,840.817 445.282,845.824 446.09,853.989 C446.8,861.176 444.224,867.072 438.341,871.295 C432.019,875.832 423.637,876.003 417.258,871.687 C410.543,867.144 407.963,860.616 409.075,852.678 C410.11,845.291 415.76,839.679 423.841,837.715" fill="#6E4100"/>
    <path d="M431.083,856.174 C430.786,858.251 429.582,859.788 427.273,859.634 C425.282,859.5 424.018,858.088 423.996,855.989 C423.971,853.532 425.613,852.321 427.764,852.432 C429.662,852.531 431.086,853.778 431.083,856.174" fill="#FB2500"/>
  </g>
</svg>
