<?xml version="1.0" encoding="UTF-8"?>
<!DOCTYPE svg PUBLIC "-//W3C//DTD SVG 1.1//EN" "http://www.w3.org/Graphics/SVG/1.1/DTD/svg11.dtd">
<svg version="1.1" xmlns="http://www.w3.org/2000/svg" xmlns:xlink="http://www.w3.org/1999/xlink" x="0" y="0" width="1024" height="1040" viewBox="0, 0, 1024, 1040">
  <defs>
    <clipPath id="Clip_1">
      <path d="M0.06,0.37 L1023.6,0.37 L1023.6,1040 L0.06,1040 z"/>
    </clipPath>
  </defs>
  <g id="Layer_1">
    <g clip-path="url(#Clip_1)">
      <path d="M629.297,625.67 C641.603,635.608 653.913,645.542 666.214,655.485 C672.897,660.887 673.347,664.349 668.1,671.764 C681.231,678.813 694.979,684.068 709.415,687.459 C729.966,692.286 750.591,692.789 771.255,688.03 C772.732,687.69 774.117,687.524 775.094,686.105 C778.464,681.214 783.096,677.697 788.339,674.442 C782.032,667.895 779.052,660.26 780.91,651.297 C782.917,641.616 789.378,635.308 797.575,630.548 C806.775,625.206 816.631,621.863 827.359,621.774 C829.917,621.752 831.208,620.819 832.365,618.669 C837.801,608.569 843.377,598.544 848.933,588.509 C849.84,586.871 850.606,585.666 848.761,583.815 C828.252,563.241 826.245,538.951 834.868,512.669 C840.189,496.453 848.846,481.837 857.027,466.996 C867.139,448.652 877.119,430.235 887.319,411.94 C893.162,401.46 904.695,396.877 915.894,400.205 C926.47,403.348 933.754,413.761 933.146,424.891 C932.915,429.126 931.52,432.978 929.474,436.68 C919.589,454.568 909.77,472.493 899.928,490.405 C899.368,491.424 898.71,492.406 898.282,493.478 C897.862,494.531 896.121,495.852 898.238,496.729 C899.718,497.341 900.04,495.683 900.566,494.732 C906.118,484.701 911.657,474.662 917.19,464.62 C922.162,455.597 927.075,446.54 932.1,437.546 C939.22,424.804 953.589,420.384 965.791,427.104 C977.73,433.679 981.874,448.122 975.044,460.803 C965.033,479.39 954.685,497.794 944.6,516.342 C943.777,517.854 940.996,520.114 943.191,521.275 C945.857,522.685 946.108,518.913 946.991,517.327 C957.261,498.881 967.325,480.321 977.544,461.848 C982.609,452.693 992.39,447.714 1002.14,449.048 C1012.06,450.405 1020.32,457.403 1022.64,467.007 C1023.95,472.386 1024.23,478.06 1021.45,483.097 C1004.46,513.765 989.11,545.378 969.761,574.68 C960.083,589.337 947.69,601.378 930.749,607.672 C920.362,611.53 909.607,612.159 898.801,610.008 C894.782,609.208 892.766,610.046 890.868,613.884 C886.523,622.666 881.501,631.112 876.781,639.71 C876.036,641.068 874.863,642.174 876.477,644.048 C887.276,656.587 888.662,671.921 887.932,687.347 C886.663,714.174 877.25,738.322 861.078,759.676 C846.108,779.442 826.525,787.693 801.909,781.437 C799.033,780.706 798.446,782.058 797.478,783.83 C792.699,792.581 787.932,801.338 783.103,810.062 C775.865,823.14 761.474,827.765 749.099,821.04 C736.78,814.345 732.886,799.584 739.987,786.539 C741.153,784.396 742.264,782.224 743.495,779.887 C733.649,779.887 724.214,780.147 714.798,779.842 C671.128,778.426 631.255,765.146 594.905,741.045 C588.253,736.634 584.699,738.303 583.483,746.368 C578.798,777.451 573.777,808.478 567.101,839.204 C566.406,842.402 567.301,842.892 569.974,843.747 C577.868,846.273 585.727,848.981 593.389,852.129 C597.65,853.88 601.808,854.734 606.398,854.729 C679.385,854.651 752.371,854.672 825.358,854.677 C831.541,854.677 834.294,856.718 834.456,861.386 C834.607,865.76 832.478,868.309 828.162,868.883 C826.523,869.101 824.836,868.993 823.171,868.994 C759.183,868.998 695.196,868.997 630.896,868.997 C631.248,872.081 633.027,873.927 635.277,875.684 C646.821,884.696 656.806,895.137 663.214,908.469 C675.832,934.724 670.066,963.451 648.182,985.84 C627.575,1006.92 601.971,1019.2 574.34,1027.71 C547.964,1035.84 521.005,1039.98 493.247,1040 C463.523,1040.02 434.006,1039.41 405.022,1031.83 C376.101,1024.27 348.756,1013.5 325.535,994.017 C316.131,986.126 308.033,977.078 302.512,966.058 C291.651,944.38 292.774,923.043 305.208,902.318 C312.08,890.865 321.489,881.731 332.118,873.787 C333.924,872.437 335.765,871.132 338.702,868.997 C335.706,868.997 334.12,868.997 332.534,868.997 C268.879,868.997 205.225,868.998 141.57,868.996 C133.554,868.996 130.312,866.858 130.394,861.641 C130.474,856.603 133.499,854.674 141.333,854.674 C214.487,854.674 287.64,854.665 360.793,854.703 C363.834,854.705 366.624,854.242 369.466,853.029 C381.247,847.998 393.435,844.114 405.893,841.181 C408.942,840.463 409.342,839.471 408.871,836.5 C403.923,805.285 399.165,774.04 394.381,742.799 C393.651,738.031 391.784,737.076 387.904,739.699 C343.92,769.426 295.39,782.643 242.434,779.683 C236.627,779.359 230.832,778.679 225.055,777.966 C219.315,777.257 213.605,776.298 207.053,775.327 C208.877,779.784 210.496,783.685 212.072,787.605 C217.883,802.067 212.307,816.589 198.807,822.189 C185.15,827.854 170.846,821.27 164.876,806.569 C162.063,799.642 159.214,792.729 156.471,785.774 C155.761,783.975 154.93,782.672 152.84,782.203 C136.012,778.43 124.46,767.723 115.304,753.737 C101.807,733.119 93.651,710.673 92.697,685.992 C92.227,673.82 93.413,661.633 99.577,650.665 C100.945,648.231 99.926,646.517 99.154,644.612 C84.434,608.285 69.672,571.976 54.922,535.662 C37.171,491.961 19.426,448.257 1.673,404.556 C-1.758,396.111 -0.115,392.181 8.502,389.378 C31.241,381.98 52.622,386.321 72.792,397.812 C101.905,414.399 120.974,439.8 133.749,470.127 C147.072,501.755 151.534,534.39 142.458,568.108 C140.551,575.193 137.865,581.994 134.216,588.361 C132.966,590.542 132.609,592.364 133.657,594.797 C137.072,602.727 140.31,610.737 143.429,618.789 C144.344,621.15 145.44,621.965 148.107,621.802 C162.227,620.936 175.133,624.844 186.703,632.821 C198.064,640.654 202.394,651.405 199.387,662.849 C198.208,667.333 195.593,670.931 192.42,674.4 C197.567,677.666 202.31,681.287 205.778,686.281 C206.786,687.732 208.266,687.74 209.705,688.062 C239.837,694.817 268.855,690.731 297.086,679.065 C302.441,676.852 307.808,674.646 312.762,671.529 C307.303,664.577 307.714,660.995 314.483,655.527 C326.787,645.589 339.094,635.654 351.399,625.717 C351.675,623.293 349.548,623.268 348.182,622.645 C328.979,613.885 311.077,603.069 294.927,589.408 C274.854,572.427 258.714,552.298 246.09,529.259 C236.761,512.235 229.356,494.447 224.162,475.751 C223.266,472.529 221.58,471.328 218.19,471.064 C193.083,469.111 176.694,452.589 173.971,427.577 C172.502,414.092 172.776,400.911 178.124,388.329 C183.617,375.409 193.324,367.905 207.756,367.663 C211.588,367.599 212.794,366.079 213.272,362.376 C217.231,331.703 223.858,301.662 235.403,272.86 C250.228,235.875 271.102,202.872 300.42,175.624 C319.713,157.693 341.399,143.214 365.416,132.273 C372.546,129.025 379.683,125.814 387.054,123.155 C389.122,122.41 390.373,121.289 390.619,118.916 C391.11,114.166 393.385,110.706 398.431,109.857 C403.232,109.05 406.951,111.077 409.484,116.494 C416.337,131.146 423.891,145.413 432.342,159.198 C449.325,186.9 469.305,212.222 493.187,234.302 C512.616,252.265 534.208,267.232 557.836,279.217 C594.58,297.855 632.062,314.743 671.352,327.387 C691.541,333.884 712.035,339.027 733.147,341.352 C740.271,342.136 747.467,341.474 754.628,341.633 C758.454,341.719 761.309,343.205 763.105,346.735 C764.787,350.042 764.562,353.167 762.662,356.221 C761.146,358.658 758.65,359.587 756.03,360.32 C754.145,360.848 751.912,361.089 752.264,363.995 C752.589,366.685 754.204,367.656 756.736,367.592 C778.498,367.043 790.304,384.401 792.467,403.338 C793.586,413.128 793.566,422.902 791.605,432.62 C786.964,455.615 771.522,469.466 748.092,470.994 C743.504,471.293 741.822,473.137 740.663,477.202 C730.929,511.346 714.823,542.161 691.321,568.845 C674.42,588.034 654.376,603.381 631.637,615.151 C631.193,615.381 630.743,615.598 630.296,615.822 C624.558,618.691 624.566,618.686 628.268,623.962 C628.647,624.501 628.875,625.147 629.297,625.67" fill="#6E4100"/>
      <path d="M629.297,625.67 C628.88,625.413 628.418,625.208 628.053,624.891 C625.955,623.067 623.879,621.216 621.447,619.066 C630.208,614.592 638.617,610.251 646.599,605.131 C693.004,575.371 722.119,532.831 738.18,480.804 C740.314,473.891 742.091,470.125 750.908,469.14 C775.759,466.366 789.718,449.7 791.528,424.472 C792.31,413.569 792.044,402.865 788.622,392.439 C783.439,376.649 772.148,368.259 755.691,368.803 C750.303,368.982 751.428,365.638 750.698,362.945 C749.727,359.361 752.615,359.807 754.539,359.412 C760.554,358.175 763.573,355.038 763.13,350.348 C762.653,345.292 759.049,342.583 752.696,342.87 C724.944,344.123 698.537,337.41 672.5,329.021 C624.66,313.606 578.857,293.413 535.567,267.89 C504.358,249.491 478.763,224.519 456.454,196.13 C437.442,171.936 421.684,145.746 408.789,117.82 C407.814,115.71 406.981,113.474 404.854,112.174 C402.101,110.491 399.215,110.254 396.287,111.648 C393.265,113.087 391.336,115.892 391.895,118.859 C392.617,122.695 390.629,123.258 387.986,124.224 C363.278,133.256 340.285,145.465 319.329,161.438 C291.492,182.656 269.493,208.871 252.593,239.429 C232.275,276.166 220.917,315.76 215.278,357.157 C214.808,360.611 215.378,364.721 213.665,367.356 C211.705,370.37 207.212,368.288 203.875,368.901 C192.332,371.021 183.779,377.311 179.541,388.15 C172.006,407.421 171.979,427.036 180.676,445.886 C188.1,461.979 202.164,468.904 219.333,469.755 C222.799,469.927 224.14,470.85 225.062,474.155 C233.828,505.605 247.665,534.563 268.175,560.126 C290.189,587.564 317.771,607.699 349.784,621.968 C352.982,623.394 352.966,623.431 351.397,625.718 C345.076,622.773 337.888,622.933 331.492,620.141 C329.886,619.44 329.393,621.485 328.923,622.605 C322.757,637.29 312.752,639.209 297.24,633.241 C289.745,630.357 283.287,625.571 276.65,621.136 C275.889,620.628 274.509,617.48 273.086,620.813 C260.376,607.781 244.83,597.97 232.48,584.455 C217.705,568.287 204.655,550.965 193.964,531.86 C174.583,497.229 163.081,459.836 155.249,421.171 C154.561,417.775 153.145,414.472 153.552,410.886 C154.241,408.181 154.289,405.482 153.461,402.79 C152.996,391.818 153.023,380.88 153.705,369.884 C154.489,357.262 155.297,344.674 156.92,332.123 C160.865,301.613 167.848,271.822 178.245,242.891 C189.686,211.052 204.696,180.978 225.601,154.233 C249.337,123.864 276.905,97.437 309.371,76.421 C319.165,70.081 329.569,64.786 340.6,60.833 C342.309,60.144 344.04,59.514 345.812,58.996 C349.1,58.265 352.463,58.82 355.77,58.424 C361.221,57.773 363.153,56.225 364.004,50.848 C364.709,46.395 367.877,44.435 371.245,42.578 C382.078,36.603 393.422,31.901 405.382,28.623 C431.023,21.595 457.102,17.961 483.66,16.422 C531.769,13.633 576.778,25.339 620.384,44.042 C652.942,58.006 682.268,77.177 708.686,100.788 C712.389,104.098 716.738,106.77 719.117,111.383 C723.962,133.761 713.64,168.781 686.282,181.899 C680.173,184.828 680.818,184.681 684.41,189.999 C688.819,196.527 694.175,197.144 701.249,195.798 C722.233,191.803 740.908,182.698 758.614,171.19 C760.791,169.775 762.762,167.703 765.779,168.265 C768.15,169.18 769.202,171.33 770.44,173.286 C798.059,216.936 814.241,264.616 820.753,315.735 C823.78,339.501 825.902,363.294 826.913,387.271 C829.125,439.734 820.428,490.008 799.459,538.119 C790.042,559.726 777.839,579.762 764.027,598.827 C762.695,600.666 761.496,602.859 758.712,602.87 C753.654,604.717 749.6,608.259 745.138,611.08 C727.849,622.01 709.512,629.667 688.692,629.675 C682.173,629.677 675.755,628.649 670.287,624.565 C667.1,622.185 665.008,619.065 664.269,615.14 C663.921,613.289 663.25,612.438 661.259,613.316 C651.213,617.747 640.802,621.132 630.252,624.126 C629.822,624.248 629.61,625.138 629.297,625.67" fill="#DBA76F"/>
      <path d="M758.712,602.87 C766.164,595.167 771.352,585.822 777.049,576.909 C802.271,537.445 817.091,494.141 823.087,447.84 C827.161,416.382 826.427,384.83 823.512,353.278 C820.756,323.459 817.2,293.788 809.271,264.821 C800.247,231.854 786.519,200.96 768.048,172.193 C767.268,170.979 766.825,169.406 765.249,168.821 C759.201,162.365 754.862,154.62 749.309,147.77 C740.612,137.039 731.837,126.403 721.925,116.76 C720.472,115.347 719.335,113.744 718.353,112.001 C706.624,99.392 693.093,88.89 679.134,78.957 C633.833,46.718 583.446,27.061 528.504,19.193 C505.833,15.947 483.079,17.14 460.361,19.64 C438.656,22.029 417.303,25.955 396.55,32.844 C386.728,36.104 377.303,40.233 368.574,45.863 C366.697,47.073 365.376,48.223 365.366,50.913 C365.346,56.737 362.393,59.43 356.268,59.782 C352.623,59.992 348.963,59.966 345.31,60.046 C343.022,60.665 340.6,60.751 338.415,61.781 C305.696,66.12 278.331,81.476 253.832,102.792 C225.699,127.271 204.399,157.037 186.143,189.278 C167.329,222.502 156.09,258.16 151.145,295.86 C147.692,322.192 147.57,348.609 150.454,375.029 C151.536,384.943 152.98,394.807 154.338,404.683 C154.055,406.759 155.458,408.789 154.508,410.884 C165.409,468.67 183.351,523.494 221.413,569.848 C234.78,586.129 250.017,600.445 267.027,612.848 C269.929,614.964 272.41,617.135 273.086,620.815 C271.899,629.753 265.565,632.606 258.327,627.374 C212.856,594.503 181.629,550.862 161.419,498.94 C147.779,463.894 139.613,427.468 134.193,390.347 C126.699,339.014 129.6,288.378 145.181,238.804 C160.905,188.771 187.871,145.163 223.417,106.862 C245.987,82.542 272.116,63.103 303.68,51.686 C316.6,47.013 329.916,44.333 343.561,43.121 C345.033,42.99 346.381,43.061 347.609,41.748 C358.13,30.505 371.502,23.857 385.753,18.923 C431.737,3.004 479.263,-3.268 527.397,2.445 C600.594,11.133 665.064,40.87 720.025,90.169 C779.481,143.499 816.906,209.718 831.783,288.122 C841.056,336.991 845.326,386.459 841.081,436.223 C836.334,491.864 819.298,543.512 788.382,590.289 C781.33,600.959 775.005,612.221 765.069,620.691 C763.677,621.878 762.28,623.076 760.774,624.109 C756.466,627.062 751.618,626.509 748.736,622.827 C745.958,619.278 746.725,614.132 750.55,610.845 C753.442,608.36 756.784,606.34 758.712,602.87" fill="#6E4100"/>
    </g>
    <path d="M916.999,252.867 C921.407,252.787 926.982,253.913 931.768,257.153 C934.916,259.284 935.969,258.69 937.124,255.305 C946.41,228.103 955.836,200.948 965.224,173.78 C965.82,172.053 966.312,170.269 967.109,168.637 C968.859,165.052 972.053,163.553 975.349,165.634 C992.13,176.231 1006.67,189.039 1012.48,208.93 C1017.62,226.556 1010.57,240.168 993.574,247.054 C986.891,249.762 979.914,251.191 972.77,251.892 C969.466,252.216 966.645,251.423 965.857,247.754 C965.081,244.144 967.198,242.248 970.362,241.099 C975.953,239.071 979.813,234.953 982.808,230.059 C986.083,224.709 985.517,220.148 981.385,215.465 C978.369,212.046 974.542,209.725 970.659,207.42 C967.875,205.768 966.91,206.333 965.875,209.39 C959.162,229.22 952.206,248.968 945.374,268.759 C943.971,272.823 942.573,276.867 941.644,281.114 C939.709,289.958 933.093,294.269 924.971,296.508 C916.025,298.975 907.141,298.296 898.559,294.805 C883.386,288.634 880.519,272.187 892.677,261.02 C899.132,255.091 906.989,252.841 916.999,252.867" fill="#FF7164"/>
    <path d="M718.334,486.842 C708.644,515.276 693.492,540.414 672.686,562.086 C639.879,596.259 598.887,614.87 553.102,623.52 C496.542,634.206 440.167,633.237 384.698,616.823 C319.477,597.523 273.881,556.284 248.895,492.726 C248.531,491.801 248.27,490.836 247.96,489.889 C250.427,488.733 252.112,490.495 253.812,491.647 C266.879,500.5 281.477,502.873 296.774,501.323 C304.387,500.551 311.04,496.832 316.727,491.685 C325.633,483.625 333.262,474.448 335.873,462.494 C339.879,444.149 332.463,428.874 321.165,415.144 C314.275,406.77 305.503,401.461 294.49,399.892 C280.001,397.828 267.457,401.894 256.517,411.217 C248.547,418.009 242.342,426.159 238.609,436.095 C237.975,437.784 237.946,440.805 234.584,439.891 C221.505,358.104 239.089,283.341 287.882,216.621 C315.254,179.192 352.793,154.634 396.269,138.956 C399.603,137.754 400.442,139.136 401.715,141.585 C426.821,189.897 459.233,232.281 502.587,265.793 C528.999,286.208 558.875,300.455 588.952,314.29 C623.724,330.284 659.249,344.287 696.588,353.241 C707.118,355.767 717.724,357.965 728.518,358.755 C732.549,359.05 733.918,360.444 734.222,364.275 C735.597,381.585 735.497,398.875 733.816,416.145 C733.139,423.095 732.05,430.005 731.149,436.933 C730.592,437.883 730.627,440.166 728.693,438.176 C727.634,437.087 727.375,435.509 726.796,434.132 C721.94,422.577 715.69,411.972 704.461,405.542 C688.366,396.327 672.19,396.87 656.865,407.21 C641.919,417.294 632.882,431.436 630.637,449.543 C627.942,471.281 641.408,490.337 662.965,496.81 C671.747,499.448 680.642,501.251 689.986,499.717 C698.315,498.349 705.577,495.167 711.617,489.246 C713.156,487.737 714.502,485.932 716.544,485.085 C718.15,484.418 719.252,484.715 718.334,486.842" fill="#FEF8EA"/>
    <path d="M572.192,707.854 C568.694,734.548 564.321,761.107 559.854,787.65 C557.814,799.769 555.527,811.846 553.248,824.516 C547.667,819.076 541.65,819.582 535.507,822.044 C534.121,822.599 533.28,822.609 531.955,821.722 C524.217,816.539 518.412,816.84 511.1,822.599 C508.476,824.667 505.903,826.899 504.247,829.791 C502.769,832.371 500.866,832.884 498.141,832.714 C474.98,831.275 451.966,832.754 429.087,836.5 C426.986,836.844 425.754,836.823 425.326,834.167 C418.878,794.133 412.569,754.079 407.404,713.854 C407.363,713.532 407.454,713.193 407.483,712.862 C409.702,710.835 412.473,711.283 415.087,711.275 C431.059,711.224 447.032,711.255 463.005,711.249 C487.448,711.241 511.835,709.841 536.226,708.436 C546.347,707.853 556.468,707.332 566.571,706.478 C568.572,706.309 570.591,706.287 572.192,707.854" fill="#FEFB82"/>
    <path d="M862.052,631.535 C858.168,629.695 854.667,627.736 850.947,626.37 C848.148,625.342 848.373,624.28 849.615,622.072 C855.805,611.071 861.877,600.002 867.909,588.913 C870.61,583.946 870.177,580.012 866.197,576.862 C846.276,561.09 842.741,541.707 851.062,517.342 C857.067,499.759 866.973,484.119 875.707,467.904 C884.058,452.401 892.684,437.046 901.194,421.628 C904.094,416.375 907.893,414.701 912.056,416.819 C916.585,419.123 917.538,423.315 914.576,428.726 C902.848,450.151 891.072,471.549 879.314,492.957 C875.303,500.26 876.36,504 883.574,507.99 C887.938,510.404 892.294,512.832 896.679,515.208 C903.099,518.686 907.231,517.557 910.72,511.242 C922.211,490.441 933.653,469.613 945.114,448.795 C945.755,447.631 946.36,446.443 947.059,445.315 C949.767,440.945 953.659,439.677 957.586,441.848 C961.434,443.975 962.643,448.259 960.309,452.628 C955.611,461.422 950.757,470.132 945.953,478.868 C938.748,491.971 931.507,505.054 924.328,518.171 C920.524,525.119 921.685,528.951 928.652,532.825 C933.154,535.328 937.651,537.841 942.192,540.272 C948.338,543.562 952.452,542.397 955.833,536.271 C967.712,514.747 979.541,493.196 991.359,471.639 C992.928,468.777 994.647,466.211 998.261,465.82 C1001.17,465.506 1003.52,466.53 1005.21,468.872 C1007.43,471.949 1006.96,475.015 1005.2,478.201 C995.466,495.793 985.859,513.452 976.109,531.033 C967.891,545.851 960.268,561.034 949.051,573.99 C933.798,591.609 915.639,599.228 892.561,591.263 C887.621,589.558 884.199,591.293 881.453,596.255 C874.942,608.021 868.49,619.819 862.052,631.535" fill="#FEFEFE"/>
    <path d="M113.381,634.962 C106.565,618.144 99.788,601.389 92.985,584.645 C69.247,526.221 45.501,467.8 21.756,409.379 C19.209,403.111 19.208,403.185 26,402.749 C47.154,401.394 64.92,409.801 79.976,423.408 C117.196,457.043 133.813,499.224 129.205,549.318 C128.039,561.997 123.919,574.006 116.762,584.735 C114.41,588.26 114.193,591.63 115.855,595.534 C119.821,604.846 123.443,614.305 127.384,623.629 C128.349,625.912 128.214,626.96 125.798,628.102 C121.643,630.065 117.724,632.527 113.381,634.962" fill="#FEFEFE"/>
    <path d="M539.76,974.833 C547.778,976.367 554.514,976.192 561.108,974.04 C563.2,973.358 564.229,973.832 565.308,975.942 C571.909,988.86 581.944,993.171 595.922,989.086 C607.699,985.645 617.217,978.91 623.651,968.366 C630.629,956.934 629.507,946.661 620.193,935.9 C631.734,932.99 641.715,927.905 648.353,916.785 C653.757,928.17 654.55,939.037 650.916,950.18 C646.302,964.329 636.871,974.962 625.372,983.868 C603.639,1000.7 578.604,1010.45 552.093,1016.3 C493.568,1029.21 435.762,1027.2 379.284,1005.87 C359.496,998.391 341.25,988.096 327.037,971.993 C312.887,955.961 307.028,937.969 316.336,917.294 C323.072,902.332 334.779,891.766 348.234,883.071 C373.95,866.451 402.603,857.837 432.526,852.855 C446.008,850.61 459.604,849.573 473.246,848.975 C476.275,848.843 478.508,848.93 477.643,853.074 C477.326,854.593 478.052,856.348 478.382,857.979 C479.208,862.048 477.62,863.84 473.664,862.915 C462.778,860.368 451.782,858.691 440.592,858.491 C409.88,857.94 380.941,863.94 356.107,883.115 C339.719,895.768 329.478,912.093 331.451,933.745 C333.212,953.063 344.353,966.861 359.563,977.679 C377.345,990.325 397.55,996.46 419.039,998.817 C426.825,999.671 434.63,1000.044 442.467,999.687 C443.887,999.623 445.367,999.315 446.691,1000.55 C457.954,1011.01 472.021,1013.15 486.527,1013.44 C499.805,1013.69 512.671,1011.26 524.872,1005.83 C532.125,1002.61 537.774,997.762 540.702,990.109 C542.576,985.209 542.821,980.407 539.76,974.833" fill="#FEFEFE"/>
    <path d="M234.584,439.891 C237.236,439.167 237.028,436.503 237.817,434.701 C246.458,414.976 260.431,401.567 282.236,398.242 C293.792,396.481 305.082,399.119 314.166,406.579 C329.224,418.944 337.973,434.972 338.317,454.86 C338.488,464.785 333.999,473.133 328.346,480.899 C321.899,489.758 314.425,497.687 303.607,500.858 C286.422,505.894 270.141,502.801 254.825,493.867 C252.541,492.534 250.626,490.566 247.961,489.89 C241.546,473.747 237.401,456.997 234.584,439.891" fill="#FFDBC4"/>
    <path d="M375.996,727.428 C325.095,760.536 270.424,769.881 211.276,758.87 C222.233,748.561 222.088,737.011 216.179,724.786 C214.568,721.453 212.163,718.554 209.166,716.458 C206.69,714.725 206.459,713.371 208.049,710.895 C209.605,708.472 209.302,704.788 214.243,705.899 C224.184,708.133 234.359,708.247 244.529,707.909 C271.628,707.005 296.787,699.083 320.595,686.586 C324.35,684.615 326.498,684.394 329.753,687.56 C344.181,701.593 359.426,714.725 375.996,727.428" fill="#FEF8EA"/>
    <path d="M718.334,486.842 C716.359,483.542 715.619,487.253 715.162,487.745 C709.584,493.767 703.026,498.143 695.027,500.082 C671.575,505.766 636.016,494.52 629.933,463.989 C626.372,446.116 632.331,430.587 643.741,417.044 C653.204,405.811 665.103,398.403 680.163,397.98 C699.682,397.433 713.63,406.943 723.096,423.522 C725.48,427.698 727.83,431.974 729.072,436.666 C729.721,439.119 730.386,437.479 731.149,436.933 C728.509,453.988 724.61,470.72 718.334,486.842" fill="#FFDBC4"/>
    <path d="M605.141,727.141 C622.085,714.076 638.033,700.233 653.197,685.507 C655.36,683.406 656.732,684.914 658.385,685.785 C677.334,695.771 697.19,703.078 718.462,706.258 C734.212,708.612 749.938,708.727 765.692,706.218 C767.601,705.914 770.57,703.971 771.319,707.86 C771.888,710.815 776.107,713.163 771.182,716.959 C762.664,723.525 759.812,733.03 761.015,743.687 C761.826,750.871 756.477,755.429 753.59,761.025 C753.332,761.526 752.105,761.642 751.305,761.732 C698.822,767.612 650.131,757.125 605.782,727.956 C605.65,727.869 605.574,727.698 605.141,727.141" fill="#FEF8EA"/>
    <path d="M109.561,690.61 C108.778,656.74 121.761,643.69 148.243,638.815 C159.484,636.745 170.003,640.949 178.877,648.106 C186.237,654.043 184.896,660.791 176.025,664.165 C172.926,665.343 169.732,666.277 166.562,667.263 C162.034,668.671 159.316,671.667 159.816,676.44 C160.311,681.159 163.389,683.523 168.22,684.085 C176.126,685.004 183.467,687.579 189.438,693.108 C195.134,698.382 195.12,702.559 189.539,707.831 C188.574,708.743 187.52,709.567 186.465,710.377 C183.435,712.702 181.845,715.636 182.882,719.489 C183.894,723.248 186.499,725.181 190.327,725.904 C197.602,727.278 202.029,731.372 203.144,737.401 C204.144,742.808 202.495,744.54 197.287,743.55 C191.926,742.531 187.372,745.688 187.317,751.159 C187.253,757.392 184.047,760.939 178.88,763.499 C164.704,770.521 147.17,766.677 135.772,752.854 C119.186,732.74 110.388,709.409 109.561,690.61" fill="#FEF8EA"/>
    <path d="M871.315,683.792 C870.076,710.55 860.904,734.369 843.367,754.691 C833.019,766.682 815.289,770.055 801.92,763.559 C796.722,761.033 793.57,757.403 793.386,751.238 C793.207,745.231 788.499,741.967 782.61,743.888 C778.298,745.295 777.663,743.191 777.489,739.967 C777.135,733.399 782.06,727.298 789.354,726.062 C793.782,725.311 796.979,723.601 797.96,719.108 C798.912,714.749 796.371,712.005 793.172,709.471 C784.938,702.952 785.105,697.419 793.559,691.189 C799.189,687.04 805.607,684.784 812.482,684.094 C817.36,683.604 820.415,681.207 820.942,676.521 C821.477,671.766 818.74,668.733 814.249,667.282 C810.77,666.158 807.216,665.219 803.835,663.852 C796.076,660.716 794.683,654.24 801.094,648.839 C811.408,640.15 823.43,636.61 836.884,639.364 C841.286,640.265 845.419,642.083 849.48,644.03 C866.229,652.058 872.134,666.02 871.315,683.792" fill="#FEF8EA"/>
    <path d="M572.192,707.854 C543.423,710.153 514.6,711.727 485.769,712.592 C459.694,713.374 433.58,712.824 407.483,712.861 C404.008,689.482 401.779,665.978 400.314,642.391 C400.113,639.163 400.945,638.442 404.151,639.172 C410.465,640.61 416.876,641.637 423.262,642.742 C424.822,643.012 425.868,643.234 426.386,645.164 C434.274,674.599 460.658,693.017 497.27,688.234 C516.184,685.763 531.932,678.08 542.049,661.134 C545.136,655.964 547.405,650.413 548.259,644.428 C548.578,642.196 549.488,641.269 551.615,640.934 C561.799,639.329 571.776,636.781 582.628,633.791 C579.423,658.819 576.142,683.38 572.192,707.854" fill="#FEFEFE"/>
    <path d="M486.406,996.826 C478.819,996.631 470.284,995.648 462.468,991.402 C457.128,988.501 456.029,985.623 456.907,979.505 C458.177,970.662 460.121,961.735 456.862,952.918 C452.995,942.459 444.177,937.1 435.031,932.1 C428.905,928.751 422.425,925.658 420.854,917.81 C420.305,915.068 419.457,912.366 419.68,909.489 C420.224,902.47 424.999,899.57 430.951,897.917 C441.795,894.906 451.712,898.547 461.266,902.897 C472.299,907.922 483.084,913.51 493.855,919.088 C501.997,923.305 507.651,937.021 505.999,947.285 C505.289,951.697 504.742,956.154 504.454,960.613 C503.784,970.961 509.927,976.73 518.365,980.987 C520.491,982.06 524.304,982.345 524.275,984.67 C524.237,987.743 520.739,989.242 518.007,990.448 C508.311,994.729 498.125,996.786 486.406,996.826" fill="#D75618"/>
    <path d="M522.806,937.94 C521.27,930.536 519.673,924.371 516.4,918.666 C512.622,912.08 507.552,906.811 500.825,903.734 C488.421,898.062 476.87,890.667 464.117,885.745 C451.871,881.019 439.443,878.136 426.272,881.811 C406.245,887.399 401.332,900.496 403.793,918.644 C405.232,929.249 411.055,936.97 419.77,942.801 C420.625,943.373 422.266,943.692 421.841,945.219 C421.406,946.782 419.889,946.823 418.54,946.834 C414.873,946.863 411.359,947.736 408.869,943.161 C406.543,938.888 401.231,938.709 397.047,941.72 C395.737,942.662 394.826,944.239 392.776,943.017 C390.906,941.902 391.821,940.61 392.023,939.146 C392.901,932.786 386.299,928.053 380.066,930.483 C373.714,932.959 371.779,931.923 370.243,925.222 C368.994,919.769 365.86,917.331 360.72,917.814 C355.876,918.269 353.354,921.51 353.361,927.271 C353.372,936.241 360.585,945.314 370.782,948.726 C373.876,949.761 376.308,951.369 378.702,953.551 C384.153,958.518 390.447,961.716 398.162,960.351 C399.435,960.126 400.441,960.329 401.486,960.86 C408.319,964.329 415.577,964.405 422.917,963.391 C424.183,963.216 425.071,963.338 426.147,963.972 C429.908,966.188 433.934,967.668 438.359,967.855 C439.339,967.896 440.968,967.822 440.944,968.786 C440.841,972.893 440.819,977.101 439.87,981.056 C439.158,984.022 435.908,982.816 433.757,982.8 C412.426,982.644 392.26,977.839 373.8,966.942 C364.961,961.726 357.537,954.875 352.378,945.828 C345.4,933.588 347.286,917.118 356.888,905.776 C369.834,890.483 386.975,882.598 406.031,878.533 C435.755,872.192 464.758,874.307 492.308,887.925 C500.793,892.119 508.52,897.579 514.595,905.163 C522.036,914.453 525.857,924.564 522.806,937.94" fill="#9C6F36"/>
    <path d="M587.82,718.866 C589.824,704.576 591.645,691.6 593.461,678.624 C595.694,662.667 597.919,646.709 600.154,630.752 C600.738,626.579 602.64,625.78 606.011,628.488 C620.14,639.835 634.213,651.252 648.325,662.619 C649.721,663.744 650.922,664.551 648.981,666.409 C629.906,684.668 610.457,702.48 587.82,718.866" fill="#FEFEFE"/>
    <path d="M390.709,717.145 C380.52,710.01 371.567,702.654 362.913,694.955 C352.857,686.006 343.075,676.749 333.042,667.774 C330.432,665.439 330.297,664.177 333.239,661.871 C345.277,652.437 357.254,642.907 368.919,633.018 C373.854,628.835 377.585,632.967 381.745,633.802 C385.118,634.479 383.362,637.661 383.449,639.657 C384.467,662.922 387.048,686.037 389.844,709.135 C390.135,711.538 390.366,713.948 390.709,717.145" fill="#FEFEFE"/>
    <path d="M444.515,645.418 C465.252,647.084 485.509,647.599 505.778,646.362 C512.747,645.937 519.73,645.499 526.653,644.637 C531.218,644.068 530.913,645.72 529.456,648.897 C523.963,660.878 514.344,667.555 501.83,670.391 C492.486,672.507 483.048,672.782 473.612,670.831 C460.332,668.086 448.764,658.15 444.515,645.418" fill="#FEF8EA"/>
    <path d="M775.356,415.944 C774.966,423.712 774.314,431.45 770.675,438.626 C766.1,447.646 758.41,451.753 748.75,452.902 C746.718,453.144 745.352,453.327 745.951,450.226 C749.87,429.949 751.94,409.469 751.774,388.803 C751.749,385.718 753.321,385.039 755.722,385.104 C762.682,385.29 768.314,387.732 771.431,394.478 C774.581,401.295 775.052,408.564 775.356,415.944" fill="#FEF8EA"/>
    <path d="M191.235,417.612 C191.296,408.852 191.906,402.275 194.367,395.965 C197.093,388.976 202.269,385.584 209.614,385.101 C212.286,384.925 213.458,385.704 213.437,388.691 C213.295,409.199 215.268,429.524 219.278,449.636 C219.94,452.955 218.544,453.152 215.875,452.762 C203.678,450.98 195.135,442.514 192.52,429.413 C191.606,424.833 191.2,420.2 191.235,417.612" fill="#FEF8EA"/>
    <path d="M519.855,837.551 C521.626,845.591 524.116,848.654 529.045,848.687 C535.285,848.73 536.489,842.239 540.74,839.176 C542.647,842.711 543.819,845.618 542.058,849.622 C539.363,855.746 543.858,861.254 550.888,860.757 C556.158,860.384 561.377,859.111 567.295,860.286 C564.343,862.795 561.01,861.98 558.211,862.479 C544.224,864.977 532.052,871.069 521.434,880.284 C518.347,882.963 515.973,883.914 512.707,880.77 C510.94,879.068 508.642,877.898 506.526,876.58 C503.15,874.478 498.347,873.731 502.169,867.446 C504.159,864.173 502,860.08 498.208,857.733 C496.244,856.516 493.946,854.74 494.984,852.237 C495.975,849.848 498.831,850.79 500.869,850.979 C503.161,851.192 505.39,852.007 507.667,852.457 C513.692,853.649 518.774,849.129 517.842,843.074 C517.462,840.604 517.752,838.932 519.855,837.551" fill="#7EC800"/>
    <path d="M613.096,881.541 C611.335,885.622 608.727,886.719 604.957,886.92 C583.314,888.073 563.753,895.225 546.346,908.144 C541.18,911.979 538.017,911.416 535.226,905.922 C534.25,904 533.365,901.921 531.95,900.354 C528.91,896.99 529.605,895.004 533.094,892.201 C544.707,882.866 557.881,878.288 572.623,877.739 C586.12,877.236 599.443,878.438 613.096,881.541" fill="#E8C18E"/>
    <path d="M562.991,917.621 C580.758,907.415 599.167,900.78 619.93,904.763 C622.731,905.3 625.324,906.381 627.823,907.719 C632.524,910.234 632.653,911.284 628.226,914.47 C621.603,919.236 613.787,920.28 605.992,920.674 C597.04,921.127 588.045,921.177 579.087,920.866 C573.675,920.679 568.644,917.74 562.991,917.621" fill="#E8C18E"/>
    <path d="M759.781,807.249 C755.514,807.364 751.293,801.503 753.888,796.472 C759.812,784.989 765.974,773.61 772.555,762.494 C774.869,758.587 777.598,762.296 779.031,764.046 C780.659,766.034 781.603,768.677 783.475,770.574 C784.927,772.047 784.15,773.203 783.405,774.55 C778.273,783.828 773.15,793.11 768.076,802.419 C766.526,805.261 764.324,807 759.781,807.249" fill="#FEFEFE"/>
    <path d="M611.27,954.247 C610.829,956.623 609.935,959.119 608.264,961.234 C603.491,967.278 597.412,971.446 589.932,973.358 C583.515,974.998 578.416,969.817 579.899,963.33 C581.838,954.852 596.247,945.351 604.717,946.967 C608.664,947.719 611.346,950.583 611.27,954.247" fill="#FF9200"/>
    <path d="M549.943,958.944 C542.155,958.934 538.55,952.438 542.302,945.851 C546.168,939.062 560.262,933.4 567.71,935.644 C574.411,937.664 575.169,940.642 570.651,945.86 C566.721,950.398 564.251,956.409 557.39,957.748 C554.79,958.256 552.275,959.179 549.943,958.944" fill="#FF9200"/>
    <path d="M173.511,783.164 C178.456,781.566 183.32,780.395 187.656,777.899 C189.357,776.92 189.878,777.708 190.462,779.193 C192.581,784.588 194.959,789.884 196.965,795.319 C198.732,800.107 196.715,804.853 192.521,806.638 C188.054,808.539 183.346,806.596 181.158,801.63 C178.497,795.591 176.095,789.438 173.511,783.164" fill="#FEFEFE"/>
    <path d="M153.58,404.84 C142.055,343.859 144.525,283.687 167.654,225.732 C189.074,172.063 220.865,125.303 267.659,90.063 C287.045,75.463 308.638,65.443 332.748,61.362 C334.541,61.059 336.378,61.02 338.195,60.859 C339.376,60.678 340.879,59.441 341.285,61.801 C303.86,76.372 274.8,102.34 247.556,130.733 C198.406,181.954 173.707,244.774 161.14,313.328 C155.72,342.891 153.866,372.712 154.535,402.722 C154.799,403.691 155.385,404.805 153.58,404.84" fill="#FEFEFE"/>
    <path d="M533.559,137.647 C536.874,137.565 539.194,139.084 540.947,141.87 C559.424,171.225 581.864,197.314 607.08,221.001 C643.147,254.881 682.61,283.734 729.372,301.363 C736.201,303.937 743.291,305.836 750.301,307.908 C755.95,309.577 758.561,313.414 757.323,318.628 C756.215,323.297 751.85,325.551 746.292,324.158 C718.246,317.13 692.406,304.943 668.069,289.641 C611.885,254.315 565.238,209.088 528.543,153.704 C527.173,151.637 525.596,149.655 525.259,147.059 C524.555,141.634 528.121,137.58 533.559,137.647" fill="#6E4100"/>
    <path d="M718.353,112.001 C730.271,122.386 740.371,134.445 750.06,146.843 C755.542,153.86 761.319,160.716 765.249,168.822 C755.569,174.271 746.484,180.737 736.354,185.432 C722.698,191.76 708.683,196.718 693.563,198.091 C690.982,198.325 689.145,197.725 687.506,195.67 C684.522,191.927 681.326,188.353 677.989,184.441 C680.004,183.485 681.632,182.719 683.254,181.941 C704.723,171.639 715.262,153.832 718.277,130.88 C719.103,124.595 719.333,118.298 718.353,112.001" fill="#FEFEFE"/>
    <path d="M153.58,404.84 C153.898,404.134 154.216,403.429 154.534,402.723 C155.49,405.445 156.007,408.167 154.508,410.883 C154.581,408.81 152.91,407.005 153.58,404.84" fill="#F3E7DA"/>
    <path d="M341.285,61.801 C340.483,60.74 339.23,61.158 338.195,60.859 C340.471,59.756 342.896,59.957 345.309,60.046 C344.271,61.324 342.669,61.314 341.285,61.801" fill="#F9F1EA"/>
    <path d="M349.069,350.432 C343.498,344.07 341.111,336.643 340.751,328.397 C340.571,324.267 342.104,321.421 346.295,320.993 C350.595,320.554 352.667,323.255 353.053,327.287 C353.37,330.598 353.505,333.905 354.94,337.015 C357.7,342.996 360.597,344.889 367.066,344.733 C382.785,344.354 394.698,353.014 399.061,367.994 C400.623,373.358 398.686,377.987 394.208,379.59 C389.626,381.23 385.277,378.907 383.25,373.736 C379.344,363.774 374.334,360.29 365.937,361.695 C356.928,363.201 349.841,371.138 349.39,380.354 C349.283,382.525 349.449,384.728 348.173,386.623 C345.897,390.004 342.731,391.552 338.718,390.435 C334.727,389.323 332.608,386.415 332.564,382.329 C332.432,370.078 337.16,360.056 346.723,352.351 C347.494,351.73 348.256,351.098 349.069,350.432" fill="#6E4100"/>
    <path d="M636.844,381.199 C636.795,386.841 633.664,390.537 628.774,390.728 C623.677,390.926 620.483,387.726 620.17,381.95 C619.672,372.775 615.492,366.104 606.86,362.64 C598.336,359.219 590.803,362.463 587.226,370.877 C586.708,372.096 586.39,373.401 585.861,374.614 C583.935,379.029 579.519,381.084 575.232,379.612 C570.983,378.153 568.782,373.817 570.063,369.129 C572.091,361.711 575.766,355.28 582.055,350.668 C584.06,349.197 584.487,348.235 582.929,346.009 C579.401,340.971 578.196,335.086 577.827,329.033 C577.581,324.995 578.543,321.602 583.258,320.961 C587.208,320.424 589.835,323.193 590.152,328.212 C590.333,331.063 590.58,333.924 591.78,336.494 C594.028,341.313 596.743,344.809 603.243,344.92 C621.282,345.229 637.005,362.636 636.844,381.199" fill="#6E4100"/>
    <path d="M486.15,532.09 C470.392,532.184 457.686,528.789 447.558,518.468 C444.135,514.98 441.573,510.903 439.917,506.299 C438.252,501.674 439.689,497.693 443.462,496.204 C447.39,494.653 450.923,496.444 452.955,501.02 C453.09,501.323 453.161,501.657 453.31,501.953 C460.526,516.304 473.529,518.316 487.611,518.043 C501.827,517.767 510.821,512.241 515.181,500.824 C516.774,496.655 519.701,495.009 523.765,496.086 C527.982,497.204 529.522,500.464 528.536,504.633 C526.299,514.094 520.493,520.935 512.236,525.724 C503.643,530.708 494.252,532.493 486.15,532.09" fill="#6E4100"/>
    <path d="M364.383,204.704 C372.232,204.624 379.399,207.998 384.001,215.982 C386.597,220.486 385.889,224.676 382.442,226.467 C379.016,228.247 375.846,226.914 373.332,222.267 C371.565,219 368.807,217.48 365.366,217.001 C357.69,215.934 351.031,219.498 347.581,226.463 C345.995,229.666 343.37,230.703 340.131,229.814 C336.97,228.945 335.667,226.452 335.96,223.294 C336.38,218.758 338.641,215.125 342.073,212.243 C348.172,207.121 355.27,204.723 364.383,204.704" fill="#6E4100"/>
    <path d="M480.41,375.892 C482.892,375.844 485.062,376.75 486.495,378.697 C488.648,381.623 490.795,384.614 492.442,387.835 C494.448,391.757 493.02,395.991 489.458,398.265 C485.837,400.576 481.473,400.138 478.706,396.728 C476.421,393.913 474.234,390.893 472.673,387.641 C469.949,381.966 474.203,375.777 480.41,375.892" fill="#6E4100"/>
  </g>
</svg>
