<?xml version="1.0" encoding="UTF-8"?>
<!DOCTYPE svg PUBLIC "-//W3C//DTD SVG 1.1//EN" "http://www.w3.org/Graphics/SVG/1.1/DTD/svg11.dtd">
<svg version="1.1" xmlns="http://www.w3.org/2000/svg" xmlns:xlink="http://www.w3.org/1999/xlink" x="0" y="0" width="869" height="868" viewBox="0, 0, 869, 868">
  <defs>
    <clipPath id="Clip_1">
      <path d="M0,868 L868.308,868 L868.308,0.711 L0,0.711 z"/>
    </clipPath>
  </defs>
  <g id="Layer_1">
    <path d="M291.424,858.614 L261.924,858.614 L233.424,819.614 L218.424,767.614 L217.924,713.114 L234.424,671.114 L255.924,643.114 L260.924,641.614 L291.424,858.614" fill="#FEFEFE"/>
    <g clip-path="url(#Clip_1)">
      <path d="M217.354,621.045 C212.624,620.988 208.152,619.608 203.829,617.941 C201.102,616.89 199.556,617.136 198.445,619.968 C192.525,635.063 181.28,635.932 167.152,630.422 C159.179,627.312 152.373,622.129 145.33,617.396 C143.845,616.399 142.599,614.865 140.519,615.1 C139.847,615.074 139.293,614.772 138.782,614.369 C137.541,613.338 136.606,611.882 134.853,611.551 C134.443,611.416 134.088,611.195 133.774,610.903 C132.652,609.661 131.798,608.116 130.008,607.641 C129.58,607.498 129.208,607.267 128.868,606.976 C127.681,605.699 126.819,604.054 124.94,603.577 C124.073,603.284 123.334,602.806 122.758,602.092 C121.234,599.931 119.595,597.896 117.004,596.915 C115.732,596.307 114.683,595.431 113.83,594.316 C110.825,590.001 106.563,586.771 103.552,582.459 C94.67,572.675 88.12,561.195 80.426,550.548 C73.608,541.112 66.382,531.942 60.437,521.89 C59.659,520.336 58.23,519.386 57.02,518.228 C51.006,508.212 47.047,497.268 43.029,486.398 C34.553,463.467 28.594,439.817 23.754,415.876 C23.523,414.731 23.362,413.586 23.525,412.419 C24.175,409.927 24.327,407.434 23.491,404.944 C23.061,389.805 22.986,374.701 23.874,359.54 C25.105,338.534 27.809,317.778 31.97,297.203 C38.671,264.063 49.221,232.148 64.158,201.81 C78.678,172.316 97.271,145.639 120.672,122.368 C135.691,107.432 151.096,93 168.383,80.67 C178.458,73.484 189.141,67.396 200.354,62.205 C201.255,61.782 202.209,61.286 203.18,61.366 C204.436,61.47 204.53,60.798 204.562,59.901 C210.658,58.015 216.95,57.824 223.244,57.75 C231.389,57.653 232.187,57.177 234.193,49.375 C235.153,45.646 238.196,44.173 241.006,42.516 C252.273,35.87 264.407,31.246 276.985,27.834 C299.712,21.668 322.878,18.44 346.364,16.564 C400.433,12.245 450.711,25.577 499.158,48.023 C525.758,60.347 550.174,76.173 572.392,95.282 C578.274,100.341 584.985,104.658 589.135,111.543 C591.6,138.092 585.269,161.134 562.706,177.695 C559.733,179.878 556.459,181.523 553.156,183.113 C550.704,184.294 550.393,185.766 552.337,187.71 C552.805,188.178 552.256,187.558 552.686,188.067 C560.64,197.479 560.657,197.56 572.991,195.084 C594.094,190.847 612.938,181.497 630.543,169.391 C631.899,168.459 633.045,167.155 634.771,166.813 C637.536,167.839 638.572,170.455 639.952,172.662 C664.907,212.567 681.364,255.691 688.58,302.237 C691.971,324.105 694.409,346.074 695.911,368.181 C697.133,386.167 696.882,404.135 696.512,422.08 C696.176,438.371 693.66,454.551 690.742,470.613 C690.149,473.873 688.747,476.231 685.664,478.081 C668.803,488.197 656.047,502.087 647.967,520.147 C644.145,528.692 641.48,537.614 638.867,546.57 C637.353,551.756 636.413,552.041 630.938,551.784 C625.143,551.511 619.464,550.369 613.547,550.819 C591.731,552.476 576.625,564.657 564.458,581.462 C555.324,594.079 550.412,608.204 550.706,623.949 C550.736,625.605 550.759,627.298 549.773,628.774 C543.769,625.179 536.636,622.877 533.804,615.537 C532.523,612.217 530.72,611.967 527.638,613.253 C512.874,619.416 497.529,623.664 481.81,626.581 C479.713,626.971 477.587,627.726 475.535,626.387 C475.007,623.088 478.016,623.334 479.664,622.601 C498.447,614.243 516.528,604.712 532.598,591.718 C554.462,574.038 572.56,553.242 586.282,528.555 C595.738,511.542 602.654,493.582 608.336,475.085 C609.576,471.048 611.494,468.865 615.814,468.419 C618.944,468.096 622.113,467.86 625.219,467.212 C642.676,463.572 653.392,452.636 657.918,435.825 C661.386,422.945 661.152,409.713 658.332,396.706 C654.668,379.81 643.693,370.757 626.006,369.379 C623.322,369.17 620.572,369.263 619.448,366.014 C617.936,361.647 619.591,358.622 624.2,357.748 C627.348,357.151 629.994,356.051 630.802,352.585 C631.98,347.533 628.839,343.793 623.236,344.127 C604.376,345.253 586.05,341.968 567.904,337.489 C537.081,329.88 507.474,318.701 478.46,305.965 C454.206,295.318 430.209,284.037 407.384,270.564 C381.818,255.474 359.631,236.217 339.817,214.08 C316.309,187.815 297.4,158.555 281.537,127.204 C279.88,123.93 278.654,120.47 276.994,117.196 C275.083,113.426 272.15,111.759 268.013,112.605 C264.284,113.368 262.885,116.152 262.903,119.614 C262.919,122.73 261.045,123.967 258.588,124.989 C251.977,127.74 245.289,130.296 238.759,133.258 C214.911,144.077 193.327,158.204 173.857,175.788 C142.876,203.767 121.517,238.077 106.48,276.597 C95.516,304.683 89.022,333.901 85.677,363.83 C85.303,367.18 83.878,369.104 80.442,369.271 C77.766,369.401 75.166,369.998 72.542,370.457 C62.958,372.134 55.636,377.456 51.851,386.11 C42.524,407.435 42.46,428.93 54.219,449.42 C60.782,460.858 71.787,466.411 84.767,467.705 C93.959,468.622 94.597,468.955 97.204,477.633 C106.808,509.599 121.419,538.938 143.326,564.331 C159.571,583.16 178.564,598.685 200.429,610.629 C205.251,613.263 209.948,616.125 214.968,618.396 C216.063,618.892 217.688,619.156 217.354,621.045" fill="#DBA76F"/>
      <path d="M708.696,475.795 C705.919,474.617 705.544,473.518 706.093,470.732 C709.765,452.078 711.633,433.204 712.142,414.21 C713.12,377.654 709.832,341.396 704.489,305.272 C691.118,214.873 650.029,139.554 579.628,81.401 C515.914,28.771 442.687,-0.232 359.073,0.734 C327.167,1.103 295.757,5.861 265.203,15.322 C249.903,20.059 234.833,25.703 222.735,36.621 C218.045,40.854 213.498,42.989 207.186,43.682 C171.932,47.552 141.734,63.106 115.193,85.872 C71.713,123.168 40.921,169.601 20.428,222.729 C1.389,272.085 -3.456,323.51 2.242,375.907 C6.75,417.365 15.592,457.907 30.512,496.96 C50.518,549.326 81.745,593.37 127.337,626.657 C132.665,630.547 136.388,630.823 139.988,627.705 C143.398,624.751 143.576,620.522 140.519,615.1 C140.06,614.609 139.6,614.117 139.141,613.626 C137.419,613.395 136.949,611.027 134.993,611.196 C134.665,611.246 134.443,611.116 134.327,610.805 C132.978,609.444 132.193,607.392 129.899,607.186 L129.556,607.21 L129.379,606.916 C128.015,605.492 127.208,603.4 124.863,603.153 C124.345,602.699 123.826,602.246 123.307,601.792 C121.373,599.621 119.736,597.113 116.82,596.051 C115.994,595.313 115.168,594.575 114.342,593.836 C111.015,589.777 106.913,586.439 103.64,582.332 C86.834,564.036 72.872,543.724 60.897,522.004 C60.117,520.555 59.357,519.092 58.044,518.024 C41.407,484.433 31.535,448.702 24.529,412.065 C25.455,409.955 24.191,407.952 24.228,405.885 C23.107,400.841 23.045,395.662 22.245,390.567 C19.455,372.794 17.846,354.886 17.851,336.902 C17.853,327.112 18.726,317.317 19.598,307.539 C21.647,284.538 26.274,262.082 33.34,240.125 C43.387,208.901 59.271,180.676 77.96,153.918 C91.749,134.177 107.478,116.157 125.815,100.497 C147.328,82.127 171.52,68.947 199.341,62.883 C200.816,61.742 202.948,62.242 204.333,60.877 C211.701,59.572 219.134,59.233 226.603,59.196 C232.054,59.169 235.254,56.355 235.259,51.094 C235.262,48.29 236.395,46.876 238.494,45.546 C246.834,40.261 255.749,36.211 265.072,33.041 C284.992,26.266 305.512,22.335 326.376,19.863 C351.078,16.937 375.8,15.595 400.495,19.285 C453.17,27.156 501.622,46 545.478,76.307 C560.807,86.9 575.482,98.361 588.357,111.946 C589.332,114.103 590.84,115.839 592.514,117.493 C605.443,130.269 617.037,144.165 627.6,158.96 C629.655,161.838 630.953,165.533 634.611,167.087 C635.427,168.306 636.262,169.513 637.056,170.746 C657.137,201.924 671.841,235.466 680.849,271.434 C687.774,299.088 691.03,327.315 693.496,355.666 C696.842,394.124 696.463,432.414 689.303,470.469 C688.894,472.642 688.87,474.924 686.256,476.185 C674.896,481.666 666.267,490.501 658.431,500.039 C647.177,513.736 641.836,530.241 637.443,547.058 C636.584,550.348 635.493,551.11 631.986,550.511 C622.781,548.939 613.414,548.423 604.233,550.654 C587.042,554.83 574.395,565.598 564.101,579.417 C553.16,594.104 548.335,610.739 549.06,629.011 C549.445,640.141 552.451,650.592 557.38,660.508 C558.416,662.592 558.832,664.252 557.399,666.447 C545.509,684.655 532.307,701.883 518.641,719.278 C513.787,713.306 510.181,706.98 506.515,700.725 C494.02,679.402 482.56,657.517 471.434,635.456 C468.185,629.014 468.646,628.007 475.352,626.023 C477.448,625.054 479.522,624.033 481.645,623.124 C504.939,613.153 526.263,600.089 545.027,582.959 C577.588,553.231 597.863,516.156 609.965,474.237 C610.844,471.193 611.896,470.082 615.203,469.801 C638.992,467.779 652.862,457.742 658.664,438.015 C663.029,423.172 662.971,408.05 658.739,393.191 C654.146,377.067 642.315,368.336 625.535,368.282 C621.826,368.27 620.681,367.097 620.378,363.532 C620.056,359.746 621.661,359.211 624.877,359.023 C630.135,358.717 632.986,355.067 632.579,349.97 C632.19,345.1 628.514,342.18 623.234,342.53 C620.912,342.684 618.587,342.936 616.263,342.927 C594.259,342.843 573.03,338.065 552.098,331.873 C509.347,319.229 468.844,301.129 429.121,281.079 C403.355,268.074 379.864,251.936 358.988,232.057 C331.137,205.534 308.617,174.927 290.416,141.117 C285.924,132.773 281.839,124.206 277.689,115.683 C275.702,111.601 272.454,110.364 268.247,110.869 C264.381,111.332 261.473,114.046 261.808,117.349 C262.379,122.989 258.841,123.643 255.172,125.016 C214.956,140.066 180.203,163.198 152.308,195.974 C111.307,244.149 91.862,301.257 84.371,363.113 C83.936,366.711 83.209,368.216 79.126,368.312 C64.794,368.65 54.104,375.305 48.945,388.848 C42.115,406.778 42.269,425.026 49.213,442.95 C54.393,456.324 64.523,464.441 78.27,468 C82.106,468.992 86.12,469.509 90.081,469.738 C92.969,469.905 94.047,471.118 94.745,473.757 C96.104,478.894 97.726,483.971 99.469,488.994 C114.108,531.19 137.752,567.079 173.41,594.58 C187.05,605.099 202.008,613.384 217.355,621.045 C223.693,623.507 230.025,625.983 236.37,628.426 C239.604,629.672 244.812,630.112 245.632,632.255 C246.75,635.175 242.633,638.305 240.786,641.341 C213.197,686.706 200.75,734.912 213.414,787.752 C219.99,815.193 232.394,839.776 250.605,861.381 C252.208,863.281 253.726,865.323 256.292,866.045 C260.244,867.157 263.702,866.259 265.952,862.791 C268.587,858.728 267.427,855.141 264.373,851.504 C240.276,822.804 226.814,789.849 225.409,752.248 C224.087,716.875 234.871,684.803 252.488,654.655 C252.844,654.047 253.263,653.593 254.107,653.989 C254.98,669.736 256.7,685.44 258.64,701.106 C265.2,754.092 273.467,806.827 282.449,859.451 C283.409,865.071 286.402,868.03 291.084,868 C295.932,867.97 298.432,865.429 299.554,859.392 C301.602,855.369 299.493,851.533 298.863,847.7 C289.386,789.995 280.156,732.255 274.047,674.071 C273.039,664.476 272.309,654.848 271.76,645.209 C271.546,641.468 272.719,640.039 276.691,640.977 C284.475,642.817 292.373,644.171 300.32,645.069 C303.942,645.478 306.333,647.073 308.474,649.992 C316.458,660.874 323.98,672.094 332.243,682.77 C337.666,689.775 343.263,689.951 349.308,683.463 C351.937,680.64 353.75,677.224 356.059,674.169 C358.93,670.372 359.439,670.356 362.083,674.15 C364.179,677.157 366.11,680.279 368.212,683.282 C374.153,691.769 382.258,691.526 387.667,682.654 C394.433,671.556 401.251,660.484 407.673,649.186 C409.777,645.485 412.439,643.6 416.626,643.032 C426.045,641.755 435.302,639.601 444.505,637.223 C450.471,635.681 450.732,635.935 449.856,642.265 C444.44,681.378 439.029,720.493 432.704,759.472 C427.66,790.555 423.039,821.721 414.738,852.174 C414.293,853.803 414.003,855.449 415.127,856.964 C415.794,861.401 418.129,864.331 422.724,864.944 C427.194,865.54 430.593,862.894 432.242,857.284 C437.691,838.742 440.927,819.717 444.346,800.736 C445.7,793.219 447.007,785.694 448.477,777.372 C450.346,779.598 451.505,780.994 452.679,782.375 C463.737,795.382 475.625,807.54 490.847,815.66 C508.897,825.288 526.126,825.268 542.54,809.678 C571.873,781.817 594.937,749.604 611.696,712.838 C615.018,705.55 614.892,705.505 622.668,705.944 C624.495,706.047 626.33,706.089 628.161,706.069 C656.883,705.76 680.05,694.98 692.807,668.318 C703.391,646.195 700.766,622.98 694.232,600.03 C692.858,595.205 687.037,590.967 689.02,586.526 C691.001,582.089 696.699,579.409 700.459,575.65 C713.359,562.756 725.12,548.939 732,531.774 C740.849,509.699 730.533,485.052 708.696,475.795" fill="#6E4100"/>
      <path d="M299.554,859.392 C290.883,809.749 283.092,759.969 276.673,709.985 C273.834,687.876 271.347,665.719 270.181,643.431 C269.938,638.787 271.301,638.382 275.354,639.203 C284.473,641.051 293.677,642.517 302.888,643.845 C305.29,644.191 306.732,645.107 308.086,647.007 C316.39,658.664 324.778,670.26 333.188,681.841 C338.091,688.592 343.958,688.62 348.894,681.907 C351.85,677.887 354.693,673.78 357.491,669.647 C358.837,667.66 359.78,667.758 361.05,669.734 C364.108,674.494 367.242,679.207 370.443,683.872 C374.652,690.005 381.561,689.993 385.449,683.647 C393.184,671.025 400.774,658.311 408.236,645.525 C409.364,643.592 410.467,642.485 412.673,642.186 C424.882,640.528 436.893,637.877 448.737,634.521 C451.631,633.701 452.618,633.893 452.137,637.243 C442.592,703.73 434.071,770.38 420.321,836.191 C418.862,843.173 416.871,850.043 415.127,856.964 C376.603,857.773 338.078,858.583 299.554,859.392" fill="#68B2FE"/>
      <path d="M868.308,495.157 C868.305,502.39 865.882,505.312 858.498,506.228 C832.128,509.498 805.748,512.692 779.36,515.818 C772.884,516.585 767.141,511.704 766.526,505.281 C765.973,499.497 770.528,493.882 776.717,493.143 C803.103,489.993 829.49,486.856 855.898,483.907 C864.375,482.961 868.313,486.79 868.308,495.157" fill="#FF7164"/>
    </g>
    <path d="M833.457,621.574 C833.44,628.643 827.096,634.873 820.653,632.594 C800.968,625.629 779.996,623.873 760.336,616.986 C756.698,615.711 753.819,613.612 752.428,609.921 C749.188,601.324 756.404,592.286 765.374,595.046 C784.947,601.068 805.545,602.919 824.749,610.236 C830.837,612.555 833.471,615.941 833.457,621.574" fill="#FF7164"/>
    <path d="M760.843,411.365 C755.629,411.354 751.729,408.418 750.139,403.325 C748.509,398.105 750.25,393.281 755.432,390.142 C765.375,384.12 775.422,378.265 785.493,372.458 C791.677,368.893 797.926,365.429 804.256,362.132 C810.917,358.663 817.574,360.33 820.703,365.985 C824.011,371.963 821.769,378.491 814.977,382.189 C799.22,390.766 783.65,399.666 768.336,409.01 C766.016,410.426 763.614,411.439 760.843,411.365" fill="#FF7164"/>
    <path d="M23.581,406.02 C12.472,348.556 13.872,291.576 33.529,236.171 C53.594,179.616 85.861,130.915 133.122,93.07 C151.494,78.359 172.136,67.824 195.255,62.568 C196.546,62.274 197.877,62.159 199.19,61.961 C200.19,61.717 201.4,61.048 201.303,63.011 C170.691,77.117 146.014,99.018 122.413,122.491 C73.574,171.064 47.515,231.144 33.349,297.309 C25.751,332.796 23.283,368.723 24.553,404.946 C24.958,405.963 24.47,406.173 23.581,406.02" fill="#FEFEFE"/>
    <path d="M619.556,324.352 C615.946,324.279 612.949,323.237 609.921,322.358 C578.275,313.172 549.478,298.075 522.504,279.465 C473.066,245.356 431.292,203.602 398.191,153.346 C397.368,152.096 396.427,150.892 395.808,149.544 C393.839,145.254 395.322,140.344 399.114,138.19 C403.095,135.929 407.642,136.99 410.361,141.249 C418.069,153.327 426.29,165.038 435.399,176.089 C475.238,224.418 521.676,264.682 578.288,292.408 C591.16,298.712 604.57,303.632 618.45,307.248 C619.735,307.583 621.058,307.875 622.259,308.419 C626.253,310.227 628.062,313.423 627.248,317.708 C626.431,322.013 623.609,324.27 619.556,324.352" fill="#6E4100"/>
    <path d="M588.357,111.946 C606.202,128.289 621.125,147.083 634.61,167.085 C634.443,168.871 632.908,169.464 631.711,170.274 C611.68,183.843 590.32,194.18 566.07,197.763 C561.632,198.419 558.44,197.75 555.836,193.873 C553.632,190.593 548.688,187.471 548.956,184.662 C549.256,181.528 555.252,180.928 558.585,178.869 C577.741,167.031 586.459,149.174 588.278,127.414 C588.707,122.292 588.352,117.104 588.357,111.946" fill="#FEFEFE"/>
    <path d="M103.335,583.074 C85.741,565.073 71.595,544.637 60.316,522.175 C59.784,521.088 60.352,521.012 61.211,521.201 C75.449,541.591 89.489,562.122 104.426,582.016 C104.639,582.964 104.349,583.392 103.335,583.074" fill="#FDFCFB"/>
    <path d="M103.335,583.074 C103.698,582.721 104.062,582.368 104.426,582.016 C107.64,586.032 112.417,588.737 114.342,593.836 C110.142,590.792 106.699,586.973 103.335,583.074" fill="#F1EBE5"/>
    <path d="M123.307,601.792 C120.78,600.291 118.637,598.356 116.82,596.051 C120.295,596.482 122.379,598.484 123.307,601.792" fill="#F2EAE2"/>
    <path d="M23.581,406.02 C23.905,405.662 24.228,405.304 24.553,404.946 C25.606,407.322 26.07,409.695 24.529,412.064 C24.594,409.99 23.015,408.174 23.581,406.02" fill="#F2E3D4"/>
    <path d="M129.379,606.916 C127.874,605.662 126.37,604.409 124.864,603.154 C127.944,602.516 128.902,604.428 129.379,606.916" fill="#EEE5DB"/>
    <path d="M134.327,610.805 C132.851,609.6 131.376,608.394 129.899,607.187 C132.899,606.528 133.917,608.294 134.327,610.805" fill="#EBE3DA"/>
    <path d="M139.141,613.626 C137.223,613.731 136.122,612.441 134.993,611.196 C137.695,609.754 138.001,612.401 139.141,613.626" fill="#E7DDD0"/>
    <path d="M201.303,63.011 C200.599,62.661 199.894,62.311 199.19,61.961 C200.721,60.735 202.596,61.139 204.332,60.877 C204.383,63.093 202.316,62.304 201.303,63.011" fill="#E8DBCE"/>
    <path d="M61.211,521.201 C60.912,521.526 60.615,521.851 60.316,522.175 C58.95,521.125 58.81,519.404 58.045,518.025 C59.619,518.565 60.779,519.52 61.211,521.201" fill="#E4DACE"/>
    <path d="M576.608,513.312 C563.731,539.592 545.647,561.682 522.711,579.773 C492.933,603.26 458.669,616.685 421.731,623.536 C367.146,633.659 312.8,632.652 259.058,618.007 C222.447,608.03 189.974,590.476 163.321,563.066 C145.035,544.261 130.893,522.682 121.159,498.273 C123.024,496.695 123.097,496.548 125.311,497.64 C129.66,499.785 134.151,501.531 138.779,502.947 C148.994,506.072 159.368,506.778 169.874,504.801 C184.027,502.138 192.97,492.118 201.521,481.814 C207.697,474.372 211.22,465.633 212.642,455.973 C213.294,451.538 212.828,447.29 211.853,443.103 C208.222,427.501 201.534,413.476 188.986,403.036 C173.287,389.975 155.779,387.87 137.071,395.734 C123.615,401.391 114.07,411.345 106.932,423.85 C105.92,425.621 105.44,428.107 102.59,428.042 C93.369,352.263 110.646,282.847 154.468,220.598 C182.212,181.187 220.574,155.134 265.791,138.89 C269.503,137.557 270.327,139.159 271.649,141.71 C287.97,173.181 307.701,202.273 331.777,228.392 C357.086,255.851 386.236,278.136 419.542,295.074 C462.417,316.878 506.219,336.362 552.628,349.501 C568.016,353.858 583.621,357.176 599.54,358.78 C602.434,359.071 603.439,359.863 603.701,362.787 C605.628,384.264 605.248,405.671 602.218,427.025 C599.056,426.477 598.548,423.475 597.152,421.38 C589.214,409.465 579.617,399.659 565.443,395.307 C545.107,389.063 527.187,394.271 511.481,407.487 C495.301,421.101 486.146,438.932 485.248,460.046 C484.561,476.171 490.985,490.5 503.608,500.483 C523.918,516.546 546.84,521.839 571.995,512.752 C574.816,511.733 574.806,511.704 576.608,513.312" fill="#FEF8EA"/>
    <path d="M628.908,689.292 C590.017,689.196 570.431,658.962 566.333,633.81 C561.96,606.976 578.027,580.744 600.789,569.586 C613.339,563.433 626.497,565.344 639.2,569.706 C647.94,572.707 653.152,569.205 652.301,560.177 C652.209,559.198 652.004,558.161 652.215,557.233 C657.772,532.769 666.345,510.079 687.919,494.674 C696.004,488.902 701.748,488.497 708.721,495.6 C720.613,507.712 721.055,515.552 715.485,527.426 C705.762,548.155 690.148,563.913 672.244,577.595 C663.97,583.918 663.7,587.978 671.581,594.789 C675.494,598.172 677.541,602.807 678.966,607.608 C683.305,622.226 684.437,637.254 680.933,652.012 C676.143,672.189 661.963,683.284 642.297,688.011 C637.893,689.07 633.407,689.237 628.908,689.292" fill="#FEF8EA"/>
    <path d="M576.608,513.312 C575.976,512.451 575.228,512.659 574.428,513.043 C556.513,521.624 538.705,519.122 520.986,512.417 C501.646,505.099 489.528,491.302 484.959,471.164 C481.381,455.394 485.91,440.751 493.485,427.314 C503.386,409.752 517.73,396.988 538.128,392.708 C555.617,389.038 571.172,393.186 584.835,404.898 C592.148,411.167 597.186,419.053 602.218,427.025 C598.584,457.242 590.787,486.224 576.608,513.312" fill="#FFD5BA"/>
    <path d="M102.59,428.042 C106.538,423.537 108.717,417.883 112.524,413.224 C125.336,397.549 141.377,388.735 161.911,390.182 C177.777,391.3 190.039,399.437 199.372,412.068 C207.311,422.812 212.245,434.895 214.114,448.096 C215.189,455.688 213.531,463.268 210.126,469.882 C201.039,487.534 188.983,502.577 168.101,506.457 C153.846,509.105 140.028,506.008 126.89,499.902 C125.133,499.086 123.627,496.787 121.16,498.273 C112.155,477.848 106.894,456.382 103.409,434.424 C103.073,432.306 102.86,430.17 102.59,428.042" fill="#FFD5BA"/>
    <path d="M465.908,661.862 C469.288,668.179 472.279,673.836 475.33,679.46 C483.812,695.092 492.249,710.753 502.213,725.52 C505.095,729.791 507.949,734.116 511.957,737.462 C517.405,742.008 522.002,741.672 526.536,736.167 C540.616,719.074 554.039,701.472 566.418,683.108 C568.751,679.647 569.992,679.608 572.649,682.621 C578.899,689.706 586.63,694.925 595.209,698.777 C597.825,699.951 598.729,700.817 597.398,703.762 C580.734,740.619 558.007,773.06 527.763,800.091 C520.895,806.228 513.172,806.818 504.96,803.643 C494.198,799.483 485.46,792.298 477.345,784.344 C468.647,775.818 461.033,766.358 453.966,756.44 C452.584,754.5 452.227,752.675 452.565,750.408 C456.85,721.621 461.082,692.826 465.335,664.033 C465.398,663.605 465.554,663.189 465.908,661.862" fill="#FEFEFE"/>
    <path d="M644.881,418.879 C644.674,423.941 643.97,430.345 641.42,436.425 C637.011,446.933 628.551,451.543 617.774,452.88 C615.779,453.127 615.12,452.535 615.545,450.43 C619.702,429.853 621.733,409.064 621.483,388.067 C621.459,385.985 622.156,385.209 624.308,385.013 C631.937,384.317 638.002,387.621 641.317,394.564 C643.85,399.869 645.553,410.467 644.881,418.879" fill="#FEF8EA"/>
    <path d="M79.767,385.062 C82.435,384.446 83.346,385.678 83.303,388.799 C83.022,409.295 85.079,429.593 89.087,449.685 C89.688,452.695 88.797,453.034 86.087,452.581 C74.278,450.609 66.427,444.173 63.255,432.525 C60.091,420.906 59.984,409.196 63.487,397.646 C66.046,389.206 71.559,385.093 79.767,385.062" fill="#FEF8EA"/>
    <path d="M328.66,646.761 C336.958,646.761 344.523,646.761 353.05,646.761 C348.781,652.83 345.103,658.059 341.021,663.863 C336.773,657.986 332.792,652.478 328.66,646.761" fill="#FDFDFC"/>
    <path d="M377.585,664.19 C373.544,658.133 369.974,652.781 365.942,646.738 C373.7,646.245 380.853,645.79 388.796,645.286 C385.011,651.668 381.493,657.601 377.585,664.19" fill="#FDFDFD"/>
    <path d="M358.08,719.487 C364.107,719.564 369.281,724.797 369.204,730.735 C369.127,736.68 363.837,741.893 357.922,741.855 C351.943,741.816 346.809,736.594 346.833,730.573 C346.857,724.546 352.067,719.41 358.08,719.487" fill="#6E4100"/>
    <path d="M358.275,776.456 C364.318,776.548 369.434,781.841 369.201,787.761 C368.96,793.9 363.86,798.698 357.732,798.553 C351.544,798.406 346.676,793.337 346.848,787.219 C347.02,781.084 352.034,776.362 358.275,776.456" fill="#6E4100"/>
    <path d="M269.429,371.704 C269.32,375.891 266.996,378.671 262.79,379.607 C258.75,380.507 255.674,378.748 253.601,375.239 C253.271,374.68 253.192,373.978 252.955,373.357 C249.417,364.119 243.997,360.104 236.532,361.182 C227.611,362.471 220.097,370.134 219.305,378.753 C219.138,380.566 219.19,382.435 218.756,384.183 C217.695,388.448 214.078,390.907 209.86,390.487 C205.706,390.073 202.593,386.888 202.42,382.506 C201.959,370.795 206.27,361.005 215.087,353.408 C217.76,351.106 218.857,349.8 216.238,346.543 C211.931,341.187 210.749,334.552 210.455,327.816 C210.288,323.985 211.964,321.21 215.973,320.829 C220.234,320.424 222.347,322.849 222.707,327.006 C223.154,332.173 223.863,337.246 227.558,341.347 C229.757,343.786 231.83,345.185 235.663,344.603 C250.799,342.303 266.757,354.339 269.275,369.455 C269.384,370.108 269.369,370.78 269.429,371.704" fill="#6E4100"/>
    <path d="M506.512,379.699 C506.756,387.559 501.777,392.261 495.402,390.045 C491.473,388.681 489.906,385.635 489.799,381.543 C489.55,372.045 484.847,365.527 476.015,362.185 C468.048,359.17 461.043,362.137 457.375,369.818 C456.664,371.308 456.206,372.917 455.535,374.428 C453.509,378.993 449.351,380.908 444.99,379.339 C440.705,377.796 438.419,373.487 439.749,368.876 C441.768,361.874 445.1,355.543 451.032,351.091 C453.565,349.19 454.34,348.059 452.303,345.057 C448.78,339.866 447.649,333.753 447.538,327.505 C447.468,323.589 449.348,321.07 453.326,320.797 C457.366,320.52 459.459,322.883 459.798,326.758 C460.221,331.589 460.686,336.361 463.862,340.371 C465.789,342.806 467.892,344.167 471.333,344.356 C490.851,345.423 505.923,360.748 506.512,379.699" fill="#6E4100"/>
    <path d="M350.311,539.044 C331.915,539.04 317.06,529.558 311.761,514.438 C309.847,508.974 311.287,504.35 315.512,502.397 C320.215,500.223 325.109,502.358 327.227,507.506 C333.122,521.835 352.712,527.453 365.403,518.417 C369.618,515.417 372.222,511.335 373.7,506.341 C375.401,500.596 379.656,498.251 384.63,499.878 C389.271,501.395 391.271,505.765 389.813,511.202 C385.126,528.675 370.409,539.048 350.311,539.044" fill="#6E4100"/>
    <path d="M232.905,204.258 C242.337,204.662 250.031,208.04 254.337,217.009 C256.378,221.261 255.466,224.789 251.915,226.337 C247.955,228.063 245.114,226.514 243.438,222.786 C241.165,217.729 236.892,216.306 231.985,216.798 C226.339,217.365 220.674,218.483 217.954,224.506 C215.808,229.26 212.896,231.115 209.357,229.433 C205.218,227.464 205.027,224.038 206.298,220.142 C207.706,215.828 210.604,212.729 214.197,210.197 C219.798,206.252 226.184,204.707 232.905,204.258" fill="#6E4100"/>
    <path d="M363.275,390.27 C362.807,394.336 361.474,397.381 357.997,398.666 C354.512,399.954 350.93,399.652 348.45,396.583 C346.173,393.764 344.172,390.662 342.449,387.47 C340.571,383.99 341.503,380.59 344.23,377.929 C346.833,375.389 350.33,374.574 353.405,376.429 C358.738,379.647 361.246,385.121 363.275,390.27" fill="#6E4100"/>
    <path d="M656.033,672.555 C646.533,672.451 640.116,667.547 638.338,659.136 C637.598,655.64 636.458,653.64 632.718,652.271 C622.572,648.558 617.165,637.327 618.217,623.837 C619.435,608.224 631.501,594.099 645.663,591.707 C651.577,590.708 655.8,593.159 656.693,598.107 C657.639,603.348 654.906,606.853 648.919,608.077 C639.464,610.01 632.076,623.441 635.529,632.418 C637.191,636.738 639.189,637.425 643.034,635.016 C646.125,633.079 649.359,632.852 652.432,634.822 C655.693,636.913 656.91,640.058 656.076,643.888 C655.687,645.672 655.144,647.422 654.761,649.207 C653.948,652.99 653.307,656.181 659.355,655.774 C663.382,655.503 665.975,658.515 666.468,662.711 C666.994,667.189 664.71,670.786 660.585,671.885 C658.834,672.352 656.978,672.423 656.033,672.555" fill="#6E4100"/>
  </g>
</svg>
