<?xml version="1.0" encoding="UTF-8"?>
<!DOCTYPE svg PUBLIC "-//W3C//DTD SVG 1.1//EN" "http://www.w3.org/Graphics/SVG/1.1/DTD/svg11.dtd">
<svg version="1.1" xmlns="http://www.w3.org/2000/svg" xmlns:xlink="http://www.w3.org/1999/xlink" x="0" y="0" width="1040" height="884" viewBox="0, 0, 1040, 884">
  <defs>
    <clipPath id="Clip_1">
      <path d="M0.06,0.448 L1039.42,0.448 L1039.42,884 L0.06,884 z"/>
    </clipPath>
    <clipPath id="Clip_2">
      <path d="M0.06,0.448 L1039.42,0.448 L1039.42,884 L0.06,884 z"/>
    </clipPath>
  </defs>
  <g id="Layer_1">
    <g clip-path="url(#Clip_1)">
      <path d="M553.06,623.669 C545.66,623.839 538.553,622.196 531.669,619.747 C528.745,618.708 527.158,618.935 525.925,621.953 C520.208,635.936 510.663,637.823 495.993,632.66 C488.582,630.052 482.199,625.438 475.736,621.057 C473.976,619.864 472.44,618.238 470.189,617.89 C438.118,594.659 411.517,566.506 392.029,531.805 C373.243,498.354 361.758,462.34 353.878,425.029 C352.853,420.173 351.189,415.398 351.273,410.329 C351.815,405.31 351.977,400.296 351.159,395.292 C349.657,383.97 351.486,372.675 352.04,361.43 C353.178,338.319 356.648,315.407 361.78,292.808 C373.338,241.907 392.31,194.251 424.071,152.321 C437.902,134.062 454.543,118.422 471.333,102.975 C487.972,87.667 506.323,74.814 526.754,64.978 C531.451,62.717 536.556,61.482 541.089,58.872 C544.226,56.535 547.844,57.673 551.242,57.578 C558.982,57.36 560.111,56.708 561.725,49.276 C562.503,45.694 565.134,44.151 567.859,42.525 C579.539,35.551 592.228,31.001 605.264,27.476 C627.813,21.378 650.806,18.22 674.113,16.326 C724.256,12.25 771.249,23.849 816.806,43.322 C844.993,55.37 870.727,71.536 894.618,90.685 C900.982,95.786 906.807,101.508 913.065,106.733 C914.22,107.697 915.154,108.879 915.726,110.304 C916.256,111.785 916.303,113.381 916.807,114.87 C919.101,141.516 907.987,169.223 881.414,182.086 C877.024,184.211 877.705,183.95 880.182,188.027 C885.184,196.256 891.884,196.501 900.293,194.706 C920.521,190.389 938.638,181.571 955.816,170.433 C957.867,169.104 959.692,167.168 962.475,167.368 C964.725,168.14 965.74,170.122 966.885,171.939 C994.13,215.174 1010.76,262.205 1017.3,312.854 C1020.22,335.462 1022.3,358.109 1023.56,380.9 C1026.26,429.669 1019.57,476.839 1002.31,522.504 C993.904,544.724 982.971,565.637 969.358,585.123 C967.847,587.286 966.425,589.602 963.887,590.807 C959.243,591.984 956.904,596.134 953.647,599.01 C939.255,611.717 923.878,622.54 904.582,626.347 C894.606,628.315 884.594,629.851 874.497,626.941 C867.981,625.063 863.263,621.316 861.282,614.606 C860.832,613.079 860.852,611.037 858.207,612.222 C843.295,618.91 827.511,622.846 811.763,626.896 C809.444,626.953 808.434,625.535 808.309,623.499 C808.188,621.528 809.729,620.525 811.249,619.833 C818.225,616.66 825.077,613.271 831.775,609.521 C867.938,589.278 895.668,560.8 915.236,524.339 C924.01,507.991 931.149,490.956 935.795,472.955 C936.795,469.081 938.947,467.677 942.888,467.493 C968.519,466.297 983.904,451.31 986.816,425.798 C988.007,415.363 987.587,405.199 985.117,395.085 C981.197,379.034 968.372,368.248 952.968,369.067 C947.688,369.347 944.732,364.458 946.69,359.584 C947.213,358.281 948.29,357.979 949.417,357.71 C951.198,357.286 953.048,357.076 954.646,356.1 C957.474,354.373 958.943,351.881 958.304,348.544 C957.697,345.37 955.478,343.777 952.377,343.314 C951.054,343.117 949.714,343.094 948.385,343.162 C922.127,344.496 897.131,338.163 872.386,330.509 C830.866,317.667 791.393,299.916 752.764,280.191 C722.648,264.813 696.027,244.671 672.941,220.037 C650.971,196.594 632.5,170.544 617.202,142.256 C613,134.486 608.703,126.779 605.385,118.573 C604.824,117.185 604.098,115.852 603.106,114.711 C601.125,112.431 598.692,110.947 595.624,111.897 C592.685,112.807 590.599,115.081 590.652,118.133 C590.725,122.327 588.515,123.864 585.024,125.156 C556.971,135.54 531.272,150.038 508.289,169.281 C484.479,189.216 465.695,213.2 450.733,240.286 C430.133,277.578 419.271,317.915 413.512,359.829 C412.305,368.615 412.391,368.627 403.722,369.198 C390.493,370.07 379.306,380.136 375.723,394.67 C372.394,408.172 372.393,421.743 375.785,435.237 C380.371,453.485 395.556,466.036 414.568,467.493 C422.402,468.093 422.355,468.107 424.63,475.826 C433.679,506.534 447.565,534.776 467.804,559.708 C485.691,581.742 507.477,599.035 532.594,612.15 C538.35,615.156 544.113,618.169 550.098,620.724 C551.427,621.291 553.01,621.749 553.06,623.669" fill="#DBA76F"/>
      <path d="M553.06,623.669 C540.119,617.577 527.215,611.443 515.168,603.634 C471.904,575.589 443.741,536.086 427.076,487.833 C425.34,482.807 423.674,477.737 422.369,472.587 C421.655,469.77 420.288,468.928 417.534,468.841 C391.48,468.014 375.662,451.029 372.79,426.539 C371.592,416.323 371.839,406.294 373.995,396.287 C377.752,378.855 390.221,367.138 407.848,367.788 C410.953,367.903 411.622,366.73 411.961,363.839 C419.14,302.645 438.051,246.051 477.985,197.919 C506.642,163.38 542.744,139.406 584.653,123.897 C587.554,122.824 589.766,122.211 589.231,117.929 C588.735,113.959 591.882,111.07 595.817,110.281 C600.046,109.434 603.219,111.462 605.153,115.315 C609.557,124.089 613.704,133.003 618.39,141.623 C636.651,175.207 659.138,205.614 686.876,232.047 C710.755,254.802 738.282,272.023 767.843,286.338 C797.674,300.783 827.855,314.369 859.309,324.906 C889.044,334.867 919.049,343.576 950.979,341.911 C956.06,341.645 959.526,344.836 959.909,349.371 C960.305,354.048 957.19,358.4 952.048,358.477 C946.924,358.554 947.906,361.27 947.851,364.425 C947.777,368.646 950.542,367.722 952.912,367.731 C970.653,367.798 982.639,377.719 986.849,396.233 C989.964,409.933 989.732,423.659 985.847,437.212 C980.467,455.985 964.462,468.299 944.375,468.728 C939.802,468.825 937.969,470.103 936.668,474.647 C924.787,516.136 904.416,552.635 872.308,582.034 C854.711,598.146 834.817,610.734 813.039,620.412 C807.952,622.672 807.982,622.74 811.763,626.897 C826.002,646.406 839.064,666.639 849.526,688.463 C863.534,717.683 871.648,748.189 869.971,780.906 C867.981,819.758 842.414,846.718 803.63,850.848 C796.486,851.608 789.356,851.882 782.192,851.792 C780.554,851.772 779.429,851.655 778.627,853.959 C772.582,871.343 752.019,877.639 737.183,866.652 C734.712,864.822 733.667,864.861 731.799,867.244 C727.244,873.058 721.731,877.879 715.138,881.322 C707.393,885.366 694.168,885.632 688.71,876.443 C687.103,873.739 685.876,875.478 684.446,876.505 C678.589,880.712 672.683,884.554 664.87,883.89 C661.688,883.62 658.547,883.071 656.849,880.625 C654.345,877.015 651.919,877.82 648.575,878.985 C638.773,882.402 629.74,878.553 624.685,869.029 C623.476,866.75 623.213,864.882 619.665,866.94 C614.595,869.882 609.122,866.405 607.996,860.192 C606.604,852.512 605.343,844.809 603.95,836.68 C592.639,843.065 581.554,849 569.707,853.329 C561.867,856.194 553.883,858.375 545.497,858.947 C530.425,859.974 519.974,852.988 513.069,840.14 C507.175,829.173 505.518,817.109 505.211,804.905 C504.383,771.926 511.329,740.11 520.424,708.698 C527.085,685.691 535.288,663.231 546.334,641.914 C548.929,636.906 551.893,632.068 554.987,627.348 C556.866,624.481 555.446,623.978 553.06,623.669" fill="#6E4100"/>
      <path d="M914.957,110.956 C898.013,93.86 878.93,79.484 858.55,66.788 C818.491,41.832 774.969,26.211 728.387,19.127 C703.881,15.4 679.327,16.648 654.814,19.496 C633.476,21.975 612.455,25.944 592.108,32.993 C582.822,36.211 573.855,40.131 565.603,45.577 C563.767,46.788 562.933,48.014 562.88,50.359 C562.745,56.318 559.807,58.801 553.709,59.044 C549.459,59.213 545.155,58.352 540.959,59.647 C538.556,61.379 535.601,61.281 532.922,61.695 C503.727,66.215 478.771,79.569 456.213,98.042 C432.521,117.445 413.489,140.908 396.967,166.487 C381.365,190.643 368.342,216.065 359.923,243.709 C353.395,265.139 349.27,286.975 347.221,309.288 C345.739,325.435 346.205,341.583 346.539,357.701 C346.835,371.99 349.297,386.163 351.673,400.278 C351.868,401.435 351.991,402.583 352.002,403.751 C351.777,406.121 353.111,408.451 352.187,410.84 C361.121,456.742 374.158,501.161 399.192,541.264 C416.656,569.24 438.694,592.958 465.347,612.373 C467.42,613.884 469.225,615.48 470.189,617.891 C470.974,622.037 470.067,625.583 466.198,627.76 C462.332,629.935 458.97,628.598 455.603,626.152 C409.188,592.425 377.307,547.787 357.737,494.293 C337.677,439.458 326.417,382.905 328.211,324.249 C330.11,262.152 349.017,205.479 383.483,153.852 C404.264,122.725 428.196,94.603 459.15,73.07 C483.905,55.85 510.975,44.741 541.375,42.778 C542.768,42.688 543.924,42.442 544.914,41.371 C557.099,28.195 573.052,21.499 589.566,16.122 C620.951,5.904 653.34,1.105 686.251,0.503 C760.651,-0.857 827.323,22.975 887.076,65.853 C962.979,120.319 1010.04,194.207 1028.25,285.854 C1038.19,335.842 1042,386.523 1037.62,437.397 C1032.82,493.217 1015.1,544.854 983.718,591.547 C976.86,601.752 970.688,612.501 960.961,620.442 C958.782,622.221 956.728,624.354 953.786,624.747 C949.782,625.282 946.546,623.984 944.762,620.099 C942.902,616.047 943.88,612.46 947.275,609.879 C954.155,604.65 959.416,598.094 963.887,590.808 C971.694,579.473 979.214,567.965 985.652,555.775 C1001.63,525.524 1012.23,493.477 1017.94,459.774 C1021.84,436.74 1023.52,413.513 1022.55,390.212 C1020.36,337.772 1015.56,285.709 997.03,235.942 C988.406,212.775 977.38,190.822 963.956,170.071 C963.43,169.257 962.691,168.581 962.051,167.841 C959.462,166.147 958.03,163.436 956.349,161.019 C944.582,144.093 931.262,128.483 916.773,113.849 C915.928,113.036 915.755,111.801 914.957,110.956" fill="#6E4100"/>
    </g>
    <path d="M283.359,258.235 C283.576,286.874 277.976,305.067 269.704,322.518 C267.504,327.159 267.517,330.464 270.359,335.176 C280.451,351.912 284.824,370.147 281.333,389.725 C278.229,407.134 268.706,420.431 253.826,429.578 C241.857,436.935 228.93,442.529 214.751,443.769 C188.522,446.063 169.121,434.481 155.12,412.957 C149.552,404.397 145.384,395.103 143.584,384.996 C142.962,381.502 141.307,379.844 138.229,378.719 C128.849,375.294 119.656,371.437 110.974,366.437 C54.439,333.881 39.079,262.431 77.059,209.265 C117.374,152.83 190.813,146.596 238.7,180.571 C268.315,201.583 281.921,231.471 283.359,258.235" fill="#FFD700"/>
    <path d="M65.007,174.901 C62.598,175.056 60.321,173.82 58.298,171.94 C49.284,163.562 40.22,155.237 31.264,146.796 C26.742,142.534 26.417,136.203 30.273,132.096 C34.206,127.907 40.225,127.883 44.951,132.216 C54.021,140.532 63.028,148.919 72.034,157.305 C75.614,160.638 76.402,164.757 74.554,169.144 C72.926,173.008 69.743,174.949 65.007,174.901" fill="#FFD700"/>
    <g clip-path="url(#Clip_2)">
      <path d="M114.424,135.671 C114.458,140.661 111.297,144.798 106.882,145.757 C102.204,146.773 97.269,144.893 95.722,140.393 C91.793,128.965 88.142,117.425 84.93,105.778 C83.472,100.491 86.547,96.15 91.526,94.509 C96.226,92.96 101.574,94.682 103.202,99.362 C107.226,110.928 110.641,122.706 114.283,134.404 C114.428,134.87 114.395,135.39 114.424,135.671" fill="#FFD700"/>
      <path d="M40.657,215.998 C38.88,215.546 35.996,214.813 33.113,214.081 C24.921,211.998 16.71,209.985 8.542,207.809 C2.095,206.092 -1.215,200.815 0.409,195.184 C2.006,189.65 7.218,186.894 13.429,188.448 C23.719,191.023 34.013,193.587 44.252,196.355 C49.703,197.829 52.741,202.532 51.96,207.566 C51.179,212.597 47.02,216.063 40.657,215.998" fill="#FFD700"/>
    </g>
    <path d="M351.164,403.804 C338.826,337.58 342.976,272.88 371.094,211.024 C391.05,167.124 418.089,128.008 455.552,96.911 C478.319,78.013 503.799,64.59 533.514,60.376 C535.98,60.026 538.475,59.886 540.958,59.648 C541.397,60.567 540.77,60.693 540.096,60.938 C511.371,71.391 487.707,89.525 465.433,109.869 C433.702,138.849 407.887,172.122 390.187,211.499 C373.505,248.613 362.569,287.322 356.791,327.572 C353.591,349.858 352.434,372.253 352.114,394.723 C352.183,397.79 353.741,401.014 351.164,403.804" fill="#FEFEFE"/>
    <path d="M944.771,323.815 C934.536,321.456 923.982,317.934 913.658,313.746 C878.483,299.475 847.005,279.093 817.858,255.028 C782.483,225.821 751.523,192.544 726.318,154.082 C725.405,152.69 724.422,151.336 723.614,149.885 C721.047,145.275 722.044,140.651 726.086,138.078 C730.133,135.503 734.69,136.563 737.775,140.965 C743.598,149.275 748.964,157.934 755.176,165.939 C795.921,218.439 844.582,261.616 904.437,291.379 C918.158,298.202 932.514,303.477 947.414,307.221 C952.541,308.51 955.268,312.26 954.628,316.503 C953.938,321.078 950.163,324.097 944.771,323.815" fill="#6E4100"/>
    <path d="M917.034,112.796 C934.051,129.5 949.513,147.475 962.051,167.841 C946.146,178.607 929.554,187.982 910.981,193.449 C904.097,195.476 897.055,196.603 889.991,197.68 C888.263,197.944 886.803,197.731 885.546,196.214 C882.574,192.626 879.445,189.169 876.382,185.657 C875.407,184.538 874.678,183.681 876.798,182.76 C906.568,169.83 916.484,145.443 915.771,114.965 C915.42,113.792 915.163,112.674 917.034,112.796" fill="#FEFEFE"/>
    <path d="M351.164,403.804 C352.897,400.926 351.402,397.709 352.114,394.723 C353.244,400.089 353.669,405.459 352.187,410.839 C351.846,408.495 351.505,406.149 351.164,403.804" fill="#F0E6DC"/>
    <path d="M917.034,112.796 C916.009,113.167 916.05,114.159 915.772,114.965 C914.611,113.809 915.053,112.328 914.957,110.956 C915.938,111.243 916.695,111.784 917.034,112.796" fill="#E6D3BE"/>
    <path d="M430.157,425.847 C421.267,346.518 440.117,274.541 488.993,211.313 C516.034,176.333 552.169,153.282 593.661,138.413 C597.256,137.124 597.924,138.993 599.112,141.286 C613.089,168.269 629.607,193.572 649.297,216.757 C676.989,249.364 709.566,275.716 747.898,295.045 C790.853,316.704 834.614,336.244 881.073,349.22 C895.825,353.34 910.739,356.723 926.04,357.959 C929.596,358.246 930.734,359.586 931.023,363.111 C932.688,383.43 932.289,403.682 929.76,423.902 C926.851,426.717 926.083,423.486 925.138,422.025 C921.054,415.711 916.552,409.838 910.772,404.908 C893.498,390.175 868.165,387.827 848.791,399.619 C826.936,412.92 814.49,432.666 812.61,457.933 C811.154,477.499 820.244,493.355 836.471,504.019 C852.061,514.265 869.579,518.409 888.367,515.433 C892.009,514.856 895.392,513.412 898.869,512.279 C900.54,511.735 902.187,510.478 904.039,511.823 C895.835,529.494 884.583,545.081 871.335,559.256 C840.859,591.866 802.732,610.913 759.738,620.338 C700.215,633.386 640.706,632.919 582.005,615.677 C520.391,597.579 475.764,559.419 449.851,500.168 C449.388,499.11 449.07,497.989 448.685,496.897 C451.599,495.123 453.717,497.442 456.009,498.438 C467.466,503.416 479.28,506.386 491.883,505.195 C507.28,503.741 518.213,494.834 527.531,483.479 C533.955,475.651 538.503,466.83 540.077,456.677 C540.954,452.874 540.871,449.065 540.152,445.255 C537.229,429.103 530.279,415.082 518.411,403.565 C504.902,390.456 482.215,386.795 465.083,394.66 C452.049,400.644 442.538,410.2 434.967,422.088 C433.912,423.746 433.583,426.972 430.157,425.847" fill="#FEF8EA"/>
    <path d="M606.67,734.453 C612.77,750.887 623.721,766.648 639.965,778.486 C640.504,778.879 641.038,779.278 641.586,779.656 C647.902,784.008 647.874,783.972 641.649,789.03 C619.379,807.13 596.206,823.827 569.652,835.237 C562.153,838.459 554.47,841.142 546.271,842.015 C537.082,842.993 532.003,840.323 527.727,831.892 C523.492,823.543 522.306,814.455 522.022,805.268 C521.05,773.931 527.819,743.763 536.416,713.947 C543.147,690.603 551.407,667.797 563.036,646.368 C565.486,641.852 568.563,637.677 571.335,633.335 C572.542,631.443 573.86,630.798 576.299,631.559 C578.708,632.311 578.821,633.674 578.838,635.631 C579.086,664.501 582.97,693.043 586.783,721.583 C587.25,725.082 586.357,727.399 583.869,729.888 C567.975,745.792 552.236,761.852 536.497,777.912 C532.562,781.927 532.014,786.414 534.95,790.005 C537.728,793.404 541.424,794.118 545.265,792.3 C547.137,791.414 548.6,789.609 550.161,788.128 C569.131,770.128 588.085,752.112 606.67,734.453" fill="#FEFEFE"/>
    <path d="M904.039,511.823 C894.993,515.148 885.944,518.567 876.048,517.79 C858.294,516.396 841.324,512.139 828.277,499.336 C814.449,485.766 808.071,469.087 812.277,449.45 C816.882,427.947 828.216,411.093 846.93,399.184 C866.877,386.49 894.145,388.544 911.857,404.096 C917.814,409.326 922.566,415.359 926.573,422.089 C927.308,423.324 927.643,425.145 929.76,423.901 C926.017,454.622 918.572,484.259 904.039,511.823" fill="#FFD5BA"/>
    <path d="M430.157,425.847 C432.076,425.725 432.297,424 433.042,422.779 C440.811,410.059 450.713,399.826 464.562,393.442 C482.115,385.35 505.474,389.164 519.459,402.705 C530.044,412.954 536.441,425.41 540.374,439.384 C540.883,441.194 540.987,442.962 541.035,444.782 C541.751,448.824 541.751,452.866 541.035,456.908 C540.289,467.284 535.283,475.834 529.019,483.651 C522.031,492.371 514.154,500.124 503.207,503.952 C487.207,509.547 471.948,506.333 456.885,500.308 C454.136,499.208 451.799,497.119 448.685,496.897 C438.838,474.171 433.268,450.329 430.157,425.847" fill="#FFE5D0"/>
    <path d="M788.168,788.443 C790.976,787.837 793.08,787.501 795.114,786.92 C799.717,785.606 802.034,782.023 801.331,777.529 C800.645,773.152 797.203,770.218 792.406,770.734 C787.632,771.247 782.887,772.278 778.216,773.436 C775.074,774.214 774.238,773.808 774.785,770.313 C778.791,744.674 782.685,719.017 786.447,693.342 C789.101,675.234 791.488,657.087 794.008,638.959 C794.231,637.35 794.555,635.754 795.016,633.091 C798.645,637.943 801.827,641.934 804.728,646.12 C822.693,672.044 838.82,698.918 847.265,729.687 C852.501,748.766 855.526,768.071 852.145,787.849 C847.617,814.333 830.898,830.124 804.098,833.856 C795.797,835.012 787.495,834.953 779.172,834.949 C776.91,834.948 770.893,828.517 770.99,826.267 C771.067,824.469 772.643,824.992 773.62,824.686 C779.71,822.775 785.289,819.904 790.393,816.066 C797.873,810.442 799.141,804.537 794.661,796.21 C793.143,793.389 790.734,791.33 788.168,788.443" fill="#FEFEFE"/>
    <path d="M617.848,708.876 C617.563,664.46 657.094,645.504 683.916,652.796 C688.409,654.018 693.631,655.2 694.931,660.232 C696.27,665.416 691.819,668.548 688.443,671.735 C687.233,672.877 685.912,673.925 684.833,675.18 C681.91,678.577 681.972,683.413 684.864,686.538 C687.656,689.556 692.19,690.194 695.745,687.648 C699.241,685.145 702.197,681.604 707.017,685.388 C711.89,689.213 715.26,696.972 713.991,702.107 C713.516,704.029 712.11,705.163 710.838,706.473 C707.96,709.438 707.305,712.927 709.293,716.525 C711.408,720.352 714.941,721.473 719.127,720.588 C726.592,719.009 727.157,719.563 727.147,727.248 C727.117,751.024 706.072,771.579 691.516,775.093 C679.163,778.075 667.522,775.24 656.944,769.143 C632.049,754.792 619.873,732.433 617.848,708.876" fill="#FEF8EA"/>
    <path d="M622.528,842.338 C622.072,841.569 621.945,841.436 621.908,841.281 C618.545,827.515 618.557,827.532 630.118,819.236 C641.488,811.077 652.339,802.262 662.96,793.157 C666.289,790.303 671.122,790.584 674.299,793.807 C680.435,800.03 686.675,799.973 692.579,793.328 C693.861,791.885 695.358,791.564 696.858,791.126 C720.411,784.258 745.899,755.721 743.842,723.336 C743.338,715.388 740.841,708.256 732.939,704.466 C731.325,703.692 730.928,702.639 730.985,700.933 C731.331,690.518 727.464,681.759 720.053,674.59 C718.152,672.752 717.959,671.441 719.357,669.153 C724.469,660.785 729.396,652.3 734.238,643.771 C735.144,642.175 736.292,641.95 737.829,641.709 C749.987,639.797 762.089,637.581 773.923,634.14 C777.214,633.182 777.791,633.91 777.329,637.341 C771.118,683.497 764.392,729.575 757.045,775.564 C756.55,778.665 754.942,779.526 752.472,780.521 C737.32,786.63 720.737,788.136 705.819,794.757 C695.256,799.445 683.846,799.785 672.963,802.702 C657.116,806.95 643.495,814.758 632.365,826.84 C628.291,831.263 624.807,836.086 622.528,842.338" fill="#68B2FE"/>
    <path d="M778.835,803.369 C772.606,808.62 764.955,809.491 757.448,810.737 C754.825,811.172 752.174,811.431 749.543,811.824 C745.309,812.455 742.442,814.666 741.89,819.087 C741.348,823.421 743.223,826.444 747.301,828.129 C754.415,831.069 758.474,836.829 761.151,843.679 C762.264,846.527 763.741,849.691 760.688,852.378 C757.153,855.488 751.771,856.106 748.208,853.891 C745.011,851.904 742.814,848.962 740.871,845.846 C738.878,842.649 736.306,840.508 732.359,840.841 C728.222,841.191 726.186,843.822 724.558,847.512 C721.268,854.966 716.04,860.975 709.083,865.322 C703.517,868.799 701.905,868.077 700.256,861.608 C700.011,860.646 699.952,859.637 699.775,858.655 C699.141,855.136 697.424,852.418 693.895,851.247 C690.341,850.067 687.36,851.292 684.816,853.804 C680.783,857.785 676.619,861.609 671.875,864.744 C670.807,865.45 669.667,866.047 668.136,866.942 C668.136,863.906 668.07,861.478 668.15,859.055 C668.284,855.018 666.336,852.19 662.691,851.029 C658.952,849.837 655.366,850.586 653.013,854.181 C650.993,857.27 648.791,860.126 645.567,862.094 C642.493,863.97 640.372,863.557 638.976,860.006 C636.51,853.732 637.27,847.904 641.281,842.578 C651.582,828.899 665.549,821.199 682.116,817.821 C685.677,817.095 689.148,816.107 692.859,817.627 C694.904,818.465 697.026,817.401 699.025,816.394 C720.244,805.706 742.629,799.683 766.507,799.817 C771.666,799.845 774.986,800.871 778.835,803.369" fill="#FEF8EA"/>
    <path d="M972.042,415.193 C972.07,421.888 971.301,428.471 968.889,434.757 C964.923,445.094 957.113,450.376 946.357,451.905 C943.034,452.377 942.375,451.307 942.985,448.214 C946.918,428.266 948.801,408.107 948.711,387.78 C948.699,384.984 949.958,384.491 952.249,384.363 C959.756,383.944 965.516,387.306 968.564,394.222 C971.507,400.898 972.036,408.015 972.042,415.193" fill="#FEF8EA"/>
    <path d="M388.848,415.281 C388.79,407.798 389.435,401.044 392.108,394.626 C394.898,387.927 399.964,384.594 407.196,384.368 C409.546,384.295 410.884,384.74 410.883,387.592 C410.881,408.264 412.738,428.775 416.817,449.051 C417.522,452.557 415.558,452.113 413.511,451.775 C402.1,449.889 394.568,443.466 391.112,432.398 C389.311,426.63 388.742,420.684 388.848,415.281" fill="#FEF8EA"/>
    <path d="M600.097,695.632 C598.617,678.269 596.225,660.983 595.64,643.543 C595.595,642.215 595.594,640.886 595.553,639.558 C595.494,637.703 595.939,636.905 598.162,637.406 C608.359,639.707 618.653,641.52 629.036,642.762 C630.582,642.947 631.586,643.665 631.971,645.005 C632.552,647.023 630.59,647.403 629.49,648.198 C615.299,658.461 606.131,672.014 602.536,689.221 C602.164,690.998 602.067,692.832 601.842,694.64 C601.461,695.323 601.314,696.418 600.097,695.632" fill="#68B2FE"/>
    <path d="M705.119,644.981 C708.551,644.831 711.103,644.719 714.49,644.571 C712.947,647.187 711.75,649.217 710.325,651.633 C708.682,649.532 707.219,647.664 705.119,644.981" fill="#F7F5F3"/>
    <path d="M600.097,695.632 C600.679,695.302 601.26,694.971 601.842,694.64 C601.842,696.71 601.842,698.78 601.842,701.149 C599.643,699.521 599.813,697.593 600.097,695.632" fill="#6B6359"/>
    <path d="M255.129,264.627 C254.916,282.115 250.958,295.82 244.601,308.763 C239.18,319.8 237.416,331.126 239.549,343.145 C239.889,345.063 239.98,347.007 242.794,347.295 C244.639,347.484 245.915,349.1 246.786,350.795 C251.574,360.114 254.724,369.867 253.955,380.488 C253.227,390.542 248.795,398.788 240.388,404.37 C231.873,410.023 222.46,414.086 212.309,415.452 C200.046,417.102 190.253,411.899 182.582,402.534 C177.784,396.676 174.542,389.936 172.266,382.744 C171.774,381.189 170.815,379.304 171.751,377.901 C174.496,373.791 171.803,371.073 169.584,368.312 C163.655,360.937 156.661,355.036 147.534,351.767 C134.163,346.979 121.395,341.013 110.638,331.392 C95.521,317.869 87.442,300.685 85.124,280.88 C79.819,235.555 118.644,191.365 165.116,188.72 C190.95,187.25 214.003,193.744 232.442,212.605 C247.263,227.765 254.493,246.335 255.129,264.627" fill="#6E4100"/>
    <path d="M721.127,540.909 C721.093,550.842 719.625,560.491 715.095,569.452 C708.119,583.252 696.94,590.309 681.365,589.938 C665.69,589.565 655.052,581.699 648.982,567.499 C638.869,543.838 645.299,509.331 662.913,492.053 C676.246,478.975 693.079,479.813 705.132,494.155 C715.097,506.013 721.065,523.454 721.127,540.909" fill="#6E4100"/>
    <path d="M542.825,372.919 C542.695,366 543.948,359.664 546.934,353.804 C548.19,351.341 548.302,349.556 546.683,347.152 C543.255,342.061 542.108,336.18 541.996,330.102 C541.924,326.211 543.632,323.583 547.715,323.423 C551.743,323.265 553.692,325.594 554.015,329.554 C554.217,332.027 554.512,334.528 555.126,336.924 C555.944,340.116 557.031,342.65 561.589,341.552 C565.272,340.665 568.635,342.878 571.508,345.322 C584.212,356.128 586.837,377.071 577.189,390.659 C568.32,403.152 552.737,401.864 545.893,388.074 C543.47,383.19 542.672,377.984 542.825,372.919" fill="#6E4100"/>
    <path d="M777.052,372.617 C777.352,365.309 779.095,358.324 783.276,352.384 C785.614,349.064 785.242,346.791 783.439,343.6 C781.663,340.459 780.516,336.908 779.472,333.423 C778.418,329.901 779.726,326.952 783.332,325.945 C786.982,324.926 789.868,326.21 791.03,330.236 C791.582,332.146 792.318,334.005 793.017,335.87 C794.273,339.219 795.807,341.648 800.23,341.814 C805.446,342.01 808.916,345.925 811.405,350.14 C818.097,361.474 819.705,373.547 815.264,386.076 C812.604,393.582 807.139,398.34 799.166,399.229 C791.701,400.062 786.563,395.729 782.652,389.929 C779.151,384.736 777.127,378.968 777.052,372.617" fill="#6E4100"/>
    <path d="M564.902,209.794 C574.263,209.874 580.519,213.041 584.78,219.772 C586.815,222.988 586.774,226.281 583.428,228.547 C580.119,230.788 577.012,229.898 574.863,226.565 C571.863,221.912 567.455,220.975 562.64,222.27 C557.321,223.702 551.9,225.603 550.48,231.941 C549.569,236.01 547.441,238.418 543.263,237.68 C538.932,236.916 538.083,233.454 538.541,229.625 C538.967,226.06 540.502,222.971 542.934,220.309 C549.226,213.419 557.101,210.116 564.902,209.794" fill="#6E4100"/>
    <path d="M677.307,376.438 C680.147,376.653 682.418,377.308 683.878,379.307 C685.927,382.114 688.035,384.937 689.619,388.01 C691.644,391.939 690.017,396.673 686.364,398.852 C682.664,401.059 678.022,400.182 675.303,396.543 C673.423,394.026 671.568,391.431 670.14,388.646 C667.158,382.829 671.342,376.286 677.307,376.438" fill="#6E4100"/>
    <path d="M541.035,456.908 C541.035,452.866 541.035,448.824 541.035,444.782 C542.547,448.824 542.547,452.866 541.035,456.908" fill="#FFE7D3"/>
    <path d="M97.578,269.296 C99.147,245.371 112.015,224.658 135.082,211.393 C160.641,196.695 187.014,197.804 212.364,212.88 C232.386,224.786 250.777,256.584 237.532,291.55 C235.769,296.204 234.072,300.916 231.862,305.362 C225.45,318.258 224.12,331.763 226.886,345.685 C227.771,350.139 226.961,352.277 222.41,353.962 C211.207,358.112 200.237,362.902 189.227,367.56 C186.907,368.541 185.526,368.488 184.026,366.122 C175.142,352.11 162.699,343.015 146.948,337.418 C130.048,331.412 115.162,322.015 106.404,305.353 C100.993,295.058 97.658,284.171 97.578,269.296" fill="#FEFEFE"/>
    <path d="M241.046,376.497 C241.109,384.872 237.971,390.935 231.13,394.808 C225.919,397.759 220.387,400.115 214.633,401.721 C204.661,404.503 196.766,400.835 190.315,390.863 C185.349,383.187 185.356,383.204 193.58,379.826 C206.933,374.342 220.324,368.946 233.589,363.257 C236.912,361.832 238.244,362.482 239.027,365.842 C239.892,369.558 241.154,373.185 241.046,376.497" fill="#FFD700"/>
    <path d="M707.101,541.152 C707.108,548.547 706.036,555.763 702.846,562.491 C698.607,571.434 691.721,576.255 681.505,575.933 C671.647,575.623 665.04,570.602 661.883,561.662 C654.655,541.195 657.68,521.865 670.594,504.572 C678.697,493.719 687.861,494.192 695.793,505.131 C703.544,515.82 707.169,527.942 707.101,541.152" fill="#FEFEFE"/>
    <path d="M200.652,253.502 C209.482,258.681 215.269,265.469 217.129,275.085 C218.995,284.734 214.498,293.61 205.724,297.763 C197.78,301.522 187.909,299.171 181.852,291.901 C174.38,282.933 172.998,272.856 177.098,261.332 C170.941,261.777 165.977,264.179 161.282,267.23 C158.557,269.001 160.737,269.655 162.176,270.455 C172.499,276.197 177.263,285.149 176.993,296.786 C176.812,304.577 173.157,310.503 166.198,314.08 C159.289,317.632 152.537,316.652 146.465,312.134 C138.056,305.876 134.238,297.439 135.608,286.885 C135.883,284.766 136.276,282.663 136.717,279.91 C133.432,280.545 130.408,281.132 127.383,281.714 C122.17,282.715 118.748,280.942 118.018,276.866 C117.308,272.9 119.547,270.116 124.399,268.94 C124.722,268.862 125.054,268.806 125.385,268.776 C136.549,267.75 146.177,264.447 154.876,256.246 C162.257,249.287 172.758,246.833 183.402,248.544 C185.485,248.879 186.856,248.274 188.289,246.935 C192.567,242.936 197.43,239.711 202.446,236.736 C206.309,234.445 209.995,235.176 212.048,238.422 C214.099,241.666 213.106,245.159 209.294,247.79 C206.696,249.583 204.03,251.275 200.652,253.502" fill="#FF9200"/>
    <path d="M204.689,279.909 C204.365,282.461 202.6,284.367 200.246,285.798 C197.924,287.21 195.767,286.434 193.752,285.05 C188.012,281.107 186.084,271.869 189.695,265.821 C190.284,264.835 190.609,263.786 192.234,264.05 C197.492,264.904 204.896,274.014 204.689,279.909" fill="#FEFDFD"/>
    <path d="M164.039,295.193 C164.143,298.44 163.102,301.205 160.023,302.573 C156.968,303.93 154.603,302.223 152.5,300.151 C147.902,295.621 146.979,288.099 149.969,282.115 C150.943,280.165 152.048,280.458 153.562,280.904 C159.479,282.648 164.03,288.832 164.039,295.193" fill="#FEFDFD"/>
  </g>
</svg>
