<?xml version="1.0" encoding="UTF-8"?>
<!DOCTYPE svg PUBLIC "-//W3C//DTD SVG 1.1//EN" "http://www.w3.org/Graphics/SVG/1.1/DTD/svg11.dtd">
<svg version="1.1" xmlns="http://www.w3.org/2000/svg" xmlns:xlink="http://www.w3.org/1999/xlink" x="0" y="0" width="1093" height="1370" viewBox="0, 0, 1093, 1370">
  <defs>
    <clipPath id="Clip_1">
      <path d="M0,1370 L1092.75,1370 L1092.75,0.52 L0,0.52 z"/>
    </clipPath>
  </defs>
  <g id="Layer_1">
    <g clip-path="url(#Clip_1)">
      <path d="M305.708,598.923 L336.708,598.923 L273.708,486.923 L216.708,340.923 L212.708,379.923 L225.708,473.923 L256.708,549.923 L305.708,598.923" fill="#FFFFFF"/>
      <path d="M842.078,602.777 C827.902,619.449 811.824,634.178 795.167,648.287 C781.188,660.128 766.675,671.296 751.901,682.133 C749.262,684.068 747.45,684.382 744.56,682.469 C734.855,676.042 724.973,669.875 715.015,663.846 C712.287,662.195 711.563,660.813 713.704,658.292 C714.559,657.287 715.203,656.098 715.91,654.972 C719.897,648.613 719.063,645.158 712.578,641.562 C697.616,633.267 682.634,625.007 667.66,616.732 C667.985,614.088 670.303,614.512 671.887,614.254 C685.075,612.099 697.959,608.788 710.618,604.528 C715.957,602.732 721.503,603.422 726.984,603.627 C728.718,603.692 730.19,604.54 731.343,605.823 C737.157,612.293 744.906,613.923 753.049,614.378 C764.125,614.996 774.966,613.226 785.721,610.797 C787.993,610.284 790.249,609.568 792.573,610.54 C796.457,612.872 800.002,612.399 803.658,609.738 C814.482,601.86 824.063,592.665 833.312,582.125 C836.288,588.399 839.347,594.185 843.62,599.218 C845.111,600.974 842.892,601.82 842.078,602.777 z M1092.66,635.713 C1091.39,607.842 1074.43,582.243 1048.15,572.804 C1029.51,566.107 1010.88,567.247 992.413,573.602 C989.795,574.503 988.453,574.645 987.635,571.389 C985.806,564.113 981.544,558.046 976.489,552.711 C965.609,541.23 954.669,529.79 943.331,518.767 C934.044,509.739 923.422,502.419 910.3,500.3 C906.282,499.651 906.115,498.581 906.871,495.209 C911.469,474.71 910.063,454.872 899.569,436.236 C898.293,433.97 898.442,431.884 898.897,429.552 C903.013,408.422 905.224,387.047 905.169,365.561 C905.091,335.046 902.076,304.764 895.438,274.91 C883.308,220.357 861.785,169.879 825.648,127.031 C752.819,40.677 659.114,-1.221 546.185,0.575 C514.192,1.084 483.102,7.635 453.158,19.028 C439.255,24.318 425.899,30.732 416.052,42.505 C414.763,44.046 413.207,43.977 411.603,44.186 C397.532,46.015 383.797,49.283 370.487,54.178 C367.987,55.098 366.64,54.633 364.953,52.801 C356.174,43.266 345.98,35.617 334.091,30.333 C305.076,17.439 273.515,23.601 253.671,45.954 C242.389,58.663 236.175,73.643 233.481,90.255 C233.203,91.969 233.963,94.422 230.263,93.365 C220.526,90.582 210.787,91.893 201.18,94.399 C185.471,98.496 171.461,106.781 156.474,112.668 C146.187,116.709 136.36,121.635 129.383,130.672 C127.653,132.913 126.667,131.432 125.477,130.371 C119.859,125.364 113.719,121.114 107.08,117.577 C76.32,101.188 41.923,106.667 20.365,131.892 C4.524,150.428 -1.151,172.556 0.189,196.462 C2.153,231.493 16.242,260.744 43.997,282.639 C61.15,296.17 80.885,302.808 102.801,299.364 C130.172,295.062 147.392,278.035 157.542,253.008 C159.959,247.048 161.129,240.722 162.991,233.845 C173.317,264.461 183.876,294.205 195.857,323.389 C200.503,334.706 203.714,345.825 202.124,358.087 C201.719,361.209 201.664,364.405 201.762,367.558 C202.384,387.374 204.011,407.092 207.541,426.632 C215.433,470.317 228.85,512.048 251.467,550.486 C265.193,573.815 281.972,594.529 304.299,610.286 C308.288,613.101 313.02,612.541 315.425,609.22 C317.903,605.798 317.16,601.019 313.295,598.257 C287.252,579.649 269.587,554.311 255.415,526.211 C236.426,488.561 225.366,448.492 219.73,406.851 C218.472,397.558 217.196,388.207 218.308,378.549 C225.087,393.967 231.865,409.386 238.644,424.804 C240.113,429.218 241.659,433.615 243.704,437.789 C261.799,474.717 280.273,511.45 301.654,546.625 C309.947,560.267 317.627,574.317 327.707,586.804 C336.347,598.83 344.976,610.865 353.635,622.878 C356.165,626.388 360.86,629.887 360.772,633.293 C360.686,636.653 356.006,640.098 352.964,643.126 C349.024,647.048 348.903,651.133 351.168,655.847 C355.136,664.102 361.101,670.776 367.674,676.951 C386.495,694.631 408.196,708.242 430.528,720.89 C433.294,722.456 433.763,723.973 433.401,726.712 C428.197,766.15 423.927,805.692 420.177,845.294 C416.522,883.904 413.471,922.56 411.126,961.272 C410.814,966.416 412.723,969.212 417.919,969.96 C422.309,970.591 421.986,972.588 421.161,975.912 C417.068,992.382 413.718,1009.01 411.393,1025.83 C410.503,1032.26 412.907,1035.37 419.452,1035.63 C423.006,1035.77 422.945,1037.26 422.744,1039.91 C420.825,1065.3 419.126,1090.7 417.12,1116.09 C413.854,1157.4 410.307,1198.69 405.505,1239.86 C403.038,1261.02 400.519,1282.16 395.896,1303 C395.17,1306.27 393.643,1307.69 390.597,1308.51 C380.435,1311.24 370.737,1315.13 361.817,1320.8 C355.841,1324.6 350.603,1329.16 347.051,1335.4 C339.091,1349.38 344.256,1362.56 359.607,1367.21 C365.366,1368.96 371.312,1369.65 377.341,1369.78 C398.608,1370.22 419.447,1366.97 440.26,1363.05 C446.027,1361.96 449.252,1359.38 450.405,1353.82 C450.708,1352.36 451.203,1350.94 451.604,1349.49 C470.893,1280.01 483.852,1209.18 496.455,1138.29 C502.044,1106.85 507.044,1075.3 512.173,1043.78 C512.629,1040.98 513.325,1039.84 516.417,1039.89 C532.572,1040.16 548.732,1040.25 564.889,1040.22 C567.737,1040.22 568.443,1041.27 568.802,1043.89 C569.974,1052.46 571.431,1060.99 572.839,1069.52 C583.286,1132.86 594.234,1196.11 607.548,1258.92 C614.304,1290.79 621.504,1322.56 630.543,1353.89 C632.042,1359.08 634.691,1361.93 640.28,1363 C655.494,1365.9 670.753,1368.52 686.198,1369.43 C699.289,1370.19 712.559,1371.06 725.139,1365.79 C734.961,1361.68 739.028,1353.59 736.828,1343.25 C735.182,1335.51 730.669,1329.72 724.744,1324.87 C715.305,1317.15 704.284,1312.38 692.697,1309.26 C687.292,1307.81 685.384,1305.19 684.353,1300.04 C678.111,1268.81 674.903,1237.18 671.752,1205.56 C666.287,1150.74 661.99,1095.82 658.212,1040.86 C657.921,1036.63 659.173,1035.85 662.908,1035.72 C670.029,1035.47 672.517,1032.46 671.653,1025.51 C669.518,1008.34 666.452,991.314 663.136,974.336 C662.71,972.154 662.317,970.84 665.191,970.033 C671.02,968.396 672.213,966.248 671.847,960.203 C670.718,941.596 669.806,922.973 668.462,904.382 C666.074,871.347 663.55,838.32 660.85,805.309 C659.222,785.403 657.187,765.53 655.232,745.652 C655.027,743.564 655.299,742.562 657.379,741.437 C659.492,740.293 660.727,740.325 662.558,741.679 C666.167,744.348 669.913,746.84 673.687,749.274 C691.007,760.445 708.19,771.852 727.669,779.145 C735.702,782.152 743.415,782.197 751.32,778.472 C759.3,774.712 767.143,770.745 774.617,766.073 C814.978,740.839 851.495,710.538 887.848,680.03 C898.017,671.497 908.02,662.766 918.883,653.454 C917.295,660.793 916.258,667.189 916.093,673.672 C915.539,695.43 921.366,714.948 937.665,730.092 C957.579,748.595 981.39,752.033 1007.04,746.176 C1055.23,735.17 1094.92,685.4 1092.66,635.713" fill="#6E4100"/>
    </g>
    <path d="M933.479,69.833 C932.755,80.234 926.28,87.752 917.678,93.752 C906.812,101.332 894.682,106.382 882.179,110.517 C876.68,112.336 872.272,110.209 870.806,105.575 C869.485,101.403 871.868,97.523 877.265,95.446 C888.285,91.204 899.343,87.088 909.069,80.137 C920.024,72.308 919.895,64.113 908.73,56.654 C899.85,50.722 891.137,53.107 882.8,57.424 C873.013,62.492 865.205,69.894 860.012,79.787 C858.59,82.496 857.043,85.162 853.821,85.818 C850.978,86.398 848.001,86.177 846.033,83.683 C844.147,81.292 843.012,78.663 844.409,75.387 C849.903,62.5 859.306,53.166 870.877,45.728 C878.421,40.879 886.667,37.858 895.57,37.182 C914.841,35.719 933.153,52.24 933.479,69.833" fill="#BAD3D7"/>
    <path d="M934.242,122.84 C937.314,122.575 941.73,123.309 946.033,124.64 C959.427,128.784 965.069,141.61 959.893,155.996 C955.651,167.784 945.994,174.59 933.328,174.971 C925.262,175.213 917.414,174.159 909.833,171.463 C904.234,169.472 902.18,165.692 903.615,160.725 C904.869,156.386 908.989,154.388 914.656,156.208 C920.759,158.168 926.854,159.361 933.258,158.928 C940.617,158.431 945.129,153.713 945.558,146.466 C945.788,142.583 944.191,140.604 940.538,139.738 C933.056,137.964 925.688,138.953 918.359,140.527 C914.633,141.327 910.983,142.475 907.297,143.46 C902.519,144.736 897.769,142.609 896.599,138.674 C895.252,134.149 897.551,129.639 902.49,128.105 C912.34,125.047 922.384,122.908 934.242,122.84" fill="#BAD3D7"/>
    <path d="M238.644,424.804 C246.008,439.691 253.318,454.606 260.748,469.46 C280.414,508.778 302.159,546.908 326.165,583.744 C326.785,584.694 327.197,585.78 327.707,586.803 C314.687,575.584 303.642,562.537 293.228,548.968 C265.319,512.603 247.943,471.486 238.658,426.782 C238.527,426.149 238.643,425.465 238.644,424.804" fill="#DBA76F"/>
    <path d="M912.986,872.913 C905.99,873.062 899.375,871.608 893.194,868.474 C889.489,866.597 887.944,862.315 889.642,858.7 C891.422,854.908 894.621,853.088 898.645,854.682 C917.949,862.327 934.057,855.156 949.054,843.722 C955.627,838.71 960.448,832.221 962.038,823.658 C962.928,818.869 966.322,816.871 970.786,817.611 C974.86,818.286 977.07,821.231 976.602,826.025 C975.673,835.565 970.948,843.399 964.455,850.038 C950.372,864.437 933.171,872.137 912.986,872.913" fill="#EF6F63"/>
    <path d="M893.061,828.976 C888.32,829.175 883.283,828.305 878.586,825.876 C874.583,823.805 872.979,819.745 874.544,815.849 C875.985,812.259 880.188,810.145 884.159,812.117 C896.264,818.129 915.819,809.131 923.015,799.615 C925.165,796.772 926.448,793.599 927.31,790.153 C928.376,785.894 931.489,784.237 935.631,784.829 C939.954,785.446 941.967,788.349 941.741,792.574 C941.407,798.787 938.652,804.105 934.89,808.888 C925.407,820.945 908.858,828.936 893.061,828.976" fill="#EF6F63"/>
    <path d="M733.521,495.868 C732.359,508.171 731.844,520.442 735.448,532.489 C736.255,535.19 736.718,538.157 738.187,540.461 C741.07,544.983 739.078,547.701 735.924,550.931 C708.435,579.082 675.04,596.925 637.293,606.637 C583.419,620.498 529.134,621.073 474.656,610.037 C471.94,609.487 470.231,608.177 468.618,606.159 C457.917,592.771 447.126,579.455 436.439,566.056 C434.497,563.621 432.493,561.446 429.15,561.532 C427.727,561.568 427.074,560.908 426.397,559.896 C411.342,537.378 396.573,514.682 383.434,490.971 C383.089,488.562 385.262,488.062 386.557,486.955 C393.029,481.429 399.165,475.574 403.875,468.43 C412.453,455.42 414.701,441.439 409.78,426.521 C405.311,412.974 398.494,400.834 386.723,392.344 C370.288,380.49 352.776,380.348 334.803,388.767 C333.059,389.584 331.492,391.216 329.278,390.077 C320.853,374.063 313.471,357.546 305.735,341.199 C305.082,339.818 304.958,338.454 305.243,336.875 C313.695,290.081 329.481,246.304 359.619,208.841 C387.451,174.245 422.52,149.566 464.537,134.828 C468.751,133.35 469.536,135.484 470.999,138.291 C497.856,189.819 532.989,234.37 581.151,267.726 C606.401,285.214 634.259,297.933 662.164,310.416 C697.237,326.106 733.054,339.762 770.909,347.275 C778.076,348.698 785.358,349.594 792.62,350.46 C795.114,350.757 796.039,351.781 796.269,354.121 C798.136,373.075 797.775,391.996 795.811,410.925 C795.439,414.503 792.673,414.715 790.436,415.862 C787.626,415.756 787.35,413.208 786.367,411.469 C780.052,400.291 771.722,391.246 759.503,386.526 C741.863,379.711 725.363,382.657 710.462,393.697 C697.012,403.662 688.635,417.202 684.971,433.613 C679.704,457.209 692.85,481.285 715.746,489.715 C720.112,491.323 724.498,492.917 729.104,493.769 C730.747,494.073 732.361,494.512 733.521,495.868" fill="#FEF8EA"/>
    <path d="M827.625,154.877 C840.983,173.092 851.39,192.977 860.201,213.676 C876.228,251.327 885.234,290.683 888.683,331.454 C891.037,359.289 890.341,386.935 886.331,414.539 C886.142,415.84 886.013,417.155 884.876,418.448 C875.831,411.079 865.542,406.201 854.073,404.028 C851.073,403.459 851.631,401.435 851.477,399.532 C850.643,389.255 848.488,379.423 841.494,371.351 C835.047,363.91 826.574,361.134 817.005,361.002 C814.42,360.966 811.167,362.284 811.467,357.35 C811.677,353.886 810.319,350.386 816.258,350.665 C820.725,350.874 823.762,346.82 823.427,342.75 C823.102,338.802 819.995,335.744 815.628,335.945 C780.568,337.563 747.813,327.484 715.556,315.705 C672.813,300.098 631.017,282.135 592.763,257.22 C554.005,231.976 524.346,197.746 499.92,158.776 C490.892,144.372 482.885,129.411 475.839,113.953 C473.811,109.505 470.682,107.931 466.266,108.98 C462.162,109.955 460.866,113.185 461.339,117.065 C461.615,119.323 460.851,120.31 458.747,121.054 C436.339,128.983 415.401,139.787 395.931,153.431 C395.706,153.589 395.309,153.501 394.951,153.531 C393.964,152.333 394.547,150.979 394.733,149.766 C398.982,122.024 393.49,96.195 379.344,72.139 C377.443,68.905 377.296,67.584 381.308,66.313 C395.336,61.872 409.646,59.092 424.304,58.053 C430.892,57.586 433.196,55.511 432.757,49.171 C432.564,46.392 434.258,45.8 435.836,44.72 C450.931,34.395 468.089,29.112 485.512,24.54 C513.048,17.314 541.086,13.924 569.512,15.277 C645.487,18.894 712.84,45.111 771.605,93.39 C774.933,96.125 778.14,99.008 781.404,101.821 C783.321,121.852 779.55,140.319 766.225,156.055 C759.962,163.45 751.973,168.506 743.116,172.253 C737.853,174.48 738.108,174.275 741.363,179.039 C744.903,184.22 749.51,185.033 755.283,184.35 C780.096,181.418 801.871,171.073 822.339,157.407 C823.983,156.309 825.406,154.765 827.625,154.877" fill="#DBA76F"/>
    <path d="M638.359,731.863 C641.833,758.61 644.212,785.473 646.434,812.341 C649.274,846.672 651.72,881.037 654.236,915.394 C655.123,927.51 655.541,939.663 656.543,951.768 C656.88,955.837 655.512,957.119 651.702,957.846 C626.965,962.565 602.026,965.268 576.871,966.279 C527.792,968.251 479.079,964.704 430.596,957.135 C427.133,956.594 426.365,955.483 426.606,952.121 C429.117,917.091 431.782,882.077 435.09,847.11 C438.414,811.978 442.242,776.904 446.546,741.882 C447.113,737.265 447.891,732.674 448.571,728.071 C450.355,726.095 452.769,726.254 455.077,726.252 C503.343,726.218 551.611,726.021 599.874,726.405 C609.322,726.48 618.805,727.158 628.283,727.323 C632.225,727.391 635.87,728.423 638.359,731.863" fill="#FEFB82"/>
    <path d="M371.877,621.929 C357.248,602.888 343.926,583.592 331.334,563.783 C287.226,494.397 251.742,420.647 220.527,344.74 C203.273,302.781 187.598,260.239 173.216,217.209 C171.719,212.731 172.697,211.882 176.925,211.712 C180.693,211.561 184.427,210.571 188.539,209.892 C188.028,212.247 187.286,214.257 187.216,216.29 C187.091,219.961 188.687,222.895 192.443,223.819 C195.914,224.672 199.722,224.15 200.941,220.483 C202.681,215.247 206.638,212.437 210.648,209.528 C213.926,207.15 215.832,204.303 214.636,200.187 C213.413,195.979 210.098,194.988 206.122,194.693 C201.153,194.323 196.187,193.693 191.278,192.835 C187.567,192.187 184.173,190.781 183.556,186.262 C182.953,181.84 185.7,179.553 188.966,177.576 C189.818,177.06 190.659,176.462 191.588,176.144 C210.824,169.553 230.235,163.5 250.855,163.976 C269.498,164.407 275.059,172.012 270.836,191.082 C267.93,204.199 260.008,213.678 246.928,218.327 C241.494,220.259 239.774,224.11 241.74,229.091 C266.395,291.568 293.263,353.065 323.618,412.999 C350.766,466.599 380.325,518.814 414.073,568.581 C415.552,570.762 416.258,572.188 414.139,574.537 C400.086,590.111 386.197,605.832 371.877,621.929" fill="#FEF8EA"/>
    <path d="M638.359,731.863 C632.737,728.76 626.579,729.029 620.436,728.82 C563.154,726.868 505.86,728.041 448.571,728.069 C449.986,711.825 452.794,695.762 454.955,679.613 C455.242,677.469 455.655,675.338 455.846,673.186 C456.255,668.569 454.06,665.428 450.05,664.71 C445.619,663.917 442.095,665.989 441.29,670.674 C439.516,680.994 437.972,691.363 436.686,701.755 C436.22,705.522 435.823,706.865 431.844,704.443 C411.639,692.142 391.586,679.676 374.799,662.713 C364.854,652.664 364.804,652.647 374.094,642.174 C391.103,623 408.158,603.867 425.2,584.723 C426.297,583.49 427.449,582.307 428.872,580.785 C439.815,594.401 450.591,607.848 461.421,621.252 C463.676,624.043 465.781,628.392 469.896,627.145 C478.271,624.606 485.882,628.308 493.848,628.786 C496.075,628.92 497.173,629.509 497.923,631.987 C504.356,653.231 519.482,664.271 540.925,666.485 C560.473,668.503 578.412,664.409 592.115,648.837 C596.331,644.046 599.526,638.612 601.522,632.537 C602.285,630.213 603.143,628.852 606.077,628.442 C617.765,626.809 629.365,624.567 640.722,621.296 C642.796,620.698 644.258,621.395 645.856,622.267 C662.772,631.502 679.678,640.754 696.609,649.962 C698.657,651.076 700.208,651.794 698.306,654.656 C683.58,676.809 669.012,699.068 654.385,721.288 C654.061,721.78 653.618,722.193 652.876,723.057 C650.699,707.136 648.614,691.878 646.523,676.62 C646.366,675.469 646.238,674.307 645.977,673.177 C644.825,668.178 641.538,665.732 637.13,666.542 C632.934,667.313 630.627,670.597 631.247,675.451 C632.405,684.524 633.834,693.562 634.98,702.636 C636.209,712.366 637.241,722.12 638.359,731.863" fill="#FEFEFE"/>
    <path d="M902.847,582.338 C910.257,588.447 917.275,591.088 925.267,590.564 C928.804,590.331 927.328,592.895 927.416,594.298 C927.912,602.307 929.719,609.767 935.571,615.712 C945.009,625.3 961.703,625.632 972.438,616.507 C979.217,610.745 983.98,603.615 986.719,595.208 C987.637,592.389 989.215,590.868 991.906,589.762 C1007.12,583.506 1022.76,581.262 1038.77,585.643 C1061.13,591.759 1076.68,611.305 1077.37,634.794 C1078.51,673.759 1059.57,701.796 1027.56,721.684 C1010.51,732.277 991.688,736.661 971.583,731.867 C948.987,726.477 932.764,706.613 931.352,683.444 C930.363,667.224 933.625,652.035 940.974,637.623 C944.697,630.322 943.301,626.901 935.632,623.796 C923.979,619.076 913.36,612.576 903.417,604.923 C902.006,603.838 900.843,602.887 901.79,600.83 C904.303,595.373 904.926,589.675 902.847,582.338" fill="#FF7164"/>
    <path d="M168.274,187.136 C168.552,188.466 168.708,189.45 168.965,190.408 C170.957,197.828 170.953,198.107 163.299,197.844 C149.63,197.376 147.725,199.372 148.618,212.65 C149.535,226.287 147.39,239.517 141.581,252.023 C127.295,282.78 95.128,293.891 65.058,278.144 C40.389,265.225 26.054,244.018 18.656,217.819 C13.631,200.024 13.431,182.064 19.31,164.321 C32.14,125.601 70.052,111.963 104.628,133.58 C104.911,133.756 105.178,133.958 105.465,134.126 C116.023,140.322 123.953,147.698 122.766,161.763 C122.115,169.468 125.881,176.695 131.003,182.68 C140.287,193.53 153.398,195.102 168.274,187.136" fill="#FF7164"/>
    <path d="M838.394,417.555 C874.163,416.947 897.746,445.939 893.821,481.18 C893.546,483.654 893.171,486.116 892.852,488.585 C891.797,496.739 888.766,502.555 880.755,507.259 C866.465,515.652 859.411,528.904 863.431,546.184 C864.186,549.429 862.36,548.883 860.518,548.766 C852.831,548.276 845.025,548.841 839.468,554.537 C823.256,571.156 803.65,570.15 784.057,564.649 C764.405,559.131 753.16,544.441 749.088,524.723 C744.73,503.617 749.91,484.014 760.952,466.02 C776.564,440.579 798.526,423.7 828.467,418.407 C831.725,417.832 835.083,417.826 838.394,417.555" fill="#FF7164"/>
    <path d="M303.78,38.705 C325.525,39.366 342.46,49.746 356.257,65.656 C372.553,84.45 380.87,106.728 381.206,131.461 C381.472,151.074 376.262,169.348 362.542,184.271 C347.876,200.223 323.996,204.887 302.839,196.009 C300.236,194.917 297.752,193.543 295.181,192.371 C289.876,189.952 286.993,186.935 286.953,180.033 C286.854,163.033 278.121,153.552 261.331,149.967 C259.309,149.536 257.328,149.781 258.663,146.482 C264.803,131.313 260.12,118.223 250.472,106.212 C249.044,104.434 247.207,103.094 247.457,100.273 C249.333,79.175 256.465,60.758 274.208,47.834 C282.958,41.459 292.338,38.795 303.78,38.705" fill="#FF7164"/>
    <path d="M668.682,727.552 C679.75,710.645 690.739,693.988 701.545,677.212 C703.147,674.724 704.29,674.732 706.569,676.19 C718.75,683.987 731.039,691.613 743.254,699.357 C746.908,701.673 750.341,701.665 753.888,699.135 C788.231,674.631 821.269,648.57 849.505,617.011 C854.102,611.873 857.601,608.968 864.314,613.167 C867.958,615.447 872.782,616.045 876.935,615.21 C886.581,613.27 893.922,618.259 901.587,622.344 C906.122,624.762 910.199,628.048 914.761,630.401 C918.392,632.275 918.97,633.353 915.53,636.257 C898.872,650.32 882.576,664.816 865.837,678.78 C835.42,704.156 804.604,729.035 771.182,750.453 C762.919,755.748 754.367,760.518 745.44,764.63 C741.273,766.549 737.349,766.631 733,765.054 C721.826,761.005 711.639,755.096 701.518,749.031 C690.26,742.285 679.3,735.085 668.682,727.552" fill="#FEF8EA"/>
    <path d="M449.107,1269.67 C440.138,1268.38 430.972,1268.57 421.829,1268.71 C418.199,1268.76 417.111,1267.46 417.548,1264.05 C418.727,1254.84 419.841,1245.61 420.879,1236.38 C422.156,1225.01 423.402,1213.63 424.531,1202.24 C426.201,1185.4 427.843,1168.56 429.332,1151.7 C430.529,1138.14 431.489,1124.56 432.543,1110.98 C434.161,1090.13 435.776,1069.28 437.372,1048.43 C437.511,1046.6 437.506,1044.76 437.549,1042.93 C437.692,1036.86 438.164,1036.43 444.267,1036.97 C458.513,1038.22 472.789,1038.79 487.087,1038.95 C498.168,1039.07 497.899,1039.05 496.03,1049.93 C491.705,1075.1 487.783,1100.34 483.475,1125.52 C479.978,1145.95 476.343,1166.37 472.432,1186.73 C467.518,1212.31 462.146,1237.81 457.249,1263.39 C456.301,1268.35 454.805,1271.26 449.107,1269.67" fill="#797979"/>
    <path d="M635.688,1037.81 C635.622,1037.81 636.122,1037.81 636.621,1037.8 C643.368,1037.69 643.081,1037.71 643.552,1044.41 C645.009,1065.09 646.716,1085.75 648.305,1106.43 C649.387,1120.49 650.312,1134.57 651.53,1148.62 C652.991,1165.47 654.656,1182.3 656.296,1199.14 C657.645,1213 659.026,1226.86 660.511,1240.71 C661.253,1247.63 662.113,1254.55 663.187,1261.42 C664.234,1268.12 663.968,1268.67 657.362,1268.62 C648.211,1268.54 639.082,1268.93 629.974,1269.77 C626.718,1270.07 625.139,1269.34 624.295,1265.52 C614.614,1221.8 606.702,1177.74 598.819,1133.67 C593.449,1103.66 588.889,1073.5 583.831,1043.42 C583.264,1040.05 584.818,1039.89 587.325,1039.82 C597.291,1039.55 607.256,1039.21 617.219,1038.81 C623.19,1038.56 629.155,1038.17 635.688,1037.81" fill="#797979"/>
    <path d="M548.79,1024.69 C531.806,1024.69 514.81,1025.07 497.839,1024.59 C476.071,1023.98 454.323,1022.67 432.565,1021.68 C428.814,1021.51 427.148,1020.65 428.056,1015.96 C430.487,1003.4 433.236,990.917 435.815,978.392 C436.613,974.519 438.17,973.266 442.195,973.91 C469.47,978.274 496.978,980.477 524.548,981.467 C564.514,982.901 604.372,981.443 643.87,974.544 C646.96,974.004 648.008,974.689 648.502,977.617 C650.713,990.715 653.032,1003.8 655.378,1016.87 C655.954,1020.08 655.351,1021.58 651.526,1021.85 C617.318,1024.22 583.083,1025.49 548.79,1024.69" fill="#9C9C9C"/>
    <path d="M733.521,495.868 C717.322,493.236 702.791,487.456 692.502,473.854 C679.711,456.943 679.768,438.717 688.005,420.212 C696.706,400.666 710.93,386.768 732.501,382.566 C747.959,379.554 762.092,383.484 774.198,394.014 C781.237,400.137 785.937,407.902 790.437,415.862 C772.309,427.077 757.484,441.529 746.759,460.081 C740.291,471.27 736.404,483.373 733.521,495.868" fill="#FFD5BA"/>
    <path d="M329.278,390.077 C332.42,388.618 335.494,386.988 338.714,385.728 C362.488,376.422 385.811,383.508 400.385,404.644 C408.229,416.021 413.655,428.336 413.583,442.548 C413.514,456.108 407.612,467.177 398.873,476.952 C394.234,482.141 389.237,487.021 383.434,490.971 C370.933,470.762 359.821,449.776 348.779,428.758 C342.065,415.977 335.764,402.978 329.278,390.077" fill="#FFD5BA"/>
    <path d="M336.601,214.559 C315.788,245.8 302.74,279.035 294.132,315.552 C288.887,303.386 284.059,292.468 279.462,281.454 C272.861,265.642 266.478,249.738 259.872,233.928 C258.74,231.219 258.653,229.712 261.637,228.022 C270.428,223.041 276.787,215.617 281.19,206.566 C282.431,204.017 283.174,202.762 286.433,204.694 C301.49,213.62 317.829,217.104 336.601,214.559" fill="#DBA76F"/>
    <path d="M383.917,1354.84 C377.073,1354.94 370.252,1354.8 363.661,1352.71 C358.155,1350.97 357.141,1348.42 359.934,1343.32 C362.229,1339.13 365.82,1336.17 369.798,1333.63 C379.018,1327.77 389.131,1324.06 399.712,1321.67 C404.428,1320.6 407.213,1318.23 408.598,1313.49 C411.167,1304.69 412.779,1295.7 414.335,1286.71 C414.751,1284.31 415.368,1283.22 417.984,1283.25 C428.629,1283.37 439.251,1283.84 449.865,1284.66 C451.883,1284.82 452.224,1285.32 451.773,1287.32 C447.363,1306.93 442.534,1326.43 437.084,1345.77 C436.414,1348.15 435.026,1348.68 432.879,1349.09 C416.698,1352.25 400.417,1354.46 383.917,1354.84" fill="#FEF8EA"/>
    <path d="M628.648,1285 C640.26,1283.78 651.544,1283.39 662.847,1283.26 C665.273,1283.23 666.228,1283.95 666.651,1286.54 C668.101,1295.38 669.758,1304.19 672.195,1312.85 C673.633,1317.96 676.393,1320.58 681.59,1321.76 C692.657,1324.26 703.246,1328.19 712.695,1334.67 C716.714,1337.43 720.226,1340.66 721.913,1345.49 C723.075,1348.81 722.133,1350.93 718.843,1352.15 C714.105,1353.91 709.186,1354.61 704.177,1354.75 C685.278,1355.31 666.717,1352.55 648.199,1349.19 C645.412,1348.68 644.321,1347.43 643.623,1344.93 C638.118,1325.27 633.29,1305.43 628.648,1285" fill="#FEF8EA"/>
    <path d="M792.573,610.54 C780.176,613.752 767.701,616.433 754.774,615.851 C745.336,615.427 736.104,614.434 729.905,605.901 C729.233,604.976 728.297,604.827 727.269,604.862 C720.848,605.079 714.446,604.317 708.108,606.753 C695.074,611.762 681.27,613.91 667.66,616.732 C666.195,616.372 664.937,615.697 663.685,614.243 C679.034,608.376 693.591,601.627 707.295,593.093 C721.344,584.343 734.266,574.203 745.712,562.262 C748.156,559.714 749.291,559.076 752.099,562.044 C765.511,576.225 782.417,582.485 801.706,582.85 C804.688,582.907 807.672,582.858 811.6,582.858 C806.404,588.903 800.578,593.148 794.856,597.482 C789.412,601.604 788.81,604.687 792.573,610.54" fill="#DBA76F"/>
    <path d="M903.352,514.666 C912.318,514.836 919.172,518.882 925.678,523.624 C931.754,528.052 936.958,533.454 942.127,538.892 C950.154,547.335 958.548,555.444 966.299,564.131 C977.343,576.511 977.414,587.445 965.311,602.485 C960.567,608.38 953.112,609.737 947.853,606.521 C943.367,603.778 940.898,594.205 943.441,588.338 C944.754,585.308 946.656,582.535 948.273,579.635 C950.375,575.862 950.465,572.119 946.954,569.283 C943.529,566.517 939.997,567.145 936.534,569.886 C931.463,573.899 925.932,576.898 919.112,574.821 C913.658,573.159 911.319,569.416 912.46,563.772 C913.654,557.861 915.549,552.298 920.564,548.215 C923.957,545.453 924.299,541.124 921.756,537.953 C919.087,534.623 915.67,534.107 911.933,536.022 C908.207,537.932 905.022,540.627 901.807,543.269 C899.75,544.959 897.748,546.737 895.565,548.248 C887.572,553.779 878.427,549.434 877.433,539.701 C877.086,536.306 877.483,533.016 879.198,530.036 C884.675,520.522 892.893,515.361 903.352,514.666" fill="#FEF8EA"/>
    <path d="M137.052,152.874 C136.509,145.305 140.556,138.71 147.942,133.841 C153.108,130.436 158.698,127.901 164.426,125.646 C178.775,119.997 192.207,112.071 207.325,108.338 C225.811,103.774 239.851,110.644 245.106,126.698 C247.03,132.575 246.86,138.164 243.305,143.382 C238.447,150.511 229.44,150.68 224.661,143.507 C221.075,138.124 218.066,132.359 214.69,126.832 C213.152,124.315 210.971,122.607 207.796,122.58 C202.076,122.531 198.291,128.183 201.042,133.408 C204.051,139.123 203.949,144.89 202.76,150.863 C201.49,157.249 196.431,160.252 190.123,158.394 C184.86,156.843 181.335,153.149 178.605,148.629 C175.393,143.31 172.414,141.661 168.328,143.189 C164.384,144.663 162.715,148.27 163.878,154.094 C165.125,160.338 165.372,166.205 161.316,171.707 C155.765,179.236 146.8,179.258 141.458,171.501 C137.908,166.346 137.149,160.436 137.052,152.874" fill="#FEF8EA"/>
    <path d="M827.625,154.877 C805.85,171.15 782.03,182.61 754.7,185.74 C746.881,186.636 740.143,182.705 736.336,175.311 C734.947,172.614 737.429,173.128 738.494,172.732 C748.929,168.846 758.328,163.413 765.601,154.783 C776.022,142.416 780.253,127.883 780.678,111.961 C780.768,108.588 779.601,105.082 781.405,101.822 C798.827,117.751 814.621,135.099 827.625,154.877" fill="#FEFEFE"/>
    <path d="M858.015,563.697 C869.103,563.706 884.886,575.242 888.277,585.814 C890.582,593.002 887.434,598.353 879.993,599.853 C875.626,600.734 871.376,600.271 867.354,598.381 C858.216,594.086 851.734,587.241 848.24,577.746 C844.747,568.256 847.99,563.688 858.015,563.697" fill="#FEF8EA"/>
    <path d="M513.77,631.041 C537.829,633.19 561.414,633.183 585.035,630.951 C582.546,641.689 568.408,650.797 552.933,651.781 C533.249,653.033 519.111,645.689 513.77,631.041" fill="#FEF8EA"/>
    <path d="M812.49,406.482 C812.49,397.258 812.536,387.992 812.459,378.728 C812.438,376.272 813.98,376.214 815.704,376.052 C823.616,375.307 830.15,379.059 833.312,386.31 C835.118,390.453 835.939,394.855 836.435,399.327 C836.66,401.356 836.543,402.77 833.786,402.81 C826.284,402.919 819.043,404.786 812.49,406.482" fill="#FEF8EA"/>
    <path d="M897.081,569.945 C895.523,568.741 893.717,567.778 894.06,565.522 C894.102,565.245 895.324,564.812 895.798,564.989 C898.525,566.008 896.504,568.266 897.081,569.945" fill="#F46D5C"/>
    <path d="M685.654,362.617 C685.815,372.08 683.42,378.394 679.084,383.893 C670.273,395.069 655.677,393.671 649.407,380.808 C643.862,369.433 645.019,357.786 650.311,346.635 C651.845,343.404 651.892,341.238 650.039,338.212 C647.214,333.598 646.381,328.291 646.493,322.858 C646.556,319.786 648.266,318.131 651.065,318.002 C653.684,317.881 655.423,319.462 655.805,322.184 C656.082,324.161 656.184,326.164 656.502,328.134 C657.473,334.15 658.497,335.008 664.371,334.722 C668.896,334.501 672.432,336.526 675.391,339.648 C682.098,346.727 685.144,355.339 685.654,362.617" fill="#6E4100"/>
    <path d="M416.127,363.187 C416.52,356.603 417.906,350.289 421.357,344.641 C422.582,342.636 421.806,341.388 420.859,339.772 C417.938,334.792 416.616,329.366 416.508,323.591 C416.448,320.398 417.826,318.305 420.936,318.042 C424.162,317.769 425.716,319.86 426.034,322.943 C426.239,324.928 426.242,326.966 426.719,328.885 C427.674,332.726 428.363,336.791 434.317,334.853 C437.213,333.911 440.146,335.447 442.697,337.22 C457.591,347.568 460.173,372.578 447.669,385.59 C439.542,394.048 427.961,393.165 421.109,383.592 C416.706,377.44 416.087,370.391 416.127,363.187" fill="#6E4100"/>
    <path d="M553.86,500.322 C568.259,500.286 579.711,505.144 590.285,512.523 C593.409,514.703 594.9,517.622 592.63,521.032 C590.202,524.68 586.957,524.349 583.576,521.961 C571.812,513.654 559.004,509.95 544.52,512.697 C537.461,514.035 531.299,516.93 525.692,521.248 C524.243,522.364 522.903,523.629 521.408,524.676 C518.447,526.749 515.375,526.918 512.973,524.001 C510.727,521.271 511.269,518.341 513.814,515.993 C522.848,507.658 533.28,502.189 545.655,500.897 C548.792,500.57 551.951,500.451 553.86,500.322" fill="#6E4100"/>
    <path d="M459.127,238.825 C447.764,235.405 435.824,231.878 426.127,223.552 C423.695,221.463 422.373,218.445 425.234,215.773 C427.899,213.284 430.317,214.456 433.013,216.733 C440.504,223.062 449.788,225.859 458.924,228.842 C460.182,229.252 461.556,229.463 462.673,230.113 C464.899,231.409 465.116,233.637 464.423,235.806 C463.744,237.931 461.918,238.758 459.127,238.825" fill="#6E4300"/>
    <path d="M552.988,391.396 C551.076,391.348 548.957,390.76 547.583,388.933 C545.594,386.286 543.466,383.636 542.085,380.667 C540.406,377.059 540.961,373.475 544.54,370.996 C547.818,368.725 552.053,369.421 554.706,372.822 C556.534,375.164 558.24,377.658 559.608,380.288 C562.346,385.553 559.036,391.232 552.988,391.396" fill="#6E4100"/>
    <path d="M818.314,308.649 C818.331,314.555 813.571,317.864 807.771,316.36 C789.002,311.496 770.997,304.536 753.953,295.363 C689.013,260.412 636.708,211.562 595.56,150.55 C594.536,149.032 593.465,147.529 592.617,145.914 C590.614,142.101 591.661,138.074 595.107,135.855 C598.572,133.622 603.21,134.535 605.57,138.296 C615.953,154.838 627.638,170.415 640.61,184.982 C681.253,230.623 727.502,268.864 784.408,292.84 C793.306,296.589 802.488,299.557 811.871,301.861 C815.746,302.813 817.779,305.301 818.314,308.649" fill="#6E4100"/>
  </g>
</svg>
