<?xml version="1.0" encoding="UTF-8"?>
<!DOCTYPE svg PUBLIC "-//W3C//DTD SVG 1.1//EN" "http://www.w3.org/Graphics/SVG/1.1/DTD/svg11.dtd">
<svg version="1.1" xmlns="http://www.w3.org/2000/svg" xmlns:xlink="http://www.w3.org/1999/xlink" x="0" y="0" width="905" height="809" viewBox="0, 0, 905, 809">
  <defs>
    <clipPath id="Clip_1">
      <path d="M-0,0.263 L904.294,0.263 L904.294,808.94 L-0,808.94 z"/>
    </clipPath>
  </defs>
  <g id="Layer_1">
    <g clip-path="url(#Clip_1)">
      <path d="M583.024,711.032 C579.801,713.304 576.688,715.731 572.582,718.807 C575.248,700.28 577.717,683.125 580.185,665.97 C580.502,665.992 580.819,666.013 581.136,666.035 C582.167,679.868 583.199,693.7 584.227,707.533 C584.325,708.862 584.379,710.076 583.024,711.032 z M564.876,784.49 C562.981,784.513 562.214,784.094 562.6,781.936 C564.052,773.824 565.321,765.68 566.859,756.33 C572.201,766.112 576.433,775.238 582.666,784.466 C576.093,784.466 570.484,784.422 564.876,784.49 z M382.87,784.495 C376.388,784.394 369.903,784.418 363.42,784.486 C360.736,784.515 361.231,783.436 362.246,781.858 C368.889,771.528 374.126,760.446 379.909,748.173 C381.692,759.946 383.291,770.603 384.934,781.253 C385.206,783.015 385.6,784.537 382.87,784.495 z M359.805,691.668 C362.846,675.092 362.859,657.966 364.305,641.088 C364.533,638.433 365.05,635.681 368.071,632.515 C369.017,661.656 372.264,689.383 375.74,717.554 C374.536,717.133 374.227,717.054 373.943,716.921 C363.198,711.893 357.293,705.36 359.805,691.668 z M824.703,328.143 C823.133,326.676 822.371,325.239 822.074,323.094 C820.48,311.56 819.168,299.956 816.858,288.558 C795.866,184.989 740.513,105.176 650.423,49.873 C608.047,23.86 561.811,7.735 512.468,2.157 C467.826,-2.89 423.748,2.377 380.707,15.262 C362.769,20.632 345.539,27.658 332.261,41.709 C331.031,43.011 329.574,42.753 328.119,42.904 C319.34,43.81 310.618,45.034 302.057,47.279 C267.916,56.236 239.342,74.826 215.077,99.735 C155.061,161.34 119.768,234.358 115.534,321.16 C115.405,323.815 114.434,325.31 112.541,326.929 C99.176,338.359 93.317,352.911 95.07,370.415 C98.488,404.533 101.954,438.647 105.465,472.756 C108.142,498.761 126.464,517.837 150.571,519.452 C154.248,519.698 155.925,520.941 157.501,524.185 C177.436,565.195 205.405,599.593 242.306,626.587 C245.098,628.629 247.869,630.294 251.453,629.525 C254.061,628.966 255.827,627.275 257.113,624.989 C258.361,622.768 257.551,620.297 257.769,617.497 C266.648,623.372 274.895,629.284 283.982,633.882 C291.49,637.681 291.32,637.865 289.652,646.435 C283.713,676.952 276.273,707.176 271.754,737.97 C269.715,751.858 268.155,765.812 273.215,779.371 C275.04,784.262 273.417,784.554 269.162,784.542 C225.17,784.411 181.177,784.459 137.185,784.47 C135.355,784.471 133.455,784.302 131.71,784.72 C127.472,785.733 125.127,788.565 125.23,792.987 C125.332,797.378 127.68,800.149 132.032,800.938 C133.651,801.231 135.353,801.1 137.016,801.1 C186.175,801.107 235.333,801.12 284.491,801.069 C287.406,801.065 289.892,801.772 292.533,803.068 C308.466,810.886 324.575,811.014 340.52,803.143 C343.332,801.755 345.974,801.071 349.044,801.073 C430.863,801.114 512.682,801.115 594.502,801.069 C597.415,801.067 599.915,801.734 602.549,803.051 C618.663,811.108 634.883,810.907 650.958,802.898 C653.435,801.664 655.815,801.056 658.557,801.069 C674.387,801.144 690.218,801.106 706.049,801.106 C726.878,801.106 747.708,801.106 768.538,801.106 C769.704,801.105 770.872,801.144 772.037,801.097 C777.342,800.884 780.858,797.688 781.01,792.97 C781.162,788.262 777.324,784.521 771.873,784.497 C753.376,784.415 734.879,784.463 716.382,784.462 C700.572,784.461 684.762,784.462 668.398,784.462 C671.114,777.238 672.965,770.218 673.232,762.848 C673.808,746.893 670.687,731.363 667.698,715.857 C662.945,691.204 657.778,666.631 652.823,642.017 C652.49,640.365 651.297,638.52 653.628,637.183 C658.497,634.388 663.314,631.501 668.152,628.652 C669.384,628.163 670.672,627.85 671.813,627.101 C685.51,618.112 698.394,608.201 708.639,595.215 C718.283,582.99 725.76,569.832 727.183,553.912 C727.73,547.785 728.892,541.705 728.486,535.513 C728.316,532.94 728.981,531.957 731.935,532.678 C745.644,536.022 758.031,533.954 768.06,523.14 C769.697,521.375 771.532,520.043 774.181,520.516 C777.647,521.135 781.165,521.091 784.646,520.857 C787.677,520.653 788.18,521.793 787.104,524.326 C786.649,525.397 786.267,526.502 785.836,527.585 C775.977,552.338 762.422,575.016 747.079,596.696 C745.761,598.559 743.795,600.082 743.616,602.625 C741.588,605.761 738.66,607.974 735.815,610.284 C731.635,613.678 730.725,618.834 733.588,622.565 C736.528,626.399 741.503,626.861 746.004,623.636 C751.885,619.423 756.761,614.184 760.958,608.342 C782.136,578.869 799.504,547.417 810.422,512.637 C811.071,510.569 811.951,508.77 813.692,507.235 C823.802,498.329 828.867,486.928 830.202,473.623 C833.574,440.003 836.856,406.371 840.607,372.793 C842.582,355.113 837.676,340.263 824.703,328.143" fill="#6E4100"/>
      <path d="M904.122,631.93 C905.213,645.739 898.342,654.237 886.767,659.694 C879.465,663.137 871.658,664.699 863.692,665.598 C860.34,665.977 857.602,665.072 856.689,661.534 C855.753,657.903 857.872,655.903 861.065,654.862 C863.166,654.177 865.038,653.13 866.659,651.679 C871.553,647.3 876.873,642.7 875.367,635.379 C873.686,627.204 866.449,623.876 859.792,620.357 C857.865,619.337 857.576,620.685 857.13,622.022 C849.046,646.28 839.616,670.089 832.589,694.693 C830.023,703.68 823.73,708.08 815.437,710.282 C807.198,712.469 798.934,711.999 790.906,709.027 C783.727,706.37 777.502,702.359 776.33,694.148 C775.043,685.128 778.643,677.618 786.16,672.64 C797.948,664.834 810.473,664.016 822.912,671.053 C826.219,672.925 826.815,672.165 827.851,669.136 C837.258,641.622 846.807,614.157 856.281,586.666 C859.489,577.358 862.594,576.232 870.739,581.984 C881.708,589.731 891.37,598.808 898.274,610.5 C902.23,617.199 905.03,624.238 904.122,631.93" fill="#FF7164"/>
      <path d="M53.785,157.079 C42.219,139.721 30.607,122.291 18.993,104.863 C13.365,96.417 7.7,87.996 2.118,79.52 C-1.577,73.91 -0.511,70.29 5.9,68.091 C22.499,62.397 39.425,59.279 56.758,64.371 C76.148,70.068 84.382,85.035 79.162,104.476 C77.34,111.263 74.26,117.518 70.533,123.475 C68.678,126.439 66.202,127.765 62.976,126.299 C59.807,124.86 59.676,121.936 60.519,119.001 C62.308,112.775 61.426,106.83 58.829,101.045 C56.658,96.21 52.692,94.148 47.597,94.359 C42.371,94.574 37.537,96.374 32.86,98.641 C31.256,99.418 30.535,100.021 31.809,101.921 C45.33,122.1 58.072,142.849 72.511,162.343 C79.243,171.431 81.245,179.69 76.711,189.428 C71.352,200.937 63.18,209.882 49.898,211.663 C39.019,213.122 29.919,203.711 29.312,191.48 C28.642,177.97 37.921,163.68 50.547,158.818 C51.621,158.405 52.839,158.321 53.785,157.079" fill="#FF7164"/>
    </g>
    <path d="M668.152,628.652 C677.206,621.646 686.978,615.564 695.303,607.62 C708.85,594.692 720.479,580.398 724.639,561.63 C726.898,551.437 727.837,540.959 727.153,530.062 C732.343,531.643 737.065,532.961 742.134,533.025 C752.069,533.149 760.421,529.789 767.029,522.474 C769.482,519.758 771.681,518.549 775.586,519.334 C780.083,520.237 784.832,519.986 790.189,518.835 C788.42,525.198 785.884,530.656 783.52,536.183 C773.648,559.262 760.268,580.285 745.768,600.649 C745.215,601.425 744.34,601.971 743.616,602.625 C735.469,607.422 727.358,612.281 719.167,617.004 C705.045,625.147 689.759,629.134 673.499,629.507 C671.673,629.549 669.82,629.649 668.152,628.652" fill="#DBA76F"/>
    <path d="M82.937,585.658 C87.087,585.653 90.593,588.534 91.238,592.807 C94.29,613.017 103.47,629.435 120.615,641.087 C124.629,643.815 125.503,648.665 123.106,652.525 C120.615,656.538 115.767,657.761 111.327,655.051 C98.121,646.991 89.189,635.136 82.411,621.525 C78.388,613.447 75.717,604.91 74.757,595.888 C74.146,590.147 77.716,585.664 82.937,585.658" fill="#6E4100"/>
    <path d="M114.263,563.211 C118.989,563.122 122.187,566.062 122.938,571.644 C124.835,585.764 131.088,597.793 140.22,608.503 C143.374,612.202 147.051,615.26 151.101,617.931 C155.904,621.098 157.182,626.091 154.398,630.269 C151.735,634.267 146.722,635.26 142.108,632.078 C121.389,617.793 109.751,597.858 106.338,573.091 C105.554,567.4 109.244,563.305 114.263,563.211" fill="#6E4100"/>
    <path d="M704.188,483.661 C702.142,491.396 698.754,498.608 695.496,505.868 C695.182,506.569 694.641,507.332 693.996,507.699 C682.415,514.274 675.866,525.112 670.14,536.449 C668.153,540.383 665.523,541.447 661.606,541.688 C648.106,542.519 634.809,544.227 622.597,550.784 C598.304,563.828 581.533,582.671 576.433,610.471 C575.965,613.018 574.622,613.69 572.684,614.329 C552.397,621.02 531.583,625.281 510.377,627.621 C476.634,631.346 442.959,630.817 409.38,625.658 C396.385,623.661 383.574,620.85 370.956,617.155 C369.037,616.593 367.559,616.177 367.145,613.472 C361.888,579.118 338.725,554.531 304.44,546.764 C300.072,545.774 295.615,544.913 291.16,544.635 C284.993,544.251 280.535,541.565 277.084,536.553 C272.337,529.659 266.933,523.348 259.583,519.024 C256.417,517.162 253.089,515.07 249.51,514.909 C243.831,514.653 241.528,511.455 239.746,506.764 C237.688,501.348 234.808,496.254 233.25,490.627 C235.034,488.114 236.559,490.236 237.876,491.081 C242.669,494.159 247.773,496.493 253.122,498.425 C262.443,501.792 272.109,502.017 281.719,501.118 C290.309,500.314 297.362,495.517 303.488,489.745 C313.157,480.634 320.3,469.932 321.782,456.319 C323.672,438.965 309.354,408.761 287.125,401.564 C269.814,395.96 254.296,399.624 240.719,411.606 C233.653,417.843 227.895,425.089 224.126,433.824 C223.591,435.064 223.347,436.89 221.249,436.686 C219.593,421.816 217.977,406.943 216.271,392.079 C212.828,362.088 220.324,333.537 228.365,305.232 C240.038,264.141 259.651,227.292 289.75,196.497 C315.68,169.966 346.512,151.217 381.315,138.679 C385.368,137.22 385.805,139.91 386.923,142.074 C403.192,173.584 423.032,202.613 447.099,228.695 C473.098,256.871 503.266,279.424 537.587,296.619 C580.288,318.013 623.791,337.322 669.946,350.108 C684.706,354.198 699.644,357.539 714.955,358.651 C718.726,358.925 718.724,361.27 718.921,363.64 C719.86,374.917 720.482,386.183 719.059,397.5 C717.503,409.878 716.331,422.303 714.992,434.707 C713.768,436.826 712.818,435.53 712.143,434.35 C710.655,431.749 709.449,428.996 708.101,426.318 C692.207,394.766 655.557,389.668 631.442,415.537 C621.995,425.671 616.102,437.639 615.008,451.194 C613.779,466.411 619.864,479.406 632.198,488.579 C645.647,498.582 661.113,501.734 677.606,499.05 C685.576,497.753 692.08,493.404 697.813,487.794 C699.617,486.029 700.964,483.325 704.188,483.661" fill="#FEF8EA"/>
    <path d="M692.246,194.824 C714.68,226.141 729.345,260.807 736.912,298.525 C738.277,305.327 735.391,307.917 728.758,305.97 C692.927,295.452 661.304,276.887 631.81,254.536 C590.201,223.002 554.231,186.055 525.937,141.943 C523.063,137.462 518.051,136.006 513.928,138.39 C509.863,140.74 508.717,145.92 511.623,150.644 C519.926,164.14 529.31,176.888 539.373,189.104 C569.426,225.591 603.863,257.292 643.362,283.361 C667.926,299.573 693.901,312.961 722.186,321.471 C725.569,322.489 726.859,323.966 726.229,327.416 C725.722,330.191 725.483,333.022 725.26,335.839 C724.66,343.41 724.71,343.235 716.974,342.308 C675.033,337.278 635.957,322.72 597.524,306.199 C568.766,293.838 540.23,280.859 513.954,263.678 C473.494,237.223 442.307,201.824 416.97,161 C408.271,146.984 400.459,132.483 393.568,117.487 C390.897,111.674 387.524,109.507 382.874,110.812 C377.936,112.198 376.158,115.826 376.775,120.752 C377.138,123.655 374.618,123.262 373.149,123.805 C351.497,131.812 331.027,142.1 312.131,155.403 C268.664,186.005 239.092,227.181 220.184,276.45 C215.255,289.295 211.217,302.422 207.665,316.72 C205.573,312.374 203.482,309.039 201.003,305.975 C199.657,304.311 200.183,302.46 200.537,300.711 C217.31,217.913 262.897,155.879 336.173,114.417 C375.393,92.225 417.935,81.292 463.106,80.552 C531.798,79.427 592.551,100.737 645.537,144.377 C657.383,154.134 668.22,164.909 678.092,176.657 C675.458,179.833 671.68,181.263 668.167,183.061 C665.792,184.277 665.752,185.286 667.213,187.604 C672.223,195.553 678.825,198.429 687.85,195.256 C689.244,194.766 690.732,194.462 692.246,194.824" fill="#DBA76F"/>
    <path d="M710.132,540.533 C711.294,564.234 698.806,582.081 681.447,597.4 C669.921,607.57 656.849,615.573 643.773,623.539 C634.846,628.978 633.691,631.151 635.669,641.48 C638.547,656.504 641.755,671.464 644.701,686.475 C649.273,709.782 655.078,732.886 656.464,756.728 C656.765,761.913 656.314,767.042 654.903,772.034 C649.74,790.293 626.732,798.268 609.663,787.793 C603.852,784.227 599.462,779.272 595.778,773.667 C588.826,763.089 583.629,751.558 577.822,740.356 C576.271,737.363 576.68,735.632 579.641,734.175 C581.117,733.448 582.486,732.429 583.749,731.359 C585.256,730.083 586.187,729.71 587.605,731.73 C590.152,735.356 593.933,735.979 597.822,734.267 C601.66,732.577 602.734,729.212 602.422,725.169 C600.807,704.273 599.374,683.362 597.646,662.475 C596.675,650.744 595.423,639.088 593.227,627.436 C589.62,608.298 598.035,592.672 611.207,579.5 C623.904,566.802 639.318,559.669 657.438,558.776 C660.59,558.62 663.728,557.836 666.867,557.869 C675.729,557.96 680.92,553.378 684.333,545.582 C687.34,538.715 691.358,532.349 696.579,526.883 C698.963,524.387 701.543,521.239 705.433,522.608 C709.145,523.913 709.849,527.714 710.275,531.266 C710.611,534.072 710.981,536.888 710.132,540.533" fill="#FEF8EA"/>
    <path d="M365.257,731.645 C367.517,732.157 368.179,733.287 367.13,735.542 C360.685,749.4 354.616,763.454 345.791,776.054 C336.643,789.117 324.236,794.422 308.526,791.264 C297.659,789.079 291.108,782.179 288.239,771.612 C285.134,760.181 287.035,748.801 288.787,737.468 C293.515,706.891 300.994,676.849 306.685,646.458 C306.776,645.969 306.983,645.501 307.071,645.012 C309.68,630.55 309.14,629.349 296.56,621.758 C283.145,613.663 269.935,605.258 258.964,593.905 C244.903,579.352 239.008,561.269 237.188,541.612 C236.841,537.874 236.76,533.352 240.578,531.255 C244.357,529.18 247.926,531.968 251.246,533.751 C255.607,536.094 258.873,539.747 261.444,543.845 C268.65,555.334 278.924,560.369 292.41,561.811 C316.039,564.337 334.421,575.789 345.249,597.692 C350.996,609.318 352.286,621.251 348.705,633.986 C345.865,644.089 346.235,654.762 345.334,665.188 C343.659,684.581 342.417,704.012 340.925,723.421 C340.446,729.652 341.937,733.135 346.04,734.596 C350.265,736.101 353.751,734.529 357.212,729.559 C360.186,729.127 362.432,731.5 365.257,731.645" fill="#FEF8EA"/>
    <path d="M330.205,59.821 C333.525,59.745 336.846,59.685 340.166,59.592 C347.144,59.397 349.94,56.968 350.245,50.123 C350.36,47.564 351.873,46.692 353.526,45.633 C366.417,37.369 380.622,32.314 395.333,28.462 C419.874,22.035 444.838,18.816 470.165,17.521 C517.804,15.085 562.447,26.772 605.618,45.499 C639.822,60.335 670.323,80.946 697.792,106.09 C699.736,107.87 701.955,109.428 703.246,111.843 C705.76,116.036 705.854,120.523 705.137,125.217 C704.417,129.925 704.347,134.732 703.012,139.348 C702.513,141.072 702.184,142.932 700.201,143.71 C685.393,128.115 669.587,113.647 652.064,101.124 C612.422,72.795 568.62,54.571 520.517,46.551 C496.913,42.615 473.159,41.43 449.38,42.937 C387.34,46.868 330.984,67.111 281.277,104.536 C223.091,148.346 184.796,205.697 166.905,276.466 C166.417,278.398 165.825,280.316 165.51,282.277 C164.112,290.956 162.815,299.428 153.148,303.601 C150.396,304.788 148.669,308.351 146.472,310.824 C144.586,308.111 146.012,305.313 146.547,302.704 C154.065,266.013 165.543,230.682 183.011,197.427 C195.057,174.494 209.529,153.359 227.183,134.255 C242.134,118.077 257.973,102.972 275.339,89.491 C290.636,77.617 306.913,67.324 325.381,60.945 C326.923,60.293 328.666,60.497 330.205,59.821" fill="#DBA76F"/>
    <path d="M557.052,707.638 C553.317,732.129 549.558,756.617 545.878,781.116 C545.476,783.792 544.247,784.524 541.596,784.52 C496.458,784.44 451.319,784.461 406.181,784.466 C404.205,784.466 402.391,784.844 401.939,781.805 C398.515,758.783 394.826,735.799 392.351,712.646 C394.576,710.637 397.343,711.069 399.959,711.061 C415.931,711.012 431.903,711.04 447.875,711.037 C472.317,711.031 496.703,709.636 521.094,708.223 C531.214,707.637 541.335,707.126 551.437,706.269 C553.432,706.1 555.459,706.046 557.052,707.638" fill="#FEFB82"/>
    <path d="M221.249,436.686 C225.581,427.266 231.156,418.858 238.708,411.521 C260.142,390.696 293.858,393.817 310.76,418.443 C316.881,427.362 321.115,437.043 322.977,447.629 C324.176,454.447 323.099,461.289 320.362,467.652 C313.373,483.905 302.733,497.052 285.035,501.608 C271.732,505.033 258.379,502.653 245.667,496.991 C241.386,495.084 238.09,491.352 233.25,490.627 C226.026,473.364 221.574,455.484 221.249,436.686" fill="#FFDBC4"/>
    <path d="M704.188,483.661 C701.013,486.579 698.005,489.707 694.635,492.38 C679.721,504.212 663.23,502.88 646.5,497.556 C630.472,492.455 619.879,481.688 615.081,465.525 C611.594,453.779 614.124,442.598 619.054,431.79 C625.585,417.471 635.745,406.512 650.506,400.839 C672.619,392.34 696.581,401.811 707.762,422.82 C709.637,426.341 711.393,429.935 712.989,433.589 C713.482,434.719 713.75,435.334 714.992,434.707 C714.129,451.63 710.265,467.889 704.188,483.661" fill="#FFDBC4"/>
    <path d="M557.052,707.638 C528.451,709.921 499.796,711.495 471.133,712.357 C444.893,713.146 418.613,712.602 392.351,712.646 C388.869,689.271 386.571,665.777 385.203,642.185 C385.018,638.996 385.796,638.204 389.035,638.949 C395.347,640.401 401.748,641.493 408.148,642.514 C410.089,642.824 410.781,643.473 411.339,645.434 C418.788,671.618 440.987,688.347 468.167,688.674 C479.261,688.807 490.104,687.649 500.427,683.424 C518.024,676.221 528.947,663.24 533.041,644.693 C533.6,642.163 534.363,641.045 536.966,640.63 C546.979,639.036 556.802,636.544 567.779,633.475 C564.147,658.587 560.6,683.112 557.052,707.638" fill="#FEFEFE"/>
    <path d="M777.195,329.268 C775.778,343.492 774.405,357.721 772.937,371.94 C771.076,389.962 769.13,407.975 767.233,425.993 C764.987,447.316 762.753,468.641 760.514,489.965 C760.115,493.768 759.816,497.583 759.305,501.371 C758.046,510.702 749.592,517.565 740.802,516.487 C731.292,515.322 724.396,506.573 725.386,497.044 C728.717,464.971 731.99,432.892 735.338,400.82 C737.891,376.354 740.573,351.901 743.097,327.432 C744.064,318.068 751.655,311.277 761.05,311.691 C770.246,312.096 777.264,319.735 777.195,329.268" fill="#9C9C9C"/>
    <path d="M210.31,497.229 C210.519,508.016 203.458,515.913 194.107,516.527 C185.068,517.12 177.186,509.65 176.199,500.014 C173.033,469.097 169.695,438.198 166.47,407.288 C163.762,381.336 161.044,355.385 158.494,329.417 C157.68,321.128 165.197,312.602 173.595,311.727 C182.576,310.792 191.214,316.772 192.279,325.31 C194.171,340.48 195.661,355.7 197.266,370.906 C199.532,392.391 201.77,413.88 203.98,435.372 C205.783,452.898 207.523,470.431 209.301,487.959 C209.653,491.432 210.055,494.9 210.31,497.229" fill="#9C9C9C"/>
    <path d="M824.309,366.336 C822.557,383.761 820.781,401.794 818.922,419.818 C817.081,437.676 815.012,455.512 813.311,473.383 C811.696,490.347 797.152,503.363 780.142,502.857 C777.241,502.771 776.158,502.282 776.517,498.917 C780.555,461.065 784.405,423.193 788.305,385.327 C789.974,369.122 791.719,352.925 793.247,336.707 C793.582,333.16 794.878,332.224 798.314,332.939 C813.638,336.125 824.686,349.948 824.309,366.336" fill="#BEBEBE"/>
    <path d="M111.497,364.401 C111.567,349.261 123.033,335.641 137.848,332.881 C140.976,332.298 142.075,333.025 142.427,336.495 C147.548,386.991 152.857,437.469 158.117,487.951 C158.497,491.592 158.706,495.259 159.267,498.872 C159.763,502.063 158.488,502.785 155.501,502.866 C138.582,503.323 124.219,490.566 122.406,473.171 C118.747,438.083 115.128,402.99 111.512,367.897 C111.394,366.744 111.497,365.567 111.497,364.401" fill="#BEBEBE"/>
    <path d="M326.189,61.567 C292.369,74.633 265.569,97.541 240.088,122.47 C188.038,173.392 160.854,236.744 147.123,306.925 C146.87,308.217 146.688,309.524 146.472,310.824 C144.974,314.36 137.641,317.692 133.852,316.596 C131.784,315.998 132.786,314.369 132.866,313.293 C136.424,265.411 150.124,220.747 174.928,179.495 C193.848,148.03 215.739,119.106 244.508,95.901 C265.931,78.621 289.637,66.009 317.056,61.229 C319.783,60.753 322.527,60.37 325.263,59.943 C326.037,60.219 326.484,60.681 326.189,61.567" fill="#FEFEFE"/>
    <path d="M750.086,168.6 C755.9,175.289 759.876,183.163 764.119,190.825 C785.224,228.939 798.083,269.765 803.946,312.873 C804.375,316.027 803.719,316.887 800.361,316.554 C794.699,315.993 790.075,314.821 787.412,308.828 C785.84,305.291 782.461,302.514 778.903,300.602 C776.083,299.086 775.05,296.848 774.53,293.913 C767.35,253.399 751.993,216.157 729.539,181.764 C729.362,181.493 729.281,181.159 729.155,180.855 C734.766,175.52 741.808,172.359 748.257,168.3 C748.838,167.935 749.523,168.204 750.086,168.6" fill="#DBA76F"/>
    <path d="M180.549,530.983 C184.913,532.276 189.096,532.975 193.419,532.989 C205.783,533.029 215.051,527.572 221.942,517.558 C222.654,516.522 223.061,513.913 224.769,515.257 C226.159,516.35 228.128,518.515 226.555,520.857 C215.72,536.998 220.835,553.301 225.893,569.636 C231.186,586.735 240.519,601.203 254.853,613.243 C238.819,609.025 189.453,554.045 180.549,530.983" fill="#DBA76F"/>
    <path d="M429.474,645.362 C437.996,645.794 446.379,646.337 454.77,646.619 C473.89,647.263 492.972,646.497 511.98,644.384 C515.825,643.957 515.877,645.021 514.601,647.975 C509.212,660.452 499.361,667.326 486.502,670.23 C477.173,672.336 467.726,672.561 458.312,670.595 C445.056,667.825 433.488,657.77 429.474,645.362" fill="#FEF8EA"/>
    <path d="M750.086,168.6 C742.832,172.211 736.654,177.662 729.154,180.854 C720.2,167.93 710.484,155.599 700.201,143.71 C703.63,133.319 704.45,122.678 703.246,111.843 C716.871,123.801 728.262,137.76 739.123,152.166 C743.085,157.421 747.438,162.453 750.086,168.6" fill="#FEFEFE"/>
    <path d="M692.246,194.824 C687.161,197.647 681.52,197.674 675.964,197.893 C673.487,197.991 672.55,195.496 671.158,193.964 C668.493,191.031 663.954,187.883 664.013,184.9 C664.081,181.516 670.175,181.288 673.279,179.037 C674.712,177.997 676.127,176.708 678.093,176.658 C682.81,182.713 687.528,188.769 692.246,194.824" fill="#FEFEFE"/>
    <path d="M365.257,731.645 C362.127,732.678 359.723,730.911 357.212,729.559 C357.621,728.644 356.218,725.831 359.174,727.575 C361.272,728.812 363.234,730.28 365.257,731.645" fill="#FAF7F5"/>
    <path d="M326.189,61.567 C325.881,61.026 325.572,60.484 325.263,59.943 C326.91,59.902 328.557,59.861 330.204,59.821 C329.19,61.147 327.568,61.077 326.189,61.567" fill="#F6EFE8"/>
    <path d="M470.889,540.949 C446.43,541.567 424.451,534.445 405.072,519.454 C401.317,516.549 400.702,512.47 403.155,509.445 C405.464,506.598 409.404,506.422 412.981,509.006 C448.657,534.778 487.557,534.412 524.328,507.948 C526.081,506.686 527.739,505.29 529.516,504.066 C532.84,501.777 536.113,501.795 538.891,504.897 C541.398,507.698 540.811,511.817 537.392,514.509 C521.628,526.921 504.206,535.892 484.313,539.577 C479.894,540.396 475.438,540.972 470.889,540.949" fill="#6E4100"/>
    <path d="M593.541,408.685 C587.964,408.72 582.569,407.632 577.683,405.021 C574.93,403.549 573.782,404.166 572.312,406.631 C569.978,410.544 566.459,413.396 562.581,415.761 C559.159,417.848 555.819,418.012 553.444,414.375 C551.193,410.927 552.66,408.078 555.713,405.818 C557.178,404.733 558.703,403.698 560.013,402.444 C564.806,397.854 564.874,396.756 561.182,391.308 C558.837,387.849 557.058,384.126 556.002,380.062 C554.632,374.794 556.857,370.116 561.387,368.86 C566.168,367.534 570.369,370.049 572.119,375.286 C575.474,385.324 583.779,391.787 593.39,391.837 C600.799,391.876 605.129,388.167 606.268,380.753 C606.52,379.114 606.553,377.439 606.829,375.805 C607.618,371.12 610.849,368.501 615.506,368.679 C619.987,368.85 623.06,371.976 623.377,376.685 C624.588,394.65 611.445,408.741 593.541,408.685" fill="#6E4100"/>
    <path d="M349.274,408.674 C341.784,404.483 335.419,408.966 329.052,415.118 C325.449,418.599 321.055,417.822 319.156,414.404 C316.921,410.379 318.666,407.471 322.246,405.251 C323.371,404.553 324.375,403.66 325.432,402.854 C328.049,400.855 328.64,399.042 326.402,395.902 C322.449,390.359 321.004,383.83 321.261,376.991 C321.442,372.155 324.308,369 328.766,368.686 C333.336,368.364 336.716,370.914 337.756,375.537 C337.973,376.503 338.012,377.512 338.09,378.505 C338.915,388.948 345.392,393.948 355.379,391.379 C363.6,389.265 369.563,384.301 372.315,375.986 C374.318,369.937 378.438,367.343 383.458,368.962 C388.111,370.463 390.03,375.132 388.346,380.854 C383.579,397.052 367.986,408.659 349.274,408.674" fill="#6E4100"/>
    <path d="M354,192.455 C358.217,192.399 365.185,194.475 370.558,200.462 C373.661,203.919 373.811,207.823 370.81,210.103 C367.444,212.659 364.555,211.745 361.678,208.729 C355.206,201.944 341.423,203.022 336.111,210.706 C333.783,214.072 331.184,215.665 327.361,213.579 C324.001,211.745 323.481,208.087 326.01,204.09 C331.686,195.119 340.423,192.477 354,192.455" fill="#6E4100"/>
    <path d="M469.01,418.168 C466.59,418.032 464.38,417.289 462.914,415.299 C460.951,412.636 458.977,409.944 457.379,407.058 C455.133,403.001 456.346,398.515 459.994,396.084 C463.788,393.555 468.526,394.319 471.457,398.138 C473.267,400.497 474.978,402.973 476.412,405.573 C479.711,411.554 475.649,418.351 469.01,418.168" fill="#6E4100"/>
  </g>
</svg>
