<?xml version="1.0" encoding="UTF-8"?>
<!DOCTYPE svg PUBLIC "-//W3C//DTD SVG 1.1//EN" "http://www.w3.org/Graphics/SVG/1.1/DTD/svg11.dtd">
<svg version="1.1" xmlns="http://www.w3.org/2000/svg" xmlns:xlink="http://www.w3.org/1999/xlink" x="0" y="0" width="906" height="874" viewBox="0, 0, 906, 874">
  <defs>
    <clipPath id="Clip_1">
      <path d="M-0,874 L905.544,874 L905.544,0.324 L-0,0.324 z"/>
    </clipPath>
  </defs>
  <g id="Layer_1">
    <g clip-path="url(#Clip_1)">
      <path d="M630.789,599.898 C628.906,600.202 627.542,601.397 626.065,602.486 C609.204,614.918 591.622,625.875 570.219,628.524 C562.28,629.507 554.274,630.112 546.474,627.615 C540.267,625.628 535.615,621.876 534.049,615.189 C533.533,612.987 532.802,612.182 530.34,613.259 C516.133,619.472 501.373,623.975 486.162,626.981 C485.061,627.198 484.279,627.569 484.161,628.781 C481.211,628.697 480.144,626.483 479.893,624.216 C479.642,621.944 482.05,621.491 483.651,620.805 C499.345,614.082 514.05,605.635 527.729,595.437 C562.243,569.705 586.066,536.039 601.349,496.042 C604.089,488.874 606.613,481.639 608.51,474.208 C609.418,470.653 611.345,468.983 615.065,468.569 C623.013,467.684 630.938,466.547 638.082,462.462 C651.767,454.635 657.91,441.95 659.518,427.126 C660.66,416.592 660.791,405.86 658.022,395.338 C653.742,379.068 641.977,369.459 625.131,369.438 C620.826,369.433 619.521,367.556 619.099,363.973 C618.659,360.239 619.746,357.82 624.021,357.612 C627.036,357.465 629.534,356.172 630.558,353.064 C632.196,348.091 629.372,344.315 623.607,344.331 C613.266,344.358 602.986,343.985 592.738,342.416 C577.051,340.016 561.694,336.268 546.551,331.599 C501.947,317.848 459.678,298.578 418.467,276.917 C399.079,266.727 381.478,253.899 365.079,239.297 C333.191,210.904 308.354,177.177 288.164,139.784 C284.441,132.889 280.632,126.056 277.684,118.781 C277.185,117.547 276.502,116.393 275.743,115.291 C273.757,112.405 270.888,111.91 267.766,112.573 C264.574,113.252 262.767,115.564 262.869,118.67 C263.001,122.664 260.815,124.253 257.554,125.439 C228.932,135.84 202.89,150.75 179.608,170.396 C164.903,182.806 152.057,196.966 140.85,212.589 C138.531,215.822 135.828,218.113 132.144,219.705 C87.251,239.095 56.507,271.914 41.226,318.307 C29.245,354.681 31.398,390.887 44.189,427.104 C50.726,445.614 61.836,460.548 74.014,475.087 C81.079,483.52 89.318,490.925 98.458,497.117 C103.957,500.843 107.382,505.797 110.027,511.735 C119.524,533.051 132.036,552.398 148.018,569.501 C152.001,573.764 156.172,577.786 160.352,581.834 C164.327,585.684 164.015,587.978 159.282,590.865 C151.473,595.629 144.966,601.657 139.86,609.273 C137.176,613.277 135.582,613.453 131.7,610.497 C104.015,589.41 81.79,563.54 64.607,533.341 C43.841,496.844 32.059,457.197 23.962,416.286 C23.671,414.82 23.333,413.346 23.53,411.826 C24.115,408.551 24.269,405.282 23.387,402.026 C22.873,388.724 22.95,375.46 23.781,362.136 C25.101,340.988 27.722,320.056 31.999,299.339 C39.379,263.593 51.051,229.292 67.937,196.893 C81.485,170.898 98.426,147.339 119.25,126.558 C135.655,110.186 152.291,94.169 171.556,81.095 C184.434,72.355 198.038,65.082 212.564,59.516 C216.111,56.892 220.231,57.758 224.169,57.667 C231.193,57.504 232.524,56.63 233.969,49.766 C234.637,46.59 236.772,44.952 239.193,43.467 C248.905,37.513 259.312,33.118 270.185,29.78 C290.641,23.5 311.604,19.832 332.851,17.654 C342.445,16.67 352.052,15.921 361.703,15.621 C389.801,14.747 417.099,19.623 443.991,27.111 C479.083,36.883 511.702,52.144 542.062,72.253 C556.531,81.837 569.956,92.759 582.869,104.321 C585.206,106.414 587.687,108.462 589.018,111.457 C591.396,134.814 586.487,155.785 568.947,172.619 C564.568,176.822 559.456,179.922 554.035,182.521 C550.782,184.08 550.343,185.593 552.926,188.453 C560.872,197.25 560.773,197.308 572.469,195.1 C594.51,190.938 613.862,180.813 632.124,168.263 C632.94,167.702 633.602,166.907 634.652,166.727 C637.577,167.85 638.639,170.65 640.1,172.997 C664.979,212.957 681.432,256.08 688.578,302.672 C691.859,324.063 694.262,345.536 695.792,367.142 C697.124,385.963 697.262,404.814 696.351,423.551 C694.327,465.216 684.27,505.083 666.784,543.079 C658.171,561.794 647.057,578.941 635.547,595.895 C634.359,597.645 633.353,599.731 630.789,599.898" fill="#DBA76F"/>
      <path d="M588.247,111.884 C574.544,97.477 558.912,85.378 542.51,74.292 C497.352,43.769 447.589,25.226 393.576,18.355 C372.868,15.721 352.044,16.887 331.344,19.167 C307.847,21.754 284.634,25.855 262.301,33.954 C253.835,37.025 245.698,40.777 238.117,45.692 C236.159,46.961 235.19,48.337 235.163,50.897 C235.104,56.316 232.119,58.969 226.663,59.123 C223.669,59.208 220.665,59.36 217.68,59.211 C215.872,59.122 214.379,59.238 213.429,60.969 C204.461,61.519 195.732,63.492 187.18,66.032 C161.094,73.779 138.944,88.214 119.107,106.553 C91.142,132.406 69.636,163.001 51.893,196.525 C34.921,228.592 24.81,262.66 20.529,298.573 C18.717,313.778 17.165,329.043 17.8,344.346 C18.524,361.788 20.09,379.192 22.904,396.458 C23.407,399.547 23.898,402.651 24.286,405.763 C23.943,407.834 25.369,409.865 24.43,411.95 C31.16,447 40.491,481.247 55.836,513.635 C73.901,551.764 99.287,584.021 132.773,609.839 C135.621,612.035 136.929,611.749 138.765,608.73 C143.796,600.453 150.71,593.985 159.314,589.528 C163.085,587.574 162.904,585.865 160.05,583.299 C136.24,561.899 118.858,535.971 106.228,506.707 C105.505,505.032 104.787,503.367 103.147,502.276 C84.863,490.106 70.761,473.88 57.506,456.578 C47.568,443.606 42.764,428.526 38.627,413.463 C23.973,360.111 33.263,310.925 67.344,267.013 C84.543,244.854 106.599,228.802 132.511,218.084 C134.872,217.108 136.811,215.961 138.369,213.767 C168.41,171.453 208.412,142.272 256.833,124.279 C259.694,123.216 262.142,122.715 261.589,118.391 C261.116,114.693 263.592,111.714 267.568,110.932 C271.895,110.08 275.427,111.189 277.533,115.53 C281.382,123.462 285.146,131.446 289.322,139.206 C314.099,185.247 345.925,225.364 388.35,256.528 C408.597,271.401 431.063,282.327 453.596,293.087 C492.094,311.47 531.456,327.599 573.162,337.326 C589.409,341.115 605.816,343.582 622.593,342.726 C629.034,342.397 632.11,344.792 632.486,349.927 C632.89,355.436 630.114,358.562 623.783,359.011 C620.884,359.217 619.75,360.268 620.431,362.967 C620.976,365.133 619.523,368.29 624.236,368.225 C643.119,367.964 655.071,377.338 659.428,396.293 C662.949,411.61 662.99,427.07 657.162,441.965 C649.77,460.856 634.675,468.717 615.372,469.71 C611.746,469.897 610.716,471.193 609.811,474.394 C599.031,512.519 580.992,546.679 553.147,575.146 C533.734,594.993 510.964,610.181 485.544,621.382 C479.776,623.925 479.81,624.003 484.163,628.783 C506.306,652.799 527.303,677.717 544.115,705.874 C550.513,716.59 555.758,727.831 559.769,739.705 C564.344,753.245 562.663,765.863 555.719,778.073 C547.716,792.144 536.707,803.655 524.873,814.474 C515.894,822.684 506.437,830.312 496.59,837.443 C494.407,839.024 494.148,840.116 495.437,842.589 C504.282,859.561 495.41,873.956 476.149,873.853 C468.683,873.813 461.206,874.513 453.731,873.167 C446.197,871.811 439.395,868.959 433.315,864.436 C431.282,862.924 429.981,862.355 427.4,863.844 C421.948,866.989 416.831,863.877 415.083,856.915 C413.824,855.236 414.25,853.447 414.739,851.655 C423.747,818.633 428.493,784.794 433.955,751.097 C438.433,723.475 442.426,695.777 446.247,668.057 C447.52,658.82 448.898,649.596 450.009,640.334 C450.423,636.883 449.521,635.717 445.978,636.683 C435.685,639.487 425.258,641.724 414.728,643.429 C411.361,643.974 409.589,646.205 408.006,648.846 C401.411,659.848 394.854,670.873 388.225,681.855 C386.677,684.419 385.147,687.067 382.299,688.45 C378.108,690.485 372.558,689.01 369.351,684.897 C366.688,681.481 364.529,677.703 362.035,674.163 C359.364,670.372 358.945,670.393 356.036,674.207 C353.913,676.99 352.052,679.962 349.959,682.761 C344.781,689.686 337.808,689.905 332.486,683.144 C324.034,672.409 316.549,660.96 308.41,649.988 C306.27,647.103 303.929,645.43 300.296,644.986 C292.529,644.036 284.807,642.717 277.11,641.273 C272.22,640.355 271.378,640.887 271.742,646.006 C272.651,658.783 273.646,671.556 275.085,684.291 C281.482,740.914 290.442,797.159 299.914,853.33 C300.275,855.467 300.812,857.611 299.418,859.607 C298.21,865.613 295.691,868.02 290.732,867.907 C286.045,867.801 283.329,864.953 282.343,859.122 C276.935,827.139 271.643,795.138 267.047,763.026 C266.837,761.56 266.461,760.117 266.05,758.12 C255.981,768.88 245.864,778.946 234.768,787.974 C225.435,795.567 215.573,802.307 204.282,806.67 C191.087,811.767 180.126,808.329 172.148,796.477 C163.659,783.866 160.855,769.305 158.298,754.695 C156.229,742.874 155.451,730.91 154.527,718.969 C154.372,716.967 153.892,715.64 152.173,714.456 C135.217,702.777 128.14,685.755 126.304,665.999 C125.218,654.316 125.764,642.717 128.961,631.364 C129.621,629.021 128.944,627.753 127.071,626.387 C68.83,583.901 35.64,525.122 17.471,456.805 C5.661,412.401 -1.717,367.378 0.344,321.15 C3.372,253.226 26.635,192.715 66.71,138.282 C89.039,107.952 114.928,81.417 148.162,62.884 C168.465,51.562 190.12,44.491 213.443,42.987 C214.769,42.902 216.021,42.83 217.066,41.722 C230.963,26.987 249.116,19.951 267.889,14.514 C310.692,2.116 354.425,-2.729 398.757,2.263 C435.513,6.403 470.777,16.923 504.042,33.153 C601.977,80.936 665.985,157.367 695.737,262.251 C703.163,288.43 706.344,315.407 709.127,342.391 C711.64,366.752 712.892,391.192 712.03,415.692 C709.824,478.38 693.009,536.6 658.546,589.351 C652.911,597.977 647.566,606.823 640.732,614.62 C637.638,618.15 634.184,621.274 630.363,623.952 C626.088,626.949 621.145,626.23 618.386,622.46 C615.627,618.69 616.358,613.707 620.346,610.524 C624.266,607.394 628.052,604.172 630.789,599.898 C640.129,587.558 648.604,574.63 656.05,561.082 C676.495,523.878 688.842,484.093 693.328,441.878 C696.773,409.453 695.736,377.076 692.439,344.704 C689.656,317.379 686.079,290.216 678.708,263.663 C669.51,230.526 655.5,199.581 636.947,170.661 C636.155,169.427 635.326,168.216 634.515,166.995 C630.829,165.473 629.55,161.76 627.498,158.885 C616.938,144.09 605.344,130.196 592.417,117.42 C590.744,115.767 589.234,114.033 588.247,111.884" fill="#6E4100"/>
      <path d="M299.418,859.607 C294.852,831.369 290.063,803.165 285.772,774.885 C279.357,732.606 273.232,690.279 270.362,647.569 C269.741,638.319 269.929,638.371 278.999,639.996 C286.529,641.345 294.059,642.82 301.654,643.627 C305.071,643.99 306.983,645.424 308.817,648.013 C316.805,659.287 324.917,670.474 333.017,681.669 C338.057,688.636 344.067,688.605 349.039,681.628 C351.744,677.831 354.602,674.128 357.061,670.178 C358.926,667.18 359.908,667.98 361.422,670.391 C364.253,674.902 367.246,679.314 370.276,683.695 C374.702,690.093 381.532,689.982 385.589,683.327 C393.209,670.826 400.768,658.285 408.114,645.622 C409.354,643.487 410.661,642.425 412.962,642.105 C425.007,640.429 436.876,637.845 448.555,634.505 C452.146,633.478 452.444,634.474 452.006,637.6 C443.849,695.752 435.811,753.922 425.258,811.707 C422.48,826.917 419.049,841.975 415.083,856.915 C377.516,857.684 339.949,858.452 302.382,859.237 C301.392,859.258 300.406,859.479 299.418,859.607" fill="#68B2FE"/>
      <path d="M905.441,307.825 C905.533,338.367 893.469,358.388 873.109,374.1 C863.446,381.557 852.503,386.941 841.972,392.97 C828.126,400.895 817.116,411.01 811.748,426.699 C808.734,435.505 798.827,439.472 789.85,436.726 C781.233,434.09 775.63,424.843 778.134,415.79 C783.396,396.766 794.962,382.047 810.778,370.535 C819.409,364.253 828.825,359.244 838.1,354.016 C845.953,349.59 853.549,344.84 859.697,338.082 C875.045,321.212 873.69,299.491 856.447,287.165 C849.701,282.343 842.14,279.496 834.026,277.952 C828.581,276.915 823.119,276.846 817.616,277.177 C807.038,277.813 798.748,271.154 798.092,261.554 C797.33,250.401 803.92,242.756 815.116,241.766 C838.607,239.688 860.174,245.132 878.978,259.416 C896.177,272.482 906.712,289.325 905.441,307.825" fill="#FF7164"/>
    </g>
    <path d="M802.048,479.986 C801.842,493.066 791.427,503.953 779.288,503.777 C767.616,503.607 758.515,493.257 758.837,480.52 C759.171,467.297 769.542,456.747 781.842,457.116 C793.514,457.466 802.246,467.35 802.048,479.986" fill="#FF7164"/>
    <path d="M23.428,405.904 C19.501,384.6 17.024,363.159 16.755,341.463 C15.874,270.241 37.522,206.423 79.548,149.222 C98.011,124.091 119.011,101.548 145.227,84.286 C164.231,71.772 184.834,63.319 207.504,60.351 C209.42,60.1 211.676,58.789 213.429,60.969 C192.303,68.057 173.772,79.749 156.746,93.8 C128.26,117.309 102.224,143.163 82.349,174.634 C57.063,214.672 41.458,258.455 32.301,304.688 C25.943,336.788 23.32,369.213 24.458,401.93 C24.541,403.365 25.927,405.138 23.428,405.904" fill="#FEFEFE"/>
    <path d="M618.22,324.261 C612.124,323.519 605.528,321.15 598.945,318.875 C562.818,306.391 530.563,286.917 500.601,263.528 C460.659,232.347 426.128,196.054 398.302,153.564 C397.482,152.312 396.634,151.059 395.989,149.715 C393.819,145.195 394.979,140.579 398.77,138.289 C402.797,135.857 407.618,136.984 410.417,141.391 C419.45,155.614 429.328,169.218 440.271,182.017 C481.445,230.175 528.904,270.302 587.231,296.43 C597.722,301.13 608.586,304.842 619.743,307.629 C623.03,308.449 625.664,309.905 626.885,313.189 C628.943,318.727 625.099,324.166 618.22,324.261" fill="#6E4100"/>
    <path d="M588.247,111.884 C603.833,125.972 616.95,142.198 629.17,159.196 C631.009,161.753 632.734,164.391 634.513,166.993 C634.387,168.774 632.938,169.411 631.71,170.238 C611.651,183.748 590.326,194.173 566.06,197.696 C561.695,198.329 558.408,197.822 555.795,193.877 C553.615,190.585 548.659,187.494 548.907,184.662 C549.196,181.366 555.179,180.835 558.523,178.79 C577.408,167.238 586.074,149.677 588.135,128.347 C588.661,122.907 588.235,117.374 588.247,111.884" fill="#FEFEFE"/>
    <path d="M23.428,405.904 C24.818,404.85 23.906,403.201 24.457,401.929 C25.562,405.272 26.001,408.613 24.43,411.95 C24.096,409.935 23.762,407.92 23.428,405.904" fill="#DFCAB4"/>
    <path d="M577.175,511.942 C565.34,536.814 548.62,557.913 527.646,575.653 C496.587,601.923 460.112,616.444 420.603,623.75 C371.77,632.779 322.946,632.229 274.29,621.935 C270.877,621.213 268.536,620.026 267.1,616.345 C264.029,608.471 258.794,601.955 252.22,596.63 C244.409,590.302 235.662,587.637 225.44,590.711 C225.44,581.591 225.368,572.767 225.473,563.947 C225.519,560.148 224.797,556.64 222.476,553.621 C221.378,552.193 221.072,550.716 221.088,548.993 C221.142,543.162 221.307,537.321 221.028,531.503 C220.881,528.426 222.18,527.652 224.859,527.041 C291.103,511.923 333.333,471.592 351.418,406.087 C352.299,402.896 353.033,400.776 356.988,400.023 C362.594,398.955 365.179,392.43 361.52,387.871 C356.411,381.509 355.954,374.677 355.972,367.018 C356.149,287.752 296.57,219.195 217.972,207.81 C209.05,206.518 200.112,205.866 191.104,205.985 C182.277,206.101 173.545,207.19 164.04,208.637 C167.93,202.791 172.513,198.388 176.992,193.981 C202.05,169.33 231.335,151.432 264.29,139.294 C268.671,137.68 270.226,138.827 272.131,142.504 C295.997,188.551 326.865,229.017 367.431,261.751 C388.292,278.585 411.551,291.401 435.517,303.103 C473.197,321.499 511.658,337.905 552.096,349.338 C567.805,353.779 583.719,357.232 599.989,358.775 C602.484,359.012 603.28,359.791 603.54,362.215 C605.373,379.33 604.985,396.446 603.723,413.56 C603.393,418.03 602.663,422.47 602.117,426.924 C598.935,426.408 598.415,423.404 597.048,421.3 C589.799,410.144 580.757,400.991 568.109,396.219 C551.03,389.775 534.507,391.901 519.381,401.646 C499.13,414.695 487.281,433.494 485.579,457.664 C484.006,479.993 494.485,496.395 513.412,507.528 C524.705,514.169 537.37,516.789 550.235,517.334 C557.457,517.641 564.81,516.131 571.611,512.989 C573.311,512.204 575.016,510.622 577.175,511.942" fill="#FEF8EA"/>
    <path d="M48.812,368.102 C48.812,287.614 113.707,222.815 194.302,222.826 C274.708,222.837 339.553,288.046 339.181,369.209 C338.805,451.29 270.108,515.209 190.416,513.261 C113.703,511.385 48.587,448.096 48.812,368.102" fill="#FEFEFE"/>
    <path d="M577.175,511.942 C568.83,516.35 559.796,518.806 550.507,518.709 C540.227,518.602 530.065,516.357 520.499,512.45 C501.54,504.707 489.042,491.04 484.787,470.776 C481.921,457.123 485.011,443.952 491.046,431.747 C500.845,411.93 515.756,397.549 537.988,392.684 C555.407,388.871 571.029,393.16 584.714,404.809 C592.05,411.053 597.061,418.969 602.117,426.924 C599.111,454.563 591.745,481 580.181,506.272 C579.293,508.214 578.182,510.055 577.175,511.942" fill="#FFD5BA"/>
    <path d="M469.181,637.275 C496.564,667.519 522.414,697.474 539.845,733.863 C548.356,751.631 545.861,766.518 533.529,781.17 C519.477,797.865 502.951,811.678 485.664,824.745 C483.724,826.21 482.633,825.831 481.12,824.246 C472.707,815.433 463.367,807.68 453.363,800.754 C451.056,799.156 451.646,798.304 453.227,796.727 C463.712,786.266 474.124,775.731 484.552,765.214 C489.938,759.782 489.999,755.864 484.696,750.23 C476.375,741.387 468.06,732.538 459.624,723.806 C457.859,721.979 457.045,720.284 457.423,717.669 C461.156,691.841 464.773,665.997 468.435,640.16 C468.522,639.541 468.745,638.942 469.181,637.275" fill="#FEFEFE"/>
    <path d="M142.357,656.683 C142.867,642.488 145.306,629.704 152.579,618.248 C166.481,596.352 190.705,596.808 209.405,606.636 C211.402,607.685 211.118,608.953 210.842,610.743 C208.481,626.079 212.992,639.335 223.412,650.631 C227.194,654.73 231.821,657.658 237.301,659.074 C238.893,659.485 240.288,659.662 240.461,662.064 C241.958,682.834 222.887,708.305 203.008,711.855 C175.225,716.817 146.7,695.732 143.383,667.745 C142.914,663.783 142.642,659.796 142.357,656.683" fill="#FEF8EA"/>
    <path d="M256.152,679.005 C258.298,696.846 260.401,714.694 262.648,732.523 C262.912,734.62 263.026,736.27 261.467,738.004 C246.42,754.741 231.076,771.148 212.134,783.669 C207.552,786.698 202.708,789.188 197.569,791.212 C192.622,793.16 189.19,791.538 186.399,787.554 C180.725,779.453 178.584,770.022 176.418,760.623 C175.643,757.26 175.197,753.822 174.471,749.678 C183.395,753.112 192.129,754.226 201.11,753.007 C205.95,752.35 210.531,750.927 214.754,748.487 C221.759,744.439 226.212,738.699 225.369,730.23 C224.742,723.934 226.499,719.711 231.903,715.646 C243.729,706.75 250.266,694.006 254.356,679.968 C254.817,679.391 255.048,678.384 256.152,679.005" fill="#FEFEFE"/>
    <path d="M645.122,415.317 C644.352,426.028 643.779,436.865 635.373,445.233 C630.643,449.943 624.678,451.671 618.381,452.793 C615.571,453.294 615.046,452.446 615.616,449.651 C618.946,433.34 620.792,416.841 621.285,400.198 C621.388,396.708 621.62,393.192 621.319,389.728 C620.997,386.009 622.227,384.768 626.002,384.893 C633.795,385.152 639.062,388.602 641.992,396.111 C644.386,402.247 644.622,408.746 645.122,415.317" fill="#FEF8EA"/>
    <path d="M469.162,857.912 C456.846,857.674 446.23,855.272 438.004,846.341 C436.474,844.68 435.865,843.225 436.329,841.053 C438.064,832.924 439.713,824.775 441.355,816.626 C441.72,814.812 441.938,813.116 444.366,814.924 C457.49,824.702 470.186,834.924 479.519,848.644 C480.354,849.872 480.908,851.288 481.635,852.592 C482.907,854.872 481.822,856.014 479.691,856.571 C475.972,857.545 472.21,858.232 469.162,857.912" fill="#FEF8EA"/>
    <path d="M161.32,560.985 C154.586,553.981 148.333,546.256 142.652,538.07 C138.232,531.703 134.091,525.161 130.484,518.235 C132.642,517.311 134.17,518.758 135.784,519.36 C144.649,522.664 153.648,525.51 162.999,526.999 C166.26,527.518 167.736,528.806 167.129,532.144 C167.012,532.787 167.111,533.47 167.112,534.134 C167.127,543.48 168.428,553.07 161.32,560.985" fill="#FEF8EA"/>
    <path d="M226.849,617.901 C227.021,616.418 227.075,614.908 227.39,613.453 C228.92,606.393 233.387,604.326 239.358,608.217 C247.413,613.466 252.264,621.091 254.102,630.453 C255.023,635.142 253.982,639.454 249.154,641.875 C244.592,644.163 240.482,643.367 236.758,640.017 C230.19,634.108 227.352,626.528 226.849,617.901" fill="#FEF8EA"/>
    <path d="M194.01,569.104 C194.342,569.104 194.674,569.104 195.007,569.104 C210.07,569.104 210.7,569.902 208.763,585.166 C208.478,587.411 207.658,587.541 205.91,586.957 C197.961,584.301 189.798,583.027 181.423,583.567 C179.534,583.688 179.069,582.989 179.128,581.392 C179.134,581.226 179.133,581.059 179.12,580.894 C178.174,569.104 178.174,569.104 190.023,569.104 C191.352,569.104 192.681,569.104 194.01,569.104" fill="#68B2FE"/>
    <path d="M194.123,552.465 C183.76,552.465 183.76,552.465 183.761,542.08 C183.762,533.115 183.762,533.115 192.528,533.115 C204.278,533.115 204.278,533.115 204.278,544.985 C204.278,552.465 204.278,552.465 194.123,552.465" fill="#FDFDFD"/>
    <path d="M448.497,776.245 C450.237,765.25 451.969,754.307 453.89,742.169 C459.056,747.645 463.618,752.48 467.792,756.905 C461.346,763.365 455.031,769.696 448.497,776.245" fill="#FDFDFD"/>
    <path d="M377.531,664.144 C373.591,658.265 369.93,652.803 365.816,646.665 C373.587,646.194 380.746,645.76 388.745,645.275 C384.947,651.667 381.394,657.644 377.531,664.144" fill="#FDFDFC"/>
    <path d="M353.109,646.584 C348.602,652.967 344.897,658.215 340.918,663.85 C336.703,657.979 332.723,652.435 328.522,646.584 C336.763,646.584 344.311,646.584 353.109,646.584" fill="#FDFDFD"/>
    <path d="M193.564,736.814 C189.368,736.803 185.402,735.877 181.606,734.05 C179.209,732.896 178.529,730.91 179.277,728.733 C180.086,726.375 182.151,727.983 183.474,728.227 C190.711,729.565 197.929,729.518 205.182,728.528 C206.364,728.366 207.945,727.117 208.626,728.926 C209.311,730.746 208.78,732.524 206.886,733.6 C202.753,735.948 198.292,736.929 193.564,736.814" fill="#68B1FB"/>
    <path d="M256.153,679.005 C255.554,679.326 254.955,679.647 254.356,679.968 C254.088,678.367 254.856,677.12 255.728,675.815 C256.661,676.839 256.275,677.939 256.153,679.005" fill="#CFC3B4"/>
    <path d="M357.36,776.364 C363.502,776.471 368.4,781.564 368.248,787.686 C368.096,793.798 362.923,798.77 356.889,798.602 C350.689,798.429 346.004,793.484 346.103,787.216 C346.201,780.945 351.067,776.255 357.36,776.364" fill="#6E4100"/>
    <path d="M346.101,730.509 C346.135,724.26 351.055,719.402 357.234,719.514 C363.367,719.626 368.335,724.692 368.247,730.743 C368.158,736.87 363.086,741.845 357.011,741.764 C350.81,741.683 346.066,736.789 346.101,730.509" fill="#6E4100"/>
    <path d="M490.266,371.308 C490.288,379.802 489.169,386.092 485.332,391.654 C477.945,402.358 464.767,402.785 456.723,392.589 C447.756,381.222 447.341,366.315 456.094,352.62 C458.015,349.614 458.034,347.516 456.298,344.683 C454.305,341.43 453.032,337.815 452.128,334.086 C451.186,330.202 452.565,327.356 456.323,326.301 C459.912,325.293 462.387,327.141 463.601,330.618 C464.202,332.337 464.642,334.124 465.372,335.785 C466.878,339.208 468.027,342.287 473.197,342.392 C478.177,342.493 481.606,346.747 484.236,350.919 C488.514,357.706 490.159,365.257 490.266,371.308" fill="#6E4100"/>
    <path d="M355.385,525.956 C362.461,526.137 371.484,530.302 376.612,540.992 C378.942,545.851 378.088,549.623 374.449,551.26 C370.983,552.821 368.172,551.221 365.783,546.312 C362.469,539.501 356.578,537.627 349.61,537.972 C343.198,538.29 338.588,541.234 336.297,547.441 C334.443,552.466 331.55,554.43 327.931,552.784 C323.753,550.885 323.613,547.427 324.904,543.498 C328.539,532.439 338.171,525.941 355.385,525.956" fill="#6E4100"/>
    <path d="M247.892,181.445 C255.396,181.474 261.544,182.894 266.217,188.216 C268.867,191.234 269.696,194.605 266.642,197.5 C263.663,200.324 260.233,199.885 257.514,196.647 C255.498,194.246 252.815,193.617 249.933,193.547 C242.7,193.372 236.137,195.349 230.59,200.105 C227.6,202.667 224.543,203.141 221.785,200.213 C218.819,197.065 219.621,193.753 222.63,191.052 C230.025,184.416 238.955,181.813 247.892,181.445" fill="#6E4100"/>
    <path d="M70.773,367.769 C70.78,299.806 126.141,244.621 194.116,244.819 C262.326,245.019 317.343,299.996 317.242,368.025 C317.136,438.952 258.468,492.361 191.597,491.331 C125.45,490.311 70.767,435.23 70.773,367.769" fill="#6E4100"/>
    <path d="M204.791,645.194 C204.653,650.675 200.051,654.664 194.991,653.462 C187.564,651.699 180.147,650.005 172.588,648.862 C168.34,648.219 165.867,644.409 166.19,640.09 C166.505,635.89 169.662,632.404 173.972,632.546 C182.969,632.843 191.73,634.804 200.175,637.879 C203.441,639.069 204.709,642.07 204.791,645.194" fill="#6E4100"/>
    <path d="M176.468,684.056 C171.305,684.064 167.809,681.15 167.303,676.83 C166.775,672.334 169.198,668.753 173.822,667.659 C179.798,666.247 185.8,664.919 191.835,663.793 C197.259,662.782 201.317,665.216 202.297,669.706 C203.434,674.921 200.82,678.657 194.971,680.085 C188.684,681.62 182.466,683.495 176.468,684.056" fill="#6E4100"/>
    <path d="M267.11,291.045 C285.398,307.965 296.162,328.928 299.336,353.487 C306.677,410.291 270.677,460.649 214.691,472.452 C212.915,472.827 211.076,472.896 209.267,473.107 C207.91,471.32 208.81,469.512 209.476,467.901 C216.066,451.941 211.804,437.132 204.469,422.823 C199.315,412.767 192.351,404.034 182.479,398.143 C164.788,387.585 142.234,389.27 125.688,402.068 C120.782,405.862 116.339,410.059 112.634,415.048 C111.46,416.629 110.429,418.422 108.461,419.248 C105.949,419.254 105.431,417.561 105.293,415.543 C105.318,415.033 105.431,414.535 105.613,414.058 C110.943,407.246 117.236,401.256 123.256,395.124 C136.771,381.36 150.005,367.326 163.411,353.464 C176.117,340.326 189.201,327.536 201.375,313.879 C202.662,312.434 203.874,309.479 206.909,311.476 C207.929,316.68 207.88,322.066 209.714,327.132 C210.451,329.169 210.784,331.551 212.114,333.128 C217.024,338.947 215.12,344.388 212.629,350.607 C207.313,363.879 206.745,377.571 212.213,391.032 C215.909,400.132 222.568,406.273 232.576,407.374 C242.222,408.435 248.742,403.079 254.262,395.685 C269.618,375.117 259.437,345.699 244.644,333.951 C240.877,330.96 236.659,329.828 232.027,330.417 C227.742,330.962 225.452,328.934 224.165,325.184 C223.19,322.343 222.018,319.444 222.136,316.468 C222.375,310.426 219.924,306.252 214.533,303.696 C213.161,301.777 214.613,300.456 215.756,299.427 C221.819,293.968 226.341,287.019 232.711,281.897 C234.32,280.603 230.453,280.55 232.471,279.626 C233.951,278.736 235.434,279.314 236.92,279.601 C247.549,281.924 258.067,284.54 267.11,291.045" fill="#FEF8EA"/>
    <path d="M108.289,418.991 C118.024,403.971 131.238,393.788 149.097,390.635 C163.751,388.048 177.231,391.46 188.689,400.981 C203.503,413.29 211.209,429.673 214.087,448.455 C214.85,453.434 213.643,458.346 212.338,463.148 C211.428,466.499 210.299,469.789 209.267,473.107 C192.59,475.95 176.262,474.34 160.307,468.968 C141.681,462.696 125.783,452.316 113.273,436.999 C110.309,432.122 107.505,427.179 106.795,421.365 C106.77,420.245 107.222,419.423 108.289,418.991" fill="#FFD5BA"/>
    <path d="M115.232,296.947 C134.155,275.658 157.856,264.106 186.243,262.104 C186.678,264.746 184.487,265.872 183.057,267.309 C174.19,276.221 165.247,285.057 156.91,294.48 C156.027,295.478 155.127,296.434 154.639,297.699 C149.842,302.276 143.995,305.509 139.178,310.135 C132.184,316.85 126.722,324.732 120.923,332.382 C115.962,335.564 112.488,340.218 108.688,344.571 C105.742,347.945 104.681,347.759 103.076,344.047 C105.552,327.939 108.274,311.896 115.232,296.947" fill="#FEF3DE"/>
    <path d="M115.232,296.947 C112.119,309.462 108.109,321.754 105.85,334.481 C105.244,337.897 104.719,341.328 104.156,344.752 C102.898,347.039 106.446,350.406 102.507,352.091 C102.059,349.831 101.159,350.468 100.033,351.647 C96.169,355.698 92.266,359.712 87.768,364.371 C88.536,339.545 97.245,318.882 111.725,300.421 C112.733,299.137 114.056,298.1 115.232,296.947" fill="#AA9176"/>
    <path d="M236.288,280.969 C235.026,280.325 233.731,279.816 232.269,279.989 C231.27,281.077 229.948,281.249 228.615,281.103 C216.017,279.726 203.515,280.252 191.109,282.876 C190.623,282.979 190.119,282.87 189.634,282.818 C187.305,282.197 187.85,280.676 188.881,279.5 C193.871,273.815 199.255,268.506 204.883,263.457 C205.845,262.594 207.204,262.191 208.575,262.852 C220.518,263.944 231.612,267.775 242.197,273.254 C241.886,277.096 238.354,278.471 236.288,280.969" fill="#FEF3DE"/>
    <path d="M208.575,262.852 C205.605,263.153 204.181,265.618 202.364,267.438 C197.598,272.216 192.959,277.121 188.269,281.975 C187.952,283.06 187.124,283.6 186.145,283.982 C176.568,286.311 167.986,290.984 159.275,295.366 C157.718,296.15 156.332,297.645 154.284,296.993 C153.291,294.721 155.607,294.299 156.548,293.299 C166.383,282.842 176.328,272.487 186.243,262.104 C193.724,261.257 201.174,261.322 208.575,262.852" fill="#FFEBC8"/>
    <path d="M101.038,418.984 C94.573,409.313 91.589,398.356 89.286,387.149 C88.866,385.106 89.96,383.745 91.302,382.375 C94.309,379.305 97.203,376.124 100.144,372.988 C100.372,373.197 100.599,373.406 100.83,373.613 C102.111,375.917 101.755,378.448 101.802,380.911 C102.01,391.832 101.141,402.779 102.638,413.67 C102.819,414.985 102.698,416.32 102.242,417.597 C101.995,418.193 101.592,418.654 101.038,418.984" fill="#AB9276"/>
    <path d="M102.507,352.091 C104.327,349.931 102.338,346.914 104.157,344.753 C105.614,348.584 106.85,344.851 107.228,344.356 C110.339,340.282 113.984,336.726 117.645,333.188 C118.301,332.554 118.701,330.796 120.284,331.977 C120.934,333.633 119.83,334.843 119.142,336.1 C114.026,345.448 110.256,355.318 107.58,365.616 C107.433,366.076 107.237,366.518 107.01,366.944 C104.889,368.948 103.991,372.291 100.565,372.884 L100.144,372.988 C100.932,366.022 101.719,359.057 102.507,352.091" fill="#FFEBC8"/>
    <path d="M236.288,280.969 C236.829,277.303 240.613,276.121 242.197,273.254 C251.445,277.863 259.914,283.563 267.11,291.045 C257.082,286.934 247.18,282.437 236.288,280.969" fill="#FEEAC7"/>
    <path d="M107.299,420.982 C109.29,426.321 111.282,431.66 113.273,436.999 C109.644,433.465 106.721,429.405 104.314,424.962 C104.427,422.974 105.259,421.525 107.299,420.982" fill="#FCC99D"/>
    <path d="M107.299,420.982 C106.304,422.309 105.309,423.635 104.314,424.962 C102.679,423.267 101.69,421.217 101.038,418.984 C101.229,419.085 101.412,419.074 101.589,418.95 C102.53,416.907 103.216,414.56 106.26,415.01 C106.222,416.701 106.481,418.24 108.289,418.991 C107.959,419.655 107.629,420.319 107.299,420.982" fill="#FCE8C5"/>
    <path d="M106.267,366.959 C106.29,366.629 106.313,366.3 106.338,365.97 C108.018,363.266 110.104,360.914 112.372,358.682 C125.668,345.595 138.487,332.023 151.26,318.452 C161.412,307.665 172.629,297.883 181.91,286.276 C183.083,284.81 184.733,283.973 186.277,282.996 C186.941,282.656 187.605,282.316 188.269,281.976 C202.811,278.554 217.484,278.031 232.269,279.988 C234.653,281.772 232.807,282.859 231.635,284.136 C225.833,290.455 220.061,296.801 214.279,303.137 C211.412,305.591 208.56,308.06 206.138,310.976 C195.89,322.75 183.88,332.839 173.805,344.779 C173.27,345.413 172.706,346.027 172.125,346.62 C156.425,362.661 140.616,378.597 125.071,394.785 C118.871,401.242 113.238,408.243 106.289,413.965 C104.063,413.007 103.949,410.88 103.634,408.952 C101.691,397.071 101.477,385.186 103.517,373.279 C103.925,370.895 104.93,368.882 106.267,366.959" fill="#FEFAF2"/>
    <path d="M206.138,310.976 C207.468,306.927 210.268,304.403 214.279,303.137 C221.18,304.937 222.584,306.725 223.15,313.762 C223.389,316.729 223.748,319.744 224.552,322.596 C225.744,326.829 227.086,330.659 233.311,328.983 C237.824,327.768 242.071,330.176 245.733,333.014 C264.938,347.9 268.833,379.502 253.822,398.563 C241.628,414.048 221.044,412.05 212.223,394.127 C204.061,377.543 206.252,360.853 213.682,344.596 C214.844,342.055 215.168,340.42 213.462,337.966 C207.85,329.895 206.182,320.626 206.138,310.976" fill="#6E4100"/>
    <path d="M106.267,366.959 C102.832,382.629 102.433,398.298 106.289,413.965 C106.279,414.313 106.27,414.661 106.26,415.01 C104.703,416.324 103.146,417.637 101.589,418.95 C99.771,403.627 99.454,388.272 100.565,372.884 C102.745,371.178 103.546,368.145 106.267,366.959" fill="#FEF3DE"/>
    <path d="M186.277,282.996 C182.797,286.971 179.483,291.105 175.81,294.892 C160.691,310.481 145.2,325.719 130.382,341.587 C122.578,349.946 114.706,358.19 106.338,365.97 C109.097,353.864 113.685,342.508 120.284,331.977 C128.848,317.624 140.194,305.974 154.284,296.992 C164.442,291.171 174.554,285.243 186.277,282.996" fill="#FEF8EA"/>
  </g>
</svg>
