<?xml version="1.0" encoding="UTF-8"?>
<!DOCTYPE svg PUBLIC "-//W3C//DTD SVG 1.1//EN" "http://www.w3.org/Graphics/SVG/1.1/DTD/svg11.dtd">
<svg version="1.1" xmlns="http://www.w3.org/2000/svg" xmlns:xlink="http://www.w3.org/1999/xlink" x="0" y="0" width="969" height="868" viewBox="0, 0, 969, 868">
  <defs>
    <clipPath id="Clip_1">
      <path d="M0.06,0.04 L968.867,0.04 L968.867,868 L0.06,868 z"/>
    </clipPath>
  </defs>
  <g id="Layer_1">
    <g clip-path="url(#Clip_1)">
      <path d="M797.934,778.716 C797.324,768.431 796.621,758.832 794.823,749.35 C794.553,747.931 794.359,746.576 795.669,745.241 C804.382,736.367 805.87,725.095 804.457,713.673 C801.577,690.382 791.103,671.071 771.751,657.182 C764.002,651.621 755.298,649.289 745.79,651.331 C744.085,651.697 742.999,651.443 741.787,650.354 C736.641,645.73 731.445,641.162 726.189,636.505 C758.466,630.576 795.345,649.538 811.545,680.275 C828.659,712.746 823.218,753.54 797.934,778.716 z M700.23,692.625 C697.95,697.939 696.488,703.599 694.539,709.062 C693.488,712.011 691.398,713.778 688.308,714.933 C676.819,719.227 665.742,724.586 653.714,727.479 C647.275,729.028 642.377,728.005 637.88,722.653 C628.34,711.302 619.568,699.409 611.029,687.315 C609.697,685.429 609.714,684.202 611.406,682.704 C612.642,681.608 613.659,680.262 614.758,679.013 C619.514,673.611 619.575,670.053 614.996,664.631 C604.157,651.798 593.314,638.97 582.472,626.14 C591.721,623.135 600.97,620.133 610.216,617.121 C611.161,616.813 612.095,616.469 613.02,616.103 C615.947,614.944 618.988,612.617 621.757,612.909 C624.724,613.223 623.895,617.825 625.718,620.118 C627.717,622.632 629.787,624.913 632.84,626.108 C628.483,631.959 623.932,637.677 619.825,643.697 C615.759,649.658 617.838,653.865 625.126,654.538 C652.589,657.074 676.889,667.082 698.097,684.749 C700.93,687.109 701.771,689.034 700.23,692.625 z M285,663.254 C279.29,669.932 279.089,671.295 284.035,678.785 C285.044,680.313 284.602,681.136 283.696,682.219 C276.217,691.159 268.689,700.049 260.358,708.232 C258.903,709.661 257.634,709.763 255.966,709.061 C253.981,708.225 251.998,707.37 249.966,706.658 C247.435,705.771 246.751,704.922 248.538,702.207 C255.367,691.834 257.803,680.603 253.609,668.527 C253.037,666.883 253.251,665.758 254.122,664.411 C258.092,658.264 262.066,652.117 265.878,645.873 C266.984,644.061 268.42,643.453 270.347,643.315 C286.284,642.175 300.31,636.302 312.631,626.207 C313.805,625.246 313.846,625.296 317.571,624.999 C306.318,638.221 295.684,650.759 285,663.254 z M879.485,709.11 C876.843,708.68 875.964,707.82 875.635,705.138 C874.885,699.038 873.853,692.945 872.441,686.965 C871.833,684.394 872.172,683.3 874.465,681.911 C892.351,671.079 898.056,649.588 887.839,632.173 C877.619,614.751 856.033,609.201 837.895,619.469 C835.833,620.637 834.727,620.664 832.934,618.968 C829.073,615.315 825.041,611.782 820.729,608.685 C817.976,606.708 817.432,605.187 818.611,601.838 C824.243,585.841 818.537,568.924 804.556,559.749 C792.57,551.882 779.975,551.95 767.118,557.857 C766.692,556.155 767.781,555.176 768.313,554.067 C786.345,516.476 797.23,476.878 800.511,435.363 C804.552,384.232 800.479,333.399 790.221,283.347 C772.15,195.176 726.596,123.734 654.605,69.603 C603.788,31.393 546.44,8.405 483.298,1.646 C440.363,-2.95 397.889,2.507 356.449,14.769 C338.172,20.178 320.544,27.103 306.976,41.398 C305.703,42.739 304.107,42.88 302.414,42.987 C281.168,44.337 261.305,50.557 242.492,60.284 C212.514,75.783 188.279,98.152 167.245,124.144 C116.264,187.137 88.878,258.621 89.637,340.283 C89.924,371.082 94.544,401.276 100.928,431.264 C108.995,469.164 121.034,505.665 140.086,539.613 C154.045,564.483 171.32,586.747 192.272,606.132 C193.552,607.316 195.279,608.307 193.881,610.644 C192.959,612.186 191.979,611.963 190.551,611.7 C170.235,607.959 153.126,615.655 140.347,630.045 C121.387,651.396 114.06,677.779 114.624,706.207 C114.829,716.555 117.022,726.558 125.234,733.799 C127.918,736.165 127.618,737.584 126.174,740.287 C120.541,750.828 121.571,759.271 129.599,768.073 C137.658,776.908 147.614,782.749 159.278,785.455 C169.566,787.842 177.109,784.951 182.902,776.149 C184.705,773.411 186.075,774.21 188.087,775.355 C201.994,783.271 216.502,789.764 231.818,794.541 C255.942,802.064 278.125,799.532 298.937,784.247 C316.709,771.193 333.359,756.954 349.139,741.618 C350.147,740.638 350.933,738.697 352.614,739.3 C353.939,739.776 353.605,741.606 353.782,742.891 C359.154,781.786 365.526,820.524 371.973,859.251 C372.864,864.6 375.793,867.678 380.09,867.976 C384.582,868.287 387.623,865.541 389.14,859.803 C390.912,856.164 389.39,852.579 388.804,849.047 C381.268,803.589 373.992,758.093 368.165,712.373 C365.644,695.076 363.923,677.686 362.406,660.287 C361.945,655.002 361.257,649.706 361.203,644.372 C361.171,641.295 362.277,640.126 365.435,640.849 C369.002,641.665 372.62,642.453 376.245,642.78 C381.76,643.276 384.507,645.933 386.439,651.222 C391.53,665.164 400.714,675.853 414.094,682.742 C426.952,689.361 440.478,690.799 454.779,689.573 C479.159,687.482 502.075,672.763 508.493,646.879 C509.281,643.7 510.98,642.055 514.166,641.5 C520.072,640.47 525.927,639.152 531.728,637.643 C540.52,635.356 540.431,635.281 539.167,644.468 C536.287,665.412 533.207,686.327 530.373,707.274 C527.861,722.034 525.929,736.886 523.455,751.656 C517.874,784.969 513.365,818.483 504.566,851.187 C504.058,853.077 503.301,855.05 504.658,856.946 C505.569,861.522 508.061,864.66 512.947,864.797 C518.121,864.943 520.671,861.64 521.85,856.978 C522.216,855.529 522.709,854.113 523.08,852.665 C532.024,817.804 537.07,782.216 542.708,746.743 C543.378,742.528 544.647,739.55 548.577,737.271 C551.858,735.369 553.385,735.003 556.03,738.389 C563.816,748.353 571.931,758.085 580.341,767.531 C590.421,778.855 600.927,789.808 613.765,798.154 C620.465,802.51 627.517,805 635.846,804.302 C662.53,802.064 688.445,796.494 713.69,787.639 C723.345,784.253 733.144,781.275 742.561,776.731 C744.007,801.387 737.803,825.065 723.792,849.085 C720.045,855.51 722.344,859.734 729.773,860.024 C749.299,860.787 768.295,858.095 786.521,850.909 C789.698,849.657 791.541,849.768 793.986,852.572 C801.166,860.805 810.634,864.772 821.475,864.409 C835.545,863.939 846.425,857.458 852.856,844.805 C859.347,832.032 858.343,819.329 850.318,807.462 C848.629,804.963 849.031,803.636 850.558,801.471 C853.525,797.267 856.713,793.044 858.681,788.355 C861.39,781.899 864.843,778.272 872.219,780.973 C872.953,781.242 873.872,781.032 874.704,781.001 C893.186,780.327 908.487,765.749 909.718,747.649 C911.018,728.539 898.267,712.167 879.485,709.11" fill="#6E4100"/>
      <path d="M389.14,859.803 C383.874,826.956 378.468,794.13 373.4,761.253 C370.892,744.985 368.324,728.713 366.849,712.302 C368.075,710.848 369.724,710.818 371.423,710.93 C399.542,712.796 427.646,710.808 455.735,710.194 C479.312,709.679 502.879,707.888 526.437,706.415 C528.195,706.305 530.121,705.731 531.642,707.282 C524.566,754.495 518.213,801.836 506.885,848.303 C506.181,851.194 505.402,854.067 504.658,856.947 C478.737,857.377 452.805,857.481 426.901,858.394 C415.941,858.78 404.985,858.784 394.032,859.145 C392.396,859.199 390.771,859.576 389.14,859.803" fill="#FEFB82"/>
      <path d="M42.563,522.169 C47.684,522.376 52.817,522.923 57.803,524.305 C76.251,529.415 84.905,544.087 80.564,563.044 C79.036,569.717 76.385,575.998 73.011,581.98 C71.268,585.07 68.98,587.178 65.375,585.666 C62.111,584.298 61.754,581.609 62.569,578.158 C64.029,571.975 63.043,565.912 59.879,560.339 C57.132,555.5 52.74,553.581 47.245,554.534 C42.941,555.281 38.977,556.921 35.026,558.723 C32.145,560.038 31.965,561.197 33.884,563.786 C46.57,580.904 59.07,598.161 71.654,615.355 C74.004,618.566 76.342,621.755 79.115,624.675 C83.828,629.638 84.869,635.913 83.44,642.39 C80.825,654.25 74.033,663.288 63.401,669.072 C50.862,675.894 37.588,669.285 34.929,655.231 C32.223,640.932 40.543,624.708 53.917,619.034 C57.505,617.512 57.347,616.567 55.255,613.732 C37.961,590.29 20.832,566.725 3.647,543.202 C-2.023,535.442 -1.325,532.652 7.459,529.175 C18.707,524.722 30.46,522.685 42.563,522.169" fill="#FF7164"/>
      <path d="M968.707,298.018 C969.62,311.583 963.043,319.956 951.876,325.378 C944.296,329.059 936.202,330.817 927.836,331.452 C924.467,331.708 921.714,330.738 921.089,327.086 C920.516,323.74 922.555,321.995 925.576,320.888 C930.416,319.114 934.078,315.746 937.001,311.562 C941.899,304.551 941.184,298.731 934.767,293.08 C924.032,283.627 923.092,283.882 918.523,297.098 C911.843,316.418 905.102,335.718 898.393,355.028 C898.122,355.809 897.748,356.597 897.688,357.402 C896.932,367.517 889.389,374.603 877.799,376.72 C869.681,378.203 861.569,377.686 853.791,374.369 C838.952,368.039 835.988,352.761 847.424,341.258 C857.034,331.592 875.182,329.429 887.243,336.903 C890.515,338.931 891.309,338.251 892.424,334.993 C902.001,306.999 911.716,279.052 921.416,251.1 C923.868,244.032 927.082,242.858 933.366,246.861 C944.305,253.83 953.613,262.567 960.842,273.358 C965.919,280.936 969.705,289.034 968.707,298.018" fill="#FF7164"/>
    </g>
    <path d="M582.472,626.14 C577.078,620.431 577.095,620.465 583.794,617.169 C636.417,591.274 671.926,550.048 692.486,495.53 C695.297,488.076 697.532,480.397 699.814,472.757 C700.561,470.253 701.719,469.297 704.358,469.326 C732.214,469.637 749.636,450.255 750.902,422.602 C751.437,410.92 751.425,399.28 746.551,388.261 C740.579,374.76 730.023,368.351 715.475,368.102 C711.276,368.031 708.912,364.867 709.903,360.809 C710.371,358.892 711.782,359.281 713.014,359.126 C719.565,358.303 722.805,355.082 722.293,349.87 C721.759,344.421 717.528,341.933 710.907,342.446 C694.985,343.681 679.399,341.004 663.978,337.503 C623.696,328.358 585.681,312.881 548.409,295.453 C522.162,283.179 496.137,270.476 472.979,252.713 C437.738,225.681 409.989,192.164 387.38,154.166 C380.224,142.139 373.832,129.713 367.913,117.041 C365.916,112.766 363.243,109.611 358.024,110.513 C353.42,111.309 351.271,114.29 351.254,120.494 C351.246,123.724 348.758,123.253 347.224,123.823 C319.535,134.115 294.031,148.176 271.213,167.057 C239.388,193.391 216.182,226.061 199.814,263.76 C185.797,296.043 177.495,329.834 173.745,364.779 C173.523,366.85 173.189,368.19 170.606,368.131 C150.228,367.67 138.581,380.778 135.268,399.272 C132.619,414.061 132.773,428.838 138.795,442.931 C146.091,460.01 159.634,468.339 177.835,469.19 C181.858,469.378 183.588,470.494 184.612,474.431 C188.43,489.117 193.912,503.222 200.625,516.83 C201.913,519.441 202.018,520.454 198.644,521.536 C187.616,525.074 183.377,537.031 189.423,547.027 C190.766,549.249 191.103,551.249 190.613,553.607 C189.289,559.987 188.799,566.439 188.963,572.947 C189.461,574.774 189.675,576.594 188.805,578.381 C172.75,561.493 160.15,542.219 149.523,521.575 C132.339,488.192 122.1,452.538 114.885,415.891 C114.629,414.591 114.36,413.294 114.097,411.996 C114.432,407.728 113.986,403.525 113.053,399.364 C111.72,382.882 112.985,366.473 114.317,350.051 C116.152,327.427 119.939,305.142 125.405,283.128 C133.347,251.142 144.963,220.627 160.477,191.476 C178.937,156.788 205.01,128.602 233.86,102.598 C250.531,87.571 268.618,74.649 288.998,65.078 C293.075,63.163 297.153,61.295 301.663,60.648 C302.995,60.039 304.459,59.822 305.822,59.295 C309.485,59.266 313.154,59.341 316.812,59.183 C321.57,58.977 324.881,56.057 324.725,51.343 C324.608,47.781 326.474,46.342 328.939,44.801 C343.83,35.495 360.353,30.34 377.231,26.404 C406.683,19.537 436.588,16.257 466.844,17.195 C496.537,18.116 525.102,25.039 553.052,34.663 C598.405,50.279 638.587,74.539 673.604,107.335 C675.293,108.917 676.969,110.513 678.652,112.102 C681.316,135.011 675.812,155.288 659.248,171.946 C654.737,176.482 649.307,179.793 643.606,182.567 C640.365,184.143 640.321,185.763 642.487,188.221 C644.358,190.344 646.364,192.348 648.107,194.587 C649.805,196.769 652.07,196.489 654.482,196.193 C677.337,193.389 697.588,184.046 716.683,171.693 C719.108,170.124 721.187,167.547 724.616,168.1 C737.45,186.267 747.318,206.021 755.738,226.532 C768.712,258.137 775.775,291.153 779.979,324.98 C784.033,357.602 786.225,390.294 784.535,423.087 C781.681,478.457 765.869,529.94 736.251,577.027 C734.391,579.985 732.197,580.889 728.945,580.99 C722.789,581.179 717.628,581.474 712.566,575.591 C702.228,563.574 685.015,561.346 670.942,568.379 C656.89,575.401 649.256,590.145 651.47,606.029 C651.704,607.707 651.959,609.183 650.22,610.443 C643.874,615.039 638.682,620.938 632.84,626.109 C627.889,626.438 626.01,622.654 624.079,619.261 C621.185,614.176 621.37,614.23 615.773,616.414 C604.965,620.631 594.101,624.71 582.472,626.14" fill="#DBA76F"/>
    <path d="M677.825,486.066 C668.436,513.873 653.768,538.546 633.715,559.97 C602.729,593.076 563.949,612.13 520.216,621.506 C460.641,634.278 401.339,633.114 342.563,616.196 C338.542,615.039 335.609,614.209 337.698,608.827 C338.783,606.034 338.709,602.358 336.984,599.588 C334.778,596.049 335.688,592.931 336.713,589.338 C348.954,546.44 322.337,502.077 276.828,493.918 C275.593,490.543 278.527,489.218 280.208,487.454 C288.054,479.221 293.958,470.033 295.97,458.579 C296.77,454.022 296.535,449.607 295.502,445.232 C292.103,430.837 286.143,417.778 274.117,408.492 C256.286,394.723 231.269,396.238 214.612,411.652 C207.407,418.321 202.026,426.174 198.164,435.164 C197.319,437.131 197.205,439.964 194.033,440.072 C180.575,355.159 199.225,278.068 252.096,210.201 C278.817,175.902 314.604,153.376 355.431,138.755 C358.536,137.643 359.648,138.487 361.042,141.197 C379.275,176.64 401.899,208.986 429.971,237.359 C454.409,262.058 482.436,281.779 513.558,297.268 C557.655,319.214 602.546,339.081 650.389,351.535 C662.468,354.68 674.666,357.347 687.131,358.287 C691.523,358.619 693.372,360.083 693.678,364.639 C694.805,381.446 694.862,398.225 693.239,414.99 C692.456,423.078 691.929,431.215 689.858,439.129 C687.123,438.986 687.189,436.539 686.537,434.859 C683.248,426.386 678.621,418.832 672.489,412.057 C659.287,397.47 634.528,395.543 619.117,404.884 C600.621,416.096 590.316,432.798 589.506,454.088 C588.861,471.074 597.879,484.097 612.586,492.309 C623.524,498.417 635.679,500.802 648.296,499.594 C656.873,498.774 664.324,495.374 670.399,489.135 C672.021,487.471 673.512,485.601 675.593,484.495 C677.046,483.723 678.826,483.078 677.825,486.066" fill="#FEF8EA"/>
    <path d="M738.544,847.789 C747.446,830.553 752.892,812.811 754.429,794.09 C755.949,775.571 754.268,757.272 748.185,739.451 C750.341,738.801 751.314,740.506 752.59,741.306 C760.996,746.573 769.677,751.111 779.936,750.995 C783.489,750.954 783.406,753.358 783.718,755.603 C785.323,767.158 786.261,778.757 785.629,790.432 C785.451,793.736 785.495,796.882 789.088,798.475 C792.4,799.944 794.803,798.092 797.178,796.123 C822.611,775.039 834.757,747.817 833.548,714.984 C831.803,667.601 792.965,627.945 745.352,623.868 C733.563,622.858 722.143,624.074 710.787,626.965 C707.925,627.694 705.334,628.717 704.746,632.084 C704.137,635.566 705.981,637.646 708.732,639.41 C716.455,644.364 723.625,650.046 730.411,656.222 C731.832,657.515 733.115,658.487 731.43,660.643 C723.829,670.369 722.75,681.562 724.598,694.601 C700.688,666.235 671.274,649.328 635.563,643.613 C657.01,610.471 712.895,579.501 774.999,598.351 C835.438,616.695 873.948,679.578 862.537,742.548 C850.327,809.927 791.794,848.025 738.544,847.789" fill="#FF7164"/>
    <path d="M677.825,486.066 C677.344,483.705 676.408,485.072 675.61,485.819 C672.696,488.543 670.046,491.619 666.857,493.966 C656.03,501.94 643.755,502.357 631.132,500.061 C615.229,497.169 602.048,490.049 593.742,475.525 C587.751,465.05 586.701,453.979 589.756,442.435 C594.158,425.799 603.225,412.504 618.329,403.878 C640.024,391.488 668.278,397.707 682.155,422.526 C685.168,427.913 686.832,433.814 689.858,439.128 C687.687,455.246 683.659,470.888 677.825,486.066" fill="#FFDBC4"/>
    <path d="M194.033,440.072 C198.034,433.828 200.263,426.64 204.746,420.617 C212.55,410.133 222.262,401.995 235.059,399.222 C257.609,394.335 276.166,402.127 288.171,422.915 C292.322,430.102 295.465,437.708 297.022,446.059 C299.513,459.415 294.658,470.367 287.533,481.013 C284.382,485.721 279.161,488.606 276.829,493.918 C260.419,491.345 244.827,494.148 229.858,501.053 C221.351,499.755 214.278,495.49 207.648,490.31 C201.048,474.123 196.922,457.265 194.033,440.072" fill="#FFDBC4"/>
    <path d="M531.642,707.282 C525.366,707.844 519.101,708.628 512.812,708.93 C484.765,710.279 456.737,711.878 428.645,712.464 C411.848,712.815 395.058,712.656 378.267,712.918 C374.465,712.978 370.655,712.518 366.849,712.3 C363.985,694.724 362.366,677.001 360.881,659.271 C360.302,652.351 359.357,645.414 359.961,638.424 C367.484,639.719 374.833,641.005 382.192,642.236 C384.168,642.566 385.224,643.373 385.902,645.519 C395.08,674.566 419.411,690.734 449.866,688.53 C464.802,687.45 478.744,683.916 490.404,673.987 C499.59,666.165 505.24,656.16 507.585,644.38 C508.048,642.059 508.739,641.035 511.101,640.611 C520.427,638.938 529.7,636.98 538.779,634.231 C542.676,633.052 541.898,635.533 541.596,637.653 C538.285,660.864 534.962,684.072 531.642,707.282" fill="#FEFEFE"/>
    <path d="M597.352,697.199 C606.122,709.38 614.939,721.032 624.083,732.47 C633.574,744.343 644.841,747.184 659.024,743.491 C672.766,739.912 685.584,734.014 698.657,728.769 C705.046,726.205 708.226,720.246 710.709,714.126 C712.19,710.473 713.395,706.709 714.937,702.402 C724.273,713.998 730.92,726.342 735.627,739.729 C737.328,744.569 738.293,749.665 739.916,754.537 C740.939,757.607 739.723,758.914 737.199,760.319 C725.919,766.596 713.47,769.74 701.421,773.946 C679.481,781.603 656.78,785.553 633.709,787.691 C629.568,788.075 626.303,786.189 623.106,784.115 C611.256,776.427 601.825,766.085 592.386,755.779 C584.069,746.697 576.342,737.113 568.684,727.474 C567.393,725.85 566.183,724.726 568.705,722.761 C578.683,714.987 587.97,706.403 597.352,697.199" fill="#FEF8EA"/>
    <path d="M257.964,782.04 C243.265,781.476 229.635,776.727 216.366,770.858 C209.848,767.975 203.698,764.265 197.221,761.28 C193.949,759.772 194.262,758.347 195.931,755.775 C203.442,744.201 210.789,732.52 218.196,720.878 C221.614,715.505 227.422,714.05 233.313,717.119 C240.53,720.88 247.77,724.509 255.774,726.461 C261.137,727.769 265.44,726.671 269.463,722.878 C278.447,714.408 286.514,705.119 294.374,695.639 C296.118,693.536 297.097,692.481 299.602,695.085 C310.692,706.609 322.68,717.171 335.371,726.905 C337.456,728.504 337.869,729.386 335.774,731.329 C320.034,745.927 304.3,760.52 286.216,772.281 C277.612,777.877 268.755,782.718 257.964,782.04" fill="#FEF8EA"/>
    <path d="M302.739,61.035 C283.737,67.397 266.782,77.541 251.229,89.926 C215.279,118.552 183.733,151.078 161.686,191.995 C139.363,233.424 125.664,277.587 118.661,323.991 C114.904,348.886 113.351,373.897 113.955,399.054 C114.186,401.139 115.514,403.401 112.985,405.038 C101.9,346.894 103.619,289.324 124.005,233.457 C144.196,178.122 176.005,130.292 222.437,93.162 C243.525,76.299 267.278,64.769 294.264,60.686 C296.726,60.313 299.222,60.169 301.703,59.918 C302.728,59.66 303.012,60.089 302.739,61.035" fill="#FEFEFE"/>
    <path d="M155.838,726.074 C134.604,725.21 131.201,720.606 131.218,701.007 C131.237,681.132 137.77,662.757 148.556,646.137 C155.776,635.013 167.146,629.91 179.74,627.378 C183.65,626.591 187.276,627.677 190.355,630.476 C195.175,634.86 199.797,639.409 202.879,645.228 C205.827,650.795 204.995,654.289 200.041,658.255 C197.026,660.667 193.52,662.191 190.055,663.811 C183.36,666.94 182.419,673.684 187.925,678.612 C189.039,679.609 190.242,680.533 191.224,681.649 C195.024,685.974 194.472,690.308 189.604,693.383 C187.37,694.794 184.891,695.825 182.501,696.98 C174.143,701.018 170.258,707.829 170.015,716.945 C169.801,724.941 169.3,725.476 161.326,726.054 C159.506,726.186 157.668,726.074 155.838,726.074" fill="#FEF8EA"/>
    <path d="M724.616,168.1 C709.486,178.177 693.855,187.263 676.399,192.818 C668.608,195.297 660.631,196.816 652.56,197.966 C650.413,198.271 648.777,197.876 647.359,196.001 C645.052,192.953 642.624,189.961 639.953,187.234 C637.488,184.718 637.654,183.678 641.046,182.21 C657.363,175.151 668.399,163.041 674.07,146.199 C677.33,136.517 678.764,126.539 677.991,116.282 C677.889,114.92 677.171,113.286 678.653,112.103 C695.345,128.38 710.28,146.123 723.214,165.535 C723.753,166.343 724.152,167.243 724.616,168.1" fill="#FEFEFE"/>
    <path d="M300.487,614.153 C292.78,620.638 283.816,624.037 274.115,626.128 C265.961,627.886 259.096,626.117 252.056,621.542 C241.051,614.391 229.38,608.261 217.972,601.731 C216.361,600.808 214.911,599.836 213.953,598.143 C207.893,587.427 205.233,575.948 205.911,563.656 C206.093,560.356 207.121,559.537 210.175,561.31 C239.959,578.602 269.784,595.825 299.59,613.08 C299.84,613.225 299.988,613.546 300.487,614.153" fill="#9C9C9C"/>
    <path d="M221.925,528.426 C232.048,517.309 244.381,511.16 258.799,510.183 C291.848,507.943 317.298,528.417 322.503,561.053 C323.606,567.968 322.923,574.968 321.394,581.859 C320.739,584.812 319.726,585.128 317.116,583.606 C291.549,568.7 265.917,553.908 240.304,539.082 C234.301,535.606 228.301,532.123 221.925,528.426" fill="#9C9C9C"/>
    <path d="M787.953,715.165 C787.893,734.219 782.286,737.708 768.453,731.022 C751.232,722.698 738.562,699.649 740.784,680.685 C742.249,668.179 751.313,663.585 761.639,670.75 C778.31,682.317 786.119,699.05 787.953,715.165" fill="#FEF8EA"/>
    <path d="M349.792,716.563 C338.888,708.833 329.469,700.489 320.315,691.858 C314.268,686.156 308.581,680.074 302.613,674.287 C300.787,672.516 300.121,671.338 302.119,669.045 C312.381,657.262 322.556,645.398 332.533,633.373 C335.244,630.105 337.54,632.627 340.061,632.98 C341.983,633.249 342.83,634.129 342.881,636.26 C343.488,662.053 346.591,687.626 349.779,713.191 C349.88,714.003 349.792,714.839 349.792,716.563" fill="#FEFEFE"/>
    <path d="M547.355,717.517 C551.614,687.031 555.774,657.253 559.917,627.599 C561.693,627.321 562.06,628.472 562.657,629.169 C574.01,642.443 585.334,655.742 596.667,669.034 C597.832,670.401 599.115,671.377 597.111,673.452 C582.299,688.792 566.908,703.47 549.746,716.197 C549.25,716.565 548.658,716.805 547.355,717.517" fill="#FEFEFE"/>
    <path d="M403.695,644.947 C432.703,647.63 461.222,647.173 489.769,643.928 C487.884,657.718 472.794,668.886 454.778,671.227 C427.554,674.766 410.217,662.46 403.695,644.947" fill="#FEF8EA"/>
    <path d="M734.71,413.763 C734.501,422.08 733.877,428.699 731.529,435.018 C727.597,445.596 718.333,452.147 707.154,452.751 C704.523,452.893 704.885,451.814 705.214,450.169 C707.637,438.082 709.353,425.892 710.16,413.594 C710.705,405.294 711.08,396.976 711.231,388.661 C711.281,385.888 712.01,384.938 714.832,384.875 C722.905,384.694 728.525,388.185 731.5,395.789 C732.344,397.948 733.103,400.201 733.45,402.48 C734.101,406.749 734.423,411.068 734.71,413.763" fill="#FEF8EA"/>
    <path d="M150.604,415.427 C150.576,408.563 151.158,401.806 153.829,395.388 C156.742,388.39 162.073,384.875 169.232,384.888 C171.691,384.892 172.744,385.468 172.743,388.217 C172.738,408.869 174.567,429.358 178.685,449.617 C179.169,452.002 178.71,452.747 175.977,452.44 C161.771,450.848 152.572,440.314 150.984,423.392 C150.736,420.749 150.725,418.083 150.604,415.427" fill="#FEF8EA"/>
    <path d="M164.591,769.315 C154.913,766.97 146.102,762.988 140.466,754.2 C137.812,750.062 142.167,747.201 143.394,743.803 C144.368,741.107 146.652,742.489 148.547,742.665 C156.53,743.406 164.488,743.496 172.246,741.033 C181.966,737.947 187.072,731.636 186.687,721.47 C186.454,715.306 188.434,711.733 194.215,709.913 C196.084,709.325 197.826,708.205 199.484,707.113 C201.14,706.022 202.352,706.011 203.801,707.533 C205.3,709.108 204.917,710.396 203.919,711.948 C199.963,718.099 196.062,724.285 192.138,730.456 C184.647,742.238 177.151,754.016 169.668,765.803 C168.5,767.645 167.504,769.691 164.591,769.315" fill="#9C9C9C"/>
    <path d="M897.763,744.689 C897.767,758.231 885.961,769.658 872.754,769.037 C869.25,768.872 868.11,768.017 869.431,764.21 C873.866,751.431 876.015,738.156 876.516,724.669 C876.661,720.775 877.922,720.701 880.988,721.739 C890.997,725.126 897.76,734.244 897.763,744.689" fill="#BEBEBE"/>
    <path d="M784.586,565.716 C800.862,566.215 812.33,581.709 807.874,596.238 C807.144,598.617 806.404,599.16 804.153,597.899 C791.77,590.963 778.567,586.135 764.661,583.403 C761.011,582.686 761.757,581.138 762.91,579.04 C767.728,570.268 775.139,565.802 784.586,565.716" fill="#BEBEBE"/>
    <path d="M867.931,671.518 C864.944,664.68 862.054,657.812 858.35,651.337 C854.714,644.982 850.8,638.794 846.043,633.241 C843.657,630.457 844.194,629.402 847.316,628.101 C859.062,623.206 872.92,628.506 878.467,640.189 C883.953,651.744 879.514,665.237 867.931,671.518" fill="#BEBEBE"/>
    <path d="M844.912,828.664 C844.314,838.167 840.108,845.551 831.463,849.795 C822.671,854.11 814.107,853.1 806.078,847.473 C803.052,845.352 801.807,843.959 806.266,841.527 C818.134,835.055 828.72,826.759 837.878,816.778 C840.209,814.238 841.287,815.078 842.414,817.573 C844.002,821.092 845.05,824.729 844.912,828.664" fill="#BEBEBE"/>
    <path d="M224.179,652.189 C222.496,652.871 221.686,652.403 221.535,650.257 C220.857,640.658 216.016,633.052 209.752,626.14 C208.021,624.23 206.01,622.497 208.145,619.313 C209.636,617.09 210.601,616.908 212.818,618.217 C224.113,624.887 235.451,631.488 246.907,637.875 C249.6,639.378 249.624,640.654 247.971,642.757 C247.256,643.668 246.548,644.635 246.089,645.687 C243.54,651.519 240.046,654.716 233.192,651.604 C230.451,650.36 227.302,651.831 224.179,652.189" fill="#9C9C9C"/>
    <path d="M238.906,679.91 C238.701,686.017 236.375,691.279 232.281,695.657 C228.262,699.955 222.135,700.359 217.271,697.009 C212.576,693.776 210.968,688.362 213.339,682.934 C215.304,678.434 218.426,674.765 222.377,671.852 C225.611,669.469 228.963,666.82 233.253,668.977 C237.642,671.184 238.652,675.412 238.906,679.91" fill="#FEF8EA"/>
    <path d="M704.101,584.206 C689.728,587.998 676.252,593.378 663.703,601.038 C661.635,594.56 668.092,582.818 676.732,578.934 C686.184,574.684 697.155,576.451 704.101,584.206" fill="#BEBEBE"/>
    <path d="M207.648,490.31 C207.903,490.118 208.33,489.715 208.388,489.762 C214.78,494.988 222.574,497.536 229.858,501.053 C225.465,504.016 220.682,506.391 216.307,510.413 C212.729,503.726 209.857,497.17 207.648,490.31" fill="#FEF6E8"/>
    <path d="M112.985,405.038 C114.588,403.251 113.323,400.999 113.955,399.054 C115.195,403.354 115.428,407.666 114.097,411.995 C113.726,409.676 113.356,407.357 112.985,405.038" fill="#E3D0BA"/>
    <path d="M320.684,605.985 C319.306,605.236 317.927,604.487 315.513,603.175 C318.618,603.115 319.989,604.027 320.684,605.985" fill="#856F53"/>
    <path d="M238.887,558.311 C241.167,558.445 242.325,559.206 243.667,560.694 C241.631,560.721 240.417,560.011 238.887,558.311" fill="#86745C"/>
    <path d="M188.805,578.381 C188.857,576.57 188.909,574.759 188.962,572.947 C190.283,574.674 189.71,576.701 189.85,578.614 C189.859,578.746 189.765,578.957 189.657,579.014 C188.958,579.388 188.933,578.807 188.805,578.381" fill="#BB8B50"/>
    <path d="M269.22,575.313 C267.559,575.798 266.538,574.776 265.115,573.914 C267.314,572.679 267.919,574.927 269.22,575.313" fill="#86745C"/>
    <path d="M288.997,587.085 C286.489,586.523 285.191,585.969 284.122,584.403 C286.124,584.282 287.309,585.215 288.997,587.085" fill="#86745C"/>
    <path d="M224.814,550.134 C223.018,549.891 221.507,549.122 219.885,547.262 C222.327,547.58 223.875,548.297 224.91,550.023 L224.814,550.134" fill="#86745C"/>
    <path d="M224.91,550.023 C226.371,550.17 227.668,550.617 228.813,552.362 C226.777,552.302 225.604,551.6 224.814,550.133 C224.814,550.134 224.91,550.023 224.91,550.023" fill="#847055"/>
    <path d="M302.739,61.035 C302.393,60.663 302.048,60.291 301.703,59.918 C302.922,58.698 304.412,59.265 305.821,59.294 C304.794,59.875 303.766,60.455 302.739,61.035" fill="#C8B39C"/>
    <path d="M707.74,324.209 C703.359,323.667 698.474,321.981 693.576,320.417 C658.595,309.249 627.277,291.155 598.043,269.298 C554.317,236.606 516.867,197.916 487,152.059 C484.746,148.599 483.538,145.082 485.495,141.31 C487.059,138.293 489.871,136.894 493.403,137.119 C496.749,137.333 498.795,139.239 500.497,141.93 C517.958,169.517 538.898,194.287 562.393,216.842 C597.09,250.152 635.118,278.761 679.822,297.571 C689.181,301.509 698.723,304.943 708.637,307.271 C713.143,308.329 716.81,310.332 716.901,315.748 C716.985,320.806 713.601,324.219 707.74,324.209" fill="#6E4100"/>
    <path d="M480.435,481.556 C487.836,481.869 497.372,481.397 506.643,483.922 C513.05,485.667 514.362,487.421 514.911,493.989 C516.33,510.962 514.238,527.202 504.972,541.937 C496.304,555.721 483.054,562.361 467.663,565.454 C450.794,568.844 434.045,568.671 418.458,560.656 C398.095,550.184 386.115,532.59 379.03,511.305 C378.463,509.601 378.47,507.803 376.532,506.706 C373.83,505.177 372.638,502.56 373.122,499.511 C373.677,496.012 376.109,494.127 379.395,493.146 C386.904,490.902 394.603,489.49 402.33,488.398 C427.556,484.836 452.885,482.292 480.435,481.556" fill="#6E4100"/>
    <path d="M291.867,379.177 C292.544,368.832 296.749,359.527 305.45,352.622 C307.774,350.778 308.27,349.684 306.286,347.206 C301.981,341.831 300.532,335.319 300.033,328.605 C299.686,323.93 301.863,320.974 305.599,320.614 C309.418,320.246 311.783,322.579 312.376,327.42 C312.821,331.045 312.933,334.749 314.933,337.979 C317.531,342.174 320.174,345.092 326.293,344.449 C341.545,342.844 355.722,353.986 358.748,368.869 C359.75,373.801 357.575,377.914 353.276,379.217 C348.569,380.643 344.661,378.567 342.682,373.589 C338.7,363.571 333.653,359.916 325.541,361.176 C316.622,362.562 309.267,370.505 308.822,379.694 C308.597,384.326 307.859,388.455 302.836,389.99 C296.446,391.943 291.615,387.368 291.867,379.177" fill="#6E4100"/>
    <path d="M595.97,379.908 C596.004,386.912 593.563,390.105 588.06,390.254 C582.534,390.404 579.707,387.35 579.295,380.511 C578.745,371.366 574.061,365.28 565.641,362.093 C557.488,359.007 550.311,362.135 546.717,370.114 C546.104,371.473 545.719,372.934 545.116,374.299 C543.139,378.779 539.004,380.647 534.479,379.161 C530.439,377.834 528.069,373.606 529.251,369.136 C531.211,361.722 534.833,355.176 541.096,350.578 C543.625,348.722 543.6,347.581 541.957,345.163 C538.5,340.072 537.525,334.103 537.076,328.094 C536.777,324.102 538.403,321.07 542.68,320.682 C546.963,320.292 549.068,322.894 549.436,326.975 C549.721,330.125 549.765,333.361 551.138,336.246 C553.335,340.865 556.041,344.15 562.201,344.436 C580.822,345.302 595.878,361.522 595.97,379.908" fill="#6E4100"/>
    <path d="M323.295,204.216 C332.276,204.6 339.838,208.112 344.026,217.146 C345.697,220.749 345.518,224.108 341.664,226.09 C337.854,228.049 334.761,226.581 333.11,222.84 C330.746,217.486 326.321,216.217 321.256,216.727 C315.584,217.297 309.864,218.514 307.453,224.679 C305.959,228.497 303.731,230.685 299.615,229.457 C295.16,228.128 294.714,224.7 295.723,220.685 C296.937,215.855 300.134,212.591 304.043,209.93 C309.678,206.092 315.99,204.329 323.295,204.216" fill="#6E4100"/>
    <path d="M439.642,375.584 C442.082,375.603 444.315,376.312 445.773,378.307 C447.915,381.236 450.109,384.183 451.777,387.386 C453.773,391.217 452.357,395.592 448.918,397.863 C445.35,400.22 440.5,399.587 437.772,396.112 C435.736,393.518 433.8,390.775 432.281,387.859 C429.204,381.947 433.164,375.523 439.642,375.584" fill="#6E4100"/>
    <path d="M270.192,551.319 C270.208,547.992 262.432,543.359 259.353,544.916 C255.054,547.091 253.24,546.116 253.522,541.286 C253.635,539.354 252.613,539.03 251.553,538.387 C249.279,537.008 246.913,535.775 244.689,534.322 C243.142,533.312 242.539,531.796 243.413,529.987 C244.4,527.944 246.124,527.596 248.034,528.329 C249.418,528.859 250.685,529.708 251.983,530.453 C258.03,533.923 257.915,533.87 261.026,527.837 C262.102,525.749 262.093,524.527 259.882,523.518 C257.511,522.437 255.841,520.672 257.165,518.016 C258.572,515.193 261.007,515.873 263.131,517.247 C265.049,518.487 266.33,518.362 267.61,516.316 C268.723,514.538 270.545,514.119 272.4,515.258 C274.073,516.287 274.458,518.045 273.613,519.634 C271.404,523.787 275.299,524.129 277.231,525.064 C279.507,526.166 281.984,530.507 284.894,525.545 C285.688,524.192 287.268,523.776 288.877,524.574 C290.636,525.446 291.57,527.098 290.671,528.672 C288.578,532.341 291.139,533.374 293.573,534.478 C296.431,535.774 299.245,539.891 302.386,534.543 C303.055,533.403 305.194,533.655 306.536,534.603 C307.748,535.459 308.291,536.932 307.659,538.144 C306.272,540.804 306.905,542.33 309.522,543.663 C311.223,544.53 312.315,546.142 311.101,548.237 C309.865,550.371 307.853,550.828 305.971,549.625 C300.325,546.015 300.687,551.996 299.025,554.09 C296.368,557.438 300.482,557.53 301.949,558.732 C303.218,559.771 304.812,560.407 306.234,561.269 C308.27,562.502 308.9,564.322 307.741,566.372 C306.491,568.582 304.541,568.389 302.564,567.287 C301.257,566.559 299.965,565.801 298.645,565.096 C296.564,563.984 294.921,562.399 292.119,564.657 C289.651,566.646 287.023,564.614 286.956,561.257 C286.875,557.226 279.152,552.754 275.795,554.868 C274.417,555.736 273.171,556.324 271.691,555.265 C270.344,554.301 269.748,553.035 270.192,551.319" fill="#FEFEFE"/>
    <path d="M449.496,552.865 C427.745,553.287 412.48,542.732 401.361,525.029 C398.17,519.949 395.51,514.66 393.478,508.988 C392.308,505.723 393.021,504.642 396.345,504.094 C413.418,501.28 430.58,499.277 447.827,497.942 C463.901,496.698 479.948,495.206 496.119,496.729 C500.108,497.105 500.98,498.451 500.91,502.158 C500.787,508.688 500.091,515.088 498.38,521.371 C493.155,540.556 479.347,549.258 460.744,552.005 C456.966,552.563 453.187,553.255 449.496,552.865" fill="#FEFEFE"/>
    <path d="M278.816,535.248 C278.942,536.606 274.816,542.773 273.795,542.752 C272.69,542.729 264.403,537.393 264.319,536.65 C264.197,535.57 268.59,529.157 269.472,529.128 C270.598,529.092 278.739,534.424 278.816,535.248" fill="#9E9E9E"/>
    <path d="M295.681,545.419 C294.049,547.522 293.809,550.935 290.833,552.252 C289.666,552.768 280.921,546.678 281.376,546.008 C283.049,543.549 283.082,539.669 286.672,538.893 C288.384,538.523 295.72,544.074 295.681,545.419" fill="#9E9E9E"/>
  </g>
</svg>
