<?xml version="1.0" encoding="UTF-8"?>
<!DOCTYPE svg PUBLIC "-//W3C//DTD SVG 1.1//EN" "http://www.w3.org/Graphics/SVG/1.1/DTD/svg11.dtd">
<svg version="1.1" xmlns="http://www.w3.org/2000/svg" xmlns:xlink="http://www.w3.org/1999/xlink" x="0" y="0" width="698" height="798" viewBox="0, 0, 698, 798">
  <defs>
    <clipPath id="Clip_1">
      <path d="M0.06,0.03 L697.439,0.03 L697.439,797.94 L0.06,797.94 z"/>
    </clipPath>
    <clipPath id="Clip_2">
      <path d="M0.06,0.03 L697.439,0.03 L697.439,797.94 L0.06,797.94 z"/>
    </clipPath>
  </defs>
  <g id="Layer_1">
    <g clip-path="url(#Clip_1)">
      <path d="M279.445,615.561 C265.334,620.459 251.312,625.638 237.084,630.174 C223.465,634.516 209.672,638.299 195.198,638.739 C182.389,639.127 172.767,633.534 165.536,623.38 C156.117,610.154 152.288,594.829 149.638,579.186 C144.383,548.175 144.028,516.905 145.575,485.596 C146.046,476.052 142.962,467.209 141.293,458.109 C134.579,421.504 131.8,384.559 130.334,347.431 C129.279,320.74 129.933,294.164 133.647,267.732 C142.372,205.63 160.998,147.078 198.641,96.043 C232.801,49.732 277.219,18.01 334.087,5.341 C372.542,-3.226 410.788,-0.83 448.828,8.249 C451.897,8.982 455.029,9.607 457.963,10.726 C466.154,13.851 474.893,12.127 483.311,14.11 C522.39,23.312 555.676,42.784 585.063,69.661 C621.575,103.053 642.978,145.363 657.526,191.737 C673.127,241.469 678.704,292.54 677.615,344.482 C676.661,389.926 670.432,434.661 659.529,478.755 C658.729,481.988 659.377,483.265 662.608,483.369 C663.433,483.395 664.26,483.595 665.07,483.786 C682.749,487.968 687.514,502.119 675.835,515.965 C673.588,518.629 671.307,521.498 668.451,523.371 C660.106,528.844 654.905,536.748 649.952,545.072 C645.787,552.071 641.235,558.864 636.474,565.475 C633.762,569.242 633.284,570.999 638.182,573.695 C652.434,581.54 661.786,593.479 664.62,609.845 C667.081,624.051 662.398,636.062 652.716,646.344 C641.694,658.049 627.595,664.756 612.887,670.304 C609.594,671.546 608.419,672.957 608.426,676.58 C608.438,682.53 610.057,686.093 616.348,688.205 C624.969,691.099 633.136,695.402 640.584,700.813 C643.697,703.074 646.574,705.604 648.628,708.916 C651.417,713.413 651.598,718.006 648.845,722.581 C644.531,729.751 638.904,735.311 629.42,737.245 C634.153,739.704 638.138,741.668 642.024,743.811 C661.354,754.47 679.467,766.721 694.613,783.054 C698.505,787.252 697.611,791.433 696.419,795.94 C696.113,797.098 695.085,797.76 693.722,797.695 C692.392,797.63 691.056,797.687 689.723,797.687 C498.753,797.687 307.782,797.693 116.812,797.628 C114.502,797.627 111.29,799.091 109.999,796.223 C108.534,792.967 108.979,789.579 111.218,786.349 C121.352,771.727 134.622,760.454 149.19,750.61 C181.067,729.069 216.641,716.451 253.785,707.72 C268.366,704.293 283.067,701.44 297.95,699.75 C301.61,699.334 301.594,697.423 301.704,694.806 C302.738,670.033 303.826,645.262 304.899,620.491 C305.72,617.631 304.2,614.966 304.225,612.135 C304.275,606.597 303.931,606.478 298.602,608.715 C292.34,611.344 286.201,614.315 279.445,615.561" fill="#6E4100"/>
    </g>
    <path d="M171.576,668.873 C163.847,667.884 156.974,664.514 150.442,660.601 C130.144,648.44 115.873,631.438 109.271,608.392 C108.112,604.347 109.101,601.355 112.927,599.881 C117.115,598.268 120.114,600.513 121.739,605.343 C129.86,629.478 145.833,646.136 169.643,655.23 C171.037,655.763 172.485,656.149 173.899,656.631 C177.355,657.809 179.177,660.218 178.507,663.85 C177.834,667.503 175.278,669.063 171.576,668.873" fill="#FFCFBF"/>
    <path d="M57.482,179.603 C72.224,179.546 84.223,191.598 84.055,206.291 C83.889,220.855 72.089,232.562 57.544,232.593 C42.935,232.624 31.261,221.024 31.127,206.345 C30.99,191.334 42.495,179.661 57.482,179.603" fill="#6E4100"/>
    <path d="M168.67,703.64 C168.494,707.75 165.641,710.302 162.211,709.536 C147.961,706.354 133.531,703.223 122.651,692.249 C120.048,689.624 118.217,686.489 117.146,682.892 C116.131,679.484 117.112,676.917 120.222,675.412 C123.397,673.876 127.118,673.955 128.498,677.348 C132.729,687.744 142.357,690.003 151.275,693.362 C155.141,694.818 159.224,695.713 163.232,696.776 C166.766,697.713 168.534,699.957 168.67,703.64" fill="#FFCFBF"/>
    <path d="M82.147,277.753 C73.71,277.788 66.91,271.144 66.77,262.729 C66.627,254.102 73.522,247.206 82.217,247.279 C90.621,247.35 97.425,254.175 97.429,262.537 C97.432,270.823 90.507,277.718 82.147,277.753" fill="#6E4100"/>
    <path d="M279.445,615.561 C287.316,612.224 295.192,608.902 303.052,605.54 C304.5,604.92 305.738,604.656 305.541,606.828 C305.128,611.378 306.048,615.989 304.898,620.496 C304.862,617.885 303.695,616.966 300.961,616.95 C293.773,616.908 286.555,616.951 279.445,615.561" fill="#DBBF5A"/>
    <path d="M28.782,142.551 C28.164,143.543 27.472,144.671 26.763,145.788 C24.72,149.008 22.536,152.149 20.665,155.467 C19.288,157.91 18.296,158.86 15.52,156.756 C12.523,154.486 13.934,153.2 15.649,151.365 C18.709,148.093 21.628,144.69 24.65,141.382 C25.374,140.59 26.035,139.333 27.487,140.414 C28.178,140.928 28.783,141.438 28.782,142.551" fill="#724704"/>
    <path d="M11.24,97.443 C11.969,98.059 12.63,98.564 13.231,99.132 C16.738,102.449 20.214,105.798 23.737,109.096 C24.798,110.089 25.552,110.903 24.363,112.412 C23.068,114.056 22.131,112.977 21.086,112.276 C16.942,109.495 12.798,106.715 8.677,103.901 C7.802,103.303 6.377,102.835 7.511,101.306 C8.571,99.877 9.407,98.214 11.24,97.443" fill="#714604"/>
    <g clip-path="url(#Clip_2)">
      <path d="M70.006,150.592 C65.818,147.055 61.601,143.536 57.44,139.951 C56.406,139.061 54.717,138.392 56.071,136.383 C57.457,134.325 58.577,135.785 59.743,136.459 C62.911,138.288 66.04,140.183 69.194,142.035 C75.186,145.553 75.189,145.548 70.006,150.592" fill="#714603"/>
      <path d="M10.341,125.595 C12.654,125.595 14.967,125.644 17.278,125.578 C18.752,125.536 19.941,125.764 20.105,127.52 C20.258,129.153 18.959,129.351 17.862,129.588 C13.023,130.631 8.146,131.509 3.334,132.663 C0.503,133.341 0.486,131.597 0.176,129.726 C-0.151,127.754 -0.312,126.016 2.414,125.973 C5.056,125.932 7.698,125.964 10.34,125.964 C10.34,125.841 10.341,125.718 10.341,125.595" fill="#724704"/>
    </g>
    <path d="M62.727,122.749 C61.697,122.529 59.816,123.767 59.546,121.215 C59.309,118.968 60.959,118.995 62.378,118.615 C66.691,117.458 71.053,116.439 75.281,115.022 C78.41,113.973 78.849,115.679 79.429,117.998 C80.153,120.899 78.588,121.389 76.317,121.564 C71.858,121.908 67.405,122.336 62.727,122.749" fill="#724704"/>
    <path d="M41.594,152.368 C41.534,151.039 41.402,149.708 41.433,148.381 C41.467,146.95 40.118,144.914 43.01,144.603 C45.376,144.348 45.139,146.263 45.473,147.551 C46.555,151.727 47.426,155.958 48.548,160.123 C49.22,162.618 48.955,163.887 45.967,164.5 C42.817,165.145 42.288,163.846 42.171,161.325 C42.032,158.337 41.746,155.357 41.524,152.373 C41.548,152.371 41.571,152.37 41.594,152.368" fill="#724704"/>
    <path d="M39.772,94.79 C39.772,97.439 39.776,100.089 39.77,102.738 C39.767,103.77 39.691,104.707 38.297,104.835 C36.917,104.961 36.059,104.49 35.816,103.087 C34.915,97.872 34.054,92.65 33.108,87.444 C32.589,84.59 34.772,85.095 36.227,84.958 C37.653,84.825 39.739,83.867 39.629,86.842 C39.532,89.488 39.609,92.14 39.609,94.79 C39.663,94.79 39.717,94.79 39.772,94.79" fill="#704401"/>
    <path d="M54.025,110.618 C53.331,109.518 50.859,109.349 52.357,107.24 C55.525,102.781 58.754,98.365 61.918,93.903 C63.578,91.562 64.725,93.39 65.864,94.393 C66.994,95.389 69.021,96.245 66.961,98.248 C63.037,102.063 59.152,105.918 55.238,109.743 C54.9,110.074 54.464,110.305 54.025,110.618" fill="#6F4400"/>
    <path d="M426.641,16.928 C441.052,19.486 455.201,23.1 469.132,27.567 C472.059,28.505 474.864,29.299 477.709,27.323 C479.277,26.234 480.9,27.111 482.51,27.484 C512.955,34.553 539.5,49.287 563.803,68.552 C603.051,99.662 626.862,140.902 642.465,187.627 C653.372,220.288 659.864,253.796 662.803,288.084 C668.082,349.675 662.114,410.327 648.255,470.367 C648.07,471.169 647.702,471.929 647.21,473.288 C643.535,466.686 639.045,461.358 632.515,458.134 C624.523,454.188 616.141,452.764 607.302,454.297 C605.945,454.533 604.207,455.519 603.555,453.298 C600.278,442.131 592.14,435.713 581.719,431.37 C593.759,411.716 601.5,390.764 605.771,368.506 C606.178,366.385 607.321,365.4 609.426,365.159 C634.987,362.231 643.912,342.453 641.256,318.093 C640.552,311.633 639.159,305.253 635.788,299.556 C630.503,290.624 622.78,285.876 612.224,286.696 C608.953,286.95 607.826,286.15 607.107,282.721 C600.149,249.565 588.867,218.107 569.933,189.701 C549.57,159.15 522.824,136.115 489.415,120.846 C487.639,120.035 486.115,119.322 485.016,117.265 C481.899,111.428 476.107,111.685 472.704,117.571 C456.962,144.804 436.746,168.303 413.207,189.048 C384.506,214.342 351.585,232.526 316.294,246.761 C289.404,257.607 262.064,266.991 233.477,272.278 C218.352,275.075 203.13,276.393 187.831,273.613 C183.811,272.883 180.824,273.955 179.64,278.022 C178.445,282.126 180.648,285.366 185.239,286.41 C187.987,287.035 190.825,287.682 193.609,287.627 C197.517,287.55 197.935,289.444 197.506,292.6 C196.431,300.515 195.561,308.46 195.62,316.463 C195.636,318.653 195.14,319.548 192.658,319.848 C177.294,321.703 168.508,331.147 167.657,346.638 C166.953,359.455 168.01,371.959 175.434,383.059 C176.154,384.135 176.337,385.059 175.766,386.274 C172.577,393.065 169.988,400.073 168.188,407.371 C167.546,409.972 165.949,410.417 163.761,408.953 C163.789,399.126 162.595,389.362 161.831,379.595 C161.234,371.972 160.883,364.319 160.422,356.704 C159.185,336.276 158.392,315.776 159.319,295.324 C161.208,253.674 167.462,212.814 184.187,174.194 C190.614,159.355 198.1,145.034 207.338,131.702 C210.769,126.749 211.865,126.474 217.129,129.616 C230.093,137.354 243.557,143.949 258.723,145.788 C269.928,147.147 281.201,147.375 292.676,142.656 C285.92,141.714 279.947,140.429 274.189,138.257 C255.768,131.31 245.702,117.715 242.476,98.611 C241.714,94.099 243.029,90.46 246.485,87.457 C287.64,51.689 333.667,25.829 388.413,17.784 C393.335,17.061 398.276,16.113 403.315,16.375 C411.108,15.989 418.858,17.123 426.641,16.928" fill="#DCBF5C"/>
    <path d="M247.126,427.663 C266.505,425.793 267.886,423.808 260.901,408.69 C264.333,408.013 267.789,407.577 271.1,406.632 C280.448,403.962 284.209,397.943 282.678,388.285 C282.36,386.284 282.249,384.992 284.92,385.485 C285.866,385.659 286.9,385.338 287.895,385.27 C293.675,384.87 298.879,383.274 301.259,377.372 C303.645,371.459 301.778,366.032 297.732,361.677 C277.319,339.704 245.194,328.601 215.22,343.579 C213.897,344.24 212.577,344.904 210.735,345.828 C208.751,333.902 208.125,322.226 208.82,310.493 C209.193,304.185 210.076,297.908 210.633,291.609 C210.828,289.403 211.258,287.983 214.009,287.758 C254.306,284.464 291.813,271.089 328.738,255.711 C366.067,240.166 400.208,219.544 429.83,191.791 C448.021,174.749 464.083,155.908 477.394,134.821 C479.519,131.456 481.206,131.403 484.417,132.894 C530.109,154.105 560.482,189.496 579.324,235.469 C590.98,263.907 598.055,293.361 597.348,324.32 C596.538,359.79 589.526,393.629 570.696,424.337 C568.808,427.414 566.279,428.28 563.071,429.556 C554.113,433.119 548.783,429.66 543.261,422.908 C538.063,416.552 530.87,412.389 522.558,410.72 C514.535,409.109 508.188,411.856 503.235,418.179 C497.619,425.348 495.34,433.839 493.689,442.557 C493.409,444.038 493.272,445.435 492.117,446.615 C477.801,461.236 467.204,478.614 456.011,495.543 C454.677,497.561 453.355,499.104 450.771,499.573 C412.872,506.445 374.997,507.601 337.258,498.703 C302.858,490.592 273.724,473.689 251.093,446.146 C248.923,443.505 247.842,441.003 248.501,437.58 C249.123,434.348 249.653,430.995 247.126,427.663" fill="#FEF8EA"/>
    <path d="M682.553,789.438 C496.556,789.438 311.291,789.438 125.399,789.438 C132.021,780.741 139.654,773.929 147.82,767.694 C175.495,746.562 207.094,733.794 240.337,724.634 C278.208,714.199 316.916,709.165 356.07,707.382 C423.367,704.317 490.15,707.693 555.699,724.684 C594.745,734.804 631.861,749.398 664.569,773.675 C670.798,778.299 676.754,783.257 682.553,789.438" fill="#FEFEFE"/>
    <path d="M416.705,666.653 C418.116,674.977 418.874,683.413 421.346,691.554 C422.276,694.614 419.601,693.667 418.272,693.633 C402.961,693.248 387.655,693.368 372.343,693.652 C354.85,693.976 337.402,695.059 320.037,697.005 C314.989,697.57 314.45,696.09 314.681,691.827 C315.749,672.055 316.609,652.271 317.492,632.488 C317.96,622.013 318.337,611.534 318.72,601.055 C318.776,599.549 318.898,598.112 319.442,596.664 C320.516,593.799 320.326,591.033 317.822,588.929 C315.363,586.862 312.639,587.145 309.848,588.326 C299.595,592.665 289.399,597.151 279.049,601.247 C255.86,610.423 232.559,619.302 207.991,624.224 C205.382,624.747 202.74,625.101 200.111,625.517 C188.521,627.353 180.033,622.902 174.184,612.876 C166.823,600.258 163.717,586.302 161.663,572.118 C156.097,533.671 157.406,495.1 160.22,456.533 C160.91,447.072 162.002,437.638 162.574,428.171 C162.837,423.813 163.622,422.155 168.721,423.343 C189.283,428.137 209.963,432.431 230.62,436.814 C233.96,437.522 235.385,438.466 234.828,442.575 C230.018,478.025 225.535,513.521 220.961,549.003 C220.663,551.315 220.296,553.626 220.168,555.949 C219.957,559.766 221.513,562.557 225.527,563.089 C229.598,563.628 233.015,561.767 232.871,557.598 C232.558,548.548 238.365,544.743 244.939,540.63 C265.572,527.718 287.013,516.419 309.354,506.783 C311.937,505.669 314.193,505.471 316.971,506.433 C326.403,509.697 336.028,512.371 345.923,513.822 C349.204,514.303 350.146,515.413 349.667,518.885 C346.973,538.415 352.73,554.782 368.853,566.754 C381.092,575.842 395.311,576.2 407.988,567.794 C410.699,565.997 412.552,565.912 414.771,568.08 C417.073,570.329 421.828,569.927 422.456,573.414 C422.977,576.308 421.41,579.561 420.851,582.67 C419.766,588.702 418.74,594.745 417.69,600.783 C415.662,601.464 414.776,599.628 413.455,598.811 C409.028,596.075 403.185,596.426 400.128,599.693 C397.381,602.629 396.947,609.633 399.319,612.734 C402.073,616.332 407.838,617.361 412.459,615.092 C413.749,614.458 414.814,613.141 416.515,613.713 C416.233,627.35 415.95,640.986 415.668,654.623 C413.15,656.4 410.931,654.138 408.535,654.056 C404.634,653.922 401.029,654.472 399.105,658.217 C397.19,661.945 396.947,666.077 399.42,669.604 C401.83,673.04 405.63,673.734 409.695,673.176 C413.601,672.639 414.598,669.071 416.705,666.653" fill="#FFCFBF"/>
    <path d="M493.076,673.514 C493.53,675.669 493.773,677.305 494.222,678.882 C497.486,690.352 508.957,694.235 518.055,686.615 C521.187,683.992 522.793,682.831 526.716,685.918 C531.871,689.973 537.845,687.989 543.002,684.65 C545.234,683.205 546.816,682.513 549.574,684.079 C552.817,685.92 556.729,684.829 560.341,684.21 C572.115,682.189 583.593,678.866 595.505,675.942 C595.917,681.871 596.203,687.516 596.724,693.139 C597.805,704.792 586.328,713.34 576.954,716.567 C575.576,717.041 574.37,716.229 573.106,715.861 C530.072,703.354 486.051,696.895 441.373,694.692 C437.083,694.48 435.389,693.081 434.209,689.071 C428.717,670.39 428.896,651.246 429.117,632.103 C429.405,607.013 432.862,582.394 440.456,558.395 C452.422,520.577 474.464,488.68 498.937,458.175 C501.467,455.022 503.67,454.427 507.637,456.594 C551.534,480.57 595.557,504.315 639.6,528.024 C642.814,529.754 643.778,531.042 641.412,534.467 C634.89,543.908 628.678,553.569 622.528,563.26 C620.834,565.93 619.071,566.965 615.746,566.812 C583.776,565.337 553.99,574.597 524.616,585.749 C521.631,586.882 519.573,589.265 520.254,592.234 C521.147,596.13 518.896,596.107 516.434,596.763 C488.2,604.286 468.902,621.19 461.196,649.974 C459.257,657.213 458.07,664.623 459.387,672.183 C461.068,681.835 468.561,686.259 477.832,682.858 C480.61,681.838 483.257,680.36 485.793,678.812 C488.179,677.355 490.34,675.529 493.076,673.514" fill="#FEFEFE"/>
    <path d="M402.544,17.629 C359.651,20.802 321.157,36.306 285.39,59.438 C271.802,68.227 259.166,78.244 246.938,88.836 C243.44,91.865 243.152,95.07 243.876,99.016 C247.945,121.219 261.948,135.413 284.232,139.803 C287.971,140.539 291.747,141.089 296.742,141.934 C290.056,145.705 283.844,147.213 277.358,147.817 C255.846,149.821 236.729,142.796 218.584,132.15 C217.435,131.476 216.202,130.887 215.202,130.031 C212.463,127.685 211.022,128.658 209.124,131.419 C188.741,161.081 175.983,193.868 168.586,228.92 C161.045,264.657 159.39,300.841 160.834,337.181 C161.738,359.941 162.838,382.715 165.285,405.387 C165.442,406.848 165.921,408.475 163.758,408.952 C162.63,408.742 161.497,408.542 160.369,408.317 C154.892,407.225 152.226,408.932 151.246,414.295 C150.862,416.392 150.701,418.531 150.438,420.651 C149.871,421.322 149.299,421.319 148.723,420.663 C144.663,386.762 142.198,352.704 142.922,318.599 C144.435,247.401 160.582,179.925 198.747,119.022 C225.328,76.606 261.284,44.577 308.601,26.51 C344.558,12.779 381.656,10.116 419.521,15.937 C419.005,18.224 417.156,17.133 415.92,17.222 C411.471,17.542 406.986,16.863 402.544,17.629" fill="#FEFEFE"/>
    <path d="M613.002,579.275 C622.156,578.675 634.387,583.615 643.716,594.936 C656.583,610.548 654.857,627.974 639.365,641.085 C629.04,649.823 616.936,655.349 604.276,659.536 C589.928,664.281 575.236,667.859 560.428,670.952 C557.529,671.557 556.371,671.117 555.532,668.188 C548.954,645.201 542.234,622.253 535.505,599.309 C534.895,597.231 534.468,595.768 537.235,594.804 C560.058,586.858 583.145,580.208 613.002,579.275" fill="#FFCFBF"/>
    <path d="M591.289,462.055 C590.813,469.682 594.809,472.592 601.752,469.509 C608.236,466.629 614.846,465.887 621.69,467.818 C631.429,470.565 636.61,477.624 637.36,489.053 C637.789,495.59 640.234,497.425 646.773,496.329 C653.253,495.242 659.696,495.055 665.831,498.003 C669.172,499.609 670.077,501.75 667.718,505.072 C663.797,510.594 658.675,514.774 653.375,518.835 C651.759,520.074 650.648,519.278 649.341,518.57 C602.895,493.422 556.454,468.264 509.974,443.178 C507.819,442.016 507.108,440.818 507.864,438.466 C513.221,421.78 517.767,418.69 532.409,430.403 C536.479,433.659 539.662,437.729 542.272,442.226 C545.889,448.46 548.079,449.13 554.154,445.735 C564.227,440.107 575.922,441.021 585,448.145 C589.628,451.776 591.652,456.253 591.289,462.055" fill="#FEFEFE"/>
    <path d="M288.629,371.771 C283.996,373.036 279.593,371.993 275.287,371.372 C270.204,370.64 265.218,369.253 260.174,368.227 C258.554,367.897 256.885,367.659 255.235,367.646 C251.095,367.615 247.896,369.186 247.656,373.754 C247.423,378.187 250.049,380.393 254.36,380.767 C260.38,381.29 264.845,384.441 268.627,388.966 C271.278,392.136 270.027,393.536 266.678,394.357 C260.801,395.799 254.809,395.871 248.818,395.71 C245.294,395.616 242.146,396.013 240.44,399.659 C238.671,403.441 240.874,405.965 243.167,408.494 C244.587,410.06 245.94,411.686 247.792,413.826 C242.112,414.341 237.37,413.494 232.705,411.868 C225.523,409.365 222.532,411.324 222.065,419.003 C221.946,420.954 221.625,421.598 219.464,421.111 C207.307,418.374 195.118,415.783 182.934,413.171 C181.3,412.82 180.18,412.417 180.811,410.276 C187.442,387.754 198.23,368.035 219.456,356.142 C239.498,344.912 262.28,348.414 282.465,364.974 C284.755,366.852 287.181,368.635 288.629,371.771" fill="#FEF8EA"/>
    <path d="M506.367,670.409 C506.455,664.894 507.504,660.016 509.296,655.345 C510.82,651.372 511.249,647.66 506.938,645.424 C502.427,643.085 499.667,645.701 497.113,649.369 C491.752,657.069 485.229,663.694 477.245,668.74 C475.905,669.586 474.295,671.179 472.842,670.294 C471.474,669.46 471.753,667.333 471.84,665.671 C473.328,637.205 493.442,614.234 521.371,608.952 C523.89,608.476 524.872,609.104 525.573,611.557 C530.682,629.421 535.946,647.242 541.13,665.084 C542.081,668.357 537.685,674.365 534.387,674.457 C533,674.495 532.755,673.487 532.628,672.524 C532.368,670.551 532.115,668.561 532.096,666.575 C532.063,663.168 530.662,660.674 527.326,659.854 C523.835,658.996 521.286,660.52 519.472,663.65 C517.727,666.661 515.805,669.587 513.748,672.394 C512.227,674.47 510.534,677.793 507.86,676.827 C505.487,675.969 506.641,672.361 506.367,670.409" fill="#FEF8EA"/>
    <path d="M236.633,530.534 C239.5,507.941 242.189,486.693 244.91,465.448 C245.092,464.03 245.517,462.642 245.993,460.501 C260.527,476.086 276.817,488.488 296.31,498.071 C275.558,507.809 256.02,517.9 236.633,530.534" fill="#DCBF5C"/>
    <path d="M362.126,527.099 C362.13,526.764 362.077,526.42 362.138,526.099 C362.732,522.972 361.125,519.035 364.241,516.887 C366.96,515.013 375.311,518.207 377.832,521.432 C385.626,531.399 393.268,541.493 401.307,551.258 C403.987,554.514 402.943,555.852 399.981,557.532 C392.092,562.006 384.413,561.895 377.039,556.543 C367.064,549.302 361.865,539.563 362.126,527.099" fill="#FFCFBF"/>
    <path d="M628.605,325.744 C628.775,340.038 623.172,348.766 612.199,351.516 C609.455,352.203 608.3,351.893 608.702,348.597 C610.495,333.893 611.03,319.131 609.518,304.376 C609.086,300.166 610.667,299.268 614.416,299.539 C619.244,299.888 622.458,302.305 624.59,306.434 C627.719,312.493 628.5,319.051 628.605,325.744" fill="#FEF8EA"/>
    <path d="M594.01,722.564 C601.468,716.633 606.963,710.345 608.986,701.653 C609.351,700.085 609.855,699.367 611.676,700.188 C619.697,703.8 627.698,707.397 634.766,712.783 C637.482,714.853 637.642,716.584 635.406,719.184 C632.518,722.544 629.086,724.28 624.701,724.749 C619.906,725.262 614.565,723.878 610.724,728.34 C610.097,729.069 609.21,728.375 608.447,728.08 C603.834,726.296 599.208,724.545 594.01,722.564" fill="#FEFEFE"/>
    <path d="M183.913,371.771 C180.359,361.8 179.307,352.358 181.641,342.739 C183.079,336.812 187.251,333.39 192.708,332.807 C195.13,332.548 196.3,333.054 196.506,335.832 C196.923,341.447 197.761,347.03 198.423,352.627 C198.58,353.951 198.629,355.099 197.409,356.192 C192.458,360.624 188.339,365.82 183.913,371.771" fill="#FEF8E9"/>
    <path d="M428.622,516.104 C422.726,524.723 417.379,532.483 412.108,540.295 C410.99,541.951 410.241,541.665 409.177,540.287 C403.627,533.101 398.03,525.952 391.773,517.922 C404.356,517.989 415.88,517.469 428.622,516.104" fill="#FEF7E9"/>
    <path d="M416.515,613.713 C414.136,615.426 412.107,617.617 408.797,617.782 C403.184,618.062 398.163,615.34 396.802,610.939 C395.071,605.342 396.956,599.465 401.313,596.875 C405.649,594.298 412.05,595.323 415.844,599.18 C416.414,599.759 417.072,600.25 417.69,600.782 C417.682,605.128 417.517,609.459 416.515,613.713" fill="#FEFEFE"/>
    <path d="M416.705,666.653 C415.965,672.297 413.188,674.738 407.496,674.749 C401.716,674.76 397.129,671.447 396.577,666.561 C396.062,661.996 396.088,657.41 400.504,654.446 C404.624,651.681 408.951,652.008 413.307,653.991 C414.038,654.324 414.878,654.418 415.668,654.622 C415.668,654.623 415.642,654.619 415.642,654.619 C416.522,656.197 415.628,658.017 416.322,659.621 C416.45,661.965 416.577,664.309 416.705,666.653" fill="#FEFEFE"/>
    <path d="M438.725,526.2 C437.175,529.955 435.5,533.664 434.104,537.475 C431.768,543.856 429.57,550.289 427.404,556.73 C426.765,558.632 425.805,559.9 424.011,558.266 C422.261,556.673 417.194,556.635 419.466,552.947 C425.2,543.642 431.713,534.818 437.913,525.801 C438.184,525.934 438.454,526.067 438.725,526.2" fill="#FDCDBD"/>
    <path d="M402.544,17.629 C406.169,15.875 410.036,17.134 413.768,16.726 C415.691,16.515 417.766,17.381 419.52,15.937 C421.893,16.267 424.265,16.597 426.639,16.928 C418.65,18.594 410.575,17.342 402.544,17.629" fill="#F2EAD2"/>
    <path d="M148.723,420.663 C149.295,420.659 149.866,420.655 150.438,420.651 C150.718,422.021 150.631,423.314 149.884,424.737 C148.22,423.439 148.576,422.026 148.723,420.663" fill="#CCBEAE"/>
    <path d="M416.322,659.621 C415.113,658.087 415.572,656.327 415.642,654.619 C417.057,656.125 416.496,657.899 416.322,659.621" fill="#FFCFBF"/>
    <path d="M76.025,206.354 C75.868,216.326 67.302,224.697 57.361,224.594 C47.103,224.487 38.798,215.828 39.094,205.546 C39.385,195.415 47.758,187.434 57.912,187.61 C67.878,187.782 76.182,196.376 76.025,206.354" fill="#FEFEFE"/>
    <path d="M82.139,269.752 C78.198,269.818 74.763,266.428 74.772,262.483 C74.782,258.772 77.989,255.429 81.692,255.268 C85.553,255.101 89.278,258.497 89.411,262.306 C89.542,266.069 86.009,269.688 82.139,269.752" fill="#FDFDFC"/>
    <path d="M221.342,246.681 C217.574,246.404 215.255,244.798 214.613,241.382 C213.931,237.755 215.543,235.287 218.89,233.866 C227.313,230.29 235.547,226.336 243.579,221.936 C271.757,206.498 297.095,187.151 320.947,165.774 C337.443,150.99 353.1,135.366 367.514,118.518 C371.086,114.344 374.665,113.692 377.835,116.358 C381.14,119.137 381.273,122.807 377.665,126.863 C335.98,173.723 289.686,214.805 232.504,242.15 C228.783,243.929 225.104,245.911 221.342,246.681" fill="#6E4100"/>
    <path d="M335.746,304.752 C336.731,305.341 336.226,308.139 338.994,306.023 C356.608,292.565 377.174,287.797 398.796,285.606 C416.054,283.857 432.822,284.753 449.256,290.504 C452.266,291.557 455.104,292.893 457.779,294.566 C459.193,295.451 459.447,294.761 459.634,293.609 C463.8,296.132 465.779,300.644 468.887,304.119 C470.633,306.071 468.264,308.538 466.469,309.935 C463.184,312.491 461.432,315.443 462.586,319.668 C457.026,326.088 449.172,328.744 441.716,331.714 C426.786,337.66 411.083,339.749 395.036,339.792 C380.101,339.831 365.173,340.073 350.666,335.731 C347.025,334.641 343.358,333.467 339.947,331.824 C334.866,329.377 330.854,325.776 329.897,319.766 C329.631,319.526 329.329,319.144 329.46,318.968 C332.632,314.701 333.632,309.48 335.746,304.752" fill="#EEEEEA"/>
    <path d="M552.377,389.739 C530.881,389.715 514.394,375.511 514.608,356.934 C514.863,334.875 533.445,316.434 552.042,316.443 C572.571,316.452 587.84,339.719 587.602,354.762 C587.316,372.838 570.512,389.759 552.377,389.739" fill="#FFD5BA"/>
    <path d="M462.586,319.668 C459.487,316.09 460.153,313.176 464.003,310.614 C465.361,309.71 466.447,308.391 467.631,307.235 C469.127,305.774 469.129,304.519 467.277,303.24 C463.771,300.818 461.603,297.28 459.634,293.609 C459.653,289.932 461.03,286.952 464.739,285.962 C468.517,284.954 470.743,287.219 472.848,290.22 C477.449,296.78 489.569,300.28 497.189,297.674 C500.473,296.551 502.243,294.339 503.061,290.93 C504.246,285.99 507.18,283.963 511.098,284.847 C514.864,285.696 516.544,289.015 515.698,293.931 C513.705,305.51 502.441,313.664 488.967,311.193 C480.976,309.728 475.359,310.308 470.727,317.191 C468.897,319.911 465.695,320.116 462.586,319.668" fill="#6E4100"/>
    <path d="M464.228,465.688 C440.187,461.698 417.384,466.17 394.524,466.746 C389.194,466.88 383.934,467.766 378.79,469.174 C375.741,470.009 372.828,471.131 370.601,473.628 C368.639,475.829 366.155,476.063 364.007,474.063 C361.816,472.023 362.173,469.604 364.016,467.384 C367.012,463.776 371.083,461.993 375.439,460.707 C384.612,457.998 394.091,457.391 403.544,457.115 C421.624,456.586 439.641,453.395 457.79,455.693 C460.094,455.985 462.435,456.22 464.659,456.841 C467.23,457.558 468.464,459.453 467.871,462.18 C467.328,464.68 465.521,465.632 464.228,465.688" fill="#6E4100"/>
    <path d="M335.746,304.752 C336.716,310.894 333.055,315.232 329.897,319.766 C320.883,328.072 310.766,333.526 297.997,331.887 C296.148,331.65 295.374,332.781 294.294,333.812 C292.497,335.526 290.638,337.203 288.636,338.665 C286.32,340.358 283.845,340.36 282.045,337.928 C280.31,335.584 280.527,332.855 283.044,331.412 C287.535,328.837 287.125,326.382 283.75,323.292 C282.933,322.544 282.491,321.348 281.987,320.306 C279.536,315.235 280.365,311.56 284.344,309.662 C288.06,307.89 290.989,309.272 293.609,314.382 C295.234,317.552 297.741,318.963 301.147,319.204 C309.299,319.781 319.563,313.62 322.974,306.07 C326.021,299.323 330.934,298.816 335.746,304.752" fill="#6E4100"/>
    <path d="M501.951,188.766 C492.065,187.927 481.341,184.854 471.335,179.336 C468.819,177.948 467.466,175.907 469.05,173.226 C470.664,170.493 473.028,171.04 475.511,172.369 C484.668,177.271 494.353,180.459 504.828,180.735 C507.899,180.816 510.727,181.109 510.658,185.05 C510.592,188.863 507.711,188.847 504.938,188.768 C504.441,188.754 503.944,188.766 501.951,188.766" fill="#6E4300"/>
    <path d="M405.676,313.641 C405.598,318.569 400.193,321.805 396.021,319.087 C392.665,316.9 390.07,313.62 388.905,309.76 C387.566,305.322 392.061,301.037 396.578,302.035 C400.018,302.795 405.733,310.085 405.676,313.641" fill="#6F4300"/>
  </g>
</svg>
