<?xml version="1.0" encoding="UTF-8"?>
<!DOCTYPE svg PUBLIC "-//W3C//DTD SVG 1.1//EN" "http://www.w3.org/Graphics/SVG/1.1/DTD/svg11.dtd">
<svg version="1.1" xmlns="http://www.w3.org/2000/svg" xmlns:xlink="http://www.w3.org/1999/xlink" x="0" y="0" width="1016" height="918" viewBox="0, 0, 1016, 918">
  <defs>
    <clipPath id="Clip_1">
      <path d="M0.06,0.075 L1015.72,0.075 L1015.72,917.94 L0.06,917.94 z"/>
    </clipPath>
  </defs>
  <g id="Layer_1">
    <g clip-path="url(#Clip_1)">
      <path d="M841.34,278.014 C862.394,286.634 881.136,299.262 899.778,312.005 C917.845,324.356 935.133,337.683 951.43,352.382 C969.547,368.722 985.731,386.546 998.318,407.491 C1011.16,428.869 1017.74,451.989 1015.16,476.945 C1012.9,498.929 1003.47,518.206 990.156,535.722 C978.333,551.272 963.889,564.1 949.244,576.847 C938.044,586.594 927.552,597.198 924.916,612.87 C923.373,622.042 924.438,631.06 927.218,639.852 C933.061,658.327 939.562,676.612 942.792,695.812 C943.916,702.493 945.052,709.171 945.365,715.955 C946.116,722.626 946.116,729.297 945.365,735.968 C944.444,750.996 940.956,765.468 935.128,779.287 C926.955,798.667 915.816,816.363 902.785,832.805 C883.768,856.802 859.175,871.706 828.855,876.828 C827.069,877.129 825.199,876.93 823.368,876.963 C821.507,878.168 819.207,876.66 817.357,877.934 C813.694,877.942 810.032,877.951 806.369,877.959 C798.032,878.741 789.694,878.729 781.357,877.964 C778.624,877.925 775.891,877.885 773.159,877.845 C772.029,871.028 771.699,864.079 769.635,857.41 C769.154,855.856 770.15,854.539 771.384,853.53 C772.677,852.475 774.099,851.605 775.463,850.653 C786.114,843.224 788.217,835.323 782.691,823.506 C782.197,822.451 781.72,821.381 781.143,820.373 C779.509,817.514 779.851,815.031 782.26,812.736 C783.945,811.13 785.576,809.461 787.185,807.775 C793.96,800.681 794.908,793.036 790.073,784.51 C789.251,783.061 788.342,781.66 787.379,780.307 C785.21,777.261 785.27,774.477 788.121,771.89 C788.735,771.332 789.293,770.708 789.869,770.108 C798.789,760.795 799.39,751.286 791.714,740.965 C791.317,740.431 790.876,739.93 790.472,739.401 C787.176,735.087 787.163,734.307 791.138,730.738 C795.425,726.891 798.191,722.396 798.24,716.458 C798.283,711.269 795.431,706.873 791.084,705.639 C786.385,704.305 781.458,706.433 779.01,711.299 C777.477,714.345 775.436,716.777 772.995,719.12 C765.153,726.651 764.164,737.192 770.172,746.317 C775.299,754.104 775.299,754.104 769.296,761.616 C762.318,770.35 761.854,777.48 767.622,787.371 C771.666,794.306 771.666,794.306 766.108,799.578 C757.29,807.944 755.904,814.963 760.884,826.035 C764.215,833.442 764.216,833.442 757.588,838.034 C748.938,844.027 746.404,851.316 749.278,861.936 C751.333,869.531 751.397,869.724 744.063,872.172 C740.311,873.425 737.547,876.772 733.351,876.892 C733.342,876.588 733.342,876.284 733.352,875.981 C731.881,874.679 729.849,876.122 728.349,874.959 C724.356,874.948 720.362,874.937 716.368,874.926 C714.862,873.738 712.867,875.094 711.349,873.963 C707.057,873.963 702.765,873.964 698.473,873.965 C697.075,871.563 699.162,871.098 700.558,870.456 C702.827,869.413 705.276,868.818 707.623,867.96 C717.916,864.196 723.207,855.966 719.771,845.64 C716.897,837.001 719.146,832.441 726.364,827.8 C734.297,822.701 735.846,814.179 732.044,805.207 C727.843,795.294 727.843,795.294 735.018,787.946 C741.932,780.866 743.066,772.308 738.219,763.726 C737.317,762.128 736.29,760.605 735.243,759.104 C733.217,756.201 733.332,753.563 735.946,751.074 C736.91,750.157 737.822,749.181 738.75,748.225 C746.326,740.42 747.222,731.647 741.394,722.392 C740.504,720.98 739.544,719.614 738.441,718.364 C735.792,715.362 736.191,712.699 739.207,710.226 C743.096,707.036 745.453,702.897 746.469,698.01 C747.657,692.301 744.336,686.406 739.152,684.857 C734.208,683.379 729.24,686.012 726.892,691.645 C725.954,693.898 724.527,695.562 722.762,697.148 C713.431,705.532 712.131,716.276 719.102,726.652 C719.752,727.621 720.412,728.586 721.143,729.493 C723.698,732.666 723.347,735.511 720.409,738.271 C717.362,741.134 714.74,744.274 713.109,748.268 C710.335,755.066 712.413,760.961 715.872,766.752 C720.142,773.903 720.121,773.915 713.837,779.503 C705.785,786.663 704.252,795.37 709.218,805.735 C712.424,812.425 712.424,812.425 706.381,816.874 C696.95,823.817 694.531,831.086 697.802,842.661 C699.428,848.415 699.246,849.395 694.017,850.843 C683.781,853.675 678.449,860.463 676.695,870.598 C676.462,871.94 676.666,873.782 674.501,873.953 C656.781,873.664 639.256,875.876 621.68,877.721 C614.162,878.51 606.679,880.138 599.045,879.759 C599.489,878.026 601.02,877.568 602.4,877.102 C612.048,873.838 617.38,866.46 621.109,857.565 C628.661,839.552 631.585,820.465 633.859,801.27 C637.519,770.359 638.88,739.329 639.116,708.198 C639.198,697.422 639.93,686.606 639.841,675.8 C639.787,669.159 638.389,662.566 638.937,655.887 C639.033,654.722 639.131,653.564 639.603,652.479 C640.234,651.198 641.384,650.497 642.646,650.055 C650.342,647.36 658.049,644.703 665.631,641.692 C668.897,640.395 671.002,641.496 672.075,644.949 C674.394,652.413 679.785,656.233 687.28,657.664 C693.241,658.801 699.147,658.876 705.135,657.953 C721.537,655.426 737.122,650.205 752.419,643.956 C754.213,643.223 756.273,641.323 758.157,643.996 C758.641,645.079 758.649,646.267 758.91,647.398 C760.362,653.708 765.56,655.799 771.059,652.261 C776.893,648.507 781.473,643.424 785.526,637.911 C811.517,602.551 831.123,564.068 842.81,521.614 C848.799,499.856 852.84,477.772 854.687,455.341 C856.435,434.109 856.37,412.831 855.201,391.513 C853.777,365.554 850.916,339.791 846.994,314.119 C845.459,304.074 843.466,294.118 841.211,284.211 C840.747,282.171 839.685,280.042 841.34,278.014" fill="#EAF1F7"/>
      <path d="M398.193,891.937 C396.903,889.543 394.634,889.987 392.497,889.914 C372.357,889.231 352.223,890.367 332.143,891.217 C304.502,892.389 276.891,891.396 249.274,891.948 C248.35,892.096 247.635,891.649 247.081,891.02 C243.123,886.523 237.957,885.272 232.232,885.228 C226.061,885.181 225.53,884.985 226.198,879.125 C227.532,867.404 222.451,859.566 212.402,854.465 C208.792,852.632 208.242,850.23 209.681,846.705 C211.501,842.248 213.398,837.776 212.717,832.731 C211.845,826.263 207.596,822.081 203.019,818.1 C198.24,813.942 198.122,813.379 201.112,808.095 C207.76,796.346 206.449,787.899 196.549,778.681 C192.937,775.318 192.74,773.969 195.535,769.693 C197.82,766.197 200.229,762.74 200.903,758.526 C202.012,751.595 199.599,745.829 194.893,740.757 C189.533,734.98 189.789,734.862 194.694,728.996 C198.519,724.421 201.123,719.195 199.439,712.895 C198.286,708.579 195.226,705.844 191.011,705.502 C186.649,705.149 182.915,706.76 181.057,710.746 C179.457,714.177 177.172,716.794 174.566,719.42 C167.105,726.939 166.565,738.362 172.984,746.752 C174,748.079 175.088,749.351 176.32,750.466 C179.591,753.424 179.941,756.514 177.276,760.127 C175.107,763.069 173.235,766.189 172.108,769.764 C169.993,776.473 171.468,782.221 176.173,787.282 C176.74,787.892 177.337,788.474 177.921,789.067 C184.314,795.552 184.314,795.553 180.053,803.413 C174.498,813.664 175.771,821.412 184.318,829.424 C185.413,830.452 186.548,831.434 187.762,832.312 C190.91,834.592 191.893,837.325 189.951,840.947 C188.77,843.148 188.017,845.559 187.393,847.98 C185.24,856.329 188.003,863.584 195.12,868.448 C197.051,869.768 199.102,870.885 201.204,871.89 C204.686,873.555 206.331,876.186 205.234,879.978 C204.375,882.95 205.794,886.408 203.261,888.991 C196.918,886.947 190.25,886.975 183.745,885.961 C141.28,879.341 100.115,868.836 63.834,844.517 C32.093,823.24 13.05,793.132 4.545,756.216 C-1.161,731.45 -2.456,706.631 6.318,682.18 C9.715,672.712 14.625,664.063 21.944,656.973 C32.097,647.137 42.465,637.511 52.357,627.419 C59.44,620.193 65.931,612.36 69.577,602.674 C74.495,589.608 72.99,577.781 63.259,567.154 C55.056,558.195 45.769,550.481 36.602,542.613 C22.073,530.144 15.861,513.203 11.646,495.41 C8.199,480.856 6.782,465.941 7.532,450.976 C9.024,421.25 15.878,393.131 34.951,369.377 C45.575,356.144 57.905,344.501 70.986,333.633 C85.266,321.769 99.803,310.246 114.59,299.029 C117.223,304.092 114.827,309.182 114.362,314.154 C112.937,329.402 111.48,344.678 111.942,359.963 C112.784,387.795 116.495,415.344 122.061,442.626 C127.498,469.27 134.618,495.448 144.364,520.864 C157.602,555.391 175.842,586.893 200.396,614.723 C212.583,628.535 226.232,640.647 240.564,652.085 C242.126,653.332 243.731,654.527 245.411,655.613 C251.69,659.672 254.383,659.199 258.796,653.26 C259.195,652.723 259.601,652.2 260.105,651.759 C263.831,650.491 266.419,653.068 269.196,654.642 C277.927,659.589 287.04,663.422 297.008,665.014 C304.835,666.264 310.597,663.664 314.752,656.991 C315.454,655.864 316.033,654.666 316.697,653.519 C318.076,651.138 318.991,647.791 322.604,648.496 C326.208,649.2 330.429,649.465 331.627,654.208 C332.461,665.869 330.306,677.438 330.726,689.116 C331.163,701.258 330.826,713.428 330.822,725.586 C330.821,728.436 330.798,731.279 329.037,733.734 C326.042,737.908 325.309,742.637 326.047,747.546 C326.559,750.961 325.819,753.561 323.387,756.125 C317.132,762.718 315.063,770.392 318.567,779.104 C319.569,781.595 319.421,783.974 318.364,786.366 C315.508,792.828 317.404,798.387 321.666,803.459 C325.279,807.758 329.869,810.934 334.947,812.998 C340.168,815.12 342.638,818.799 344.101,823.923 C346.71,833.065 350.352,841.778 354.982,850.148 C362.597,863.917 374.078,871.45 389.566,873.387 C396.978,874.314 397.108,874.479 398.094,881.896 C398.533,885.191 400.635,888.58 398.193,891.937" fill="#E2EBF4"/>
      <path d="M398.193,891.937 C397.591,887.328 396.865,882.73 396.444,878.105 C396.245,875.918 395.107,875.3 393.259,875.125 C391.603,874.968 389.955,874.728 388.3,874.56 C370.398,872.742 359.204,862.122 351.513,846.743 C347.41,838.54 344.067,830.046 341.723,821.212 C340.894,818.089 339.419,816.47 336.513,815.342 C330.547,813.028 325.328,809.466 321.017,804.69 C315.643,798.738 313.628,792.095 317.552,784.597 C318.467,782.848 318.175,781.645 317.5,780.008 C313.508,770.333 315.555,761.093 323.306,754.228 C324.872,752.841 325.408,751.885 324.849,749.689 C323.305,743.625 323.886,737.705 328.185,732.782 C329.865,730.857 329.603,728.805 329.556,726.702 C329.013,702.401 329.365,678.116 330.746,653.848 C330.846,649.757 328.935,647.141 325.29,645.219 C305.279,634.665 286.918,621.754 270.887,605.742 C246.574,581.459 229.023,552.815 216.822,520.793 C214.033,513.473 211.288,506.13 209.411,498.516 C208.536,494.967 206.81,493.463 202.915,493.133 C188.413,491.905 175.64,486.786 166.836,474.515 C160.158,465.207 156.898,454.528 156.25,443.191 C155.796,435.227 155.774,427.208 157.225,419.276 C159.885,404.729 166.048,392.751 180.689,386.909 C184.281,385.476 188.003,384.479 191.89,384.733 C195.858,384.992 197.604,383.279 198.044,379.369 C201.243,350.94 207.673,323.237 217.143,296.249 C229.584,260.791 247.663,228.509 272.78,200.491 C300.851,169.177 334.846,146.225 374.044,130.991 C376.064,130.206 378.038,129.298 380.098,128.631 C382.574,127.828 383.83,126.341 384.188,123.622 C384.879,118.364 387.486,115.545 391.615,114.895 C396.927,114.059 401.074,116.057 403.358,121.254 C411.426,139.614 421.41,156.913 432.114,173.817 C443.189,191.307 455.882,207.541 469.62,223.042 C485.851,241.356 504.126,257.256 524.046,271.356 C540.565,283.05 558.545,292.213 576.641,301.072 C599.385,312.206 622.491,322.589 646.216,331.505 C674.484,342.127 703.069,351.651 733.09,356.127 C743.182,357.631 753.315,357.851 763.481,357.712 C765.981,357.677 768.534,357.611 770.657,359.281 C773.713,361.686 775.712,364.697 775.075,368.746 C774.454,372.691 772.037,375.315 768.299,376.711 C767.673,376.945 767.018,377.121 766.357,377.166 C763.644,377.35 762.585,378.822 762.733,381.467 C762.906,384.572 765.052,384.74 767.331,384.675 C772.392,384.53 777.209,385.307 781.941,387.316 C795.354,393.01 801.213,404.278 803.982,417.49 C806.533,429.656 806.553,441.982 803.667,454.176 C798.061,477.866 782.313,491.441 757.985,493.134 C753.681,493.433 751.992,495.084 750.803,499.015 C743.685,522.55 734.235,545.057 721.052,565.938 C702.672,595.053 678.923,618.707 649.528,636.57 C644.432,639.667 640.441,642.588 641.557,649.236 C641.723,650.222 641.142,651.168 640.534,651.989 C641.348,691.58 641.065,731.16 638.226,770.669 C636.367,796.53 634.046,822.374 626.437,847.368 C625.328,851.008 623.919,854.566 622.492,858.099 C618.093,868.993 611.002,877.022 599.046,879.759 C597.829,879.874 596.613,879.989 595.397,880.103 C588.3,880.483 581.211,881.46 574.099,880.896 C571.34,880.677 569.685,881.699 568.481,883.949 C567.435,888.451 566.376,892.949 565.347,897.455 C564.277,902.137 562.326,905.91 556.743,906.099 C551.573,906.273 549.229,904.258 547.263,897.913 C545.336,893.826 547.727,890.1 548.405,886.292 C550.072,876.927 549.975,877.713 541.009,874.662 C526.032,869.565 511.235,869.803 495.806,872.099 C475.259,875.157 454.545,877.313 433.696,877.532 C429.224,877.578 424.778,878.607 420.262,878.465 C417.023,878.363 415.771,879.914 416.286,883.148 C416.94,887.257 417.567,891.375 418.014,895.514 C418.207,897.3 418.796,899.156 417.457,900.793 C415.457,907.592 412.063,910.293 406.683,909.265 C402.324,908.432 400.23,905.482 399.574,901.315 C399.083,898.194 398.651,895.063 398.193,891.937" fill="#6E4100"/>
      <path d="M260.511,651.882 C257.873,660.245 252.139,662.134 244.921,656.902 C200.379,624.622 168.676,582.322 147.38,531.89 C132.031,495.539 122.875,457.51 116.458,418.718 C112.705,396.026 110.605,373.205 110.941,350.195 C111.16,335.225 112.026,320.292 114.205,305.457 C114.515,303.341 114.47,301.173 114.59,299.029 C119.462,274.619 124.645,250.27 134.386,227.229 C156.65,174.567 187.325,127.719 230.998,90.202 C256.779,68.055 285.859,51.862 319.895,46.8 C331.215,45.117 340.322,41.455 349.502,34.324 C367.128,20.633 388.656,14.912 410.145,10.071 C446.388,1.907 483.108,-2.042 520.192,1.218 C558.587,4.594 595.523,14.605 630.536,30.638 C737.824,79.766 807.679,161.29 840.176,274.772 C840.492,275.873 840.949,276.934 841.34,278.014 C844.576,293.287 847.839,308.552 849.962,324.037 C856.348,370.628 860.277,417.352 855.166,464.318 C849.136,519.72 831.651,571.224 800.815,617.904 C792.765,630.09 785.542,642.972 773.7,652.182 C770.606,654.589 767.491,656.705 763.254,655.181 C758.597,653.506 756.955,650.217 757.737,643.89 C757.507,640.968 759.438,639.25 761.442,637.773 C766.219,634.255 769.845,629.693 773.284,624.985 C804.288,582.551 824.509,535.482 833.404,483.672 C836.107,467.927 837.189,451.992 838.282,436.023 C839.359,420.3 838.123,404.736 837.653,389.144 C837.157,372.709 835.046,356.32 833.016,339.961 C829.52,311.775 824.282,283.986 815.036,257.079 C805.959,230.667 794.173,205.523 779.029,182.005 C777.867,180.2 776.432,178.489 776.527,176.144 C779.948,169.804 779.948,169.804 774.222,164.078 C760.115,149.971 746.008,135.865 731.903,121.757 C730.022,119.876 728.19,117.942 725.882,116.544 C709.683,101.649 692.71,87.716 674.283,75.666 C629.105,46.125 579.637,27.796 526.191,20.783 C503.899,17.857 481.393,18.793 458.982,21.139 C437.399,23.399 416.197,27.452 395.359,33.473 C384.589,36.585 374.445,41.153 364.668,46.588 C361.338,48.439 359.037,50.752 358.318,54.897 C357.413,60.114 353.42,62.999 347.977,63.34 C344.821,63.538 341.653,63.408 338.491,63.451 C336.134,63.403 333.766,63.197 331.469,63.98 C297.809,67.758 269.245,82.74 243.758,104.228 C213.43,129.799 190.362,161.225 170.741,195.426 C151.173,229.535 138.857,266.088 133.382,304.963 C130.406,326.098 128.976,347.356 130.008,368.698 C131.029,389.837 134.204,410.733 137.836,431.558 C138.047,433.598 138.767,435.556 138.852,437.617 C146.455,474.232 156.735,509.914 173.562,543.567 C192.749,581.941 219.241,614.055 253.449,639.873 C255.306,641.274 257.353,642.486 258.836,644.303 C260.635,646.508 262.514,648.794 260.511,651.882" fill="#6E4100"/>
      <path d="M674.501,873.953 C675.8,872.397 675.236,870.431 675.629,868.674 C677.821,858.881 683.328,852.205 693.327,849.851 C697.118,848.958 698.291,847.677 696.812,843.436 C692.435,830.881 695.469,822.525 706.691,815.184 C709.94,813.058 711.201,811.659 708.961,807.58 C702.017,794.938 703.634,786.789 714.483,777.239 C717.53,774.557 718.492,772.733 715.793,768.828 C707.495,756.823 708.514,748.06 719.02,737.833 C721.925,735.005 722.564,733.206 719.772,729.715 C709.754,717.188 711.082,705.515 723.356,694.955 C724.61,693.876 725.028,692.689 725.504,691.236 C727.414,685.396 733.198,682.023 738.769,683.299 C744.583,684.629 748.882,690.369 748.158,696.277 C747.427,702.245 745.176,707.583 740.047,711.143 C737.181,713.132 736.9,714.759 739.336,717.465 C743.04,721.58 745.735,726.325 746.454,732.022 C747.485,740.196 743.702,746.222 737.829,751.137 C734.615,753.826 734.575,755.832 736.964,759.332 C746.056,772.659 744.475,782.635 731.746,792.612 C728.919,794.828 728.857,796.402 730.486,799.116 C731.934,801.528 733.256,804.097 734.124,806.762 C737.377,816.751 734.449,824.597 724.08,831.246 C719.499,834.183 718.531,836.65 720.334,841.852 C725.202,855.895 720.095,865.161 705.934,870.109 C703.348,871.012 699.817,870.515 698.473,873.965 C697.393,878.294 696.653,882.744 695.159,886.925 C692.389,894.676 685.094,899.001 678.68,897.173 C670.958,894.973 667.708,886.399 672.186,879.729 C673.4,877.921 674.89,876.351 674.501,873.953" fill="#82B2CE"/>
      <path d="M733.351,876.892 C737.025,873.626 741.292,871.324 746.023,870.249 C749.719,869.409 749.897,867.86 748.729,864.671 C746.646,858.987 745.707,853.17 748.063,847.171 C750.279,841.53 754.606,838.031 759.553,835.17 C762.328,833.565 762.601,832.061 761.157,829.195 C753.522,814.039 754.896,807.428 768.034,796.221 C770.112,794.449 770.266,793.297 768.627,791.426 C767.975,790.682 767.494,789.785 766.958,788.944 C759.875,777.828 760.523,768.609 769.844,759.235 C773.381,755.678 774.379,753.487 770.647,749.265 C760.59,737.885 764.42,723.442 774.515,716.097 C776.088,714.953 776.695,713.288 777.387,711.557 C779.7,705.769 785.229,702.814 791.002,704.1 C796.471,705.317 799.876,710.691 799.641,716.991 C799.406,723.315 796.698,728.358 791.747,731.857 C788.366,734.247 788.856,735.953 791.278,738.345 C792.098,739.154 792.744,740.152 793.4,741.111 C800.97,752.173 800.311,761.789 790.581,771.023 C786.838,774.574 786.461,776.92 789.432,781.259 C797.461,792.985 796.433,801.481 785.674,811.135 C781.497,814.883 780.718,817.484 783.565,822.583 C790.241,834.541 787.759,844.295 776.085,851.625 C770.926,854.864 770.029,857.926 772.29,863.161 C774.306,867.83 774.096,872.875 773.159,877.846 C769.652,885.044 763.818,889.375 756.149,891.135 C751.709,892.153 749.357,894.184 749.12,899.116 C748.923,903.199 747.645,907.304 745.312,910.841 C742.443,915.189 738.87,918.204 733.114,917.989 C724.165,917.655 718.778,908.545 723.669,900.945 C725.651,897.865 726.697,894.75 727.206,891.355 C728.013,885.97 729.988,881.155 733.351,876.892" fill="#82B2CE"/>
    </g>
    <path d="M203.261,888.991 C203.581,885.521 203.223,882.006 204.238,878.576 C204.864,876.458 204.324,874.629 201.979,873.722 C201.052,873.364 200.194,872.828 199.304,872.373 C185.401,865.266 181.757,855.737 188.361,841.559 C190.478,837.013 189.496,835.055 185.798,832.353 C174.216,823.89 172.199,813.923 179.774,801.553 C182.488,797.122 182.068,794.759 178.283,791.26 C167.647,781.43 166.753,772.719 175.255,760.903 C178.439,756.478 178.274,754.066 174.382,750.235 C163.82,739.84 164.723,725.801 176.093,716.28 C177.452,715.142 178.225,713.95 178.804,712.316 C180.917,706.349 186.328,703.052 191.916,704.114 C197.878,705.247 201.76,710.348 201.302,716.968 C200.922,722.468 198.939,727.665 194.509,730.932 C190.546,733.856 191.784,735.695 194.39,738.266 C199.408,743.215 202.884,748.839 202.564,756.317 C202.337,761.624 199.91,765.927 196.878,769.896 C194.494,773.017 193.844,774.918 197.506,777.959 C208.074,786.736 209.41,797.038 201.961,808.965 C199.837,812.367 199.745,814.158 203.402,816.864 C214.773,825.277 216.81,833.496 211.126,846.436 C209.433,850.29 209.801,852.039 213.809,853.903 C224.631,858.936 229.277,867.718 227.285,879.536 C226.585,883.687 228.132,884.156 231.629,884.009 C238.746,883.711 245.222,885.246 249.274,891.948 C250.646,904.643 245.772,909.159 233.272,907.156 C229.863,906.609 226.304,907.041 222.818,906.92 C211.386,906.521 204.765,900.428 203.261,888.991" fill="#82B2CE"/>
    <path d="M417.457,900.793 C416.444,894.061 415.484,887.321 414.393,880.602 C413.931,877.757 414.46,876.449 417.826,876.444 C450.473,876.394 482.81,872.629 515.075,868.068 C517.89,867.67 520.599,867.818 523.426,868.614 C531.412,870.862 539.43,873.097 547.565,874.667 C551.577,875.441 551.938,877.161 551.163,880.422 C549.781,886.233 548.555,892.081 547.263,897.913 C522.29,898.356 497.314,898.727 472.343,899.266 C454.045,899.661 435.752,900.276 417.457,900.793" fill="#68B2FE"/>
    <path d="M896.503,100.746 C896.7,113.483 892.066,120.796 885.35,126.944 C876.177,135.344 865.286,140.431 853.084,142.7 C847.218,143.791 842.662,141.04 841.589,135.907 C840.535,130.869 843.777,126.517 849.726,125.464 C858.293,123.947 865.834,120.354 872.529,114.878 C874.477,113.284 876.073,111.387 877.446,109.273 C879.942,105.431 879.443,101.824 877.036,98.11 C874.687,94.484 871.215,94.257 867.761,95.16 C855.758,98.296 845.918,104.819 838.866,115.113 C835.441,120.112 830.721,121.985 826.315,119.444 C821.804,116.843 820.328,111.38 823.642,106.427 C834.652,89.973 849.823,79.451 869.711,77.367 C884.343,75.834 896.477,88.457 896.503,100.746" fill="#6E4100"/>
    <path d="M894.797,215.056 C887.992,215.251 881.666,213.335 875.686,210.288 C870.791,207.794 869.198,203.188 871.348,198.617 C873.37,194.317 877.893,192.443 882.69,194.334 C886.1,195.679 889.452,197.113 893.088,197.691 C896.532,198.238 899.75,197.576 902.443,195.298 C905.243,192.928 906.154,189.732 905.264,186.277 C904.351,182.736 901.409,181.368 898.076,181.12 C891.025,180.594 884.744,183.299 878.526,186.152 C874.48,188.009 870.66,187.716 867.609,184.317 C864.893,181.291 864.581,177.735 866.594,174.153 C867.147,173.169 867.945,172.121 868.902,171.597 C879.924,165.559 891.519,161.604 904.215,164.493 C916.698,167.333 924.323,178.312 923.146,190.729 C921.911,203.761 911.723,213.946 898.784,215.041 C897.464,215.152 896.127,215.056 894.797,215.056" fill="#6E4100"/>
    <path d="M568.481,883.949 C568.078,879.689 569.835,878.509 574.039,879.326 C581.079,880.695 588.267,880.039 595.397,880.103 C588.506,881.045 581.629,882.117 574.716,882.85 C572.588,883.076 570.536,883.446 568.481,883.949" fill="#DFE6ED"/>
    <path d="M781.357,877.964 C789.694,877.963 798.031,877.961 806.369,877.959 C798.032,879.566 789.694,879.558 781.357,877.964" fill="#F3F6FA"/>
    <path d="M945.365,735.968 C945.365,729.297 945.365,722.626 945.365,715.955 C946.981,722.626 946.981,729.297 945.365,735.968" fill="#F3F6FA"/>
    <path d="M817.357,877.934 C819.126,876.156 821.358,877.249 823.368,876.963 C821.596,878.721 819.365,877.64 817.357,877.934" fill="#F3F6FA"/>
    <path d="M711.349,873.963 C713.044,874.171 714.948,873.289 716.368,874.926 C714.674,874.718 712.775,875.57 711.349,873.963" fill="#EDF2F8"/>
    <path d="M728.349,874.959 C730.039,875.191 731.969,874.245 733.352,875.98 C731.676,875.684 729.756,876.578 728.349,874.959" fill="#EDF2F8"/>
    <path d="M777.285,175.179 C777.001,177.248 778.48,178.581 779.436,180.082 C806.833,223.077 824.156,269.782 831.529,320.244 C835.741,349.068 838.591,377.959 839.614,407.108 C841.752,468.015 830.443,525.887 802.571,580.275 C793.515,597.946 782.644,614.497 770.764,630.391 C768.456,633.479 765.747,636.172 762.62,638.432 C760.59,639.898 758.816,641.585 757.736,643.892 C755.895,642.966 754.592,644.423 753.147,645.016 C735.154,652.401 716.943,658.952 697.246,659.934 C692.74,660.159 688.326,659.54 683.985,658.311 C677.023,656.34 672.294,651.956 670.616,644.934 C669.862,641.78 668.809,641.711 666.268,642.813 C657.899,646.442 649.288,649.427 640.533,651.99 C638.859,644.018 641.939,639.571 649.179,635.153 C697.469,605.68 728.382,562.48 746.2,509.347 C747.732,504.776 749.147,500.158 750.395,495.503 C751.038,493.102 751.987,492.026 754.748,491.913 C784.938,490.678 802.602,472.755 804.234,441.721 C804.805,430.865 804.215,420.101 800.498,409.702 C794.92,394.096 783.432,385.928 766.807,385.881 C762.146,385.868 759.468,381.692 761.38,377.499 C762.118,375.88 763.534,376.259 764.8,376.116 C770.703,375.446 774.392,371.923 774.176,367.164 C773.944,362.042 769.912,358.653 763.779,358.918 C732.948,360.253 703.696,352.565 674.882,342.989 C625.461,326.564 577.917,305.737 533.289,278.829 C500.536,259.08 473.777,232.436 450.503,202.235 C431.415,177.466 415.498,150.781 402.496,122.355 C400.956,118.989 399.059,116.294 395.038,115.827 C389.273,115.158 385.048,118.485 385.263,124.274 C385.38,127.41 384.38,128.512 381.582,129.539 C304.066,157.992 251.382,211.605 221.534,288.136 C209.993,317.727 202.799,348.439 199.308,379.995 C198.826,384.355 197.587,386.096 192.705,386.036 C178.441,385.86 166.425,394.365 161.593,408.358 C155.307,426.557 155.16,445.079 162.075,463.131 C169.232,481.818 184.054,490.544 203.398,491.768 C208.004,492.059 209.424,493.56 210.578,497.651 C220.045,531.206 235.163,561.908 257.398,588.946 C276.504,612.178 299.659,630.397 326.305,644.146 C330.931,646.533 332.254,649.245 330.745,653.851 C328.68,650.128 324.534,650.626 321.299,649.36 C320.167,648.917 319.603,650.701 319.176,651.727 C312.664,667.365 303.05,669.325 286.621,663.903 C280.142,661.765 274.05,658.766 268.074,655.492 C265.631,654.154 263.397,652.313 260.51,651.883 C260.663,648.032 258.87,645.275 255.819,643.076 C207.921,608.547 176.347,562.107 156.505,507.069 C148.38,484.532 142.585,461.378 137.626,437.987 C137.52,428.063 136.663,418.154 137.039,408.228 C137.622,380.988 142.045,354.227 147.473,327.614 C153.539,297.878 161.499,268.607 170.75,239.731 C181.374,206.567 197.391,176.107 220.177,149.621 C243.947,121.99 270.222,97.025 301.475,77.811 C311.277,71.785 321.422,66.384 332.583,63.209 C334.482,62.911 336.41,62.751 338.272,62.217 C341.433,62.157 344.595,62.1 347.757,62.036 C353.695,61.916 357.368,58.735 357.289,52.914 C357.246,49.714 359.048,48.501 361.132,47.178 C376.089,37.684 392.682,32.314 409.719,28.159 C444.56,19.661 479.976,15.963 515.71,18.383 C547.414,20.531 577.978,28.726 607.634,40.11 C651.387,56.906 690.289,81.439 724.385,113.595 C725.352,114.507 726.421,115.312 727.443,116.166 C730.327,123.096 729.221,130.361 728.351,137.314 C725.328,161.498 713.809,180.209 691.343,191.102 C687.791,192.825 688.128,194.152 690.095,196.968 C694.92,203.875 700.399,206.877 709.443,204.911 C729.082,200.641 747.038,192.799 764.001,182.336 C766.969,180.506 769.958,178.696 772.793,176.643 C774.083,175.708 775.395,174.446 777.285,175.179" fill="#DBA76F"/>
    <path d="M254.844,865.883 C259.116,856.997 253.401,852.706 245.515,848.033 C236.338,842.596 234.795,833.4 239.18,822.563 C242.144,815.24 242.144,815.24 236.008,810.364 C226.335,802.676 224.463,792.732 230.683,782.069 C234.525,775.481 234.525,775.481 229.372,770.34 C219.743,760.733 218.779,750.886 226.992,740.07 C229.854,736.299 230.41,734.079 226.673,730.287 C215.21,718.654 216.004,706.207 228.257,695.38 C229.421,694.352 230.053,693.201 230.524,691.678 C232.462,685.414 238.162,682.132 243.988,683.671 C250.586,685.414 254.161,691.023 252.948,697.687 C251.925,703.305 249.423,708.14 244.83,711.564 C242.687,713.161 242.88,714.116 244.591,715.74 C246.15,717.219 247.547,718.898 248.846,720.616 C256.325,730.509 256.502,738.981 248.888,748.816 C246.162,752.338 245.848,754.321 249.446,757.627 C260.219,767.528 261.277,775.619 253.711,788.145 C251.599,791.64 251.526,793.383 254.951,796.123 C267.035,805.792 268.562,812.524 262.36,826.931 C261.008,830.07 261.838,831.414 264.62,832.661 C276.626,838.038 281.369,847.268 278.804,860.159 C278.229,863.047 279.798,863.187 281.872,863.088 C285.908,862.895 289.842,863.477 293.623,864.898 C299.828,867.231 302.926,873.186 301.17,879.279 C299.437,885.296 293.651,888.565 287.033,886.955 C282.133,885.764 277.195,886.829 272.239,886.126 C262.043,884.68 254.937,877.312 254.844,865.883" fill="#82B2CE"/>
    <path d="M730.499,499.99 C722.839,526.296 710.548,550.272 693.829,571.928 C662.77,612.157 621.299,636.245 572.731,648.801 C529.777,659.906 486.111,662.351 441.988,658.239 C406.277,654.912 371.762,647.162 339.407,631.218 C286.845,605.317 252.228,563.69 232.572,509.007 C232.465,508.711 232.535,508.351 232.522,508.021 C234.684,507.203 236.376,508.604 238.189,509.284 C250.556,513.925 263.061,516.822 276.238,512.828 C304.167,504.361 318.253,472.627 306.114,445.406 C301.261,434.523 294.589,425.098 283.875,419.245 C263.57,408.154 239.436,413.756 224.478,432.698 C222.421,435.303 221.484,439.146 217.514,439.972 C214.387,415.595 214.494,391.257 218.6,366.996 C224.245,333.634 233.166,301.267 248.296,270.836 C250.952,265.493 253.92,260.305 256.744,255.045 C259.75,256.679 258.927,259.616 258.94,262.1 C259.034,281.047 258.983,299.994 258.994,318.941 C258.995,321.1 258.901,323.268 259.287,325.407 C259.889,328.741 261.82,330.8 265.246,331.13 C268.583,331.452 271.052,330.009 272.484,326.963 C273.567,324.66 273.828,322.169 273.834,319.662 C273.895,294.234 273.802,268.805 273.924,243.377 C273.945,239.189 271.354,235.44 272.395,231.199 C280.793,219.216 290.452,208.353 301.354,198.593 C303.62,200.923 302.982,203.895 302.987,206.644 C303.041,236.75 303.017,266.856 303.023,296.962 C303.023,299.29 302.926,301.625 303.213,303.941 C303.83,308.928 306.681,311.986 310.567,311.893 C314.306,311.803 316.961,308.902 317.603,304.149 C317.915,301.834 317.834,299.499 317.823,297.172 C317.65,260.748 318.197,224.323 317.527,187.901 C317.502,186.533 317.67,185.254 318.347,184.06 C326.782,177.116 335.773,171 345.426,165.867 C346.91,167.266 346.996,169.137 346.994,170.957 C346.96,197.397 347.361,223.837 346.813,250.263 C346.502,252.869 344.702,254.231 342.571,255.374 C339.194,257.185 335.622,258.532 332.079,259.953 C330.384,260.632 328.658,261.249 327.132,262.281 C324.898,263.791 323.305,265.695 324.506,268.535 C325.703,271.366 328.121,271.665 330.789,270.964 C334.173,270.074 337.316,268.519 340.608,267.383 C342.385,266.77 344.276,265.385 346.071,267.448 C347.422,270.825 346.697,274.36 346.844,277.825 C346.956,280.482 346.754,283.158 347.481,285.763 C348.521,289.493 350.667,292.025 354.812,292.008 C358.47,291.993 361.322,289.065 361.795,284.829 C362.22,281.02 361.905,277.179 361.978,273.352 C362.09,267.531 361.704,261.703 362.217,255.889 C362.553,253.85 363.965,252.43 365.11,250.839 C368.627,245.952 368.547,245.032 364.368,240.868 C363.785,240.287 363.214,239.707 362.797,238.974 C361.64,236.455 361.808,233.772 361.805,231.125 C361.783,208.877 361.786,186.628 361.801,164.38 C361.803,161.569 361.564,158.694 363.394,156.233 C371.491,152.187 379.771,148.585 388.428,145.893 C391.236,145.143 391.391,147.327 391.747,149.048 C392.188,151.174 392.008,153.364 392.008,155.528 C392.014,192.508 392.01,229.488 392.015,266.468 C392.015,268.633 391.915,270.804 392.195,272.958 C392.697,276.81 395.631,279.866 398.837,279.937 C402.039,280.008 405.088,276.984 405.622,273.142 C405.921,270.991 405.81,268.818 405.81,266.653 C405.818,237.336 405.777,208.018 405.871,178.701 C405.88,176.074 404.915,172.932 408.082,171.13 C416.31,184.761 425.379,197.831 434.543,210.837 C435.795,213.287 435.943,215.918 435.935,218.608 C435.905,229.256 435.918,239.903 435.926,250.551 C435.927,252.214 435.892,253.88 436.076,255.537 C436.491,259.271 438.301,261.777 442.23,262.251 C445.886,262.691 448.834,260.618 450.027,256.703 C451.412,252.155 450.643,247.445 450.924,242.812 C451.131,239.419 449.921,235.781 452.435,232.726 C464.98,246.047 477.853,259.001 491.916,270.774 C515.829,290.792 542.877,305.591 570.771,319.066 C612.101,339.03 654.269,356.799 698.84,368.338 C712.222,371.802 725.765,374.406 739.516,375.743 C742.507,376.033 743.295,376.985 743.577,379.854 C745.78,402.312 745.034,424.69 742.181,447.034 C741.072,449.039 740.025,447.972 739.17,446.872 C737.73,445.02 736.925,442.796 735.834,440.738 C727.865,425.711 716.304,415.682 698.768,413.693 C691.074,412.82 683.709,414.07 676.88,417.329 C655.944,427.32 644.547,444.522 642.964,467.233 C641.662,485.91 651.622,499.553 667.785,507.844 C678.809,513.499 690.914,516.091 703.644,513.822 C712.004,512.333 718.932,508.443 725.142,502.894 C726.667,501.532 727.821,499.299 730.499,499.99" fill="#FEF8EA"/>
    <path d="M623.385,706.984 C622.189,747.682 621.202,785.614 614.316,823.069 C612.454,833.199 609.941,843.144 605.718,852.657 C602.628,859.619 597.753,862.782 590.255,862.837 C574.116,862.955 558.493,859.591 543.034,855.648 C494.813,843.348 448.305,825.941 402.069,807.754 C399.51,806.747 398.962,805.519 399.695,802.924 C403.987,787.732 408.232,772.525 412.245,757.258 C413.055,754.177 414.059,753.835 417.021,754.581 C468.751,767.61 520.516,780.498 572.274,793.416 C574.047,793.859 575.802,794.435 577.603,794.696 C581.202,795.219 584.244,794.02 586.268,790.973 C588.269,787.961 588.595,784.534 586.412,781.624 C584.781,779.449 584.985,777.459 585.296,775.129 C590.359,737.204 595.401,699.276 600.351,661.336 C600.638,659.137 601.606,658.276 603.528,657.55 C608.804,655.555 614.077,653.509 619.177,651.111 C622.536,649.532 623.109,650.922 623.128,653.805 C623.191,663.796 623.326,673.787 623.376,683.778 C623.419,692.438 623.385,701.098 623.385,706.984" fill="#FEFEFE"/>
    <path d="M488.038,698.981 C491.998,704.898 495.65,710.439 499.389,715.92 C504.411,723.28 511.373,723.099 515.996,715.409 C524.048,702.012 532.044,688.579 539.907,675.071 C540.81,673.519 541.747,673.108 543.314,672.871 C555.151,671.083 566.865,668.658 578.403,665.481 C581.681,664.578 582.371,664.963 581.883,668.531 C577.265,702.301 572.778,736.088 568.418,769.893 C567.944,773.571 566.812,773.983 563.394,773.122 C513.453,760.54 463.519,747.926 413.451,735.863 C406.675,734.231 402.027,730.741 397.464,726.247 C396.334,725.134 395.661,723.966 395.546,722.36 C394.363,705.769 392.769,689.208 392.355,672.564 C392.275,669.332 392.903,668.174 396.387,669.045 C407.041,671.711 417.914,673.262 428.797,674.602 C431.623,674.95 433.214,676.132 434.754,678.302 C443.231,690.241 451.816,702.102 460.388,713.973 C465.842,721.525 472.087,721.477 477.529,713.852 C480.91,709.115 484.248,704.347 488.038,698.981" fill="#68B2FE"/>
    <path d="M730.499,499.99 C723.815,505.664 717.448,511.69 708.579,514.132 C685.017,520.619 650.48,508.403 643.045,480.588 C639.521,467.404 642.214,455.306 648.111,443.599 C654.773,430.374 664.628,420.309 678.683,415.102 C701.184,406.766 724.64,416.461 736.161,438.539 C737.469,441.045 738.751,443.568 739.932,446.135 C740.456,447.274 741.048,447.689 742.182,447.033 C739.913,465.045 736.535,482.811 730.499,499.99" fill="#FFDBC4"/>
    <path d="M217.514,439.972 C223.295,431.587 229.81,424.089 238.762,418.712 C258.717,406.726 283.686,411.554 297.871,429.255 C306.954,440.588 312.876,453.491 312.439,468.543 C312.175,477.646 308.86,485.62 303.51,492.878 C295.002,504.422 284.888,513.632 269.978,515.629 C256.656,517.413 244.35,513.799 232.522,508.021 C226.031,491.462 222.343,474.183 219.511,456.702 C218.614,451.163 218.167,445.551 217.514,439.972" fill="#FFE4D0"/>
    <path d="M333.709,792.488 C338.452,790.152 341.558,787.199 340.836,781.831 C340.396,778.558 338.377,776.527 335.686,774.909 C333.645,773.682 332.551,771.938 333.483,769.456 C334.355,767.134 336.293,766.849 338.39,766.991 C339.879,767.092 341.366,767.269 342.845,767.474 C348.166,768.214 352.209,765.996 353.506,761.597 C354.885,756.919 352.988,753.044 348.111,750.718 C346.306,749.857 344.414,749.129 343.161,747.479 C342.389,746.463 341.19,745.452 341.929,743.974 C342.566,742.697 343.776,742.166 345.218,742.135 C348.708,742.06 352.203,742.05 355.685,741.836 C363.046,741.383 365.319,739.648 367.155,732.552 C367.731,730.326 368.533,729.8 370.557,730.515 C381.141,734.254 389.488,740.618 394.719,750.77 C395.426,752.143 395.179,753.238 394.816,754.551 C391.059,768.139 387.324,781.733 383.659,795.346 C383.199,797.057 382.723,798.408 380.765,798.919 C370.062,801.711 359.277,803.555 348.284,800.956 C342.756,799.65 337.896,796.931 333.709,792.488" fill="#FEF8EA"/>
    <path d="M477.202,855.242 C469.125,855.997 461.058,856.904 452.968,857.475 C432.066,858.952 411.175,860.243 390.274,857.069 C381.473,855.732 374.803,851.888 370.234,844.051 C366.28,837.268 363.243,830.144 360.509,822.832 C359.576,820.335 360.421,819.665 362.782,819.52 C368.419,819.173 374.053,818.724 379.539,817.244 C380.383,817.016 381.073,817.204 381.882,817.589 C411.421,831.656 442.47,841.831 473.163,852.924 C474.525,853.416 475.877,853.937 477.233,854.445 C477.223,854.711 477.213,854.977 477.202,855.242" fill="#FEFEFE"/>
    <path d="M318.347,184.06 C319.53,188.109 319.391,192.266 319.39,196.42 C319.377,231.389 319.381,266.358 319.387,301.326 C319.387,303.656 319.352,305.934 318.544,308.206 C317.171,312.073 314.103,313.742 310.499,313.798 C306.872,313.855 303.796,312.168 302.346,308.37 C301.488,306.121 301.459,303.834 301.457,301.499 C301.432,267.197 301.391,232.895 301.354,198.593 C306.542,193.192 312.243,188.391 318.347,184.06" fill="#C5D1E0"/>
    <path d="M408.082,171.13 C406.95,172.984 407.481,175.034 407.479,176.988 C407.443,208.778 407.391,240.568 407.52,272.357 C407.539,277.15 405.188,279.864 401.232,281.468 C397.117,283.136 394.297,280.648 391.701,277.853 C389.875,275.886 390.391,273.477 390.389,271.2 C390.365,231.255 390.388,191.309 390.32,151.364 C390.317,149.453 391.539,146.84 388.426,145.894 C391.624,143.642 393.582,143.95 395.502,147.909 C399.34,155.822 403.85,163.409 408.082,171.13" fill="#C5D1E0"/>
    <path d="M272.395,231.199 C274.816,235.691 275.424,240.487 275.399,245.561 C275.277,270.18 275.352,294.799 275.327,319.419 C275.326,321.234 275.276,323.087 274.923,324.858 C273.738,330.808 270.426,333.474 265.02,333.036 C260.023,332.631 257.45,329.365 257.438,323.262 C257.413,310.786 257.43,298.31 257.43,285.834 C257.43,277.184 257.451,268.534 257.412,259.884 C257.405,258.258 257.836,256.537 256.743,255.046 C261.387,246.719 266.43,238.657 272.395,231.199" fill="#C5D1E0"/>
    <path d="M348.371,654.825 C356.725,657.664 364.359,660.384 372.088,662.799 C374.115,663.432 374.699,664.432 374.744,666.286 C375.113,681.393 375.67,696.491 377.236,711.532 C377.458,713.661 376.696,713.961 374.655,713.522 C364.769,711.392 356.462,713.328 351.575,723.203 C350.841,724.686 349.667,724.959 348.268,724.692 C346.635,724.381 346.973,722.978 346.954,721.89 C346.56,699.648 346.907,677.424 348.371,654.825" fill="#FEFEFE"/>
    <path d="M786.89,435.465 C786.416,446.363 785.619,457.471 777.053,466.165 C772.133,471.159 766.024,473.312 759.238,474.187 C756.271,474.57 755.562,474.03 756.198,470.846 C759.397,454.831 761.213,438.628 761.963,422.314 C762.199,417.161 762.418,411.994 762.298,406.841 C762.23,403.904 763.377,403.135 766.074,403.13 C773.759,403.116 779.624,405.949 782.978,413.171 C786.219,420.153 786.647,427.613 786.89,435.465" fill="#FEF8EA"/>
    <path d="M345.606,252.184 C345.545,223.412 345.485,194.64 345.425,165.867 C351.07,162.011 357.181,159.025 363.394,156.232 C363.401,181.994 363.403,207.756 363.429,233.517 C363.431,235.649 363.026,237.863 364.327,239.82 C359.692,241.809 356.346,245.417 352.758,248.783 C350.828,250.593 348.963,253.128 345.606,252.184" fill="#C5D1E0"/>
    <path d="M194.449,403.169 C196.909,402.704 197.951,403.756 197.967,406.679 C198.082,428.352 199.884,449.879 204.239,471.139 C204.901,474.371 203.432,474.367 201.1,474.025 C189.307,472.295 181.154,465.977 177.518,454.58 C173.636,442.408 173.59,429.978 176.896,417.677 C179.492,408.016 185.519,403.235 194.449,403.169" fill="#FEF8EA"/>
    <path d="M452.435,232.726 C452.396,239.528 452.479,246.334 452.282,253.132 C452.094,259.612 449.155,263.435 444.319,264.025 C438.581,264.724 434.478,261.417 434.45,255.633 C434.378,240.701 434.499,225.769 434.543,210.837 C440.507,218.133 446.471,225.429 452.435,232.726" fill="#C5D1E0"/>
    <path d="M494.885,677.421 C503.241,676.926 510.754,676.481 519.123,675.986 C515.15,682.64 511.477,688.792 507.214,695.931 C502.993,689.594 499.118,683.776 494.885,677.421" fill="#FDFDFD"/>
    <path d="M481.621,677.523 C476.899,684.2 473.01,689.7 468.852,695.579 C464.375,689.364 460.163,683.518 455.845,677.523 C464.37,677.523 472.401,677.523 481.621,677.523" fill="#FDFDFC"/>
    <path d="M333.355,63.986 C310.297,72.194 290.154,85.332 271.57,100.963 C248.708,120.193 227.282,140.87 209.702,165.189 C188.668,194.284 175.042,226.777 165.563,261.241 C156.61,293.796 148.026,326.412 143.032,359.863 C140.698,375.498 138.9,391.185 138.319,406.994 C137.446,413.907 138.233,420.854 137.873,427.772 C137.801,429.162 139.093,431.154 136.667,431.928 C130.945,402.612 127.625,373.1 128.56,343.152 C130.482,281.623 148.322,225.228 182.149,173.783 C201.77,143.943 224.168,116.679 252.956,95.164 C274.305,79.21 297.717,67.787 324.292,63.595 C326.588,63.233 328.919,63.098 331.234,62.858 C332.241,62.67 333.502,62.004 333.355,63.986" fill="#FEFEFE"/>
    <path d="M777.285,175.179 C757.566,189.002 736.66,200.254 712.842,205.373 C697.674,208.633 694.667,207.457 686.275,194.529 C684.227,191.374 687.308,191.646 688.508,191.111 C698.408,186.696 706.932,180.513 713.505,171.848 C724.321,157.59 728.114,141.24 727.57,123.642 C727.493,121.151 727.484,118.658 727.443,116.166 C740.55,129.124 753.664,142.076 766.762,155.043 C771.017,159.255 775.044,163.722 779.531,167.669 C782.717,170.472 782.398,172.215 778.904,174.031 C778.323,174.333 777.822,174.792 777.285,175.179" fill="#FEFEFE"/>
    <path d="M136.667,431.928 C138.285,425.417 136.922,418.786 137.462,412.232 C137.607,410.467 136.896,408.552 138.319,406.994 C138.366,416.412 138.412,425.829 138.459,435.246 C138.464,436.245 138.457,437.24 137.625,437.985 C137.306,435.967 136.986,433.948 136.667,431.928" fill="#F1E6DB"/>
    <path d="M333.355,63.986 C332.648,63.61 331.941,63.234 331.234,62.858 C333.482,61.57 335.894,62.079 338.272,62.217 C336.804,63.282 335.117,63.737 333.355,63.986" fill="#E1CDB8"/>
    <path d="M768.366,329.618 C768.347,337.085 763.257,340.896 757.02,339.369 C736.221,334.275 716.611,326.092 697.684,316.204 C661.419,297.259 629.111,272.866 599.429,244.839 C571.964,218.905 547.466,190.499 527.074,158.635 C525.428,156.062 523.963,153.466 524.842,150.259 C525.864,146.531 528.332,144.154 532.104,143.531 C535.938,142.898 538.908,144.625 540.97,147.839 C547.353,157.79 553.973,167.577 561.299,176.863 C603.177,229.943 652.812,273.809 713.448,304.506 C728.468,312.11 744.126,318.169 760.524,322.178 C765.215,323.324 768.168,325.995 768.366,329.618" fill="#6E4100"/>
    <path d="M448.86,554.095 C460.233,554.258 470.846,554.087 481.409,552.177 C490.32,550.565 499.369,550.582 508.184,552.778 C524.269,556.784 540.804,556.949 557.116,558.999 C563.929,559.855 570.53,561.528 576.37,565.332 C580.038,567.721 581.16,571.78 579.211,575.295 C577.092,579.114 573.277,580.517 569.839,578.646 C560.998,573.832 551.435,573.054 541.825,572.574 C529.312,571.949 517.048,569.955 504.836,567.324 C495.901,565.4 486.997,566.447 478.063,567.892 C463.344,570.272 448.473,568.404 433.691,569.049 C422.549,569.536 411.503,571.121 400.674,573.921 C396.66,574.959 392.825,576.171 389.582,579.176 C386.647,581.895 382.923,581.487 380.047,578.834 C376.987,576.012 376.666,572.427 379.013,568.887 C381.421,565.252 385.132,563.365 389.062,561.846 C399.081,557.973 409.635,556.545 420.177,555.132 C429.932,553.823 439.741,553.486 448.86,554.095" fill="#6E4100"/>
    <path d="M336.419,391.32 C336.214,383.611 337.79,376.684 341.16,370.243 C342.232,368.192 342.104,366.812 340.852,364.906 C337.097,359.186 335.645,352.732 335.59,345.941 C335.558,341.986 337.546,339.503 341.452,339.261 C345.405,339.016 347.731,341.439 348.109,345.232 C348.489,349.051 348.619,352.861 350.388,356.384 C351.182,357.965 351.88,359.08 354.145,358.496 C358.717,357.317 362.61,359.128 366.11,362.008 C379.574,373.088 382.664,395.246 372.652,409.527 C368.53,415.405 363.235,419.705 355.609,418.867 C347.888,418.019 342.573,413.434 339.329,406.449 C337.041,401.525 336.163,396.319 336.419,391.32" fill="#6E4100"/>
    <path d="M624.574,392.073 C624.782,397.355 623.752,403.336 620.502,408.806 C613,421.431 598.604,422.471 589.487,411.05 C580.182,399.395 579.848,383.352 588.97,369.189 C590.807,366.337 591.25,364.224 589.378,361.317 C587.127,357.822 585.708,353.864 584.711,349.829 C583.797,346.134 584.93,343.104 588.809,341.95 C592.546,340.839 595.305,342.225 596.622,346.047 C597.271,347.931 597.853,349.842 598.581,351.696 C600.051,355.441 601.547,358.498 606.771,358.611 C611.371,358.712 614.777,362.318 617.422,366.126 C622.634,373.632 624.699,382.046 624.574,392.073" fill="#6E4100"/>
    <path d="M345.606,252.184 C350.095,250.177 353.575,246.873 356.617,243.159 C358.702,240.613 361.049,239.298 364.329,239.82 C369.588,243.072 370.235,246.41 366.488,251.098 C365.459,252.385 364.372,253.626 363.312,254.888 C359.049,261.415 353.09,265.44 345.456,266.994 C340.809,268.736 336.157,270.465 331.516,272.222 C327.591,273.708 324.452,272.669 322.928,268.799 C321.353,264.801 323.409,262.063 327.11,260.527 C333.362,257.934 339.954,256.105 345.606,252.184" fill="#6E4100"/>
    <path d="M345.456,266.994 C351.832,263.583 357.983,259.842 363.312,254.888 C363.346,264.689 363.442,274.49 363.392,284.291 C363.365,289.604 360.038,293.343 355.179,293.873 C351.17,294.31 347.203,291.235 346.115,286.347 C344.697,279.967 345.855,273.442 345.456,266.994" fill="#C5D1E0"/>
    <path d="M477.731,395.021 C478.063,395.021 478.399,394.99 478.727,395.026 C484.449,395.654 492.578,407.266 491.077,412.852 C490.211,416.078 488.262,418.482 484.786,419.25 C481.472,419.981 478.321,419.509 476.158,416.8 C473.788,413.831 471.445,410.712 469.812,407.312 C467.021,401.499 471.397,395.002 477.731,395.021" fill="#6E4100"/>
  </g>
</svg>
