<?xml version="1.0" encoding="UTF-8"?>
<!DOCTYPE svg PUBLIC "-//W3C//DTD SVG 1.1//EN" "http://www.w3.org/Graphics/SVG/1.1/DTD/svg11.dtd">
<svg version="1.1" xmlns="http://www.w3.org/2000/svg" xmlns:xlink="http://www.w3.org/1999/xlink" x="0" y="0" width="1045" height="1111" viewBox="0, 0, 1045, 1111">
  <defs>
    <clipPath id="Clip_1">
      <path d="M-0,0.97 L1044.14,0.97 L1044.14,1110.94 L-0,1110.94 z"/>
    </clipPath>
    <clipPath id="Clip_2">
      <path d="M-0,0.97 L1044.14,0.97 L1044.14,1110.94 L-0,1110.94 z"/>
    </clipPath>
  </defs>
  <g id="Layer_1">
    <g clip-path="url(#Clip_1)">
      <path d="M877.983,826.927 C875.591,827.34 873.884,829.056 871.902,830.215 C852.583,841.515 831.738,845.578 809.651,842.925 C800.456,841.821 792.629,838.06 790.005,827.982 C789.073,824.404 787.03,826.818 785.862,827.321 C771.012,833.718 755.547,838.04 739.804,841.538 C735.533,842.487 730.857,841.906 727.043,844.706 C725.016,845.35 724.214,843.921 724.015,842.472 C723.813,841.01 725.146,840.134 726.363,839.552 C730.272,837.682 734.356,836.219 738.331,834.495 C760.843,824.732 781.152,811.594 799.471,795.272 C832.922,765.466 854.013,728.089 867.01,685.701 C867.205,685.064 866.947,685.856 867.148,685.22 C870.301,675.254 868.664,674.833 880.445,674.569 C899.66,674.139 916.288,659.034 920.646,638.728 C923.267,626.518 923.433,614.307 920.991,602.03 C917.119,582.559 905.737,572.491 886.002,571.288 C880.561,570.956 880.147,570.366 879.638,565.181 C879.295,561.686 880.266,559.704 883.971,559.51 C884.796,559.466 885.605,559.189 886.396,558.926 C890.519,557.558 892.799,554.352 892.21,550.765 C891.579,546.918 888.122,544.043 883.847,544.502 C867.019,546.31 850.646,543.289 834.366,539.836 C805.914,533.801 778.607,524.083 751.702,513.205 C730.072,504.46 708.919,494.631 687.982,484.359 C660.797,471.021 635.079,455.335 612.719,434.73 C592.707,416.288 574.524,396.186 558.932,373.773 C544.902,353.606 532.834,332.353 522.237,310.226 C521.161,307.978 520.137,305.677 518.35,303.855 C516.311,301.776 513.887,300.954 511.065,301.854 C508.417,302.698 506.609,304.698 506.673,307.351 C506.805,312.876 503.311,314.647 498.973,316.262 C461.731,330.13 428.796,350.792 401.113,379.409 C377.085,404.247 359.081,433.087 345.735,464.902 C332.36,496.785 324.305,530.022 320.311,564.299 C319.688,569.643 318.686,570.929 313.237,571.312 C292.215,572.788 283.347,586.429 280.282,600.827 C277.176,615.412 277.171,630.019 281.819,644.262 C286.653,659.075 296.802,668.756 311.896,673.075 C318.36,674.926 318.804,676.066 315.912,682.252 C308.71,697.654 302.169,713.331 296.48,729.359 C295.728,731.476 295.562,734.543 292.826,734.801 C290.386,735.031 289.654,732.186 288.593,730.421 C275.118,707.982 265.817,683.767 258.279,658.81 C257.99,657.853 257.858,656.858 257.802,655.855 C257.714,653.546 257.962,651.209 257.168,648.963 C254.077,626.831 252.848,604.551 253.872,582.27 C256.602,522.879 268.309,465.441 292.607,410.871 C304.315,384.577 318.023,359.391 336.907,337.594 C363.921,306.413 393.073,277.498 429.722,257.324 C437.779,252.889 446.416,249.852 454.713,246.009 C458.455,243.971 462.534,244.809 466.489,244.676 C473.017,244.455 474.609,243.31 475.757,236.757 C476.379,233.206 478.63,231.264 481.387,229.574 C493.577,222.099 506.879,217.291 520.569,213.513 C545.064,206.753 570.076,203.501 595.397,201.432 C633.456,198.323 670.068,204.683 706.153,215.798 C744.578,227.634 779.83,245.77 812.232,269.525 C824.343,278.404 835.574,288.322 846.633,298.449 C847.504,299.247 848.177,300.193 848.485,301.359 C849.094,314.202 848.465,326.859 843.914,339.128 C838.051,354.935 828.213,367.116 812.868,374.543 C811.82,375.05 810.791,375.594 809.757,376.127 C807.292,377.399 807.25,378.958 809.158,380.783 C809.398,381.012 809.687,381.226 809.84,381.507 C814.819,390.676 822.522,390.729 831.52,388.784 C852.685,384.208 871.587,374.78 889.576,363.136 C891.764,361.72 893.691,359.667 896.613,359.703 C902.452,365.356 905.792,372.7 909.74,379.571 C934.054,421.891 948.252,467.555 954.363,515.859 C957.474,540.456 959.568,565.095 960.646,589.902 C962.885,641.439 954.892,691.055 935.712,738.877 C925.24,764.99 910.917,788.975 894.613,811.823 C891.106,816.737 886.815,820.922 882.217,824.787 C881.014,825.799 879.977,827.383 877.983,826.927" fill="#DBA76F"/>
      <path d="M877.983,826.927 C920.169,783.965 941.602,730.745 953.576,673.003 C957.257,655.252 958.659,637.171 959.232,618.995 C960.641,574.225 956.276,529.941 947.91,486.086 C939.241,440.641 921.877,398.554 896.004,360.083 C893.989,359.606 893.186,357.85 892.176,356.362 C879.896,338.276 865.801,321.684 850.715,305.905 C849.575,304.712 848.217,303.654 847.99,301.843 C808.148,263.149 761.82,235.177 708.971,218.127 C674.529,207.015 639.353,200.298 602.953,202.341 C567.612,204.325 532.762,209.085 499.505,222.071 C493.918,224.252 488.545,226.889 483.393,229.98 C479.817,232.127 476.492,233.927 476.817,239.317 C477.07,243.522 472.931,246.111 468.005,246.277 C463.741,246.42 459.412,245.487 455.223,246.993 C450.779,248.39 446.171,249.016 441.605,249.82 C413.294,254.808 389.002,268.137 366.787,285.795 C346.688,301.771 329.896,320.847 314.933,341.57 C293.369,371.434 275.57,403.329 264.24,438.534 C256.107,463.805 250.757,489.663 248.3,516.146 C246.775,532.576 245.932,549.016 246.541,565.474 C247.361,587.603 249.682,609.603 254.346,631.296 C255.637,637.3 256.712,643.341 257.817,649.376 C258.602,651.513 258.175,653.888 259.109,655.998 C266.466,683.646 277.476,709.732 292.204,734.053 C293.354,734.302 293.638,733.66 293.837,733.064 C299.968,714.736 307.482,696.969 315.732,679.511 C317.031,676.761 317.058,675.679 313.626,674.873 C293.527,670.151 282.399,656.637 278.488,637.046 C275.724,623.201 276.056,609.221 280.19,595.554 C284.839,580.186 297.079,570.465 312.925,570.283 C317.494,570.231 318.497,568.498 318.924,564.709 C322.782,530.483 330.789,497.278 344.071,465.454 C374.166,393.35 425.144,342.613 498.578,314.994 C502.369,313.568 505.728,312.639 505.115,307.08 C504.697,303.284 507.963,300.787 511.771,300.155 C516.288,299.405 519.522,301.528 521.448,305.561 C526.974,317.128 532.62,328.631 539.011,339.752 C567.727,389.722 604.083,432.766 653.365,463.617 C683.057,482.205 715.039,496.434 747.311,509.899 C778.664,522.981 810.605,534.339 844.169,540.403 C857.091,542.738 870.085,544.576 883.319,543.162 C888.966,542.558 893.054,545.806 893.777,550.865 C894.449,555.566 890.911,560.269 885.253,560.521 C880.421,560.737 880.922,563.039 880.925,566.417 C880.928,570.758 883.597,570.102 886.238,570.12 C903.39,570.235 915.672,579.039 920.738,595.803 C925.567,611.781 925.569,628.055 920.538,643.998 C914.126,664.318 898.16,675.755 876.197,676.172 C872.462,676.243 870.842,677.123 869.736,681.027 C857.864,722.937 837.923,760.304 806.353,790.831 C783.801,812.638 757.574,828.766 728.337,840.054 C725.882,841.002 722.353,841.739 727.045,844.708 C738.353,854.686 748.655,865.422 754.682,879.632 C757.065,885.251 757.125,890.264 752.687,894.807 C747.924,899.682 747.037,905.165 748.012,911.977 C754.334,956.149 758.747,1000.531 760.769,1045.11 C761.546,1062.24 761.623,1079.4 760.046,1096.53 C759.384,1103.72 756.459,1107.38 750.902,1107.38 C745.542,1107.37 742.688,1104.02 742.006,1096.93 C740.723,1095.29 741.288,1093.44 741.354,1091.63 C742.087,1071.69 741.899,1051.76 740.833,1031.81 C739.34,1003.87 736.471,976.064 733.511,948.259 C732.883,942.364 732.374,936.437 730.844,929.349 C725.385,938.805 719.648,946.725 716.369,956.037 C715.745,957.808 715.963,959.642 716.148,961.48 C719.5,994.768 722.148,1028.12 725.337,1061.43 C726.082,1069.21 726.422,1077.04 727.467,1084.79 C727.983,1088.62 726.661,1092.29 726.974,1096.07 C726.997,1097.89 727.046,1099.71 727.038,1101.54 C727.018,1106.64 724.34,1110.13 719.914,1110.86 C715.252,1111.63 711.593,1109.12 709.931,1104.04 C709.729,1103.43 709.383,1102.86 709.103,1102.27 C707.832,1100.78 707.682,1098.98 707.51,1097.13 C705.858,1079.41 704.644,1061.65 702.676,1043.96 C702.234,1039.99 703.055,1035.96 701.992,1032.04 C699.976,1013.02 698.458,993.96 696.618,974.93 C697.144,969.941 695.727,965.077 695.624,960.104 C695.497,953.959 696.882,948.304 699.59,942.885 C705.224,931.612 711.899,920.958 718.808,910.443 C723.598,903.237 728.334,895.983 733.622,889.13 C735.878,886.206 736.104,883.807 734.004,880.615 C726.855,869.745 717.393,861.191 707.379,853.136 C703.83,850.281 699.862,850.885 695.934,851.878 C685.276,854.572 674.599,857.6 663.676,858.443 C654.771,859.13 650.552,862.941 647.422,871.229 C641.988,885.618 632.005,896.467 616.865,901.468 C596.719,908.124 575.894,898.087 565.986,877.081 C564.211,873.318 562.47,869.522 561.414,865.48 C560.687,862.701 559.151,861.449 556.159,861.201 C539.374,859.806 522.853,856.797 506.527,852.676 C499.646,850.94 491.148,853.799 488.068,860.053 C483.549,869.229 476.254,875.085 467.746,879.979 C461.967,883.303 461.811,884.127 465.41,889.588 C469.989,896.538 474.617,903.457 479.271,910.361 C486.56,921.31 493.78,932.305 501.216,943.15 C504.718,948.257 505.922,953.49 504.936,959.654 C503.97,965.695 504.155,971.897 503.567,978.016 C503.308,995.37 501.474,1012.61 500.191,1029.9 C499.078,1037.96 499.371,1046.11 498.762,1054.21 C497.867,1066.12 496.746,1078.02 496.366,1089.98 C496.278,1092.75 495.945,1095.64 494.242,1098.08 C492.304,1105.12 488.075,1108.11 482.567,1106.31 C477.819,1104.76 476.297,1101.2 476.611,1096.57 C477.929,1077.14 479.269,1057.72 480.605,1038.29 C481.891,1019.58 483.181,1000.879 484.546,981.066 C479.872,984.528 476.115,987.413 472.254,990.153 C457.162,1000.864 441.615,1010.73 423.735,1016.29 C418.143,1018.03 412.463,1019.22 406.614,1019.39 C387.142,1019.96 374.115,1011.29 366.082,992.37 C360.057,978.183 358.457,963.16 358.119,947.957 C357.742,930.937 359.113,914.014 361.92,897.236 C362.528,893.599 361.229,892.723 358.095,892.21 C349.513,890.804 341.238,888.303 333.746,883.779 C325.134,878.58 319.051,871.706 320.104,860.758 C320.449,857.161 317.927,858.208 316.174,858.129 C301.285,857.459 288.228,852.634 277.836,841.543 C272.798,836.165 271.064,830.035 272.378,822.726 C276.086,802.096 280.429,781.611 285.784,761.347 C286.418,758.946 286.284,757.006 284.802,754.824 C257.234,714.215 241.339,669.056 233.256,620.967 C226.449,580.471 226.014,539.8 231.25,499.095 C238.284,444.422 257.273,394.171 287.452,348.077 C309.617,314.224 335.43,283.79 368.985,260.589 C394.634,242.855 422.731,231.624 454.052,229.208 C455.553,229.093 456.983,229.069 458.155,227.832 C471.675,213.565 489.163,206.255 507.373,200.67 C552.764,186.749 599.347,181.13 646.477,186.449 C705.622,193.124 760.097,213.936 809.194,247.69 C888.348,302.109 939.536,376.178 962.265,469.569 C970.671,504.108 974.073,539.42 976.157,574.847 C977.872,603.999 977.354,633.082 973.101,662.028 C965.748,712.071 949.027,758.641 921.293,801.074 C914.837,810.952 908.891,821.239 900.667,829.844 C898.031,832.602 895.073,835.071 892.132,837.516 C888.579,840.47 884.57,841.228 880.666,838.436 C876.577,835.511 876.073,831.419 877.983,826.927" fill="#6E4100"/>
    </g>
    <path d="M175.278,241.414 C135.239,241.364 102.916,208.824 103.147,168.799 C103.379,128.833 135.813,96.981 176.209,97.05 C215.534,97.118 247.926,129.276 247.752,169.213 C247.563,212.488 212.555,241.893 175.278,241.414" fill="#FF7164"/>
    <g clip-path="url(#Clip_2)">
      <path d="M494.242,1098.08 C495.751,1075.54 497.26,1053.01 498.769,1030.47 C502.092,1032.39 505.748,1032.33 509.419,1032.32 C573.272,1032.21 637.124,1032.5 700.977,1032.17 C701.808,1032.16 702.631,1032.34 703.465,1032.26 C704.993,1049.63 706.604,1067 708.006,1084.38 C708.486,1090.33 709.686,1096.25 709.103,1102.27 C688.001,1101.82 666.9,1101.31 645.797,1100.94 C620.532,1100.49 595.254,1100.48 570.001,1099.67 C552.382,1099.11 534.764,1099.15 517.149,1098.77 C509.512,1098.6 501.877,1098.31 494.242,1098.08" fill="#59ADCC"/>
      <path d="M545.205,73.768 C545.081,89.904 540.462,101.294 535.763,112.672 C534.052,116.816 532.411,120.993 530.896,125.212 C527.45,134.811 528.351,143.845 534.714,152.065 C537.382,155.513 538.984,159.254 537.684,163.661 C536.338,168.227 533.172,171.128 528.545,171.88 C523.748,172.66 519.932,170.8 516.892,166.806 C502.498,147.891 503.703,128.023 512.829,107.509 C515.394,101.744 517.742,95.867 519.878,89.93 C523.612,79.549 522.298,69.42 518.238,59.339 C514.398,49.804 510.565,40.25 509.424,29.851 C508.588,22.235 509.549,14.901 512.258,7.867 C514.269,2.646 520.246,-0.04 525.363,1.32 C531.083,2.84 535.692,8.625 533.848,14.14 C529.759,26.372 534.363,36.983 538.444,47.87 C542.006,57.37 545.383,66.923 545.205,73.768" fill="#FFD5BA"/>
      <path d="M594.257,1.085 C602.359,0.965 608.849,7.144 606.813,13.681 C602.702,26.881 607.409,38.322 612.224,49.749 C620.337,69.007 619.556,87.831 611.239,106.72 C608.363,113.251 605.687,119.9 603.42,126.663 C600.364,135.779 601.745,144.376 607.717,152.087 C610.615,155.829 612.155,159.826 610.323,164.603 C608.661,168.933 605.444,171.347 601.037,171.944 C596.591,172.547 592.912,170.82 590.161,167.207 C577.256,150.262 576.07,132 583.779,112.603 C586.906,104.736 590.496,97.067 593.157,88.993 C596.593,78.567 594.934,68.738 591.026,58.899 C586.49,47.475 581.864,36.032 582.14,23.407 C582.253,18.235 583.219,13.171 585.125,8.349 C586.951,3.728 590.474,1.328 594.257,1.085" fill="#FFD5BA"/>
      <path d="M651.991,135.498 C651.716,123.206 657.051,112.041 661.743,100.692 C663.203,97.162 664.618,93.607 665.865,89.998 C669.521,79.416 668.339,69.166 664.08,58.936 C659.354,47.586 654.975,36.054 655.142,23.461 C655.21,18.295 656.184,13.223 658.098,8.401 C660.283,2.9 666.015,-0.094 671.349,1.322 C676.926,2.802 681.616,8.299 679.849,13.625 C675.42,26.975 680.561,38.622 685.378,50.158 C693.383,69.328 692.477,87.951 684.247,106.647 C681.705,112.421 679.371,118.296 677.172,124.211 C673.442,134.244 674.095,143.748 680.953,152.436 C684.174,156.516 685.285,160.968 682.713,165.897 C678.98,173.05 668.771,174.436 663.854,168.022 C656.643,158.617 651.699,148.196 651.991,135.498" fill="#FFD5BA"/>
    </g>
    <path d="M726.974,1096.07 C725.665,1082.35 724.329,1068.62 723.054,1054.9 C720.146,1023.59 717.27,992.271 714.372,960.959 C714.219,959.309 713.832,957.676 714.496,956.037 C718.871,945.226 725.184,935.541 732.23,924.536 C733.616,936.21 734.917,946.401 736.021,956.613 C739.438,988.212 742.467,1019.84 743.368,1051.64 C743.797,1066.76 744.268,1081.88 742.006,1096.93 C737.901,1096.17 733.766,1095.54 729.703,1094.6 C728.082,1094.23 727.221,1094.33 726.974,1096.07" fill="#FEF8EA"/>
    <path d="M1018.16,297.864 C1018.04,306.759 1014.02,313.908 1007.76,319.785 C998.18,328.779 986.842,334.426 973.782,336.401 C968.198,337.245 963.761,334.266 963.061,329.314 C962.332,324.149 965.432,320.088 971.005,319.139 C980.81,317.468 989.312,313.273 996.371,306.248 C998.532,304.098 1000.22,301.59 1000.59,298.49 C1001.32,292.55 996.022,287.498 989.947,288.802 C977.544,291.465 967.74,298.352 960.455,308.637 C956.653,314.005 952.168,315.786 947.537,312.978 C943.047,310.254 941.908,304.616 945.512,299.471 C956.611,283.627 971.332,272.859 990.973,271.213 C1006.26,269.932 1018.27,282.455 1018.16,297.864" fill="#6E4100"/>
    <g>
      <path d="M106.35,245.033 C115.988,245.057 122.627,253.651 119.924,263.204 C117.357,272.275 115.232,281.777 105.45,286.546 C104.342,287.087 103.794,288.943 103.168,290.275 C100.694,295.537 97.087,299.809 92.09,302.781 C90.43,303.768 89.411,305.121 88.367,306.648 C84.314,312.58 77.165,314.58 70.766,311.705 C64.421,308.854 60.987,302.064 62.902,295.221 C64.985,287.781 67.38,280.371 76.179,278.025 C78.394,277.434 78.516,275.347 79.066,273.713 C81.072,267.758 83.317,262.139 90.047,259.87 C92.232,259.133 92.022,256.57 92.734,254.79 C95.264,248.464 99.981,245.017 106.35,245.033" fill="#FF7164"/>
      <path d="M51.635,170.494 C50.311,170.394 48.781,170.692 47.695,170.131 C37.84,165.041 25.765,169.278 16.291,162.608 C15.577,162.105 14.37,162.269 13.386,162.189 C5.928,161.586 0.724,156.749 0.075,149.798 C-0.63,142.241 3.698,135.808 11.065,134.226 C18.423,132.645 25.87,131.318 32.148,137.529 C33.77,139.133 36.019,138.118 37.872,137.732 C43.743,136.509 49.414,135.96 54.378,140.325 C55.73,141.514 57.173,140.773 58.629,140.487 C67.95,138.656 75.599,143.023 77.135,151.005 C78.813,159.716 74.056,166.202 64.394,168.43 C60.189,169.4 56.015,170.547 51.635,170.494" fill="#FF7164"/>
    </g>
    <path d="M140.231,48.048 C139.555,49.774 141.093,51.591 142.776,53.575 C148.897,60.791 148.555,69.299 142.09,74.83 C135.926,80.103 127.536,79.099 121.283,72.432 C115.2,65.946 109.124,59.527 109.744,49.602 C109.813,48.51 108.616,47.284 107.881,46.206 C104.434,41.146 102.142,35.668 102.225,29.467 C102.252,27.468 101.307,26.007 100.594,24.348 C97.822,17.89 99.666,10.898 105.113,6.967 C110.599,3.008 118.123,3.067 123.036,7.891 C128.641,13.395 133.962,19.322 131.634,28.356 C130.921,31.121 133.451,32.45 134.853,34.145 C137.974,37.918 141.139,41.587 140.231,48.048" fill="#FF7164"/>
    <path d="M289.476,41.268 C287.617,48.255 286.292,57.095 276.27,60.212 C273.667,61.021 273.366,63.242 272.721,65.2 C270.801,71.032 268.455,76.359 261.983,78.624 C259.402,79.528 259.865,82.539 258.943,84.572 C256.042,90.97 250.203,94.27 243.18,93.267 C237.098,92.399 231.135,87.144 231.587,80.823 C232.336,70.339 234.846,60.017 244.313,53.404 C246.32,52.002 247.812,50.576 248.785,48.37 C251.195,42.902 254.854,38.43 260.137,35.533 C262.056,34.48 262.826,32.674 264.033,31.133 C267.872,26.229 274.163,24.385 280.166,26.413 C285.821,28.324 289.463,33.562 289.476,41.268" fill="#FF7164"/>
    <path d="M332.104,205.529 C328.699,205.556 325.091,205.524 322.663,203.042 C319.609,199.922 316.414,200.07 312.72,201.005 C307.339,202.367 302.144,202.217 297.724,198.254 C295.808,196.537 293.881,198.024 292.04,198.219 C283.13,199.164 276.962,195.59 274.999,188.075 C272.946,180.213 277.054,172.685 284.964,170.667 C294.302,168.284 303.745,165.546 312.95,171.477 C313.895,172.086 315.519,171.734 316.822,171.681 C322.887,171.432 328.832,171.777 334.139,175.18 C335.342,175.952 336.603,175.961 337.936,176.076 C346.115,176.782 351.584,182.053 352.04,189.569 C352.471,196.681 347.718,202.658 339.993,204.443 C337.417,205.038 334.737,205.18 332.104,205.529" fill="#FF7164"/>
    <g>
      <path d="M238.408,334.159 C229.269,334.178 218.97,322.689 219.992,313.005 C220.388,309.261 219.464,306.663 216.967,304.136 C212.941,300.061 210.388,295.324 211.444,289.328 C211.84,287.08 210.041,286.077 208.957,284.724 C203.303,277.669 203.577,269.098 209.716,263.751 C215.966,258.309 224.093,259.213 230.526,265.966 C236.67,272.415 242.764,278.819 242.23,288.746 C242.17,289.874 243.235,291.147 243.971,292.219 C247.341,297.125 249.739,302.356 249.467,308.462 C249.371,310.61 250.484,312.26 251.271,314.079 C255.5,323.848 248.894,334.138 238.408,334.159" fill="#FF7164"/>
      <path d="M1044,381.963 C1044,400.897 1028.93,412.056 1008.76,408.076 C1004.65,407.265 1000.73,405.872 997.041,403.967 C992.513,401.631 990.821,396.976 992.662,392.623 C994.592,388.057 999.24,386.135 1004.24,388.051 C1007.81,389.416 1011.26,391.059 1015.14,391.361 C1018.77,391.643 1022.07,391.015 1024.67,388.192 C1027.02,385.64 1027.79,382.641 1026.62,379.433 C1025.47,376.266 1022.75,375.087 1019.52,374.877 C1012.45,374.416 1006.22,377.06 999.963,379.866 C993.099,382.944 986.495,378.625 986.947,371.575 C987.129,368.72 988.297,366.271 990.804,364.97 C1001.12,359.62 1011.77,355.934 1023.75,357.715 C1033.93,359.228 1045.5,368.564 1044,381.963" fill="#6E4100"/>
    </g>
    <path d="M257.303,649.888 C237.865,570.454 240.219,492.019 271.47,415.984 C293.317,362.829 325.335,316.274 371.382,280.621 C393.822,263.246 418.849,251.386 447.275,247.567 C449.902,247.214 452.572,247.176 455.222,246.992 C446.824,251.28 437.89,254.375 429.59,258.937 C401.229,274.529 377.89,296.207 355.34,318.998 C313.667,361.117 289.336,412.69 273.197,468.719 C263.316,503.022 257.728,538.075 255.738,573.751 C254.334,598.922 255.392,623.95 258.231,648.949 C258.573,649.905 258.151,650.108 257.303,649.888" fill="#FEFEFE"/>
    <path d="M878.299,524.127 C871.965,523.112 864.881,520.707 857.837,518.249 C815.794,503.58 778.855,480.087 744.733,451.97 C706.862,420.764 673.839,385.089 647.155,343.748 C645.619,341.368 643.848,339.006 644.28,335.974 C644.847,331.999 647.044,329.109 651.036,328.206 C655.225,327.259 658.542,328.938 660.827,332.553 C666.522,341.562 672.467,350.405 679.028,358.802 C722.449,414.372 774.005,460.226 837.87,491.266 C851.81,498.04 866.379,503.192 881.412,507.042 C886.384,508.315 888.789,512.357 887.962,517.267 C887.268,521.382 883.938,524.049 878.299,524.127" fill="#6E4100"/>
    <path d="M847.99,301.843 C866.05,319.562 882.325,338.752 896.004,360.083 C873.409,376.267 849.094,388.34 821.067,391.688 C818.495,391.995 816.659,391.691 814.988,389.571 C812.417,386.31 809.696,383.149 806.825,380.15 C804.733,377.964 804.808,376.912 807.749,375.65 C831.002,365.664 842.925,347.186 846.611,322.837 C847.374,317.8 847.718,312.641 847.279,307.47 C847.125,305.649 846.199,303.506 847.99,301.843" fill="#FEFEFE"/>
    <path d="M257.303,649.888 C257.612,649.575 257.921,649.262 258.231,648.949 C259.976,651.118 258.763,653.655 259.109,655.998 C257.556,654.242 257.898,651.927 257.303,649.888" fill="#DFCEBB"/>
    <path d="M437.024,369.221 C444.924,362.753 453.287,356.959 462.193,351.957 C464.681,352.48 464.544,354.642 464.548,356.319 C464.601,380.303 465.12,404.29 464.332,428.261 C463.832,430.834 461.806,431.969 459.744,433.091 C455.371,435.472 450.648,437.043 446.101,439.018 C443.173,440.29 440.805,442.075 441.881,445.799 C442.736,448.758 445.518,449.395 449.814,448.28 C454.195,447.142 457.899,443.518 462.908,444.689 C465.087,446.859 464.376,449.653 464.487,452.241 C464.621,455.392 464.332,458.561 464.648,461.704 C465.149,466.69 467.884,469.665 471.887,469.765 C476.055,469.869 479.126,466.768 479.481,461.554 C479.921,455.09 479.567,448.601 479.649,442.123 C479.689,438.971 479.455,435.809 479.914,432.669 C480.18,432.063 479.609,432.68 480.043,432.21 C485.277,426.546 485.643,420.959 479.866,415.407 C478.995,406.437 479.553,397.455 479.481,388.483 C479.376,375.512 479.437,362.54 479.467,349.569 C479.473,346.926 479.21,344.206 480.956,341.889 C489.266,337.246 498.037,333.685 507.077,330.756 C509.236,333.14 508.617,336.1 508.621,338.859 C508.67,373.655 508.645,408.451 508.661,443.247 C508.662,446.236 508.428,449.28 509.596,452.129 C510.966,455.47 513.208,457.879 517.144,457.354 C520.953,456.845 522.889,454.311 523.309,450.561 C523.55,448.404 523.487,446.238 523.488,444.075 C523.495,415.938 523.455,387.802 523.546,359.666 C523.554,357.023 522.623,353.901 525.713,352.045 C533.826,366.074 543.136,379.324 552.199,392.734 C553.382,395.188 553.589,397.797 553.578,400.482 C553.538,409.76 553.559,419.038 553.564,428.317 C553.565,429.808 553.519,431.302 553.655,432.788 C554.079,437.424 556.797,440.181 560.799,440.07 C564.638,439.963 567.178,437.338 567.468,432.875 C567.747,428.577 567.48,424.261 567.598,419.955 C567.655,417.846 567.311,415.587 569.15,413.915 C579.968,425.184 590.545,436.671 602.176,447.157 C627.254,469.767 655.883,486.735 686.09,501.42 C727.103,521.358 768.875,539.291 812.975,551.333 C828.073,555.455 843.33,558.85 858.97,560.07 C862.227,560.324 862.999,561.699 863.278,564.669 C866.151,595.234 864.063,625.515 857.936,655.515 C850.872,690.106 838.275,722.426 817.397,751.194 C787.209,792.792 746.142,818.228 697.231,831.962 C667.08,840.427 636.261,844.037 605.016,844.432 C566.016,844.924 527.701,840.537 490.415,828.542 C486.977,827.437 485.918,825.945 485.81,822.319 C484.288,770.924 476.739,720.319 465.007,670.328 C461.311,654.577 455.482,639.55 446.002,626.197 C424.466,595.863 388.295,591.385 360.037,615.585 C352.312,622.2 345.606,629.786 339.148,638.782 C337.188,631.561 336.868,624.982 336.312,618.501 C331.045,557.217 345.143,499.997 372.891,445.685 C373.343,444.801 373.902,443.972 374.411,443.117 C377.433,444.747 376.583,447.693 376.6,450.173 C376.705,465.99 376.644,481.808 376.656,497.627 C376.658,499.623 376.572,501.633 377.004,503.599 C377.749,506.99 380.042,508.823 383.357,508.909 C386.906,509.001 389.358,507.143 390.179,503.553 C390.665,501.429 390.519,499.244 390.52,497.081 C390.527,473.104 390.531,449.127 390.515,425.15 C390.512,421.969 390.558,418.817 392.019,415.883 C399.51,404.834 408.259,394.878 418.081,385.852 C421.428,387.181 420.572,390.208 420.599,392.661 C420.734,404.978 420.657,417.296 420.659,429.615 C420.663,445.262 420.659,460.909 420.662,476.557 C420.662,478.221 420.617,479.889 420.755,481.548 C421.156,486.378 423.598,489.254 427.46,489.489 C431.036,489.706 434.168,486.782 435.107,482.27 C435.618,479.809 435.5,477.298 435.501,474.803 C435.507,442.509 435.498,410.215 435.513,377.922 C435.514,374.943 435.189,371.89 437.024,369.221" fill="#FEF8EA"/>
    <path d="M469.115,823.312 C469.115,832.955 468.997,842.601 469.197,852.241 C469.247,854.696 468.565,856.438 466.776,857.858 C453.754,868.194 439.148,873.263 422.224,858.937 C417.266,854.74 410.948,855.869 408.079,861.601 C407.323,863.112 406.691,864.511 405.092,865.396 C386.634,875.607 367.606,879.712 347.334,870.957 C345.812,870.3 344.272,869.638 342.859,868.782 C339.289,866.617 336.458,864.265 337.963,859.179 C338.938,855.888 338.984,852.268 339.089,848.785 C339.276,842.554 335.097,838.721 328.877,839.718 C320.528,841.056 312.336,841.257 304.281,838.287 C303.191,837.885 302.088,837.504 301.033,837.022 C290.508,832.212 289.008,829.644 291.059,818.421 C299.451,772.513 311.292,727.664 332.177,685.615 C340.927,668 350.319,650.784 363.844,636.265 C372.11,627.39 381.291,619.625 393.884,617.978 C408.607,616.054 420.153,622.251 429.254,633.35 C439.739,646.136 445.053,661.441 448.698,677.189 C458.32,718.754 467.734,777.339 469.115,823.312" fill="#FEFEFE"/>
    <path d="M502.394,976.283 C502.871,970.186 503.197,964.072 503.873,957.997 C504.449,952.824 503.443,948.403 500.37,944 C492.787,933.136 485.662,921.953 478.352,910.898 C480.249,909.084 482.671,909.331 484.966,909.33 C561.071,909.29 637.175,909.29 713.28,909.33 C715.575,909.331 717.998,909.077 719.893,910.896 C714.165,920.412 708.13,929.734 702.711,939.449 C697.554,948.694 695.344,958.178 697.673,968.62 C698.063,970.368 697.844,972.251 697.906,974.072 C695.129,976.258 691.841,975.53 688.748,975.532 C632.445,975.578 576.141,975.568 519.837,975.561 C514.011,975.561 508.183,975.435 502.394,976.283" fill="#59ADCC"/>
    <path d="M502.394,976.283 C503.442,973.197 506.051,974.102 508.209,974.101 C571.441,974.074 634.674,974.075 697.906,974.072 C699.759,993.466 701.611,1012.86 703.464,1032.26 C702.546,1035.34 699.966,1034.23 698.027,1034.23 C662.426,1034.29 626.824,1034.28 591.223,1034.28 C562.109,1034.28 532.996,1034.26 503.883,1034.3 C501.089,1034.3 498.33,1034.6 498.77,1030.46 C499.977,1012.41 501.185,994.345 502.394,976.283" fill="#FEFEFE"/>
    <path d="M719.893,910.896 C660.338,910.865 600.784,910.824 541.229,910.809 C520.27,910.804 499.31,910.866 478.352,910.897 C472.872,902.762 467.49,894.558 461.865,886.524 C459.413,883.021 462.008,881.57 464.177,880.346 C468.526,877.893 472.909,875.543 476.83,872.414 C480.94,869.135 484.125,865.223 486.057,860.256 C488.142,854.894 498.558,849.49 504.162,850.865 C521.954,855.231 539.924,858.534 558.196,860.007 C560.885,860.224 561.704,861.42 562.386,863.861 C564.816,872.56 568.4,880.761 574.3,887.758 C590.729,907.237 619.028,906.89 636.234,887.026 C642.541,879.744 646.748,871.309 649.813,862.266 C650.426,860.457 650.743,859.017 653.186,858.738 C669.071,856.928 684.597,853.152 700.208,849.861 C702.689,849.338 704.858,849.603 706.818,851.081 C718.041,859.547 728.367,868.878 735.851,880.996 C737.49,883.65 737.838,885.681 735.714,888.493 C730.206,895.784 725.137,903.406 719.893,910.896" fill="#FEFEFE"/>
    <path d="M453.704,906.031 C464.205,921.72 474.567,937.194 484.916,952.676 C485.943,954.212 486.987,955.597 484.914,957.38 C464.15,975.249 442.725,992.026 415.975,1000.271 C411.139,1001.76 406.191,1002.31 401.182,1001.87 C395.032,1001.32 390.193,998.371 386.632,993.301 C379.369,982.963 377.28,970.994 376.254,958.856 C374.479,937.847 376.43,916.988 379.596,896.204 C380.044,893.264 381.049,892.204 384.094,891.678 C395.156,889.766 405.717,886.114 415.044,879.784 C419.971,876.44 422.566,881.191 426.221,882.055 C429.308,882.784 427.624,885.647 427.57,887.601 C427.113,903.901 426.515,920.197 426.117,936.498 C425.951,943.29 429.091,946.994 434.589,947.106 C440.393,947.225 443.505,943.533 443.613,936.485 C443.663,933.159 443.842,929.835 443.91,926.51 C444.155,914.559 444.147,914.559 453.704,906.031" fill="#FEF8EA"/>
    <path d="M525.713,352.045 C524.573,353.897 525.097,355.95 525.095,357.907 C525.059,387.896 525.071,417.885 525.069,447.874 C525.069,455.501 521.768,459.78 515.995,459.657 C511.068,459.552 507.175,454.378 507.167,447.711 C507.118,408.726 507.103,369.741 507.076,330.756 C510.978,328.127 513.479,328.51 515.625,333.328 C518.502,339.783 522.307,345.825 525.713,352.045" fill="#C5D1E0"/>
    <path d="M437.024,369.221 C437.015,405.523 437.01,441.824 436.988,478.125 C436.986,480.274 437.114,482.408 436.396,484.543 C434.927,488.912 431.054,491.99 427.28,491.522 C422.083,490.878 419.144,487.536 419.101,481.966 C419.036,473.64 419.083,465.314 419.083,456.987 C419.083,435.173 419.102,413.359 419.05,391.545 C419.046,389.633 419.771,387.511 418.08,385.853 C423.805,379.636 430.293,374.291 437.024,369.221" fill="#C5D1E0"/>
    <path d="M906.529,619.206 C906.374,626.853 905.805,634.126 903.026,641.037 C898.5,652.296 889.632,657.458 878.048,658.85 C875.884,659.11 875.203,658.766 875.69,656.26 C879.893,634.658 882.067,612.843 881.991,590.825 C881.984,588.781 882.464,587.957 884.701,587.767 C893.549,587.015 899.801,590.722 903.213,598.972 C905.94,605.566 906.313,612.519 906.529,619.206" fill="#FEF8EA"/>
    <path d="M294.133,620.285 C294.704,611.904 294.954,604.218 298.495,597.17 C301.626,590.939 306.617,587.83 313.694,587.747 C316.718,587.711 317.636,588.488 317.649,591.618 C317.733,611.789 319.48,631.822 323.053,651.693 C324.52,659.852 324.319,659.927 316.082,657.517 C303.521,653.842 297.651,644.603 295.483,632.454 C294.725,628.209 294.516,623.866 294.133,620.285" fill="#FEF8EA"/>
    <path d="M392.019,415.883 C392.055,444.643 392.117,473.402 392.105,502.161 C392.103,507.496 388.421,511.088 383.429,510.975 C378.397,510.861 375.083,507.353 375.068,501.832 C375.018,484.043 375.063,466.254 375.024,448.466 C375.02,446.678 375.514,444.795 374.411,443.118 C379.532,433.555 385.114,424.292 392.019,415.883" fill="#C5D1E0"/>
    <path d="M463.115,429.922 C463.116,405.837 463.134,381.752 463.085,357.667 C463.081,355.754 463.79,353.651 462.191,351.957 C468.186,348.113 474.321,344.535 480.956,341.888 C480.978,366.944 481,391.999 481.021,417.055 C475.795,419.544 473.243,425.109 468.393,428.035 C466.758,429.021 465.435,430.86 463.115,429.922" fill="#C5D1E0"/>
    <path d="M631.241,860.86 C625.661,876.687 614.96,885.238 602.494,884.416 C592.593,883.763 583.358,874.355 580.641,861.864 C597.427,862.055 614.143,862.418 631.241,860.86" fill="#FEF8EA"/>
    <path d="M569.15,413.915 C569.134,420.4 569.188,426.886 569.082,433.369 C568.999,438.431 565.534,441.892 560.701,441.984 C555.88,442.076 552.096,438.622 552.074,433.631 C552.017,419.999 552.145,406.367 552.199,392.734 C557.849,399.794 563.499,406.855 569.15,413.915" fill="#C5D1E0"/>
    <path d="M747.098,594.88 C746.121,595.096 745.147,595.287 744.52,596.212 C737.337,606.804 726.327,612.164 715.086,616.701 C693.754,625.311 671.298,629.411 648.511,632.068 C627.538,634.514 606.5,635.733 585.446,634.807 C554.138,633.431 523.015,630.198 493.101,620.036 C480.343,615.702 467.817,610.674 458.186,600.604 C456.699,599.049 455.307,597.404 453.871,595.801 C454.61,593.218 457.042,593.045 458.995,592.437 C471.233,588.629 483.602,585.42 496.465,584.496 C504.548,583.915 506.799,581.185 506.185,572.971 C506.034,570.95 506.46,568.999 506.547,567.012 C506.779,561.708 504.379,558.874 499.05,558.485 C493.356,558.069 487.82,559.452 482.235,560.271 C480.184,560.572 478.023,561.701 476.078,559.895 C487.923,553.735 500.612,549.968 513.545,547.036 C533.748,542.455 554.203,539.963 574.918,538.72 C589.718,537.831 604.514,537.527 619.223,538.256 C649.008,539.731 678.538,543.496 707.04,552.985 C709.261,552.972 709.259,554.67 709.228,556.111 C709.198,557.561 707.848,557.815 706.718,558.089 C705.586,558.365 704.406,558.357 703.261,558.577 C700.449,559.117 697.677,560.603 697.331,563.273 C696.622,568.739 696.21,574.439 697.762,579.792 C698.802,583.377 702.521,584.291 705.937,584.466 C718.338,585.101 730.219,588.284 742.071,591.616 C744.02,592.164 746.497,592.15 747.098,594.88" fill="#FFD5BA"/>
    <path d="M599.448,782.797 C584.357,781.6 569.179,782.346 554.173,779.956 C546.766,778.777 539.463,777.234 532.8,773.595 C519.144,766.137 518.217,748.932 531.108,740.082 C539.377,734.406 548.977,732.18 558.674,730.56 C586.478,725.916 614.238,725.519 641.858,731.991 C647.544,733.323 652.972,735.394 657.981,738.424 C664.764,742.527 669.734,748.145 669.405,756.446 C669.046,765.51 664.644,772.653 656.471,776.952 C647.229,781.813 636.985,782.261 626.882,782.711 C617.754,783.118 608.594,782.797 599.448,782.797" fill="#6E4100"/>
    <path d="M476.078,559.895 C483.146,558.978 490.102,557.215 497.262,557.006 C505.823,556.756 509.595,561.304 507.604,569.527 C507.32,570.699 507.292,571.619 507.59,572.825 C509.553,580.767 506.592,584.77 498.293,585.542 C483.02,586.963 468.188,590.26 453.871,595.801 C452.943,596.125 451.967,596.356 451.093,596.79 C447.205,598.726 443.373,598.968 439.952,595.993 C436.709,593.173 436.158,589.514 437.672,585.582 C438.128,584.397 437.937,583.451 437.63,582.274 C436.028,576.136 437.184,573.336 443.012,570.1 C445.102,568.939 445.536,568.135 444.299,566 C442.311,562.566 440.793,558.885 439.843,554.993 C438.767,550.582 440.226,547.085 443.874,546.243 C447.965,545.299 450.454,547.246 451.811,551.108 C456.625,564.81 456.654,564.803 470.32,561.401 C472.245,560.922 474.159,560.398 476.078,559.895" fill="#6E4100"/>
    <path d="M747.098,594.88 C733.856,589.995 720.187,586.963 706.154,585.609 C696.829,584.71 694.265,581.49 696.197,572.379 C696.472,571.078 696.033,570.157 695.751,569.077 C693.96,562.217 697.649,557.055 704.699,557.065 C708.48,557.069 709.775,556.375 707.04,552.985 C706.611,551.055 706.008,549.145 705.791,547.191 C705.388,543.563 707.003,540.96 710.592,540.166 C713.936,539.427 716.364,541.06 717.796,544.113 C718.071,544.699 718.059,545.413 718.26,546.043 C720.925,554.385 724.467,561.14 734.949,562.126 C743.279,562.91 751.336,566.085 759.134,569.365 C765.916,572.217 767.635,575.613 765.737,582.598 C765.323,584.118 765.762,585.152 766.159,586.314 C767.432,590.04 766.517,593.233 763.749,595.811 C760.774,598.583 757.314,598.825 753.602,597.233 C751.487,596.325 749.269,595.657 747.098,594.88" fill="#6E4100"/>
    <path d="M814.843,602.018 C814.261,600.655 813.428,599.342 813.148,597.92 C812.538,594.824 813.615,592.351 816.539,590.875 C819.312,589.476 822.316,589.914 823.722,592.314 C834.305,610.383 845.886,628.229 844.774,650.457 C844.15,662.924 837.939,672.175 826.629,677.672 C813.855,683.879 800.754,678.966 795.284,665.831 C790.451,654.224 790.958,642.072 792.499,629.939 C793.02,625.835 794.015,621.765 795.115,617.767 C796.845,611.483 799.583,610.202 805.855,612.359 C810.373,614.191 809.38,617.899 808.562,621.206 C806.475,629.641 805.007,638.121 805.399,646.847 C805.617,651.705 806.394,656.465 808.586,660.848 C811.213,666.1 815.334,667.496 820.61,664.99 C826.89,662.008 830.044,656.893 830.643,650.038 C831.454,640.77 828.791,632.244 824.989,624.021 C822.27,618.139 819.387,612.323 816.196,606.672 C815.378,605.223 814.422,603.823 814.843,602.018" fill="#6E4100"/>
    <path d="M814.843,602.018 C820.88,611.783 826.239,621.881 829.963,632.782 C831.872,638.371 832.488,644.115 832.175,649.999 C831.831,656.455 828.932,661.399 823.605,664.968 C815.757,670.226 809.115,668.019 806.1,659.03 C803.617,651.626 803.644,643.95 804.302,636.299 C804.743,631.166 805.456,626 807.239,621.146 C808.472,617.787 808.069,615.013 805.855,612.359 C808.823,608.888 811.221,604.921 814.843,602.018" fill="#FEFEFE"/>
    <path d="M463.115,429.922 C467.464,427.809 471.043,424.698 474.002,420.958 C475.871,418.595 478.063,417.245 481.022,417.055 C487.417,420.406 488.053,423.931 483.274,429.495 C482.524,430.369 481.8,431.265 481.063,432.152 C476.386,438.801 470.362,443.463 462.179,444.935 C457.845,446.599 453.543,448.351 449.169,449.899 C445.415,451.229 442.144,450.536 440.417,446.597 C438.855,443.033 440.641,439.816 444.997,438.043 C451.132,435.546 457.524,433.632 463.115,429.922" fill="#6E4100"/>
    <path d="M462.179,444.935 C469.06,441.539 475.54,437.55 481.064,432.151 C481.054,441.963 481.149,451.777 481.001,461.586 C480.883,469.429 474.333,473.721 467.845,470.336 C464.159,468.413 463.336,464.964 463.08,461.128 C462.721,455.733 464.173,450.235 462.179,444.935" fill="#C6D1E0"/>
    <path d="M597.842,564.21 C599.498,564.551 601.402,564.758 602.78,566.066 C606.316,569.425 609.183,573.408 610.737,577.957 C612.095,581.933 610.501,585.548 606.771,587.775 C603.214,589.898 599.524,589.527 596.626,586.758 C593.506,583.776 591.08,580.04 589.44,576.072 C587.109,570.432 591.7,564.148 597.842,564.21" fill="#6E4100"/>
    <path d="M598.558,767.257 C584.257,766.808 569.914,767.234 555.712,764.977 C550.443,764.139 545.197,763.118 540.464,760.539 C535.991,758.102 535.849,755.106 540.099,752.235 C544.719,749.113 550.068,747.681 555.44,746.568 C582.148,741.034 608.917,740.437 635.708,745.985 C640.602,746.998 645.364,748.537 649.71,751.082 C651.847,752.334 654.458,753.617 654.264,756.508 C654.056,759.61 652.326,762.186 649.44,763.629 C645.213,765.742 640.604,766.463 635.961,766.971 C623.502,768.335 611.029,767.861 598.558,767.257" fill="#FEFEFE"/>
  </g>
</svg>
