<?xml version="1.0" encoding="UTF-8"?>
<!DOCTYPE svg PUBLIC "-//W3C//DTD SVG 1.1//EN" "http://www.w3.org/Graphics/SVG/1.1/DTD/svg11.dtd">
<svg version="1.1" xmlns="http://www.w3.org/2000/svg" xmlns:xlink="http://www.w3.org/1999/xlink" x="0" y="0" width="712" height="868" viewBox="0, 0, 712, 868">
  <defs>
    <clipPath id="Clip_1">
      <path d="M0.06,0.04 L711.663,0.04 L711.663,868 L0.06,868 z"/>
    </clipPath>
  </defs>
  <g id="Layer_1">
    <g clip-path="url(#Clip_1)">
      <path d="M629.58,599.047 C622.279,603.893 615.075,608.893 607.656,613.551 C591.208,623.878 573.385,629.459 553.788,628.181 C544.016,627.544 535.851,624.348 533.264,613.515 C532.584,610.67 530.929,612.023 529.486,612.639 C519.397,616.944 509.054,620.5 498.42,623.191 C496.822,623.595 495.181,623.828 493.56,624.141 C489.18,621.23 489.262,617.449 494.045,614.916 C501.115,611.171 508.088,607.283 514.859,603.014 C546.022,583.367 569.843,556.967 587.237,524.613 C595.95,508.404 602.793,491.433 607.836,473.756 C609.036,469.551 611.258,467.955 615.609,467.697 C641.895,466.14 658.94,448.066 659.083,421.689 C659.13,413.055 659.562,404.428 657.586,395.826 C654.186,381.029 642.115,368.432 625.354,369.313 C620.432,369.571 619.189,368.003 618.473,363.36 C617.802,359.008 620.563,358.013 623.864,357.098 C628.84,355.72 630.893,353.021 630.3,349.12 C629.76,345.566 627.232,343.331 622.664,343.481 C582.174,344.807 544.861,331.793 507.897,317.734 C471.89,304.039 436.862,288.058 403.78,268.207 C379.327,253.534 358.223,234.753 339.229,213.495 C314.728,186.074 295.051,155.529 279.168,122.449 C277.872,119.75 276.695,116.968 274.922,114.53 C273.19,112.148 270.811,111.172 267.913,111.851 C265.208,112.485 263.229,114.309 263.14,116.991 C262.965,122.311 259.801,124.227 255.326,125.887 C226.461,136.594 200.116,151.765 177.07,172.208 C154.71,192.042 136.291,215.109 122.133,241.574 C102.863,277.596 91.885,316.15 86.091,356.368 C85.664,359.33 85.837,362.346 85.024,365.284 C84.299,367.906 82.799,369.42 80.085,369.293 C57.871,368.25 47.351,386.623 45.955,405.843 C45.428,413.105 45.235,420.481 46.463,427.777 C50.589,452.306 62.863,464.462 87.582,467.443 C93.079,468.106 95.65,470.248 96.532,475.398 C97.032,478.316 98.818,480.98 98.336,484.118 C97.27,489.296 98.817,494.195 99.935,499.143 C98.924,504.431 95.841,508.927 94.319,514.053 C91.213,524.512 89.292,534.996 89.933,546.032 C90.244,551.386 88.463,556.821 89.53,562.318 C89.731,563.352 89.404,564.854 87.939,565.044 C86.431,565.24 85.604,563.945 84.787,562.927 C78.417,554.985 72.701,546.563 67.547,537.813 C45.112,499.727 32.053,458.269 23.884,415.088 C23.729,414.269 23.657,413.439 23.706,412.604 C24.305,410.335 24.075,408.1 23.403,405.882 C23.16,404.334 23.186,402.772 23.165,401.213 C23.22,392.724 23.105,384.234 23.193,375.746 C23.539,342.634 28.495,310.142 36.688,278.124 C43.519,251.432 53.044,225.713 65.535,201.136 C77.579,177.439 92.186,155.543 110.176,135.827 C123.672,121.037 137.982,107.172 153.347,94.41 C171.386,79.427 191.124,67.183 213.224,58.997 C216.674,57.256 220.398,57.894 224.031,57.779 C230.326,57.58 231.868,56.501 233.249,50.335 C234.252,45.856 237.709,43.892 241.168,41.908 C252.07,35.654 263.756,31.263 275.828,27.943 C298.041,21.833 320.69,18.573 343.658,16.587 C394.809,12.165 442.868,23.475 489.367,43.584 C521.575,57.512 550.672,76.379 576.974,99.537 C581.167,103.228 585.717,106.688 588.876,111.465 C590.338,121.332 588.946,131 586.648,140.572 C582.105,159.495 571.29,173.556 553.686,182.041 C549.975,183.83 550.274,184.947 552.336,188.155 C556.981,195.381 562.733,196.787 570.963,195.156 C592.466,190.892 611.358,181.106 629.502,169.421 C631.159,168.354 632.687,166.896 634.946,167.568 C637.981,169.367 639.304,172.536 641.038,175.332 C667.61,218.208 683.014,264.938 689.823,314.79 C694.725,350.676 697.06,386.686 695.641,422.834 C694.639,448.349 689.949,473.396 682.777,497.969 C672.591,532.869 656.512,564.833 635.497,594.394 C634.014,596.481 632.895,599.212 629.58,599.047" fill="#DBA76F"/>
      <path d="M24.64,412.056 C32.176,451.957 43.395,490.636 62.766,526.592 C69.941,539.91 78.113,552.578 87.863,564.72 C88.944,561.62 87.473,559.137 87.572,556.609 C88.347,536.768 89.026,516.901 99.226,498.963 C100.365,493.786 97.849,489.014 97.573,483.994 C96.425,479.836 95.234,475.69 94.147,471.517 C93.629,469.53 92.397,469.119 90.487,469.043 C58.489,467.77 45.005,445.469 44.389,419.494 C44.188,411 44.297,402.541 46.57,394.226 C51.179,377.367 62.343,368.112 79.651,367.977 C84.749,367.937 83.869,364.636 84.159,362.139 C86.967,337.95 92.02,314.25 99.587,291.116 C114.234,246.338 137.346,206.802 172.322,174.714 C197.063,152.016 225.5,135.447 256.93,123.864 C259.153,123.045 261.864,122.878 261.431,119.134 C260.893,114.488 263.344,111.343 267.825,110.39 C272.6,109.373 275.632,111.837 277.636,116.147 C284.307,130.492 291.595,144.516 299.873,158.012 C328.156,204.126 363.154,243.963 410.773,270.699 C462.704,299.856 516.967,323.835 575.311,337.431 C590.268,340.917 605.414,342.799 620.826,342.119 C627.871,341.808 631.289,344.107 632.026,349.227 C632.732,354.127 629.594,357.563 622.896,358.745 C620.611,359.149 618.838,359.569 619.736,362.313 C620.476,364.574 618.962,368.236 623.924,367.936 C643.622,366.744 655.312,379.941 658.657,395.198 C661.844,409.73 662.062,424.284 657.447,438.567 C651.415,457.233 635.799,468.558 615.603,468.987 C611.936,469.064 610.267,469.789 609.13,473.749 C597.879,512.966 579.285,548.078 549.952,576.933 C534.05,592.577 515.997,605.277 496.041,615.266 C490.456,618.062 490.474,618.099 493.56,624.14 C496.647,635.848 499.916,647.51 502.787,659.27 C511.315,694.203 516.183,729.583 514.22,765.619 C512.513,796.94 505.448,826.792 488.137,853.538 C486.962,855.352 485.798,857.204 484.389,858.829 C481.318,862.37 476.785,862.952 473.191,860.456 C469.399,857.821 468.257,853.056 470.97,848.99 C475.687,841.919 480.061,834.687 483.5,826.9 C492.844,805.739 496.809,783.449 497.615,760.468 C499.205,715.146 490.219,671.503 476.729,628.577 C476.31,627.243 476.578,624.307 474.209,625.271 C471.792,626.253 467.975,625.424 467.383,629.719 C463.476,658.071 459.666,686.439 455.432,714.743 C448.592,760.466 442.237,806.282 431.396,851.303 C430.969,853.076 430.307,854.792 429.858,856.561 C428.699,861.122 426.46,864.7 421.252,864.811 C416.03,864.923 413.617,861.482 412.404,856.897 C411.162,855.375 411.693,853.745 412.147,852.142 C420.527,822.573 424.786,792.188 429.795,761.965 C434.861,731.403 439.235,700.73 443.491,670.044 C444.863,660.147 446.245,650.251 447.624,640.355 C448.242,635.917 447.79,635.46 443.623,636.468 C433.581,638.897 423.524,641.25 413.277,642.642 C409.849,643.108 407.698,644.776 405.954,647.839 C399.276,659.562 392.253,671.088 385.209,682.597 C379.839,691.371 372.075,691.632 366.074,683.384 C363.623,680.017 361.333,676.531 359.122,673.005 C357.53,670.465 356.164,670.152 354.396,672.796 C352.174,676.119 349.827,679.36 347.422,682.552 C341.88,689.91 334.841,689.906 329.412,682.42 C321.492,671.497 313.466,660.649 305.806,649.542 C303.591,646.331 300.984,644.145 297,643.721 C289.369,642.909 281.881,641.259 274.363,639.774 C269.385,638.791 268.766,639.514 269.119,644.405 C274.147,714.1 285.868,782.888 297.18,851.731 C297.616,854.384 298,856.994 297.22,859.633 C294.891,867.108 289.398,869.96 283.967,866.61 C281.073,864.824 280.332,861.957 279.841,858.985 C276.694,839.951 273.542,820.918 270.503,801.866 C265.97,773.439 261.712,744.97 258.11,716.406 C258.073,716.113 257.818,715.848 257.451,715.181 C252.221,719.513 247.185,723.953 241.871,728.032 C226.743,739.645 210.843,749.868 191.948,754.357 C167.17,760.244 147.257,752.855 132.696,731.948 C120.059,713.802 113.367,693.052 107.489,672.03 C100.76,647.967 96.339,623.422 92.664,598.736 C92.359,596.687 91.856,595.015 90.373,593.449 C53.663,554.666 31.363,508.115 17.72,457.102 C7.246,417.944 0.13,378.22 0.002,337.475 C-0.247,258.443 26.094,188.89 74.818,127.344 C97.159,99.125 122.993,74.91 155.607,58.745 C173.367,49.942 192.04,44.361 211.884,42.937 C213.649,42.81 215.492,42.936 216.964,41.391 C229.677,28.053 245.996,21.031 263.137,15.805 C308.077,2.102 354.078,-3.691 400.722,2.516 C466.859,11.316 526.094,37.257 577.574,79.84 C643.656,134.501 685.04,204.23 700.901,288.491 C709.915,336.381 714.141,384.855 710.164,433.625 C705.467,491.221 687.713,544.484 655.211,592.559 C649.25,601.376 643.903,610.662 635.921,617.931 C633.833,619.833 631.703,621.734 629.377,623.318 C625.157,626.191 620.205,625.274 617.491,621.364 C614.983,617.752 615.781,612.907 619.488,609.796 C623.284,606.611 627.524,603.861 629.58,599.048 C631.209,598.997 631.722,597.584 632.458,596.555 C659.635,558.565 678.773,516.988 688.091,471.093 C694.928,437.415 695.716,403.402 693.614,369.205 C691.703,338.116 688.358,307.223 681.371,276.843 C672.522,238.366 657.27,202.547 635.605,169.499 C635.254,168.963 634.726,168.542 634.281,168.067 C632.94,167.311 632.025,166.155 631.176,164.901 C619.225,147.247 605.46,131.078 590.781,115.66 C589.755,114.583 588.587,113.591 588.389,111.974 C545.766,70.737 495.805,42.486 438.526,27.102 C410.7,19.628 382.479,15.536 353.636,17.31 C317.979,19.503 282.763,24.074 249.763,39.034 C246.139,40.677 242.747,42.832 239.224,44.705 C236.232,46.296 234.513,48.295 234.586,52.131 C234.669,56.418 231.288,58.828 226.489,59.158 C222.079,59.461 217.521,58.176 213.276,60.326 C181.461,64.3 153.527,77.17 128.959,97.495 C108.817,114.159 91.628,133.56 76.812,155.076 C60.121,179.314 45.786,204.802 35.763,232.573 C27.463,255.57 22.447,279.312 19.874,303.581 C18.665,314.991 17.757,326.431 17.826,337.928 C17.932,355.602 19.615,373.142 22.298,390.591 C22.93,394.705 23.339,398.834 23.808,402.961 C24.071,403.982 23.954,405.026 23.996,406.061 C24.155,408.065 25.63,409.928 24.64,412.056" fill="#6E4100"/>
    </g>
    <path d="M297.22,859.633 C293.295,836.034 289.269,812.45 285.469,788.83 C280.713,759.271 276.533,729.626 272.92,699.905 C270.531,680.251 268.518,660.56 267.523,640.773 C267.362,637.582 267.814,636.879 271.238,637.608 C280.502,639.58 289.866,641.115 299.232,642.557 C301.915,642.971 303.603,644.025 305.16,646.233 C313.505,658.065 321.989,669.8 330.493,681.52 C335.525,688.456 341.566,688.427 346.527,681.519 C349.82,676.935 353.049,672.305 356.725,667.104 C360.158,672.203 363.751,676.687 366.405,681.67 C371.178,690.634 380.106,689.826 384.651,681.069 C391.301,668.256 399.194,656.089 406.446,643.582 C407.046,642.546 407.629,642.151 408.654,641.997 C422.289,639.959 435.757,637.093 450.294,633.232 C438.551,708.456 431.161,783.613 412.404,856.897 C386.124,857.38 359.843,857.801 333.565,858.375 C321.447,858.64 309.335,859.204 297.22,859.633" fill="#68B2FE"/>
    <path d="M23.428,403.261 C20.286,390.298 18.757,377.073 17.767,363.829 C14.324,317.805 18.926,272.595 35.669,229.436 C56.904,174.703 88.596,127.012 135.672,90.777 C155.854,75.242 178.451,64.679 203.842,60.657 C206.996,60.158 210.111,59.871 213.276,60.326 C171.23,76.272 139.437,105.897 109.768,138.236 C81.641,168.894 62.597,204.935 48.666,243.82 C35.582,280.341 27.943,318.016 25.206,356.739 C24.158,371.552 24.492,386.349 24.278,401.155 C23.813,401.783 24.244,402.773 23.428,403.261" fill="#FEFEFE"/>
    <path d="M402.67,137.017 C406.252,136.824 408.563,138.668 410.381,141.566 C429.263,171.657 452.435,198.196 478.344,222.325 C513.918,255.455 552.914,283.511 598.825,300.815 C605.495,303.329 612.445,305.106 619.282,307.169 C625.246,308.969 627.834,313.035 626.279,318.315 C624.944,322.85 620.64,324.836 614.949,323.379 C584.147,315.492 556.089,301.535 529.67,284.185 C477.558,249.961 433.928,207.077 399.161,155.261 C397.68,153.055 396.117,150.837 395.08,148.416 C392.628,142.692 396.527,136.995 402.67,137.017" fill="#6E4100"/>
    <path d="M588.389,111.974 C604.156,127.304 618.25,144.049 630.729,162.151 C632.032,164.041 633.102,166.092 634.281,168.068 C621.618,176.011 608.965,183.942 594.942,189.417 C584.196,193.612 573.172,196.464 561.7,197.723 C559.73,197.94 558.609,197.401 557.454,196.002 C554.914,192.924 552.442,189.756 549.604,186.971 C546.926,184.342 547.632,183.342 550.753,181.998 C565.117,175.812 575.668,165.616 581.788,151.151 C586.649,139.665 588.759,127.659 587.644,115.159 C587.546,114.057 587.173,112.806 588.389,111.974" fill="#FEFEFE"/>
    <path d="M97.573,483.994 C99.285,488.855 103.215,493.471 99.227,498.962 C96.746,494.186 95.69,489.252 97.573,483.994" fill="#F6CBAD"/>
    <path d="M24.64,412.056 C24.585,410.012 23.052,408.223 23.603,406.074 C23.916,405.631 24.217,405.66 24.506,406.099 C25.402,408.066 26.291,410.032 24.64,412.056" fill="#DEC3A6"/>
    <path d="M24.506,406.099 L24.052,406.159 L23.603,406.073 C23.544,405.136 23.486,404.199 23.428,403.261 C23.712,402.559 23.995,401.857 24.279,401.155 C24.354,402.803 24.43,404.451 24.506,406.099" fill="#FEFEFE"/>
    <path d="M192.518,526.105 C198.091,524.412 203.599,522.624 208.135,518.695 C212.121,515.243 215.044,511.427 213.59,505.728 C212.822,502.715 214.344,502.125 217.014,502.007 C221.53,501.809 225.849,500.549 229.946,498.595 C244.08,491.854 247.787,475.082 237.804,462.981 C233.908,458.259 228.858,455.023 223.46,452.38 C221.374,451.359 221.098,450.706 222.515,448.855 C227.243,442.68 226.909,435.938 224.572,428.945 C223.284,425.091 221.408,422.18 216.794,423.012 C212.199,423.84 211.869,427.293 212.289,431.055 C208.906,427.886 204.625,427.043 200.268,426.28 C198.203,425.918 195.964,425.795 194.386,424.054 C194.342,421.085 193.689,418.391 190.624,417.122 C187.404,415.788 184.91,417.353 182.49,419.312 C179.857,421.445 178.171,424.283 176.364,427.045 C172.265,427.877 168.571,425.898 164.724,425.193 C153.006,423.046 142.316,425.985 132.195,431.373 C123.607,435.945 116.577,442.453 110.964,450.49 C110.155,451.65 109.359,454.919 106.697,452.134 C89.042,367.376 105.611,289.417 155.21,218.973 C182.634,180.022 220.96,154.587 265.627,138.521 C268.806,137.378 269.842,138.506 271.149,141.046 C289.929,177.552 313.327,210.73 342.593,239.641 C365.745,262.51 391.987,281.009 421.049,295.657 C465.035,317.827 509.914,337.716 557.657,350.491 C571.166,354.105 584.821,357.12 598.794,358.064 C603.197,358.361 602.988,361.16 603.174,363.79 C604.007,375.575 604.616,387.359 603.954,399.198 C602.977,416.662 601.352,434.02 597.314,451.082 C594.818,451.335 593.952,449.216 592.745,447.775 C576.925,428.894 556.372,422.889 532.611,425.566 C530.315,425.825 528.067,426.616 525.712,426.125 C519.192,423.787 519.19,423.786 515.066,429.791 C514.678,430.355 514.145,430.718 513.531,431.002 C503.182,431.757 492.919,433.708 482.489,433.092 C482.03,432.923 481.557,432.738 481.182,432.409 C474.961,426.944 472.405,427.504 468.869,435.119 C461.741,450.468 466.954,464.038 482.473,470.532 C483.998,471.17 485.621,471.606 486.921,472.709 C489.285,476.633 487.744,481.088 488.652,485.267 C492.423,502.626 499.52,518.05 513.884,529.185 C525.715,538.356 539.205,540.968 553.84,538.124 C556.022,537.7 558.267,536.302 560.492,538.073 C543.931,562.508 522.31,581.411 496.763,595.897 C467.274,612.619 435.226,621.547 401.838,625.882 C359.084,631.433 316.511,630.27 274.294,621.081 C243.779,614.439 215.266,603.037 189.568,585.002 C186.384,582.767 184.56,580.422 184.106,576.267 C182.933,565.53 181.302,554.825 179.357,544.198 C178.573,539.916 179.517,536.822 182.64,534.122 C185.806,531.294 188.738,528.177 192.518,526.105" fill="#FEF8EA"/>
    <path d="M176.876,738.215 C164.423,738.457 155.358,732.43 148.335,722.704 C139.165,710.003 133.581,695.591 128.915,680.831 C118.61,648.23 112.773,614.689 108.471,580.847 C107.758,575.237 107.226,569.604 106.45,564.003 C106.1,561.479 106.929,560.578 109.458,560.066 C125.749,556.77 142.021,553.373 158.245,549.764 C161.341,549.076 162.123,549.575 162.579,552.759 C167.764,588.977 173.126,625.17 178.453,661.368 C179.29,667.055 182.452,670.062 187.489,670.059 C192.352,670.055 195.637,667.233 196.372,661.836 C196.631,659.935 197.447,658.911 198.79,657.832 C210.209,648.659 221.696,639.564 232.908,630.143 C235.771,627.736 238.134,628.221 241.077,629.226 C250.361,632.4 250.517,632.344 250.903,642.093 C251.521,657.733 253.151,673.285 254.66,688.85 C254.819,690.491 255.093,691.938 253.618,693.399 C237.096,709.772 219.45,724.585 197.693,733.635 C191.073,736.388 184.183,738.356 176.876,738.215" fill="#FEFEFE"/>
    <path d="M560.492,538.073 C556.197,538.427 552.15,539.969 547.791,540.292 C530.3,541.585 516.018,535.439 504.613,522.357 C496.492,513.041 491.609,502.042 488.323,490.229 C486.769,484.641 486.862,478.916 486.465,473.225 C488.268,471.629 490.352,472.485 492.153,472.91 C499.554,474.655 506.716,473.308 513.749,471.316 C530.818,466.48 542.112,446.82 527.393,429.417 C526.365,428.202 524.891,427.101 525.497,425.128 C528.284,424.774 531.064,424.331 533.86,424.081 C559.208,421.816 580.713,428.748 596.14,450.183 C596.415,450.565 596.918,450.785 597.314,451.081 C590.784,482.51 579.499,511.926 560.492,538.073" fill="#FFD5BA"/>
    <path d="M185.727,459.04 C193.348,459.392 206.743,462.263 218.998,469.202 C222.814,471.363 227.576,473.81 226.237,479.31 C225.001,484.385 219.986,484.663 215.709,485.211 C210.227,485.914 205.034,485.974 200.194,482.078 C195.595,478.376 189.755,478.084 183.991,478.741 C180.253,479.168 177.889,481.396 176.939,484.901 C175.978,488.446 177.133,491.535 180.057,493.737 C183.533,496.354 187.397,498.34 191.65,499.318 C194.979,500.083 196.548,502.315 196.365,505.319 C196.187,508.239 193.148,508.458 191.024,508.861 C185.524,509.905 180.102,508.946 174.759,507.476 C172.682,506.905 170.596,506.225 168.471,505.996 C164.146,505.529 160.962,507.366 159.577,511.566 C158.15,515.894 160.102,519.993 164.221,521.949 C169.251,524.337 169.398,524.943 164.81,528.377 C156.479,534.611 147.14,534.426 137.636,532.024 C127.73,529.52 127.06,529.726 123,538.773 C122.623,539.613 122.25,540.219 121.335,540.345 C116.558,541.001 111.791,541.766 106.996,542.248 C104.11,542.538 105.045,540.073 105.067,538.699 C105.185,531.467 107.14,524.582 109.541,517.839 C115.966,499.796 125.709,483.962 140.991,472.018 C152.231,463.232 164.967,458.567 185.727,459.04" fill="#FEF8EA"/>
    <path d="M106.697,452.134 C110.91,451.293 111.825,447.109 114.118,444.455 C125.482,431.301 139.651,423.96 156.977,423.216 C163.618,422.931 170.148,424.514 176.364,427.045 C174.813,431.864 174.282,436.732 176.049,441.918 C149.66,443.343 129.508,455.838 113.048,476.101 C110.365,467.779 108.288,460.023 106.697,452.134" fill="#FFD5BA"/>
    <path d="M644.322,415.158 C644.016,421.061 643.547,427.167 641.613,433.103 C637.972,444.279 630.102,450.207 618.742,451.956 C615.988,452.38 614.256,452.755 615.118,448.423 C619.024,428.797 620.862,408.91 620.854,388.897 C620.853,384.835 622.589,384.105 625.938,384.316 C633.573,384.798 638.701,388.614 641.33,395.751 C643.604,401.926 644.126,408.388 644.322,415.158" fill="#FEF8EA"/>
    <path d="M60.865,415.806 C60.947,408.785 61.382,401.853 64.006,395.231 C66.655,388.542 71.51,384.961 78.714,384.375 C81.574,384.142 83.017,384.717 83.02,388.017 C83.042,408.659 84.881,429.149 88.981,449.389 C89.813,453.493 87.247,452.052 85.662,451.825 C72.179,449.9 63.547,440.343 61.616,425.237 C61.217,422.113 61.108,418.951 60.865,415.806" fill="#FEF8EA"/>
    <path d="M194.386,424.054 C199.082,424.903 203.754,425.938 208.482,426.533 C211.436,426.904 211.058,429.536 212.289,431.056 C216.126,440.026 213.04,445.117 203.508,444.908 C199.418,444.819 195.204,444.165 191.55,441.998 C185.989,438.699 185.393,433.186 190.148,428.825 C191.743,427.362 193.35,425.982 194.386,424.054" fill="#FEFDFD"/>
    <path d="M192.525,630.118 C190.276,622.044 189.858,613.708 188.3,604.523 C197.441,609.904 205.836,614.471 214.396,618.736 C218.096,620.58 215.111,621.408 213.385,622.166 C211.335,623.566 209.235,622.796 207.152,622.289 C200.584,620.689 200.642,620.719 197.108,626.227 C196.015,627.93 195.321,630.329 192.525,630.118" fill="#DBA76E"/>
    <path d="M325.568,645.837 C334.052,645.837 342.088,645.837 351.048,645.837 C346.944,651.688 343.412,656.619 340.005,661.635 C338.7,663.556 337.902,663.071 336.79,661.49 C333.095,656.241 329.316,651.051 325.568,645.837" fill="#FDFDFD"/>
    <path d="M386.716,644.556 C382.651,651.339 379.017,657.402 375.053,664.016 C371.01,657.98 367.224,652.326 362.967,645.97 C370.981,645.493 378.322,645.056 386.716,644.556" fill="#FDFDFD"/>
    <path d="M192.525,630.118 C194.812,628.782 195.947,626.45 196.827,624.225 C198.594,619.753 200.893,617.939 205.705,620.449 C207.966,621.628 210.665,622.308 213.385,622.165 C207.648,628.366 200.422,632.746 193.942,638.696 C192.398,635.603 192.317,632.886 192.525,630.118" fill="#FDFDFD"/>
    <path d="M192.518,526.105 C189.903,529.613 186.819,532.542 182.64,534.122 C183.049,533.239 183.681,532.391 183.828,531.466 C184.657,526.252 188.055,525.349 192.518,526.105" fill="#FDD4BA"/>
    <path d="M366.458,730.276 C366.557,736.547 361.861,741.481 355.674,741.607 C349.494,741.733 344.528,736.904 344.462,730.704 C344.394,724.374 349.049,719.452 355.25,719.297 C361.356,719.144 366.36,724.046 366.458,730.276" fill="#6E4100"/>
    <path d="M366.458,787.183 C366.537,793.528 361.923,798.287 355.617,798.365 C349.288,798.443 344.537,793.812 344.461,787.492 C344.386,781.261 349.156,776.295 355.305,776.205 C361.457,776.114 366.382,780.962 366.458,787.183" fill="#6E4100"/>
    <path d="M267.634,396.528 C267.674,401.824 264.403,405.476 259.068,405.896 C241.715,407.262 225.006,411.231 208.912,417.863 C205.404,419.309 201.991,418.83 199.131,416.252 C196.395,413.787 195.779,410.536 196.663,407.102 C197.077,405.496 197.499,404.199 196.955,402.387 C195.295,396.858 197.02,392.903 202.274,390.525 C206.643,388.547 211.226,386.957 215.839,385.634 C218.899,384.756 220.034,384.171 217.999,380.816 C215.118,376.068 214.202,370.62 214.235,365.007 C214.258,361.25 215.826,358.773 219.516,358.386 C223.569,357.961 225.777,360.543 226.131,364.283 C226.574,368.966 226.99,373.531 230.003,377.445 C231.853,379.849 233.621,381.086 237.114,380.302 C243.577,378.852 250.206,378.005 256.81,377.356 C264.592,376.59 269.355,382.135 267.033,389.561 C266.151,392.383 268.361,394.316 267.634,396.528" fill="#6E4100"/>
    <path d="M454.829,378.224 C453.645,374.814 452.428,371.932 451.66,368.935 C450.741,365.347 451.512,362.122 455.513,360.976 C459.642,359.793 462.181,361.819 463.359,365.782 C463.736,367.051 464.104,368.325 464.557,369.568 C467.357,377.256 471.547,382.928 480.682,384.139 C487.524,385.045 494.177,387.549 500.41,390.754 C505.473,393.358 507.105,396.924 505.464,402.192 C504.931,403.905 504.983,405.299 505.576,406.883 C506.972,410.61 505.811,413.765 503.047,416.35 C500.348,418.872 496.993,419.313 493.735,417.967 C477.344,411.197 460.326,407.264 442.66,405.798 C436.724,405.305 433.403,399.954 435.022,394.203 C435.528,392.403 435.621,390.938 435.084,389.08 C433.192,382.536 437.552,377.154 444.537,377.303 C447.819,377.373 451.092,377.875 454.829,378.224" fill="#6E4100"/>
    <path d="M464.288,556.536 C464.61,548.054 469.078,538.764 479.214,533.021 C490.04,526.886 501.425,526.039 512.524,532.178 C524.46,538.78 528.494,554.607 522.057,567.599 C515.539,580.754 499.699,588.684 485.362,585.971 C472.594,583.555 464.23,573.055 464.288,556.536" fill="#6E4100"/>
    <path d="M525.497,425.128 C532.844,432.621 537.209,441.216 534.766,452.009 C532.094,463.817 521.746,472.007 507.653,474.14 C500.49,475.225 493.476,474.707 486.465,473.225 C478.852,470.861 472.002,467.355 467.71,460.236 C462.552,451.678 464.202,436.297 470.989,428.922 C474.512,425.093 479.107,426.468 481.61,432.1 C483.158,434.28 481.958,436.168 481.03,438.131 C474.859,451.176 479.341,458.908 493.877,460.835 C500.293,461.686 506.451,461.169 512.428,458.831 C522.48,454.898 524.841,445.603 518.092,437.19 C516.414,435.098 513.605,433.501 514.436,430.085 C515.919,422.962 519.239,421.475 525.497,425.128" fill="#6E4100"/>
    <path d="M514.436,430.085 C515.292,432.311 516.923,433.938 518.533,435.63 C526.413,443.914 524.7,454.403 514.387,459.391 C504.758,464.048 494.779,464.058 485.034,459.713 C476.942,456.105 474.781,450.09 477.867,441.725 C479.059,438.493 481.639,435.801 481.61,432.1 C492.593,432.091 503.428,429.68 514.436,430.085" fill="#FEFEFE"/>
    <path d="M344.815,563.236 C353.285,563.82 360.732,564.482 368.059,566.094 C373.865,567.371 377.087,571.324 376.203,576.122 C375.261,581.226 370.592,583.868 364.717,582.604 C357.546,581.061 350.301,580.154 342.962,580.075 C336.18,580.002 332.364,576.91 332.469,571.529 C332.571,566.386 336.438,563.29 342.83,563.237 C343.828,563.229 344.827,563.236 344.815,563.236" fill="#6E4100"/>
    <path d="M267.908,225.134 C268.022,228.666 266.695,230.279 264.915,231.67 C253.204,240.823 240.582,248.343 226.525,253.356 C222.624,254.747 219.231,254.768 217.406,250.401 C215.902,246.805 217.692,243.791 222.24,242.126 C235.147,237.4 246.817,230.522 257.573,222.033 C259.84,220.244 262.17,219.445 264.918,220.916 C267.071,222.069 267.835,223.97 267.908,225.134" fill="#6E4100"/>
    <path d="M349.905,411.574 C352.334,411.661 354.558,412.385 356.006,414.392 C358.035,417.206 360.099,420.044 361.695,423.108 C363.666,426.891 362.287,431.38 358.917,433.651 C355.278,436.103 350.644,435.55 347.781,431.977 C345.72,429.406 343.807,426.639 342.3,423.716 C339.293,417.884 343.44,411.44 349.905,411.574" fill="#6E4100"/>
    <path d="M476.312,557.641 C476.628,552.049 479.597,546.362 486.085,543.016 C492.789,539.559 499.775,538.81 506.577,542.692 C512.586,546.122 514.628,554.112 511.649,561.185 C508.236,569.288 498.881,574.965 490.048,574.294 C481.255,573.625 476.134,568.016 476.312,557.641" fill="#FEFEFE"/>
  </g>
</svg>
