<?xml version="1.0" encoding="UTF-8"?>
<svg viewBox="0 0 524.40942 744.09448" xmlns="http://www.w3.org/2000/svg" xmlns:xlink="http://www.w3.org/1999/xlink">
 <defs>
  <linearGradient id="a">
   <stop stop-color="#ab0000" offset="0"/>
   <stop stop-color="#911313" offset="1"/>
  </linearGradient>
  <linearGradient id="d" x1="185.37" x2="242.94" y1="852.86" y2="759.93" gradientTransform="matrix(-1 0 0 1 677.42 -90.059)" gradientUnits="userSpaceOnUse" spreadMethod="reflect">
   <stop stop-color="#ab0000" offset="0"/>
   <stop stop-color="#7a1010" offset="1"/>
  </linearGradient>
  <linearGradient id="c" x1="216.8" x2="274.37" y1="747.15" y2="654.21" gradientUnits="userSpaceOnUse" xlink:href="#a" spreadMethod="reflect"/>
  <radialGradient id="b" cx="173.02" cy="169.44" r="198.88" gradientTransform="matrix(1 0 0 .94882 0 10.406)" gradientUnits="userSpaceOnUse" xlink:href="#a"/>
 </defs>
 <g transform="translate(-85.714 -142.55)">
  <path d="m349.12 443.08c118.19 120.21 32.325 203.04 65.66 259.61 37.244 63.202 145.46 77.782 145.46 77.782s-30.018-13.339-46.467-30.305c-15.357-15.84-20.203-27.274-20.203-27.274s4.0678 5.1388 34.345 13.132c26.785 7.0711 48.487 3.0305 48.487 3.0305s-73.384-8.1909-88.893-62.629c-10.844-38.064 11.112-50.508-2.0203-116.17-13.344-66.72-58.589-108.09-78.792-115.16s-57.579-2.0203-57.579-2.0203z" fill="url(#d)"/>
  <path d="m359.73 427.43c-118.19 120.21 0 259.61-57.579 305.07s-169.71 36.365-169.71 36.365 34.059-13.339 54.548-19.193c21.213-6.0609 36.366-22.223 36.366-22.223s-20.203 12.122-51.518 12.122c-24.764 0-55.558-12.122-55.558-12.122s76.772 4.0406 105.06-42.426c20.91-34.353-33.335-75.761-12.122-140.41s72.731-108.09 92.934-115.16 57.579-2.0203 57.579-2.0203z" fill="url(#c)"/>
  <path d="m422.29 558.36-9.97 0.77354c2.3434 23.286 1.5085 46.965-1.3516 70.448-1.0469 8.5764-2.3349 17.215-3.218 25.962-0.74147 7.2417-1.1798 14.672-0.39351 22.1v1e-5c0.90939 8.5599 2.7836 17.154 6.439 25.061 4.5456 9.7583 11.67 18.037 19.955 24.604l1e-5 1e-5c11.169 8.8685 22.577 17.864 35.538 23.884h1e-5c2.1743 1.0097 4.4131 1.9606 6.7654 2.3993h1e-5l1.859 0.11463 1e-4 -3e-5 -1e-4 2e-5 -1.8472-0.1955c-2.324-0.53879-4.4887-1.578-6.6022-2.6747v-1e-5c-12.631-6.5517-23.482-15.946-34.261-25.28h-1e-5c-7.7593-6.7409-14.239-14.986-18.066-24.318-3.1221-7.5469-4.4998-15.751-5.0373-24.003v-1e-5c-0.44871-6.9212 0.30328-13.942 1.3176-20.996 1.2377-8.5201 2.8947-17.036 4.3364-25.677 3.9628-23.723 5.8813-47.935 4.5352-72.202z" fill="#d22b2b" fill-rule="evenodd"/>
  <path d="m310.94 526.96-9.5073-3.1002c-3.2894 10.668-5.437 21.749-5.9896 32.97-0.4534 9.472 0.25781 18.9 1.7678 28.12 2.9294 17.871 8.3861 34.795 11.007 51.984 2.5224 16.533 6.5854 32.558 8.2772 48.788 0.64628 6.2901 0.9044 12.586-0.13402 18.663v1e-5c-0.92217 5.4215-2.9914 10.684-6.3394 15.011-5.9115 7.6796-13.53 14.047-21.72 19.504-7.9348 5.2815-16.457 9.7078-25.24 13.538l-2e-5 1e-5c-6.8143 2.9708-13.793 5.5826-20.892 7.8349h-2e-5c-2.1108 0.6697-4.232 1.3076-6.367 1.8992h-2e-5c-0.57778 0.1601-1.1565 0.31683-1.7368 0.46777l-1e-5 1e-5h-1e-5l-0.45348 0.11634-0.11635 0.0292c-0.01 3e-3 -0.0198 5e-3 -0.0297 7e-3l-0.0105 2e-3h-1e-5 1e-5l0.0105-2e-3 0.03-6e-3 0.1173-0.0251 0.45732-0.1006h2e-5l1e-5 -1e-5c0.58536-0.13081 1.1695-0.26749 1.7528-0.4076 2.1554-0.5177 4.3-1.0825 6.4358-1.6796h2e-5c7.1829-2.0083 14.27-4.3841 21.219-7.1316l2e-5 -1e-5c8.9572-3.5409 17.705-7.7061 25.947-12.787 8.5106-5.2409 16.549-11.507 23.027-19.314 3.8541-4.6759 6.3561-10.362 7.5566-16.272l1e-5 -1e-5v-1e-5c1.3256-6.5435 1.3146-13.225 0.84737-19.726-1.1747-16.697-4.6964-33.003-6.6002-49.225v-1e-5c-2.1232-17.914-7.0089-35.134-9.1965-52.314-1.1228-8.8149-1.4909-17.681-0.75755-26.396 0.85464-10.344 3.2268-20.569 6.6373-30.448z" fill="#650000" fill-rule="evenodd"/>
  <path transform="translate(193.59 190.53)" d="m281.5 321.29c-19.619 19.265 10.068 54.26-15.799 65.58s-42.054-26.602-70.059-23.057-29.058 31.443-55.785 27.286-5.4732-37.418-29.569-50.676-59.626 3.9168-79.739-15.882 27.152-26.107 15.207-50.645-63.644-16.265-68.554-42.988 35.653-42.863 40.031-69.611-16.975-31.436-3.1503-54.76 36.677 8.0118 58.321-9.755-10.389-57.635 15.799-67.738 50.783 18.718 78.831 16.252 18.469-35.372 45.962-29.475 14.817 40.457 38.021 55.909 59.492-33.601 78.203-12.294-31.39 47.836-20.001 73.773 62.395 13.652 64.255 40.86-29.882 37.11-36.802 63.22 18.136 29.179 3.15 52.603-38.702 12.133-58.32 31.397z" fill="url(#b)"/>
  <path d="m275.73 235.03c-0.32493-0.64987 0.19958-1.674 1.3482-2.9878s2.9244-2.9134 4.998-4.8201c0.90525-0.86002 2.017-1.9981 3.769-3.2182 1.5117-0.94582 3.2958-1.5156 5.2188-1.5486 2.387-0.0151 4.5626 0.35561 6.3348 0.65922 2.4334 0.40719 4.8558 1.0445 7.2108 1.8131 1.1633 0.37967 2.2798 0.77997 3.351 1.1837 4.2394 1.581 8.0438 3.3478 11.277 5.0633 7.5711 4.1986 12.205 7.9025 11.497 9.56l-4e-3 0.01-4e-3 0.01v1e-5c-0.7482 1.64-6.6268 0.839-14.781-1.7014-3.4262-0.99702-7.2429-2.2434-11.277-3.5687l-3.172-1.0448c-2.1308-0.69983-4.1238-1.3232-6.0063-1.7792-2.063-0.46343-3.5759-0.98043-4.7589-1.1265-0.19077-0.11054-0.45065-0.15298-0.65178-0.12004-1.145 0.43534-2.4873 1.2531-3.9765 1.9604-2.87 1.3292-5.3204 2.0302-7.1136 2.2751s-2.934 0.0313-3.2589-0.61861z" fill="#fff" fill-rule="evenodd"/>
  <path d="m352.87 245.03c0.16419-0.84831 1.6991-1.3645 4.2004-1.6575 1.2506-0.14651 2.7407-0.2401 4.4071-0.33215s3.5085-0.18213 5.4622-0.36266c2.7424-0.28036 5.6446-0.64835 8.1058-1.7586 1.6566-0.67514 3.3043-1.79 4.9154-3.2007 0.28786-0.25206 0.5715-0.51067 0.85078-0.7742 2.4858-2.3351 4.6208-5.1792 6.7427-7.8755 3.0078-4.5317 5.8332-8.2506 8.1427-10.74s4.1029-3.7495 5.0148-3.3062h1e-5l0.0153 8e-3 0.0153 8e-3c0.8904 0.48124 0.7684 2.6101-0.19582 5.9125s-2.7709 7.7787-5.218 12.898c-1.8191 3.2152-4.1592 6.8259-7.5207 10.227-0.39341 0.39641-0.80441 0.78468-1.2328 1.1626-2.3977 2.1152-5.2087 3.7731-8.2019 4.7955-4.3562 1.3786-8.359 1.3791-11.649 0.94226-2.2941-0.2907-4.3198-0.74449-6.0661-1.255s-3.2142-1.0782-4.3916-1.639c-2.3549-1.1218-3.5608-2.2037-3.3966-3.052z" fill="#fff" fill-rule="evenodd"/>
  <path d="m273.59 448.6c0.31548-0.155 1.145 0.8023 2.53 2.6714s3.3345 4.6491 6.0341 8.043 6.1587 7.4022 10.564 11.634 9.7653 8.689 16.138 12.879l1e-5 1e-5c6.0226 3.9582 12.95 7.6908 20.715 10.816s16.368 5.6426 25.575 7.1789c7.7706 1.2908 15.984 1.8787 24.403 1.548s17.045-1.5806 25.565-3.9456c3.9586-1.0954 7.8944-2.4397 11.771-4.0306 12.687-5.2065 23.954-12.747 33.078-21.594 6.1807-6.003 11.591-12.415 16.107-18.994s8.1387-13.324 10.873-20.019c2.6344-6.4206 4.4729-12.786 5.7089-18.857s1.8703-11.847 2.1084-17.168c0.25728-5.6262 0.088-10.749-0.2736-15.26s-0.91404-8.4127-1.4438-11.645c-1.5778-6.9194-2.1863-10.886-1.5995-11.114h1e-5l3e-3 -9.5e-4 3e-3 -9.3e-4h1e-5c0.59357-0.20663 2.3358 3.3557 5.0419 10.155 1.0526 3.2141 2.1236 7.1794 2.9821 11.855s1.5029 10.063 1.6692 16.061c0.15223 5.6482-0.14259 11.84-1.1241 18.41s-2.6509 13.52-5.2369 20.597c-2.7074 7.3747-6.3976 14.821-11.086 22.065s-10.374 14.284-16.934 20.823c-9.8735 9.8539-22.164 18.226-36.081 23.938-4.2524 1.7452-8.576 3.2111-12.93 4.3957-9.3424 2.5348-18.753 3.8099-27.892 4.0404s-18.007-0.58259-26.345-2.1908c-9.8766-1.898-19.031-4.9045-27.213-8.5833s-15.391-8.0276-21.558-12.604h-1e-5c-6.5425-4.852-11.889-9.9819-16.139-14.835s-7.4092-9.4296-9.7095-13.315-3.7506-7.0795-4.5784-9.3078-1.0419-3.4904-0.7264-3.6454z" fill="#ff7d7d" fill-rule="evenodd"/>
  <path d="m212.87 314.32c-0.34723 0.0302-0.70717-0.16212-1.071-0.57003s-0.73369-1.0313-1.0652-1.8809-0.62693-1.9264-0.77452-3.2504-0.14865-2.897 0.20171-4.7251c0.24886-1.1949 0.73509-2.4443 1.536-3.644s1.9172-2.3496 3.4143-3.3027c2.454-1.3462 5.1303-1.9578 7.4516-2.0013 2.4783-0.13638 4.8928 7e-3 7.1162 0.14053 1.7042 0.14038 3.3051 0.45932 4.7807 0.87632 1.2454 0.35194 2.372 0.76344 3.389 1.1757 2.504 0.94087 4.5507 1.8418 6.3573 2.3034 2.243 0.61318 4.4717 0.73914 6.4356 0.5093 1.4862-0.14873 2.8864-0.49417 4.1671-0.85918s2.4412-0.75032 3.4455-1.0428c2.0086-0.58494 3.3941-0.77741 3.9013-0.15749s0.10947 1.994-1.3362 3.825c-0.72285 0.9155-1.7157 1.9382-3.0377 2.959s-2.9746 2.0403-5.0273 2.8753c-2.9268 1.1297-6.5288 1.6648-10.328 1.112-2.8806-0.44297-5.5817-1.325-7.9953-2.1833-0.98979-0.32188-1.9181-0.64421-2.7815-0.90904-1.023-0.31378-1.9258-0.5353-2.7319-0.58802-2.404-0.2229-4.4619-0.52769-6.2543-0.61839-1.6855-6.5e-4 -2.9096-0.10634-3.6421 0.18622-0.70171-5e-3 -1.4976 0.80001-2.1255 1.6694-0.5916 0.89941-0.98712 1.9024-1.3233 2.8624s-0.61087 1.8769-0.88743 2.6534c-0.55312 1.553-1.1209 2.5241-1.8154 2.5845z" fill="#fff" fill-rule="evenodd"/>
  <path d="m518.59 260.75c-0.3683 0.14732-0.84656-0.0339-1.4369-0.37025s-1.298-0.84791-2.13-1.1155c-0.62349-0.21799-1.3721-0.3314-2.1387-0.27662-0.7342-0.0107-1.5431 0.16052-2.4757 0.49567s-1.9907 0.83541-3.2046 1.3646c-2.4079 1.1743-4.9489 2.7487-7.6188 4.7159s-5.4739 4.3264-8.4558 6.8393l-0.3948 0.33091c-4.2157 3.4868-8.8688 5.8473-13.302 7.2982s-8.6394 2.0041-12.191 2.0413c-3.8269 0.051-6.9366-0.45909-9.0576-1.1285-1.1032-0.34806-1.9529-0.74311-2.5114-1.1402-0.28429-0.20216-0.49677-0.40549-0.63062-0.60438-0.0689-0.1005-0.11783-0.19987-0.14576-0.29743-6.7e-4 -0.14174-6e-3 -0.21591-0.0108-0.2544-5e-3 -0.0377-0.01-0.0412-0.0107-0.0415l-4e-5 -2e-5 4e-5 -1e-5c7.4e-4 -8e-5 7e-3 -2e-3 0.0214-0.037 0.0152-0.0357 0.04-0.10587 0.0786-0.24249 0.0503-0.0873 0.1171-0.17207 0.20039-0.25458 0.16803-0.16323 0.40115-0.31767 0.69898-0.46646 0.58491-0.29224 1.4057-0.56443 2.4413-0.84529 1.99-0.54026 4.736-1.113 7.9764-1.9821 2.9742-0.81244 6.3675-1.8891 9.8383-3.4401s7.0131-3.5763 10.193-6.2726c0.0999-0.0847 0.19913-0.16981 0.29774-0.25534 3.1047-2.7042 6.4092-5.1931 9.7773-7.1754s6.795-3.4545 10.033-4.3496c1.6188-0.50901 3.3693-0.79648 5.0565-0.80537s3.3103 0.25872 4.7366 0.75149c1.7007 0.62977 2.9476 1.6822 3.7478 2.7402 0.97936 1.356 1.23 2.533 1.2335 3.3474s-0.24875 1.2828-0.61705 1.4301z" fill="#ff7d7d" fill-rule="evenodd"/>
  <path d="m474.61 350.97c-0.31548 0.155-1.145-0.80229-2.53-2.6714s-3.3345-4.6491-6.0341-8.043-6.1587-7.4022-10.564-11.634-9.7653-8.689-16.138-12.879l-1e-5 -1e-5c-6.0226-3.9582-12.95-7.6908-20.715-10.816s-16.368-5.6426-25.575-7.1789c-7.7706-1.2908-15.984-1.8787-24.403-1.548s-17.045 1.5806-25.565 3.9456c-3.9586 1.0954-7.8944 2.4397-11.771 4.0306-12.687 5.2065-23.954 12.747-33.078 21.594-6.1807 6.003-11.591 12.415-16.107 18.994s-8.1387 13.324-10.873 20.019c-2.6344 6.4206-4.4729 12.786-5.7089 18.857s-1.8703 11.847-2.1084 17.168c-0.25728 5.6262-0.088 10.749 0.2736 15.26s0.91405 8.4127 1.4438 11.645c1.5778 6.9194 2.1863 10.886 1.5995 11.114h-1e-5l-3e-3 9.5e-4 -3e-3 9.3e-4h-1e-5c-0.59357 0.20663-2.3358-3.3557-5.0419-10.155-1.0526-3.2141-2.1236-7.1794-2.9821-11.855s-1.5029-10.063-1.6692-16.061c-0.15223-5.6482 0.14259-11.84 1.1241-18.41s2.6509-13.52 5.2369-20.597c2.7074-7.3747 6.3976-14.821 11.086-22.065s10.374-14.284 16.934-20.823c9.8735-9.8539 22.164-18.226 36.081-23.938 4.2524-1.7452 8.576-3.2111 12.93-4.3957 9.3424-2.5348 18.753-3.8099 27.892-4.0404s18.007 0.58259 26.345 2.1908c9.8766 1.898 19.031 4.9045 27.213 8.5833s15.391 8.0276 21.558 12.604h1e-5c6.5425 4.852 11.889 9.9819 16.139 14.835s7.4092 9.4296 9.7095 13.315 3.7506 7.0795 4.5784 9.3078 1.0419 3.4904 0.7264 3.6454z" fill="#650000" fill-rule="evenodd"/>
  <path d="m275.73 235.03c-0.32493-0.64987 0.19958-1.674 1.3482-2.9878s2.9244-2.9134 4.998-4.8201c0.90525-0.86002 2.017-1.9981 3.769-3.2182 1.5117-0.94582 3.2958-1.5156 5.2188-1.5486 2.387-0.0151 4.5626 0.35561 6.3348 0.65922 2.4334 0.40719 4.8558 1.0445 7.2108 1.8131 1.1633 0.37967 2.2798 0.77997 3.351 1.1837 4.2394 1.581 8.0438 3.3478 11.277 5.0633 7.5711 4.1986 12.205 7.9025 11.497 9.56l-4e-3 0.01-4e-3 0.01v1e-5c-0.7482 1.64-6.6268 0.839-14.781-1.7014-3.4262-0.99702-7.2429-2.2434-11.277-3.5687l-3.172-1.0448c-2.1308-0.69983-4.1238-1.3232-6.0063-1.7792-2.063-0.46343-3.5759-0.98043-4.7589-1.1265-0.19077-0.11054-0.45065-0.15298-0.65178-0.12004-1.145 0.43534-2.4873 1.2531-3.9765 1.9604-2.87 1.3292-5.3204 2.0302-7.1136 2.2751s-2.934 0.0313-3.2589-0.61861z" fill="#ff7d7d" fill-rule="evenodd"/>
  <path d="m352.87 245.03c0.16419-0.84831 1.6991-1.3645 4.2004-1.6575 1.2506-0.14651 2.7407-0.2401 4.4071-0.33215s3.5085-0.18213 5.4622-0.36266c2.7424-0.28036 5.6446-0.64835 8.1058-1.7586 1.6566-0.67514 3.3043-1.79 4.9154-3.2007 0.28786-0.25206 0.5715-0.51067 0.85078-0.7742 2.4858-2.3351 4.6208-5.1792 6.7427-7.8755 3.0078-4.5317 5.8332-8.2506 8.1427-10.74s4.1029-3.7495 5.0148-3.3062h1e-5l0.0153 8e-3 0.0153 8e-3c0.8904 0.48124 0.7684 2.6101-0.19582 5.9125s-2.7709 7.7787-5.218 12.898c-1.8191 3.2152-4.1592 6.8259-7.5207 10.227-0.39341 0.39641-0.80441 0.78468-1.2328 1.1626-2.3977 2.1152-5.2087 3.7731-8.2019 4.7955-4.3562 1.3786-8.359 1.3791-11.649 0.94226-2.2941-0.2907-4.3198-0.74449-6.0661-1.255s-3.2142-1.0782-4.3916-1.639c-2.3549-1.1218-3.5608-2.2037-3.3966-3.052z" fill="#ff7d7d" fill-rule="evenodd"/>
  <path d="m212.87 314.32c-0.34723 0.0302-0.70717-0.16212-1.071-0.57003s-0.73369-1.0313-1.0652-1.8809-0.62693-1.9264-0.77452-3.2504-0.14865-2.897 0.20171-4.7251c0.24886-1.1949 0.73509-2.4443 1.536-3.644s1.9172-2.3496 3.4143-3.3027c2.454-1.3462 5.1303-1.9578 7.4516-2.0013 2.4783-0.13638 4.8928 7e-3 7.1162 0.14053 1.7042 0.14038 3.3051 0.45932 4.7807 0.87632 1.2454 0.35194 2.372 0.76344 3.389 1.1757 2.504 0.94087 4.5507 1.8418 6.3573 2.3034 2.243 0.61318 4.4717 0.73914 6.4356 0.5093 1.4862-0.14873 2.8864-0.49417 4.1671-0.85918s2.4412-0.75032 3.4455-1.0428c2.0086-0.58494 3.3941-0.77741 3.9013-0.15749s0.10947 1.994-1.3362 3.825c-0.72285 0.9155-1.7157 1.9382-3.0377 2.959s-2.9746 2.0403-5.0273 2.8753c-2.9268 1.1297-6.5288 1.6648-10.328 1.112-2.8806-0.44297-5.5817-1.325-7.9953-2.1833-0.98979-0.32188-1.9181-0.64421-2.7815-0.90904-1.023-0.31378-1.9258-0.5353-2.7319-0.58802-2.404-0.2229-4.4619-0.52769-6.2543-0.61839-1.6855-6.5e-4 -2.9096-0.10634-3.6421 0.18622-0.70171-5e-3 -1.4976 0.80001-2.1255 1.6694-0.5916 0.89941-0.98712 1.9024-1.3233 2.8624s-0.61087 1.8769-0.88743 2.6534c-0.55312 1.553-1.1209 2.5241-1.8154 2.5845z" fill="#ff7d7d" fill-rule="evenodd"/>
  <path d="m226.32848,507.91123c.35057.0607.60487.47007.9803.97253 .18771.25123.41052.52891.68858.80293s.61308.54594.98629.76351c.44928.30566.99266.57851 1.65622.83329s1.44882.49072 2.34214.77749c1.79154.52627 3.86637.96698 6.2495,1.29785s5.07755.5501 8.04865.7989c5.25534.38925 11.15788.57392 17.48166.51288 2.07534-.0265 4.16346-.0587 6.24493-.14192 2.68284-.1073 5.24909-.29882 7.68293-.64432 5.85752-.80634 11.36661.076 15.98446,1.72864 5.12659,1.85967 9.22077,4.43727 12.37579,6.92414 6.43763,6.42752 9.80497,10.76475 8.8896,11.76149v1e-005l-.006.006-.006.006v1e-005h-1e-005c-.94901.96923-5.91863-1.5108-12.97616-6.11849-3.14364-1.54016-6.79825-3.1215-10.86192-4.04431-3.73397-.87601-7.86213-1.27545-11.86178-.52446-2.89074.49573-5.84467.77646-8.80882.90232-2.29972.0976-4.53568.10136-6.69258.06-6.70528-.10687-13.03378-.75865-18.60472-1.82693-3.05755-.56284-6.01292-1.27097-8.66376-2.17559s-4.99653-2.00213-6.93192-3.19315c-.99043-.58121-1.92546-1.27364-2.71263-2.02278s-1.42769-1.55379-1.89819-2.34547c-.4786-.79868-.70531-1.58881-.78248-2.27103s-.006-1.25837.12475-1.69824 .32069-.74521.51184-.92778 .38336-.24377.55865-.21342z" fill="#650000" fill-rule="evenodd"/>
  <path d="m322.04 569.34c0.23255-0.19061 0.66644-0.12255 1.2894 0.1624s1.4361 0.79058 2.4329 1.4308 2.1768 1.4201 3.5329 2.1406 2.8871 1.386 4.5966 1.6113c1.2705 0.21328 2.6787 0.19651 4.0833-0.11163 1.3717-0.28127 2.8297-0.88923 4.3825-1.6991 1.7923-0.9316 3.5939-2.1404 5.4539-3.575s3.779-3.0952 5.8344-4.8584c4.7734-4.1633 9.8273-8.9012 15.384-13.743 0.0856-0.0751 0.17173-0.1498 0.25829-0.22415 3.1151-2.6757 6.7047-4.7612 10.531-6.0753 3.732-1.2563 7.5261-1.7222 11.121-1.5788 3.9937 0.22139 7.6615 1.0492 10.959 2.1787s6.2242 2.5596 8.7815 4.0584c5.6098 4.5699 10.046 8.4489 12.939 11.324s4.2437 4.7472 3.7445 5.3484v1e-5h-1e-5v1e-5l-4e-3 4e-3 -4e-3 4e-3 -1e-5 1e-5c-0.51626 0.58897-2.8181-0.14999-6.4165-1.9153s-8.4928-4.5565-14.257-8.1171c-2.3707-0.95604-4.9228-1.8554-7.5938-2.5033s-5.4602-1.0441-8.2861-0.92104c-2.5873 0.0543-5.2343 0.4863-7.7096 1.416-2.5508 0.93163-5.034 2.4507-7.3074 4.3803l-0.1888 0.1616c-5.4366 4.7327-10.736 9.4022-15.987 13.468-2.1868 1.7193-4.446 3.3893-6.7769 4.8535s-4.7331 2.7222-7.1706 3.687c-2.2064 0.87547-4.5475 1.4289-6.8624 1.5679-2.4642 0.13288-4.7636-0.29379-6.7411-1.0612-2.4704-1.0367-4.2981-2.3849-5.7013-3.7013s-2.382-2.606-3.0776-3.7068-1.1073-2.018-1.302-2.6957-0.17108-1.1192 0.0615-1.3099z" fill="#650000" fill-rule="evenodd"/>
  <path d="m178.59 418.6c-0.0873-0.0115-0.1726-0.036-0.25536-0.0736s-0.15588-0.0843-0.23-0.14425c-0.14677-0.11993-0.28261-0.28941-0.40492-0.50224-0.24052-0.41863-0.42727-1.0199-0.53553-1.7704-0.20952-1.4528-0.12255-3.5192 0.48823-5.9539 0.59752-2.3771 1.7135-5.1186 3.5162-7.8646s4.2984-5.4901 7.4706-7.7752c0.84757-0.5971 1.687-1.2493 2.52-1.9538 2.1249-1.7973 4.0479-3.7937 5.8388-5.7698s3.4487-3.9279 4.9774-5.6656c3.9533-5.1827 7.3045-8.2403 8.746-7.5323l0.0113 6e-3 0.0112 6e-3h1e-5c1.4196 0.74721 0.56949 5.1802-1.9863 11.603-1.0461 2.2584-2.429 4.7673-4.2502 7.3314s-4.0853 5.182-6.8627 7.559c-1.0888 0.93188-2.2223 1.7968-3.39 2.5853-2.3455 1.5084-4.3835 3.2715-6.111 5.0497s-3.1438 3.5714-4.3161 5.1705c-1.2139 1.6646-2.1772 3.0955-3.0008 4.115-0.42573 0.52734-0.81262 0.93314-1.1758 1.2065-0.1847 0.13904-0.36284 0.2401-0.53655 0.30413-0.0877 0.0329-0.17417 0.0553-0.25963 0.0674s-0.1777 0.014-0.26503 2e-3z" fill="#ff7d7d" fill-rule="evenodd"/>
  <path d="m560.01592,364.31791c-.9416,1.00886-2.78585.95875-5.00444.34861s-4.83032-1.76479-7.58274-3.20634c-1.48633-.77844-2.86883-1.5682-4.11088-2.35688-1.7045-1.07941-3.11118-2.14901-4.09363-3.19786-.48007-.51223-.84188-1.01805-1.07814-1.51999-.11734-.24926-.19885-.497-.24632-.74401-.0218-.12299-.0352-.24581-.0404-.36858 .0241-.35525.015-.38181.0137-.38342l-6e-005-.0001 8e-005-9e-005c.002-.001.017-.0247.0859-.37379 .0405-.11647.0945-.22976.16064-.33955 .12883-.22055.30665-.42713.52474-.61727 .43923-.38285 1.06167-.6965 1.8161-.91888 1.5456-.45532 3.71865-.51366 6.11139-.0218 1.75543.36081 3.64528,1.01715 5.49346,1.98409 1.71127.8953 3.22068,1.96914 4.46115,3.0993s2.2126,2.31509 2.89136,3.43462 1.06545,2.1724 1.16258,3.06211-.0937,1.61543-.56453,2.11986z" fill="#ff7d7d" fill-rule="evenodd"/>
  <path d="m466.48 520.48c-0.39992-0.21756-0.50011-0.96734-0.29437-2.1854s0.71716-2.906 1.5988-4.9616 2.134-4.4809 3.8794-7.1038 3.9855-5.4446 6.8841-8.1966c2.0689-1.9351 4.4596-3.7651 7.1399-5.3801s5.65-3.0145 8.8366-4.0997c2.9907-1.0076 6.0294-1.7404 9.0039-2.3921 1.7783-0.38963 3.4898-0.74377 5.1215-1.1129 4.1325-1.0094 7.7362-2.0784 10.342-3.8984 2.9875-1.9976 5.3854-4.4822 7.1198-7.0315 1.7866-2.6037 2.9567-5.3298 3.7932-7.7441 0.90776-2.6371 1.4219-4.9042 1.863-6.5531 0.23542-0.88184 0.44894-1.5794 0.67442-2.0786 0.11625-0.25739 0.23613-0.45866 0.36322-0.60439 0.0647-0.0725 0.13123-0.1308 0.20004-0.175 0.10883-0.0345 0.16473-0.0566 0.19325-0.0702s0.0296-0.0184 0.0297-0.0192l1e-5 -5e-5 2e-5 4e-5c3.1e-4 6.8e-4 4e-3 5e-3 0.0342 9e-3s0.0912 8e-3 0.20515 8e-3c0.0789 0.024 0.15994 0.0664 0.2423 0.12657 0.16193 0.11577 0.3292 0.30016 0.49611 0.54805 0.32375 0.48088 0.64917 1.2139 0.92868 2.1749 0.52358 1.7982 0.90841 4.4447 0.68548 7.7578-0.2029 3.0552-0.94835 6.7022-2.756 10.515-1.7972 3.7553-4.6402 7.5373-8.5491 10.626-2.004 1.5288-4.2036 2.782-6.4994 3.7809s-4.6874 1.7437-7.0515 2.2991c-1.7796 0.44717-3.5544 0.83751-5.3008 1.2177-2.9211 0.63584-5.6394 1.2248-8.1087 1.9834-5.2087 1.5763-9.7923 3.9589-13.481 6.677-2.6854 1.9485-4.9761 4.0557-6.9648 6.0427s-3.6749 3.8538-5.1043 5.4007-2.6016 2.7754-3.5251 3.5526-1.5992 1.1048-1.9991 0.88727z" fill="#650000" fill-rule="evenodd"/>
  <path d="m422.16 560.75c0.25401-0.39512 0.95466-0.48224 2.0354-0.31533s2.5424 0.5896 4.3244 1.1756 3.884 1.3371 6.2504 2.0948 4.9961 1.5221 7.8514 2.0556c1.8234 0.30068 3.702 0.55912 5.506 0.6039s3.5322-0.12462 5.0359-0.75081c1.2877-0.44459 2.5364-1.2862 3.5189-2.3767 0.43525-0.4831 0.80956-1.006 1.107-1.551 1.3081-2.1405 1.695-5.0193 1.8013-7.8745-0.145-16.19 1.1055-27.9 3.2726-28.061l0.0109-6.6e-4 0.0109-5.6e-4h1e-5c2.1711-0.0832 4.6137 11.453 6.1298 27.653 0.34871 3.9764-0.18221 8.5738-2.4602 13.041-0.67709 1.2507-1.5018 2.42-2.458 3.4799-2.1584 2.3924-4.9002 4.1255-7.879 5.0701-3.0509 0.85679-5.9744 1.0306-8.6498 0.8097s-5.1031-0.83508-7.2305-1.6039c-3.3302-1.141-6.173-2.547-8.5588-3.968s-4.3164-2.8573-5.8162-4.1478-2.5699-2.4371-3.209-3.3486-0.84723-1.5897-0.59322-1.9848z" fill="#650000" fill-rule="evenodd"/>
  <path d="m525.02 435.75c-0.89573-0.12214-1.5032-2.0487-1.7619-5.3611-0.12931-1.6562-0.16847-3.6613-0.0673-5.9681s0.34232-4.9163 0.81905-7.7713c0.58312-3.5962 1.6669-7.728 4.0171-11.92 1.683-2.8763 3.8018-5.4356 6.0408-7.6956 0.38325-0.38682 0.76626-0.7617 1.1472-1.1256 3.8499-3.7362 7.6074-6.931 10.905-9.8075 2.8807-2.5849 5.4691-4.7472 7.5292-6.685s3.6119-3.6532 4.8137-5.0334c0.42366-0.50125 0.80117-0.89543 1.1178-1.2406l0.80523-0.89623c0.2004-0.22037 0.38476-0.37038 0.55552-0.50378l0.24997-0.14362c0.24209-0.10435 0.25617-0.13027 0.25675-0.13343l7e-5 -2.1e-4 1.9e-4 1.3e-4c2e-3 2e-3 0.0291 0.0144 0.28673-0.0179 0.0971 0.0268 0.19966 0.0919 0.29957 0.18884 0.20053 0.17316 0.39095 0.48687 0.51984 0.8678 0.14838 0.43086 0.2392 0.99728 0.23692 1.6571s-0.10063 1.4132-0.28072 2.1678c-0.46763 2.0924-1.5295 4.7361-3.2546 7.5519s-4.1233 5.7852-6.7655 8.6623c-3.0804 3.4315-6.6636 6.9153-10.28 10.5-0.33998 0.34296-0.67773 0.68414-1.0114 1.0243-1.9492 1.9871-3.6402 3.8344-4.8435 5.7156-1.819 2.6797-2.9917 5.8713-4.0544 8.9206-0.84572 2.4849-1.5696 4.8253-2.2414 6.9232s-1.2908 3.9526-1.8824 5.4775c-1.1831 3.0498-2.2621 4.7684-3.1579 4.6463z" fill="#650000" fill-rule="evenodd"/>
  <path d="m184.3 434.32c0.39544-1.4543 6.0555-1.3164 14.677 0.0775 6.8628 1.0744 15.567 2.9342 25.007 5.0504 0.47707 0.10073 0.95628 0.21159 1.4368 0.33304 2.9858 0.75463 5.8828 1.8889 8.5172 3.3762s5.005 3.3272 6.9972 5.4352v1e-5c1.86 2.0419 3.254 4.2552 4.2506 6.4549s1.5968 4.3854 1.8994 6.4249c0.32334 2.2079 0.33048 4.2153 0.16774 5.9625s-0.4948 3.2351-0.88348 4.4414c-0.42523 1.3267-0.92445 2.3299-1.4017 2.9796-0.24899 0.33895-0.49399 0.58689-0.72373 0.73654-0.11772 0.0785-0.23147 0.13137-0.3399 0.15749v-1e-5l-0.2732-0.0106c-0.0411 3e-3 -0.0451 9e-3 -0.0454 9e-3l-2e-5 3e-5v-3e-5c6e-5 -7.3e-4 -4.2e-4 -8e-3 -0.0352-0.03-0.0353-0.0224-0.1058-0.0601-0.24542-0.12167v-1e-5c-0.0846-0.0707-0.16406-0.16107-0.23908-0.27122-0.14599-0.22038-0.27481-0.5174-0.39306-0.89097-0.22668-0.71573-0.41817-1.6947-0.64101-2.9046-0.40947-2.198-0.90212-5.1478-2.1307-8.2708-1.1073-2.8057-2.884-5.8218-5.5297-8.1264-1.385-1.2813-3.0724-2.3823-5.0137-3.3149s-4.1359-1.6976-6.4704-2.3318l-1.1287-0.29425c-9.6682-2.2477-18.241-5.0117-24.746-7.5021h-1e-5c-8.1552-3.1677-13.108-5.9156-12.713-7.3699z" fill="#650000" fill-rule="evenodd"/>
 </g>
</svg>
