<?xml version="1.0" encoding="UTF-8" standalone="no"?>
<!DOCTYPE svg PUBLIC "-//W3C//DTD SVG 1.1//EN" "http://www.w3.org/Graphics/SVG/1.1/DTD/svg11.dtd">
<svg width="18px" height="18px" version="1.1" xmlns="http://www.w3.org/2000/svg" xmlns:xlink="http://www.w3.org/1999/xlink" xml:space="preserve" xmlns:serif="http://www.serif.com/" style="fill-rule:evenodd;clip-rule:evenodd;stroke-linejoin:round;stroke-miterlimit:2;">
    <g id="Layer0_75_FILL">
        <path d="M9,0C8.667,0 8.35,0.017 8.05,0.05C6.183,0.217 4.517,0.933 3.05,2.2C2.917,2.3 2.783,2.417 2.65,2.55C2.65,2.583 2.633,2.617 2.6,2.65C2.267,2.983 1.967,3.35 1.7,3.75C0.767,5.017 0.217,6.433 0.05,8C0.017,8.333 0,8.667 0,9C0,9.333 0.017,9.667 0.05,10C0.217,11.6 0.767,13.017 1.7,14.25C1.967,14.617 2.283,14.983 2.65,15.35C2.783,15.483 2.933,15.617 3.1,15.75C4.533,17.05 6.183,17.783 8.05,17.95C8.35,17.983 8.667,18 9,18C9.367,18 9.717,17.983 10.05,17.95C11.883,17.75 13.5,17.017 14.9,15.75C15.033,15.617 15.167,15.483 15.3,15.35C15.3,15.317 15.317,15.3 15.35,15.3C15.683,14.967 16,14.617 16.3,14.25C17.233,12.983 17.783,11.567 17.95,10C17.983,9.667 18,9.333 18,9C18,8.667 17.983,8.333 17.95,8C17.783,6.4 17.25,4.983 16.35,3.75C16.05,3.35 15.717,2.967 15.35,2.6C15.217,2.467 15.083,2.333 14.95,2.2C13.55,0.967 11.917,0.25 10.05,0.05C9.717,0.017 9.367,0 9,0M8.05,1.95C8.35,1.917 8.667,1.9 9,1.9C9.367,1.9 9.717,1.933 10.05,2L10.2,2C11.367,2.167 12.433,2.633 13.4,3.4C13.6,3.567 13.8,3.75 14,3.95C14.3,4.25 14.567,4.55 14.8,4.85C15.5,5.783 15.933,6.833 16.1,8C16.133,8.333 16.15,8.667 16.15,9C16.15,9.333 16.133,9.667 16.1,10C16.067,10.033 16.067,10.067 16.1,10.1C15.933,11.233 15.5,12.25 14.8,13.15C14.567,13.417 14.3,13.683 14,13.95C13.8,14.15 13.6,14.35 13.4,14.55C12.4,15.35 11.283,15.85 10.05,16.05C9.717,16.083 9.367,16.1 9,16.1C8.667,16.1 8.35,16.083 8.05,16.05C7.017,15.917 6.083,15.567 5.25,15C5.017,14.833 4.8,14.683 4.6,14.55C4.367,14.35 4.15,14.15 3.95,13.95C3.683,13.683 3.433,13.4 3.2,13.1L2.4,11.65C2.167,11.117 2.017,10.567 1.95,10C1.917,9.667 1.9,9.333 1.9,9C1.9,8.667 1.917,8.333 1.95,8C2.117,6.833 2.533,5.783 3.2,4.85C3.433,4.55 3.683,4.25 3.95,3.95C4.15,3.75 4.367,3.583 4.6,3.45C4.633,3.417 4.667,3.383 4.7,3.35C4.733,3.317 4.767,3.3 4.8,3.3C5.767,2.567 6.85,2.117 8.05,1.95Z" style="fill:rgb(168,109,21);fill-rule:nonzero;"/>
        <path d="M13.2,8L16.1,8C15.933,6.833 15.5,5.783 14.8,4.85C13.9,5.75 13.367,6.8 13.2,8M13.2,10C13.367,11.2 13.9,12.25 14.8,13.15C15.5,12.25 15.933,11.233 16.1,10.1C16.067,10.067 16.067,10.033 16.1,10L13.2,10M11.15,10L10.05,10L10.05,16.05C11.283,15.85 12.4,15.35 13.4,14.55C12.1,13.25 11.35,11.733 11.15,10M10.2,2L10.05,2L10.05,8L11.15,8C11.35,6.267 12.1,4.733 13.4,3.4C12.433,2.633 11.367,2.167 10.2,2M4.85,8C4.65,6.8 4.1,5.75 3.2,4.85C2.533,5.783 2.117,6.833 1.95,8L4.85,8M8.05,10L6.85,10C6.65,11.733 5.9,13.25 4.6,14.55C4.8,14.683 5.017,14.833 5.25,15C6.083,15.567 7.017,15.917 8.05,16.05L8.05,10M2.4,11.65L3.2,13.1C4.1,12.2 4.65,11.167 4.85,10L1.95,10C2.017,10.567 2.167,11.117 2.4,11.65M4.8,3.3C4.767,3.3 4.733,3.317 4.7,3.35C4.667,3.383 4.633,3.417 4.6,3.45C5.9,4.75 6.65,6.267 6.85,8L8.05,8L8.05,1.95C6.85,2.117 5.767,2.567 4.8,3.3Z" style="fill:rgb(255,153,0);fill-rule:nonzero;"/>
        <path d="M9,1.9C8.667,1.9 8.35,1.917 8.05,1.95L8.05,8L6.85,8C6.65,6.267 5.9,4.75 4.6,3.45C4.367,3.583 4.15,3.75 3.95,3.95C3.683,4.25 3.433,4.55 3.2,4.85C4.1,5.75 4.65,6.8 4.85,8L1.95,8C1.917,8.333 1.9,8.667 1.9,9C1.9,9.333 1.917,9.667 1.95,10L4.85,10C4.65,11.167 4.1,12.2 3.2,13.1C3.433,13.4 3.683,13.683 3.95,13.95C4.15,14.15 4.367,14.35 4.6,14.55C5.9,13.25 6.65,11.733 6.85,10L8.05,10L8.05,16.05C8.35,16.083 8.667,16.1 9,16.1C9.367,16.1 9.717,16.083 10.05,16.05L10.05,10L11.15,10C11.35,11.733 12.1,13.25 13.4,14.55C13.6,14.35 13.8,14.15 14,13.95C14.3,13.683 14.567,13.417 14.8,13.15C13.9,12.25 13.367,11.2 13.2,10L16.1,10C16.133,9.667 16.15,9.333 16.15,9C16.15,8.667 16.133,8.333 16.1,8L13.2,8C13.367,6.8 13.9,5.75 14.8,4.85C14.567,4.55 14.3,4.25 14,3.95C13.8,3.75 13.6,3.567 13.4,3.4C12.1,4.733 11.35,6.267 11.15,8L10.05,8L10.05,2C9.717,1.933 9.367,1.9 9,1.9Z" style="fill:rgb(198,127,21);fill-rule:nonzero;"/>
    </g>
</svg>
