<?xml version="1.0" encoding="UTF-8" standalone="no"?>
<!DOCTYPE svg PUBLIC "-//W3C//DTD SVG 1.1//EN" "http://www.w3.org/Graphics/SVG/1.1/DTD/svg11.dtd">
<svg width="18px" height="18px" version="1.1" xmlns="http://www.w3.org/2000/svg" xmlns:xlink="http://www.w3.org/1999/xlink" xml:space="preserve" xmlns:serif="http://www.serif.com/" style="fill-rule:evenodd;clip-rule:evenodd;stroke-linejoin:round;stroke-miterlimit:2;">
    <g id="Layer0_3_FILL">
        <path d="M2.65,2.55C2.617,2.583 2.583,2.617 2.55,2.65C1.65,3.583 1,4.617 0.6,5.75C0.2,6.75 0,7.833 0,9C0,9.967 0.15,10.9 0.45,11.8C0.85,13.133 1.567,14.317 2.6,15.35C2.9,15.617 3.217,15.883 3.55,16.15C5.117,17.383 6.933,18 9,18C10.167,18 11.267,17.817 12.3,17.45C13.4,16.95 14.4,16.25 15.3,15.35C15.3,15.317 15.317,15.3 15.35,15.3C16.783,13.9 17.633,12.283 17.9,10.45C17.967,9.983 18,9.5 18,9C18,8.033 17.883,7.133 17.65,6.3C17.183,4.9 16.417,3.667 15.35,2.6C15.05,2.3 14.717,2.017 14.35,1.75C12.817,0.583 11.033,0 9,0C6.533,0 4.417,0.85 2.65,2.55M2.9,5.3C3.033,5.067 3.2,4.85 3.4,4.65C3.467,4.483 3.567,4.333 3.7,4.2L3.95,3.95C4.95,2.95 6.1,2.333 7.4,2.1C7.633,2.033 7.867,1.983 8.1,1.95C8.367,1.917 8.633,1.9 8.9,1.9L9,1.9C10.5,1.9 11.833,2.283 13,3.05C13.167,3.183 13.333,3.333 13.5,3.5C13.667,3.633 13.833,3.783 14,3.95C14.033,3.95 14.067,3.967 14.1,4C14.167,4.1 14.25,4.217 14.35,4.35C14.783,4.783 15.117,5.25 15.35,5.75C15.483,5.983 15.6,6.217 15.7,6.45C15.767,6.65 15.833,6.883 15.9,7.15C16.033,7.717 16.1,8.333 16.1,9L16.1,9.05C16.1,9.317 16.083,9.583 16.05,9.85C16.017,10.117 16,10.35 16,10.55C15.7,11.85 15.033,12.983 14,13.95C13.533,14.45 13.033,14.867 12.5,15.2C12.267,15.333 12.033,15.467 11.8,15.6C11.6,15.633 11.383,15.7 11.15,15.8C10.483,16 9.767,16.1 9,16.1C8.133,16.1 7.317,15.95 6.55,15.65C6.283,15.583 6.033,15.483 5.8,15.35C5.567,15.25 5.367,15.133 5.2,15C4.733,14.7 4.317,14.35 3.95,13.95C3.217,13.25 2.7,12.45 2.4,11.55C2.3,11.317 2.217,11.1 2.15,10.9C2.083,10.633 2.033,10.4 2,10.2C1.933,9.8 1.9,9.4 1.9,9C1.9,7.9 2.117,6.867 2.55,5.9C2.65,5.7 2.767,5.5 2.9,5.3Z" style="fill:rgb(168,109,21);fill-rule:nonzero;"/>
        <path d="M16,10.55C15.9,10.517 15.817,10.483 15.75,10.45C15.25,10.183 14.783,9.833 14.35,9.4C13.783,8.833 13.367,8.233 13.1,7.6C12.533,7.7 11.967,7.833 11.4,8C12.033,10.267 12.4,12.667 12.5,15.2C13.033,14.867 13.533,14.45 14,13.95C15.033,12.983 15.7,11.85 16,10.55M16.1,9.05L16.1,9C16.1,8.333 16.033,7.717 15.9,7.15L15.8,7.15C15.367,7.217 14.95,7.283 14.55,7.35C14.75,7.717 15.017,8.083 15.35,8.45C15.583,8.65 15.833,8.85 16.1,9.05M14.1,4C14.033,4.333 14,4.683 14,5.05C14,5.383 14.033,5.683 14.1,5.95C14.5,5.85 14.917,5.783 15.35,5.75C15.117,5.25 14.783,4.783 14.35,4.35C14.25,4.217 14.167,4.1 14.1,4M7.6,10.75C7.6,10.25 7.533,9.767 7.4,9.3C5.767,9.9 4.133,10.633 2.5,11.5C2.467,11.533 2.433,11.55 2.4,11.55C2.7,12.45 3.217,13.25 3.95,13.95C4.317,14.35 4.733,14.7 5.2,15C5.233,14.9 5.3,14.817 5.4,14.75C5.667,14.55 5.933,14.333 6.2,14.1L6.2,14.05C7.133,13.183 7.6,12.083 7.6,10.75M10,8.45C9.567,8.517 9.15,8.633 8.75,8.8C8.917,9.4 9,10.05 9,10.75C9,12.45 8.4,13.9 7.2,15.1C7,15.3 6.783,15.483 6.55,15.65C7.317,15.95 8.133,16.1 9,16.1C9.767,16.1 10.483,16 11.15,15.8C11.117,15.733 11.1,15.683 11.1,15.65C11,13.083 10.633,10.683 10,8.45M9,1.9L8.9,1.9C9.733,3.4 10.417,4.983 10.95,6.65C11.517,6.483 12.1,6.333 12.7,6.2C12.6,5.867 12.55,5.483 12.55,5.05C12.55,4.417 12.65,3.833 12.85,3.3C12.883,3.2 12.933,3.117 13,3.05C11.833,2.283 10.5,1.9 9,1.9M3.7,4.2C3.567,4.333 3.467,4.483 3.4,4.65C4.867,4.75 6.133,5.333 7.2,6.4C7.567,6.733 7.867,7.117 8.1,7.55C8.567,7.35 9.067,7.183 9.6,7.05C9.033,5.383 8.333,3.8 7.5,2.3C7.467,2.2 7.433,2.133 7.4,2.1C6.1,2.333 4.95,2.95 3.95,3.95L3.7,4.2M2.9,6C2.767,6 2.65,5.967 2.55,5.9C2.117,6.867 1.9,7.9 1.9,9C1.9,9.4 1.933,9.8 2,10.2C3.567,9.333 5.15,8.6 6.75,8C6.583,7.767 6.4,7.567 6.2,7.4C5.3,6.467 4.2,6 2.9,6Z" style="fill:rgb(255,153,0);fill-rule:nonzero;"/>
        <path d="M3.4,4.65C3.2,4.85 3.033,5.067 2.9,5.3C2.767,5.5 2.65,5.7 2.55,5.9C2.65,5.967 2.767,6 2.9,6C4.2,6 5.3,6.467 6.2,7.4C6.4,7.567 6.583,7.767 6.75,8C5.15,8.6 3.567,9.333 2,10.2C2.033,10.4 2.083,10.633 2.15,10.9C2.217,11.1 2.3,11.317 2.4,11.55C2.433,11.55 2.467,11.533 2.5,11.5C4.133,10.633 5.767,9.9 7.4,9.3C7.533,9.767 7.6,10.25 7.6,10.75C7.6,12.083 7.133,13.183 6.2,14.05L6.2,14.1C5.933,14.333 5.667,14.55 5.4,14.75C5.3,14.817 5.233,14.9 5.2,15C5.367,15.133 5.567,15.25 5.8,15.35C6.033,15.483 6.283,15.583 6.55,15.65C6.783,15.483 7,15.3 7.2,15.1C8.4,13.9 9,12.45 9,10.75C9,10.05 8.917,9.4 8.75,8.8C9.15,8.633 9.567,8.517 10,8.45C10.633,10.683 11,13.083 11.1,15.65C11.1,15.683 11.117,15.733 11.15,15.8C11.383,15.7 11.6,15.633 11.8,15.6C12.033,15.467 12.267,15.333 12.5,15.2C12.4,12.667 12.033,10.267 11.4,8C11.967,7.833 12.533,7.7 13.1,7.6C13.367,8.233 13.783,8.833 14.35,9.4C14.783,9.833 15.25,10.183 15.75,10.45C15.817,10.483 15.9,10.517 16,10.55C16,10.35 16.017,10.117 16.05,9.85C16.083,9.583 16.1,9.317 16.1,9.05C15.833,8.85 15.583,8.65 15.35,8.45C15.017,8.083 14.75,7.717 14.55,7.35C14.95,7.283 15.367,7.217 15.8,7.15L15.9,7.15C15.833,6.883 15.767,6.65 15.7,6.45C15.6,6.217 15.483,5.983 15.35,5.75C14.917,5.783 14.5,5.85 14.1,5.95C14.033,5.683 14,5.383 14,5.05C14,4.683 14.033,4.333 14.1,4C14.067,3.967 14.033,3.95 14,3.95C13.833,3.783 13.667,3.633 13.5,3.5C13.333,3.333 13.167,3.183 13,3.05C12.933,3.117 12.883,3.2 12.85,3.3C12.65,3.833 12.55,4.417 12.55,5.05C12.55,5.483 12.6,5.867 12.7,6.2C12.1,6.333 11.517,6.483 10.95,6.65C10.417,4.983 9.733,3.4 8.9,1.9C8.633,1.9 8.367,1.917 8.1,1.95C7.867,1.983 7.633,2.033 7.4,2.1C7.433,2.133 7.467,2.2 7.5,2.3C8.333,3.8 9.033,5.383 9.6,7.05C9.067,7.183 8.567,7.35 8.1,7.55C7.867,7.117 7.567,6.733 7.2,6.4C6.133,5.333 4.867,4.75 3.4,4.65Z" style="fill:rgb(145,93,15);fill-rule:nonzero;"/>
    </g>
</svg>
