<?xml version="1.0" encoding="UTF-8" standalone="no"?>
<!DOCTYPE svg PUBLIC "-//W3C//DTD SVG 1.1//EN" "http://www.w3.org/Graphics/SVG/1.1/DTD/svg11.dtd">
<svg width="18px" height="18px" version="1.1" xmlns="http://www.w3.org/2000/svg" xmlns:xlink="http://www.w3.org/1999/xlink" xml:space="preserve" xmlns:serif="http://www.serif.com/" style="fill-rule:evenodd;clip-rule:evenodd;stroke-linejoin:round;stroke-miterlimit:2;">
    <g id="Layer0_5_FILL">
        <path d="M15.35,2.6C15.017,2.3 14.683,2.017 14.35,1.75C12.783,0.583 11,0 9,0C6.533,0 4.417,0.85 2.65,2.55C2.617,2.583 2.583,2.617 2.55,2.65C1.65,3.583 0.983,4.617 0.55,5.75C0.183,6.75 0,7.833 0,9C0,9.967 0.133,10.9 0.4,11.8C0.833,13.133 1.567,14.317 2.6,15.35C2.867,15.617 3.183,15.883 3.55,16.15C5.083,17.383 6.9,18 9,18C10.167,18 11.25,17.817 12.25,17.45C13.35,16.95 14.367,16.25 15.3,15.35C15.3,15.317 15.317,15.3 15.35,15.3C16.75,13.9 17.6,12.283 17.9,10.45C17.967,9.983 18,9.5 18,9C18,8.033 17.867,7.133 17.6,6.3C17.167,4.9 16.417,3.667 15.35,2.6M13.95,3.95C13.983,3.95 14.017,3.967 14.05,4C14.15,4.1 14.25,4.217 14.35,4.35C14.75,4.783 15.083,5.25 15.35,5.75C15.483,5.983 15.583,6.217 15.65,6.45C15.717,6.65 15.783,6.883 15.85,7.15C16.017,7.717 16.1,8.333 16.1,9L16.1,9.05C16.1,9.317 16.083,9.583 16.05,9.85C16.017,10.117 15.983,10.35 15.95,10.55C15.683,11.85 15.017,12.983 13.95,13.95C13.483,14.45 13,14.867 12.5,15.2C12.233,15.333 12,15.467 11.8,15.6C11.567,15.633 11.333,15.7 11.1,15.8C10.467,16 9.767,16.1 9,16.1C8.1,16.1 7.283,15.95 6.55,15.65C6.283,15.583 6.017,15.483 5.75,15.35C5.55,15.25 5.35,15.133 5.15,15C4.717,14.7 4.3,14.35 3.9,13.95C3.2,13.25 2.683,12.45 2.35,11.55C2.25,11.317 2.167,11.1 2.1,10.9C2.067,10.633 2.033,10.4 2,10.2C1.933,9.8 1.9,9.4 1.9,9C1.9,7.9 2.117,6.867 2.55,5.9C2.65,5.7 2.767,5.5 2.9,5.3C3,5.067 3.15,4.85 3.35,4.65C3.45,4.483 3.567,4.333 3.7,4.2L3.9,3.95C4.933,2.95 6.1,2.333 7.4,2.1C7.6,2.033 7.833,1.983 8.1,1.95C8.333,1.917 8.6,1.9 8.9,1.9L9,1.9C10.467,1.9 11.783,2.283 12.95,3.05C13.117,3.183 13.3,3.333 13.5,3.5C13.667,3.633 13.817,3.783 13.95,3.95Z" style="fill:rgb(168,109,21);fill-rule:nonzero;"/>
        <path d="M15.95,10.55C15.85,10.517 15.767,10.483 15.7,10.45C15.2,10.183 14.75,9.833 14.35,9.4C13.783,8.833 13.35,8.233 13.05,7.6C12.483,7.7 11.917,7.833 11.35,8C11.983,10.267 12.367,12.667 12.5,15.2C13,14.867 13.483,14.45 13.95,13.95C15.017,12.983 15.683,11.85 15.95,10.55M15.85,7.15L15.75,7.15C15.35,7.217 14.95,7.283 14.55,7.35C14.717,7.717 14.983,8.083 15.35,8.45C15.55,8.65 15.8,8.85 16.1,9.05L16.1,9C16.1,8.333 16.017,7.717 15.85,7.15M7.55,10.75C7.55,10.25 7.5,9.767 7.4,9.3C5.733,9.9 4.083,10.633 2.45,11.5C2.417,11.533 2.383,11.55 2.35,11.55C2.683,12.45 3.2,13.25 3.9,13.95C4.3,14.35 4.717,14.7 5.15,15C5.217,14.9 5.3,14.817 5.4,14.75C5.633,14.55 5.9,14.333 6.2,14.1L6.2,14.05C7.1,13.183 7.55,12.083 7.55,10.75M8.7,8.8C8.9,9.4 9,10.05 9,10.75C9,12.45 8.4,13.9 7.2,15.1C6.967,15.3 6.75,15.483 6.55,15.65C7.283,15.95 8.1,16.1 9,16.1C9.767,16.1 10.467,16 11.1,15.8L11.1,15.65C11,13.083 10.633,10.683 10,8.45C9.533,8.517 9.1,8.633 8.7,8.8M3.7,4.2C3.567,4.333 3.45,4.483 3.35,4.65C4.85,4.75 6.133,5.333 7.2,6.4C7.533,6.733 7.833,7.117 8.1,7.55C8.567,7.35 9.05,7.183 9.55,7.05C8.983,5.383 8.3,3.8 7.5,2.3C7.467,2.2 7.433,2.133 7.4,2.1C6.1,2.333 4.933,2.95 3.9,3.95L3.7,4.2M2.9,6C2.767,6 2.65,5.967 2.55,5.9C2.117,6.867 1.9,7.9 1.9,9C1.9,9.4 1.933,9.8 2,10.2C3.567,9.333 5.133,8.6 6.7,8C6.567,7.767 6.4,7.567 6.2,7.4C5.267,6.467 4.167,6 2.9,6M12.85,3.3C12.883,3.2 12.917,3.117 12.95,3.05C11.783,2.283 10.467,1.9 9,1.9L8.9,1.9C9.733,3.4 10.417,4.983 10.95,6.65C11.517,6.483 12.1,6.333 12.7,6.2C12.6,5.867 12.55,5.483 12.55,5.05C12.55,4.417 12.65,3.833 12.85,3.3M13.95,5.05C13.95,5.383 13.983,5.683 14.05,5.95C14.483,5.85 14.917,5.783 15.35,5.75C15.083,5.25 14.75,4.783 14.35,4.35C14.25,4.217 14.15,4.1 14.05,4C13.983,4.333 13.95,4.683 13.95,5.05Z" style="fill:rgb(255,153,0);fill-rule:nonzero;"/>
        <path d="M14.05,5.95C13.983,5.683 13.95,5.383 13.95,5.05C13.95,4.683 13.983,4.333 14.05,4C14.017,3.967 13.983,3.95 13.95,3.95C13.817,3.783 13.667,3.633 13.5,3.5C13.3,3.333 13.117,3.183 12.95,3.05C12.917,3.117 12.883,3.2 12.85,3.3C12.65,3.833 12.55,4.417 12.55,5.05C12.55,5.483 12.6,5.867 12.7,6.2C12.1,6.333 11.517,6.483 10.95,6.65C10.417,4.983 9.733,3.4 8.9,1.9C8.6,1.9 8.333,1.917 8.1,1.95C7.833,1.983 7.6,2.033 7.4,2.1C7.433,2.133 7.467,2.2 7.5,2.3C8.3,3.8 8.983,5.383 9.55,7.05C9.05,7.183 8.567,7.35 8.1,7.55C7.833,7.117 7.533,6.733 7.2,6.4C6.133,5.333 4.85,4.75 3.35,4.65C3.15,4.85 3,5.067 2.9,5.3C2.767,5.5 2.65,5.7 2.55,5.9C2.65,5.967 2.767,6 2.9,6C4.167,6 5.267,6.467 6.2,7.4C6.4,7.567 6.567,7.767 6.7,8C5.133,8.6 3.567,9.333 2,10.2C2.033,10.4 2.067,10.633 2.1,10.9C2.167,11.1 2.25,11.317 2.35,11.55C2.383,11.55 2.417,11.533 2.45,11.5C4.083,10.633 5.733,9.9 7.4,9.3C7.5,9.767 7.55,10.25 7.55,10.75C7.55,12.083 7.1,13.183 6.2,14.05L6.2,14.1C5.9,14.333 5.633,14.55 5.4,14.75C5.3,14.817 5.217,14.9 5.15,15C5.35,15.133 5.55,15.25 5.75,15.35C6.017,15.483 6.283,15.583 6.55,15.65C6.75,15.483 6.967,15.3 7.2,15.1C8.4,13.9 9,12.45 9,10.75C9,10.05 8.9,9.4 8.7,8.8C9.1,8.633 9.533,8.517 10,8.45C10.633,10.683 11,13.083 11.1,15.65L11.1,15.8C11.333,15.7 11.567,15.633 11.8,15.6C12,15.467 12.233,15.333 12.5,15.2C12.367,12.667 11.983,10.267 11.35,8C11.917,7.833 12.483,7.7 13.05,7.6C13.35,8.233 13.783,8.833 14.35,9.4C14.75,9.833 15.2,10.183 15.7,10.45C15.767,10.483 15.85,10.517 15.95,10.55C15.983,10.35 16.017,10.117 16.05,9.85C16.083,9.583 16.1,9.317 16.1,9.05C15.8,8.85 15.55,8.65 15.35,8.45C14.983,8.083 14.717,7.717 14.55,7.35C14.95,7.283 15.35,7.217 15.75,7.15L15.85,7.15C15.783,6.883 15.717,6.65 15.65,6.45C15.583,6.217 15.483,5.983 15.35,5.75C14.917,5.783 14.483,5.85 14.05,5.95Z" style="fill:rgb(198,127,21);fill-rule:nonzero;"/>
    </g>
</svg>
