<?xml version="1.0" encoding="UTF-8" standalone="no"?>
<!DOCTYPE svg PUBLIC "-//W3C//DTD SVG 1.1//EN" "http://www.w3.org/Graphics/SVG/1.1/DTD/svg11.dtd">
<svg width="32px" height="27px" version="1.1" xmlns="http://www.w3.org/2000/svg" xmlns:xlink="http://www.w3.org/1999/xlink" xml:space="preserve" xmlns:serif="http://www.serif.com/" style="fill-rule:evenodd;clip-rule:evenodd;stroke-linejoin:round;stroke-miterlimit:2;">
    <g id="Layer0_78_FILL">
        <path d="M9.4,14.4L7.25,12.25L2,17.5L4.15,19.65L9.4,14.4Z" style="fill:rgb(84,84,84);fill-rule:nonzero;"/>
        <path d="M7.25,12.25L9.4,14.4L11.25,12.55L9.1,10.4L7.25,12.25M13.1,10.7L15.95,7.9L13.85,5.8C13.817,5.767 13.8,5.733 13.8,5.7L10.9,8.55L13.1,10.7M19.65,4.15L17.45,2L15.6,3.9C15.633,3.9 15.667,3.917 15.7,3.95L17.8,6.05L18.65,5.2L19.65,4.15Z" style="fill:rgb(203,206,233);fill-rule:nonzero;"/>
        <path d="M24.6,16.45C23.723,15.647 22.99,14.697 22.4,13.6L20.3,15.7C20.89,16.797 21.623,17.747 22.5,18.55L24.6,16.45M26.95,14.6C26.86,14.522 26.76,14.439 26.65,14.35L24.6,16.45C24.7,16.533 24.8,16.616 24.9,16.7C24.933,16.733 24.967,16.767 25,16.8C25.767,17.433 26.633,17.967 27.6,18.4L29.7,16.3C28.667,15.833 27.75,15.267 26.95,14.6M20.4,20.65C20.5,20.733 20.6,20.816 20.7,20.9C20.733,20.933 20.767,20.967 20.8,21C21.567,21.633 22.433,22.167 23.4,22.6L25.5,20.5C24.533,20.067 23.667,19.533 22.9,18.9C22.867,18.867 22.833,18.833 22.8,18.8C22.7,18.716 22.6,18.633 22.5,18.55L20.4,20.65M20.4,20.65C19.523,19.847 18.79,18.897 18.2,17.8L16.1,19.9C16.683,20.991 17.417,21.941 18.3,22.75L20.4,20.65M18.95,13.1C18.824,12.911 18.69,12.727 18.55,12.55L16.45,14.65C16.59,14.827 16.724,15.011 16.85,15.2C17.217,15.767 17.55,16.367 17.85,17C17.95,17.267 18.067,17.517 18.2,17.75C18.211,17.772 18.211,17.789 18.2,17.8L20.3,15.7C20.311,15.689 20.311,15.672 20.3,15.65C20.167,15.417 20.05,15.167 19.95,14.9C19.65,14.267 19.317,13.667 18.95,13.1M15.7,3.95C15.667,3.917 15.633,3.9 15.6,3.9C15.533,3.833 15.45,3.8 15.35,3.8C15.217,3.8 15.1,3.85 15,3.95L13.85,5.05C13.75,5.15 13.7,5.267 13.7,5.4C13.7,5.533 13.733,5.633 13.8,5.7C13.8,5.733 13.817,5.767 13.85,5.8L15.95,7.9L13.1,10.7L10.9,8.55L10.85,8.5C10.75,8.4 10.633,8.35 10.5,8.35C10.367,8.35 10.25,8.4 10.15,8.5L9.05,9.6C8.95,9.7 8.9,9.817 8.9,9.95C8.9,10.117 8.95,10.25 9.05,10.35L11.25,12.55L10.25,13.55C10.417,13.65 10.583,13.733 10.75,13.8C11.203,14.026 11.636,14.276 12.05,14.55C12.415,14.814 12.765,15.097 13.1,15.4C13.562,15.813 13.979,16.263 14.35,16.75L16.45,14.65C16.079,14.163 15.662,13.713 15.2,13.3C14.865,12.997 14.515,12.714 14.15,12.45L16.25,10.35C16.615,10.614 16.965,10.897 17.3,11.2C17.762,11.613 18.179,12.063 18.55,12.55L20.65,10.45C20.279,9.963 19.862,9.513 19.4,9.1C19.065,8.797 18.715,8.514 18.35,8.25L20.4,6.15C20.008,5.888 19.591,5.638 19.15,5.4C18.983,5.333 18.817,5.267 18.65,5.2L17.8,6.05L15.7,3.95M24.15,10.7C23.85,10.067 23.517,9.467 23.15,8.9C23.018,8.715 22.884,8.531 22.75,8.35L20.65,10.45C20.79,10.627 20.924,10.811 21.05,11C21.417,11.567 21.75,12.167 22.05,12.8C22.15,13.067 22.267,13.317 22.4,13.55C22.411,13.572 22.411,13.589 22.4,13.6L24.5,11.5C24.511,11.489 24.511,11.472 24.5,11.45C24.367,11.217 24.25,10.967 24.15,10.7Z" style="fill:rgb(204,255,51);fill-rule:nonzero;"/>
        <path d="M25,16.8C24.967,16.767 24.933,16.733 24.9,16.7C24.8,16.616 24.7,16.533 24.6,16.45L22.5,18.55C22.6,18.633 22.7,18.716 22.8,18.8C22.833,18.833 22.867,18.867 22.9,18.9C23.667,19.533 24.533,20.067 25.5,20.5L27.6,18.4C26.633,17.967 25.767,17.433 25,16.8M24.5,11.5L22.4,13.6C22.99,14.697 23.723,15.647 24.6,16.45L26.65,14.35C25.81,13.555 25.094,12.605 24.5,11.5M20.4,20.65L18.3,22.75C18.4,22.833 18.5,22.916 18.6,23C18.633,23.033 18.667,23.067 18.7,23.1C19.467,23.733 20.333,24.267 21.3,24.7L23.4,22.6C22.433,22.167 21.567,21.633 20.8,21C20.767,20.967 20.733,20.933 20.7,20.9C20.6,20.816 20.5,20.733 20.4,20.65M18.2,17.8C18.79,18.897 19.523,19.847 20.4,20.65L22.5,18.55C21.623,17.747 20.89,16.797 20.3,15.7L18.2,17.8M14.35,16.75C14.49,16.927 14.624,17.111 14.75,17.3C15.117,17.867 15.45,18.467 15.75,19.1C15.85,19.367 15.967,19.617 16.1,19.85L16.1,19.9L18.2,17.8C18.211,17.789 18.211,17.772 18.2,17.75C18.067,17.517 17.95,17.267 17.85,17C17.55,16.367 17.217,15.767 16.85,15.2C16.724,15.011 16.59,14.827 16.45,14.65L14.35,16.75M18.55,12.55C18.179,12.063 17.762,11.613 17.3,11.2C16.965,10.897 16.615,10.614 16.25,10.35L14.15,12.45C14.515,12.714 14.865,12.997 15.2,13.3C15.662,13.713 16.079,14.163 16.45,14.65L18.55,12.55M21.05,11C20.924,10.811 20.79,10.627 20.65,10.45L18.55,12.55C18.69,12.727 18.824,12.911 18.95,13.1C19.317,13.667 19.65,14.267 19.95,14.9C20.05,15.167 20.167,15.417 20.3,15.65C20.311,15.672 20.311,15.689 20.3,15.7L22.4,13.6C22.411,13.589 22.411,13.572 22.4,13.55C22.267,13.317 22.15,13.067 22.05,12.8C21.75,12.167 21.417,11.567 21.05,11M21.5,7C21.156,6.705 20.79,6.422 20.4,6.15L18.35,8.25C18.715,8.514 19.065,8.797 19.4,9.1C19.862,9.513 20.279,9.963 20.65,10.45L22.75,8.35C22.358,7.867 21.941,7.417 21.5,7Z" style="fill:rgb(232,106,23);fill-rule:nonzero;"/>
        <path d="M18.85,0.6C18.45,0.2 17.983,0 17.45,0C16.883,0 16.417,0.2 16.05,0.6L0.6,16.1C0.2,16.5 0,16.967 0,17.5C0,18.067 0.2,18.55 0.6,18.95L2.75,21.1C3.117,21.467 3.583,21.65 4.15,21.65C4.717,21.65 5.2,21.467 5.6,21.1L10.65,16.05L9.4,14.4L4.15,19.65L2,17.5L9.1,10.4L9.05,10.35C8.95,10.25 8.9,10.117 8.9,9.95C8.9,9.817 8.95,9.7 9.05,9.6L10.15,8.5C10.25,8.4 10.367,8.35 10.5,8.35C10.633,8.35 10.75,8.4 10.85,8.5L10.9,8.55L13.8,5.7C13.733,5.633 13.7,5.533 13.7,5.4C13.7,5.267 13.75,5.15 13.85,5.05L15,3.95C15.1,3.85 15.217,3.8 15.35,3.8C15.45,3.8 15.533,3.833 15.6,3.9L17.45,2L19.65,4.15L21.6,4.6C21.633,4.433 21.65,4.283 21.65,4.15C21.65,3.583 21.45,3.117 21.05,2.75L18.85,0.6Z" style="fill:rgb(153,153,153);fill-rule:nonzero;"/>
        <path d="M24.85,7.85C24.817,7.817 24.8,7.783 24.8,7.75C24.2,6.95 23.567,6.217 22.9,5.55C22.867,5.517 22.833,5.5 22.8,5.5C22.433,5.167 22.033,4.867 21.6,4.6L19.65,4.15L18.65,5.2C18.817,5.267 18.983,5.333 19.15,5.4C19.591,5.638 20.008,5.888 20.4,6.15C20.79,6.422 21.156,6.705 21.5,7C21.941,7.417 22.358,7.867 22.75,8.35C22.884,8.531 23.018,8.715 23.15,8.9C23.517,9.467 23.85,10.067 24.15,10.7C24.25,10.967 24.367,11.217 24.5,11.45C24.511,11.472 24.511,11.489 24.5,11.5C25.094,12.605 25.81,13.555 26.65,14.35C26.76,14.439 26.86,14.522 26.95,14.6C27.75,15.267 28.667,15.833 29.7,16.3L21.3,24.7C20.333,24.267 19.467,23.733 18.7,23.1C18.667,23.067 18.633,23.033 18.6,23C18.5,22.916 18.4,22.833 18.3,22.75C17.417,21.941 16.683,20.991 16.1,19.9L16.1,19.85C15.967,19.617 15.85,19.367 15.75,19.1C15.45,18.467 15.117,17.867 14.75,17.3C14.624,17.111 14.49,16.927 14.35,16.75C13.979,16.263 13.562,15.813 13.1,15.4C12.765,15.097 12.415,14.814 12.05,14.55C11.636,14.276 11.203,14.026 10.75,13.8C10.583,13.733 10.417,13.65 10.25,13.55L9.4,14.4L10.65,16.05C11.017,16.283 11.383,16.567 11.75,16.9L11.8,16.9C12.3,17.333 12.733,17.833 13.1,18.4C13.367,18.833 13.633,19.3 13.9,19.8C14,20.133 14.15,20.467 14.35,20.8C15.083,22.267 16.083,23.517 17.35,24.55L17.2,24.45C17.233,24.483 17.267,24.517 17.3,24.55C17.333,24.583 17.383,24.617 17.45,24.65C18.317,25.383 19.333,26.017 20.5,26.55C20.867,26.717 21.25,26.767 21.65,26.7C22.05,26.6 22.417,26.417 22.75,26.15L31.15,17.75C31.45,17.417 31.633,17.033 31.7,16.6C31.733,16.167 31.65,15.75 31.45,15.35C31.25,14.95 30.95,14.667 30.55,14.5C29.683,14.1 28.917,13.633 28.25,13.1C27.45,12.367 26.8,11.517 26.3,10.55C26.267,10.517 26.25,10.483 26.25,10.45C26.15,10.317 26.083,10.167 26.05,10C26.017,9.967 25.983,9.917 25.95,9.85C25.617,9.15 25.25,8.483 24.85,7.85Z" style="fill:rgb(132,166,31);fill-rule:nonzero;"/>
    </g>
</svg>
