<?xml version="1.0" encoding="UTF-8" standalone="no"?>
<!DOCTYPE svg PUBLIC "-//W3C//DTD SVG 1.1//EN" "http://www.w3.org/Graphics/SVG/1.1/DTD/svg11.dtd">
<svg width="32px" height="27px" version="1.1" xmlns="http://www.w3.org/2000/svg" xmlns:xlink="http://www.w3.org/1999/xlink" xml:space="preserve" xmlns:serif="http://www.serif.com/" style="fill-rule:evenodd;clip-rule:evenodd;stroke-linejoin:round;stroke-miterlimit:2;">
    <g id="Layer0_79_FILL">
        <path d="M9.4,14.4L7.25,12.25L2,17.5L4.15,19.65L9.4,14.4Z" style="fill:rgb(84,84,84);fill-rule:nonzero;"/>
        <path d="M10.25,13.55L11.25,12.55L9.1,10.4L7.25,12.25L9.4,14.4L10.25,13.55M13.1,10.7L15.95,7.9L13.85,5.8C13.817,5.767 13.8,5.733 13.8,5.7L10.9,8.55L13.1,10.7M17.45,2L15.6,3.9C15.633,3.9 15.667,3.917 15.7,3.95L17.8,6.05L18.65,5.2L19.65,4.15L17.45,2Z" style="fill:rgb(203,206,233);fill-rule:nonzero;"/>
        <path d="M21.6,4.6C21.633,4.433 21.65,4.283 21.65,4.15C21.65,3.583 21.45,3.117 21.05,2.75L18.85,0.6C18.45,0.2 17.983,0 17.45,0C16.883,0 16.417,0.2 16.05,0.6L0.6,16.1C0.2,16.5 0,16.967 0,17.5C0,18.067 0.2,18.55 0.6,18.95L2.75,21.1C3.117,21.467 3.583,21.65 4.15,21.65C4.717,21.65 5.2,21.467 5.6,21.1L10.65,16.05L9.4,14.4L4.15,19.65L2,17.5L9.1,10.4L9.05,10.35C8.95,10.25 8.9,10.117 8.9,9.95C8.9,9.817 8.95,9.7 9.05,9.6L10.15,8.5C10.25,8.4 10.367,8.35 10.5,8.35C10.633,8.35 10.75,8.4 10.85,8.5L10.9,8.55L13.8,5.7C13.733,5.633 13.7,5.533 13.7,5.4C13.7,5.267 13.75,5.15 13.85,5.05L15,3.95C15.1,3.85 15.217,3.8 15.35,3.8C15.45,3.8 15.533,3.833 15.6,3.9L17.45,2L19.65,4.15L21.6,4.6Z" style="fill:rgb(153,153,153);fill-rule:nonzero;"/>
        <path d="M23.15,8.9C23.517,9.467 23.85,10.067 24.15,10.7C24.25,10.967 24.367,11.217 24.5,11.45C25.133,12.683 25.95,13.733 26.95,14.6C27.75,15.267 28.667,15.833 29.7,16.3L21.3,24.7C20.333,24.267 19.467,23.733 18.7,23.1C18.667,23.067 18.633,23.033 18.6,23C17.567,22.133 16.733,21.083 16.1,19.85C15.967,19.617 15.85,19.367 15.75,19.1C15.45,18.467 15.117,17.867 14.75,17.3C14.283,16.6 13.733,15.967 13.1,15.4C12.4,14.767 11.617,14.233 10.75,13.8C10.583,13.733 10.417,13.65 10.25,13.55L9.4,14.4L10.65,16.05C11.017,16.283 11.383,16.567 11.75,16.9L11.8,16.9C12.3,17.333 12.733,17.833 13.1,18.4C13.367,18.833 13.633,19.3 13.9,19.8C14,20.133 14.15,20.467 14.35,20.8C15.083,22.267 16.083,23.517 17.35,24.55L17.2,24.45C17.233,24.483 17.267,24.517 17.3,24.55C17.333,24.583 17.383,24.617 17.45,24.65C18.317,25.383 19.333,26.017 20.5,26.55C20.867,26.717 21.25,26.767 21.65,26.7C22.05,26.6 22.417,26.417 22.75,26.15L31.15,17.75C31.45,17.417 31.633,17.033 31.7,16.6C31.733,16.167 31.65,15.75 31.45,15.35C31.25,14.95 30.95,14.667 30.55,14.5C29.683,14.1 28.917,13.633 28.25,13.1C27.45,12.367 26.8,11.517 26.3,10.55C26.267,10.517 26.25,10.483 26.25,10.45C26.15,10.317 26.083,10.167 26.05,10C26.017,9.967 25.983,9.917 25.95,9.85C25.617,9.15 25.25,8.483 24.85,7.85C24.817,7.817 24.8,7.783 24.8,7.75C24.2,6.95 23.567,6.217 22.9,5.55C22.867,5.517 22.833,5.5 22.8,5.5C22.433,5.167 22.033,4.867 21.6,4.6L19.65,4.15L18.65,5.2C18.817,5.267 18.983,5.333 19.15,5.4C20.017,5.867 20.8,6.4 21.5,7C22.1,7.567 22.65,8.2 23.15,8.9Z" style="fill:rgb(79,79,79);fill-rule:nonzero;"/>
        <path d="M24.15,10.7C23.85,10.067 23.517,9.467 23.15,8.9C22.65,8.2 22.1,7.567 21.5,7C20.8,6.4 20.017,5.867 19.15,5.4C18.983,5.333 18.817,5.267 18.65,5.2L17.8,6.05L15.7,3.95C15.667,3.917 15.633,3.9 15.6,3.9C15.533,3.833 15.45,3.8 15.35,3.8C15.217,3.8 15.1,3.85 15,3.95L13.85,5.05C13.75,5.15 13.7,5.267 13.7,5.4C13.7,5.533 13.733,5.633 13.8,5.7C13.8,5.733 13.817,5.767 13.85,5.8L15.95,7.9L13.1,10.7L10.9,8.55L10.85,8.5C10.75,8.4 10.633,8.35 10.5,8.35C10.367,8.35 10.25,8.4 10.15,8.5L9.05,9.6C8.95,9.7 8.9,9.817 8.9,9.95C8.9,10.117 8.95,10.25 9.05,10.35L11.25,12.55L10.25,13.55C10.417,13.65 10.583,13.733 10.75,13.8C11.617,14.233 12.4,14.767 13.1,15.4C13.733,15.967 14.283,16.6 14.75,17.3C15.117,17.867 15.45,18.467 15.75,19.1C15.85,19.367 15.967,19.617 16.1,19.85C16.733,21.083 17.567,22.133 18.6,23C18.633,23.033 18.667,23.067 18.7,23.1C19.467,23.733 20.333,24.267 21.3,24.7L29.7,16.3C28.667,15.833 27.75,15.267 26.95,14.6C25.95,13.733 25.133,12.683 24.5,11.45C24.367,11.217 24.25,10.967 24.15,10.7Z" style="fill:rgb(105,105,105);fill-rule:nonzero;"/>
    </g>
</svg>
