<?xml version="1.0" encoding="UTF-8" standalone="no"?>
<!DOCTYPE svg PUBLIC "-//W3C//DTD SVG 1.1//EN" "http://www.w3.org/Graphics/SVG/1.1/DTD/svg11.dtd">
<svg width="14px" height="16px" version="1.1" xmlns="http://www.w3.org/2000/svg" xmlns:xlink="http://www.w3.org/1999/xlink" xml:space="preserve" xmlns:serif="http://www.serif.com/" style="fill-rule:evenodd;clip-rule:evenodd;stroke-linejoin:round;stroke-miterlimit:2;">
    <g id="Layer0_9_FILL">
        <path d="M1.783,0.948C1.716,0.981 1.666,1.048 1.633,1.148C0.299,2.248 -0.217,3.948 0.083,6.248C0.149,6.915 0.266,7.565 0.433,8.198C0.566,8.565 0.733,8.981 0.933,9.448C1.333,10.248 1.849,11.031 2.483,11.798C3.249,12.898 4.099,13.781 5.033,14.448C5.499,14.748 5.949,15.015 6.383,15.248C6.649,15.348 6.949,15.448 7.283,15.548C9.249,16.281 10.899,16.115 12.233,15.048C12.299,14.981 12.383,14.915 12.483,14.848C13.683,13.715 14.166,12.048 13.933,9.848L13.933,9.798C13.733,7.798 12.966,5.915 11.633,4.148C11.599,4.148 11.583,4.131 11.583,4.098C10.316,2.465 8.899,1.331 7.333,0.698C7.199,0.598 7.016,0.515 6.783,0.448C4.749,-0.285 3.083,-0.119 1.783,0.948M1.983,5.998C1.816,4.498 2.116,3.348 2.883,2.548C3.616,1.981 4.616,1.898 5.883,2.298C6.016,2.331 6.116,2.365 6.183,2.398C6.649,2.531 7.116,2.765 7.583,3.098C8.483,3.598 9.333,4.348 10.133,5.348C10.633,6.015 11.016,6.698 11.283,7.398C11.516,7.931 11.699,8.465 11.833,8.998C11.933,9.365 12.016,9.715 12.083,10.048C12.216,11.515 11.916,12.648 11.183,13.448C10.283,14.048 9.183,14.115 7.883,13.648L7.833,13.648C7.333,13.481 6.833,13.248 6.333,12.948C5.499,12.415 4.699,11.631 3.933,10.598C3.266,9.765 2.766,8.898 2.433,7.998C2.233,7.498 2.099,6.981 2.033,6.448C2.033,6.315 2.016,6.165 1.983,5.998Z" style="fill:rgb(116,62,26);fill-rule:nonzero;"/>
        <path d="M11.833,8.998C11.699,8.465 11.516,7.931 11.283,7.398L6.333,12.948C6.833,13.248 7.333,13.481 7.833,13.648L11.833,8.998M6.183,2.398C6.116,2.365 6.016,2.331 5.883,2.298L2.033,6.448C2.099,6.981 2.233,7.498 2.433,7.998L7.583,3.098C7.116,2.765 6.649,2.531 6.183,2.398Z" style="fill:white;fill-rule:nonzero;"/>
        <path d="M12.083,10.048C12.016,9.715 11.933,9.365 11.833,8.998L7.833,13.648L7.883,13.648C9.183,14.115 10.283,14.048 11.183,13.448C11.916,12.648 12.216,11.515 12.083,10.048M2.433,7.998C2.766,8.898 3.266,9.765 3.933,10.598C4.699,11.631 5.499,12.415 6.333,12.948L11.283,7.398C11.016,6.698 10.633,6.015 10.133,5.348C9.333,4.348 8.483,3.598 7.583,3.098L2.433,7.998M2.883,2.548C2.116,3.348 1.816,4.498 1.983,5.998C2.016,6.165 2.033,6.315 2.033,6.448L5.883,2.298C4.616,1.898 3.616,1.981 2.883,2.548Z" style="fill:rgb(175,96,42);fill-rule:nonzero;"/>
    </g>
</svg>
