<?xml version="1.0" encoding="UTF-8" standalone="no"?>
<!DOCTYPE svg PUBLIC "-//W3C//DTD SVG 1.1//EN" "http://www.w3.org/Graphics/SVG/1.1/DTD/svg11.dtd">
<svg width="19px" height="19px" version="1.1" xmlns="http://www.w3.org/2000/svg" xmlns:xlink="http://www.w3.org/1999/xlink" xml:space="preserve" xmlns:serif="http://www.serif.com/" style="fill-rule:evenodd;clip-rule:evenodd;stroke-linejoin:round;stroke-miterlimit:2;">
    <g id="Layer0_54_FILL">
        <path d="M9.1,0C6.633,0.067 4.533,0.983 2.8,2.75C0.933,4.583 0,6.833 0,9.5C0,12.133 0.917,14.367 2.75,16.2L2.8,16.25C4.533,18.05 6.65,18.967 9.15,19L11.15,19C12.25,19 13.283,18.867 14.25,18.6C14.55,18.5 14.817,18.35 15.05,18.15C15.517,17.717 15.967,17.25 16.4,16.75C18.133,14.717 19,12.25 19,9.35C19,6.45 18.133,3.983 16.4,1.95C16.167,1.65 15.917,1.4 15.65,1.2C15.55,1.1 15.45,1.033 15.35,1C14.083,0.333 12.683,0 11.15,0L9.1,0M11.15,2C12.35,2 13.433,2.25 14.4,2.75C14.567,2.883 14.717,3.05 14.85,3.25C16.283,4.917 17,6.95 17,9.35C17,11.75 16.283,13.783 14.85,15.45C14.483,15.883 14.1,16.283 13.7,16.65C12.9,16.883 12.05,17 11.15,17L9.15,17C7.217,16.967 5.567,16.233 4.2,14.8C2.733,13.367 2,11.6 2,9.5C2,7.4 2.733,5.617 4.2,4.15C5.567,2.783 7.217,2.067 9.15,2L11.15,2Z" style="fill:rgb(182,182,182);fill-rule:nonzero;"/>
        <path d="M14.4,2.75C13.433,2.25 12.35,2 11.15,2L9.15,2C7.217,2.067 5.567,2.783 4.2,4.15C2.733,5.617 2,7.4 2,9.5C2,11.6 2.733,13.367 4.2,14.8C5.567,16.233 7.217,16.967 9.15,17L11.15,17C12.05,17 12.9,16.883 13.7,16.65C14.1,16.283 14.483,15.883 14.85,15.45C16.283,13.783 17,11.75 17,9.35C17,6.95 16.283,4.917 14.85,3.25C14.717,3.05 14.567,2.883 14.4,2.75Z" style="fill:white;fill-rule:nonzero;"/>
    </g>
</svg>
