<?xml version="1.0" encoding="UTF-8" standalone="no"?>
<!DOCTYPE svg PUBLIC "-//W3C//DTD SVG 1.1//EN" "http://www.w3.org/Graphics/SVG/1.1/DTD/svg11.dtd">
<svg width="21px" height="19px" version="1.1" xmlns="http://www.w3.org/2000/svg" xmlns:xlink="http://www.w3.org/1999/xlink" xml:space="preserve" xmlns:serif="http://www.serif.com/" style="fill-rule:evenodd;clip-rule:evenodd;stroke-linejoin:round;stroke-miterlimit:2;">
    <g id="Layer0_55_FILL">
        <path d="M17.1,6.1C16.833,5.833 16.55,5.6 16.25,5.4C16.65,6.367 16.9,7.433 17,8.6L17,9.35C17,10.65 16.8,11.833 16.4,12.9C16.3,13.167 16.183,13.417 16.05,13.65C16.417,13.45 16.75,13.2 17.05,12.9L17.1,12.85C18.033,11.917 18.5,10.8 18.5,9.5C18.5,8.167 18.033,7.033 17.1,6.1M9.15,2L11.15,2C12.35,2 13.433,2.25 14.4,2.75C14.433,2.75 14.45,2.767 14.45,2.8L14.6,2.8C15.8,2.933 16.883,3.383 17.85,4.15C17.617,3.65 17.35,3.183 17.05,2.75C16.85,2.483 16.633,2.217 16.4,1.95C16.167,1.65 15.917,1.4 15.65,1.2C15.55,1.1 15.45,1.033 15.35,1C14.083,0.333 12.683,0 11.15,0L9.1,0C6.633,0.067 4.533,0.983 2.8,2.75C0.933,4.583 0,6.833 0,9.5C0,12.133 0.917,14.367 2.75,16.2L2.8,16.25C4.533,18.05 6.65,18.967 9.15,19L11.15,19C12.25,19 13.283,18.867 14.25,18.6C14.55,18.5 14.817,18.35 15.05,18.15C15.517,17.717 15.967,17.25 16.4,16.75C16.867,16.217 17.267,15.65 17.6,15.05C16.733,15.683 15.75,16.067 14.65,16.2C14.483,16.233 14.333,16.233 14.2,16.2C14.033,16.333 13.867,16.483 13.7,16.65C12.9,16.883 12.05,17 11.15,17L9.15,17C7.217,16.967 5.567,16.233 4.2,14.8C2.733,13.367 2,11.6 2,9.5C2,7.4 2.733,5.617 4.2,4.15C4.667,3.683 5.167,3.3 5.7,3C5.833,2.9 5.967,2.817 6.1,2.75C7.033,2.283 8.05,2.033 9.15,2Z" style="fill:rgb(182,182,182);fill-rule:nonzero;"/>
        <path d="M14.6,2.8L14.45,2.8C14.583,2.933 14.717,3.083 14.85,3.25C15.417,3.917 15.883,4.633 16.25,5.4C16.55,5.6 16.833,5.833 17.1,6.1C18.033,7.033 18.5,8.167 18.5,9.5C18.5,10.8 18.033,11.917 17.1,12.85L17.05,12.9C16.75,13.2 16.417,13.45 16.05,13.65C15.717,14.283 15.317,14.883 14.85,15.45C14.65,15.717 14.433,15.967 14.2,16.2C14.333,16.233 14.483,16.233 14.65,16.2C15.75,16.067 16.733,15.683 17.6,15.05C17.9,14.817 18.2,14.55 18.5,14.25C19.833,12.917 20.5,11.333 20.5,9.5C20.5,7.633 19.833,6.033 18.5,4.7C18.3,4.5 18.083,4.317 17.85,4.15C16.883,3.383 15.8,2.933 14.6,2.8Z" style="fill:rgb(20,59,116);fill-rule:nonzero;"/>
        <path d="M11.15,2L9.15,2C8.05,2.033 7.033,2.283 6.1,2.75C5.967,2.817 5.833,2.9 5.7,3C5.167,3.3 4.667,3.683 4.2,4.15C2.733,5.617 2,7.4 2,9.5C2,11.6 2.733,13.367 4.2,14.8C5.567,16.233 7.217,16.967 9.15,17L11.15,17C12.05,17 12.9,16.883 13.7,16.65C13.867,16.483 14.033,16.333 14.2,16.2C14.433,15.967 14.65,15.717 14.85,15.45C15.317,14.883 15.717,14.283 16.05,13.65C16.183,13.417 16.3,13.167 16.4,12.9C16.8,11.833 17,10.65 17,9.35L17,8.6C16.9,7.433 16.65,6.367 16.25,5.4C15.883,4.633 15.417,3.917 14.85,3.25C14.717,3.083 14.583,2.933 14.45,2.8C14.45,2.767 14.433,2.75 14.4,2.75C13.433,2.25 12.35,2 11.15,2Z" style="fill:white;fill-rule:nonzero;"/>
    </g>
</svg>
