<?xml version="1.0" encoding="UTF-8" standalone="no"?>
<!DOCTYPE svg PUBLIC "-//W3C//DTD SVG 1.1//EN" "http://www.w3.org/Graphics/SVG/1.1/DTD/svg11.dtd">
<svg width="26px" height="22px" version="1.1" xmlns="http://www.w3.org/2000/svg" xmlns:xlink="http://www.w3.org/1999/xlink" xml:space="preserve" xmlns:serif="http://www.serif.com/" style="fill-rule:evenodd;clip-rule:evenodd;stroke-linejoin:round;stroke-miterlimit:2;">
    <g id="Layer0_10_FILL">
        <path d="M17.4,2.75C17.767,2.983 18.133,3.267 18.5,3.6C19.367,3.967 20.167,4.517 20.9,5.25C22.433,6.783 23.2,8.633 23.2,10.8C23.2,12.967 22.433,14.8 20.9,16.3C19.967,17.267 18.883,17.95 17.65,18.35C17.317,18.55 17,18.733 16.7,18.9L17.1,20.55C17.167,20.517 17.233,20.483 17.3,20.45C19.233,20.083 20.9,19.183 22.3,17.75L22.35,17.7C24.25,15.8 25.2,13.5 25.2,10.8C25.2,8.067 24.25,5.75 22.35,3.85C21.083,2.583 19.617,1.733 17.95,1.3L17.4,2.75Z" style="fill:rgb(20,59,116);fill-rule:nonzero;"/>
        <path d="M12.7,0L10.3,0C7.533,0.067 5.15,1.1 3.15,3.1C1.05,5.167 0,7.7 0,10.7C0,13.7 1.05,16.233 3.15,18.3C5.15,20.3 7.533,21.333 10.3,21.4L12.7,21.4C14.3,21.4 15.767,21.117 17.1,20.55L16.7,18.9C17,18.733 17.317,18.55 17.65,18.35C18.15,17.95 18.633,17.483 19.1,16.95C20.2,15.717 20.9,14.283 21.2,12.65L21.35,11.95C21.383,11.55 21.4,11.133 21.4,10.7L21.4,10.6C21.4,10.3 21.383,10.017 21.35,9.75C21.183,7.65 20.433,5.817 19.1,4.25C18.9,4.017 18.7,3.8 18.5,3.6C18.133,3.267 17.767,2.983 17.4,2.75L17.95,1.3C16.383,0.433 14.633,0 12.7,0M16.55,2.85C16.717,3.017 16.883,3.2 17.05,3.4C18.75,5.333 19.6,7.7 19.6,10.5C19.6,13.3 18.75,15.667 17.05,17.6C16.617,18.1 16.167,18.55 15.7,18.95C14.767,19.25 13.767,19.4 12.7,19.4L10.35,19.4C8.117,19.333 6.183,18.483 4.55,16.85C2.85,15.183 2,13.133 2,10.7C2,8.267 2.85,6.2 4.55,4.5C6.183,2.9 8.117,2.067 10.35,2L12.7,2C14.1,2 15.383,2.283 16.55,2.85Z" style="fill:rgb(182,182,182);fill-rule:nonzero;"/>
        <path d="M17.05,3.4C16.883,3.2 16.717,3.017 16.55,2.85C15.383,2.283 14.1,2 12.7,2L10.35,2C8.117,2.067 6.183,2.9 4.55,4.5C2.85,6.2 2,8.267 2,10.7C2,13.133 2.85,15.183 4.55,16.85C6.183,18.483 8.117,19.333 10.35,19.4L12.7,19.4C13.767,19.4 14.767,19.25 15.7,18.95C16.167,18.55 16.617,18.1 17.05,17.6C18.75,15.667 19.6,13.3 19.6,10.5C19.6,7.7 18.75,5.333 17.05,3.4Z" style="fill:white;fill-rule:nonzero;"/>
    </g>
</svg>
