<?xml version="1.0" encoding="UTF-8" standalone="no"?>
<!DOCTYPE svg PUBLIC "-//W3C//DTD SVG 1.1//EN" "http://www.w3.org/Graphics/SVG/1.1/DTD/svg11.dtd">
<svg width="21px" height="31px" version="1.1" xmlns="http://www.w3.org/2000/svg" xmlns:xlink="http://www.w3.org/1999/xlink" xml:space="preserve" xmlns:serif="http://www.serif.com/" style="fill-rule:evenodd;clip-rule:evenodd;stroke-linejoin:round;stroke-miterlimit:2;">
    <g id="Layer0_70_FILL">
        <path d="M18.75,21.1C18.75,21 18.767,20.917 18.8,20.85L16.75,20.85L16.75,22.95C16.75,24.55 16.183,25.917 15.05,27.05C14.45,27.65 13.767,28.083 13,28.35C12.367,28.583 11.683,28.7 10.95,28.7C9.35,28.7 7.983,28.15 6.85,27.05C5.717,25.917 5.15,24.55 5.15,22.95L5.15,22.15L3.15,23.05C3.183,25.15 3.95,26.967 5.45,28.5C6.983,29.967 8.817,30.7 10.95,30.7C11.683,30.7 12.367,30.617 13,30.45C14.267,30.117 15.417,29.467 16.45,28.5L16.5,28.5C18,26.967 18.75,25.117 18.75,22.95L18.75,21.1M3.15,7.7L3.1,7.75L5.15,8.6L5.15,7.75C5.15,6.15 5.717,4.783 6.85,3.65C7.983,2.55 9.35,2 10.95,2C11.683,2 12.367,2.117 13,2.35C13.767,2.617 14.45,3.05 15.05,3.65C16.183,4.783 16.75,6.15 16.75,7.75L16.75,9.85L18.8,9.85C18.767,9.783 18.75,9.717 18.75,9.65L18.75,7.75C18.75,5.583 18,3.75 16.5,2.25L16.45,2.25C15.417,1.25 14.267,0.583 13,0.25C12.367,0.083 11.683,0 10.95,0C8.817,0 6.983,0.75 5.45,2.25C3.917,3.75 3.15,5.567 3.15,7.7Z" style="fill:rgb(161,201,39);fill-rule:nonzero;"/>
        <path d="M13,23.3C12.867,23.333 12.733,23.367 12.6,23.4C12.233,23.8 11.517,24 10.45,24C8.417,24 6.65,23.383 5.15,22.15L5.15,22.95C5.15,24.55 5.717,25.917 6.85,27.05C7.983,28.15 9.35,28.7 10.95,28.7C11.683,28.7 12.367,28.583 13,28.35C13.767,28.083 14.45,27.65 15.05,27.05C16.183,25.917 16.75,24.55 16.75,22.95L16.75,20.85C16.583,21.017 16.433,21.183 16.3,21.35C15.333,22.317 14.233,22.967 13,23.3M6.85,3.65C5.717,4.783 5.15,6.15 5.15,7.75L5.15,8.6C6.65,7.367 8.417,6.75 10.45,6.75C11.483,6.75 12.183,6.933 12.55,7.3C12.717,7.333 12.867,7.367 13,7.4C14.233,7.733 15.333,8.383 16.3,9.35C16.433,9.517 16.583,9.683 16.75,9.85L16.75,7.75C16.75,6.15 16.183,4.783 15.05,3.65C14.45,3.05 13.767,2.617 13,2.35C12.367,2.117 11.683,2 10.95,2C9.35,2 7.983,2.55 6.85,3.65Z" style="fill:rgb(204,255,51);fill-rule:nonzero;"/>
        <path d="M19.35,11.25C19.05,10.817 18.867,10.35 18.8,9.85L16.75,9.85C16.85,10.783 17.167,11.633 17.7,12.4C18.2,13.133 18.467,14.117 18.5,15.35C18.467,16.583 18.2,17.567 17.7,18.3C17.167,19.067 16.85,19.917 16.75,20.85L18.8,20.85C18.867,20.35 19.05,19.883 19.35,19.45C20.083,18.45 20.467,17.1 20.5,15.4L20.5,15.3C20.467,13.6 20.083,12.267 19.35,11.3L19.35,11.25Z" style="fill:rgb(196,162,111);fill-rule:nonzero;"/>
        <path d="M12,10.1C12.333,10.133 12.667,10.2 13,10.3C13.767,10.533 14.467,10.967 15.1,11.6C16.167,12.667 16.7,13.917 16.7,15.35C16.7,16.817 16.167,18.083 15.1,19.15C14.467,19.783 13.767,20.233 13,20.5C12.7,20.6 12.383,20.667 12.05,20.7C12.083,20.8 12.15,20.917 12.25,21.05C12.883,22.117 13,22.9 12.6,23.4C12.733,23.367 12.867,23.333 13,23.3C14.233,22.967 15.333,22.317 16.3,21.35C16.433,21.183 16.583,21.017 16.75,20.85C16.85,19.917 17.167,19.067 17.7,18.3C18.2,17.567 18.467,16.583 18.5,15.35C18.467,14.117 18.2,13.133 17.7,12.4C17.167,11.633 16.85,10.783 16.75,9.85C16.583,9.683 16.433,9.517 16.3,9.35C15.333,8.383 14.233,7.733 13,7.4C12.867,7.367 12.717,7.333 12.55,7.3C13.017,7.767 12.917,8.567 12.25,9.7C12.15,9.833 12.067,9.967 12,10.1Z" style="fill:rgb(255,224,177);fill-rule:nonzero;"/>
        <path d="M4.5,9.2C4.7,9 4.917,8.8 5.15,8.6L3.1,7.75L3.1,7.8C1.833,9.033 0.967,10.45 0.5,12.05C0.167,13.017 0,14.067 0,15.2L0,15.55C0,16.717 0.167,17.8 0.5,18.8C0.967,20.333 1.833,21.733 3.1,23L3.15,23.05L5.15,22.15C4.917,21.95 4.7,21.75 4.5,21.55C3.5,20.55 2.8,19.433 2.4,18.2C2.133,17.367 2,16.483 2,15.55L2,15.2C2,14.3 2.133,13.45 2.4,12.65C2.8,11.383 3.5,10.233 4.5,9.2Z" style="fill:rgb(128,56,36);fill-rule:nonzero;"/>
        <path d="M10.45,6.75C8.417,6.75 6.65,7.367 5.15,8.6C4.917,8.8 4.7,9 4.5,9.2C3.5,10.233 2.8,11.383 2.4,12.65C2.133,13.45 2,14.3 2,15.2L2,15.55C2,16.483 2.133,17.367 2.4,18.2C2.8,19.433 3.5,20.55 4.5,21.55C4.7,21.75 4.917,21.95 5.15,22.15C6.65,23.383 8.417,24 10.45,24C11.517,24 12.233,23.8 12.6,23.4C13,22.9 12.883,22.117 12.25,21.05C12.15,20.917 12.083,20.8 12.05,20.7C12.383,20.667 12.7,20.6 13,20.5C13.767,20.233 14.467,19.783 15.1,19.15C16.167,18.083 16.7,16.817 16.7,15.35C16.7,13.917 16.167,12.667 15.1,11.6C14.467,10.967 13.767,10.533 13,10.3C12.667,10.2 12.333,10.133 12,10.1C12.067,9.967 12.15,9.833 12.25,9.7C12.917,8.567 13.017,7.767 12.55,7.3C12.183,6.933 11.483,6.75 10.45,6.75Z" style="fill:rgb(187,94,68);fill-rule:nonzero;"/>
    </g>
</svg>
