<?xml version="1.0" encoding="UTF-8" standalone="no"?>
<!DOCTYPE svg PUBLIC "-//W3C//DTD SVG 1.1//EN" "http://www.w3.org/Graphics/SVG/1.1/DTD/svg11.dtd">
<svg width="18px" height="18px" version="1.1" xmlns="http://www.w3.org/2000/svg" xmlns:xlink="http://www.w3.org/1999/xlink" xml:space="preserve" xmlns:serif="http://www.serif.com/" style="fill-rule:evenodd;clip-rule:evenodd;stroke-linejoin:round;stroke-miterlimit:2;">
    <g id="Layer0_68_FILL">
        <path d="M15.2,2.45C14.867,2.117 14.517,1.833 14.15,1.6C12.65,0.533 10.933,0 9,0C6.533,0 4.417,0.85 2.65,2.55C2.617,2.583 2.583,2.617 2.55,2.65C0.85,4.417 0,6.533 0,9C0,11.5 0.867,13.617 2.6,15.35C3.767,16.517 5.083,17.3 6.55,17.7C7.317,17.9 8.133,18 9,18C10.967,18 12.7,17.45 14.2,16.35C14.567,16.05 14.933,15.717 15.3,15.35C15.3,15.317 15.317,15.3 15.35,15.3C17.117,13.567 18,11.467 18,9C18,8.7 17.983,8.417 17.95,8.15C17.783,6.017 16.917,4.167 15.35,2.6C15.283,2.533 15.233,2.483 15.2,2.45M13.6,3.6C13.733,3.7 13.867,3.817 14,3.95C14.133,4.083 14.25,4.217 14.35,4.35C14.95,5.017 15.4,5.75 15.7,6.55C15.867,7.05 15.983,7.583 16.05,8.15C16.083,8.417 16.1,8.7 16.1,9C16.1,10.967 15.4,12.617 14,13.95C13.733,14.217 13.467,14.467 13.2,14.7C12.767,15.033 12.317,15.3 11.85,15.5C11.117,15.867 10.3,16.067 9.4,16.1L8.5,16.1C7.9,16.033 7.333,15.933 6.8,15.8C5.933,15.5 5.133,15.033 4.4,14.4C4.233,14.267 4.083,14.117 3.95,13.95C2.617,12.65 1.933,11.033 1.9,9.1L1.9,9C1.9,8.2 2.017,7.433 2.25,6.7C2.25,6.667 2.267,6.617 2.3,6.55C2.5,5.95 2.8,5.4 3.2,4.9C3.4,4.567 3.65,4.25 3.95,3.95C5.217,2.75 6.683,2.083 8.35,1.95C8.55,1.917 8.767,1.9 9,1.9C10.567,1.9 11.95,2.35 13.15,3.25C13.283,3.35 13.433,3.467 13.6,3.6Z" style="fill:rgb(204,204,204);fill-rule:nonzero;"/>
        <path d="M8.5,16.1L9.4,16.1C10.3,16.067 11.117,15.867 11.85,15.5L10.1,12.85L8.5,16.1M2.3,6.55C2.267,6.617 2.25,6.667 2.25,6.7L4.65,10.4L6.7,6.3L2.3,6.55M15.7,6.55C15.4,5.75 14.95,5.017 14.35,4.35L13.05,6.55L15.7,6.55M11.45,6.85C11.383,6.45 11.45,6.083 11.65,5.75L13.15,3.25C11.95,2.35 10.567,1.9 9,1.9C8.767,1.9 8.55,1.917 8.35,1.95C6.683,2.083 5.217,2.75 3.95,3.95C3.65,4.25 3.4,4.567 3.2,4.9L6.55,4.7C6.983,4.667 7.35,4.767 7.65,5C7.983,5.233 8.183,5.55 8.25,5.95C8.35,6.317 8.3,6.683 8.1,7.05L6.05,11.1C5.917,11.467 5.667,11.733 5.3,11.9C4.933,12.033 4.583,12.033 4.25,11.9C3.85,11.8 3.533,11.583 3.3,11.25L1.9,9.1C1.933,11.033 2.617,12.65 3.95,13.95C4.083,14.117 4.233,14.267 4.4,14.4C5.133,15.033 5.933,15.5 6.8,15.8L8.65,12.2C8.817,11.8 9.083,11.533 9.45,11.4C9.817,11.233 10.2,11.217 10.6,11.35C10.933,11.45 11.217,11.683 11.45,12.05L13.2,14.7C13.467,14.467 13.733,14.217 14,13.95C15.4,12.617 16.1,10.967 16.1,9C16.1,8.7 16.083,8.417 16.05,8.15L13.05,8.15C12.65,8.15 12.317,8.017 12.05,7.75C11.717,7.517 11.517,7.217 11.45,6.85Z" style="fill:white;fill-rule:nonzero;"/>
        <path d="M8.1,7.05C8.3,6.683 8.35,6.317 8.25,5.95C8.183,5.55 7.983,5.233 7.65,5C7.35,4.767 6.983,4.667 6.55,4.7L3.2,4.9C2.8,5.4 2.5,5.95 2.3,6.55L6.7,6.3L4.65,10.4L2.25,6.7C2.017,7.433 1.9,8.2 1.9,9L1.9,9.1L3.3,11.25C3.533,11.583 3.85,11.8 4.25,11.9C4.583,12.033 4.933,12.033 5.3,11.9C5.667,11.733 5.917,11.467 6.05,11.1L8.1,7.05M11.85,15.5C12.317,15.3 12.767,15.033 13.2,14.7L11.45,12.05C11.217,11.683 10.933,11.45 10.6,11.35C10.2,11.217 9.817,11.233 9.45,11.4C9.083,11.533 8.817,11.8 8.65,12.2L6.8,15.8C7.333,15.933 7.9,16.033 8.5,16.1L10.1,12.85L11.85,15.5M14,3.95C13.867,3.817 13.733,3.7 13.6,3.6C13.433,3.467 13.283,3.35 13.15,3.25L11.65,5.75C11.45,6.083 11.383,6.45 11.45,6.85C11.517,7.217 11.717,7.517 12.05,7.75C12.317,8.017 12.65,8.15 13.05,8.15L16.05,8.15C15.983,7.583 15.867,7.05 15.7,6.55L13.05,6.55L14.35,4.35C14.25,4.217 14.133,4.083 14,3.95Z" style="fill:rgb(70,70,70);fill-rule:nonzero;"/>
    </g>
</svg>
