<?xml version="1.0" encoding="UTF-8" standalone="no"?>
<!DOCTYPE svg PUBLIC "-//W3C//DTD SVG 1.1//EN" "http://www.w3.org/Graphics/SVG/1.1/DTD/svg11.dtd">
<svg width="18px" height="18px" version="1.1" xmlns="http://www.w3.org/2000/svg" xmlns:xlink="http://www.w3.org/1999/xlink" xml:space="preserve" xmlns:serif="http://www.serif.com/" style="fill-rule:evenodd;clip-rule:evenodd;stroke-linejoin:round;stroke-miterlimit:2;">
    <g id="Layer0_2_FILL">
        <path d="M15.35,2.6C15.283,2.533 15.233,2.483 15.2,2.45C13.467,0.817 11.4,0 9,0C6.533,0 4.417,0.85 2.65,2.55C2.617,2.583 2.583,2.617 2.55,2.65C0.85,4.417 0,6.533 0,9C0,11.5 0.867,13.617 2.6,15.35C4.367,17.117 6.5,18 9,18C11.467,18 13.567,17.117 15.3,15.35C15.3,15.317 15.317,15.3 15.35,15.3C17.117,13.567 18,11.467 18,9C18,6.5 17.117,4.367 15.35,2.6M13.6,3.6C13.733,3.7 13.867,3.817 14,3.95C15.4,5.35 16.1,7.033 16.1,9C16.1,10.967 15.4,12.617 14,13.95C12.733,15.283 11.2,16 9.4,16.1L9,16.1C7.233,16.1 5.7,15.533 4.4,14.4C4.233,14.267 4.083,14.117 3.95,13.95C2.583,12.617 1.9,10.967 1.9,9C1.9,7.033 2.583,5.35 3.95,3.95C5.217,2.75 6.683,2.083 8.35,1.95C8.55,1.917 8.767,1.9 9,1.9C10.767,1.9 12.3,2.467 13.6,3.6Z" style="fill:rgb(204,204,204);fill-rule:nonzero;"/>
        <path d="M5.85,13.25L4.4,14.4C5.7,15.533 7.233,16.1 9,16.1L9.4,16.1L8.7,14.2L5.85,13.25M6.55,5.65L3.8,6.1L3.25,8.95L4.85,10.55L7.4,8.35L6.55,5.65M13.6,12.15L14.6,9.05L12.4,7.5L10.3,9.6L10.85,12.35L13.6,12.15M11.75,4.85L13.6,3.6C12.3,2.467 10.767,1.9 9,1.9C8.767,1.9 8.55,1.917 8.35,1.95L8.7,3.75L11.75,4.85Z" style="fill:rgb(70,70,70);fill-rule:nonzero;"/>
        <path d="M13.6,3.6L11.75,4.85L8.7,3.75L8.35,1.95C6.683,2.083 5.217,2.75 3.95,3.95C2.583,5.35 1.9,7.033 1.9,9C1.9,10.967 2.583,12.617 3.95,13.95C4.083,14.117 4.233,14.267 4.4,14.4L5.85,13.25L8.7,14.2L9.4,16.1C11.2,16 12.733,15.283 14,13.95C15.4,12.617 16.1,10.967 16.1,9C16.1,7.033 15.4,5.35 14,3.95C13.867,3.817 13.733,3.7 13.6,3.6M14.6,9.05L13.6,12.15L10.85,12.35L10.3,9.6L12.4,7.5L14.6,9.05M3.8,6.1L6.55,5.65L7.4,8.35L4.85,10.55L3.25,8.95L3.8,6.1Z" style="fill:white;fill-rule:nonzero;"/>
    </g>
</svg>
