<?xml version="1.0" encoding="UTF-8" standalone="no"?>
<!DOCTYPE svg PUBLIC "-//W3C//DTD SVG 1.1//EN" "http://www.w3.org/Graphics/SVG/1.1/DTD/svg11.dtd">
<svg width="18px" height="18px" version="1.1" xmlns="http://www.w3.org/2000/svg" xmlns:xlink="http://www.w3.org/1999/xlink" xml:space="preserve" xmlns:serif="http://www.serif.com/" style="fill-rule:evenodd;clip-rule:evenodd;stroke-linejoin:round;stroke-miterlimit:2;">
    <g id="Layer0_66_FILL">
        <path d="M2.65,2.55C2.617,2.583 2.583,2.617 2.55,2.65C0.85,4.417 0,6.533 0,9C0,11.5 0.867,13.617 2.6,15.35C2.833,15.583 3.1,15.817 3.4,16.05C4.367,16.883 5.467,17.433 6.7,17.7C7.433,17.9 8.2,18 9,18C11.467,18 13.567,17.117 15.3,15.35C15.3,15.317 15.317,15.3 15.35,15.3C17.117,13.567 18,11.467 18,9C18,6.5 17.117,4.367 15.35,2.6C15.15,2.4 14.933,2.217 14.7,2.05C13.733,1.217 12.65,0.65 11.45,0.35C10.65,0.117 9.833,0 9,0C6.533,0 4.417,0.85 2.65,2.55M1.9,9C1.9,7.033 2.567,5.35 3.9,3.95C5.333,2.583 7.033,1.9 9,1.9C9.267,1.9 9.533,1.917 9.8,1.95C11.167,2.083 12.367,2.567 13.4,3.4C13.6,3.567 13.783,3.75 13.95,3.95C15.383,5.35 16.1,7.033 16.1,9C16.1,10.967 15.383,12.617 13.95,13.95C12.583,15.383 10.933,16.1 9,16.1L8.35,16.1C7.017,15.967 5.8,15.5 4.7,14.7C4.433,14.467 4.167,14.217 3.9,13.95C2.567,12.617 1.9,10.967 1.9,9Z" style="fill:rgb(203,206,233);fill-rule:nonzero;"/>
        <path d="M13.85,10.55L11.35,8.05L4.7,14.7C5.8,15.5 7.017,15.967 8.35,16.1L13.85,10.55M4.65,7.1L7.15,9.6L13.4,3.4C12.367,2.567 11.167,2.083 9.8,1.95L4.65,7.1Z" style="fill:rgb(233,233,233);fill-rule:nonzero;"/>
        <path d="M7.15,9.6L4.65,7.1L9.8,1.95C9.533,1.917 9.267,1.9 9,1.9C7.033,1.9 5.333,2.583 3.9,3.95C2.567,5.35 1.9,7.033 1.9,9C1.9,10.967 2.567,12.617 3.9,13.95C4.167,14.217 4.433,14.467 4.7,14.7L11.35,8.05L13.85,10.55L8.35,16.1L9,16.1C10.933,16.1 12.583,15.383 13.95,13.95C15.383,12.617 16.1,10.967 16.1,9C16.1,7.033 15.383,5.35 13.95,3.95C13.783,3.75 13.6,3.567 13.4,3.4L7.15,9.6Z" style="fill:white;fill-rule:nonzero;"/>
    </g>
</svg>
